<?xml version="1.0" encoding="UTF-8" standalone="no"?>
<svg
   xmlns:dc="http://purl.org/dc/elements/1.1/"
   xmlns:cc="http://creativecommons.org/ns#"
   xmlns:rdf="http://www.w3.org/1999/02/22-rdf-syntax-ns#"
   xmlns:svg="http://www.w3.org/2000/svg"
   xmlns="http://www.w3.org/2000/svg"
   xmlns:sodipodi="http://sodipodi.sourceforge.net/DTD/sodipodi-0.dtd"
   xmlns:inkscape="http://www.inkscape.org/namespaces/inkscape"
   inkscape:version="1.0.1 (c497b03c, 2020-09-10)"
   sodipodi:docname="Drapeau_deÌpartement_fr_Indre.svg.2020_12_16_13_00_34.0.svg"
   id="svg2"
   height="533.33331"
   width="800"
   version="1.0">
  <metadata
     id="metadata114">
    <rdf:RDF>
      <cc:Work
         rdf:about="">
        <dc:format>image/svg+xml</dc:format>
        <dc:type
           rdf:resource="http://purl.org/dc/dcmitype/StillImage" />
      </cc:Work>
    </rdf:RDF>
  </metadata>
  <sodipodi:namedview
     inkscape:current-layer="svg2"
     inkscape:window-maximized="0"
     inkscape:window-y="0"
     inkscape:window-x="0"
     inkscape:cy="243.47909"
     inkscape:cx="400.89222"
     inkscape:zoom="1.4"
     showgrid="false"
     id="namedview112"
     inkscape:window-height="1080"
     inkscape:window-width="1920"
     inkscape:pageshadow="2"
     inkscape:pageopacity="0"
     guidetolerance="10"
     gridtolerance="10"
     objecttolerance="10"
     borderopacity="1"
     inkscape:document-rotation="0"
     bordercolor="#666666"
     pagecolor="#ffffff" />
  <defs
     id="defs6" />
  <g
     id="g237">
    <rect
       style="fill:#2b5df2;fill-opacity:1;stroke:none;stroke-width:1.44783;stroke-linecap:round;stroke-linejoin:round;stroke-miterlimit:4;stroke-dasharray:none"
       id="rect1491"
       width="773.33331"
       height="506.66666"
       x="13.333337"
       y="13.333332" />
    <path
       style="fill:#ffffff;stroke:none;stroke-width:1px;stroke-linecap:butt;stroke-linejoin:miter;stroke-opacity:1"
       d="M 781.42853,270.66666 C 757.3845,266.43674 725.8708,328.68332 692.8506,329.26 656.91144,329.88766 638.52377,269.70237 590.71426,270.66666 554.52716,271.39654 535.74702,329.0511 499.29668,329.26 454.9695,329.51404 444.14589,270.55674 399.99999,270.66666 357.69203,270.77201 337.73997,330.20335 302.132,329.26 274.39145,328.52508 249.45675,271.43798 209.28572,270.66666 162.60616,269.77037 143.49691,329.3553 113.58437,329.26 83.195881,329.1632 28.830887,283.35358 18.571456,270.66666 v -66 c 10.259431,12.68692 64.624425,58.49654 95.012914,58.59334 29.91254,0.0953 49.02179,-59.48963 95.70135,-58.59334 40.17103,0.77132 65.10573,57.85842 92.84628,58.59334 35.60797,0.94335 55.56003,-58.48799 97.86799,-58.59334 44.1459,-0.10992 54.96951,58.84738 99.29669,58.59334 36.45034,-0.2089 55.23048,-57.86346 91.41758,-58.59334 47.80951,-0.96429 66.19718,59.221 102.13634,58.59334 33.0202,-0.57668 64.5339,-62.82326 88.57793,-58.59334 z"
       id="path169"
       sodipodi:nodetypes="csssssssccssssssscc" />
    <g
       id="g222">
      <g
         id="g179"
         fill="#fcef3c"
         transform="matrix(0.80899054,0,0,0.8093838,122.73304,37.481879)"
         style="fill:#fcef3c;fill-opacity:1;stroke:none;stroke-width:1.23581">
        <rect
           x="69.224998"
           y="147.132"
           width="62.459"
           height="10.104"
           rx="3.22"
           id="rect175"
           style="fill:#fcef3c;fill-opacity:1;stroke:none;stroke-width:1.23581" />
        <path
           d="m 100.024,29.61 c 13.531,14.626 21.487,22.691 22.877,45.385 1.287,21.001 -12.689,38.559 -15.701,58.871 -0.571,3.853 -1.061,11.718 -0.545,14.907 0.382,2.362 1.558,9.578 2.841,0.65 0.264,-1.837 0.454,-11.05 1.263,-15.729 1.476,-8.524 6.2,-23.513 14.395,-31.818 8.193,-8.301 21.174,-13.685 32.751,-9.343 10.49,4.84 11.481,18.508 8.497,28.503 -3.738,12.517 -18.022,21.181 -30.828,22.03 2.537,-5.018 8.611,-19.341 2.023,-18.772 -7.625,0.658 -16.745,13.631 -19.12,22.531 -0.894,3.351 -0.533,8.555 -5.321,8.34 3.157,10.667 12.07,17.726 19.878,25.173 -8.14,0.676 -16.192,-3.154 -23.294,-6.803 0.301,7.314 -1.119,22.765 -9.716,31.201 -7.979,-8.687 -8.705,-19.283 -8.855,-31.201 -7.102,3.649 -15.154,7.479 -23.293,6.803 7.808,-7.447 16.72,-14.506 19.877,-25.173 -4.788,0.215 -5.076,-4.664 -5.97,-8.016 -2.375,-8.899 -10.846,-22.197 -18.471,-22.855 -6.587,-0.569 -0.514,13.754 2.024,18.772 -12.806,-0.849 -27.09,-9.513 -30.828,-22.03 -2.985,-9.995 -1.993,-23.663 8.496,-28.503 11.577,-4.342 24.559,1.042 32.751,9.343 8.196,8.305 12.92,23.294 14.395,31.818 0.81,4.679 0.674,13.243 0.938,15.079 1.284,8.929 2.784,2.362 3.167,0 0.516,-3.189 0.026,-11.054 -0.546,-14.907 C 90.697,113.554 78.044,95.282 78.008,74.995 77.976,56.677 87.186,42.739 100.024,29.61 Z"
           id="path177"
           style="fill:#fcef3c;fill-opacity:1;stroke:none;stroke-width:1.23581" />
      </g>
      <g
         id="g185"
         fill="#fcef3c"
         transform="matrix(0.80899054,0,0,0.8093838,514.73304,37.481879)"
         style="fill:#fcef3c;fill-opacity:1;stroke:none;stroke-width:1.23581">
        <rect
           x="69.224998"
           y="147.132"
           width="62.459"
           height="10.104"
           rx="3.22"
           id="rect181"
           style="fill:#fcef3c;fill-opacity:1;stroke:none;stroke-width:1.23581" />
        <path
           d="m 100.024,29.61 c 13.531,14.626 21.487,22.691 22.877,45.385 1.287,21.001 -12.689,38.559 -15.701,58.871 -0.571,3.853 -1.061,11.718 -0.545,14.907 0.382,2.362 1.558,9.578 2.841,0.65 0.264,-1.837 0.454,-11.05 1.263,-15.729 1.476,-8.524 6.2,-23.513 14.395,-31.818 8.193,-8.301 21.174,-13.685 32.751,-9.343 10.49,4.84 11.481,18.508 8.497,28.503 -3.738,12.517 -18.022,21.181 -30.828,22.03 2.537,-5.018 8.611,-19.341 2.023,-18.772 -7.625,0.658 -16.745,13.631 -19.12,22.531 -0.894,3.351 -0.533,8.555 -5.321,8.34 3.157,10.667 12.07,17.726 19.878,25.173 -8.14,0.676 -16.192,-3.154 -23.294,-6.803 0.301,7.314 -1.119,22.765 -9.716,31.201 -7.979,-8.687 -8.705,-19.283 -8.855,-31.201 -7.102,3.649 -15.154,7.479 -23.293,6.803 7.808,-7.447 16.72,-14.506 19.877,-25.173 -4.788,0.215 -5.076,-4.664 -5.97,-8.016 -2.375,-8.899 -10.846,-22.197 -18.471,-22.855 -6.587,-0.569 -0.514,13.754 2.024,18.772 -12.806,-0.849 -27.09,-9.513 -30.828,-22.03 -2.985,-9.995 -1.993,-23.663 8.496,-28.503 11.577,-4.342 24.559,1.042 32.751,9.343 8.196,8.305 12.92,23.294 14.395,31.818 0.81,4.679 0.674,13.243 0.938,15.079 1.284,8.929 2.784,2.362 3.167,0 0.516,-3.189 0.026,-11.054 -0.546,-14.907 C 90.697,113.554 78.044,95.282 78.008,74.995 77.976,56.677 87.186,42.739 100.024,29.61 Z"
           id="path183"
           style="fill:#fcef3c;fill-opacity:1;stroke:none;stroke-width:1.23581" />
      </g>
      <g
         id="g211">
        <path
           d="m 399.65151,307.73344 c 10.94645,11.83805 17.38278,18.36573 18.50728,36.73389 1.04117,16.99787 -10.26528,31.20903 -12.70196,47.64923 -0.46194,3.11856 -0.85834,9.48436 -0.4409,12.06549 0.30903,1.91176 1.2604,7.75227 2.29834,0.5261 0.21357,-1.48684 0.36728,-8.9437 1.02175,-12.7308 1.19407,-6.89919 5.01574,-19.03104 11.64542,-25.75298 6.62806,-6.71869 17.12957,-11.07641 26.49525,-7.56207 8.48631,3.91742 9.28802,14.98008 6.87399,23.06987 -3.024,10.13105 -14.57962,17.14356 -24.93956,17.83072 2.05241,-4.06149 6.96622,-15.65429 1.63659,-15.19375 -6.16855,0.53257 -13.54655,11.03271 -15.4679,18.23623 -0.72324,2.71224 -0.43119,6.92427 -4.30464,6.75026 2.55399,8.63369 9.76452,14.34713 16.08112,20.37462 -6.58519,0.54714 -13.09918,-2.5528 -18.84463,-5.50624 0.24351,5.91983 -0.90526,18.42562 -7.86015,25.25358 -6.45494,-7.03112 -7.04226,-15.60735 -7.16361,-25.25358 -5.74545,2.95344 -12.25944,6.05338 -18.84382,5.50624 6.3166,-6.02749 13.52632,-11.74093 16.08031,-20.37462 -3.87345,0.17401 -4.10644,-3.77497 -4.82968,-6.48802 -1.92135,-7.20271 -8.77431,-17.9659 -14.94286,-18.49847 -5.32882,-0.46054 -0.41582,11.13226 1.6374,15.19375 -10.35994,-0.68716 -21.91556,-7.69967 -24.93956,-17.83072 -2.41484,-8.08979 -1.61232,-19.15245 6.87318,-23.06987 9.36568,-3.51434 19.868,0.84338 26.49525,7.56207 6.63048,6.72194 10.45216,18.85379 11.64542,25.75298 0.65528,3.7871 0.54526,10.71867 0.75883,12.2047 1.03874,7.22698 2.25223,1.91176 2.56207,0 0.41744,-2.58113 0.021,-8.94693 -0.44171,-12.06549 -2.43667,-16.4402 -12.67283,-31.22926 -12.70196,-47.64923 -0.0259,-14.82629 7.42492,-26.10749 17.81074,-36.73389 z"
           id="path189"
           style="fill:#fcef3c;fill-opacity:1;stroke:none;stroke-width:1" />
        <rect
           x="374.73541"
           y="402.85385"
           width="50.52874"
           height="8.1780138"
           rx="2.6049495"
           id="rect187"
           style="fill:#fcef3c;fill-opacity:1;stroke:none;stroke-width:1" />
      </g>
    </g>
    <path
       inkscape:connector-curvature="0"
       id="rect1698"
       style="fill:#e20909;fill-opacity:1;stroke:none;stroke-width:1.51083;stroke-linecap:round;stroke-linejoin:round;stroke-miterlimit:4;stroke-dasharray:none"
       d="M 3.0793619e-6,3.20319e-6 V 533.33332 H 799.99998 V 3.20319e-6 Z M 56.000002,29.333336 a 29.333333,29.333333 0 0 1 28.463546,22.244786 29.333333,29.333333 0 0 1 0.0912,0.380213 29.333333,29.333333 0 0 1 28.557282,-22.624999 29.333333,29.333333 0 0 1 28.55469,22.627599 29.333333,29.333333 0 0 1 28.55469,-22.627599 29.333333,29.333333 0 0 1 28.55728,22.632813 29.333333,29.333333 0 0 1 28.55469,-22.632813 29.333333,29.333333 0 0 1 28.5547,22.627599 29.333333,29.333333 0 0 1 28.55728,-22.627599 29.333333,29.333333 0 0 1 28.55469,22.627599 29.333333,29.333333 0 0 1 28.55469,-22.627599 29.333333,29.333333 0 0 1 28.55728,22.632813 29.333333,29.333333 0 0 1 28.55469,-22.632813 29.333333,29.333333 0 0 1 28.5547,22.627599 29.333333,29.333333 0 0 1 28.55728,-22.627599 29.333333,29.333333 0 0 1 28.55469,22.627599 29.333333,29.333333 0 0 1 28.55469,-22.627599 29.333333,29.333333 0 0 1 28.55728,22.632813 29.333333,29.333333 0 0 1 28.55469,-22.632813 29.333333,29.333333 0 0 1 28.55469,22.627599 29.333333,29.333333 0 0 1 28.55728,-22.627599 29.333333,29.333333 0 0 1 28.5547,22.627599 29.333333,29.333333 0 0 1 28.55469,-22.627599 29.333333,29.333333 0 0 1 28.55728,22.632813 29.333333,29.333333 0 0 1 28.55469,-22.632813 29.333333,29.333333 0 0 1 29.33333,29.333332 29.333333,29.333333 0 0 1 -21.75781,28.338533 31.999999,31.999999 0 0 1 24.42448,31.091149 31.999999,31.999999 0 0 1 -20.125,29.71354 31.999999,31.999999 0 0 1 20.125,29.71355 31.999999,31.999999 0 0 1 -20.1276,29.71353 31.999999,31.999999 0 0 1 20.1276,29.71615 31.999999,31.999999 0 0 1 -20.125,29.71354 31.999999,31.999999 0 0 1 20.125,29.71615 31.999999,31.999999 0 0 1 -20.1276,29.71093 31.999999,31.999999 0 0 1 20.1276,29.71615 31.999999,31.999999 0 0 1 -20.125,29.71354 31.999999,31.999999 0 0 1 20.125,29.71614 31.999999,31.999999 0 0 1 -24.42708,31.08854 29.333333,29.333333 0 0 1 21.76041,28.33855 29.333333,29.333333 0 0 1 -29.33333,29.33333 29.333333,29.333333 0 0 1 -28.55469,-22.625 29.333333,29.333333 0 0 1 -28.55728,22.625 29.333333,29.333333 0 0 1 -28.55469,-22.625 29.333333,29.333333 0 0 1 -28.5547,22.625 29.333333,29.333333 0 0 1 -28.55728,-22.63021 29.333333,29.333333 0 0 1 -28.55469,22.63021 29.333333,29.333333 0 0 1 -28.55469,-22.625 29.333333,29.333333 0 0 1 -28.55728,22.625 29.333333,29.333333 0 0 1 -28.55469,-22.625 29.333333,29.333333 0 0 1 -28.55469,22.625 29.333333,29.333333 0 0 1 -28.55728,-22.63021 29.333333,29.333333 0 0 1 -28.5547,22.63021 29.333333,29.333333 0 0 1 -28.55469,-22.625 29.333333,29.333333 0 0 1 -28.55728,22.625 29.333333,29.333333 0 0 1 -28.55469,-22.625 29.333333,29.333333 0 0 1 -28.55469,22.625 29.333333,29.333333 0 0 1 -28.55728,-22.63021 29.333333,29.333333 0 0 1 -28.5547,22.63021 29.333333,29.333333 0 0 1 -28.55469,-22.625 29.333333,29.333333 0 0 1 -28.55728,22.625 29.333333,29.333333 0 0 1 -28.55469,-22.625 29.333333,29.333333 0 0 1 -28.55469,22.625 29.333333,29.333333 0 0 1 -28.557282,-22.63021 29.333333,29.333333 0 0 1 -28.554693,22.63021 29.333333,29.333333 0 0 1 -29.333333,-29.33333 29.333333,29.333333 0 0 1 23.161453,-28.67448 31.999999,31.999999 0 0 1 -23.161453,-30.75261 31.999999,31.999999 0 0 1 20.1276,-29.71354 31.999999,31.999999 0 0 1 -20.1276,-29.71614 31.999999,31.999999 0 0 1 20.125,-29.71355 31.999999,31.999999 0 0 1 -20.125,-29.71353 31.999999,31.999999 0 0 1 20.1276,-29.71355 31.999999,31.999999 0 0 1 -20.1276,-29.71614 31.999999,31.999999 0 0 1 20.125,-29.71355 31.999999,31.999999 0 0 1 -20.125,-29.71613 31.999999,31.999999 0 0 1 20.1276,-29.71095 31.999999,31.999999 0 0 1 -20.1276,-29.71614 A 31.999999,31.999999 0 0 1 49.820375,87.343748 29.333333,29.333333 0 0 1 26.666722,58.666668 29.333333,29.333333 0 0 1 56.000055,29.333336 Z" />
  </g>
</svg>
