<?xml version="1.0" encoding="UTF-8" standalone="no"?>
<!-- Created with Inkscape (http://www.inkscape.org/) -->
<svg
   xmlns:dc="http://purl.org/dc/elements/1.1/"
   xmlns:cc="http://web.resource.org/cc/"
   xmlns:rdf="http://www.w3.org/1999/02/22-rdf-syntax-ns#"
   xmlns:svg="http://www.w3.org/2000/svg"
   xmlns="http://www.w3.org/2000/svg"
   xmlns:sodipodi="http://sodipodi.sourceforge.net/DTD/sodipodi-0.dtd"
   xmlns:inkscape="http://www.inkscape.org/namespaces/inkscape"
   width="1203.1936"
   height="796.79163"
   id="svg2"
   sodipodi:version="0.32"
   inkscape:version="0.45.1"
   sodipodi:docbase="C:\Users\Jany\Documents\aaaOuiqui\Drapeaux"
   sodipodi:docname="Drapeau fr département Loire-Atlantique.svg"
   inkscape:output_extension="org.inkscape.output.svg.inkscape"
   version="1.0">
  <defs
     id="defs4" />
  <sodipodi:namedview
     id="base"
     pagecolor="#ffffff"
     bordercolor="#666666"
     borderopacity="1.0"
     inkscape:pageopacity="0.0"
     inkscape:pageshadow="2"
     inkscape:zoom="0.49497475"
     inkscape:cx="799.60962"
     inkscape:cy="383.04466"
     inkscape:document-units="px"
     inkscape:current-layer="layer1"
     inkscape:window-width="1152"
     inkscape:window-height="814"
     inkscape:window-x="-8"
     inkscape:window-y="-8"
     showguides="true"
     inkscape:guide-bbox="true">
    <sodipodi:guide
       orientation="vertical"
       position="-745.49257"
       id="guide28349" />
  </sodipodi:namedview>
  <metadata
     id="metadata7">
    <rdf:RDF>
      <cc:Work
         rdf:about="">
        <dc:format>image/svg+xml</dc:format>
        <dc:type
           rdf:resource="http://purl.org/dc/dcmitype/StillImage" />
      </cc:Work>
    </rdf:RDF>
  </metadata>
  <g
     inkscape:label="Calque 1"
     inkscape:groupmode="layer"
     id="layer1"
     transform="translate(1127.278,-136.21415)"
     style="display:inline">
    <g
       transform="translate(-1022.3356,584.65272)"
       id="g22331"
       style="display:inline" />
    <path
       style="fill:none;fill-opacity:0.75;fill-rule:evenodd;stroke:none;stroke-width:3;stroke-linecap:butt;stroke-linejoin:miter;stroke-miterlimit:4;stroke-dasharray:none;stroke-opacity:1;display:inline"
       d="M 95.2819,215.06078 L 95.2819,-235.96609"
       id="path11207" />
    <rect
       transform="matrix(0,-1,1,0,0,0)"
       y="-44.954388"
       x="557.12079"
       height="0"
       width="1.5233166"
       id="rect12745"
       style="fill:#ffffff;fill-opacity:1;fill-rule:evenodd;stroke:none;stroke-width:1.52331662;stroke-linecap:round;stroke-linejoin:round;stroke-miterlimit:4;stroke-dasharray:none;stroke-dashoffset:0;stroke-opacity:1" />
    <path
       sodipodi:nodetypes="ccccc"
       id="rect2239"
       d="M -1125.5251,137.67842 L 77.652989,137.67842 L 77.652989,934.47007 L -1125.5251,934.47007 L -1125.5251,137.67842 z "
       style="fill:#ffffff;fill-opacity:1;stroke:#000000;stroke-width:0.4;stroke-miterlimit:4;stroke-opacity:1;stroke-dasharray:none" />
    <path
       style="fill:none;fill-rule:evenodd;stroke:#000000;stroke-width:0.98280448px;stroke-linecap:butt;stroke-linejoin:miter;stroke-opacity:1"
       d="M 212.19321,1320.0324 L 212.19321,1320.0324 z "
       id="path30950" />
    <path
       style="fill:#000000;fill-opacity:1;stroke:none;stroke-width:0.4;stroke-miterlimit:4;stroke-opacity:1;stroke-dasharray:none;display:inline"
       d="M 1.75 1.46875 L 1.75 39.96875 C 3.7813804 30.124155 5.4369139 15.95818 7.0625 1.46875 L 1.75 1.46875 z M 19.1875 1.46875 C 22.689522 5.5212037 26.487879 9.4392192 30.875 13.03125 L 25.9375 1.46875 L 19.1875 1.46875 z M 149.15625 1.46875 C 147.43166 5.2182258 145.69334 8.9045723 143.96875 12.59375 C 145.62254 11.95551 149.60513 7.8998008 155.15625 1.46875 L 149.15625 1.46875 z M 167.1875 1.46875 C 168.77787 16.501696 170.79417 31.487939 173.53125 41.40625 C 175.70326 31.535813 177.45037 16.674029 179.15625 1.46875 L 167.1875 1.46875 z M 191.3125 1.46875 C 194.814 5.5204179 198.58245 9.4398679 202.96875 13.03125 L 198.03125 1.46875 L 191.3125 1.46875 z M 321.25 1.46875 C 319.5254 5.2182258 317.78709 8.9045723 316.0625 12.59375 C 317.71628 11.95551 321.69888 7.8998008 327.25 1.46875 L 321.25 1.46875 z M 339.28125 1.46875 C 340.87162 16.501696 342.88792 31.487939 345.625 41.40625 C 347.79701 31.535813 349.54412 16.674029 351.25 1.46875 L 339.28125 1.46875 z M 363.40625 1.46875 C 366.90775 5.5204179 370.6762 9.4398679 375.0625 13.03125 L 370.125 1.46875 L 363.40625 1.46875 z M 493.34375 1.46875 C 491.61916 5.2182258 489.88084 8.9045723 488.15625 12.59375 C 489.80988 11.955566 493.79339 7.8988181 499.34375 1.46875 L 493.34375 1.46875 z M 511.375 1.46875 C 512.96537 16.501696 514.98167 31.487939 517.71875 41.40625 C 519.89077 31.535813 521.63788 16.674029 523.34375 1.46875 L 511.375 1.46875 z M 535.5 1.46875 C 539.0015 5.5204179 542.76995 9.4398679 547.15625 13.03125 L 542.21875 1.46875 L 535.5 1.46875 z M 665.4375 1.46875 C 663.7129 5.2182258 661.97459 8.9045723 660.25 12.59375 C 661.90362 11.955566 665.88714 7.8988181 671.4375 1.46875 L 665.4375 1.46875 z M 683.46875 1.46875 C 685.05912 16.501696 687.07542 31.487939 689.8125 41.40625 C 691.98451 31.535813 693.73162 16.674029 695.4375 1.46875 L 683.46875 1.46875 z M 707.59375 1.46875 C 711.09525 5.5204179 714.89495 9.4398679 719.28125 13.03125 L 714.34375 1.46875 L 707.59375 1.46875 z M 837.53125 1.46875 C 835.80666 5.2182258 834.09959 8.9045723 832.375 12.59375 C 834.02865 11.955566 837.9809 7.8988181 843.53125 1.46875 L 837.53125 1.46875 z M 855.5625 1.46875 C 857.15287 16.501696 859.20042 31.487939 861.9375 41.40625 C 864.1095 31.535813 865.82537 16.674029 867.53125 1.46875 L 855.5625 1.46875 z M 879.6875 1.46875 C 883.189 5.5204179 886.9887 9.4398679 891.375 13.03125 L 886.4375 1.46875 L 879.6875 1.46875 z M 1009.625 1.46875 C 1007.9011 5.2165537 1006.1926 8.9061542 1004.4688 12.59375 C 1006.1224 11.955566 1010.0746 7.8988181 1015.625 1.46875 L 1009.625 1.46875 z M 1027.6563 1.46875 C 1029.2466 16.501696 1031.2942 31.487939 1034.0313 41.40625 C 1036.2033 31.535813 1037.9191 16.674029 1039.625 1.46875 L 1027.6563 1.46875 z M 1051.7813 1.46875 C 1055.2833 5.5212037 1059.0817 9.4392192 1063.4688 13.03125 L 1058.5313 1.46875 L 1051.7813 1.46875 z M 1181.75 1.46875 C 1180.0254 5.2182258 1178.2871 8.9045723 1176.5625 12.59375 C 1178.2163 11.95551 1182.1989 7.8998008 1187.75 1.46875 L 1181.75 1.46875 z M 1199.75 1.46875 C 1201.1035 14.262711 1202.7812 27.021296 1204.9375 36.65625 L 1204.9375 1.46875 L 1199.75 1.46875 z M 84.9375 5.84375 C 96.835603 22.64418 63.5625 29.41093 81.5 45.3125 C 89.149899 50.711669 106.949 38.99004 91.25 24.625 C 89.221596 23.395241 98.3846 14.85387 84.9375 5.84375 z M 257.0625 5.84375 C 268.96057 22.64418 235.65632 29.41093 253.59375 45.3125 C 261.24368 50.711669 279.04277 38.99004 263.34375 24.625 C 261.3154 23.395241 270.50958 14.85387 257.0625 5.84375 z M 429.15625 5.84375 C 441.0543 22.64418 407.75007 29.41093 425.6875 45.3125 C 433.33744 50.711669 451.13652 38.99004 435.4375 24.625 C 433.40916 23.395241 442.60333 14.85387 429.15625 5.84375 z M 601.25 5.84375 C 613.14808 22.64418 579.84382 29.41093 597.78125 45.3125 C 605.43116 50.711669 623.23027 38.99004 607.53125 24.625 C 605.50291 23.395241 614.69708 14.85387 601.25 5.84375 z M 773.34375 5.84375 C 785.24182 22.64418 751.93757 29.41093 769.875 45.3125 C 777.52496 50.711669 795.35527 38.99004 779.65625 24.625 C 777.62789 23.395241 786.79083 14.85387 773.34375 5.84375 z M 945.4375 5.84375 C 957.33555 22.64418 924.06257 29.41093 942 45.3125 C 949.64994 50.711669 967.44902 38.99004 951.75 24.625 C 949.72163 23.395241 958.88458 14.85387 945.4375 5.84375 z M 1117.5313 5.84375 C 1129.4294 22.64418 1096.1563 29.41093 1114.0938 45.3125 C 1121.7436 50.711669 1139.5428 38.99004 1123.8438 24.625 C 1121.8154 23.395241 1130.9783 14.85387 1117.5313 5.84375 z M 106.0625 45.71875 C 102.62457 45.543807 99.344425 47.370614 96.25 53.46875 C 92.854504 62.414172 107.73175 77.94923 117.78125 58.875 C 118.49235 56.547189 128.48206 63.99448 134 48.375 C 124.5391 59.692468 114.84832 46.165827 106.0625 45.71875 z M 278.1875 45.71875 C 274.74957 45.543807 271.43819 47.370614 268.34375 53.46875 C 264.94823 62.414172 279.82549 77.94923 289.875 58.875 C 290.58601 56.547189 300.57581 63.99448 306.09375 48.375 C 296.63285 59.692468 286.97332 46.165827 278.1875 45.71875 z M 450.28125 45.71875 C 446.84332 45.543807 443.53194 47.370614 440.4375 53.46875 C 437.04196 62.414172 451.91924 77.94923 461.96875 58.875 C 462.67977 56.547189 472.70081 63.99448 478.21875 48.375 C 468.75783 59.692468 459.06707 46.165827 450.28125 45.71875 z M 622.375 45.71875 C 618.93707 45.543807 615.62569 47.370614 612.53125 53.46875 C 609.13571 62.414172 624.01299 77.94923 634.0625 58.875 C 634.77355 56.547189 644.79456 63.99448 650.3125 48.375 C 640.85158 59.692468 631.16082 46.165827 622.375 45.71875 z M 794.46875 45.71875 C 791.03082 45.543807 787.71944 47.370614 784.625 53.46875 C 781.22945 62.414172 796.10674 77.94923 806.15625 58.875 C 806.86728 56.547189 816.88831 63.99448 822.40625 48.375 C 812.94532 59.692468 803.25456 46.165827 794.46875 45.71875 z M 966.5625 45.71875 C 963.12457 45.543807 959.81319 47.370614 956.71875 53.46875 C 953.32325 62.414172 968.20049 77.94923 978.25 58.875 C 978.96102 56.547189 988.98206 63.99448 994.5 48.375 C 985.0391 59.692468 975.34832 46.165827 966.5625 45.71875 z M 1138.6563 45.71875 C 1135.2183 45.543807 1131.9382 47.370614 1128.8438 53.46875 C 1125.4482 62.414172 1140.2942 77.94923 1150.3438 58.875 C 1151.0548 56.547189 1161.0758 63.99448 1166.5938 48.375 C 1157.1328 59.692468 1147.4421 46.165827 1138.6563 45.71875 z M 68.03125 45.9375 C 59.24542 46.384577 49.554655 59.879967 40.09375 48.5625 C 45.61165 64.18198 55.601498 56.734688 56.3125 59.0625 C 66.362 78.13673 81.239253 62.632921 77.84375 53.6875 C 74.749297 47.589364 71.469183 45.762557 68.03125 45.9375 z M 240.125 45.9375 C 231.33918 46.384577 221.64841 59.879967 212.1875 48.5625 C 217.70544 64.18198 227.72649 56.734688 228.4375 59.0625 C 238.48701 78.13673 253.33303 62.632921 249.9375 53.6875 C 246.84306 47.589364 243.56293 45.762557 240.125 45.9375 z M 412.21875 45.9375 C 403.43293 46.384577 393.74217 59.879967 384.28125 48.5625 C 389.79919 64.18198 399.82023 56.734688 400.53125 59.0625 C 410.58076 78.13673 425.45803 62.632921 422.0625 53.6875 C 418.96806 47.589364 415.65668 45.762557 412.21875 45.9375 z M 584.3125 45.9375 C 575.52667 46.384577 565.83589 59.879967 556.375 48.5625 C 561.89294 64.18198 571.91398 56.734688 572.625 59.0625 C 582.67451 78.13673 597.55175 62.632921 594.15625 53.6875 C 591.06181 47.589364 587.75043 45.762557 584.3125 45.9375 z M 756.40625 45.9375 C 747.62044 46.384577 737.92968 59.879967 728.46875 48.5625 C 733.98669 64.18198 744.00771 56.734688 744.71875 59.0625 C 754.76826 78.13673 769.64555 62.632921 766.25 53.6875 C 763.15556 47.589364 759.84418 45.762557 756.40625 45.9375 z M 928.5 45.9375 C 919.71418 46.384577 910.02342 59.879967 900.5625 48.5625 C 906.08044 64.18198 916.10145 56.734688 916.8125 59.0625 C 926.86201 78.13673 941.73929 62.632921 938.34375 53.6875 C 935.24931 47.589364 931.93793 45.762557 928.5 45.9375 z M 1100.5938 45.9375 C 1091.8079 46.384577 1082.1484 59.879967 1072.6875 48.5625 C 1078.2054 64.18198 1088.1953 56.734688 1088.9063 59.0625 C 1098.9558 78.13673 1113.833 62.632921 1110.4375 53.6875 C 1107.3431 47.589364 1104.0317 45.762557 1100.5938 45.9375 z M 87.8125 56.75 C 80.075699 96.772479 65.6676 125.09706 50 145.46875 C 56.512902 143.43534 63.82735 137.65157 70.90625 132.59375 C 66.577148 143.08869 62.2666 152.2706 57.9375 161.53125 C 60.522298 160.5337 68.70365 151.18252 79.84375 137.46875 C 81.590352 156.32192 83.9722 177.56018 87.5 190.34375 C 90.308497 177.58064 92.36475 156.45871 94.59375 137.0625 C 101.30985 145.73615 107.8504 154.49729 116.9375 161.9375 L 104.15625 132.0625 C 110.74375 136.85647 118.04555 143.20004 125.03125 145.875 C 108.46815 124.4868 94.4999 96.77679 87.8125 56.75 z M 259.90625 56.75 C 252.16943 96.772479 237.76133 125.09706 222.09375 145.46875 C 228.60662 143.43534 235.92108 137.65157 243 132.59375 C 238.67088 143.08869 234.36036 152.2706 230.03125 161.53125 C 232.61604 160.5337 240.79737 151.18252 251.9375 137.46875 C 253.68399 156.32192 256.06597 177.56018 259.59375 190.34375 C 262.4023 177.58064 264.45852 156.45871 266.6875 137.0625 C 273.40358 145.73615 279.94421 154.49729 289.03125 161.9375 L 276.28125 132.0625 C 282.86871 136.85647 290.13928 143.20004 297.125 145.875 C 280.56183 124.4868 266.59369 96.77679 259.90625 56.75 z M 432.03125 56.75 C 424.29443 96.772479 409.85508 125.09706 394.1875 145.46875 C 400.70038 143.43534 408.01483 137.65157 415.09375 132.59375 C 410.76463 143.08869 406.45411 152.2706 402.125 161.53125 C 404.7098 160.5337 412.89112 151.18252 424.03125 137.46875 C 425.77774 156.32192 428.15972 177.56018 431.6875 190.34375 C 434.49606 177.58064 436.55227 156.45871 438.78125 137.0625 C 445.49734 145.73615 452.03796 154.49729 461.125 161.9375 L 448.375 132.0625 C 454.96247 136.85647 462.23303 143.20004 469.21875 145.875 C 452.65559 124.4868 438.71869 96.77679 432.03125 56.75 z M 604.125 56.75 C 596.38815 96.772479 581.94883 125.09706 566.28125 145.46875 C 572.79412 143.43534 580.10858 137.65157 587.1875 132.59375 C 582.85841 143.08869 578.54786 152.2706 574.21875 161.53125 C 576.80352 160.5337 585.01612 151.18252 596.15625 137.46875 C 597.90276 156.32192 600.25347 177.56018 603.78125 190.34375 C 606.58981 177.58064 608.67727 156.45871 610.90625 137.0625 C 617.62234 145.73615 624.13171 154.49729 633.21875 161.9375 L 620.46875 132.0625 C 627.05622 136.85647 634.32678 143.20004 641.3125 145.875 C 624.74934 124.4868 610.81244 96.77679 604.125 56.75 z M 776.21875 56.75 C 768.48195 96.772479 754.04258 125.09706 738.375 145.46875 C 744.88786 143.43534 752.23358 137.65157 759.3125 132.59375 C 754.98339 143.08869 750.64161 152.2706 746.3125 161.53125 C 748.89732 160.5337 757.10987 151.18252 768.25 137.46875 C 769.9965 156.32192 772.34722 177.56018 775.875 190.34375 C 778.68354 177.58064 780.77102 156.45871 783 137.0625 C 789.71607 145.73615 796.22546 154.49729 805.3125 161.9375 L 792.5625 132.0625 C 799.14996 136.85647 806.42053 143.20004 813.40625 145.875 C 796.84308 124.4868 782.90619 96.77679 776.21875 56.75 z M 948.3125 56.75 C 940.57569 96.772479 926.13633 125.09706 910.46875 145.46875 C 916.9816 143.43534 924.32733 137.65157 931.40625 132.59375 C 927.07713 143.08869 922.73536 152.2706 918.40625 161.53125 C 920.99106 160.5337 929.20362 151.18252 940.34375 137.46875 C 942.09024 156.32192 944.44097 177.56018 947.96875 190.34375 C 950.77728 177.58064 952.86477 156.45871 955.09375 137.0625 C 961.80981 145.73615 968.31921 154.49729 977.40625 161.9375 L 964.65625 132.0625 C 971.2437 136.85647 978.51428 143.20004 985.5 145.875 C 968.93682 124.4868 954.99994 96.77679 948.3125 56.75 z M 1120.4063 56.75 C 1112.6694 96.772479 1098.2613 125.09706 1082.5938 145.46875 C 1089.1066 143.43534 1096.4211 137.65157 1103.5 132.59375 C 1099.1709 143.08869 1094.8291 152.2706 1090.5 161.53125 C 1093.0848 160.5337 1101.2974 151.18252 1112.4375 137.46875 C 1114.184 156.32192 1116.5347 177.56018 1120.0625 190.34375 C 1122.8711 177.58064 1124.9585 156.45871 1127.1875 137.0625 C 1133.9036 145.73615 1140.413 154.49729 1149.5 161.9375 L 1136.75 132.0625 C 1143.3375 136.85647 1150.608 143.20004 1157.5938 145.875 C 1141.0306 124.4868 1127.0937 96.77679 1120.4063 56.75 z M 171 154.78125 C 182.89806 171.58168 149.62507 178.31718 167.5625 194.21875 C 175.21243 199.61792 193.01152 187.92754 177.3125 173.5625 C 175.28415 172.33274 184.44708 163.79137 171 154.78125 z M 343.09375 154.78125 C 354.99182 171.58168 321.71882 178.31718 339.65625 194.21875 C 347.30618 199.61792 365.10527 187.92754 349.40625 173.5625 C 347.37789 172.33274 356.54083 163.79137 343.09375 154.78125 z M 515.1875 154.78125 C 527.08559 171.58168 493.81257 178.31718 511.75 194.21875 C 519.39994 199.61792 537.19902 187.92754 521.5 173.5625 C 519.47166 172.33274 528.63458 163.79137 515.1875 154.78125 z M 687.28125 154.78125 C 699.17932 171.58168 665.90632 178.31718 683.84375 194.21875 C 691.49365 199.61792 709.29277 187.92754 693.59375 173.5625 C 691.5654 172.33274 700.72833 163.79137 687.28125 154.78125 z M 859.375 154.78125 C 871.27306 171.58168 838.00007 178.31718 855.9375 194.21875 C 863.58745 199.61792 881.38652 187.92754 865.6875 173.5625 C 863.65914 172.33274 872.82208 163.79137 859.375 154.78125 z M 1031.5 154.78125 C 1043.3981 171.58168 1010.0938 178.31718 1028.0313 194.21875 C 1035.6811 199.61792 1053.4803 187.92754 1037.7813 173.5625 C 1035.7529 172.33274 1044.9471 163.79137 1031.5 154.78125 z M 1203.5938 154.78125 C 1204.1515 155.56877 1204.5684 156.31713 1204.9375 157.0625 L 1204.9375 155.75 C 1204.5119 155.42844 1204.0759 155.10434 1203.5938 154.78125 z M 1.75 156.96875 L 1.75 195.4375 C 9.4777031 194.15989 17.337742 184.65173 5.21875 173.5625 C 3.3560402 172.43319 10.912427 165.13004 1.75 156.96875 z M 1204.9375 167.1875 C 1200.6039 176.1967 1187.3229 182.86964 1200.125 194.21875 C 1201.4876 195.18048 1203.1773 195.60518 1204.9375 195.5625 L 1204.9375 167.1875 z M 18.875 194.65625 C 15.847059 194.92094 12.9381 196.98568 10.1875 202.40625 C 6.792 211.35167 21.66925 226.85548 31.71875 207.78125 C 32.42985 205.45344 42.45085 212.90073 47.96875 197.28125 C 38.096499 209.09078 27.958822 193.86218 18.875 194.65625 z M 190.96875 194.65625 C 187.94081 194.92094 185.03186 196.98568 182.28125 202.40625 C 178.88572 211.35167 193.76299 226.85548 203.8125 207.78125 C 204.52352 205.45344 214.54456 212.90073 220.0625 197.28125 C 210.19024 209.09078 200.05257 193.86218 190.96875 194.65625 z M 363.09375 194.65625 C 360.06581 194.92094 357.12561 196.98568 354.375 202.40625 C 350.97948 211.35167 365.85674 226.85548 375.90625 207.78125 C 376.61728 205.45344 386.63831 212.90073 392.15625 197.28125 C 382.284 209.09078 372.17757 193.86218 363.09375 194.65625 z M 535.1875 194.65625 C 532.15956 194.92094 529.25061 196.98568 526.5 202.40625 C 523.10447 211.35167 537.98174 226.85548 548.03125 207.78125 C 548.74224 205.45344 558.73206 212.90073 564.25 197.28125 C 554.37774 209.09078 544.27132 193.86218 535.1875 194.65625 z M 707.28125 194.65625 C 704.25331 194.92094 701.34436 196.98568 698.59375 202.40625 C 695.1982 211.35167 710.07549 226.85548 720.125 207.78125 C 720.83604 205.45344 730.82581 212.90073 736.34375 197.28125 C 726.47148 209.09078 716.36507 193.86218 707.28125 194.65625 z M 879.375 194.65625 C 876.34706 194.92094 873.43811 196.98568 870.6875 202.40625 C 867.29194 211.35167 882.16924 226.85548 892.21875 207.78125 C 892.92978 205.45344 902.91956 212.90073 908.4375 197.28125 C 898.56522 209.09078 888.45882 193.86218 879.375 194.65625 z M 1051.4688 194.65625 C 1048.4408 194.92094 1045.5319 196.98568 1042.7813 202.40625 C 1039.3857 211.35167 1054.263 226.85548 1064.3125 207.78125 C 1065.0236 205.45344 1075.0133 212.90073 1080.5313 197.28125 C 1070.659 209.09078 1060.5526 193.86218 1051.4688 194.65625 z M 154.0625 194.84375 C 145.27668 195.29083 135.58589 208.81747 126.125 197.5 C 131.64291 213.11948 141.66398 205.67219 142.375 208 C 152.42451 227.07423 167.30178 211.53917 163.90625 202.59375 C 160.81181 196.49561 157.50043 194.66881 154.0625 194.84375 z M 326.15625 194.84375 C 317.37043 195.29083 307.71091 208.81747 298.25 197.5 C 303.76794 213.11948 313.75774 205.67219 314.46875 208 C 324.51826 227.07423 339.39552 211.53917 336 202.59375 C 332.90556 196.49561 329.59418 194.66881 326.15625 194.84375 z M 498.28125 194.84375 C 489.49543 195.29083 479.80467 208.81747 470.34375 197.5 C 475.86169 213.11948 485.85148 205.67219 486.5625 208 C 496.61201 227.07423 511.48929 211.53917 508.09375 202.59375 C 504.99931 196.49561 501.71918 194.66881 498.28125 194.84375 z M 670.375 194.84375 C 661.58919 195.29083 651.89843 208.81747 642.4375 197.5 C 647.95544 213.11948 657.94522 205.67219 658.65625 208 C 668.70576 227.07423 683.58306 211.53917 680.1875 202.59375 C 677.09306 196.49561 673.81293 194.66881 670.375 194.84375 z M 842.46875 194.84375 C 833.68293 195.29083 823.99217 208.81747 814.53125 197.5 C 820.04919 213.11948 830.03896 205.67219 830.75 208 C 840.79951 227.07423 855.67679 211.53917 852.28125 202.59375 C 849.18681 196.49561 845.90668 194.66881 842.46875 194.84375 z M 1014.5625 194.84375 C 1005.7767 195.29083 996.08592 208.81747 986.625 197.5 C 992.14294 213.11948 1002.164 205.67219 1002.875 208 C 1012.9245 227.07423 1027.8018 211.53917 1024.4063 202.59375 C 1021.3118 196.49561 1018.0004 194.66881 1014.5625 194.84375 z M 1186.6563 194.84375 C 1177.8704 195.29083 1168.1797 208.81747 1158.7188 197.5 C 1164.2367 213.11948 1174.2578 205.67219 1174.9688 208 C 1185.0183 227.07423 1199.8955 211.53917 1196.5 202.59375 C 1193.4056 196.49561 1190.0942 194.66881 1186.6563 194.84375 z M 1.78125 205.65625 C 1.7710947 205.70878 1.7601783 205.76001 1.75 205.8125 L 1.75 337.78125 C 4.4048358 324.9084 6.4153505 304.65272 8.5625 285.96875 C 15.2786 294.6424 21.7879 303.40354 30.875 310.84375 L 18.125 281 C 24.712501 285.79397 31.98305 292.13754 38.96875 294.8125 C 22.405649 273.4243 8.46865 245.68304 1.78125 205.65625 z M 173.875 205.65625 C 166.13818 245.67874 151.69883 274.00331 136.03125 294.375 C 142.54412 292.34158 149.88983 286.58907 156.96875 281.53125 C 152.63963 292.02621 148.29786 301.17685 143.96875 310.4375 C 146.55354 309.43997 154.76612 300.08877 165.90625 286.375 C 167.65276 305.22819 170.00347 326.46643 173.53125 339.25 C 176.3398 326.48691 178.42727 305.36496 180.65625 285.96875 C 187.37233 294.6424 193.88171 303.40354 202.96875 310.84375 L 190.21875 281 C 196.80621 285.79397 204.07678 292.13754 211.0625 294.8125 C 194.49933 273.4243 180.56244 245.68304 173.875 205.65625 z M 345.96875 205.65625 C 338.23192 245.67874 323.82383 274.00331 308.15625 294.375 C 314.66911 292.34158 321.98358 286.58907 329.0625 281.53125 C 324.73339 292.02621 320.39161 301.17685 316.0625 310.4375 C 318.64729 309.43997 326.85987 300.08877 338 286.375 C 339.7465 305.22819 342.09722 326.46643 345.625 339.25 C 348.43354 326.48691 350.52102 305.36496 352.75 285.96875 C 359.46607 294.6424 365.97546 303.40354 375.0625 310.84375 L 362.3125 281 C 368.89996 285.79397 376.17053 292.13754 383.15625 294.8125 C 366.59308 273.4243 352.65619 245.68304 345.96875 205.65625 z M 518.0625 205.65625 C 510.32566 245.67874 495.91758 274.00331 480.25 294.375 C 486.76288 292.34158 494.07733 286.58907 501.15625 281.53125 C 496.82713 292.02621 492.48536 301.17685 488.15625 310.4375 C 490.74103 309.43997 498.95362 300.08877 510.09375 286.375 C 511.84024 305.22819 514.19097 326.46643 517.71875 339.25 C 520.52731 326.48691 522.61477 305.36496 524.84375 285.96875 C 531.55984 294.6424 538.06921 303.40354 547.15625 310.84375 L 534.40625 281 C 540.99373 285.79397 548.26428 292.13754 555.25 294.8125 C 538.68685 273.4243 524.74994 245.68304 518.0625 205.65625 z M 690.15625 205.65625 C 682.41946 245.67874 668.01133 274.00331 652.34375 294.375 C 658.85662 292.34158 666.17108 286.58907 673.25 281.53125 C 668.9209 292.02621 664.57911 301.17685 660.25 310.4375 C 662.83476 309.43997 671.04737 300.08877 682.1875 286.375 C 683.93401 305.22819 686.28472 326.46643 689.8125 339.25 C 692.62105 326.48691 694.70852 305.36496 696.9375 285.96875 C 703.65358 294.6424 710.19421 303.40354 719.28125 310.84375 L 706.5 281 C 713.08746 285.79397 720.38928 292.13754 727.375 294.8125 C 710.81183 273.4243 696.84369 245.68304 690.15625 205.65625 z M 862.25 205.65625 C 854.5132 245.67874 840.10508 274.00331 824.4375 294.375 C 830.95036 292.34158 838.26483 286.58907 845.34375 281.53125 C 841.01464 292.02621 836.70411 301.17685 832.375 310.4375 C 834.95981 309.43997 843.14112 300.08877 854.28125 286.375 C 856.02775 305.22819 858.40972 326.46643 861.9375 339.25 C 864.74604 326.48691 866.80227 305.36496 869.03125 285.96875 C 875.74732 294.6424 882.28796 303.40354 891.375 310.84375 L 878.59375 281 C 885.1812 285.79397 892.48303 292.13754 899.46875 294.8125 C 882.90557 273.4243 868.93744 245.68304 862.25 205.65625 z M 1034.3438 205.65625 C 1026.6069 245.67874 1012.1988 274.00331 996.53125 294.375 C 1003.0441 292.34158 1010.3586 286.58907 1017.4375 281.53125 C 1013.1084 292.02621 1008.7979 301.17685 1004.4688 310.4375 C 1007.0536 309.43997 1015.2349 300.08877 1026.375 286.375 C 1028.1215 305.22819 1030.5035 326.46643 1034.0313 339.25 C 1036.8398 326.48691 1038.896 305.36496 1041.125 285.96875 C 1047.8411 294.6424 1054.3817 303.40354 1063.4688 310.84375 L 1050.7188 281 C 1057.3062 285.79397 1064.5768 292.13754 1071.5625 294.8125 C 1054.9993 273.4243 1041.0312 245.68304 1034.3438 205.65625 z M 1204.9375 213.03125 C 1196.9207 249.19659 1183.3134 275.27654 1168.625 294.375 C 1175.1379 292.34158 1182.4523 286.58907 1189.5313 281.53125 C 1185.2022 292.02621 1180.8916 301.17685 1176.5625 310.4375 C 1179.1473 309.43997 1187.3286 300.08877 1198.4688 286.375 C 1200.0136 303.05158 1202.0488 321.59435 1204.9375 334.5 L 1204.9375 213.03125 z M 84.9375 303.6875 C 96.835603 320.48793 63.5625 327.25468 81.5 343.15625 C 89.149899 348.55543 106.949 336.83379 91.25 322.46875 C 89.221596 321.239 98.3846 312.69762 84.9375 303.6875 z M 257.0625 303.6875 C 268.96057 320.48793 235.65632 327.25468 253.59375 343.15625 C 261.24368 348.55543 279.04277 336.83379 263.34375 322.46875 C 261.3154 321.239 270.50958 312.69762 257.0625 303.6875 z M 429.15625 303.6875 C 441.0543 320.48793 407.75007 327.25468 425.6875 343.15625 C 433.33744 348.55543 451.13652 336.83379 435.4375 322.46875 C 433.40916 321.239 442.60333 312.69762 429.15625 303.6875 z M 601.25 303.6875 C 613.14808 320.48793 579.84382 327.25468 597.78125 343.15625 C 605.43116 348.55543 623.23027 336.83379 607.53125 322.46875 C 605.50291 321.239 614.69708 312.69762 601.25 303.6875 z M 773.34375 303.6875 C 785.24182 320.48793 751.93757 327.25468 769.875 343.15625 C 777.52496 348.55543 795.35527 336.83379 779.65625 322.46875 C 777.62789 321.239 786.79083 312.69762 773.34375 303.6875 z M 945.4375 303.6875 C 957.33555 320.48793 924.06257 327.25468 942 343.15625 C 949.64994 348.55543 967.44902 336.83379 951.75 322.46875 C 949.72163 321.239 958.88458 312.69762 945.4375 303.6875 z M 1117.5313 303.6875 C 1129.4294 320.48793 1096.1563 327.25468 1114.0938 343.15625 C 1121.7436 348.55543 1139.5428 336.83379 1123.8438 322.46875 C 1121.8154 321.239 1130.9783 312.69762 1117.5313 303.6875 z M 106.0625 343.5625 C 102.62457 343.38756 99.344425 345.21436 96.25 351.3125 C 92.854504 360.25791 107.73175 375.79298 117.78125 356.71875 C 118.49235 354.39094 128.48206 361.83823 134 346.21875 C 124.5391 357.53623 114.84832 344.00958 106.0625 343.5625 z M 278.1875 343.5625 C 274.74957 343.38756 271.43819 345.21436 268.34375 351.3125 C 264.94823 360.25791 279.82549 375.79298 289.875 356.71875 C 290.58601 354.39094 300.57581 361.83823 306.09375 346.21875 C 296.63285 357.53623 286.97332 344.00958 278.1875 343.5625 z M 450.28125 343.5625 C 446.84332 343.38756 443.53194 345.21436 440.4375 351.3125 C 437.04196 360.25791 451.91924 375.79298 461.96875 356.71875 C 462.67977 354.39094 472.70081 361.83823 478.21875 346.21875 C 468.75783 357.53623 459.06707 344.00958 450.28125 343.5625 z M 622.375 343.5625 C 618.93707 343.38756 615.62569 345.21436 612.53125 351.3125 C 609.13571 360.25791 624.01299 375.79298 634.0625 356.71875 C 634.77355 354.39094 644.79456 361.83823 650.3125 346.21875 C 640.85158 357.53623 631.16082 344.00958 622.375 343.5625 z M 794.46875 343.5625 C 791.03082 343.38756 787.71944 345.21436 784.625 351.3125 C 781.22945 360.25791 796.10674 375.79298 806.15625 356.71875 C 806.86728 354.39094 816.88831 361.83823 822.40625 346.21875 C 812.94532 357.53623 803.25456 344.00958 794.46875 343.5625 z M 966.5625 343.5625 C 963.12457 343.38756 959.81319 345.21436 956.71875 351.3125 C 953.32325 360.25791 968.20049 375.79298 978.25 356.71875 C 978.96102 354.39094 988.98206 361.83823 994.5 346.21875 C 985.0391 357.53623 975.34832 344.00958 966.5625 343.5625 z M 1138.6563 343.5625 C 1135.2183 343.38756 1131.9382 345.21436 1128.8438 351.3125 C 1125.4482 360.25791 1140.2942 375.79298 1150.3438 356.71875 C 1151.0548 354.39094 1161.0758 361.83823 1166.5938 346.21875 C 1157.1328 357.53623 1147.4421 344.00958 1138.6563 343.5625 z M 68.03125 343.75 C 59.24542 344.19708 49.554655 357.72372 40.09375 346.40625 C 45.61165 362.02573 55.601498 354.57845 56.3125 356.90625 C 66.362 375.98048 81.239253 360.44543 77.84375 351.5 C 74.749297 345.40186 71.469183 343.57506 68.03125 343.75 z M 240.125 343.75 C 231.33918 344.19708 221.64841 357.72372 212.1875 346.40625 C 217.70544 362.02573 227.72649 354.57845 228.4375 356.90625 C 238.48701 375.98048 253.33303 360.44543 249.9375 351.5 C 246.84306 345.40186 243.56293 343.57506 240.125 343.75 z M 412.21875 343.75 C 403.43293 344.19708 393.74217 357.72372 384.28125 346.40625 C 389.79919 362.02573 399.82023 354.57845 400.53125 356.90625 C 410.58076 375.98048 425.45803 360.44543 422.0625 351.5 C 418.96806 345.40186 415.65668 343.57506 412.21875 343.75 z M 584.3125 343.75 C 575.52667 344.19708 565.83589 357.72372 556.375 346.40625 C 561.89294 362.02573 571.91398 354.57845 572.625 356.90625 C 582.67451 375.98048 597.55175 360.44543 594.15625 351.5 C 591.06181 345.40186 587.75043 343.57506 584.3125 343.75 z M 756.40625 343.75 C 747.62044 344.19708 737.92968 357.72372 728.46875 346.40625 C 733.98669 362.02573 744.00771 354.57845 744.71875 356.90625 C 754.76826 375.98048 769.64555 360.44543 766.25 351.5 C 763.15556 345.40186 759.84418 343.57506 756.40625 343.75 z M 928.5 343.75 C 919.71418 344.19708 910.02342 357.72372 900.5625 346.40625 C 906.08044 362.02573 916.10145 354.57845 916.8125 356.90625 C 926.86201 375.98048 941.73929 360.44543 938.34375 351.5 C 935.24931 345.40186 931.93793 343.57506 928.5 343.75 z M 1100.5938 343.75 C 1091.8079 344.19708 1082.1484 357.72372 1072.6875 346.40625 C 1078.2054 362.02573 1088.1953 354.57845 1088.9063 356.90625 C 1098.9558 375.98048 1113.833 360.44543 1110.4375 351.5 C 1107.3431 345.40186 1104.0317 343.57506 1100.5938 343.75 z M 87.8125 354.5625 C 80.075699 394.58498 65.6676 422.94081 50 443.3125 C 56.512902 441.27909 63.82735 435.49532 70.90625 430.4375 C 66.577148 440.93244 62.2666 450.0831 57.9375 459.34375 C 60.522298 458.3462 68.70365 449.02627 79.84375 435.3125 C 81.590352 454.16567 83.9722 475.37268 87.5 488.15625 C 90.308497 475.39314 92.36475 454.27121 94.59375 434.875 C 101.30985 443.54863 107.8504 452.34104 116.9375 459.78125 L 104.15625 429.90625 C 110.74375 434.7002 118.04555 441.04379 125.03125 443.71875 C 108.46815 422.33056 94.4999 394.58929 87.8125 354.5625 z M 259.90625 354.5625 C 252.16943 394.58498 237.76133 422.94081 222.09375 443.3125 C 228.60662 441.27909 235.92108 435.49532 243 430.4375 C 238.67088 440.93244 234.36036 450.0831 230.03125 459.34375 C 232.61604 458.3462 240.79737 449.02627 251.9375 435.3125 C 253.68399 454.16567 256.06597 475.37268 259.59375 488.15625 C 262.4023 475.39314 264.45852 454.27121 266.6875 434.875 C 273.40358 443.54863 279.94421 452.34104 289.03125 459.78125 L 276.28125 429.90625 C 282.86871 434.7002 290.13928 441.04379 297.125 443.71875 C 280.56183 422.33056 266.59369 394.58929 259.90625 354.5625 z M 432.03125 354.5625 C 424.29443 394.58498 409.85508 422.94081 394.1875 443.3125 C 400.70038 441.27909 408.01483 435.49532 415.09375 430.4375 C 410.76463 440.93244 406.45411 450.0831 402.125 459.34375 C 404.7098 458.3462 412.89112 449.02627 424.03125 435.3125 C 425.77774 454.16567 428.15972 475.37268 431.6875 488.15625 C 434.49606 475.39314 436.55227 454.27121 438.78125 434.875 C 445.49734 443.54863 452.03796 452.34104 461.125 459.78125 L 448.375 429.90625 C 454.96247 434.7002 462.23303 441.04379 469.21875 443.71875 C 452.65559 422.33056 438.71869 394.58929 432.03125 354.5625 z M 604.125 354.5625 C 596.38815 394.58498 581.94883 422.94081 566.28125 443.3125 C 572.79412 441.27909 580.10858 435.49532 587.1875 430.4375 C 582.85841 440.93244 578.54786 450.0831 574.21875 459.34375 C 576.80352 458.3462 585.01612 449.02627 596.15625 435.3125 C 597.90276 454.16567 600.25347 475.37268 603.78125 488.15625 C 606.58981 475.39314 608.67727 454.27121 610.90625 434.875 C 617.62234 443.54863 624.13171 452.34104 633.21875 459.78125 L 620.46875 429.90625 C 627.05622 434.7002 634.32678 441.04379 641.3125 443.71875 C 624.74934 422.33056 610.81244 394.58929 604.125 354.5625 z M 776.21875 354.5625 C 768.48195 394.58498 754.04258 422.94081 738.375 443.3125 C 744.88786 441.27909 752.23358 435.49532 759.3125 430.4375 C 754.98339 440.93244 750.64161 450.0831 746.3125 459.34375 C 748.89732 458.3462 757.10987 449.02627 768.25 435.3125 C 769.9965 454.16567 772.34722 475.37268 775.875 488.15625 C 778.68354 475.39314 780.77102 454.27121 783 434.875 C 789.71607 443.54863 796.22546 452.34104 805.3125 459.78125 L 792.5625 429.90625 C 799.14996 434.7002 806.42053 441.04379 813.40625 443.71875 C 796.84308 422.33056 782.90619 394.58929 776.21875 354.5625 z M 948.3125 354.5625 C 940.57569 394.58498 926.13633 422.94081 910.46875 443.3125 C 916.9816 441.27909 924.32733 435.49532 931.40625 430.4375 C 927.07713 440.93244 922.73536 450.0831 918.40625 459.34375 C 920.99106 458.3462 929.20362 449.02627 940.34375 435.3125 C 942.09024 454.16567 944.44097 475.37268 947.96875 488.15625 C 950.77728 475.39314 952.86477 454.27121 955.09375 434.875 C 961.80981 443.54863 968.31921 452.34104 977.40625 459.78125 L 964.65625 429.90625 C 971.2437 434.7002 978.51428 441.04379 985.5 443.71875 C 968.93682 422.33056 954.99994 394.58929 948.3125 354.5625 z M 1120.4063 354.5625 C 1112.6694 394.58498 1098.2613 422.94081 1082.5938 443.3125 C 1089.1066 441.27909 1096.4211 435.49532 1103.5 430.4375 C 1099.1709 440.93244 1094.8291 450.0831 1090.5 459.34375 C 1093.0848 458.3462 1101.2974 449.02627 1112.4375 435.3125 C 1114.184 454.16567 1116.5347 475.37268 1120.0625 488.15625 C 1122.8711 475.39314 1124.9585 454.27121 1127.1875 434.875 C 1133.9036 443.54863 1140.413 452.34104 1149.5 459.78125 L 1136.75 429.90625 C 1143.3375 434.7002 1150.608 441.04379 1157.5938 443.71875 C 1141.0306 422.33056 1127.0937 394.58929 1120.4063 354.5625 z M 171 452.59375 C 182.89806 469.39417 149.62507 476.16093 167.5625 492.0625 C 175.21243 497.46167 193.01152 485.74004 177.3125 471.375 C 175.28415 470.14524 184.44708 461.60387 171 452.59375 z M 343.09375 452.59375 C 354.99182 469.39417 321.71882 476.16093 339.65625 492.0625 C 347.30618 497.46167 365.10527 485.74004 349.40625 471.375 C 347.37789 470.14524 356.54083 461.60387 343.09375 452.59375 z M 515.1875 452.59375 C 527.08559 469.39417 493.81257 476.16093 511.75 492.0625 C 519.39994 497.46167 537.19902 485.74004 521.5 471.375 C 519.47166 470.14524 528.63458 461.60387 515.1875 452.59375 z M 687.28125 452.59375 C 699.17932 469.39417 665.90632 476.16093 683.84375 492.0625 C 691.49365 497.46167 709.29277 485.74004 693.59375 471.375 C 691.5654 470.14524 700.72833 461.60387 687.28125 452.59375 z M 859.375 452.59375 C 871.27306 469.39417 838.00007 476.16093 855.9375 492.0625 C 863.58745 497.46167 881.38652 485.74004 865.6875 471.375 C 863.65914 470.14524 872.82208 461.60387 859.375 452.59375 z M 1031.5 452.59375 C 1043.3981 469.39417 1010.0938 476.16093 1028.0313 492.0625 C 1035.6811 497.46167 1053.4803 485.74004 1037.7813 471.375 C 1035.7529 470.14524 1044.9471 461.60387 1031.5 452.59375 z M 1203.5938 452.59375 C 1204.1515 453.38127 1204.5684 454.16088 1204.9375 454.90625 L 1204.9375 453.5625 C 1204.5119 453.24094 1204.0759 452.91684 1203.5938 452.59375 z M 1.75 454.8125 L 1.75 493.25 C 9.4764942 491.96994 17.335787 482.46244 5.21875 471.375 C 3.3564326 470.24593 10.903444 462.9717 1.75 454.8125 z M 1204.9375 465 C 1200.6059 474.01122 1187.321 480.71171 1200.125 492.0625 C 1201.4876 493.02423 1203.1773 493.44893 1204.9375 493.40625 L 1204.9375 465 z M 20.03125 492.46875 C 16.59332 492.29381 13.281925 494.12061 10.1875 500.21875 C 6.792 509.16418 21.66925 524.69923 31.71875 505.625 C 32.42985 503.29718 42.45085 510.74448 47.96875 495.125 C 38.507843 506.44247 28.817071 492.91583 20.03125 492.46875 z M 192.125 492.46875 C 188.68707 492.29381 185.37569 494.12061 182.28125 500.21875 C 178.88572 509.16418 193.76299 524.69923 203.8125 505.625 C 204.52352 503.29718 214.54456 510.74448 220.0625 495.125 C 210.60158 506.44247 200.91082 492.91583 192.125 492.46875 z M 364.21875 492.46875 C 360.78082 492.29381 357.46944 494.12061 354.375 500.21875 C 350.97948 509.16418 365.85674 524.69923 375.90625 505.625 C 376.61728 503.29718 386.63831 510.74448 392.15625 495.125 C 382.69534 506.44247 373.00457 492.91583 364.21875 492.46875 z M 536.3125 492.46875 C 532.87457 492.29381 529.59444 494.12061 526.5 500.21875 C 523.10447 509.16418 537.98174 524.69923 548.03125 505.625 C 548.74224 503.29718 558.73206 510.74448 564.25 495.125 C 554.78908 506.44247 545.09832 492.91583 536.3125 492.46875 z M 708.40625 492.46875 C 704.96832 492.29381 701.68819 494.12061 698.59375 500.21875 C 695.1982 509.16418 710.07549 524.69923 720.125 505.625 C 720.83604 503.29718 730.82581 510.74448 736.34375 495.125 C 726.88282 506.44247 717.19206 492.91583 708.40625 492.46875 z M 880.5 492.46875 C 877.06207 492.29381 873.78194 494.12061 870.6875 500.21875 C 867.29194 509.16418 882.16924 524.69923 892.21875 505.625 C 892.92978 503.29718 902.91956 510.74448 908.4375 495.125 C 898.97656 506.44247 889.28581 492.91583 880.5 492.46875 z M 1052.625 492.46875 C 1049.1871 492.29381 1045.8757 494.12061 1042.7813 500.21875 C 1039.3857 509.16418 1054.263 524.69923 1064.3125 505.625 C 1065.0236 503.29718 1075.0133 510.74448 1080.5313 495.125 C 1071.0703 506.44247 1061.4108 492.91583 1052.625 492.46875 z M 154.0625 492.6875 C 145.27668 493.13457 135.58589 506.62996 126.125 495.3125 C 131.64291 510.93198 141.66398 503.48469 142.375 505.8125 C 152.42451 524.88673 167.30178 509.38292 163.90625 500.4375 C 160.81181 494.33936 157.50043 492.51256 154.0625 492.6875 z M 326.15625 492.6875 C 317.37043 493.13457 307.71091 506.62996 298.25 495.3125 C 303.76794 510.93198 313.75774 503.48469 314.46875 505.8125 C 324.51826 524.88673 339.39552 509.38292 336 500.4375 C 332.90556 494.33936 329.59418 492.51256 326.15625 492.6875 z M 498.28125 492.6875 C 489.49543 493.13457 479.80467 506.62996 470.34375 495.3125 C 475.86169 510.93198 485.85148 503.48469 486.5625 505.8125 C 496.61201 524.88673 511.48929 509.38292 508.09375 500.4375 C 504.99931 494.33936 501.71918 492.51256 498.28125 492.6875 z M 670.375 492.6875 C 661.58919 493.13457 651.89843 506.62996 642.4375 495.3125 C 647.95544 510.93198 657.94522 503.48469 658.65625 505.8125 C 668.70576 524.88673 683.58306 509.38292 680.1875 500.4375 C 677.09306 494.33936 673.81293 492.51256 670.375 492.6875 z M 842.46875 492.6875 C 833.68293 493.13457 823.99217 506.62996 814.53125 495.3125 C 820.04919 510.93198 830.03896 503.48469 830.75 505.8125 C 840.79951 524.88673 855.67679 509.38292 852.28125 500.4375 C 849.18681 494.33936 845.90668 492.51256 842.46875 492.6875 z M 1014.5625 492.6875 C 1005.7767 493.13457 996.08592 506.62996 986.625 495.3125 C 992.14294 510.93198 1002.164 503.48469 1002.875 505.8125 C 1012.9245 524.88673 1027.8018 509.38292 1024.4063 500.4375 C 1021.3118 494.33936 1018.0004 492.51256 1014.5625 492.6875 z M 1186.6563 492.6875 C 1177.8704 493.13457 1168.1797 506.62996 1158.7188 495.3125 C 1164.2367 510.93198 1174.2578 503.48469 1174.9688 505.8125 C 1185.0183 524.88673 1199.8955 509.38292 1196.5 500.4375 C 1193.4056 494.33936 1190.0942 492.51256 1186.6563 492.6875 z M 1.78125 503.5 C 1.7710947 503.55253 1.7601783 503.60376 1.75 503.65625 L 1.75 635.625 C 4.4048358 622.75215 6.4153505 602.49647 8.5625 583.8125 C 15.2786 592.48615 21.7879 601.24729 30.875 608.6875 L 18.125 578.8125 C 24.712501 583.60647 31.98305 589.95004 38.96875 592.625 C 22.405649 571.23683 8.46865 543.52679 1.78125 503.5 z M 173.875 503.5 C 166.13818 543.52247 151.69883 571.84706 136.03125 592.21875 C 142.54412 590.18536 149.88983 584.40157 156.96875 579.34375 C 152.63963 589.83871 148.29786 599.0206 143.96875 608.28125 C 146.55354 607.28369 154.76612 597.93252 165.90625 584.21875 C 167.65276 603.07194 170.00347 624.31018 173.53125 637.09375 C 176.3398 624.33066 178.42727 603.20871 180.65625 583.8125 C 187.37233 592.48615 193.88171 601.24729 202.96875 608.6875 L 190.21875 578.8125 C 196.80621 583.60647 204.07678 589.95004 211.0625 592.625 C 194.49933 571.23683 180.56244 543.52679 173.875 503.5 z M 345.96875 503.5 C 338.23192 543.52247 323.82383 571.84706 308.15625 592.21875 C 314.66911 590.18536 321.98358 584.40157 329.0625 579.34375 C 324.73339 589.83871 320.39161 599.0206 316.0625 608.28125 C 318.64729 607.28369 326.85987 597.93252 338 584.21875 C 339.7465 603.07194 342.09722 624.31018 345.625 637.09375 C 348.43354 624.33066 350.52102 603.20871 352.75 583.8125 C 359.46607 592.48615 365.97546 601.24729 375.0625 608.6875 L 362.3125 578.8125 C 368.89996 583.60647 376.17053 589.95004 383.15625 592.625 C 366.59308 571.23683 352.65619 543.52679 345.96875 503.5 z M 518.0625 503.5 C 510.32566 543.52247 495.91758 571.84706 480.25 592.21875 C 486.76288 590.18536 494.07733 584.40157 501.15625 579.34375 C 496.82713 589.83871 492.48536 599.0206 488.15625 608.28125 C 490.74103 607.28369 498.95362 597.93252 510.09375 584.21875 C 511.84024 603.07194 514.19097 624.31018 517.71875 637.09375 C 520.52731 624.33066 522.61477 603.20871 524.84375 583.8125 C 531.55984 592.48615 538.06921 601.24729 547.15625 608.6875 L 534.40625 578.8125 C 540.99373 583.60647 548.26428 589.95004 555.25 592.625 C 538.68685 571.23683 524.74994 543.52679 518.0625 503.5 z M 690.15625 503.5 C 682.41946 543.52247 668.01133 571.84706 652.34375 592.21875 C 658.85662 590.18536 666.17108 584.40157 673.25 579.34375 C 668.9209 589.83871 664.57911 599.0206 660.25 608.28125 C 662.83476 607.28369 671.04737 597.93252 682.1875 584.21875 C 683.93401 603.07194 686.28472 624.31018 689.8125 637.09375 C 692.62105 624.33066 694.70852 603.20871 696.9375 583.8125 C 703.65358 592.48615 710.19421 601.24729 719.28125 608.6875 L 706.5 578.8125 C 713.08746 583.60647 720.38928 589.95004 727.375 592.625 C 710.81183 571.23683 696.84369 543.52679 690.15625 503.5 z M 862.25 503.5 C 854.5132 543.52247 840.10508 571.84706 824.4375 592.21875 C 830.95036 590.18536 838.26483 584.40157 845.34375 579.34375 C 841.01464 589.83871 836.70411 599.0206 832.375 608.28125 C 834.95981 607.28369 843.14112 597.93252 854.28125 584.21875 C 856.02775 603.07194 858.40972 624.31018 861.9375 637.09375 C 864.74604 624.33066 866.80227 603.20871 869.03125 583.8125 C 875.74732 592.48615 882.28796 601.24729 891.375 608.6875 L 878.59375 578.8125 C 885.1812 583.60647 892.48303 589.95004 899.46875 592.625 C 882.90557 571.23683 868.93744 543.52679 862.25 503.5 z M 1034.3438 503.5 C 1026.6069 543.52247 1012.1988 571.84706 996.53125 592.21875 C 1003.0441 590.18536 1010.3586 584.40157 1017.4375 579.34375 C 1013.1084 589.83871 1008.7979 599.0206 1004.4688 608.28125 C 1007.0536 607.28369 1015.2349 597.93252 1026.375 584.21875 C 1028.1215 603.07194 1030.5035 624.31018 1034.0313 637.09375 C 1036.8398 624.33066 1038.896 603.20871 1041.125 583.8125 C 1047.8411 592.48615 1054.3817 601.24729 1063.4688 608.6875 L 1050.7188 578.8125 C 1057.3062 583.60647 1064.5768 589.95004 1071.5625 592.625 C 1054.9993 571.23683 1041.0312 543.52679 1034.3438 503.5 z M 1204.9375 510.875 C 1196.9207 547.04033 1183.3134 573.12029 1168.625 592.21875 C 1175.1379 590.18536 1182.4523 584.40157 1189.5313 579.34375 C 1185.2022 589.83871 1180.8916 599.0206 1176.5625 608.28125 C 1179.1473 607.28369 1187.3286 597.93252 1198.4688 584.21875 C 1200.0134 600.89334 1202.0493 619.40704 1204.9375 632.3125 L 1204.9375 510.875 z M 84.9375 601.53125 C 96.835603 618.33167 63.5625 625.09843 81.5 641 C 89.149899 646.39917 106.949 634.67754 91.25 620.3125 C 89.221596 619.08274 98.3846 610.54137 84.9375 601.53125 z M 257.0625 601.53125 C 268.96057 618.33167 235.65632 625.09843 253.59375 641 C 261.24368 646.39917 279.04277 634.67754 263.34375 620.3125 C 261.3154 619.08274 270.50958 610.54137 257.0625 601.53125 z M 429.15625 601.53125 C 441.0543 618.33167 407.75007 625.09843 425.6875 641 C 433.33744 646.39917 451.13652 634.67754 435.4375 620.3125 C 433.40916 619.08274 442.60333 610.54137 429.15625 601.53125 z M 601.25 601.53125 C 613.14808 618.33167 579.84382 625.09843 597.78125 641 C 605.43116 646.39917 623.23027 634.67754 607.53125 620.3125 C 605.50291 619.08274 614.69708 610.54137 601.25 601.53125 z M 773.34375 601.53125 C 785.24182 618.33167 751.93757 625.09843 769.875 641 C 777.52496 646.39917 795.35527 634.67754 779.65625 620.3125 C 777.62789 619.08274 786.79083 610.54137 773.34375 601.53125 z M 945.4375 601.53125 C 957.33555 618.33167 924.06257 625.09843 942 641 C 949.64994 646.39917 967.44902 634.67754 951.75 620.3125 C 949.72163 619.08274 958.88458 610.54137 945.4375 601.53125 z M 1117.5313 601.53125 C 1129.4294 618.33167 1096.1563 625.09843 1114.0938 641 C 1121.7436 646.39917 1139.5428 634.67754 1123.8438 620.3125 C 1121.8154 619.08274 1130.9783 610.54137 1117.5313 601.53125 z M 104.9375 641.40625 C 101.90956 641.67094 99.0006 643.73568 96.25 649.15625 C 92.854504 658.10168 107.73175 673.60548 117.78125 654.53125 C 118.49235 652.20346 128.48206 659.65073 134 644.03125 C 124.12776 655.84076 114.02132 640.61218 104.9375 641.40625 z M 277.03125 641.40625 C 274.00331 641.67094 271.09436 643.73568 268.34375 649.15625 C 264.94823 658.10168 279.82549 673.60548 289.875 654.53125 C 290.58601 652.20346 300.57581 659.65073 306.09375 644.03125 C 296.2215 655.84076 286.11508 640.61218 277.03125 641.40625 z M 449.125 641.40625 C 446.09706 641.67094 443.18811 643.73568 440.4375 649.15625 C 437.04196 658.10168 451.91924 673.60548 461.96875 654.53125 C 462.67977 652.20346 472.70081 659.65073 478.21875 644.03125 C 468.34648 655.84076 458.20882 640.61218 449.125 641.40625 z M 621.21875 641.40625 C 618.19081 641.67094 615.28186 643.73568 612.53125 649.15625 C 609.13571 658.10168 624.01299 673.60548 634.0625 654.53125 C 634.77355 652.20346 644.79456 659.65073 650.3125 644.03125 C 640.44023 655.84076 630.30257 640.61218 621.21875 641.40625 z M 793.3125 641.40625 C 790.28456 641.67094 787.37561 643.73568 784.625 649.15625 C 781.22945 658.10168 796.10674 673.60548 806.15625 654.53125 C 806.86728 652.20346 816.88831 659.65073 822.40625 644.03125 C 812.53397 655.84076 802.39632 640.61218 793.3125 641.40625 z M 965.4375 641.40625 C 962.40956 641.67094 959.46936 643.73568 956.71875 649.15625 C 953.32325 658.10168 968.20049 673.60548 978.25 654.53125 C 978.96102 652.20346 988.98206 659.65073 994.5 644.03125 C 984.62776 655.84076 974.52133 640.61218 965.4375 641.40625 z M 1137.5313 641.40625 C 1134.5033 641.67094 1131.5944 643.73568 1128.8438 649.15625 C 1125.4482 658.10168 1140.2942 673.60548 1150.3438 654.53125 C 1151.0548 652.20346 1161.0758 659.65073 1166.5938 644.03125 C 1156.7215 655.84076 1146.6151 640.61218 1137.5313 641.40625 z M 68.03125 641.59375 C 59.24542 642.04083 49.554655 655.56748 40.09375 644.25 C 45.61165 659.86948 55.601498 652.42219 56.3125 654.75 C 66.362 673.82423 81.239253 658.28916 77.84375 649.34375 C 74.749297 643.24561 71.469183 641.41881 68.03125 641.59375 z M 240.125 641.59375 C 231.33918 642.04083 221.64841 655.56748 212.1875 644.25 C 217.70544 659.86948 227.72649 652.42219 228.4375 654.75 C 238.48701 673.82423 253.33303 658.28916 249.9375 649.34375 C 246.84306 643.24561 243.56293 641.41881 240.125 641.59375 z M 412.21875 641.59375 C 403.43293 642.04083 393.74217 655.56748 384.28125 644.25 C 389.79919 659.86948 399.82023 652.42219 400.53125 654.75 C 410.58076 673.82423 425.45803 658.28916 422.0625 649.34375 C 418.96806 643.24561 415.65668 641.41881 412.21875 641.59375 z M 584.3125 641.59375 C 575.52667 642.04083 565.83589 655.56748 556.375 644.25 C 561.89294 659.86948 571.91398 652.42219 572.625 654.75 C 582.67451 673.82423 597.55175 658.28916 594.15625 649.34375 C 591.06181 643.24561 587.75043 641.41881 584.3125 641.59375 z M 756.40625 641.59375 C 747.62044 642.04083 737.92968 655.56748 728.46875 644.25 C 733.98669 659.86948 744.00771 652.42219 744.71875 654.75 C 754.76826 673.82423 769.64555 658.28916 766.25 649.34375 C 763.15556 643.24561 759.84418 641.41881 756.40625 641.59375 z M 928.5 641.59375 C 919.71418 642.04083 910.02342 655.56748 900.5625 644.25 C 906.08044 659.86948 916.10145 652.42219 916.8125 654.75 C 926.86201 673.82423 941.73929 658.28916 938.34375 649.34375 C 935.24931 643.24561 931.93793 641.41881 928.5 641.59375 z M 1100.5938 641.59375 C 1091.8079 642.04083 1082.1484 655.56748 1072.6875 644.25 C 1078.2054 659.86948 1088.1953 652.42219 1088.9063 654.75 C 1098.9558 673.82423 1113.833 658.28916 1110.4375 649.34375 C 1107.3431 643.24561 1104.0317 641.41881 1100.5938 641.59375 z M 87.8125 652.40625 C 80.075699 692.42872 65.6676 720.78456 50 741.15625 C 56.512902 739.12282 63.82735 733.33907 70.90625 728.28125 C 66.577148 738.77618 62.2666 747.92685 57.9375 757.1875 C 60.522298 756.18997 68.70365 746.83877 79.84375 733.125 C 81.590352 751.97816 83.9722 773.21643 87.5 786 C 90.308497 773.23688 92.36475 752.11496 94.59375 732.71875 C 101.30985 741.39237 107.8504 750.15354 116.9375 757.59375 L 104.15625 727.75 C 110.74375 732.54394 118.04555 738.88754 125.03125 741.5625 C 108.46815 720.1743 94.4999 692.43304 87.8125 652.40625 z M 259.90625 652.40625 C 252.16943 692.42872 237.76133 720.78456 222.09375 741.15625 C 228.60662 739.12282 235.92108 733.33907 243 728.28125 C 238.67088 738.77618 234.36036 747.92685 230.03125 757.1875 C 232.61604 756.18997 240.79737 746.83877 251.9375 733.125 C 253.68399 751.97816 256.06597 773.21643 259.59375 786 C 262.4023 773.23688 264.45852 752.11496 266.6875 732.71875 C 273.40358 741.39237 279.94421 750.15354 289.03125 757.59375 L 276.28125 727.75 C 282.86871 732.54394 290.13928 738.88754 297.125 741.5625 C 280.56183 720.1743 266.59369 692.43304 259.90625 652.40625 z M 432.03125 652.40625 C 424.29443 692.42872 409.85508 720.78456 394.1875 741.15625 C 400.70038 739.12282 408.01483 733.33907 415.09375 728.28125 C 410.76463 738.77618 406.45411 747.92685 402.125 757.1875 C 404.7098 756.18997 412.89112 746.83877 424.03125 733.125 C 425.77774 751.97816 428.15972 773.21643 431.6875 786 C 434.49606 773.23688 436.55227 752.11496 438.78125 732.71875 C 445.49734 741.39237 452.03796 750.15354 461.125 757.59375 L 448.375 727.75 C 454.96247 732.54394 462.23303 738.88754 469.21875 741.5625 C 452.65559 720.1743 438.71869 692.43304 432.03125 652.40625 z M 604.125 652.40625 C 596.38815 692.42872 581.94883 720.78456 566.28125 741.15625 C 572.79412 739.12282 580.10858 733.33907 587.1875 728.28125 C 582.85841 738.77618 578.54786 747.92685 574.21875 757.1875 C 576.80352 756.18997 585.01612 746.83877 596.15625 733.125 C 597.90276 751.97816 600.25347 773.21643 603.78125 786 C 606.58981 773.23688 608.67727 752.11496 610.90625 732.71875 C 617.62234 741.39237 624.13171 750.15354 633.21875 757.59375 L 620.46875 727.75 C 627.05622 732.54394 634.32678 738.88754 641.3125 741.5625 C 624.74934 720.1743 610.81244 692.43304 604.125 652.40625 z M 776.21875 652.40625 C 768.48195 692.42872 754.04258 720.78456 738.375 741.15625 C 744.88786 739.12282 752.23358 733.33907 759.3125 728.28125 C 754.98339 738.77618 750.64161 747.92685 746.3125 757.1875 C 748.89732 756.18997 757.10987 746.83877 768.25 733.125 C 769.9965 751.97816 772.34722 773.21643 775.875 786 C 778.68354 773.23688 780.77102 752.11496 783 732.71875 C 789.71607 741.39237 796.22546 750.15354 805.3125 757.59375 L 792.5625 727.75 C 799.14996 732.54394 806.42053 738.88754 813.40625 741.5625 C 796.84308 720.1743 782.90619 692.43304 776.21875 652.40625 z M 948.3125 652.40625 C 940.57569 692.42872 926.13633 720.78456 910.46875 741.15625 C 916.9816 739.12282 924.32733 733.33907 931.40625 728.28125 C 927.07713 738.77618 922.73536 747.92685 918.40625 757.1875 C 920.99106 756.18997 929.20362 746.83877 940.34375 733.125 C 942.09024 751.97816 944.44097 773.21643 947.96875 786 C 950.77728 773.23688 952.86477 752.11496 955.09375 732.71875 C 961.80981 741.39237 968.31921 750.15354 977.40625 757.59375 L 964.65625 727.75 C 971.2437 732.54394 978.51428 738.88754 985.5 741.5625 C 968.93682 720.1743 954.99994 692.43304 948.3125 652.40625 z M 1120.4063 652.40625 C 1112.6694 692.42872 1098.2613 720.78456 1082.5938 741.15625 C 1089.1066 739.12282 1096.4211 733.33907 1103.5 728.28125 C 1099.1709 738.77618 1094.8291 747.92685 1090.5 757.1875 C 1093.0848 756.18997 1101.2974 746.83877 1112.4375 733.125 C 1114.184 751.97816 1116.5347 773.21643 1120.0625 786 C 1122.8711 773.23688 1124.9585 752.11496 1127.1875 732.71875 C 1133.9036 741.39237 1140.413 750.15354 1149.5 757.59375 L 1136.75 727.75 C 1143.3375 732.54394 1150.608 738.88754 1157.5938 741.5625 C 1141.0306 720.1743 1127.0937 692.43304 1120.4063 652.40625 z M 171 750.4375 C 182.89806 767.23795 149.62507 774.00468 167.5625 789.90625 C 175.21243 795.30545 193.01152 783.58379 177.3125 769.21875 C 175.28415 767.98902 184.44708 759.44762 171 750.4375 z M 343.09375 750.4375 C 354.99182 767.23795 321.71882 774.00468 339.65625 789.90625 C 347.30618 795.30545 365.10527 783.58379 349.40625 769.21875 C 347.37789 767.98902 356.54083 759.44762 343.09375 750.4375 z M 515.1875 750.4375 C 527.08559 767.23795 493.81257 774.00468 511.75 789.90625 C 519.39994 795.30545 537.19902 783.58379 521.5 769.21875 C 519.47166 767.98902 528.63458 759.44762 515.1875 750.4375 z M 687.28125 750.4375 C 699.17932 767.23795 665.90632 774.00468 683.84375 789.90625 C 691.49365 795.30545 709.29277 783.58379 693.59375 769.21875 C 691.5654 767.98902 700.72833 759.44762 687.28125 750.4375 z M 859.375 750.4375 C 871.27306 767.23795 838.00007 774.00468 855.9375 789.90625 C 863.58745 795.30545 881.38652 783.58379 865.6875 769.21875 C 863.65914 767.98902 872.82208 759.44762 859.375 750.4375 z M 1031.5 750.4375 C 1043.3981 767.23795 1010.0938 774.00468 1028.0313 789.90625 C 1035.6811 795.30545 1053.4803 783.58379 1037.7813 769.21875 C 1035.7529 767.98902 1044.9471 759.44762 1031.5 750.4375 z M 1203.5938 750.4375 C 1204.1546 751.22945 1204.5673 752.00067 1204.9375 752.75 L 1204.9375 751.40625 C 1204.5119 751.08469 1204.0759 750.76059 1203.5938 750.4375 z M 1.75 752.65625 L 1.75 791.09375 C 9.4764942 789.81369 17.335787 780.30619 5.21875 769.21875 C 3.3564326 768.08971 10.903444 760.81545 1.75 752.65625 z M 1204.9375 762.84375 C 1200.6059 771.85497 1187.321 778.55546 1200.125 789.90625 C 1201.4877 790.86804 1203.1772 791.26148 1204.9375 791.21875 L 1204.9375 762.84375 z M 20.03125 790.3125 C 16.59332 790.13756 13.281925 791.96436 10.1875 798.0625 C 10.163682 798.12525 10.147028 798.18662 10.125 798.25 L 45.40625 798.25 C 46.31883 796.87629 47.19481 795.15954 47.96875 792.96875 C 38.507843 804.28622 28.817071 790.75958 20.03125 790.3125 z M 192.125 790.3125 C 188.68707 790.13756 185.37569 791.96436 182.28125 798.0625 C 182.25743 798.12525 182.24078 798.18662 182.21875 798.25 L 217.5 798.25 C 218.41258 796.87629 219.28855 795.15954 220.0625 792.96875 C 210.60158 804.28622 200.91082 790.75958 192.125 790.3125 z M 364.21875 790.3125 C 360.78082 790.13756 357.46944 791.96436 354.375 798.0625 C 354.35118 798.12525 354.33453 798.18662 354.3125 798.25 L 389.59375 798.25 C 390.50633 796.87629 391.3823 795.15954 392.15625 792.96875 C 382.69534 804.28622 373.00457 790.75958 364.21875 790.3125 z M 536.3125 790.3125 C 532.87457 790.13756 529.59444 791.96436 526.5 798.0625 C 526.47642 798.12462 526.45933 798.18726 526.4375 798.25 L 561.6875 798.25 C 562.60008 796.87629 563.47605 795.15954 564.25 792.96875 C 554.78908 804.28622 545.09832 790.75958 536.3125 790.3125 z M 708.40625 790.3125 C 704.96832 790.13756 701.68819 791.96436 698.59375 798.0625 C 698.57017 798.12462 698.55308 798.18726 698.53125 798.25 L 733.8125 798.25 C 734.72321 796.87749 735.57123 795.15549 736.34375 792.96875 C 726.88282 804.28622 717.19206 790.75958 708.40625 790.3125 z M 880.5 790.3125 C 877.06207 790.13756 873.78194 791.96436 870.6875 798.0625 C 870.66392 798.12462 870.64683 798.18726 870.625 798.25 L 905.90625 798.25 C 906.81696 796.87749 907.66498 795.15549 908.4375 792.96875 C 898.97656 804.28622 889.28581 790.75958 880.5 790.3125 z M 1052.625 790.3125 C 1049.1871 790.13756 1045.8757 791.96436 1042.7813 798.0625 C 1042.7577 798.12462 1042.7406 798.18726 1042.7188 798.25 L 1078 798.25 C 1078.9107 796.87749 1079.7587 795.15549 1080.5313 792.96875 C 1071.0703 804.28622 1061.4108 790.75958 1052.625 790.3125 z M 154.0625 790.5 C 145.27668 790.94707 135.58589 804.47371 126.125 793.15625 C 126.86165 795.24147 127.69859 796.90897 128.5625 798.25 L 163.90625 798.25 C 160.81181 792.15186 157.50043 790.32506 154.0625 790.5 z M 326.15625 790.5 C 317.37043 790.94707 307.71091 804.47371 298.25 793.15625 C 298.98665 795.24147 299.79234 796.90897 300.65625 798.25 L 336 798.25 C 332.90556 792.15186 329.59418 790.32506 326.15625 790.5 z M 498.28125 790.5 C 489.49543 790.94707 479.80467 804.47371 470.34375 793.15625 C 471.0804 795.24147 471.88609 796.90897 472.75 798.25 L 508.09375 798.25 C 504.99931 792.15186 501.71918 790.32506 498.28125 790.5 z M 670.375 790.5 C 661.58919 790.94707 651.89843 804.47371 642.4375 793.15625 C 643.17415 795.24147 643.97984 796.90897 644.84375 798.25 L 680.1875 798.25 C 677.09306 792.15186 673.81293 790.32506 670.375 790.5 z M 842.46875 790.5 C 833.68293 790.94707 823.99217 804.47371 814.53125 793.15625 C 815.2699 795.24713 816.10223 796.90714 816.96875 798.25 L 852.28125 798.25 C 849.18681 792.15186 845.90668 790.32506 842.46875 790.5 z M 1014.5625 790.5 C 1005.7767 790.94707 996.08592 804.47371 986.625 793.15625 C 987.36365 795.24713 988.19598 796.90714 989.0625 798.25 L 1024.4063 798.25 C 1021.3118 792.15186 1018.0004 790.32506 1014.5625 790.5 z M 1186.6563 790.5 C 1177.8704 790.94707 1168.1797 804.47371 1158.7188 793.15625 C 1159.4574 795.24713 1160.2897 796.90714 1161.1563 798.25 L 1196.5 798.25 C 1193.4056 792.15186 1190.0942 790.32506 1186.6563 790.5 z "
       id="path32141"
       transform="translate(-1127.278,136.21415)" />
    <path
       sodipodi:nodetypes="csccsssssssssccsssssssc"
       style="fill:#2b5df2;fill-opacity:1;stroke:#000000;stroke-width:0.41169095;stroke-miterlimit:4;stroke-dasharray:none;stroke-opacity:1"
       d="M -905.75934,446.98244 C -968.71594,446.98244 -970.70784,484.91934 -1033.6643,484.91934 C -1081.4383,484.91934 -1094.1057,463.07674 -1124.9448,452.54384 L -1124.9448,588.98364 C -1082.1925,596.45334 -1073.5204,625.16604 -1018.7583,625.16604 C -955.80174,625.16604 -953.84104,587.22914 -890.88454,587.22914 C -827.92804,587.22914 -825.93604,625.16604 -762.97954,625.16604 C -700.02304,625.16604 -698.03104,587.22914 -635.07454,587.22914 C -572.11804,587.22914 -570.15724,625.16604 -507.20074,625.16604 C -444.24424,625.16604 -442.25224,587.22914 -379.29574,587.22914 C -316.33928,587.22914 -314.3473,625.16604 -251.39071,625.16604 C -188.43412,625.16604 -212.0317,587.22914 -123.51696,587.22914 C -35.002309,587.22914 -74.033019,625.16604 4.3881013,625.16604 C 56.790503,625.16604 57.623703,608.23124 78.231103,596.99474 L 78.231103,450.98794 C 41.074961,460.72434 52.159953,484.91934 -10.486749,484.91934 C -88.907979,484.91934 -49.877259,446.98244 -138.39181,446.98244 C -226.90655,446.98244 -203.30898,484.91934 -266.26557,484.91934 C -329.22216,484.91934 -331.21404,446.98244 -394.17054,446.98244 C -457.12714,446.98244 -459.11914,484.91934 -522.07564,484.91934 C -585.03214,484.91934 -587.02404,446.98244 -649.98064,446.98244 C -712.93714,446.98244 -714.89784,484.91934 -777.85434,484.91934 C -840.81094,484.91934 -842.80284,446.98244 -905.75934,446.98244 z "
       id="path6030" />
  </g>
  <g
     inkscape:groupmode="layer"
     id="layer2">
    <path
       id="path3430"
       d="M 799.5926,1303.6645 L 799.5926,1303.6645 z "
       style="fill:none;fill-rule:evenodd;stroke:#000000;stroke-width:0.98280448px;stroke-linecap:butt;stroke-linejoin:miter;stroke-opacity:1" />
  </g>
</svg>
