<?xml version="1.0" encoding="UTF-8" standalone="no"?>
<svg
   xmlns:dc="http://purl.org/dc/elements/1.1/"
   xmlns:cc="http://creativecommons.org/ns#"
   xmlns:rdf="http://www.w3.org/1999/02/22-rdf-syntax-ns#"
   xmlns:svg="http://www.w3.org/2000/svg"
   xmlns="http://www.w3.org/2000/svg"
   xmlns:sodipodi="http://sodipodi.sourceforge.net/DTD/sodipodi-0.dtd"
   xmlns:inkscape="http://www.inkscape.org/namespaces/inkscape"
   height="600"
   width="900"
   version="1.0"
   id="svg2"
   sodipodi:version="0.32"
   inkscape:version="1.0beta1 (76ce730, 2019-10-19)"
   sodipodi:docname="Drapeau_département_fr_Drôme.svg"
   inkscape:export-filename="/Users/olivier/Desktop/Blason Rouge/Blason_Vide_3D.png"
   inkscape:export-xdpi="144"
   inkscape:export-ydpi="144"
   inkscape:output_extension="org.inkscape.output.svg.inkscape">
  <metadata
     id="metadata49">
    <rdf:RDF>
      <cc:Work
         rdf:about="">
        <dc:format>image/svg+xml</dc:format>
        <dc:type
           rdf:resource="http://purl.org/dc/dcmitype/StillImage" />
        <dc:title>Gabarit d'un blason en pointe pour le projet Blasons de Wikipédia</dc:title>
        <dc:date>03-AUG-2006</dc:date>
        <dc:creator>
          <cc:Agent>
            <dc:title>Jérôme BLUM (wagner51)</dc:title>
          </cc:Agent>
        </dc:creator>
        <cc:license
           rdf:resource="http://web.resource.org/cc/PublicDomain" />
        <dc:language>fr</dc:language>
        <dc:subject>
          <rdf:Bag>
            <rdf:li>gabarit modèle blason projet wikipédia</rdf:li>
          </rdf:Bag>
        </dc:subject>
      </cc:Work>
      <cc:License
         rdf:about="http://web.resource.org/cc/PublicDomain">
        <cc:permits
           rdf:resource="http://web.resource.org/cc/Reproduction" />
        <cc:permits
           rdf:resource="http://web.resource.org/cc/Distribution" />
        <cc:permits
           rdf:resource="http://web.resource.org/cc/DerivativeWorks" />
      </cc:License>
    </rdf:RDF>
  </metadata>
  <sodipodi:namedview
     inkscape:window-height="784"
     inkscape:window-width="1440"
     inkscape:pageshadow="2"
     inkscape:pageopacity="0.0"
     guidetolerance="10.0"
     gridtolerance="10.0"
     objecttolerance="10.0"
     borderopacity="1.0"
     bordercolor="#666666"
     pagecolor="#ffffff"
     id="base"
     showgrid="false"
     height="660px"
     inkscape:zoom="0.49497475"
     inkscape:cx="400"
     inkscape:cy="560"
     inkscape:window-x="0"
     inkscape:window-y="23"
     inkscape:current-layer="layer4"
     showguides="false"
     inkscape:guide-bbox="true"
     inkscape:document-rotation="0"
     inkscape:window-maximized="0">
    <sodipodi:guide
       position="593.9697,917.1879"
       orientation="0,-1"
       id="guide998" />
  </sodipodi:namedview>
  <defs
     id="defs6" />
  <g
     inkscape:groupmode="layer"
     id="layer3"
     inkscape:label="Fond écu"
     style="display:inline" />
  <g
     inkscape:groupmode="layer"
     id="layer4"
     inkscape:label="Meubles">
    <path
       inkscape:connector-curvature="0"
       id="path2855"
       style="display:inline;opacity:1;fill:#fcef3c;fill-opacity:1;fill-rule:evenodd;stroke:none;stroke-width:1.87041px;stroke-linecap:butt;stroke-linejoin:miter;stroke-opacity:1;stop-opacity:1"
       d="M 900.00001,600.00005 V 0 H 0 v 600.00005 z"
       sodipodi:nodetypes="ccccc" />
    <g
       id="g996"
       transform="translate(153.17305,-8.7833556)">
      <path
         inkscape:connector-curvature="0"
         sodipodi:nodetypes="ccscccssssssc"
         d="m 362.33985,266.3069 c -5.71758,-2.85792 -4.28862,-2.14257 -8.57551,-7.86016 -7.42325,-10.19465 -6.43119,-33.58147 -6.43119,-40.0144 0,-16.43599 2.85792,-15.58948 2.85792,-24.29408 l -0.14935,-6.16564 c -7.49192,10.50779 -25.73713,27.88573 -42.19012,42.72471 0,0 -0.52947,1.74018 5.18473,0.5974 4.96224,-0.9924 14.28962,0.71535 15.00497,5.71759 0.71361,5.00223 0.71535,5.71411 3.57327,3.57153 2.85792,-2.14257 10.9801,-4.55236 12.86239,4.29036 2.11116,9.91793 3.46646,14.97066 7.14655,18.5765 4.28862,4.20209 5.71584,5.0005 7.86015,5.0005 2.14084,-0.003 8.57204,0.71361 2.85619,-2.14431 z"
         id="path2325"
         style="opacity:1;fill:#e20909;fill-opacity:1;stroke:#000000;stroke-width:1.5;stroke-miterlimit:4;stroke-dasharray:none;stroke-opacity:1;stop-opacity:1" />
      <path
         inkscape:connector-curvature="0"
         sodipodi:nodetypes="csscccsscc"
         d="m 387.35102,163.40776 c -4.28862,-3.57153 -5.71758,-5.00397 -9.29085,-9.28911 -3.57328,-4.28689 -4.28689,-7.8619 -6.4312,-10.00447 -2.14257,-2.14258 -3.93845,-8.43717 -3.93845,-8.43717 -1.41053,12.65423 -2.70876,22.27642 -9.95877,37.96268 0,0 4.6081,-4.51261 8.89499,-0.22746 4.28862,4.29036 4.28688,10.00794 6.43119,4.29036 2.14258,-5.71758 0,-10.71982 3.57327,-11.43517 3.57328,-0.71534 0.71362,-2.85792 6.4312,-1.42722 5.71585,1.42722 8.57551,2.14257 4.28862,-1.43244 z"
         id="path2327"
         style="opacity:1;fill:#e20909;fill-opacity:1;stroke:#000000;stroke-width:1.5;stroke-miterlimit:4;stroke-dasharray:none;stroke-opacity:1;stop-opacity:1" />
      <path
         inkscape:connector-curvature="0"
         sodipodi:nodetypes="cccccccc"
         id="polygon2329"
         d="m 292.31031,190.56151 c -0.94199,6.87466 0.0251,6.11309 3.575,7.14828 -0.90925,1.5787 1.77501,2.14671 1.65182,6.08365 9.32084,-2.57222 13.58828,-26.93018 15.49746,-34.66809 1.36085,-7.98689 1.59872,-15.63689 0.71361,-24.29756 -1.48322,8.09919 -3.86482,16.98445 -7.1448,24.29756 -3.99785,7.79262 -11.58923,18.39268 -27.15375,20.00894 4.28689,1.48641 8.68607,2.07446 12.86066,1.42722 z"
         style="opacity:1;fill:#e20909;fill-opacity:1;stroke:#000000;stroke-width:1.5;stroke-miterlimit:4;stroke-dasharray:none;stroke-opacity:1;stop-opacity:1" />
      <path
         inkscape:connector-curvature="0"
         sodipodi:nodetypes="ccccscccccc"
         d="m 289.45412,104.09978 c -6.46784,-3.79675 -18.32597,-5.909031 -26.81517,-10.042671 6.16826,8.763821 8.74299,8.319231 11.09312,11.468161 2.58285,3.80852 3.25663,9.86299 0,17.15274 3.9682,-1.24477 6.13964,-2.48954 7.86189,-6.42945 1.68768,-3.86083 -0.24838,-5.63406 0,-11.4317 3.26613,2.23898 4.6232,6.49931 6.42946,11.43343 3.00433,7.54032 2.86432,12.2732 -1.4307,18.57824 3.78401,-1.04731 9.58939,-2.99299 10.00447,-7.85842 0.28619,-5.59143 0.23548,-11.40746 -0.48901,-17.11119 -2.21802,-1.91971 -3.64996,-3.61483 -6.65406,-5.75914 z"
         id="path2331"
         style="opacity:1;fill:#e20909;fill-opacity:1;stroke:#000000;stroke-width:1.5;stroke-miterlimit:4;stroke-dasharray:none;stroke-opacity:1;stop-opacity:1" />
      <path
         inkscape:connector-curvature="0"
         sodipodi:nodetypes="cccccccccccccccccccccccccccccccccccc"
         d="m 225.14216,86.950499 c 0.31897,1.35812 5.70004,-0.43213 9.29086,0 8.03629,1.36665 22.36934,2.85677 24.29408,4.28515 9.31693,7.36259 22.89342,7.9963 30.72876,12.827841 3.59028,2.73021 10.69933,8.9792 14.28961,15.04299 4.01331,7.90435 9.19954,17.16682 10.00274,25.00943 0.81159,7.97456 0.75891,16.19606 -0.71362,24.29409 -0.84734,4.3129 -3.9788,15.16949 -6.06079,22.93944 -0.89216,3.3966 -7.64894,11.54663 -13.23279,16.36308 -6.40517,5.28006 -13.36594,8.33774 -21.4379,11.21021 6.74955,2.24783 32.49307,11.74951 27.4624,19.6968 11.96488,-12.40303 25.96695,-23.63314 37.56143,-35.91271 4.65786,-4.57011 8.8836,-9.26368 12.8624,-15.00671 3.33482,-5.5052 7.1635,-12.49199 10.00446,-19.29358 2.46146,-6.66965 4.36732,-12.72196 5.71759,-20.00894 1.14632,-6.30715 2.16917,-12.67603 2.14257,-19.29185 -0.0176,-3.70527 -2.19582,-9.87985 -3.57153,-15.00497 -1.46467,-5.00223 -3.29974,-10.0662 -6.4312,-15.006701 -7.31362,-11.81164 -13.51605,-16.46227 -22.86686,-23.582208 l -22.8686,-16.43566 c -8.75049,-6.2805 -16.94538,-12.68447 -26.43666,-16.43393 -7.11994,-2.76896 -15.28934,-5.78486 -23.58221,-5.71411 -7.16293,0.15922 -18.58543,5.07187 -20.93319,8.37947 -2.34647,3.56363 -4.56948,6.0778 -4.07624,10.19703 0.2651,1.72914 3.5551,3.82868 3.57327,5.00223 -0.01,1.05915 -5.08156,3.41468 -9.28912,4.28863 -4.28746,0.70451 -8.69839,-0.62817 -12.86239,-2.14605 -1.59295,-0.57617 -3.61802,-1.27581 -4.59364,0.49386 -0.84128,1.74124 -0.0775,3.79115 1.73572,5.22372 5.47007,3.93399 10.01415,5.46039 17.15101,6.4312 8.33585,0.99625 16.36304,1.74558 20.0072,4.285148 l 6.4312,5.00223 -7.14655,-0.71535 c -5.89256,-1.21653 -11.72339,-1.19841 -17.86289,-1.42722 -1.34121,-0.06173 -5.08999,-0.92599 -6.4312,0 -0.89522,0.69506 -3.15912,3.71445 -2.85792,5.00744 z"
         id="path2333"
         style="opacity:1;fill:#2b5df2;fill-opacity:1;stroke:#000000;stroke-width:1.5;stroke-miterlimit:4;stroke-dasharray:none;stroke-opacity:1;stop-opacity:1" />
      <path
         inkscape:connector-curvature="0"
         sodipodi:nodetypes="cccssssssccccccccccccccccccccccccccccccccccc"
         d="m 255.66083,37.956791 c 4.56527,-1.62655 9.13053,-2.01844 13.6958,-2.65727 3.86071,-0.47787 6.05463,-1.2644 9.73014,-1.804 7.92787,-1.07823 4.32335,-0.71882 7.92787,-3.24164 3.60453,-2.52282 5.04738,-7.20905 3.60453,-2.52282 -1.44112,4.68623 0,3.60105 -2.52282,5.76446 -2.52282,2.16341 -2.16168,2.16341 -4.32509,2.52282 -2.16167,0.36289 0.7223,0.0035 4.32509,0.36289 3.60452,0.35941 3.96393,0.71882 6.8479,0.71882 2.88223,0 1.80226,-1.08171 5.7662,-1.08171 l 5.7662,-1.80052 c 4.643,-2.0772 8.36,-5.82119 11.89181,-9.00958 1.5703,2.14876 -0.93376,5.53218 -2.88223,7.92787 -3.35393,3.63343 -6.70787,6.15568 -11.17299,7.56673 l 2.52282,1.44285 c 4.21145,0.15205 8.4229,1.29183 11.89355,3.60453 4.00909,2.51755 10.36404,2.31886 13.69407,1.44111 2.88339,-1.08055 6.26064,-1.35857 8.65016,-3.24164 1.92207,-1.92265 3.7824,-6.25288 5.7662,-5.76794 0.3289,2.52899 -0.51512,4.56411 -2.16167,6.84617 -5.06382,6.40216 -11.54749,10.08808 -19.82142,8.65017 h -2.88397 l 2.52282,1.44111 c 3.68534,2.39319 6.44469,5.52717 8.64844,8.29076 3.70101,4.62951 9.19227,9.69115 13.6958,13.33293 3.71392,2.972098 8.10691,5.141678 12.25296,5.767928 5.77603,0.59491 11.42859,-4.1192 16.21689,-4.32682 -0.66203,5.35637 -7.86774,8.18169 -15.13519,8.29076 -4.9016,0.02332 -9.37106,-0.32376 -14.70479,-2.70802 -4.22836,-2.1291 -8.45673,-5.67807 -12.68509,-9.906088 0.38549,4.650318 1.75871,7.633858 5.04565,11.172988 -10.32608,-1.49212 -10.46625,-6.81167 -11.5324,-12.254688 -1.3499,2.95861 -3.74925,7.954408 -7.56846,7.209048 2.25713,-3.347758 3.40308,-7.868448 2.88223,-11.895278 -0.51673,-3.733 -6.83634,-7.03387 -10.81011,-10.08781 0.9125,2.40186 1.33114,4.74199 1.44112,7.20558 0.2116,2.94146 0.6084,5.69772 -2.88397,9.00957 -4.41116,3.537528 -9.74831,4.976148 -16.93745,4.686238 2.87298,-1.40797 8.95607,-4.544458 9.73014,-7.927878 0.73405,-3.24087 0.9125,-6.66695 0.72055,-10.09302 -0.33358,-3.12974 -1.90183,-5.76562 -3.96393,-8.64843 -3.92096,-5.21575 -7.65672,-7.40658 -16.20764,-10.83207 -6.85041,-2.4979 -12.7131,-1.90916 -20.55123,-2.86374 z"
         id="path2339"
         style="opacity:1;fill:#e20909;fill-opacity:1;stroke:#000000;stroke-width:1.5;stroke-miterlimit:4;stroke-dasharray:none;stroke-opacity:1;stop-opacity:1" />
      <path
         inkscape:connector-curvature="0"
         sodipodi:nodetypes="cccccccccc"
         id="polygon2341"
         d="m 246.46025,56.6263 c 3.20364,-1.470824 6.96289,-2.509538 9.79612,-5.153291 1.99021,-1.785456 7.00535,-2.583174 11.34141,-2.578382 4.48192,0.03825 9.88983,3.101403 12.89017,5.670704 3.43836,3.638904 5.14818,10.796561 3.09232,14.435465 l -2.57665,-3.095795 c -1.83757,-5.164628 -4.1073,-8.538992 -7.73514,-10.308318 l -4.63762,-1.547029 c -4.00616,-1.014337 -6.6542,-0.423618 -9.79611,1.031353 -3.26057,1.194164 -8.6818,3.190838 -12.3745,1.545293 z"
         style="opacity:1;fill:#e20909;fill-opacity:1;stroke:#000000;stroke-width:1.5;stroke-miterlimit:4;stroke-dasharray:none;stroke-opacity:1;stop-opacity:1" />
      <ellipse
         id="ellipse2343"
         style="opacity:1;fill:#ffffff;fill-opacity:1;stroke:#000000;stroke-width:1.5;stroke-miterlimit:4;stroke-dasharray:none;stroke-opacity:1;stop-opacity:1"
         cx="263.47412"
         ry="4.6393509"
         cy="61.265671"
         rx="5.1567636" />
      <circle
         id="circle2345"
         style="opacity:1;fill:none;stroke:#000000;stroke-width:1.5;stroke-miterlimit:4;stroke-dasharray:none;stroke-opacity:1;stop-opacity:1"
         cx="261.6701"
         r="1.8039992"
         cy="59.977341" />
      <path
         inkscape:connector-curvature="0"
         sodipodi:nodetypes="ccc"
         id="polyline2347"
         d="m 273.26848,55.596683 c 0.7408,2.919857 0.80253,6.148373 0,8.759553 -1.00729,3.042508 -3.43444,4.418218 -8.76303,4.127147"
         style="opacity:1;fill:none;stroke:#000000;stroke-width:1.5;stroke-miterlimit:4;stroke-dasharray:none;stroke-opacity:1;stop-opacity:1" />
      <path
         inkscape:connector-curvature="0"
         sodipodi:nodetypes="cscc"
         d="m 309.87282,83.950199 c 14.10592,10.42668 28.11492,24.570051 28.87614,43.825541 0.4162,10.6774 1.98665,26.01433 -0.23108,30.58316 -3.17578,7.03115 -5.30611,12.5688 -6.98839,23.03503"
         id="path2349"
         style="opacity:1;fill:none;stroke:#000000;stroke-width:1.5;stroke-miterlimit:4;stroke-dasharray:none;stroke-opacity:1;stop-opacity:1" />
      <path
         inkscape:connector-curvature="0"
         sodipodi:nodetypes="ccsscc"
         d="m 240.78955,67.455501 c 5.17314,-0.31346 10.53147,1.90412 12.37103,2.57838 0,0 4.63935,0 5.15502,1.54703 0.51742,1.54703 2.57665,1.02615 3.60974,2.57665 1.03135,1.54703 2.57664,2.0627 2.57664,2.0627 4.308,3.772538 3.92429,8.964938 0.51568,9.280438"
         id="path2353"
         style="opacity:1;fill:none;stroke:#000000;stroke-width:1.5;stroke-miterlimit:4;stroke-dasharray:none;stroke-opacity:1;stop-opacity:1" />
      <path
         inkscape:connector-curvature="0"
         sodipodi:nodetypes="ccc"
         id="polyline2357"
         d="m 270.69183,76.730732 c 3.26647,2.644917 2.3351,3.437847 2.57665,5.156767 0.21238,1.5476 1.10384,2.16922 -1.02962,4.64282"
         style="opacity:1;fill:none;stroke:#000000;stroke-width:1.5;stroke-miterlimit:4;stroke-dasharray:none;stroke-opacity:1;stop-opacity:1" />
      <path
         inkscape:connector-curvature="0"
         sodipodi:nodetypes="cc"
         d="m 273.23227,81.680489 c 7.88763,-0.23538 17.25685,1.93683 20.14412,4.84983"
         id="path2359"
         style="opacity:1;fill:none;stroke:#000000;stroke-width:1.5;stroke-miterlimit:4;stroke-dasharray:none;stroke-opacity:1;stop-opacity:1" />
      <path
         inkscape:connector-curvature="0"
         sodipodi:nodetypes="ccscc"
         d="m 317.09229,175.72149 -1.03135,7.73167 c -2.55771,2.06213 -4.06132,4.07075 -4.64109,6.18638 -0.81021,2.95654 -3.33128,5.26217 -5.6707,7.21947 -0.87324,1.88334 -2.53257,3.87898 -4.64109,4.63935"
         id="path2363"
         style="opacity:1;fill:none;stroke:#000000;stroke-width:1.5;stroke-miterlimit:4;stroke-dasharray:none;stroke-opacity:1;stop-opacity:1" />
      <path
         inkscape:connector-curvature="0"
         sodipodi:nodetypes="csscccccccccccccccccscscscc"
         d="m 311.60563,287.03119 c -9.33572,0 -19.29359,-5.00397 -20.0072,-11.43343 -0.71361,-6.42946 -0.61556,-5.67924 -0.71361,-12.85892 -0.12911,-9.85248 4.12361,-15.92065 8.57551,-23.58221 7.90339,-13.42854 14.21338,-20.28435 20.72255,-30.72528 l -5.71585,3.575 v -5.00223 c -12.85844,7.63473 -29.10284,16.66367 -42.16045,12.14878 -4.04901,-1.23432 -8.2972,-0.87525 -12.14704,-0.71535 -6.50859,-4.92822 -14.61058,-4.08038 -20.72082,-10.00447 -1.70216,-3.33482 -4.40018,-6.66965 -9.28912,-10.00447 -2.04936,-4.48664 -6.68799,-11.96089 -19.29358,-12.86239 -3.49868,0.43425 -8.78992,4.25446 -5.71585,4.29036 15.6319,-0.6224 19.91088,5.92546 20.0072,21.43616 0.004,1.43349 -3.57722,-1.11649 -3.57327,0.71535 0.50374,8.23225 9.57196,8.29836 12.86413,12.14878 3.25427,14.92619 29.21439,15.9102 45.01663,10.71982 -8.03645,6.68488 -14.29135,9.28912 -19.29359,10.00447 -5.00223,0.71014 -4.28862,-0.003 -12.14704,2.14257 -7.86016,2.14257 -10.71982,2.14257 -5.00223,3.57154 16.86959,1.23152 25.00943,10.67148 25.00943,15.72031 0,2.85792 2.85792,4.28689 2.85792,4.28689 0,0 1.42897,1.43069 3.57328,-0.71188 2.14431,-2.14257 2.14257,-5.71758 5.00223,-1.43243 2.85792,4.29209 3.57327,3.57674 6.4312,7.86189 2.85792,4.28515 3.87667,10.99022 15.00496,15.0067 12.72168,4.81666 19.0562,-4.49473 10.71461,-4.29556 z"
         id="path2323"
         style="opacity:1;fill:#e20909;fill-opacity:1;stroke:#000000;stroke-width:1.5;stroke-miterlimit:4;stroke-dasharray:none;stroke-opacity:1;stop-opacity:1" />
      <path
         inkscape:connector-curvature="0"
         sodipodi:nodetypes="cscsc"
         d="m 367.10074,142.72515 c 0,0 2.91845,3.63716 3.608,7.216 0.99401,5.15903 1.01757,9.50677 0.51568,13.92326 0,0 -1.25596,1.90285 -1.54703,4.12367 -0.21192,1.61689 1.03135,5.15503 1.03135,5.15503"
         id="path2367"
         style="opacity:1;fill:none;stroke:#000000;stroke-width:1.5;stroke-miterlimit:4;stroke-dasharray:none;stroke-opacity:1;stop-opacity:1" />
      <path
         inkscape:connector-curvature="0"
         d="m 226.35409,211.29274 c -0.0889,3.89018 18.94282,8.9754 24.23158,9.28044 11.05276,0.0349 21.10966,3.45576 31.96325,3.09232"
         sodipodi:nodetypes="ccc"
         id="path2369"
         style="opacity:1;fill:none;stroke:#000000;stroke-width:1.5;stroke-miterlimit:4;stroke-dasharray:none;stroke-opacity:1;stop-opacity:1" />
      <path
         inkscape:connector-curvature="0"
         sodipodi:nodetypes="cc"
         d="m 268.63087,256.14443 c 6.50288,-10.12292 13.40411,-15.46566 20.10617,-23.19849"
         id="path2371"
         style="opacity:1;fill:none;stroke:#000000;stroke-width:1.5;stroke-miterlimit:4;stroke-dasharray:none;stroke-opacity:1;stop-opacity:1" />
      <path
         inkscape:connector-curvature="0"
         sodipodi:nodetypes="cccc"
         d="m 273.78416,259.24022 c 3.25775,-4.03363 4.9221,-6.87221 6.18811,-10.30831 5.49939,-7.78035 11.99465,-10.9797 16.49817,-18.56088 3.64406,-6.18696 10.27573,-9.18714 13.91979,-18.56088"
         id="path2373"
         style="opacity:1;fill:none;stroke:#000000;stroke-width:1.5;stroke-miterlimit:4;stroke-dasharray:none;stroke-opacity:1;stop-opacity:1" />
      <path
         inkscape:connector-curvature="0"
         sodipodi:nodetypes="cscc"
         d="m 329.46505,237.07135 c 0,0 -0.51568,0 -0.51568,-3.608 0,-3.608 3.09406,-10.31179 3.09406,-10.31179 2.42658,-7.83192 5.63925,-14.09168 10.31179,-21.13752"
         id="path2375"
         style="opacity:1;fill:none;stroke:#000000;stroke-width:1.5;stroke-miterlimit:4;stroke-dasharray:none;stroke-opacity:1;stop-opacity:1" />
    </g>
    <path
       inkscape:connector-curvature="0"
       id="path1050"
       style="display:inline;opacity:1;fill:#2b5df2;fill-opacity:1;fill-rule:evenodd;stroke:none;stroke-width:1.84737px;stroke-linecap:butt;stroke-linejoin:miter;stroke-opacity:1;stop-opacity:1"
       d="m 900,305.05284 c -0.9915,-0.47505 -1.98309,-0.98747 -2.97461,-1.40611 -1.78179,-0.75231 -3.56385,-1.40899 -5.3457,-1.94912 -1.78186,-0.54012 -3.56378,-0.96432 -5.34571,-1.25367 -1.78192,-0.28936 -3.5637,-0.44394 -5.3457,-0.44394 -1.782,0 -3.56356,0.15458 -5.3457,0.44394 -1.78215,0.28935 -3.56539,0.71355 -5.34766,1.25367 -1.78227,0.54013 -3.56333,1.19681 -5.3457,1.94912 -1.78237,0.75233 -3.5652,1.60049 -5.34766,2.52643 -3.56491,1.85185 -7.13017,4.01265 -10.69531,6.32747 -3.56514,2.31483 -7.1301,4.78432 -10.69531,7.25346 -3.56522,2.46914 -7.13018,4.93673 -10.69532,7.25155 -3.56513,2.31482 -7.13039,4.47562 -10.69531,6.32748 -1.78245,0.92593 -3.56528,1.7741 -5.34765,2.52643 -1.78238,0.75231 -3.56539,1.40898 -5.34766,1.94911 -1.78227,0.54013 -3.56356,0.96433 -5.3457,1.25368 -1.78215,0.28935 -3.5637,0.44394 -5.34571,0.44394 -1.782,0 -3.56378,-0.15458 -5.3457,-0.44394 -1.78192,-0.28935 -3.56385,-0.71355 -5.3457,-1.25368 -1.78186,-0.54013 -3.56391,-1.1968 -5.34571,-1.94911 -1.78179,-0.75233 -3.56395,-1.6005 -5.3457,-2.52643 -3.56349,-1.85185 -7.12804,-4.01266 -10.6914,-6.32748 -3.56337,-2.31482 -7.12614,-4.78241 -10.68946,-7.25155 -3.56332,-2.46914 -7.12609,-4.93863 -10.68945,-7.25346 -3.56337,-2.31482 -7.12596,-4.47562 -10.68945,-6.32747 -1.78175,-0.92594 -3.56391,-1.7741 -5.34571,-2.52643 -1.78179,-0.75231 -3.56385,-1.40899 -5.3457,-1.94912 -1.78185,-0.54012 -3.56378,-0.96432 -5.3457,-1.25367 C 713.47198,300.15458 711.6902,300 709.9082,300 c -1.782,0 -3.56378,0.15458 -5.3457,0.44394 -1.78192,0.28935 -3.56385,0.71355 -5.3457,1.25367 -1.78186,0.54013 -3.56391,1.19681 -5.34571,1.94912 -1.78179,0.75233 -3.56395,1.60049 -5.3457,2.52643 -3.56349,1.85185 -7.12609,4.01265 -10.68945,6.32747 -3.56337,2.31483 -7.12809,4.78432 -10.69141,7.25346 -3.56332,2.46914 -7.12609,4.93673 -10.68945,7.25155 -3.56337,2.31482 -7.12596,4.47562 -10.68946,6.32748 -1.78174,0.92593 -3.5639,1.7741 -5.3457,2.52643 -1.78179,0.75231 -3.56385,1.40898 -5.3457,1.94911 -1.78186,0.54013 -3.56378,0.96433 -5.3457,1.25368 -1.78193,0.28935 -3.5637,0.44394 -5.34571,0.44394 -1.782,0 -3.56354,-0.15458 -5.3457,-0.44394 -1.78216,-0.28935 -3.56536,-0.71355 -5.34766,-1.25368 -1.78229,-0.54013 -3.56524,-1.1968 -5.34765,-1.94911 -1.78242,-0.75233 -3.5632,-1.6005 -5.34571,-2.52643 -3.56501,-1.85185 -7.132,-4.01266 -10.69726,-6.32748 -3.56527,-2.31482 -7.12996,-4.78241 -10.69531,-7.25155 -3.56535,-2.46914 -7.13005,-4.93863 -10.69532,-7.25346 -3.56526,-2.31482 -7.13029,-4.47562 -10.69531,-6.32747 -1.78251,-0.92594 -3.56524,-1.7741 -5.34766,-2.52643 -1.78241,-0.75231 -3.56535,-1.40899 -5.34765,-1.94912 -1.7823,-0.54012 -3.56354,-0.96432 -5.3457,-1.25367 C 542.38971,300.15458 540.60622,300 538.82422,300 c -0.85252,0 -1.70406,0.0458 -2.55664,0.11432 -0.84417,-0.0669 -1.68536,-0.11432 -2.5293,-0.11432 -1.782,0 -3.56572,0.15458 -5.34766,0.44394 -1.78193,0.28935 -3.56382,0.71355 -5.3457,1.25367 -1.78188,0.54013 -3.56387,1.19681 -5.3457,1.94912 -1.78184,0.75233 -3.56195,1.60049 -5.34375,2.52643 -3.5636,1.85185 -7.12792,4.01265 -10.69141,6.32747 -3.56349,2.31483 -7.12599,4.78432 -10.68945,7.25346 -3.56346,2.46914 -7.12791,4.93673 -10.69141,7.25155 -3.56349,2.31482 -7.12781,4.47562 -10.6914,6.32748 -1.7818,0.92593 -3.56192,1.7741 -5.34375,2.52643 -1.78184,0.75231 -3.56382,1.40898 -5.34571,1.94911 -1.78188,0.54013 -3.56376,0.96433 -5.3457,1.25368 -1.78194,0.28935 -3.5637,0.44394 -5.3457,0.44394 -1.78201,0 -3.56574,-0.15458 -5.34766,-0.44394 -1.78192,-0.28935 -3.56385,-0.71355 -5.3457,-1.25368 -1.78186,-0.54013 -3.56196,-1.1968 -5.34375,-1.94911 -1.7818,-0.75233 -3.56396,-1.6005 -5.34571,-2.52643 -3.56349,-1.85185 -7.12804,-4.01266 -10.6914,-6.32748 -3.56337,-2.31482 -7.12613,-4.78241 -10.68945,-7.25155 -3.56333,-2.46914 -7.12609,-4.93863 -10.68946,-7.25346 -3.56336,-2.31482 -7.12791,-4.47562 -10.6914,-6.32747 -1.78175,-0.92594 -3.56196,-1.7741 -5.34375,-2.52643 -1.7818,-0.75231 -3.56385,-1.40899 -5.34571,-1.94912 -1.78185,-0.54012 -3.56378,-0.96432 -5.3457,-1.25367 -1.78192,-0.28936 -3.5637,-0.44394 -5.3457,-0.44394 -1.78201,0 -3.56552,0.15458 -5.34766,0.44394 -1.78214,0.28935 -3.56344,0.71355 -5.3457,1.25367 -1.78227,0.54013 -3.56529,1.19681 -5.34766,1.94912 -1.78237,0.75233 -3.5652,1.60049 -5.34765,2.52643 -3.56492,1.85185 -7.12823,4.01265 -10.69336,6.32747 -3.56514,2.31483 -7.13206,4.78432 -10.69727,7.25346 -3.56521,2.46914 -7.13017,4.93673 -10.69531,7.25155 -3.56514,2.31482 -7.1304,4.47562 -10.69532,6.32748 -1.78245,0.92593 -3.56333,1.7741 -5.3457,2.52643 -1.78237,0.75231 -3.56539,1.40898 -5.34765,1.94911 -1.78227,0.54013 -3.56552,0.96433 -5.34766,1.25368 -1.78215,0.28935 -3.5637,0.44394 -5.3457,0.44394 -1.78201,0 -3.56378,-0.15458 -5.34571,-0.44394 -1.78192,-0.28935 -3.56385,-0.71355 -5.3457,-1.25368 -1.78185,-0.54013 -3.56391,-1.1968 -5.3457,-1.94911 -1.7818,-0.75233 -3.56396,-1.6005 -5.34571,-2.52643 -3.56349,-1.85185 -7.12608,-4.01266 -10.68945,-6.32748 -3.56337,-2.31482 -7.12613,-4.78241 -10.68945,-7.25155 -3.56333,-2.46914 -7.12804,-4.93863 -10.69141,-7.25346 -3.56336,-2.31482 -7.12596,-4.47562 -10.68945,-6.32747 -1.78175,-0.92594 -3.56391,-1.7741 -5.34571,-2.52643 -1.78179,-0.75231 -3.56384,-1.40899 -5.3457,-1.94912 -1.78185,-0.54012 -3.56378,-0.96432 -5.3457,-1.25367 C 195.1673,300.15458 193.38552,300 191.60352,300 c -1.78201,0 -3.56379,0.15458 -5.34571,0.44394 -1.78192,0.28935 -3.56385,0.71355 -5.3457,1.25367 -1.78185,0.54013 -3.56391,1.19681 -5.3457,1.94912 -1.7818,0.75233 -3.56201,1.60049 -5.34375,2.52643 -3.5635,1.85185 -7.12805,4.01265 -10.69141,6.32747 -3.56336,2.31483 -7.12613,4.78432 -10.68945,7.25346 -3.56332,2.46914 -7.12609,4.93673 -10.68946,7.25155 -3.56336,2.31482 -7.12791,4.47562 -10.6914,6.32748 -1.78175,0.92593 -3.56391,1.7741 -5.34571,2.52643 -1.78179,0.75231 -3.56384,1.40898 -5.3457,1.94911 -1.78185,0.54013 -3.56378,0.96433 -5.3457,1.25368 -1.78193,0.28935 -3.5637,0.44394 -5.34571,0.44394 -1.782,0 -3.56354,-0.15458 -5.3457,-0.44394 -1.782158,-0.28935 -3.563405,-0.71355 -5.345701,-1.25368 -1.782297,-0.54013 -3.565244,-1.1968 -5.347657,-1.94911 -1.782412,-0.75233 -3.565149,-1.6005 -5.347656,-2.52643 -3.565013,-1.85185 -7.130046,-4.01266 -10.695312,-6.32748 -3.565266,-2.31482 -7.129963,-4.78241 -10.695313,-7.25155 -3.56535,-2.46914 -7.131999,-4.93863 -10.697265,-7.25346 -3.565267,-2.31482 -7.130299,-4.47562 -10.695313,-6.32747 -1.782507,-0.92594 -3.565244,-1.7741 -5.347656,-2.52643 -1.782413,-0.75231 -3.563406,-1.40899 -5.345703,-1.94912 -1.782297,-0.54012 -3.565496,-0.96432 -5.347656,-1.25367 C 24.085027,300.15458 22.303487,300 20.521484,300 c -2.209906,0 -4.420728,0.23709 -6.630859,0.67448 -2.210131,0.43739 -4.4206536,1.07511 -6.6308594,1.8767 -2.2102057,0.80161 -4.4187754,1.76723 -6.62890622,2.85985 C 0.42054914,305.51501 0.21030881,305.64965 0,305.75589 V 600 h 900 z" />
    <path
       inkscape:connector-curvature="0"
       id="path1063"
       style="display:inline;opacity:1;fill:#ffffff;fill-opacity:1;fill-rule:evenodd;stroke:none;stroke-width:1.87041px;stroke-linecap:butt;stroke-linejoin:miter;stroke-opacity:1;stop-opacity:1"
       d="m 900,388.93066 c -0.9915,-0.48698 -1.98309,-1.01226 -2.97461,-1.44141 -1.7818,-0.7712 -3.56385,-1.44436 -5.3457,-1.99805 -1.78186,-0.55368 -3.56378,-0.98853 -5.34571,-1.28515 -1.78192,-0.29662 -3.5637,-0.45508 -5.3457,-0.45508 -1.782,0 -3.56356,0.15846 -5.3457,0.45508 -1.78214,0.29661 -3.5654,0.73147 -5.34766,1.28515 -1.78225,0.55369 -3.56335,1.22685 -5.3457,1.99805 -1.78236,0.7712 -3.56522,1.64067 -5.34766,2.58985 -3.56487,1.89834 -7.13022,4.11339 -10.69531,6.48632 -3.56509,2.37294 -7.13015,4.90442 -10.69531,7.43555 -3.56517,2.53113 -7.13022,5.06066 -10.69532,7.43359 -3.56509,2.37294 -7.13043,4.58799 -10.69531,6.48633 -1.78244,0.94917 -3.5653,1.81864 -5.34765,2.58985 -1.78236,0.7712 -3.56345,1.44436 -5.34571,1.99804 -1.78225,0.55369 -3.56551,0.98854 -5.34765,1.28516 -1.78214,0.29661 -3.5637,0.45508 -5.34571,0.45508 -1.782,0 -3.56378,-0.15846 -5.3457,-0.45508 -1.78192,-0.29662 -3.56385,-0.73147 -5.3457,-1.28516 -1.78186,-0.55368 -3.56391,-1.22684 -5.34571,-1.99804 -1.78179,-0.77121 -3.56395,-1.64068 -5.3457,-2.58985 -3.5635,-1.89834 -7.12608,-4.11339 -10.68945,-6.48633 -3.56338,-2.37293 -7.12807,-4.90246 -10.69141,-7.43359 -3.56333,-2.53113 -7.12607,-5.06261 -10.68945,-7.43555 -3.56338,-2.37293 -7.12595,-4.58798 -10.68945,-6.48632 -1.78176,-0.94918 -3.56391,-1.81865 -5.34571,-2.58985 -1.7818,-0.7712 -3.56385,-1.44436 -5.3457,-1.99805 -1.78186,-0.55368 -3.56378,-0.98853 -5.3457,-1.28515 -1.78193,-0.29662 -3.56371,-0.45508 -5.34571,-0.45508 -1.782,0 -3.56378,0.15846 -5.3457,0.45508 -1.78192,0.29661 -3.56385,0.73147 -5.3457,1.28515 -1.78186,0.55369 -3.56391,1.22685 -5.34571,1.99805 -1.78179,0.7712 -3.56395,1.64067 -5.3457,2.58985 -3.5635,1.89834 -7.12608,4.11339 -10.68945,6.48632 -3.56338,2.37294 -7.12808,4.90442 -10.69141,7.43555 -3.56333,2.53113 -7.12608,5.06066 -10.68945,7.43359 -3.56338,2.37294 -7.12595,4.58799 -10.68946,6.48633 -1.78175,0.94917 -3.5639,1.81864 -5.3457,2.58985 -1.7818,0.7712 -3.56385,1.44436 -5.3457,1.99804 -1.78186,0.55369 -3.56378,0.98854 -5.3457,1.28516 -1.78193,0.29661 -3.5637,0.45508 -5.34571,0.45508 -1.782,0 -3.56353,-0.15846 -5.3457,-0.45508 -1.78217,-0.29662 -3.56535,-0.73147 -5.34766,-1.28516 -1.78231,-0.55368 -3.56522,-1.22684 -5.34765,-1.99804 -1.78243,-0.77121 -3.56318,-1.64068 -5.34571,-2.58985 -3.56505,-1.89834 -7.13194,-4.11339 -10.69726,-6.48633 -3.56532,-2.37293 -7.12991,-4.90246 -10.69531,-7.43359 -3.56541,-2.53113 -7.12999,-5.06261 -10.69532,-7.43555 -3.56532,-2.37293 -7.1322,-4.58798 -10.69726,-6.48632 -1.78253,-0.94918 -3.56327,-1.81865 -5.34571,-2.58985 -1.78243,-0.7712 -3.56534,-1.44436 -5.34765,-1.99805 -1.78231,-0.55368 -3.56549,-0.98853 -5.34766,-1.28515 -1.78217,-0.29662 -3.5637,-0.45508 -5.3457,-0.45508 -0.85252,0 -1.70406,0.0469 -2.55664,0.11719 -0.84417,-0.0686 -1.68536,-0.11719 -2.5293,-0.11719 -1.782,0 -3.56376,0.15846 -5.3457,0.45508 -1.78194,0.29661 -3.56382,0.73147 -5.3457,1.28515 -1.78189,0.55369 -3.56387,1.22685 -5.34571,1.99805 -1.78183,0.7712 -3.5639,1.64067 -5.3457,2.58985 -3.56359,1.89834 -7.12792,4.11339 -10.69141,6.48632 -3.56349,2.37294 -7.12599,4.90442 -10.68945,7.43555 -3.56346,2.53113 -7.12596,5.06066 -10.68945,7.43359 -3.56349,2.37294 -7.12782,4.58799 -10.69141,6.48633 -1.7818,0.94917 -3.56387,1.81864 -5.3457,2.58985 -1.78184,0.7712 -3.56382,1.44436 -5.34571,1.99804 -1.78188,0.55369 -3.56376,0.98854 -5.3457,1.28516 -1.78194,0.29661 -3.5637,0.45508 -5.3457,0.45508 -1.78201,0 -3.56378,-0.15846 -5.34571,-0.45508 -1.78192,-0.29662 -3.56384,-0.73147 -5.3457,-1.28516 -1.78185,-0.55368 -3.5639,-1.22684 -5.3457,-1.99804 -1.7818,-0.77121 -3.56395,-1.64068 -5.34571,-2.58985 -3.5635,-1.89834 -7.12607,-4.11339 -10.68945,-6.48633 -3.56337,-2.37293 -7.12807,-4.90246 -10.6914,-7.43359 -3.56334,-2.53113 -7.12608,-5.06261 -10.68946,-7.43555 -3.56337,-2.37293 -7.12595,-4.58798 -10.68945,-6.48632 -1.78175,-0.94918 -3.56391,-1.81865 -5.3457,-2.58985 -1.7818,-0.7712 -3.56385,-1.44436 -5.34571,-1.99805 -1.78185,-0.55368 -3.56378,-0.98853 -5.3457,-1.28515 -1.78192,-0.29662 -3.5637,-0.45508 -5.3457,-0.45508 -1.78201,0 -3.56355,0.15846 -5.34571,0.45508 -1.78215,0.29661 -3.56537,0.73147 -5.34765,1.28515 -1.78229,0.55369 -3.56331,1.22685 -5.34571,1.99805 -1.78239,0.7712 -3.56517,1.64067 -5.34765,2.58985 -3.56497,1.89834 -7.13011,4.11339 -10.69531,6.48632 -3.56521,2.37294 -7.13003,4.90442 -10.69532,7.43555 -3.56528,2.53113 -7.13206,5.06066 -10.69726,7.43359 -3.56521,2.37294 -7.13035,4.58799 -10.69532,6.48633 -1.78248,0.94917 -3.56526,1.81864 -5.34765,2.58985 -1.78239,0.7712 -3.56342,1.44436 -5.3457,1.99804 -1.78229,0.55369 -3.56551,0.98854 -5.34766,1.28516 -1.78215,0.29661 -3.5637,0.45508 -5.3457,0.45508 -1.78201,0 -3.56378,-0.15846 -5.34571,-0.45508 -1.78192,-0.29662 -3.56384,-0.73147 -5.3457,-1.28516 -1.78186,-0.55368 -3.5639,-1.22684 -5.3457,-1.99804 -1.7818,-0.77121 -3.56396,-1.64068 -5.34571,-2.58985 -3.5635,-1.89834 -7.12607,-4.11339 -10.68945,-6.48633 -3.56338,-2.37293 -7.12612,-4.90246 -10.68945,-7.43359 -3.56334,-2.53113 -7.12803,-5.06261 -10.69141,-7.43555 -3.56337,-2.37293 -7.12595,-4.58798 -10.68945,-6.48632 -1.78175,-0.94918 -3.56391,-1.81865 -5.34571,-2.58985 -1.78179,-0.7712 -3.56384,-1.44436 -5.3457,-1.99805 -1.78185,-0.55368 -3.56378,-0.98853 -5.3457,-1.28515 -1.78193,-0.29662 -3.5637,-0.45508 -5.3457,-0.45508 -1.78201,0 -3.56378,0.15846 -5.34571,0.45508 -1.78192,0.29661 -3.56385,0.73147 -5.3457,1.28515 -1.78186,0.55369 -3.56391,1.22685 -5.3457,1.99805 -1.7818,0.7712 -3.56396,1.64067 -5.34571,2.58985 -3.5635,1.89834 -7.12607,4.11339 -10.68945,6.48632 -3.56338,2.37294 -7.12612,4.90442 -10.68945,7.43555 -3.56334,2.53113 -7.12803,5.06066 -10.69141,7.43359 -3.56338,2.37294 -7.12595,4.58799 -10.68945,6.48633 -1.78175,0.94917 -3.56391,1.81864 -5.34571,2.58985 -1.78179,0.7712 -3.56384,1.44436 -5.3457,1.99804 -1.78186,0.55369 -3.56378,0.98854 -5.3457,1.28516 -1.78193,0.29661 -3.5637,0.45508 -5.34571,0.45508 -1.782,0 -3.56355,-0.15846 -5.3457,-0.45508 -1.78215,-0.29662 -3.565372,-0.73147 -5.347654,-1.28516 -1.782283,-0.55368 -3.563311,-1.22684 -5.345704,-1.99804 -1.782392,-0.77121 -3.565173,-1.64068 -5.347656,-2.58985 -3.564966,-1.89834 -7.130105,-4.11339 -10.695312,-6.48633 -3.565207,-2.37293 -7.130025,-4.90246 -10.695313,-7.43359 -3.565287,-2.53113 -7.132058,-5.06261 -10.697265,-7.43555 -3.565208,-2.37293 -7.130346,-4.58798 -10.695313,-6.48632 -1.782484,-0.94918 -3.565263,-1.81865 -5.347656,-2.58985 -1.782394,-0.7712 -3.56342,-1.44436 -5.345703,-1.99805 -1.782284,-0.55368 -3.565503,-0.98853 -5.347656,-1.28515 -1.782154,-0.29662 -3.563701,-0.45508 -5.345704,-0.45508 -2.209906,0 -4.420708,0.2431 -6.630859,0.69141 -2.210151,0.4483 -4.4206269,1.10219 -6.6308594,1.92382 -2.2102325,0.82163 -4.4187554,1.81166 -6.62890622,2.93164 C 0.42054723,389.40442 0.21031059,389.54246 0,389.65136 v 92 c 0.21032137,-0.10889 0.42054915,-0.24693 0.63085938,-0.35352 2.21013082,-1.12004 4.41870052,-2.10991 6.62890622,-2.93164 2.2102058,-0.82172 4.4207284,-1.47545 6.6308594,-1.92382 2.210131,-0.44837 4.420953,-0.69141 6.630859,-0.69141 1.782003,0 3.563543,0.15846 5.345704,0.45508 1.78216,0.29662 3.565359,0.73147 5.347656,1.28515 1.782297,0.55369 3.56329,1.22685 5.345703,1.99805 1.782412,0.77121 3.565149,1.64066 5.347656,2.58985 3.565014,1.89834 7.130046,4.11339 10.695313,6.48632 3.565266,2.37294 7.131915,4.90442 10.697265,7.43555 3.56535,2.53113 7.130047,5.06066 10.695313,7.43359 3.565266,2.37294 7.130299,4.58799 10.695312,6.48633 1.782507,0.94918 3.565244,1.81864 5.347656,2.58986 1.782414,0.77119 3.56536,1.44435 5.347657,1.99803 1.782296,0.55369 3.563545,0.98855 5.345701,1.28516 1.78216,0.29662 3.56371,0.45509 5.3457,0.45509 1.78201,0 3.56378,-0.15848 5.34571,-0.45509 1.78192,-0.29661 3.56385,-0.73147 5.3457,-1.28516 1.78186,-0.55368 3.56391,-1.22684 5.3457,-1.99803 1.7818,-0.77122 3.56396,-1.64068 5.34571,-2.58986 3.56349,-1.89835 7.12804,-4.11339 10.6914,-6.48633 3.56337,-2.37293 7.12614,-4.90246 10.68946,-7.43359 3.56332,-2.53113 7.12609,-5.06261 10.68945,-7.43555 3.56336,-2.37293 7.12791,-4.58799 10.69141,-6.48632 1.78174,-0.94919 3.56195,-1.81864 5.34375,-2.58985 1.78179,-0.7712 3.56385,-1.44436 5.3457,-1.99805 1.78185,-0.55368 3.56378,-0.98853 5.3457,-1.28515 1.78192,-0.29662 3.5637,-0.45508 5.34571,-0.45508 1.782,0 3.56378,0.15846 5.3457,0.45508 1.78192,0.29662 3.56385,0.73147 5.3457,1.28515 1.78186,0.55369 3.56391,1.22685 5.3457,1.99805 1.7818,0.77121 3.56396,1.64066 5.34571,2.58985 3.56349,1.89834 7.12609,4.11339 10.68945,6.48632 3.56337,2.37294 7.12808,4.90442 10.69141,7.43555 3.56332,2.53113 7.12608,5.06066 10.68945,7.43359 3.56337,2.37294 7.12596,4.58799 10.68945,6.48633 1.78175,0.94918 3.56391,1.81864 5.34571,2.58986 1.78179,0.77119 3.56385,1.44435 5.3457,1.99803 1.78185,0.55369 3.56378,0.98855 5.3457,1.28516 1.78193,0.29662 3.5637,0.45509 5.34571,0.45509 1.782,0 3.56355,-0.15848 5.3457,-0.45509 1.78214,-0.29661 3.56539,-0.73147 5.34766,-1.28516 1.78226,-0.55368 3.56528,-1.22684 5.34765,-1.99803 1.78237,-0.77122 3.56325,-1.64068 5.3457,-2.58986 3.56492,-1.89835 7.13018,-4.11339 10.69532,-6.48633 3.56514,-2.37293 7.1301,-4.90246 10.69531,-7.43359 3.56521,-2.53113 7.13213,-5.06261 10.69727,-7.43555 3.56513,-2.37293 7.12844,-4.58799 10.69336,-6.48632 1.78245,-0.94919 3.56528,-1.81864 5.34765,-2.58985 1.78237,-0.7712 3.56539,-1.44436 5.34766,-1.99805 1.78226,-0.55368 3.56356,-0.98853 5.3457,-1.28515 1.78214,-0.29662 3.56565,-0.45508 5.34766,-0.45508 1.782,0 3.56378,0.15846 5.3457,0.45508 1.78192,0.29662 3.56385,0.73147 5.3457,1.28515 1.78186,0.55369 3.56391,1.22685 5.34571,1.99805 1.78179,0.77121 3.562,1.64066 5.34375,2.58985 3.56349,1.89834 7.12804,4.11339 10.6914,6.48632 3.56337,2.37294 7.12613,4.90442 10.68946,7.43555 3.56332,2.53113 7.12608,5.06066 10.68945,7.43359 3.56336,2.37294 7.12792,4.58799 10.6914,6.48633 1.78175,0.94918 3.56391,1.81864 5.34571,2.58986 1.78179,0.77119 3.56189,1.44435 5.34375,1.99803 1.78185,0.55369 3.56378,0.98855 5.3457,1.28516 1.78192,0.29662 3.56565,0.45509 5.34766,0.45509 1.782,0 3.56376,-0.15848 5.3457,-0.45509 1.78194,-0.29661 3.56382,-0.73147 5.3457,-1.28516 1.78189,-0.55368 3.56387,-1.22684 5.34571,-1.99803 1.78183,-0.77122 3.56195,-1.64068 5.34375,-2.58986 3.56359,-1.89835 7.12791,-4.11339 10.6914,-6.48633 3.5635,-2.37293 7.12795,-4.90246 10.69141,-7.43359 3.56346,-2.53113 7.12596,-5.06261 10.68945,-7.43555 3.56349,-2.37293 7.12781,-4.58799 10.69141,-6.48632 1.7818,-0.94919 3.56191,-1.81864 5.34375,-2.58985 1.78183,-0.7712 3.56382,-1.44436 5.3457,-1.99805 1.78188,-0.55368 3.56377,-0.98853 5.3457,-1.28515 1.78194,-0.29662 3.56566,-0.45508 5.34766,-0.45508 0.84394,0 1.68513,0.0486 2.5293,0.11719 0.85258,-0.0703 1.70412,-0.11719 2.55664,-0.11719 1.782,0 3.56548,0.15846 5.34766,0.45508 1.78215,0.29662 3.5634,0.73147 5.3457,1.28515 1.7823,0.55369 3.56524,1.22685 5.34765,1.99805 1.78242,0.77121 3.56515,1.64066 5.34766,2.58985 3.56502,1.89834 7.13005,4.11339 10.69531,6.48632 3.56527,2.37294 7.12997,4.90442 10.69532,7.43555 3.56535,2.53113 7.13004,5.06066 10.69531,7.43359 3.56526,2.37294 7.13225,4.58799 10.69726,6.48633 1.78251,0.94918 3.56329,1.81864 5.34571,2.58986 1.78241,0.77119 3.56536,1.44435 5.34765,1.99803 1.7823,0.55369 3.5655,0.98855 5.34766,1.28516 1.78216,0.29662 3.5637,0.45509 5.3457,0.45509 1.78201,0 3.56378,-0.15848 5.34571,-0.45509 1.78192,-0.29661 3.56384,-0.73147 5.3457,-1.28516 1.78185,-0.55368 3.56391,-1.22684 5.3457,-1.99803 1.7818,-0.77122 3.56397,-1.64068 5.3457,-2.58986 3.5635,-1.89835 7.12609,-4.11339 10.68946,-6.48633 3.56336,-2.37293 7.12613,-4.90246 10.68945,-7.43359 3.56332,-2.53113 7.12804,-5.06261 10.69141,-7.43555 3.56336,-2.37293 7.12596,-4.58799 10.68945,-6.48632 1.78175,-0.94919 3.56391,-1.81864 5.3457,-2.58985 1.7818,-0.7712 3.56385,-1.44436 5.34571,-1.99805 1.78185,-0.55368 3.56378,-0.98853 5.3457,-1.28515 1.78192,-0.29662 3.5637,-0.45508 5.3457,-0.45508 1.782,0 3.56378,0.15846 5.34571,0.45508 1.78192,0.29662 3.56385,0.73147 5.3457,1.28515 1.78185,0.55369 3.56391,1.22685 5.3457,1.99805 1.7818,0.77121 3.56396,1.64066 5.34571,2.58985 3.56349,1.89834 7.12608,4.11339 10.68945,6.48632 3.56336,2.37294 7.12613,4.90442 10.68945,7.43555 3.56332,2.53113 7.12609,5.06066 10.68946,7.43359 3.56335,2.37294 7.12791,4.58799 10.6914,6.48633 1.78175,0.94918 3.56391,1.81864 5.3457,2.58986 1.7818,0.77119 3.56385,1.44435 5.34571,1.99803 1.78185,0.55369 3.56378,0.98855 5.3457,1.28516 1.78192,0.29662 3.5637,0.45509 5.3457,0.45509 1.78201,0 3.56356,-0.15848 5.34571,-0.45509 1.78214,-0.29661 3.56343,-0.73147 5.3457,-1.28516 1.78227,-0.55368 3.56528,-1.22684 5.34766,-1.99803 1.78237,-0.77122 3.5652,-1.64068 5.34765,-2.58986 3.56492,-1.89835 7.13019,-4.11339 10.69531,-6.48633 3.56515,-2.37293 7.1301,-4.90246 10.69532,-7.43359 3.56521,-2.53113 7.13017,-5.06261 10.69531,-7.43555 3.56514,-2.37293 7.1304,-4.58799 10.69531,-6.48632 1.78246,-0.94919 3.56529,-1.81864 5.34766,-2.58985 1.78237,-0.7712 3.56343,-1.44436 5.3457,-1.99805 1.78227,-0.55368 3.56551,-0.98853 5.34766,-1.28515 1.78214,-0.29662 3.5637,-0.45508 5.3457,-0.45508 1.782,0 3.56378,0.15846 5.3457,0.45508 1.78193,0.29662 3.56385,0.73147 5.34571,1.28515 1.78185,0.55369 3.56391,1.22685 5.3457,1.99805 0.99151,0.42916 1.983,0.9546 2.97461,1.44141 z" />
  </g>
</svg>
