<?xml version="1.0" encoding="UTF-8" standalone="no"?>
<!-- Creator: CorelDRAW -->

<svg
   xmlns:dc="http://purl.org/dc/elements/1.1/"
   xmlns:cc="http://creativecommons.org/ns#"
   xmlns:rdf="http://www.w3.org/1999/02/22-rdf-syntax-ns#"
   xmlns:svg="http://www.w3.org/2000/svg"
   xmlns="http://www.w3.org/2000/svg"
   xmlns:sodipodi="http://sodipodi.sourceforge.net/DTD/sodipodi-0.dtd"
   xmlns:inkscape="http://www.inkscape.org/namespaces/inkscape"
   xml:space="preserve"
   width="799.04102"
   height="500.11407"
   style="fill-rule:evenodd"
   viewBox="0 0 225.50713 141.14331"
   id="svg2"
   version="1.1"
   inkscape:version="0.48.4 r9939"
   sodipodi:docname="Flag of Clipperton Island.svg"><metadata
   id="metadata264"><rdf:RDF><cc:Work
       rdf:about=""><dc:format>image/svg+xml</dc:format><dc:type
         rdf:resource="http://purl.org/dc/dcmitype/StillImage" /><dc:title></dc:title></cc:Work></rdf:RDF></metadata><sodipodi:namedview
   pagecolor="#ffffff"
   bordercolor="#666666"
   borderopacity="1"
   objecttolerance="10"
   gridtolerance="10"
   guidetolerance="10"
   inkscape:pageopacity="0"
   inkscape:pageshadow="2"
   inkscape:window-width="1920"
   inkscape:window-height="1053"
   id="namedview262"
   showgrid="false"
   inkscape:zoom="1.4016802"
   inkscape:cx="449.99129"
   inkscape:cy="240.72264"
   inkscape:window-x="-9"
   inkscape:window-y="-9"
   inkscape:window-maximized="1"
   inkscape:current-layer="g3334"
   fit-margin-top="0"
   fit-margin-left="0"
   fit-margin-right="0"
   fit-margin-bottom="0" />
 <defs
   id="defs4">
  <style
   type="text/css"
   id="style6">
   
    .str3 {stroke:black;stroke-width:0.25;stroke-linecap:round;stroke-linejoin:round}
    .str0 {stroke:black;stroke-width:0.27}
    .str1 {stroke:black;stroke-width:0.27;stroke-linejoin:round}
    .str2 {stroke:black;stroke-width:0.27;stroke-linecap:round;stroke-linejoin:round}
    .fil1 {fill:none}
    .fil2 {fill:#008F4C}
    .fil0 {fill:#996633}
    .fil3 {fill:#CC9933}
   
  </style>
 </defs>
 
 
<rect
   style="fill:#0044aa;fill-opacity:1;stroke:none"
   id="rect3312"
   width="225.50714"
   height="141.14331"
   x="-6.0000002e-006"
   y="0" /><g
   id="g3334"
   transform="translate(-0.20134639,-1.9177251)"><path
     transform="matrix(0.28222224,0,0,0.28222224,0.80537555,22.651397)"
     d="M 600.72765,170.39558 397.38022,373.74301 194.03279,170.39558 397.38022,-32.951843 z"
     inkscape:randomized="0"
     inkscape:rounded="0"
     inkscape:flatsided="true"
     sodipodi:arg2="0.78539816"
     sodipodi:arg1="0"
     sodipodi:r2="143.78835"
     sodipodi:r1="203.34743"
     sodipodi:cy="170.39558"
     sodipodi:cx="397.38022"
     sodipodi:sides="4"
     id="path3318"
     style="fill:#ffffff;fill-opacity:1;stroke:#000000;stroke-width:2;stroke-opacity:1"
     sodipodi:type="star" /><g
     transform="matrix(1.2761396,0,0,1.2761396,-79.517836,-19.580944)"
     id="g3241"><g
       id="Capa_x0020_1"
       transform="translate(0,6.7111151)">
  <metadata
   id="CorelCorpID_0Corel-Layer" />
  <g
   id="_109262760">
   <path
   id="_112166136"
   class="fil0 str0"
   d="m 148.412,101.384 c 0.001,0.006 0.002,0.012 0.003,0.0182 -0.1998,1.0256 -0.1876,1.8516 -0.0488,2.5598 -0.1853,0.9301 -0.1988,1.8278 -0.0469,2.5809 -0.1564,0.8216 -0.1891,1.6404 -0.0418,2.4575 -0.1445,0.8103 -0.1567,1.5859 -0.0368,2.3266 0.8486,0.6497 3.2535,0.7263 4.329,0.1377 0.1293,-0.7389 0.1271,-1.6285 -0.007,-2.4407 0.1579,-0.8149 0.1356,-1.6339 -0.0103,-2.4578 0.1616,-0.751 0.1596,-1.6488 -0.0137,-2.5815 0.1479,-0.7062 0.1705,-1.5318 -0.016,-2.5601 0.1409,-0.7876 0.1497,-1.6597 -0.0189,-2.6656 0.142,-0.7983 0.1471,-1.6501 -0.0198,-2.5685 0.15,-0.7838 0.1417,-1.6692 -0.0221,-2.6657 10e-4,-0.0079 0.002,-0.0157 0.003,-0.0238 0.1228,-0.7907 0.1271,-1.6798 -0.0191,-2.6897 0.15,-0.9586 0.1321,-1.8479 -0.021,-2.7216 0.1313,-0.8287 0.1401,-1.709 -0.019,-2.6901 0.1541,-0.7879 0.1506,-1.658 -0.019,-2.6899 0.2222,-0.8376 0.1332,-1.8897 -0.027,-2.7197 -7e-4,-0.0033 -0.001,-0.0067 -0.002,-0.01 0.1408,-0.9741 0.131,-1.8534 -0.011,-2.6818 0.142,-0.8945 0.1418,-1.7902 -0.0191,-2.69 0.1065,-0.891 0.095,-1.7934 -0.0209,-2.7217 0.115,-0.8854 0.0978,-1.7527 -0.0298,-2.6859 0.1036,-0.8137 0.1088,-1.6953 -0.0298,-2.6872 0.1224,-0.8544 0.1602,-1.7617 5e-4,-2.7282 0.122,-0.8749 0.1114,-1.773 -0.031,-2.6936 0.1214,-0.8344 0.1278,-1.722 -0.0331,-2.6865 0.1453,-0.9655 0.117,-1.8343 -0.0293,-2.6359 0.1144,-0.8924 0.1077,-1.5449 0.004,-2.4365 0.0227,-0.2727 0.004,-0.7862 -0.0282,-1.0589 l -2.7146,-0.0391 c -0.1153,0.1874 -0.1488,0.5635 -0.0742,1.0697 -0.1343,0.3875 -0.1279,2.0617 0.0288,2.4521 -0.1565,0.7995 -0.196,1.6677 -0.0631,2.6353 -0.1733,0.9621 -0.1782,1.8498 -0.0675,2.6857 -0.1544,0.9184 -0.1765,1.8163 -0.0657,2.6929 -0.172,0.9641 -0.1459,1.8721 -0.0344,2.728 -0.1515,0.9898 -0.1575,1.8713 -0.0643,2.6865 -0.1395,0.9313 -0.1679,1.7983 -0.0644,2.6853 -0.1277,0.9263 -0.151,1.8286 -0.0558,2.721 -0.1725,0.8975 -0.184,1.793 -0.0536,2.6895 -0.1527,0.8264 -0.1736,1.7053 -0.0455,2.6815 -0.1721,0.829 -0.2762,1.8846 -0.0639,2.7289 -0.1829,1.0294 -0.1974,1.8994 -0.0536,2.6894 -0.1717,0.9787 -0.1741,1.859 -0.0536,2.6894 -0.1641,0.8715 -0.1935,1.7605 -0.056,2.7212 -0.1606,1.0177 -0.1662,1.9144 -0.0509,2.7131 -0.1766,0.9939 -0.1964,1.8792 -0.0564,2.6649 -0.1788,0.9161 -0.1847,1.7678 -0.0529,2.5681 -0.18,0.9956 -0.1838,1.862 -0.0559,2.6468 z"
   inkscape:connector-curvature="0"
   style="fill:#996633;stroke:#000000;stroke-width:0.27000001" />
   <path
   id="_112703888"
   class="fil1 str1"
   d="m 148.382,103.934 c 1.0008,0.4629 3.5561,0.3827 4.1563,0.0749"
   inkscape:connector-curvature="0"
   style="fill:none;stroke:#000000;stroke-width:0.27000001;stroke-linejoin:round" />
   <path
   id="_105428400"
   class="fil1 str1"
   d="m 148.361,101.364 c 0.9553,0.4061 3.2354,0.3849 4.161,0.0771"
   inkscape:connector-curvature="0"
   style="fill:none;stroke:#000000;stroke-width:0.27000001;stroke-linejoin:round" />
   <path
   id="_122805528"
   class="fil1 str1"
   d="m 148.488,98.6745 c 0.9251,0.4628 3.1199,0.3438 4.0152,0.0764"
   inkscape:connector-curvature="0"
   style="fill:none;stroke:#000000;stroke-width:0.27000001;stroke-linejoin:round" />
   <path
   id="_113328848"
   class="fil1 str1"
   d="m 148.541,96.1225 c 1.0234,0.4629 3.2513,0.3361 3.9423,0.0687"
   inkscape:connector-curvature="0"
   style="fill:none;stroke:#000000;stroke-width:0.27000001;stroke-linejoin:round" />
   <path
   id="_140461728"
   class="fil1 str1"
   d="m 148.591,93.4895 c 1.0993,0.3135 3.0265,0.3013 3.873,0.0118"
   inkscape:connector-curvature="0"
   style="fill:none;stroke:#000000;stroke-width:0.27000001;stroke-linejoin:round" />
   <path
   id="_111252504"
   class="fil1 str1"
   d="m 148.643,90.7981 c 1.1325,0.2708 2.899,0.2807 3.8024,0.0133"
   inkscape:connector-curvature="0"
   style="fill:none;stroke:#000000;stroke-width:0.27000001;stroke-linejoin:round" />
   <path
   id="_127192920"
   class="fil1 str1"
   d="m 148.695,88.0713 c 1.0336,0.2638 3.0258,0.2797 3.7289,0.0185"
   inkscape:connector-curvature="0"
   style="fill:none;stroke:#000000;stroke-width:0.27000001;stroke-linejoin:round" />
   <path
   id="_99199072"
   class="fil1 str1"
   d="m 148.747,85.3975 c 0.8973,0.2881 2.7881,0.2636 3.6576,0.0024"
   inkscape:connector-curvature="0"
   style="fill:none;stroke:#000000;stroke-width:0.27000001;stroke-linejoin:round" />
   <path
   id="_57974072"
   class="fil1 str1"
   d="m 148.823,82.6992 c 1.1464,0.278 2.7328,0.3013 3.5628,0.0108"
   inkscape:connector-curvature="0"
   style="fill:none;stroke:#000000;stroke-width:0.27000001;stroke-linejoin:round" />
   <path
   id="_139695576"
   class="fil1 str1"
   d="m 148.876,79.9675 c 1.1659,0.2763 2.8197,0.2436 3.4889,0.0209"
   inkscape:connector-curvature="0"
   style="fill:none;stroke:#000000;stroke-width:0.27000001;stroke-linejoin:round" />
   <path
   id="_108876192"
   class="fil1 str1"
   d="m 148.917,77.2849 c 1.1524,0.2594 2.9598,0.1655 3.4287,0.0136"
   inkscape:connector-curvature="0"
   style="fill:none;stroke:#000000;stroke-width:0.27000001;stroke-linejoin:round" />
   <path
   id="_104468904"
   class="fil1 str1"
   d="m 148.983,74.6633 c 1.074,0.1956 2.8846,0.094 3.3441,-0.0548"
   inkscape:connector-curvature="0"
   style="fill:none;stroke:#000000;stroke-width:0.27000001;stroke-linejoin:round" />
   <path
   id="_108959488"
   class="fil1 str1"
   d="m 149.038,71.8798 c 1.0566,0.2852 2.8129,0.1544 3.2678,0.0071"
   inkscape:connector-curvature="0"
   style="fill:none;stroke:#000000;stroke-width:0.27000001;stroke-linejoin:round" />
   <path
   id="_109312288"
   class="fil1 str1"
   d="m 149.108,69.2544 c 1.0069,0.2579 2.5911,0.1525 3.1786,-0.0574"
   inkscape:connector-curvature="0"
   style="fill:none;stroke:#000000;stroke-width:0.27000001;stroke-linejoin:round" />
   <path
   id="_109287888"
   class="fil1 str1"
   d="m 149.19,66.5129 c 0.9896,0.2148 2.6421,0.1353 3.0781,-0.0058"
   inkscape:connector-curvature="0"
   style="fill:none;stroke:#000000;stroke-width:0.27000001;stroke-linejoin:round" />
   <path
   id="_85988992"
   class="fil1 str1"
   d="m 149.23,63.8084 c 0.9872,0.2041 2.5899,0.1153 3.0165,-0.0229"
   inkscape:connector-curvature="0"
   style="fill:none;stroke:#000000;stroke-width:0.27000001;stroke-linejoin:round" />
   <path
   id="_144371400"
   class="fil1 str1"
   d="m 149.324,61.1244 c 1.0745,0.1317 2.4438,0.1188 2.8517,-0.0133"
   inkscape:connector-curvature="0"
   style="fill:none;stroke:#000000;stroke-width:0.27000001;stroke-linejoin:round" />
   <path
   id="_142302024"
   class="fil1 str1"
   d="m 149.388,58.3767 c 0.8915,0.1886 2.3753,0.172 2.7692,0.0445"
   inkscape:connector-curvature="0"
   style="fill:none;stroke:#000000;stroke-width:0.27000001;stroke-linejoin:round" />
   <path
   id="_90888000"
   class="fil1 str1"
   d="m 149.446,55.7443 c 0.972,0.1544 2.3143,0.1447 2.6988,0.0201"
   inkscape:connector-curvature="0"
   style="fill:none;stroke:#000000;stroke-width:0.27000001;stroke-linejoin:round" />
   <path
   id="_108984096"
   class="fil1 str1"
   d="m 149.34,53.3045 c 0.7285,0.0748 2.5167,0.1256 2.8168,0.0284"
   inkscape:connector-curvature="0"
   style="fill:none;stroke:#000000;stroke-width:0.27000001;stroke-linejoin:round" />
   <path
   id="_59547952"
   class="fil1 str1"
   d="m 148.336,106.486 c 1.0151,0.4629 3.6068,0.3827 4.2156,0.0749"
   inkscape:connector-curvature="0"
   style="fill:none;stroke:#000000;stroke-width:0.27000001;stroke-linejoin:round" />
   <path
   id="_109262800"
   class="fil1 str1"
   d="m 148.286,108.933 c 1.0295,0.4629 3.6581,0.3827 4.2756,0.0748"
   inkscape:connector-curvature="0"
   style="fill:none;stroke:#000000;stroke-width:0.27000001;stroke-linejoin:round" />
  </g>
  
  
 </g><g
       id="Capa_x0020_2"
       transform="translate(0,6.7111151)">
  <metadata
   id="CorelCorpID_1Corel-Layer" />
  
  
  
  
  
  
  
  
  
  
  <path
   class="fil3 str2"
   d="m 152.182,55.2481 c -1.0696,0 -1.937,0.8674 -1.937,1.9371 0,1.0696 0.8674,1.937 1.937,1.937 1.0696,0 1.937,-0.8674 1.937,-1.937 0,-1.0697 -0.8674,-1.9371 -1.937,-1.9371 z"
   id="path217"
   inkscape:connector-curvature="0"
   style="fill:#cc9933;stroke:#000000;stroke-width:0.27000001;stroke-linecap:round;stroke-linejoin:round" />
  <path
   class="fil3 str2"
   d="m 148.617,55.1166 c -1.0696,0 -1.937,0.8674 -1.937,1.9371 0,1.0696 0.8674,1.937 1.937,1.937 1.0696,0 1.937,-0.8674 1.937,-1.937 0,-1.0697 -0.8674,-1.9371 -1.937,-1.9371 z"
   id="path219"
   inkscape:connector-curvature="0"
   style="fill:#cc9933;stroke:#000000;stroke-width:0.27000001;stroke-linecap:round;stroke-linejoin:round" />
  <path
   class="fil3 str2"
   d="m 150.424,52.3386 c -1.0696,0 -1.937,0.8674 -1.937,1.9371 0,1.0696 0.8674,1.937 1.937,1.937 1.0696,0 1.937,-0.8674 1.937,-1.937 0,-1.0697 -0.8674,-1.9371 -1.937,-1.9371 z"
   id="path221"
   inkscape:connector-curvature="0"
   style="fill:#cc9933;stroke:#000000;stroke-width:0.27000001;stroke-linecap:round;stroke-linejoin:round" />
  <g
   id="_110261640">
   <path
   id="_109373744"
   class="fil2"
   d="m 156.59,46.9239 c 1.641,-0.3606 4.002,-0.4093 7.2607,-0.4954 -0.7856,-0.262 -1.6572,-0.5327 -2.9631,-0.8798 1.9041,-0.2637 6.4373,-0.2046 7.5997,-0.2155 -0.7872,-0.4813 -2.74,-1.2517 -3.2598,-1.3573 2.4932,-0.4114 5.4714,-0.0178 7.5678,0.3184 -0.9789,-0.549 -2.085,-1.2572 -3.4878,-1.6389 2.9929,-0.2051 4.1802,0.0358 6.9571,0.4088 -0.379,-0.3405 -1.6692,-1.275 -3.0335,-1.6643 3.3264,-0.609 5.1915,-0.7379 8.4519,-0.4753 -9.4178,-4.3096 -20.8446,-2.0676 -27.7226,2.6729 0.6897,-1.0807 2.1764,-2.7222 3.6274,-3.9598 -0.7347,-0.0585 -1.4326,-0.0406 -2.3817,0.1315 1.0076,-1.1044 2.903,-2.5798 4.1867,-3.0898 -0.9372,-0.0498 -1.7292,-0.0693 -2.5711,0.0969 1.262,-1.1721 3.1661,-2.4108 4.7833,-3.2349 -0.9599,-0.0882 -1.9404,-0.1071 -2.8922,0.0666 1.2755,-1.5013 3.5045,-3.0372 5.4747,-3.9739 -1.2831,-0.0211 -2.0731,0.0228 -3.2192,0.2485 1.6388,-1.4948 3.8304,-3.0616 6.7123,-4.5169 -11.4225,1.2793 -17.7283,9.5146 -18.2653,16.489 -3.0443,-6.5629 -11.3354,-12.8399 -22.7498,-12.3613 3.4076,1.0389 6.1151,2.3042 8.2234,3.5851 -1.268,-0.0487 -2.1115,0.0331 -3.4618,0.261 2.3172,0.6508 5.0556,1.8787 6.7816,3.2235 -1.0487,-0.0249 -2.0779,0.1516 -3.0686,0.398 1.9144,0.5912 4.2354,1.563 5.8628,2.5716 -0.9306,-0.0368 -1.7612,0.111 -2.7379,0.3135 1.4835,0.32 3.8559,1.5387 5.1986,2.5181 -1.046,-0.0249 -1.7861,0.0682 -2.5468,0.2479 3.4347,1.3395 3.6545,1.9437 4.4125,2.3979 -7.1243,-1.523 -17.4219,0.8294 -25.3393,10.0274 1.1488,-0.9686 6.0518,-2.7942 7.6088,-3.2133 -0.8115,0.9713 -1.0925,1.4813 -1.7346,2.7 1.7801,-1.4385 4.4682,-2.6258 7.0323,-3.6474 -0.5398,0.8175 -1.1256,1.8808 -1.3958,2.5614 1.8668,-1.1559 2.4358,-1.3227 6.2581,-3.1402 -0.2761,0.4672 -1.0373,1.4813 -1.4011,2.4439 1.1678,-0.6654 3.943,-1.6789 5.8244,-2.3551 0.1289,-0.0476 -1.1321,1.0325 -1.7022,2.3259 0.4294,-0.1619 3.0389,-1.1056 3.138,-1.1326 -6.0242,4.2067 -10.5157,11.2644 -9.6061,19.8489 0.3476,-1.3421 1.9393,-5.1958 2.8413,-6.7367 -0.0991,1.0222 0.1326,2.7173 0.3205,3.4753 0.8868,-2.5636 1.8619,-4.6079 3.3155,-6.8287 -0.1202,1.3703 -0.0871,2.8824 0.1013,3.5039 0.8121,-1.896 1.4526,-3.524 3.4433,-7.0339 -0.1288,0.523 -0.1565,2.0032 -0.0352,3.3112 0.6594,-1.4444 2.1905,-4.2922 3.6859,-6.3988 -0.0736,0.7753 -0.2139,2.0871 -0.1554,2.6323 0.1586,-0.2772 0.6308,-1.0536 1.1797,-1.9215 0.856,-1.3518 1.8993,-2.9246 2.2393,-3.1775 0.262,0.2642 0.5105,0.588 0.7433,0.96 0.9372,1.504 1.6085,3.8028 1.8175,6.1833 0.5003,-1.1683 0.7158,-2.3594 0.7791,-2.9891 1.0687,2.3909 2.2739,6.1309 2.36,8.1915 0.3595,-1.0937 0.5452,-1.7747 0.6746,-3.4872 1.1136,1.7877 2.0833,6.191 2.1732,8.1021 0.4331,-0.7482 0.7915,-1.6832 1.0525,-3.079 1.0903,2.4618 1.5208,5.5251 1.785,7.6387 2.7979,-10.1811 -1.2176,-16.7624 -6.1125,-21.7845 1.2312,0.6676 2.7882,2.0384 4.3101,3.6897 -0.1391,-0.7688 -0.5619,-2.2349 -0.9068,-3.0064 1.8094,1.2864 4.4763,3.9365 5.2191,4.701 -0.1278,-1.0065 -0.2718,-1.5392 -0.804,-2.8234 2.1353,1.4796 4.0416,4.0134 5.1223,5.4097 -0.0872,-0.6437 -0.2594,-1.8522 -0.7033,-3.2414 1.9479,1.4564 3.8878,4.3816 4.7714,6.0302 -0.0233,-1.1272 -0.3389,-2.3194 -0.6042,-3.5479 2.6523,2.242 3.6322,4.6139 4.4703,6.047 0.0212,-9.1931 -10.618,-17.463 -20.5056,-18.3249 z"
   inkscape:connector-curvature="0"
   style="fill:#008f4c" />
   <g
   id="g225">
    <path
   id="_57651880"
   class="fil1 str2"
   d="m 152.494,47.0175 c 10.7792,-1.5406 24.6254,7.7441 24.6017,18.2311 -0.8387,-1.4332 -1.8186,-3.8049 -4.4718,-6.0474 0.2667,1.2291 0.5817,2.4215 0.6047,3.5484 -0.8831,-1.6491 -2.8229,-4.5741 -4.7717,-6.0305 0.4442,1.3894 0.6171,2.5982 0.7045,3.2425 -1.081,-1.3973 -2.9874,-3.9313 -5.1233,-5.4106 0.5328,1.2845 0.6766,1.8168 0.8042,2.8246 -0.7428,-0.7657 -3.4095,-3.4161 -5.219,-4.7026 0.3453,0.7721 0.7678,2.2384 0.9073,3.0067 -1.5224,-1.6517 -3.0793,-3.0219 -4.3106,-3.6896"
   inkscape:connector-curvature="0"
   style="fill:none;stroke:#000000;stroke-width:0.27000001;stroke-linecap:round;stroke-linejoin:round" />
    <path
   id="_109373784"
   class="fil1 str2"
   d="m 150.079,46.8892 c -6.4528,-4.1578 -20.1473,-3.4016 -30.0886,8.1482 1.1479,-0.9684 6.051,-2.7939 7.6087,-3.2137 -0.8119,0.9714 -1.0931,1.4818 -1.7348,2.7001 1.7803,-1.4389 4.4681,-2.6253 7.0318,-3.6473 -0.5399,0.8177 -1.1256,1.8809 -1.3948,2.5612 1.8658,-1.1564 2.435,-1.3222 6.2572,-3.1401 -0.2765,0.4675 -1.0379,1.4814 -1.4005,2.4443 1.1664,-0.6654 3.9423,-1.6794 5.8234,-2.3561 0.1298,-0.0468 -1.1319,1.0335 -1.7016,2.3271 0.4289,-0.1625 3.0397,-1.1052 3.1378,-1.1332"
   inkscape:connector-curvature="0"
   style="fill:none;stroke:#000000;stroke-width:0.27000001;stroke-linecap:round;stroke-linejoin:round" />
    <path
   id="_59500704"
   class="fil1 str2"
   d="m 150.512,45.2491 c -1.3704,-7.5872 -10.4595,-16.3174 -23.8474,-15.7566 3.4078,1.0396 6.1159,2.305 8.2232,3.5854 -1.2671,-0.0487 -2.1108,0.0336 -3.4605,0.2617 2.3154,0.6502 5.0548,1.8781 6.7804,3.223 -1.0482,-0.0248 -2.0775,0.1522 -3.0682,0.3986 1.9138,0.5901 4.2352,1.5628 5.8626,2.571 -0.9302,-0.0367 -1.7612,0.1113 -2.7376,0.3137 1.4838,0.3203 3.8554,1.5387 5.1984,2.518 -1.046,-0.0248 -1.7867,0.0689 -2.5469,0.248 3.4341,1.339 3.655,1.9436 4.4116,2.3988"
   inkscape:connector-curvature="0"
   style="fill:none;stroke:#000000;stroke-width:0.27000001;stroke-linecap:round;stroke-linejoin:round" />
    <path
   id="_114147888"
   class="fil1 str2"
   d="m 150.417,48.2445 c -8.969,2.7373 -17.6366,11.5624 -16.405,23.1839 0.3472,-1.3414 1.939,-5.1962 2.8405,-6.7364 -0.0984,1.0224 0.1327,2.7171 0.3206,3.474 0.8869,-2.5625 1.862,-4.6073 3.3151,-6.8279 -0.1195,1.3709 -0.086,2.8828 0.102,3.5054 0.8123,-1.8966 1.4515,-3.5244 3.4431,-7.0351 -0.1292,0.5229 -0.1565,2.0028 -0.0352,3.3114 0.6594,-1.4442 2.1904,-4.2923 3.6858,-6.3991 -0.0737,0.7753 -0.2132,2.0876 -0.1559,2.6319 0.4074,-0.7082 2.861,-4.6842 3.4196,-5.0985"
   inkscape:connector-curvature="0"
   style="fill:none;stroke:#000000;stroke-width:0.27000001;stroke-linecap:round;stroke-linejoin:round" />
    <path
   id="_109396888"
   class="fil1 str2"
   d="m 145.367,52.8151 c -0.6246,1.7686 -1.1355,3.6773 -1.3336,4.9933"
   inkscape:connector-curvature="0"
   style="fill:none;stroke:#000000;stroke-width:0.27000001;stroke-linecap:round;stroke-linejoin:round" />
    <path
   id="_57647160"
   class="fil1 str2"
   d="m 142.088,55.0574 c -0.6088,1.577 -1.3598,4.4486 -1.6004,6.2807"
   inkscape:connector-curvature="0"
   style="fill:none;stroke:#000000;stroke-width:0.27000001;stroke-linecap:round;stroke-linejoin:round" />
    <path
   id="_61202400"
   class="fil1 str2"
   d="m 138.793,58.196 c -0.8961,2.0169 -1.7003,4.9316 -1.9405,6.496"
   inkscape:connector-curvature="0"
   style="fill:none;stroke:#000000;stroke-width:0.27000001;stroke-linecap:round;stroke-linejoin:round" />
    <line
   id="_108003056"
   class="fil1 str2"
   x1="150.94701"
   y1="52.254101"
   x2="150.98199"
   y2="50.181301"
   style="fill:none;stroke:#000000;stroke-width:0.27000001;stroke-linecap:round;stroke-linejoin:round" />
    <path
   id="_109350400"
   class="fil1 str2"
   d="m 160.236,61.2899 c 0.2745,1.6367 0.4089,2.4981 0.3102,4.8457"
   inkscape:connector-curvature="0"
   style="fill:none;stroke:#000000;stroke-width:0.27000001;stroke-linecap:round;stroke-linejoin:round" />
    <path
   id="_109347792"
   class="fil1 str2"
   d="m 156.826,55.6296 c 0.3532,1.8278 0.5013,3.0374 0.4962,5.483"
   inkscape:connector-curvature="0"
   style="fill:none;stroke:#000000;stroke-width:0.27000001;stroke-linecap:round;stroke-linejoin:round" />
    <path
   id="_137236192"
   class="fil1 str2"
   d="m 153.65,51.9621 c 0.3935,1.1276 0.6335,2.5775 0.6362,4.4475"
   inkscape:connector-curvature="0"
   style="fill:none;stroke:#000000;stroke-width:0.27000001;stroke-linecap:round;stroke-linejoin:round" />
    <path
   id="_137234560"
   class="fil1 str2"
   d="m 170.618,55.049 c 1.195,1.5373 1.7758,3.2643 2.0067,4.1521"
   inkscape:connector-curvature="0"
   style="fill:none;stroke:#000000;stroke-width:0.27000001;stroke-linecap:round;stroke-linejoin:round" />
    <path
   id="_137232928"
   class="fil1 str2"
   d="m 165.768,51.6804 c 1.1715,1.3802 2.3138,3.8331 2.689,5.0386"
   inkscape:connector-curvature="0"
   style="fill:none;stroke:#000000;stroke-width:0.27000001;stroke-linecap:round;stroke-linejoin:round" />
    <path
   id="_276224976"
   class="fil1 str2"
   d="m 161.695,50.3172 c 1.0078,1.3133 1.6963,2.7045 2.3433,4.2339"
   inkscape:connector-curvature="0"
   style="fill:none;stroke:#000000;stroke-width:0.27000001;stroke-linecap:round;stroke-linejoin:round" />
    <path
   id="_276223488"
   class="fil1 str2"
   d="m 127.599,51.8237 c 1.1065,-1.18 2.8274,-2.8354 5.9497,-4.1123"
   inkscape:connector-curvature="0"
   style="fill:none;stroke:#000000;stroke-width:0.27000001;stroke-linecap:round;stroke-linejoin:round" />
    <path
   id="_61025264"
   class="fil1 str2"
   d="m 132.896,50.8765 c 1.3346,-1.6887 2.0169,-2.7511 5.5171,-4.2747"
   inkscape:connector-curvature="0"
   style="fill:none;stroke:#000000;stroke-width:0.27000001;stroke-linecap:round;stroke-linejoin:round" />
    <path
   id="_61023680"
   class="fil1 str2"
   d="m 137.758,50.2977 c 1.1013,-1.4081 2.8701,-3.004 5.551,-3.9575"
   inkscape:connector-curvature="0"
   style="fill:none;stroke:#000000;stroke-width:0.27000001;stroke-linecap:round;stroke-linejoin:round" />
    <path
   id="_61022688"
   class="fil1 str2"
   d="m 142.181,50.3857 c 1.7488,-1.5959 3.361,-2.4443 5.5075,-3.3549"
   inkscape:connector-curvature="0"
   style="fill:none;stroke:#000000;stroke-width:0.27000001;stroke-linecap:round;stroke-linejoin:round" />
    <path
   id="_60098480"
   class="fil1 str2"
   d="m 134.888,33.0775 c 2.3091,0.2535 5.4957,1.056 7.4435,2.3405"
   inkscape:connector-curvature="0"
   style="fill:none;stroke:#000000;stroke-width:0.27000001;stroke-linecap:round;stroke-linejoin:round" />
    <path
   id="_59194896"
   class="fil1 str2"
   d="m 138.208,36.5622 c 2.1007,0.0371 4.9699,0.6643 6.4442,1.4664"
   inkscape:connector-curvature="0"
   style="fill:none;stroke:#000000;stroke-width:0.27000001;stroke-linecap:round;stroke-linejoin:round" />
    <path
   id="_60493792"
   class="fil1 str2"
   d="m 141.003,39.5324 c 2.0773,0.0392 4.6798,0.8954 6.8102,2.1159"
   inkscape:connector-curvature="0"
   style="fill:none;stroke:#000000;stroke-width:0.27000001;stroke-linecap:round;stroke-linejoin:round" />
    <path
   id="_59289568"
   class="fil1 str2"
   d="m 143.463,42.364 c 2.7835,0.2454 4.6914,1.2563 5.9323,2.015"
   inkscape:connector-curvature="0"
   style="fill:none;stroke:#000000;stroke-width:0.27000001;stroke-linecap:round;stroke-linejoin:round" />
    <path
   id="_59437040"
   class="fil1 str2"
   d="m 152.289,44.8741 c 6.5684,-5.5837 19.1653,-8.6301 29.3925,-3.9493 -3.2607,-0.264 -5.1252,-0.1338 -8.4512,0.4747 1.3638,0.3894 2.6545,1.3245 3.0337,1.6648 -2.7769,-0.373 -3.9638,-0.6141 -6.9572,-0.4088 1.4027,0.3813 2.5088,1.0898 3.487,1.6388 -2.0952,-0.3367 -5.0741,-0.7293 -7.5672,-0.3178 0.5198,0.1049 2.4721,0.8748 3.2596,1.3563 -1.1627,0.0117 -5.6949,-0.0473 -7.5991,0.2156 1.306,0.3473 2.1771,0.6178 2.9627,0.8803 -3.2594,0.0855 -5.6199,0.1341 -7.2607,0.4948"
   inkscape:connector-curvature="0"
   style="fill:none;stroke:#000000;stroke-width:0.27000001;stroke-linecap:round;stroke-linejoin:round" />
    <path
   id="_57583984"
   class="fil1 str2"
   d="m 173.231,41.3995 c -2.0254,-0.8195 -5.5608,-1.1901 -7.3778,-1.0743"
   inkscape:connector-curvature="0"
   style="fill:none;stroke:#000000;stroke-width:0.27000001;stroke-linecap:round;stroke-linejoin:round" />
    <path
   id="_59158512"
   class="fil1 str2"
   d="m 169.307,42.6555 c -3.58,-1.1863 -6.9823,-1.1225 -8.6907,-0.8639"
   inkscape:connector-curvature="0"
   style="fill:none;stroke:#000000;stroke-width:0.27000001;stroke-linecap:round;stroke-linejoin:round" />
    <path
   id="_56459728"
   class="fil1 str2"
   d="m 165.227,43.9765 c -3.1489,-0.8873 -6.8417,-0.9095 -8.5501,-0.6509"
   inkscape:connector-curvature="0"
   style="fill:none;stroke:#000000;stroke-width:0.27000001;stroke-linecap:round;stroke-linejoin:round" />
    <path
   id="_55106048"
   class="fil1 str2"
   d="m 160.888,45.5483 c -3.0306,-0.7298 -5.2028,-0.6286 -6.9111,-0.3699"
   inkscape:connector-curvature="0"
   style="fill:none;stroke:#000000;stroke-width:0.27000001;stroke-linecap:round;stroke-linejoin:round" />
    <path
   id="_55036328"
   class="fil1 str2"
   d="m 156.852,48.8592 c 1.2396,1.0509 2.1242,2.2843 2.7711,3.8137"
   inkscape:connector-curvature="0"
   style="fill:none;stroke:#000000;stroke-width:0.27000001;stroke-linecap:round;stroke-linejoin:round" />
    <path
   id="_57285408"
   class="fil1 str2"
   d="m 149.415,41.8546 c 0.5367,-6.9747 6.8421,-15.2098 18.265,-16.4891 -2.8811,1.4555 -5.0727,3.0221 -6.7122,4.517 1.1466,-0.2259 1.9356,-0.2693 3.2194,-0.2487 -1.9701,0.9366 -4.1987,2.4725 -5.4751,3.9734 0.952,-0.1725 1.9318,-0.154 2.8917,-0.0652 -1.6167,0.8233 -3.5203,2.0616 -4.7822,3.2342 0.8416,-0.1667 1.6337,-0.147 2.5708,-0.0972 -1.284,0.5102 -3.1788,1.9849 -4.1872,3.0901 0.9499,-0.1721 1.6475,-0.1903 2.3818,-0.1314 -1.4507,1.2373 -2.937,2.8796 -3.6268,3.9596"
   inkscape:connector-curvature="0"
   style="fill:none;stroke:#000000;stroke-width:0.27000001;stroke-linecap:round;stroke-linejoin:round" />
    <path
   id="_60502904"
   class="fil1 str2"
   d="m 160.967,29.8822 c -1.6678,0.4595 -3.7841,1.3396 -5.3197,2.4452"
   inkscape:connector-curvature="0"
   style="fill:none;stroke:#000000;stroke-width:0.27000001;stroke-linecap:round;stroke-linejoin:round" />
    <path
   id="_110052216"
   class="fil1 str2"
   d="m 158.712,33.6068 c -1.5673,0.2737 -3.5186,0.9919 -4.8137,1.7701"
   inkscape:connector-curvature="0"
   style="fill:none;stroke:#000000;stroke-width:0.27000001;stroke-linecap:round;stroke-linejoin:round" />
    <path
   id="_60876664"
   class="fil1 str2"
   d="m 156.821,36.7764 c -1.6379,0.2884 -3.4997,1.2062 -5.0569,2.3855"
   inkscape:connector-curvature="0"
   style="fill:none;stroke:#000000;stroke-width:0.27000001;stroke-linecap:round;stroke-linejoin:round" />
    <path
   id="_56253864"
   class="fil1 str2"
   d="m 155.205,39.7693 c -2.4879,0.6254 -4.0054,1.8405 -4.9697,2.7252"
   inkscape:connector-curvature="0"
   style="fill:none;stroke:#000000;stroke-width:0.27000001;stroke-linecap:round;stroke-linejoin:round" />
    <path
   id="_141276520"
   class="fil1 str2"
   d="m 148.679,50.7319 c -0.4875,1.2544 -0.8346,2.9194 -0.9955,3.9885"
   inkscape:connector-curvature="0"
   style="fill:none;stroke:#000000;stroke-width:0.27000001;stroke-linecap:round;stroke-linejoin:round" />
    <path
   id="_56765888"
   class="fil1 str2"
   d="m 151.706,47.8077 c 6.3601,5.5562 14.2699,12.7107 10.6267,25.9665 -0.2643,-2.1136 -0.6948,-5.1764 -1.7849,-7.6386 -0.2613,1.3966 -0.6198,2.3313 -1.0531,3.0795 -0.0892,-1.9111 -1.059,-6.3143 -2.1732,-8.1026 -0.1291,1.7125 -0.3147,2.3936 -0.6742,3.4881 -0.0864,-2.0614 -1.2914,-5.8011 -2.3599,-8.1917 -0.0635,0.6286 -0.279,1.8206 -0.7789,2.9888 -0.2605,-2.9704 -1.2412,-5.8129 -2.5613,-7.1431"
   inkscape:connector-curvature="0"
   style="fill:none;stroke:#000000;stroke-width:0.27000001;stroke-linecap:round;stroke-linejoin:round" />
   </g>
  </g>
 </g></g><g
     transform="matrix(0.70710678,0.70710678,-0.70710678,0.70710678,0,0)"
     style="font-size:6.61836004px;font-style:normal;font-variant:normal;font-weight:normal;font-stretch:normal;line-height:125%;letter-spacing:0px;word-spacing:0px;fill:#000000;fill-opacity:1;stroke:none;font-family:Arial;-inkscape-font-specification:Arial"
     id="text3320"><path
       d="m 94.092852,6.8628849 0.626935,0.1583495 c -0.131424,0.5149059 -0.36787,0.9075475 -0.709341,1.1779259 -0.341478,0.270379 -0.758895,0.4055683 -1.252253,0.4055684 -0.510598,-1e-7 -0.925861,-0.1039504 -1.24579,-0.3118514 C 91.192471,8.0849767 90.949023,7.7838977 90.782057,7.3896392 90.615089,6.9953829 90.531606,6.572041 90.531606,6.1196121 c 0,-0.493358 0.09426,-0.9237017 0.282767,-1.2910327 0.18851,-0.3673235 0.456735,-0.6463198 0.804673,-0.8369898 0.347937,-0.190661 0.730883,-0.2859937 1.148842,-0.2859985 0.473968,4.8e-6 0.872534,0.1206519 1.1957,0.3619416 0.323158,0.2412986 0.548294,0.5806184 0.675408,1.0179606 l -0.617239,0.145423 c -0.109879,-0.3447027 -0.269306,-0.5956916 -0.47828,-0.7529678 -0.208981,-0.157268 -0.47182,-0.235904 -0.788516,-0.2359083 -0.364098,4.3e-6 -0.668409,0.087258 -0.912933,0.2617613 -0.244527,0.1745114 -0.416341,0.4088037 -0.515443,0.7028776 -0.0991,0.2940805 -0.148656,0.597314 -0.148655,0.9097013 -10e-7,0.4028775 0.05871,0.7545852 0.176124,1.0551243 0.117414,0.3005419 0.3,0.5251393 0.547759,0.673793 0.247756,0.1486551 0.51598,0.2229824 0.804674,0.2229819 0.351167,5e-7 0.648475,-0.1012569 0.891927,-0.3037724 0.243446,-0.2025139 0.408258,-0.5030544 0.494438,-0.9016223 z"
       style=""
       id="path3412" /><path
       d="m 95.469523,8.5239382 0,-4.7375566 0.626934,0 0,4.1784861 2.333231,0 0,0.5590705 z"
       style=""
       id="path3414" /><path
       d="m 99.286068,8.5239382 0,-4.7375566 0.626934,0 0,4.7375566 z"
       style=""
       id="path3416" /><path
       d="m 101.01498,8.5239382 0,-4.7375566 1.78709,0 c 0.31454,4.8e-6 0.55476,0.015086 0.72065,0.045243 0.23268,0.038784 0.42765,0.1125727 0.58493,0.2213661 0.15726,0.1088022 0.28384,0.2612269 0.37971,0.4572744 0.0959,0.1960555 0.1438,0.4114966 0.14381,0.6463242 -1e-5,0.4028784 -0.12819,0.7438141 -0.38456,1.0228081 -0.25638,0.2789986 -0.71958,0.4184968 -1.3896,0.4184949 l -1.21509,0 0,1.9260462 z m 0.62694,-2.4851167 1.22478,0 c 0.40503,2.5e-6 0.69264,-0.075402 0.86285,-0.2262134 0.17019,-0.1508062 0.25529,-0.3630157 0.25529,-0.6366294 0,-0.1982025 -0.0501,-0.3678625 -0.15027,-0.5089803 -0.10018,-0.1411101 -0.23214,-0.2342885 -0.39587,-0.2795352 -0.10557,-0.028003 -0.30054,-0.042007 -0.58492,-0.042011 l -1.21186,0 z"
       style=""
       id="path3418" /><path
       d="m 105.43584,8.5239382 0,-4.7375566 1.78709,0 c 0.31454,4.8e-6 0.55476,0.015086 0.72065,0.045243 0.23267,0.038784 0.42765,0.1125727 0.58492,0.2213661 0.15727,0.1088022 0.28384,0.2612269 0.37972,0.4572744 0.0959,0.1960555 0.1438,0.4114966 0.14381,0.6463242 -1e-5,0.4028784 -0.12819,0.7438141 -0.38457,1.0228081 -0.25637,0.2789986 -0.71957,0.4184968 -1.38959,0.4184949 l -1.21509,0 0,1.9260462 z m 0.62694,-2.4851167 1.22478,0 c 0.40503,2.5e-6 0.69264,-0.075402 0.86285,-0.2262134 0.17019,-0.1508062 0.25529,-0.3630157 0.25529,-0.6366294 0,-0.1982025 -0.0501,-0.3678625 -0.15027,-0.5089803 -0.10018,-0.1411101 -0.23214,-0.2342885 -0.39587,-0.2795352 -0.10557,-0.028003 -0.30054,-0.042007 -0.58492,-0.042011 l -1.21186,0 z"
       style=""
       id="path3420" /><path
       d="m 109.86963,8.5239382 0,-4.7375566 3.42551,0 0,0.5590705 -2.79858,0 0,1.4509979 2.62085,0 0,0.5558388 -2.62085,0 0,1.6125789 2.90846,0 0,0.5590705 z"
       style=""
       id="path3422" /><path
       d="m 114.28725,8.5239382 0,-4.7375566 2.10056,0 c 0.42226,4.8e-6 0.74327,0.042554 0.96302,0.1276491 0.21975,0.085104 0.39533,0.2353741 0.52675,0.4508111 0.13142,0.2154454 0.19713,0.4535079 0.19713,0.7141883 0,0.3360917 -0.1088,0.6193968 -0.32639,0.8499163 -0.2176,0.2305247 -0.55369,0.3770247 -1.00827,0.4395005 0.16589,0.079715 0.29192,0.1583514 0.3781,0.2359083 0.18312,0.1680461 0.35655,0.3781012 0.52029,0.6301662 l 0.82407,1.2894168 -0.78852,0 -0.62693,-0.9856445 c -0.18313,-0.2843813 -0.33394,-0.501977 -0.45243,-0.6527874 -0.11849,-0.1508072 -0.2246,-0.2563734 -0.31831,-0.3166989 -0.0937,-0.060322 -0.18906,-0.1023326 -0.286,-0.1260332 -0.0711,-0.015079 -0.18744,-0.022619 -0.34902,-0.022621 l -0.72711,0 0,2.1037854 z m 0.62694,-2.6466977 1.34758,0 c 0.28654,2.6e-6 0.5106,-0.029621 0.67218,-0.08887 0.16158,-0.059244 0.28438,-0.1540377 0.36841,-0.2843827 0.084,-0.1303389 0.12603,-0.2719914 0.12603,-0.4249581 0,-0.2240554 -0.0813,-0.4082576 -0.24399,-0.5526072 -0.16266,-0.1443416 -0.41957,-0.2165144 -0.77074,-0.2165187 l -1.49947,0 z"
       style=""
       id="path3424" /><path
       d="m 120.26575,8.5239382 0,-4.1784861 -1.56087,0 0,-0.5590705 3.75514,0 0,0.5590705 -1.56733,0 0,4.1784861 z"
       style=""
       id="path3426" /><path
       d="m 122.91568,6.2165607 c 0,-0.786358 0.21114,-1.4019812 0.6334,-1.8468715 0.42226,-0.4448819 0.96733,-0.6673249 1.6352,-0.6673297 0.43734,4.8e-6 0.8316,0.1044938 1.18277,0.3134672 0.35117,0.2089825 0.61886,0.5003667 0.80306,0.8741535 0.1842,0.3737941 0.2763,0.7976747 0.27631,1.2716429 -1e-5,0.4804363 -0.097,0.9102414 -0.29085,1.2894169 -0.1939,0.3791775 -0.46859,0.6662529 -0.82406,0.861227 -0.35548,0.1949745 -0.73897,0.2924616 -1.15046,0.2924617 -0.44597,-1e-7 -0.84453,-0.1077207 -1.1957,-0.3231621 -0.35117,-0.215441 -0.61724,-0.5095182 -0.79821,-0.8822326 -0.18097,-0.3727121 -0.27146,-0.7669695 -0.27146,-1.1827733 z m 0.64633,0.00969 c 0,0.5709214 0.1535,1.0206549 0.4605,1.3492018 0.30701,0.3285487 0.69211,0.4928227 1.15531,0.4928222 0.47181,5e-7 0.86014,-0.1658893 1.165,-0.4976696 0.30484,-0.3317785 0.45727,-0.8025175 0.45727,-1.4122185 0,-0.3856373 -0.0652,-0.7222642 -0.19551,-1.0098816 -0.13035,-0.2876106 -0.32101,-0.5105922 -0.572,-0.6689455 -0.25099,-0.1583453 -0.53268,-0.2375199 -0.84507,-0.2375242 -0.44381,4.3e-6 -0.82568,0.1524289 -1.14561,0.4572744 -0.31993,0.3048531 -0.47989,0.8138329 -0.47989,1.526941 z"
       style=""
       id="path3428" /><path
       d="m 128.24463,8.5239382 0,-4.7375566 0.64309,0 2.48835,3.7195959 0,-3.7195959 0.60108,0 0,4.7375566 -0.64309,0 -2.48835,-3.7228275 0,3.7228275 z"
       style=""
       id="path3430" /><path
       d="m 134.97609,8.5239382 0,-4.7375566 0.62694,0 0,4.7375566 z"
       style=""
       id="path3432" /><path
       d="m 136.49172,7.0018446 0.59139,-0.051706 c 0.028,0.2369869 0.0932,0.4314226 0.19551,0.5833076 0.10233,0.151887 0.26122,0.2746885 0.47667,0.3684048 0.21543,0.093718 0.45781,0.140576 0.72711,0.1405755 0.23914,5e-7 0.45027,-0.035547 0.6334,-0.1066435 0.18312,-0.071095 0.31939,-0.1685821 0.4088,-0.2924617 0.0894,-0.1238778 0.13411,-0.2590671 0.13411,-0.4055684 0,-0.1486532 -0.0431,-0.2784565 -0.12926,-0.3894104 -0.0862,-0.1109505 -0.22838,-0.2041288 -0.42658,-0.2795352 -0.12711,-0.049549 -0.40826,-0.1265697 -0.84345,-0.2310609 -0.4352,-0.1044868 -0.74004,-0.2030511 -0.91455,-0.2956933 -0.22622,-0.1184902 -0.3948,-0.2655288 -0.50575,-0.4411163 -0.11095,-0.1755817 -0.16643,-0.3721718 -0.16643,-0.5897709 0,-0.2391362 0.0679,-0.4626564 0.20359,-0.6705614 0.13573,-0.2078965 0.33394,-0.3657072 0.59462,-0.4734324 0.26069,-0.107716 0.55045,-0.1615763 0.86931,-0.1615811 0.35117,4.8e-6 0.66086,0.056558 0.92909,0.1696601 0.26822,0.1131113 0.47451,0.2795396 0.61886,0.4992855 0.14434,0.2197541 0.2219,0.4685887 0.23267,0.7465044 l -0.60108,0.045243 c -0.0323,-0.2994599 -0.14166,-0.5256731 -0.32801,-0.6786404 -0.18636,-0.1529592 -0.46158,-0.2294408 -0.82568,-0.2294451 -0.37918,4.3e-6 -0.65548,0.069484 -0.82891,0.2084396 -0.17343,0.1389636 -0.26015,0.3064691 -0.26014,0.5025171 -1e-5,0.170202 0.0614,0.3102388 0.1842,0.4201107 0.12064,0.1098781 0.43573,0.2224462 0.94525,0.3377044 0.50951,0.1152638 0.85907,0.2159826 1.04866,0.3021566 0.27576,0.1271128 0.47935,0.2881551 0.61077,0.4831273 0.13142,0.1949763 0.19713,0.4195738 0.19713,0.673793 0,0.2520676 -0.0722,0.4895915 -0.21652,0.7125725 -0.14434,0.2229823 -0.35171,0.3964124 -0.62208,0.520291 -0.27038,0.1238788 -0.5747,0.1858181 -0.91294,0.1858182 -0.42873,-1e-7 -0.78797,-0.062478 -1.07774,-0.187434 -0.28977,-0.1249558 -0.51706,-0.3129282 -0.68187,-0.5639179 -0.16482,-0.2509883 -0.25153,-0.5348321 -0.26015,-0.8515322 z"
       style=""
       id="path3434" /><path
       d="m 141.10002,8.5239382 0,-4.7375566 0.62693,0 0,4.1784861 2.33323,0 0,0.5590705 z"
       style=""
       id="path3436" /><path
       d="m 144.28963,8.5239382 1.8194,-4.7375566 0.67541,0 1.93897,4.7375566 -0.71419,0 -0.55261,-1.4348398 -1.98098,0 -0.52029,1.4348398 z m 1.36697,-1.9454359 1.60612,0 -0.49444,-1.3120382 c -0.15081,-0.398563 -0.26284,-0.7260336 -0.33609,-0.9824128 -0.0603,0.3037763 -0.14542,0.605394 -0.2553,0.9048539 z"
       style=""
       id="path3438" /><path
       d="m 149.22431,8.5239382 0,-4.7375566 0.64309,0 2.48835,3.7195959 0,-3.7195959 0.60108,0 0,4.7375566 -0.64309,0 -2.48835,-3.7228275 0,3.7228275 z"
       style=""
       id="path3440" /><path
       d="m 154.01357,8.5239382 0,-4.7375566 1.63197,0 c 0.3684,4.8e-6 0.64955,0.022626 0.84345,0.067864 0.27146,0.062483 0.50306,0.1755892 0.6948,0.3393202 0.24991,0.2111367 0.43681,0.4809768 0.56069,0.8095211 0.12387,0.3285513 0.18581,0.7039576 0.18582,1.1262199 -10e-6,0.3597892 -0.042,0.6786422 -0.12604,0.9565599 -0.084,0.2779206 -0.19174,0.507904 -0.32316,0.6899511 -0.13142,0.1820485 -0.27523,0.3253169 -0.43142,0.4298056 -0.1562,0.1044893 -0.34471,0.1836639 -0.56553,0.2375242 -0.22083,0.05386 -0.47452,0.08079 -0.76105,0.08079 z m 0.62694,-0.5590705 1.01149,0 c 0.31239,6e-7 0.55746,-0.029084 0.7352,-0.087254 0.17773,-0.058169 0.31939,-0.1400362 0.42496,-0.2456032 0.14865,-0.1486536 0.26445,-0.3484753 0.34739,-0.5994658 0.083,-0.2509875 0.12442,-0.5552981 0.12442,-0.9129329 0,-0.4955124 -0.0813,-0.8763047 -0.24399,-1.1423781 -0.16266,-0.2660663 -0.36032,-0.4443439 -0.593,-0.5348333 -0.16804,-0.064628 -0.43842,-0.096944 -0.81113,-0.096949 l -0.99534,0 z"
       style=""
       id="path3442" /></g><g
     transform="matrix(0.70710678,-0.70710678,0.70710678,0.70710678,0,0)"
     style="font-size:6.61836004px;font-style:normal;font-variant:normal;font-weight:normal;font-stretch:normal;line-height:125%;letter-spacing:0px;word-spacing:0px;fill:#000000;fill-opacity:1;stroke:none;font-family:Arial;-inkscape-font-specification:Arial"
     id="text3324"><path
       d="m 6.2759744,168.22981 0,-4.73755 0.6269345,0 0,4.73755 z"
       style=""
       id="path3445" /><path
       d="m 7.7916047,166.70772 0.5913867,-0.0517 c 0.028007,0.23699 0.093177,0.43143 0.1955131,0.58331 0.1023335,0.15189 0.2612213,0.27469 0.4766641,0.36841 0.2154396,0.0937 0.457811,0.14057 0.7271147,0.14057 0.2391377,0 0.4502697,-0.0356 0.6333977,-0.10664 0.183122,-0.0711 0.319389,-0.16858 0.4088,-0.29246 0.0894,-0.12388 0.134109,-0.25907 0.134112,-0.40557 -3e-6,-0.14866 -0.04309,-0.27846 -0.129264,-0.38941 -0.08618,-0.11095 -0.228371,-0.20413 -0.426574,-0.27954 -0.127114,-0.0495 -0.4082644,-0.12657 -0.8434535,-0.23106 -0.4351933,-0.10449 -0.7400426,-0.20305 -0.9145488,-0.29569 -0.2262144,-0.11849 -0.3947971,-0.26553 -0.5057487,-0.44112 -0.1109528,-0.17558 -0.166429,-0.37217 -0.1664285,-0.58977 -5e-7,-0.23914 0.067863,-0.46266 0.2035922,-0.67056 0.1357272,-0.2079 0.3339331,-0.36571 0.5946182,-0.47343 0.2606826,-0.10772 0.550451,-0.16158 0.8693061,-0.16158 0.351167,0 0.660864,0.0565 0.929091,0.16966 0.268221,0.11311 0.474506,0.27954 0.618856,0.49928 0.144341,0.21976 0.2219,0.46859 0.232676,0.74651 l -0.601081,0.0452 c -0.03232,-0.29946 -0.141656,-0.52567 -0.32801,-0.67864 -0.186359,-0.15296 -0.461586,-0.22944 -0.825679,-0.22945 -0.3791787,1e-5 -0.655482,0.0695 -0.8289108,0.20844 -0.1734315,0.13897 -0.2601466,0.30647 -0.2601455,0.50252 -1.1e-6,0.1702 0.0614,0.31024 0.1842024,0.42011 0.1206458,0.10988 0.4357285,0.22245 0.9452491,0.3377 0.5095158,0.11527 0.8590698,0.21599 1.0486608,0.30216 0.275762,0.12711 0.479354,0.28816 0.610777,0.48313 0.131415,0.19497 0.197125,0.41957 0.197129,0.67379 -4e-6,0.25207 -0.07218,0.48959 -0.216519,0.71257 -0.144349,0.22299 -0.351712,0.39642 -0.622087,0.52029 -0.270382,0.12388 -0.574693,0.18582 -0.9129331,0.18582 -0.4287303,0 -0.7879784,-0.0625 -1.0777456,-0.18743 -0.2897696,-0.12496 -0.5170601,-0.31293 -0.6818721,-0.56392 -0.164813,-0.25099 -0.2515281,-0.53483 -0.2601455,-0.85153 z"
       style=""
       id="path3447" /><path
       d="m 12.399897,168.22981 0,-4.73755 0.626934,0 0,4.17848 2.333231,0 0,0.55907 z"
       style=""
       id="path3449" /><path
       d="m 15.589507,168.22981 1.819403,-4.73755 0.675408,0 1.938973,4.73755 -0.714188,0 -0.552607,-1.43484 -1.980984,0 -0.520291,1.43484 z m 1.366976,-1.94543 1.606115,0 -0.494438,-1.31204 c -0.150811,-0.39856 -0.262841,-0.72604 -0.336088,-0.98241 -0.06033,0.30377 -0.145425,0.60539 -0.255298,0.90485 z"
       style=""
       id="path3451" /><path
       d="m 25.746493,166.56876 0.626934,0.15835 c -0.131423,0.5149 -0.36787,0.90755 -0.709341,1.17792 -0.341478,0.27038 -0.758895,0.40557 -1.252253,0.40557 -0.510598,0 -0.925861,-0.10395 -1.24579,-0.31185 -0.319931,-0.2079 -0.56338,-0.50898 -0.730346,-0.90324 -0.166968,-0.39425 -0.250451,-0.81759 -0.250451,-1.27002 0,-0.49336 0.09426,-0.92371 0.282767,-1.29104 0.18851,-0.36732 0.456735,-0.64632 0.804674,-0.83699 0.347936,-0.19066 0.730883,-0.28599 1.148841,-0.28599 0.473968,0 0.872534,0.12065 1.1957,0.36194 0.323158,0.2413 0.548294,0.58062 0.675409,1.01796 l -0.61724,0.14542 c -0.109879,-0.3447 -0.269305,-0.59569 -0.47828,-0.75297 -0.208981,-0.15727 -0.471819,-0.2359 -0.788515,-0.23591 -0.364099,1e-5 -0.668409,0.0873 -0.912933,0.26177 -0.244528,0.17451 -0.416342,0.4088 -0.515444,0.70287 -0.0991,0.29408 -0.148656,0.59732 -0.148655,0.9097 -1e-6,0.40288 0.05871,0.75459 0.176124,1.05513 0.117414,0.30054 0.3,0.52514 0.54776,0.67379 0.247755,0.14866 0.51598,0.22298 0.804673,0.22298 0.351167,0 0.648476,-0.10125 0.891928,-0.30377 0.243445,-0.20251 0.408257,-0.50305 0.494438,-0.90162 z"
       style=""
       id="path3453" /><path
       d="m 27.123163,168.22981 0,-4.73755 0.626934,0 0,4.17848 2.333231,0 0,0.55907 z"
       style=""
       id="path3455" /><path
       d="m 30.939707,168.22981 0,-4.73755 0.626934,0 0,4.73755 z"
       style=""
       id="path3457" /><path
       d="m 32.668625,168.22981 0,-4.73755 1.787087,0 c 0.314542,0 0.554758,0.0151 0.720651,0.0452 0.232674,0.0388 0.427648,0.11257 0.584924,0.22136 0.157268,0.10881 0.28384,0.26123 0.379715,0.45728 0.09587,0.19605 0.143803,0.4115 0.143807,0.64632 -4e-6,0.40288 -0.128191,0.74382 -0.384563,1.02281 -0.256378,0.279 -0.719577,0.4185 -1.389597,0.4185 l -1.215089,0 0,1.92604 z m 0.626935,-2.48511 1.224784,0 c 0.405027,0 0.692641,-0.0754 0.862843,-0.22622 0.170195,-0.1508 0.255295,-0.36301 0.255298,-0.63663 -3e-6,-0.1982 -0.05009,-0.36786 -0.15027,-0.50898 -0.100184,-0.14111 -0.232142,-0.23429 -0.395874,-0.27953 -0.105569,-0.028 -0.300543,-0.042 -0.584923,-0.042 l -1.211858,0 z"
       style=""
       id="path3459" /><path
       d="m 37.089482,168.22981 0,-4.73755 1.787086,0 c 0.314542,0 0.554759,0.0151 0.720652,0.0452 0.232673,0.0388 0.427647,0.11257 0.584923,0.22136 0.157269,0.10881 0.28384,0.26123 0.379716,0.45728 0.09587,0.19605 0.143803,0.4115 0.143807,0.64632 -4e-6,0.40288 -0.128192,0.74382 -0.384563,1.02281 -0.256379,0.279 -0.719578,0.4185 -1.389597,0.4185 l -1.21509,0 0,1.92604 z m 0.626934,-2.48511 1.224785,0 c 0.405027,0 0.692641,-0.0754 0.862842,-0.22622 0.170196,-0.1508 0.255295,-0.36301 0.255298,-0.63663 -3e-6,-0.1982 -0.05009,-0.36786 -0.15027,-0.50898 -0.100183,-0.14111 -0.232141,-0.23429 -0.395873,-0.27953 -0.10557,-0.028 -0.300544,-0.042 -0.584924,-0.042 l -1.211858,0 z"
       style=""
       id="path3461" /><path
       d="m 41.523268,168.22981 0,-4.73755 3.425519,0 0,0.55907 -2.798584,0 0,1.45099 2.620845,0 0,0.55584 -2.620845,0 0,1.61258 2.908459,0 0,0.55907 z"
       style=""
       id="path3463" /><path
       d="m 45.940893,168.22981 0,-4.73755 2.100554,0 c 0.422262,0 0.74327,0.0426 0.963023,0.12765 0.219747,0.0851 0.395331,0.23537 0.526754,0.45081 0.131415,0.21544 0.197125,0.4535 0.197129,0.71418 -4e-6,0.3361 -0.108802,0.6194 -0.326393,0.84992 -0.2176,0.23053 -0.553688,0.37703 -1.008266,0.4395 0.165886,0.0797 0.29192,0.15835 0.378099,0.23591 0.183122,0.16805 0.356552,0.3781 0.520291,0.63017 l 0.824064,1.28941 -0.788516,0 -0.626934,-0.98564 c -0.183129,-0.28438 -0.333937,-0.50198 -0.452427,-0.65279 -0.118496,-0.15081 -0.2246,-0.25637 -0.318315,-0.3167 -0.09372,-0.0603 -0.189052,-0.10233 -0.285998,-0.12603 -0.0711,-0.0151 -0.187436,-0.0226 -0.349015,-0.0226 l -0.727115,0 0,2.10378 z m 0.626935,-2.6467 1.347586,0 c 0.286534,1e-5 0.510593,-0.0296 0.672177,-0.0889 0.161578,-0.0592 0.284379,-0.15404 0.368405,-0.28439 0.08402,-0.13034 0.126029,-0.27199 0.126033,-0.42496 -4e-6,-0.22405 -0.08133,-0.40825 -0.243987,-0.5526 -0.162662,-0.14434 -0.419575,-0.21652 -0.770742,-0.21652 l -1.499472,0 z"
       style=""
       id="path3465" /><path
       d="m 51.919392,168.22981 0,-4.17848 -1.560873,0 0,-0.55907 3.755144,0 0,0.55907 -1.567337,0 0,4.17848 z"
       style=""
       id="path3467" /><path
       d="m 54.569322,165.92244 c -10e-7,-0.78636 0.211132,-1.40199 0.633397,-1.84688 0.422264,-0.44488 0.96733,-0.66732 1.635201,-0.66733 0.437343,1e-5 0.8316,0.1045 1.182773,0.31347 0.351165,0.20898 0.618851,0.50037 0.803058,0.87415 0.184197,0.3738 0.276299,0.79768 0.276303,1.27165 -4e-6,0.48043 -0.09695,0.91024 -0.290846,1.28941 -0.193901,0.37918 -0.468589,0.66626 -0.824063,0.86123 -0.355482,0.19498 -0.738967,0.29246 -1.150457,0.29246 -0.445966,0 -0.844532,-0.10772 -1.1957,-0.32316 -0.35117,-0.21544 -0.61724,-0.50952 -0.79821,-0.88223 -0.180971,-0.37271 -0.271457,-0.76697 -0.271456,-1.18277 z m 0.646324,0.01 c -10e-7,0.57092 0.153501,1.02065 0.460506,1.3492 0.307002,0.32855 0.692103,0.49282 1.155304,0.49282 0.471814,0 0.860147,-0.16589 1.165,-0.49767 0.304845,-0.33177 0.45727,-0.80251 0.457274,-1.41221 -4e-6,-0.38564 -0.06518,-0.72227 -0.195513,-1.00989 -0.130346,-0.28761 -0.321011,-0.51059 -0.571997,-0.66894 -0.250992,-0.15835 -0.532682,-0.23752 -0.845069,-0.23753 -0.443811,1e-5 -0.825681,0.15243 -1.145609,0.45728 -0.319932,0.30485 -0.479897,0.81383 -0.479896,1.52694 z"
       style=""
       id="path3469" /><path
       d="m 59.898265,168.22981 0,-4.73755 0.643093,0 2.488348,3.71959 0,-3.71959 0.601081,0 0,4.73755 -0.643092,0 -2.488348,-3.72282 0,3.72282 z"
       style=""
       id="path3471" /></g></g></svg>