<svg height="660" width="600" xmlns="http://www.w3.org/2000/svg" xmlns:xlink="http://www.w3.org/1999/xlink"><radialGradient id="a" cx="221.44487" cy="226.33101" gradientTransform="matrix(1.353218 0 0 1.348928 -77.62935 -85.74693)" gradientUnits="userSpaceOnUse" r="300"><stop offset="0" stop-color="#fff" stop-opacity=".313726"/><stop offset=".19" stop-color="#fff" stop-opacity=".25098"/><stop offset=".60000002" stop-color="#6b6b6b" stop-opacity=".12549"/><stop offset="1" stop-opacity=".12549"/></radialGradient><g><g fill-rule="evenodd"><path d="m1.5 1.5v259.24645c0 13.5177.6689535 26.64011 1.9375 39.38992h296.5625v-298.63637z" fill="#e20909"/><path d="m300 300.13637v358.36363s271.16412-102.98658 296.56251-358.36363z" fill="#2b5df2"/><path d="m300 300.13637.00001 358.36363s-270.992514-101.91806-296.56251-358.36363z" fill="#2b5df2"/><path d="m598.5 1.5v259.24645c0 13.51771-.66895 26.64011-1.93749 39.38992h-296.56251v-298.63637z" fill="#e20909"/></g><path d="m300 658.5v-657" fill="none" stroke="#000" stroke-width="3"/><path d="m3 300h592.71274" fill="none" stroke="#000" stroke-width="3"/></g><g><path d="m598.5 1.5-298.5.0292969v87.6152341h298.5z" fill="#2b5df2" stroke="#000" stroke-linecap="round" stroke-linejoin="round" stroke-width="2.355521"/><g stroke="#000" stroke-width="1.005495" transform="matrix(.85031201 0 0 .85031201 47.453673 299.57849)"><path d="m105.11477 39.110504c-2.93594 11.482166.30023 20.934426 5.91156 29.840917 4.33909 6.887157 7.19005 14.226707 7.05441 22.112468-1.97379 1.113003-3.85596 2.312693-5.6728 3.603711l-45.348193-30.120757 30.44447 44.847897c-.546981.75523-1.079918 1.5402-1.593018 2.31688-8.635098-3.88994-16.741113-4.66127-24.465393-3.16708-10.919373 2.11224-20.189836-.17465-29.870224-5.94417 6.043101 10.19514 15.05898 14.58822 25.324611 16.91827 7.954033 1.80537 15.143698 4.97338 20.630423 10.66711-.597011 2.14547-1.090059 4.31549-1.464967 6.51835l-53.377941 10.82419 53.257601 10.18475c.146383.91627.322768 1.82985.509863 2.74458-8.859021 3.35182-15.157562 8.52528-19.563891 15.04524-6.227588 9.21473-14.356088 14.1552-25.280811 16.9206 11.482159 2.93596 20.918586-.33846 29.825075-5.94979 6.887172-4.33908 14.226717-7.19005 22.11246-7.05441 1.113003 1.97379 2.312694 3.85596 3.603707 5.6728l-30.104912 45.38643 44.87029-30.49855c.7494.54239 1.50815 1.09983 2.27865 1.60885-3.88993 8.63511-4.64544 16.77934-3.15125 24.50363 2.11223 10.91939-.19045 20.15169-5.96 29.83201 10.19517-6.04302 14.58826-15.05893 16.91827-25.32462 1.80537-7.95405 4.97339-15.14371 10.66711-20.63043 2.1498.59872 4.31091 1.08926 6.51835 1.46496l10.8242 53.37797 10.18474-53.25763c.91628-.14636 1.82986-.32274 2.7446-.50985 3.34991 8.86167 8.52678 15.15858 15.04522 19.56391 9.21474 6.22757 14.15522 14.35611 16.92061 25.28079 2.93597-11.48212-.33845-20.91857-5.94978-29.82505-4.34753-6.90062-7.16663-14.2179-7.01619-22.12833 1.96087-1.10736 3.82877-2.3047 5.63457-3.58787l45.38641 30.10493-30.46031-44.88613c.53521-.74031 1.06799-1.50196 1.57065-2.26282 8.63755 3.90117 16.77538 4.64619 24.50361 3.15125 10.91935-2.11233 20.15165.19053 29.83199 5.96001-6.04308-10.19516-15.04312-14.55001-25.30878-16.88005-7.94509-1.80332-15.12658-5.03234-20.60801-10.72118.59555-2.14179 1.05248-4.30355 1.42672-6.50251l53.39379-10.78596-53.27345-10.22298c-.14637-.91627-.32276-1.82985-.50986-2.7446 8.86715-3.34872 15.15694-8.52439 19.5639-15.04521 6.22757-9.21473 14.37194-14.11699 25.29663-16.88237-11.48216-2.93596-20.93442.30021-29.84089 5.91153-6.90055 4.34753-14.21785 7.16665-22.12829 7.0162-1.10739-1.96087-2.30473-3.82877-3.58789-5.63456l30.12076-45.348204-44.90196 30.42209c-.74032-.535206-1.50195-1.067975-2.26281-1.570636 3.89593-8.632606 4.66126-16.741127 3.16706-24.465398-2.11227-10.919385.17468-20.189858 5.94419-29.870224-10.19515 6.043091-14.55002 15.043131-16.88005 25.308772-1.80739 7.962959-5.03067 15.17599-10.74356 20.662092-2.13524-.593003-4.28813-1.107727-6.48012-1.480793l-10.78599-53.39378-10.22298 53.273439c-.91626.146371-1.82984.322755-2.74458.509866-3.35122-8.861369-8.52429-15.156868-15.04523-19.563899-9.21473-6.22759-14.11698-14.371915-16.88237-25.296651z" fill="#fcef3c" stroke-width="2.940097"/><g fill-rule="evenodd" stroke-width="1.332843"><path d="m138.69393 179.52737c7.0963 5.47891 12.63465 5.89152 19.68858-.56946-7.29554-6.25856-12.08223-6.26158-19.68858.56946z"/><path d="m121.78445 149.15979c1.52194-4.59401-3.86549-6.05852-5.61196-2.52538l-3.08658-1.40299c6.32036-7.14004 13.13629-7.52368 20.20305-4.20897 2.36227.54599 2.26169 3.75257-3.36717 4.48957-3.66171-1.18409.4798 6.88464-8.13734 3.64777z"/><path d="m118.41727 133.4463c5.38217-.13549 10.0734-2.91804 17.11647 2.24479 1.25203-2.97013-8.60103-8.25551-17.11647-2.24479z"/><path d="m159.71283 136.41163c5.06257-1.83207 8.63188-5.95642 16.94697-3.28828.24756-3.21372-10.77184-5.10869-16.94697 3.28828z"/><path d="m167.80251 145.51202c-1.59006-1.78288-3.18011-.90522-4.77017-.5612-2.00257-5.27073 3.09096-4.45909 5.89256-5.61196 7.38908-.90277 8.8856 2.52232 13.7493 4.77017l-6.17316.84179c-1.01975 7.23617-8.3831 4.363-8.69853.5612z"/><path d="m153.49202 164.59267c3.4691-.43979 5.23929 3.80586 1.40298 5.05076-5.61774-.14119-4.62556-3.04123-1.40298-5.05076z"/><path d="m144.03778 164.88918c3.4691-.43979 5.23929 3.80586 1.40298 5.05076-5.61774-.14119-4.62556-3.04123-1.40298-5.05076z"/></g></g><g stroke="#000" stroke-width="1.203003" transform="matrix(.47147558 0 0 .47139133 672.39498 132.84063)"><g fill="#fff"><g stroke-width="1.203003"><g transform="matrix(.78398077111 0 0 .78398077111 -40.7871455397 21.54086014463)"><path d="m-876.75805 629.7701v147.08449l-2.38492 4.0596-3.76375 25.37436h-2.32902v22.63471h96.42197v-3.24256-19.39215h-2.84143l-4.44378-25.37436-1.78869-3.46252v-147.68157z" stroke-width="3.609008"/><path d="m-879.66019 631.37744h85.27088c-.13156 4.92145.94809 6.93233-3.7403 8.59066h-78.95911c-4.18233-1.59984-2.01535-4.674-2.57147-8.59066z" stroke-width="3.609008"/><path d="m-885.99796 612.73912.23533 18.85822h97.48043l.23066-18.85822h-11.83264v9.43121h-9.69578v-9.43121h-11.83266v9.43121h-9.69579v-9.43121h-11.83265v9.43121h-9.69582v-9.43121h-11.83263v9.43121h-9.69585v-9.43121z" stroke-width="3.609008"/><path d="m-880.18823 788.38299h84.94407m-85.98953 6.83996h87.55773m-91.73961 10.94392h96.57489m-96.44421 15.29887 96.44421-.0579m-82.29224-26.18489-1.47088 10.94392m17.62133-10.94392-1.56821 10.94392m-4.18494 0v15.24097m0-33.02485-1.17614 6.83996m44.40511 10.94392v15.24097m-.30574-33.02485 1.08984 6.83996m2.59448 0 1.55719 10.94392m8.83546 0v15.24097m2.71044-33.02485 1.30682 6.83996m-77.26243-18.64136h78.60003m-78.93265-136.89532h79.4554m-78.80197 6.08068h78.80197m-79.2228 12.35028h79.22279m-79.12277 12.3916h79.12277m-79.12277 9.67057h78.8614m-78.8614 8.47206h78.8614m-78.8614 10.16828h78.8614m-78.8614 6.47967h78.8614m-78.63591 8.4721h78.63591m-78.8614 8.43509h78.8614m-79.31231 8.30862h79.31231m-78.8614 10.64801h78.8614m-79.08687 5.99098h79.08687m-79.08687 8.3303h79.34825m-79.34825 8.36742h79.21755m-73.36987-124.35446v6.20046m.22546 12.4193v12.3916m0 9.67057v8.47206m0 10.16828v6.47967m0 8.4721v8.43509m0 8.30862v10.64801m0 5.99098v8.3303m0 8.36742v12.72966m.39205 4.75176-1.30683 7.04964m25.4663-148.88552v6.20046m-3.50037 12.4193v12.3916m3.72587 9.67057v8.47206m0 10.16828v6.47967m.57426 8.4721v8.43509m-.57426 8.30862v10.64801m0 5.99098v8.3303m0 8.36742v12.72966m0 4.75176v7.04964m-14.3677-142.61143-.012 12.34567m0 12.3916v9.67057m0 8.47206v10.16828m0 6.47967v8.4721m0 8.43509v8.30862m0 10.64801v5.99098m0 8.3303v8.36742m1.08499 12.72966-1.08499 4.75176m35.77726-135.56179v12.34567m0 12.3916v9.67057m.242 8.47206v10.16828m0 6.47967v8.4721m0 8.43509v8.30862m-10.13558 10.64801v5.99098m4.30481 8.3303v8.36742m0 12.72966v4.75176m16.64453-141.83588v6.20046m-.22547 12.4193v12.3916m0 9.67057v8.47206m0 10.16828v6.47967m0 8.4721v8.43509m0 8.30862v10.64801m0 5.99098v8.3303m0 8.36742v12.72966m1.8401 4.75176 1.17613 7.04964m10.08686-142.61143v12.34567m0 12.3916v9.67057m0 8.47206v10.16828m-4.30484 6.47967v8.4721m4.30484 8.43509v8.30862m0 10.64801v5.99098m0 8.3303v8.36742m-1.302 12.72966 1.302 4.75176m-77.95374 0h82.26368m-40.46516 40.10943-.21701-15.27591m-3.47198 0 .651-10.94392m8.02896 0-.43401-6.83996" fill-rule="evenodd" stroke-width="1.346147"/><g stroke-width="1.203003"><path d="m-842.59756 656.77547v21.13639h11.36852v-21.13639z"/><path d="m-842.59756 656.77547v21.13639h11.36852v-21.13639zm2.85163 2.88898h5.66524v15.35844h-5.66524z"/><path d="m-842.59756 703.48246v21.13636h11.36852v-21.13636z"/><path d="m-842.59756 703.48246v21.13636h11.36852v-21.13636zm2.85163 2.88898h5.66524v15.35842h-5.66524z"/></g></g><g transform="matrix(.78398077111 0 0 .78398077111 271.94529376178 21.54086014463)"><path d="m-876.75805 629.7701v147.08449l-2.38492 4.0596-3.76375 25.37436h-2.32902v22.63471h96.42197v-3.24256-19.39215h-2.84143l-4.44378-25.37436-1.78869-3.46252v-147.68157z" stroke-width="3.609008"/><path d="m-879.66019 631.37744h85.27088c-.13156 4.92145.94809 6.93233-3.7403 8.59066h-78.95911c-4.18233-1.59984-2.01535-4.674-2.57147-8.59066z" stroke-width="3.609008"/><path d="m-885.99796 612.73912.23533 18.85822h97.48043l.23066-18.85822h-11.83264v9.43121h-9.69578v-9.43121h-11.83266v9.43121h-9.69579v-9.43121h-11.83265v9.43121h-9.69582v-9.43121h-11.83263v9.43121h-9.69585v-9.43121z" stroke-width="3.609008"/><path d="m-880.18823 788.38299h84.94407m-85.98953 6.83996h87.55773m-91.73961 10.94392h96.57489m-96.44421 15.29887 96.44421-.0579m-82.29224-26.18489-1.47088 10.94392m17.62133-10.94392-1.56821 10.94392m-4.18494 0v15.24097m0-33.02485-1.17614 6.83996m44.40511 10.94392v15.24097m-.30574-33.02485 1.08984 6.83996m2.59448 0 1.55719 10.94392m8.83546 0v15.24097m2.71044-33.02485 1.30682 6.83996m-77.26243-18.64136h78.60003m-78.93265-136.89532h79.4554m-78.80197 6.08068h78.80197m-79.2228 12.35028h79.22279m-79.12277 12.3916h79.12277m-79.12277 9.67057h78.8614m-78.8614 8.47206h78.8614m-78.8614 10.16828h78.8614m-78.8614 6.47967h78.8614m-78.63591 8.4721h78.63591m-78.8614 8.43509h78.8614m-79.31231 8.30862h79.31231m-78.8614 10.64801h78.8614m-79.08687 5.99098h79.08687m-79.08687 8.3303h79.34825m-79.34825 8.36742h79.21755m-73.36987-124.35446v6.20046m.22546 12.4193v12.3916m0 9.67057v8.47206m0 10.16828v6.47967m0 8.4721v8.43509m0 8.30862v10.64801m0 5.99098v8.3303m0 8.36742v12.72966m.39205 4.75176-1.30683 7.04964m25.4663-148.88552v6.20046m-3.50037 12.4193v12.3916m3.72587 9.67057v8.47206m0 10.16828v6.47967m.57426 8.4721v8.43509m-.57426 8.30862v10.64801m0 5.99098v8.3303m0 8.36742v12.72966m0 4.75176v7.04964m-14.3677-142.61143-.012 12.34567m0 12.3916v9.67057m0 8.47206v10.16828m0 6.47967v8.4721m0 8.43509v8.30862m0 10.64801v5.99098m0 8.3303v8.36742m1.08499 12.72966-1.08499 4.75176m35.77726-135.56179v12.34567m0 12.3916v9.67057m.242 8.47206v10.16828m0 6.47967v8.4721m0 8.43509v8.30862m-10.13558 10.64801v5.99098m4.30481 8.3303v8.36742m0 12.72966v4.75176m16.64453-141.83588v6.20046m-.22547 12.4193v12.3916m0 9.67057v8.47206m0 10.16828v6.47967m0 8.4721v8.43509m0 8.30862v10.64801m0 5.99098v8.3303m0 8.36742v12.72966m1.8401 4.75176 1.17613 7.04964m10.08686-142.61143v12.34567m0 12.3916v9.67057m0 8.47206v10.16828m-4.30484 6.47967v8.4721m4.30484 8.43509v8.30862m0 10.64801v5.99098m0 8.3303v8.36742m-1.302 12.72966 1.302 4.75176m-77.95374 0h82.26368m-40.46516 40.10943-.21701-15.27591m-3.47198 0 .651-10.94392m8.02896 0-.43401-6.83996" fill-rule="evenodd" stroke-width="1.346147"/><g stroke-width="1.203003"><path d="m-842.59756 656.77547v21.13639h11.36852v-21.13639z"/><path d="m-842.59756 656.77547v21.13639h11.36852v-21.13639zm2.85163 2.88898h5.66524v15.35844h-5.66524z"/><path d="m-842.59756 703.48246v21.13636h11.36852v-21.13636z"/><path d="m-842.59756 703.48246v21.13636h11.36852v-21.13636zm2.85163 2.88898h5.66524v15.35842h-5.66524z"/></g></g></g><g stroke-width="1.203003" transform="matrix(1.2002749 0 0 1.2002749 -899.66894 317.15122)"><path d="m273.40355 85.617774v130.454596l-1.59641 2.71739-2.51936 16.98494h-1.55898v15.1511h64.5424v-2.17049-12.98061h-1.90198l-2.97456-16.98494-1.1973-2.31772v-130.854266z" stroke-width="2.415777"/><path d="m271.46093 80.693682h57.07814c-.0881 3.294293.63463 4.640324-2.50366 5.750368h-52.85321c-2.79954-1.070892-1.34902-3.128656-1.72127-5.750368z" stroke-width="2.415777"/><path d="m267.21859 68.217668.15752 12.623209h65.25091l.15439-12.623209h-7.92046v6.31301h-6.49011v-6.31301h-7.92048v6.31301h-6.49011v-6.31301h-7.92048v6.31301h-6.49013v-6.31301h-7.92046v6.31301h-6.49015v-6.31301z" stroke-width="2.415777"/><path d="m271.10747 223.78918h56.85939m-57.55919 4.5785h58.6089m-61.40815 7.32557h64.64476m-64.55728 10.24068 64.55728-.0388m-55.08432-17.52749-.98457 7.32557m11.79527-7.32557-1.04972 7.32557m-2.80129 0v10.20192m0-22.10599-.78728 4.5785m29.72365 7.32557v10.20192m-.20466-22.10599.72951 4.5785m1.73668 0 1.04234 7.32557m5.91424 0v10.20192m1.81429-22.10599.87476 4.5785m-51.7175-12.47805h52.61285m-52.83549-91.63419h53.18541m-52.74802 4.07025h52.74802m-53.02972 8.26697h53.02971m-52.96276 8.29462h52.96276m-52.96276 6.47323h52.78781m-52.78781 5.67098h52.78781m-52.78781 6.80638h52.78781m-52.78781 4.33733h52.78781m-52.63687 5.67101h52.63687m-52.78781 5.64623h52.78781m-53.08963 5.56158h53.08963m-52.78781 7.1275h52.78781m-52.93873 4.01021h52.93873m-52.93873 5.57609h53.11369m-53.11369 5.60094h53.0262m-49.11191-83.23969v4.15042m.15091 8.31317v8.29462m0 6.47323v5.67098m0 6.80638v4.33733m0 5.67101v5.64623m0 5.56158v7.1275m0 4.01021v5.57609m0 5.60094v8.52091m.26243 3.1807-.87476 4.71885m17.04649-99.66015v4.15042m-2.34305 8.31317v8.29462m2.494 6.47323v5.67098m0 6.80638v4.33733m.38439 5.67101v5.64623m-.38439 5.56158v7.1275m0 4.01021v5.57609m0 5.60094v8.52091m0 3.1807v4.71885m-9.61737-95.46044-.008 8.26388m0 8.29462v6.47323m0 5.67098v6.80638m0 4.33733v5.67101m0 5.64623v5.56158m0 7.1275v4.01021m0 5.57609v5.60094m.72627 8.52091-.72627 3.1807m23.94838-90.74159v8.26388m0 8.29462v6.47323m.16199 5.67098v6.80638m0 4.33733v5.67101m0 5.64623v5.56158m-6.7845 7.1275v4.01021m2.88153 5.57609v5.60094m0 8.52091v3.1807m11.14143-94.9413v4.15042m-.15093 8.31317v8.29462m0 6.47323v5.67098m0 6.80638v4.33733m0 5.67101v5.64623m0 5.56158v7.1275m0 4.01021v5.57609m0 5.60094v8.52091m1.23172 3.1807.78727 4.71885m6.75188-95.46044v8.26388m0 8.29462v6.47323m0 5.67098v6.80638m-2.88155 4.33733v5.67101m2.88155 5.64623v5.56158m0 7.1275v4.01021m0 5.57609v5.60094m-.87152 8.52091.87152 3.1807m-52.18023 0h55.0652m-27.08634 26.84823-.14527-10.22531m-2.32405 0 .43576-7.32557m5.37438 0-.29051-4.5785m-29.88263-137.232187h53.18541m-52.74802 4.070252h52.74802m-53.02972 8.266961h53.02971m-52.96275 8.294624h52.96275m-52.96275 6.47323h52.7878m-52.7878 5.67098h52.7878m-49.02444-32.902425v4.15043m.15092 8.313161v8.294624m0 6.47323v5.67098m16.43416-32.902425v4.15043m-2.34306 8.313161v8.294624m2.494 6.47323v5.67098m-9.61737-28.702709-.008 8.263875m0 8.294624v6.47323m0 5.67098v4.84219m23.94838-33.544899v8.263875m0 8.294624v6.47323m.16199 5.67098v4.84219m7.23846-37.744615v4.15043m-.15093 8.313161v8.294624m0 6.47323v5.67098m8.77088-28.702709v8.263875m0 8.294624v6.47323m0 5.67098v4.84219" fill-rule="evenodd" stroke-width=".87926"/><g stroke-width=".805259"><path d="m296.2697 97.69448v14.14815h7.6098v-14.14815z"/><path d="m296.2697 97.69448v14.14815h7.6098v-14.14815zm1.90881 1.93381h3.79217v10.28054h-3.79217z"/><path d="m296.2697 128.95894v14.14814h7.6098v-14.14814z"/><path d="m296.2697 128.95894v14.14814h7.6098v-14.14814zm1.90881 1.93381h3.79217v10.28053h-3.79217z"/></g></g><path d="m418.47852 409.82422-117.47657 37.84375-.008 71.07812h6.12695v-37.75586c0-8.79299 7.1488-15.93944 15.94336-15.93945 8.79457.00001 15.73438 7.14646 15.73438 15.93945v37.75586h15.6914v-51.51367c0-8.79299 7.14684-15.93946 15.94141-15.93945 8.79457 0 15.73633 7.14645 15.73633 15.93945v51.51367h15.67578v-65.25781c0-8.79299 7.14684-15.93946 15.94141-15.93945 8.79456 0 15.73633 7.14645 15.73632 15.93945v65.25781h15.69141v-51.51367c0-8.79299 7.14684-15.93945 15.94141-15.93945 8.79456 0 15.73632 7.14646 15.73632 15.93945v51.51367h15.67579v-37.75586c0-8.79299 7.14683-15.93944 15.9414-15.93945 8.7471.00001 15.65415 7.07114 15.72852 15.79883 6.70946-9.49428 13.1197-19.40455 19.14648-29.74219z" fill-rule="evenodd" stroke-width="1.134271" transform="matrix(2.1210006 0 0 2.1213797 -1426.1502 -281.80542)"/></g><path d="m-711.85684 744.68246h42.34229m-43.46469-12.37261h43.47592m-49.78937-12.37258h49.78937m351.98413 0h23.02216m-16.87136 12.37258h10.46948m-110.07267-12.37258h50.39684m-50.1984-12.3726h124.51894m-224.91578-24.7452h57.53969m-162.10319 12.37261h46.42858m-42.85715 24.74519h43.40411m-43.40411-12.3726h42.85715m57.93651 0h42.46031m-43.15673 12.3726h43.15674m-42.31477 12.37258h42.31476m-42.31475 24.74519h42.09884m-42.09884-12.37258h42.66017m-42.37952 24.74517h42.09886m-41.81821 12.3726h42.09885m-42.94082 12.37256h42.66017m-42.66018 12.37261h42.94083m-143.40095-74.23555h42.3637m-42.09886 12.37261h41.53755m-41.53755 61.86294h42.37952m-41.8182-12.37261h41.8182m-42.09886-12.37256h42.37952m-42.37952-12.3726h42.09886m-42.09886-12.37259h41.8182m-142.29414 49.49036h42.09886m-42.37953-12.37261h42.37953m-42.09886-12.37256h42.09886m-42.09886-12.3726h42.09886m259.02206-37.11778h42.85713m-42.83086 12.37261h42.43404m-42.71471 12.37258h42.7147m-42.15338 12.37259h42.09886m-42.37953 12.3726h42.37951m-42.66017 12.37256h42.66017m-42.37951 12.37261h42.37951m-343.91035-49.49036h42.76319m38.90012-74.23557h61.30953m-219.7036 24.7452h119.30677m-119.30677 12.3726h26.36343m-26.36343 12.37258h19.90968m-19.90968 12.37261h19.06789m-19.06789 12.37258h19.06789m-19.06789 12.37259h18.45668m-18.45668 12.3726h19.01799m-19.01799 12.37256h18.73734m-18.73734 12.37261h19.01799m282.19197-111.66927v-12.25022m-105.06428 12.25022v-12.25022m105.06428 37.04277v-12.25023m105.06427 12.25023v-12.25023m52.53212 3.6502v-3.65019m-262.66067 12.25022v-12.25023m-105.06427 12.25023v-12.25023m210.12855 37.04272v-12.25023m105.06427 12.25023v-12.25023m-210.12855 12.25023v-12.25023m-105.06427 12.25023v-12.25023m210.12855 37.04281v-12.25022m105.06427 12.25022v-12.25022m-210.12855 12.25022v-12.25022m-105.06427 12.25022v-12.25022m210.12855 37.04276v-12.25022m105.06427 12.25022v-12.25022m-210.12855 12.25022v-12.25022m-105.06427 12.25022v-12.25022m-82.92776 24.64647v-12.25022m0-12.54229v-12.25023m0-12.54232v-12.25023m371.9339-12.5423v-12.25022m108.06259 12.25023v-12.25023m-370.72328 12.25022v-12.25022m-109.27321 12.25022v-12.25022m371.9339-12.54233v-12.25022m52.53211 12.25023v-11.81815m-315.1928 11.81814v-12.25022m-52.53214 12.25022v-12.00374m201.38392-37.16708h201.51321m-190.84816 12.3726h229.80339m-228.96141 24.74519h42.66017m43.9515-12.37261h154.19186m-140.32758 12.37261h81.73124m-1.18208 0h52.52896m-364.34121-61.86299h209.65233m-266.62612 12.37261h321.6353m-377.76711 12.37259h197.02267m-230.9156 12.3726h220.25056m-220.25056 12.37258h124.82647m-124.82647 12.37261h119.49395m130.22544-49.80632v-12.25023m51.49057 12.25022v-12.25022m52.53211 12.25023v-12.25023m-157.59639 12.25022v-12.25022m105.06428 37.04277v-12.25023m52.53211 12.25023v-12.25022m52.53216 12.25022v-12.25023m52.53212 12.25023v-12.25022m-262.66067 12.25022v-12.25023m-52.43415 12.25023v-12.25023m-52.63012 12.25023v-12.25023m-52.53212 12.25023v-12.25023m367.72494 37.04272v-12.25023m52.53212 12.25023v-12.25022m52.53217 12.25022v-12.25022m-420.25711 12.25022v-12.25023m-52.53212 12.25023v-12.25023m289.00609-.82956v-11.56665m52.53217 12.25022v-12.25022m52.53211 12.25023v-12.25023m55.53048 12.25023v-12.25023m-318.19115 9.97936v-9.97936m-52.53213 12.25022v-12.25022m-52.53214 12.25022v-12.25022m-56.74107 12.25022v-12.25022m213.78654-12.54232v-12.25023m52.75241 12.25022v-12.25022m52.86278 12.25023v-12.25023m52.53217 12.25022v-12.25022m52.53211 12.25023v-7.61974m-262.66067 7.61973v-12.25022m-52.53213 12.25022v-12.25022m-52.53214 12.25022v-6.46045m-57.03898 56.24756v-12.5m480.2944 12.40079v-12.5m-311.5021-74.80159h142.85714m-97.56499 12.58229v-12.9075m52.75241 12.9075v-12.9075m-24.97321 0v-12.34631m-106.00786 37.86994v-8.13492" fill="none" stroke-width="1.590893"/><path d="m418.47852 409.82422-117.84766 37.96289.16016 8.94336 117.6875-37.91992 124.39453 39.83984c1.52576-2.48854 3.02905-5.00313 4.50976-7.54297z" fill="#fff" fill-rule="evenodd" stroke-linecap="round" stroke-linejoin="round" stroke-width="1.5" transform="matrix(2.1210006 0 0 2.1213797 -1426.1502 -281.80542)"/><path d="m417.78516 437.54883c-8.79457-.00001-15.94141 7.14646-15.94141 15.93945v65.37695h2.22461v-64.99414c0-7.55717 6.1446-13.70118 13.70312-13.70117 7.55853.00001 13.5254 6.144 13.5254 13.70117v64.99414h2.2246v-65.37695c.00001-8.793-6.94176-15.93945-15.73632-15.93945zm-47.35352 13.74414c-8.79457-.00001-15.94141 7.14646-15.94141 15.93945v51.63281h2.22461v-51.25c0-7.55717 6.1446-13.70116 13.70313-13.70117 7.55852.00001 13.50976 6.144 13.50976 13.70117v51.25h2.24024v-51.63281c0-8.793-6.94176-15.93945-15.73633-15.93945zm94.72266 0c-8.79457 0-15.94141 7.14646-15.94141 15.93945v51.63281h2.22461v-51.25c0-7.55717 6.14459-13.70117 13.70312-13.70117 7.55853.00001 13.52539 6.144 13.5254 13.70117v51.25h2.2246v-51.63281c0-8.79299-6.94176-15.93945-15.73632-15.93945zm-142.08985 13.75781c-8.79456.00001-15.94336 7.14646-15.94336 15.93945v37.875h2.22657v-37.49218c0-7.55717 6.14265-13.69922 13.70117-13.69922s13.52539 6.14204 13.52539 13.69922v37.49218h2.22461v-37.875c0-8.79299-6.93981-15.93944-15.73438-15.93945zm189.44336 0c-8.79457.00001-15.9414 7.14646-15.9414 15.93945v37.875h1.46289c.25433-.28647.50781-.57584.76172-.86328v-36.6289c0-7.55717 6.1446-13.69922 13.70312-13.69922s13.52538 6.14204 13.52539 13.69922v2.59375c.74392-1.03259 1.47998-2.07455 2.2168-3.11719-.0744-8.72769-6.98142-15.79882-15.72852-15.79883z" fill="#fff" stroke-width="1.5" transform="matrix(2.1210006 0 0 2.1213797 -1426.1502 -281.80542)"/></g><path d="m414.61133 503.63867c-35.7545-.00003-39.07687 11.58594-72.68555 11.58594-19.01345.00001-27.63948-4.85513-41.92578-8.2793v151.45117s114.89622-43.23439 202.12305-144.21093c-4.22615.64161-9.0274 1.03906-14.82422 1.03906-33.6087.00001-33.7143-11.58594-72.6875-11.58594z" fill="#fff" stroke="#000" stroke-linecap="round" stroke-linejoin="round" stroke-width="2"/><path d="m300.48102 633.37319c13.21809 2.76342 21.661 6.52544 38.65154 6.86249m-38.22789 10.4948c3.8351.81406 7.27423 1.70943 10.65035 2.57555m-10.97978-56.67857c13.84904 2.89533 22.45614 6.88686 41.14447 6.88686 33.61608 0 36.94281-9.82722 72.70517-9.82722m-113.42599 20.29765c13.60265 2.88738 22.22379 6.79761 40.72082 6.79761 20.92235 0 30.11149-3.80678 42.69018-6.68172m-83.74043-54.21891c13.84904 2.89533 22.45614 6.88686 41.14447 6.88686 33.61608 0 36.94281-9.82722 72.70517-9.82722 20.18927 0 29.95099 2.63602 39.34092 5.17759m-152.76691 15.12006c13.60265 2.88738 22.22379 6.79761 40.72082 6.79761 33.61608 0 36.94281-9.82722 72.70517-9.82722 9.51062 0 16.70726.58496 22.64112 1.46944m-136.39654-52.54285c13.84904 2.89533 22.45614 6.88686 41.14447 6.88686 33.61608 0 36.94281-9.82722 72.70517-9.82722 38.98179 0 39.08909 9.82722 72.7052 9.82722m-186.13119 10.47043c13.60265 2.88738 22.22379 6.79761 40.72082 6.79761 33.61608 0 36.94281-9.82722 72.70517-9.82722 31.62949 0 37.66573 6.46981 56.77474 8.91033" fill="#fff" fill-rule="evenodd" stroke="#000" stroke-width="1.25"/><g stroke="#000" stroke-linecap="round" stroke-linejoin="round" stroke-width="2.359285" transform="matrix(.53584008 0 0 .52435471 151.33734 156.81769)"><g fill="#fff"><path d="m-195.77721 94.046785s-3.1825-9.487115-7.13345-13.205395c0 0 6.19765-2.663475 10.0737-2.402155 0 0 11.2097 5.87579-2.94025 15.60755z" stroke-width="2.359285"/><path d="m-117.86894 169.59863s5.45032 6.15392 1.7986 12.79798c0 0-3.76072-5.71825-5.50483-8.3323" stroke="#000" stroke-width="2.359285"/><g stroke="#000" stroke-width="1.913805" transform="matrix(1.2332668 0 0 1.2322777 -669.97044 -88.559873)"><path d="m349.88508 181.30268s-12.28335-4.2835-11.98534-42.28033c.29802-37.99683 14.4537-33.2286 14.4537-33.2286s16.53979 9.23844 26.07625 26.22526 18.6259 39.78492 38.89088 52.74855c20.26498 12.96362 30.80724 45.96871 60.01264 47.98031l4.73098-17.28484s16.46529.89405 16.16728 19.96697c-.29802 19.07292 3.27816 33.2286-6.2583 36.20874-9.53646 2.98015-38.74187 10.13249-79.56984-34.86768s-60.94394-78.22877-60.94394-78.22877-6.27778 14.67629-1.57431 22.76039z"/><path d="m351.45939 158.54229 7.15235-19.81795s-16.5398-19.37016-10.87752-32.48279"/><path d="m477.33321 232.74787-7.44556 28.15862s27.65466-12.51286 27.20764 6.11303"/></g></g><g stroke="none" stroke-width="1.230698" transform="matrix(1.2498039 1.4534608 -1.4546275 1.2488016 57.744869 -2002.9964)"><path d="m755.61387 829.66755q.63354.22174 1.04536.76026.44348.53853.82361 1.10872.41182.53852.8553.98201.47517.4118 1.17208.4118.38013 0 1.10871-.15838.76027-.19006 1.4255-.50685.69691-.34844 1.14039-.82361.47517-.47516.34846-1.1404-.15839-.76026-.82362-1.86898-.63355-1.10872-1.4255-2.24912-.79193-1.1404-1.58387-2.18576-.76027-1.04536-1.23543-1.71059l-1.58389-2.5659q-.12671-.19006-.41181-.57019-.25342-.38014-.57019-.79194-.2851-.41181-.5702-.76027-.25343-.34846-.34846-.44349-.095-.12671-.38013-.38013-.25343-.2851-.5702-.60187-.2851-.31678-.5702-.5702-.25342-.2851-.38013-.38013-.31677-.2851-.63356-.31678-.2851-.0316-.66523-.0316-.47516 0-1.29878.31679-.79195.2851-1.77395.76026-.95033.47517-1.93233 1.10871-.98202.60188-1.80563 1.23543-.79195.60188-1.29879 1.17208-.50684.5702-.50684.95033.69691 0 1.33046-.25342.66523-.2851 1.26711-.60187.63355-.31679 1.23543-.5702.60187-.2851 1.17207-.2851.15839 0 .34845.19006.19007.19007.34846.44348.15838.22176.25342.4435.12671.22174.15839.25342.0634.12671.19006.38013.12671.22174.12671.25342 0 .41181-.25341 1.04536-.25343.63356-.69692 1.36215-.41181.6969-.95033 1.45717-.50684.72859-1.04536 1.39382-.50684.66523-1.01368 1.14039-.47517.47517-.79195.66524-.0316 0-.19007 0-.1267 0-.2851 0-.15838 0-.31677 0-.12671 0-.15839 0-1.90066.91864-2.81931 1.67891-.91865.72859-1.93234 1.86898 0 .0316-.0316.15839 0 .095 0 .15839 0 .34845.1267.66523.12672.31678.50685.31678.0634 0 .19007 0 .12671-.0316.15838-.0316.0634-.0316.34846-.15838.2851-.15839.60187-.31679.31678-.15838.60188-.2851.2851-.15838.34845-.19006 2.53422-.91865 5.22682-1.45717 2.69261-.53853 5.38521-.53853.15839 0 .57019 0 .4435 0 .91866.0317.50684 0 .91865.0316.44349 0 .60188 0zm-4.11811-6.84238q.0316 0 .12672-.0316.12671-.0316.19007-.0316.28509 0 .57019.31678.2851.31677.50684.79194.25343.44349.38014.95033.15839.47516.15839.79194 0 .0634-.0316.25342 0 .15839 0 .22174-.98201.47517-2.12241.95033-1.10872.47517-2.15408.47517h-.47517q.63356-1.36214 1.33047-2.50254.72859-1.14039 1.52052-2.18576z"/><path d="m768.79787 832.5348q0-.58306.37104-.82158.39754-.23852.84808-.37104.45054-.1325.82158-.29152.39754-.15902.39754-.60956 0 0-.26503-.13252-.26502-.10601-.66256-.29152-.37104-.21202-.84809-.45055-.47704-.23852-.90108-.45054-.39754-.21202-.71557-.37103-.29153-.18553-.34453-.23853-.37104-.37104-.55655-.95409-.18553-.58306-.23853-1.21912-.053-.63606-.053-1.24562.0265-.60956.0265-1.08661 0-1.66966.39754-2.88877.39754-1.21913 1.16611-2.12021.37104-.45055.76858-.87459.42404-.45054.87459-.87458.45053-.42404 1.0866-.82158.66257-.42404 1.51064-.84808 1.51065-.42404 2.70326-.50355 1.21913-.0795 2.49125-.0795.18552 0 .60955.053.42405.053.9276.15901.53005.0795 1.0601.21203.55655.13251 1.0071.34453.47704.18552.76858.42405.29152.23852.29152.53004v.13252q-.0265.053-.13251.26502-.0795.21202-.13252.26503-.53005.21202-1.19261.53005-.63606.29153-1.27212.68907-.60957.37103-1.16612.79507-.53005.42404-.87458.90109l.26503.26503 4.50543.53004.26503.26504q-.15902.98059-.18552 2.04069 0 1.0336 0 2.14671 0 1.0601-.0795 2.0937-.0795 1.0336-.39754 1.96119-.29152.92759-.90109 1.72267-.58305.82158-1.61665 1.40464-.84808.47704-1.61666.87458-.74207.39754-1.51065.66256-.74207.29153-1.56364.45055-.79508.15902-1.77568.15902-.53005 0-1.24562-.10602-.71557-.10601-1.37814-.37103-.63606-.26503-1.08659-.71557-.45055-.45055-.45055-1.13962zm3.20681-.98059q0 .53005.42405.87458.42404.37104.98059.58305.58305.23853 1.19261.31803.60957.10602.9806.10602.90109 0 1.43114-.29153.53005-.26502.76857-.76858.26503-.47704.31803-1.1661.0795-.68907.0795-1.51065-.74207 0-1.48415.21201-.71556.18553-1.45763.42405-.71557.23852-1.45764.45054-.74208.21202-1.51065.23852-.053.053-.15901.23852-.10602.21203-.10602.29154zm-1.0866-6.67865q0 1.0071.58305 1.72267.58306.71557 1.43114 1.19261.87459.47705 1.82868.71557.98059.21202 1.74917.21202.90108 0 1.35163-.47705.45055-.47704.63606-1.19261.18552-.71557.15902-1.51065 0-.82158 0-1.51065 0-.0795 0-.21201.0265-.13252 0-.26503-.0265-.15902-.0795-.26503-.053-.106-.21202-.13251-1.0866-.15902-1.85518-.21202-.74207-.0795-1.74917-.0795-.18551 0-.53005.0265-.34453 0-.37103 0-.21203.053-.71557.21202-.47705.15902-.9806.39754-.50355.23852-.87459.58305-.37103.34453-.37103.79508zm3.20681-8.05678q-1.13961 0-1.82868.45054-.66256.45055-1.0336 1.19261-.37104.74208-.50354 1.66967-.10602.92759-.10602 1.88168v.23852q0 .15902 0 .37104.0265.18552.0265.34453v.23853q.92759-.34453 1.85518-.87459.95409-.55655 1.85518-1.19261.92759-.66256 1.77567-1.35163.87459-.68907 1.66967-1.35164 0-.0265 0-.106.0265-.10602.0265-.15902 0-.42405-.47705-.68907-.45055-.26502-1.08661-.39754-.60955-.15901-1.24561-.21202-.60956-.053-.92759-.053z"/><path d="m787.13644 828.05244v-.38133q0-.29333-.0293-.616 0-.352 0-.64533v-.41067q-.0293-1.96533.704-3.40267.73334-1.43733 1.87734-2.52266 1.144-1.11467 2.552-1.936 1.43733-.85067 2.816-1.64267.58666-.0587.968-.14667.41066-.088.616-.14666.41066-.14667.76266-.176.38134-.0587.792-.0587h1.11467q.352 0 1.20267.088.85066.0587 1.73066.264.88.20533 1.55467.55733.67467.352.67467.90934 0 .616-.73334 1.11466-.73333.49867-1.672.93867-.90933.41067-1.78933.85067-.85067.41066-1.11467.90933.38134.14667 1.20267.264.85067.088 1.672.176.85067.088 1.496.23467.64533.11733.64533.32266 0 .0587-.0293.11734 0 .0587 0 .0587-.0293.0587-.14667.176-.088.088-.14666.11734l-5.86667 3.22666q-.14667.0587-.58667.176-.41066.11734-.58666.11734-.0587 0-.176-.11734-.11734-.11733-.11734-.176 0-.0293.0293-.14666.0587-.14667.11733-.29334.0587-.14666.088-.264.0587-.14666.0587-.176 0-.0293 0-.20533.0293-.176.0293-.264 0-.176-.0293-.41067-.0293-.23466-.29334-.29333h-.29333q-.20533 0-.44 0-.23467-.0293-.44-.0293h-.29333-.90934q-.41066 0-.88.0587-.46933.0293-.88.176-.38133.11734-.64533.352-.23467.20534-.23467.58667 0 1.37867.85067 2.34667.88.93866 2.112 1.55466 1.232.58667 2.58133.88 1.37867.264 2.40534.264h.41066q.29334 0 .616 0 .352-.0293.616-.0293h.41067q.0587-.0293.29333-.11733.23467-.11734.29334-.176.11733-.088.41066-.352.29334-.264.616-.528.32267-.29334.616-.528.29334-.264.41067-.352h1.76v.58666q0 .0293-.176.20534-.14667.176-.38133.41066-.23467.23467-.49867.46934-.23467.23466-.41067.38133-.792.67467-1.936 1.17333-1.11466.49867-2.376.82134-1.26133.32266-2.52266.49866-1.232.14667-2.25867.14667-1.11467 0-2.43467-.32267-1.29066-.32266-2.464-.93866-1.17333-.616-2.08266-1.55467-.90934-.93867-1.232-2.17067zm8.94666-10.00266q-1.20266 0-2.14133.49866-.93867.46934-1.584 1.26134-.616.792-.968 1.81866-.32267 1.02667-.32267 2.112.264 0 .99734-.264.73333-.264 1.672-.67466.93866-.41067 1.936-.90934 1.02666-.528 1.87733-1.02666.85067-.49867 1.37867-.90934.55733-.44.55733-.704 0-.0587-.0293-.14666 0-.11734 0-.14667-.176-.0587-.58667-.176-.41067-.11733-.88-.264-.46933-.14667-.88-.264-.41067-.11733-.58667-.176-.0293 0-.20533 0-.14667-.0293-.23467-.0293z"/><path d="m820.36381 827.82637q-.10127-.0306-.394-.18689-.27319-.19293-.3549-.26008 0 0-.0451-.0477-.0171-.0562-.0256-.0842-.11935-.39294.0981-.88818.237-.53183.62536-1.17095.41641-.64764.8634-1.39653.44698-.7489.76713-1.61255.3397-.90025.41223-1.87263.1006-.98091-.23187-2.07553-.32395-1.06655-.95309-1.82582-.60108-.76778-1.40611-1.19771-.81356-.458-1.78594-.53054-.95284-.10912-1.96326.19778-.92622.28132-1.494 1.03624-.56776.75492-.90746 1.65517.14203 1.27509.48906 2.51858.33854 1.2154.72216 2.47843.36657 1.2069.6855 2.45891.33854 1.21541.5086 2.48198-.13325.46967-.50809.9514-.37485.48173-.85947.90484-.46508.3865-.9838.69734-.49065.30231-.88359.42166l-2.88995-9.51479q-.2046-.67362-.72541-.97528-.52935-.32973-1.16742-.41184-.61-.0906-1.26157-.0153-.63204.0387-1.0701.11043l-.18751-.61749q-.009-.028.19293-.27319.19294-.2732.48961-.60856.29667-.33536.59335-.67072.31621-.37195.52619-.58902.14533-.22808.64949-.68777.5237-.49629 1.10354-1.00963.57132-.54141 1.10354-1.00962.53224-.46822.72267-.6487.0562-.0171.19648-.0597.15989-.0792.21602-.0962.11227-.0341.40146-.0913.31725-.0657.39399.1869.009.028-.005.18547.006.12078-.007.27818-.0136.15739-.027.31477.0146.14885.0316.20498l.0426.14034.0426.14034q.0171.0562.11328.27215.0877.18795.2206.4235.1524.19896.3048.39793.17194.16237.36592.19542.69709-.73289 1.38566-1.49385.70811-.79755 1.45033-1.48283.73368-.71334 1.57465-1.27535.84097-.56199 1.85139-.86888 1.03849-.31543 2.02189-.30755.97488-.0202 1.81899.33655.84412.35675 1.47326 1.11601.65721.75073 1.02379 1.95763.2046.67361.29443 1.47405.11791.79192.11501 1.58986-.003.79795-.10703 1.56534-.11266.73932-.35216 1.36388-.0306.10127-.25405.4757-.19542.36592-.43845.77696-.25156.38297-.47505.75742-.20395.33785-.25156.38297-.16487.26467-.20394.33785-.0195.0365.0828.37339.0171.0562.0512.1684.0536.0757.0621.10376.55885-.0778.99691-.14952.43806-.0717.84805-.13494.42952-.0998.831-.19106.39295-.11935.87009-.26427.42101-.12788.76031-.3229.35885-.23162.68962-.45471.32224-.25116.66155-.44619.35883-.23161.75178-.35096.3069 1.01042-.0804 1.95578-.39584.9173-1.14906 1.66724-.76175.72187-1.70397 1.25331-.91416.52291-1.70004.76161l-.14034.0426q-.95782.0763-1.61793.12353-.6601.0472-1.24702.13351-.55885.0778-1.17633.26532-.61749.18755-1.46199.53602z"/></g><g stroke="#000" stroke-width="1.913805" transform="matrix(1.2332668 0 0 1.2322777 -322.1892 42.061563)"><g transform="matrix(-1 0 0 1 -98.379809 0)"><path d="m-194.95851-102.64869s6.2786-33.85555-.17611-49.63485c0 0 10.11494-16.33142 4.74138-29.18582-5.37357-12.85441-3.37165-28.55364-3.58238-31.39847s2.84483-7.79694 8.21839-7.37548c5.37357.42146 9.27203-8.74521 9.27203-8.74521 1.58046 10.5364-2.95019 11.80077-2.95019 11.80077 11.06322 11.80076 22.2318 65.5364 22.2318 94.1954 0 28.659006 7.58621 119.1666704 7.58621 119.1666704-14.85632 2.95019005-13.82611-46.8940054-13.82611-46.8940054-11.17554 4.917237-9.46196-21.978559-9.46196-21.978559-7.74837 15.496747-8.56791-15.943769-8.56791-15.943769-6.92884 9.163942-5.81128-8.865926-5.81128-8.865926-6.33281 2.980143-7.67387-5.140751-7.67387-5.140751" fill="#fff"/><g fill="none"><path d="m-163.44349-50.71969-3.65068-100.43083"/><path d="m-172.90545-72.69824-1.19206-64.1476"/><path d="m-181.47336-88.64201-.37252-57.88929"/><path d="m-187.28464-97.50794s-2.16061-21.75505-.52153-27.86434"/><path d="m-178.86574-195.10764s1.49008 39.63591-9.98348 53.04655"/><path d="m-173.79949-187.21026s6.85433 18.7749-1.19206 34.56966"/><path d="m-184.52801-213.73354s-7.89738 5.96029-3.27816 16.24178"/></g></g><path d="m123.51726-235.76012s-12.06417 4.34823-12.43295 10.61738c0 0 4.31993-4.79406 13.43391-6.37452z" fill="#fff"/><path d="m119.82382-23.9729s-10.57951 11.99508-13.33614 24.66069045c-2.75663 12.66560955-7.748369 9.83447955-7.748369 9.83447955-12.403063-7.5070811-10.947989-18.9615891-24.36268-10.28149955 0 0-3.12915 6.18379995-.29801 6.77982995 2.83113.59603 8.94043-.52153 14.75171 4.0231896 0 0-4.0977-4.1721996-12.4421-3.9486896s4.54472 8.8659296 4.54472 8.8659296 7.82288 9.61096 10.356-.96855c0 0-.75061 17.0056 5.04441 16.37341 5.795009-.63218 13.275859-1.26436 6.848649-7.16475 0 0 7.37548-8.74521 7.48085-15.0670496.10536-6.32184 22.2318-24.8658994 22.2318-24.8658994s-2.64551-10.687162-13.07084-8.241091z" fill="#fff"/><path d="m160.60259 30.99835s7.38173 5.760535 7.69227 6.280705c.98394 1.64809 1.17413 7.703025-1.78909 15.791815-3.89847 10.64177-10.5364 30.66093-8.00766 36.98276 2.52873 6.32184 10.95785 10.95786 4.74138 16.96361 0 0-2.28969 2.29679-7.65394-5.15357-5.36426-7.45036-9.31295-11.02653-9.31295-11.02653s.38775 4.714207-7.00334 6.2583c-14.92249-1.688524-11.23187-8.0452-2.84491-10.51882 0 0-13.43391-1.84387-10.74712-7.69157 2.68678-5.8477 9.11398-3.68774 9.11398-3.68774s14.01341 10.11495 15.64655 4.47797c1.63315-5.63697 6.33984-34.28533 4.03023-39.7986-2.82674-10.16095 3.01872-7.50213 6.1346-8.87833z" fill="#fff"/><path d="m174.88221-81.847712s1.26633.581555 1.26633 38.280372c0 0 7.89738 42.76506045 29.95044 68.3943 22.05306 25.62923 9.98348 21.45703 9.98348 21.45703s9.58519 10.00049 2.20971 12.10777c0 0 9.58812 11.80076 6.79598 19.91379 0 0-8.53448 2.52874-13.96073-7.00671 0 0-.93074 3.22201-9.64766-5.86743s-25.70374-30.24846-25.70374-30.24846 3.12915 16.31629-5.06625 27.26832c0 0 1.26657-21.68055-4.47021-24.28817l-2.58177-3.06286c-2.29971 2.238233-5.35803 3.834568-9.1898 4.77644 0 0-3.05465 3.27816-8.86593 2.23511 0 0 8.86593-8.49341 5.51327-19.66895s-5.43876-20.4884896-4.39571-28.8328886c0 0-2.93949-3.0286504-4.84273-6.1837984l-2.23511.149007s1.86259 16.5398004-5.28976 21.9785604c0 0 1.9371-10.65401.0745-13.85767-1.86259-3.203653-4.0232-6.0347894-3.94869-9.4619544 0 0-.74503-6.705323-8.86592-7.152345 0 0-3.65068 4.246705-16.16728-.968547 0 0 15.19873-5.662272 11.92057-16.316286-3.27815-10.654013-5.73677-27.044803-4.76823-31.440515-17.840385-20.815607-24.583857-59.652533-15.842159-82.639943 0 0 14.434869-15.59387 20.967429-18.4387 0 0-4.53065 1.15901-7.90229-2.73946 0 0 13.17049-1.26437 22.12643-18.54406 0 0-2.95019 2.10728-5.2682.52682 0 0 12.74905-7.48084 3.79311-38.66859-3.26853-5.66237-13.48899-4.13067-9.67892-17.03812 0 0-4.99174-5.66228 1.93709-7.59937 6.92884-1.93709 18.17888 1.86259 22.42558-3.35266 0 0 1.41557 2.98014-.29801 4.76823 0 0 8.3444 7.30135 15.49675 5.14075 0 0-.22352 4.1722-7.45036 3.50167 0 0 7.74837.67053 9.61096 10.87752s4.76823 6.92883 4.76823 6.92883 1.71358 7.15235-9.75997 6.40731c0 0 6.10929-1.34106 6.48181 5.51327s.0745 13.26164 2.0861 14.23018c0 0-6.10929 2.16061-7.22685-5.58777 0 0 4.39572 7.45036 2.16061 12.59111s-2.0116 16.4653-1.49007 17.65735c.52152 1.19206-4.47022-3.12915-6.77983-1.56457l1.34106 22.50008s-7.59936-4.1722-9.98348-10.05798c0 0 3.27816 8.12089 2.0116 14.6772-1.26656 6.55632 12.4421 5.28976 12.4421 5.28976" fill="#fff"/><path d="m120.79237-247.18565s-4.49254 3.34081-7.232 3.81494c-2.73947.47414-17.279699 8.69253-5.00479 18.17529 0 0-4.26724-10.69444 12.8544-10.64176 0 0 6.11112 6.69061-7.37547 13.64464 0 0 6.00574 5.32088 19.5977-12.06418 0 0 2.31801-3.52969-6.84866-6.16379 0 0-5.23906-1.20269-5.99118-6.76514" fill="#fff"/><path d="m112.8755-240.26247s2.00192-1.84387 3.47701-1.42241c1.4751.42145.0527 2.0546-3.47701 1.42241z"/><path d="m122.99023-250.35206s-.59603 2.86839 4.99174 2.38412 2.68213-1.11755 9.16394-1.41557" fill="none"/><path d="m127.25769-247.9277s-2.31801 3.29263.44779 4.60968c2.76581 1.31705 3.95115-3.21361 2.37069-4.84675"/><g fill="none"><path d="m149.85826-224.14178s3.84579 14.01341 5.68966 15.85728c-.21073-.10536-3.63506 2.37069-7.21744-5.90038"/><path d="m152.28163-201.33047s2.26533 13.96072-.94827 17.22701"/><path d="m151.33336-184.10346s-2.31801-10.5364-5.79502-15.96265"/><path d="m152.75441-177.6738s.054-1.47756-1.47373-3.84824"/><path d="m135.84485-170.88028s-4.53065 5.58429-7.27011 7.63889"/><path d="m125.6351-168.80788s-14.75171 14.4537-14.90072 19.22193l13.85767-6.85433"/><path d="m146.12359-150.85251c-2.15833-.97764-3.88851-3.00273-7.67387 0 0 0-8.56791 6.03479-10.50501 15.79476"/><path d="m113.41651-136.32431s2.16061 13.26164 2.53313 15.42224c.37251 2.16061 2.53312 2.98015 2.53312 2.98015"/><path d="m103.58204-137.51637s-3.948689 11.10104 3.79968 21.01001"/><path d="m121.5374-116.50636s2.68213 10.207 2.0116 13.48515c-.67053 3.27816 2.23511 4.69373 4.39571 4.76823"/><path d="m112.29896-103.76624s3.42716 9.83447 4.99174 10.65401 4.61922.74504 4.61922.74504"/><path d="m112.59697-69.6436c5.07872 8.316571 10.87922 11.865579 16.60995 15.87539"/><path d="m141.87689-12.57385s-6.1374-10.00662-9.19296-27.49704"/><path d="m159.02493-28.0594s6.11111 31.5038404 13.69732 39.61686"/><path d="m175.77602 35.18295-18.54228-22.15039"/><path d="m211.12742 71.29884s-31.87261-43.72605-35.13889-51.73371"/><path d="m221.40041 73.61685c-.31609-1.05364-37.61494-50.25862-37.61494-50.25862"/><path d="m218.29217 58.39176s-17.12165-17.01629-18.49138-27.13123"/><path d="m216.08246 46.28399s-10.90811-9.54453-12.3832-14.49664"/><path d="m163.65779 35.10024c.67623-.818076 1.42399-2.042211 1.68898-3.10216"/></g><path d="m134.65004 105.99862s-1.30382-8.38166 2.38411-10.65402c0 0-3.09191-2.79389-6.1838-1.86259 0 0-5.43876 8.08364 3.79969 12.51661zm-7.78563-24.66069s-6.03479 1.34106-3.91144 10.13249c0 0 4.87999-5.88579 8.08364-6.92884-.0372-1.49008-4.1722-3.20365-4.1722-3.20365zm-49.443889-70.46533s4.37261 3.2136 3.05556 5.53161c-1.31705 2.318-9.06131 3.26628-8.27108 9.00862 0 0-7.21743-11.64272 5.21552-14.54023zm-3.04389-10.63182955s-10.65343-3.22354005-10.75879 9.36745995c0 0 5.2682-3.89847 10.27299-2.26533 3.05556-3.42433.4858-7.10212995.4858-7.10212995z" fill="#fff"/><g fill="none"><g transform="translate(389.71955)"><path d="m-234.53098-143.8073s35.44555-13.21762 26.38425-39.03179c0 0-11.80077-10.22031-4.63601-23.49617 7.16475-13.27587 15.59387-1.89656 16.9636-15.27778 0 0 2.00191 8.74521-2.00192 11.37931 0 0 16.5846 2.75849 20.6078 21.6824 4.02319 18.92391 7.89738 45.00017 15.49675 51.10947 0 0-.59603 2.1606-4.24671.22351 0 0 .69963 151.40991-2.67201 156.67811-1.51512 5.65449-1.20218 10.35894-6.49193 5.14368v-47.160768s-3.50167 7.971884-7.15235-.149007c-3.65067-8.120891-1.34106-28.087854-1.34106-28.087854s-4.76823 8.269899-7.45036 1.713583-1.71358-13.187136-1.71358-13.187136-7.82288 2.458619-7.82288-3.054647v-19.892458s-7.53934 9.794338-7.53934.733035c0 0-4.3726 5.426246-6.69061 2.6341" fill="#fff"/><g fill="none"><path d="m-199.92834-204.54408s-13.27586-2.52873-10.74712 9.58813"/><path d="m-200.60739-85.21485v-28.7162"/><path d="m-192.78451-62.26774 1.17993-51.9794"/><path d="m-183.62057-50.79419.97193-60.60812"/><path d="m-175.12716-22.55733v-100.96184"/></g></g><path d="m188.00002-176.20116s-1.56999-28.88996 10.49959-1.02562c12.06959 27.86434 13.55966 33.37761 25.25672 40.00843"/><path d="m194.47642-161.73003s14.30469 45.44719 19.37093 32.03654"/><path d="m200.58571-144.89222s3.12915 36.35775-11.47355 12.81461c0 0 6.03479 28.9819-9.90898 3.79969 0 0 6.1838 31.887534-9.98348 5.21525 0 0 5.43876 27.044802-9.90897 3.79968 0 0 .81953 28.087855-13.03813 1.49007"/><path d="m162.50194-107.71457s.94828 22.75862 12.38027 25.86686c0 0-3.2136-8.165711-5.21552-26.39368"/><path d="m181.57282-84.48181c-.21073-2.15996-.84291-15.11973-3.16092-23.97031"/><path d="m191.19826-154.42868s6.55632 13.85767-10.87752 13.41064"/></g></g></g><g stroke-width=".997768" transform="matrix(.48560803 0 0 .61771858 145.13591 186.17591)"><use fill="#fcef3c" height="100%" stroke="#000" stroke-linejoin="round" stroke-width="1.866306" transform="translate(174.83749)" width="100%" xlink:href="#b"/><use fill="#fcef3c" height="100%" stroke="#000" stroke-linejoin="round" stroke-width="1.866306" transform="translate(87.418757 .000007)" width="100%" xlink:href="#b"/><g id="b" fill="#fcef3c" stroke="#000" stroke-linejoin="round" stroke-width="1.352639" transform="matrix(1.4772924 0 0 1.473292 -1874.5282 -383.56904)"><path d="m1311.3334 86.664418h22.2939c.3519 0 .6353.244723.6353.548555l-8.1684 5.132778 8.1684 5.132328c0 .303823-.2834.549015-.6353.549015h-22.2939c-.3519 0-.6353-.245192-.6353-.549015v-10.264647c0-.304291.2834-.549014.6353-.549014z" fill="#fcef3c" stroke="#000" stroke-linejoin="round" stroke-width="1.352639"/><path d="m1310.6804 83.927283h.1323c.5135 0 .93.508745.93 1.13607v65.887257c0 .62733-.4173 1.13703-.93 1.13703h-.1323c-.5135 0-.93-.5097-.93-1.13703v-65.887257c-.0008-.628281.4165-1.13607.93-1.13607z" fill="#fcef3c" stroke="#000" stroke-linejoin="round" stroke-width="1.352639"/><path d="m1310.776 139.9278 22.9172 39.43443c0 .62924-.4149 1.13703-.93 1.13703h-43.9737c-.5151 0-.93-.50779-.93-1.13703z" fill="#fcef3c" stroke="#000" stroke-linejoin="round" stroke-width="1.352639"/></g><use fill="#fcef3c" height="660" stroke="#000" stroke-linejoin="round" stroke-width="2.432126" transform="translate(174.4011 -.000002)" width="600" xlink:href="#c"/><use fill="#fcef3c" height="660" stroke="#000" stroke-linejoin="round" stroke-width="2.432126" transform="translate(87.200548 -.000002)" width="600" xlink:href="#c"/><g id="c" fill="#fcef3c" stroke="#000" stroke-linejoin="round" stroke-width="2.432126" transform="matrix(.72667122 0 0 .92642248 -65.051492 -389.58992)"><path d="m135 310h80v79.70835h-80z" fill="#fcef3c" fill-rule="evenodd" stroke="#000" stroke-linejoin="round" stroke-width="2.432126"/><path d="m125 300 10 10h80l10-10z" fill="#fcef3c" fill-rule="evenodd" stroke="#000" stroke-linejoin="round" stroke-width="2.432126"/><path d="m125 300v-20h20v10h20v-10h20v10h20v-10h20v20z" fill="#fcef3c" fill-rule="evenodd" stroke="#000" stroke-linejoin="round" stroke-width="2.432126"/><path d="m129.76662 305h90.23338" fill="#fcef3c" stroke="#000" stroke-linejoin="round" stroke-width="2.432126"/><path d="m175 325v15m0 30v-15m-15 15v15m0-45v15m0-30v-15m30 60v15m0-45v15m0-45v15m25 60h-80.11699m80.11699-15h-80.11699m80.11699-15h-80.14538m80.14538-15h-79.56516m79.56516-15h-79.56516" fill="#fcef3c" stroke="#000" stroke-linejoin="round" stroke-width="1.824095"/><path d="m170 329.41699h10v30.58301h-10z" fill="#000" fill-rule="evenodd" stroke="#000" stroke-linejoin="round" stroke-width="2.432126"/></g><path d="m849.75977 273.21875-7.31641 110.92383h-3.65625v36.97461h33.97461c.00043.00077.002.001.002.002h42.83789 117.04689 76.8125v-36.97656h-3.6562l-7.3164-110.92383h-65.8379-117.04499-.002-65.83789z" fill="#fcef3c" fill-rule="evenodd" stroke="#000" stroke-linejoin="round" stroke-width="2" transform="matrix(.99332426 0 0 1.0022319 -818.66827 -279.19778)"/><path d="m18.15237 105.80232 261.60209-.0001" fill="none" stroke="#000" stroke-width="1.995536"/><path d="m10.885659-42.425284h14.53342v13.896344h14.533422v-13.896344h14.533431v13.896344h14.533421v-13.896344h14.533421v13.896344h14.533431v-13.896344h14.533425v13.896344h14.53342v-13.896344h14.53343v13.896344h14.53342v-13.896344h14.53342v13.896344h14.53344v-13.896344h14.53342v13.896344h14.53341v-13.896344h14.53343v13.896344h14.53342v-13.896344h14.53342v13.896344h14.53344v-13.896344h14.53342v23.16057h-276.135061z" fill="#fcef3c" fill-rule="evenodd" stroke="#000" stroke-linejoin="round" stroke-width="1.995537"/><path d="m10.885659-19.264714 14.53342 13.8963329h247.068221l14.53342-13.8963329z" fill="#fcef3c" fill-rule="evenodd" stroke="#000" stroke-linejoin="round" stroke-width="1.995537"/><path d="m20.659191-10.000488h255.461459 1.46502m-261.882445-4.632118h264.050785 2.22115" fill="#fcef3c" stroke="#000" stroke-linejoin="round" stroke-width="1.995537"/><path d="m445 520v15m0-45v15m0-45v15m-15 30v15m0-45v15m0-45v15m15-30v15m-15-30v15m44.99999 90v15m0-45v15m0-45v15m-15 30v15m0-45v15m0-45v15m15-30v15m-15-30v15m45.00001 90v15m0-45v15m0-45v15m-15 30v15m0-45v15m0-45v15m15-30v15m-15-30v15m45 90v15m0-45v15m0-45v15m-15 30v15m0-45v15m0-45v15m15-30v15m-15-30v15m45 90v15m0-45v15m0-45v15m-15 30v15m0-45v15m0-45v15m15-30v15m-15-30v15m44.99998 90v15m0-45v15m0-45v15m-15 30v15m0-45v15m0-45v15m15-30v15m-15-30v15m44.99999 90v15m0-45v15m0-45v15m-15 30v15m0-45v15m0-45v15m15-30v15m-15-30v15m45.00002 90v15m0-45v15m0-45v15m-15 30v15m0-45v15m0-45v15m15-30v15m-15-30v15m44.99999 90v15m0-45v15m0-45v15m-15 30v15m0-45v15m0-45v15m15-30v15m-15-30v15m44.00001 91.00001v15m0-45v15m0-45v15m-15 30v15m0-45v15m0-45v15m15-30v15m-15-30v15m45.49999 89.5v15m0-45v15m0-45v15m-15 30v15m0-45v15m0-45v15m15-30v15m-15-30v15m-323.33207 89.99999h356.77365m-355.538-15h354.2118m-353.04882-15h352.22106m-351.18051-15.00001h349.89289m-349.17751-14.99999h347.76444m-345.95114-15h344.93944m-343.57371-15.00001h342.0102" fill="#fcef3c" stroke="#000" stroke-linejoin="round" stroke-width="1.824095" transform="matrix(.72667122 0 0 .92642248 -275.78613 -390.29692)"/><g fill="#fcef3c" fill-rule="evenodd" stroke="#000" stroke-linejoin="round" stroke-width="2.432126" transform="matrix(.72667122 0 0 .92642248 -58.148111 -389.8337)"><path d="m255.00001 575v-63.87036c-.0265-55.41992 79.41958-56.9156 79.99971 0v63.87036z" fill="#fcef3c"/><path d="m265 575v-63.66822c-.0199-41.00329 60.12529-41.7447 59.99646 0v63.66822z" fill="#fcef3c"/><path d="m269.99983 575v-63.66822c-.43434-35.48922 50.10737-34.72679 50 0v63.66822z" fill="#000"/><path d="m284.5 465.5 5 20h10l5-20z" fill="#fcef3c"/></g><path id="d" d="m61.752632 27.056419h10.900068v28.332794h-10.900068z" fill-rule="evenodd" stroke="#000" stroke-linejoin="round" stroke-width="1.995537"/><use height="660" stroke-width=".997768" transform="translate(178.03446 -.000003)" width="600" xlink:href="#d"/></g><g stroke-width="1.082286" transform="matrix(.92397025 0 0 .92397025 34.213392 7.70589)"><g id="e" fill="#fff" stroke="#000" stroke-width="3.103211" transform="matrix(.34875543 0 0 .34877104 425.15117 97.375275)"><path d="m18.767578 1v20.730469l9.451172 10.8125-4.458984 106.523441-13.695313 75.68359-9.064453 9.25h140.5l-9.06445-9.25-13.69532-75.68359-4.45898-106.523441 9.44922-10.8125v-20.730469h-20.9668v10.365234h-19.82617v-10.365234h-23.375v10.365234h-19.826172v-10.365234z" fill="#fff" stroke-linejoin="round" stroke-width="3.103211" transform="translate(-.000004 .000002)"/><path d="m264.22782 507.19331h71.54438m7.8552-8.97622h-87.25641m-7.23497 160.23919h101.72797" fill="#fff" stroke-width="2.577965" transform="matrix(1.20292 0 0 1.20457 -289.62745 -578.40754)"/><path d="m44.835938 47.382812v13.876954zm27.664062 0v13.876954zm27.66406 0v13.876954zm-43.033201 13.876954v13.876953zm30.738282 0v13.876953zm-44.570313 13.876953v13.876953zm58.402342 0v13.876953zm-44.570311 13.875v13.876951zm30.738282 0v13.876951zm-44.570313 13.876951v13.87695zm29.201172 0v13.87695zm29.20117 0v13.87695zm-44.570311 13.87695v13.87696zm30.738282 0v13.87696zm-44.570313 13.87696v13.87695zm29.201172 0v13.87695zm29.20117 0v13.87695zm-73.147102-83.259767h87.490242zm0 13.876951h87.777352zm0 13.876951h88.257812zm-1.537111 13.876951h90.369153zm0 13.875004h91.521493zm0 13.87695h92.001973zm-1.537098 13.87696h93.826171zm-1.535166 13.87695h96.511737zm-1.537111 13.87695h101.025398zm-3.074209 13.875h106.498047zm-3.074222 13.87697h112.066409zm-1.53711 13.87693h116.195319z" fill="#fff" stroke-linejoin="round" stroke-width="1.550172" transform="matrix(1.00185 0 0 1 -1.383921 .846538)"/><path d="m293.97147 538.13806h12.05683v27.4126h-12.05683z" fill="#fff" stroke-linejoin="round" stroke-width="2.577965" transform="matrix(1.20292 0 0 1.20457 -289.62745 -578.40754)"/><path d="m29.546875 31.697266v13.435546h9.035156v-13.435546zm25.214844 0v13.435546h9.035156v-13.435546zm26.441406 0v13.435546h9.035156v-13.435546zm25.214845 0v13.435546h9.03515v-13.435546z" fill="#fff" stroke-linejoin="round" stroke-width="2.325258" transform="matrix(1.00185 0 0 1 -1.383921 .846538)"/><path d="m299.96916 597.08296c-16.008 0-29 12.992-29 29v40h9v-40c0-11.04 8.96-20 20-20 11.04001 0 20 8.96 20 20v40h9v-40c0-16.008-12.992-29-29-29z" fill="#fff" stroke-linejoin="round" stroke-width="2.577965" transform="matrix(1.20292 0 0 1.20457 -289.62745 -578.40754)"/><path d="m294.43791 594.55171 2.09375 11.8125c.20481 1.15548 2.31143-.2905 3.46924-.26992 1.15781.0206 3.26554 1.44792 3.46826.30117l2.09375-11.84375c-1.8519-.36956-3.70723-.50885-5.56254-.4861-1.85531.0227-3.71061.20752-5.56246.4861zm-10.46875 3.8125c-3.15781 1.81813-6.05417 4.20418-8.53125 7.15625l9.21875 7.71875c1.49362-1.77768 3.29189-3.29796 5.3125-4.46875zm32.0625 0-6.03125 10.4375c2.01867 1.17546 3.82225 2.68694 5.3125 4.46875l9.25-7.75c-2.33885-2.79412-5.1939-5.22943-8.53125-7.15625zm-46.125 16.75c-1.25036 3.42254-1.9375 7.1151-1.9375 10.96875h12c0-2.40796.43763-4.70508 1.21875-6.84375zm60.1875.0312-11.34375 4.125c.77359 2.12956 1.21875 4.41673 1.21875 6.8125 0 .0104.00002.0208 0 .0312h12.0625c.004-3.64376-.61947-7.34751-1.9375-10.96875zm-62.125 20.93755v10h12v-10zm52 0v10h12v-10zm-52 20v10h12v-10zm52 0v10h12v-10z" fill="#fff" stroke-linejoin="round" stroke-width="2.577965" transform="matrix(1.20292 0 0 1.20457 -289.62745 -578.40754)"/><path d="m299.96916 606.08296c-11.04 0-20 8.96-20 20v40h40v-40c0-11.04-8.95999-20-20-20z" fill="#fff" stroke-linejoin="round" stroke-width="2.577965" transform="matrix(1.20292 0 0 1.20457 -289.62745 -578.40754)"/></g><use id="f" height="100%" stroke-width="1.082286" transform="matrix(0 1 -1 0 650.00005 -249.99993)" width="100%" xlink:href="#e"/><use id="g" height="100%" stroke-width="1.082286" transform="matrix(-1 0 0 1 899.99999 -.000006)" width="100%" xlink:href="#f"/><use height="100%" stroke-width="1.082286" transform="matrix(0 -1 1 0 249.99994 650.00006)" width="100%" xlink:href="#g"/></g><path d="m441.27823 214.93071v-4.3253h6.0554v-15.57105h-15.57108v6.05538h-4.32528v-17.30118h4.32528v6.05546h15.57108v-15.57112h-6.0554v-4.32527h17.3012v4.32527h-6.05544v15.57112h15.57108v-6.05546h4.32528v17.30118h-4.32528v-6.05538h-15.57108v15.57105h6.05544v4.3253z" fill="#fff" stroke="#000" stroke-width="1.016917"/><g id="h" stroke="#000" stroke-width="1.748594" transform="matrix(.85921515 0 0 .85645168 327.32226 7.103155)"><path d="m29.738807 62.945549c-2.689943 6.351213-6.015432 8.922247-9.243665 12.043068 3.618431.01652 7.225043-.678341 10.962762-3.813951.06366 9.674934 1.458013 12.982212 4.819106 16.232778 3.322963-3.148967 4.858497-6.547149 4.847287-16.232778 3.737718 3.135613 7.334938 3.830472 10.953368 3.813951-3.227999-3.120592-6.544434-5.692883-9.234271-12.043068z" fill="#fcef3c" fill-rule="evenodd" stroke="#000" stroke-width="1.748594"/><path d="m21.706974 58.178268h29.158859v4.771534h-29.158859z" fill="#fcef3c" stroke="#000" stroke-width="1.748594"/><path d="m126.28125 7.9375c-34.941678 37.094566-48.391726 79.825556-20.625 133.34375 6.34161 16.25846 11.33844 33.04455 10.3125 52.25h20.625c-1.02594-19.20545 3.97088-35.99154 10.3125-52.25 27.76673-53.518189 14.31668-96.249184-20.625-133.34375z" fill="#fcef3c" fill-rule="evenodd" stroke="#000" stroke-width="5.816875" transform="matrix(.300607 0 0 .300607 -1.678333 0)"/><path d="m52.25 100c-35.235309.84534-58.7273133 60.01799 15.21875 88.875-24.439711-47.87444 20.895745-30.13204 26.875 4.65625h17.53125c-9.67933-70.66082-37.052039-94.072804-59.625-93.53125z" fill="#fcef3c" fill-rule="evenodd" stroke="#000" stroke-width="5.816875" transform="matrix(.300607 0 0 .300607 -1.678333 0)"/><path d="m198.96875 100c-22.30142.41761-48.7644 24.28444-58.25 93.53125h17.5c5.97956-34.78829 51.34596-52.53069 26.90625-4.65625 74.89409-29.22698 49.82147-89.548704 13.84375-88.875z" fill="#fcef3c" fill-rule="evenodd" stroke="#000" stroke-width="5.816875" transform="matrix(.300607 0 0 .300607 -1.678333 0)"/></g><use height="100%" transform="translate(91.500339)" width="100%" xlink:href="#h"/><use height="100%" transform="translate(183)" width="100%" xlink:href="#h"/></g><path d="m300.00001 658.5s298.5-112.32031 298.5-397.77183c0-285.451504 0-258.5516835 0-258.5516835h-597.00001v258.5516835c0 285.45152 298.50001 397.77183 298.50001 397.77183z" fill="url(#a)" fill-rule="evenodd"/><path d="m299.99999 658.39735s-298.49999-112.30261-298.49999-397.70914c0-285.406498 0-259.1295378 0-259.1295378l596.99999-.0585845v259.1881223c0 285.40653-298.5 397.70914-298.5 397.70914z" fill="none" stroke="#000" stroke-width="3"/></svg>