<?xml version="1.0" encoding="UTF-8"?>
<svg width="900" height="600" version="1.1" xmlns="http://www.w3.org/2000/svg" xmlns:xlink="http://www.w3.org/1999/xlink">
 <rect width="900" height="600" fill="#fff"/>
 <g id="a">
  <g id="b">
   <g id="c">
    <g id="d">
     <g id="e">
      <path d="m64.5 488.85c-5.7854 29.928-16.559 51.131-28.275 66.365 4.8702-1.5205 10.34-5.8454 15.633-9.6275-3.2372 7.8478-6.4605 14.69-9.6976 21.615 1.9328-0.74593 8.0506-7.7385 16.381-17.993 1.306 14.098 3.0871 29.979 5.7251 39.538 2.1001-9.5439 3.6377-25.338 5.3045-39.842 5.0221 6.4859 9.9129 13.037 16.708 18.601l-9.5574-22.316c4.9259 3.5848 10.386 8.3283 15.61 10.329-12.385-15.993-22.83-36.738-27.831-66.668z"/>
      <path d="m49.71 480.76c-6.5698 0.33432-13.816 10.449-20.891 1.9863 4.1261 11.68 11.596 6.1109 12.128 7.8516 7.5147 14.263 18.639 2.6465 16.1-4.0426-2.3139-4.56-4.7667-5.926-7.3375-5.7952z"/>
      <path d="m77.3 480.62c-2.2642 0.19792-4.4394 1.7419-6.4963 5.7952-2.539 6.6891 8.5857 18.282 16.1 4.0193 0.53174-1.7406 8.0018 3.8282 12.128-7.8516-7.3822 8.8308-14.939-2.5567-21.732-1.9629z"/>
      <path d="m62.35 450.81c8.897 12.563-15.984 17.623-2.5705 29.514 5.7204 4.0373 19.03-4.7278 7.2908-15.47-1.5168-0.91958 5.335-7.3066-4.7203-14.044z"/>
     </g>
     <use transform="translate(-128.69)" xlink:href="#e"/>
    </g>
    <use transform="translate(257.38)" xlink:href="#d"/>
   </g>
   <use transform="translate(514.76)" xlink:href="#c"/>
  </g>
  <use transform="translate(64.355,111.35)" xlink:href="#b"/>
 </g>
 <use transform="translate(64.328,-556.79)" xlink:href="#b"/>
 <use transform="translate(-.00389 -222.7)" xlink:href="#a"/>
 <use transform="translate(-.00388 -445.41)" xlink:href="#a"/>
 <path d="m0.14955 281c64.961 4.0739 56.231 36.966 112.46 37.389 56.23 0.42294 56.231-37.389 112.46-37.389s56.231 37.389 112.46 37.389 56.231-37.389 112.46-37.389 56.231 37.389 112.46 37.389c56.231 0 56.231-37.389 112.46-37.389 56.231 0 56.26 39.186 112.46 37.389 51.699-1.6538 44.48-34.698 112.46-37.389l-1e-4 318.85h-899.7z" fill="#2b5df2"/>
</svg>
