<?xml version="1.0" encoding="UTF-8"?>
<svg width="900" height="600" version="1.1" xmlns="http://www.w3.org/2000/svg" xmlns:xlink="http://www.w3.org/1999/xlink">
	<rect width="900" height="600" fill="#fff"/>
	<g id="b">
		<g id="a">
			<g id="c">
				<g id="d">
					<g id="e">
						<path d="m64.341 486.68c-5.7847 29.923-16.581 51.123-28.295 66.353 4.8696-1.5203 10.362-5.8445 15.655-9.6259-3.2368 7.8465-6.4831 14.688-9.7199 21.612 1.9326-0.7458 8.073-7.7372 16.402-17.99 1.3058 14.095 3.0634 29.974 5.7011 39.532 2.0999-9.5423 3.6607-25.334 5.3273-39.835 5.0215 6.4848 9.8885 13.035 16.683 18.598l-9.5331-22.312c4.9254 3.5842 10.362 8.3269 15.585 10.327-12.384-15.991-22.805-36.731-27.805-66.657z"/>
						<path d="m49.541 478.6c-6.569 0.33425-13.815 10.447-20.888 1.9859 4.1257 11.678 11.618 6.1099 12.15 7.8503 7.5139 14.261 18.638 2.646 16.099-4.042-2.3137-4.5592-4.7896-5.925-7.3601-5.7942z"/>
						<path d="m77.141 478.46c-2.2639 0.1979-4.4389 1.7416-6.4955 5.7942-2.5388 6.688 8.5847 18.279 16.099 4.0186 0.5317-1.7404 8.0243 3.8275 12.15-7.8503-7.3814 8.8293-14.961-2.5562-21.753-1.9626z"/>
						<path d="m62.241 448.65c8.8961 12.561-16.005 17.62-2.5935 29.509 5.7198 4.0367 19.051-4.727 7.3133-15.467-1.5166-0.91942 5.3344-7.3053-4.7198-14.042z"/>
					</g>
					<use transform="translate(-128.6)" xlink:href="#e"/>
				</g>
				<use transform="translate(257.26)" xlink:href="#d"/>
			</g>
			<use transform="translate(514.65)" xlink:href="#c"/>
		</g>
		<use transform="translate(64.234 111.33)" xlink:href="#a"/>
	</g>
	<use transform="translate(64.252 -111.34)" xlink:href="#a"/>
	<use transform="translate(64.384 -334.01)" xlink:href="#b"/>
	<path d="m0 0v342.65l150-131.53 150 131.53 150-131.53 150 131.53 150-131.53 150 131.53v-342.65z" fill="#2b5df2"/>
</svg>
