<?xml version="1.0" encoding="UTF-8" standalone="no"?>
<svg
   xmlns:dc="http://purl.org/dc/elements/1.1/"
   xmlns:cc="http://creativecommons.org/ns#"
   xmlns:rdf="http://www.w3.org/1999/02/22-rdf-syntax-ns#"
   xmlns:svg="http://www.w3.org/2000/svg"
   xmlns="http://www.w3.org/2000/svg"
   xmlns:sodipodi="http://sodipodi.sourceforge.net/DTD/sodipodi-0.dtd"
   xmlns:inkscape="http://www.inkscape.org/namespaces/inkscape"
   version="1.0"
   width="1350"
   height="900"
   id="svg43"
   sodipodi:docname="Flag_of_Brittany.svg"
   inkscape:version="0.92.4 (5da689c313, 2019-01-14)">
  <metadata
     id="metadata49">
    <rdf:RDF>
      <cc:Work
         rdf:about="">
        <dc:format>image/svg+xml</dc:format>
        <dc:type
           rdf:resource="http://purl.org/dc/dcmitype/StillImage" />
      </cc:Work>
    </rdf:RDF>
  </metadata>
  <defs
     id="defs47" />
  <sodipodi:namedview
     pagecolor="#ffffff"
     bordercolor="#666666"
     borderopacity="1"
     objecttolerance="10"
     gridtolerance="10"
     guidetolerance="10"
     inkscape:pageopacity="0"
     inkscape:pageshadow="2"
     inkscape:window-width="2142"
     inkscape:window-height="1530"
     id="namedview45"
     showgrid="false"
     inkscape:zoom="0.74167645"
     inkscape:cx="466.38948"
     inkscape:cy="529.04446"
     inkscape:window-x="373"
     inkscape:window-y="238"
     inkscape:window-maximized="0"
     inkscape:current-layer="svg43" />
  <rect
     width="1350"
     height="900"
     fill="#fff"
     id="rect2" />
  <rect
     x="612"
     width="738"
     height="100"
     id="rect4" />
  <rect
     x="612"
     y="200"
     width="738"
     height="100"
     id="rect6" />
  <rect
     y="400"
     width="1350"
     height="100"
     id="rect8" />
  <rect
     y="600"
     width="1350"
     height="100"
     id="rect10" />
  <rect
     y="800"
     width="1350"
     height="100"
     id="rect12" />
  <g
     id="g1075">
    <g
       transform="matrix(2.5345004,0,0,2.5345004,1855.1157,108.23115)"
       id="g3442"
       style="display:inline">
      <path
         style="display:inline;fill:#000000;fill-opacity:1;fill-rule:evenodd;stroke:none"
         d="m -677.03085,9.87064 c 4.17511,5.17924 -7.50003,7.24031 -1.20538,12.14267 2.68457,1.66458 8.9556,-1.93881 3.44649,-6.36743 -0.71182,-0.37916 2.47786,-2.99735 -2.24111,-5.77524 z"
         id="path3444"
         inkscape:connector-curvature="0" />
      <path
         style="display:inline;fill:#000000;fill-opacity:1;fill-rule:evenodd;stroke:none"
         d="m -670.0662,22.14958 c -1.04447,0.09831 -2.05108,0.74291 -3.00147,2.38762 -1.19195,2.75738 4.0496,7.53981 7.57704,1.66042 0.2496,-0.71754 3.75085,1.58046 5.68784,-3.23414 -3.32064,3.48835 -6.71691,-0.67575 -9.80026,-0.81385 -0.15082,-0.0068 -0.31395,-0.01409 -0.46315,-5e-5 z"
         id="path3446"
         inkscape:connector-curvature="0" />
      <path
         style="display:inline;fill:#000000;fill-opacity:1;fill-rule:evenodd;stroke:none"
         d="m -682.97894,22.19914 c -3.08341,0.13753 -6.48049,4.31788 -9.80042,0.82889 1.93603,4.81497 5.47482,2.51766 5.72427,3.23524 3.5263,5.88008 8.73172,1.09866 7.54031,-1.65895 -1.0858,-1.87987 -2.25763,-2.45899 -3.46416,-2.40518 z"
         id="path3448"
         inkscape:connector-curvature="0" />
      <path
         style="display:inline;fill:#000000;fill-opacity:1;fill-rule:evenodd;stroke:none"
         d="m -676.03196,25.55305 c -2.71644,12.33688 -7.76823,21.07047 -13.26738,27.34961 2.28573,-0.62659 4.87078,-2.40334 7.35527,-3.96221 -1.51963,3.23498 -3.05724,6.03621 -4.57682,8.89072 0.90717,-0.30742 3.79757,-3.19007 7.7076,-7.41702 0.61237,5.81162 1.4474,8.55797 2.68508,12.49868 0.98603,-3.9342 1.7009,-6.62089 2.48373,-12.5998 2.35674,2.67392 4.62843,5.36182 7.8173,7.65562 l -4.46391,-9.19642 c 2.31172,1.47797 4.88441,3.40979 7.33595,4.23459 -5.81218,-6.59359 -10.73107,-15.11508 -13.07682,-27.45377 z"
         id="path3450"
         inkscape:connector-curvature="0" />
    </g>
    <g
       transform="matrix(2.5345004,0,0,2.5345004,1851.2446,108.23115)"
       id="g3452"
       style="display:inline">
      <path
         style="display:inline;fill:#000000;fill-opacity:1;fill-rule:evenodd;stroke:none"
         d="m -616.4605,22.19914 c -3.08341,0.13753 -6.48049,4.31788 -9.80042,0.82889 1.93603,4.81497 5.47482,2.51766 5.72427,3.23524 3.5263,5.88008 8.73172,1.09866 7.54031,-1.65895 -1.0858,-1.87987 -2.25763,-2.45899 -3.46416,-2.40518 z"
         id="path3454"
         inkscape:connector-curvature="0" />
      <path
         style="display:inline;fill:#000000;fill-opacity:1;fill-rule:evenodd;stroke:none"
         d="m -610.51241,9.87064 c 4.17511,5.17924 -7.50003,7.24031 -1.20538,12.14267 2.68457,1.66458 8.9556,-1.93881 3.44649,-6.36743 -0.71182,-0.37916 2.47786,-2.99735 -2.24111,-5.77524 z"
         id="path3456"
         inkscape:connector-curvature="0" />
      <path
         style="display:inline;fill:#000000;fill-opacity:1;fill-rule:evenodd;stroke:none"
         d="m -603.54776,22.14958 c -1.04447,0.09831 -2.05108,0.74291 -3.00147,2.38762 -1.19195,2.75738 4.0496,7.53981 7.57704,1.66042 0.2496,-0.71754 3.75085,1.58046 5.68784,-3.23414 -3.32064,3.48835 -6.71691,-0.67575 -9.80026,-0.81385 -0.15082,-0.0068 -0.31395,-0.01409 -0.46315,-5e-5 z"
         id="path3458"
         inkscape:connector-curvature="0" />
      <path
         style="display:inline;fill:#000000;fill-opacity:1;fill-rule:evenodd;stroke:none"
         d="m -609.51352,25.55305 c -2.71644,12.33688 -7.76823,21.07047 -13.26738,27.34961 2.28573,-0.62659 4.87078,-2.40334 7.35527,-3.96221 -1.51963,3.23498 -3.05724,6.03621 -4.57682,8.89072 0.90717,-0.30742 3.79757,-3.19007 7.7076,-7.41702 0.61237,5.81162 1.4474,8.55797 2.68508,12.49868 0.98603,-3.9342 1.7009,-6.62089 2.48373,-12.5998 2.35674,2.67392 4.62843,5.36182 7.8173,7.65562 l -4.46391,-9.19642 c 2.31172,1.47797 4.88441,3.40979 7.33595,4.23459 -5.81218,-6.59359 -10.73107,-15.11508 -13.07682,-27.45377 z"
         id="path3460"
         inkscape:connector-curvature="0" />
    </g>
    <g
       transform="matrix(2.5345004,0,0,2.5345004,1862.0122,83.410309)"
       id="g3462"
       style="display:inline">
      <path
         style="display:inline;fill:#000000;fill-opacity:1;fill-rule:evenodd;stroke:none"
         d="m -549.76978,19.66383 c 4.17511,5.17924 -7.50003,7.24031 -1.20538,12.14267 2.68457,1.66458 8.9556,-1.93881 3.44649,-6.36743 -0.71182,-0.37916 2.47786,-2.99735 -2.24111,-5.77524 z"
         id="path3464"
         inkscape:connector-curvature="0" />
      <path
         style="display:inline;fill:#000000;fill-opacity:1;fill-rule:evenodd;stroke:none"
         d="m -542.80513,31.94277 c -1.04447,0.09831 -2.05108,0.74291 -3.00147,2.38762 -1.19195,2.75738 4.0496,7.53981 7.57704,1.66042 0.2496,-0.71754 3.75085,1.58046 5.68784,-3.23414 -3.32064,3.48835 -6.71691,-0.67575 -9.80026,-0.81385 -0.15082,-0.0068 -0.31395,-0.01409 -0.46315,-5e-5 z"
         id="path3466"
         inkscape:connector-curvature="0" />
      <path
         style="display:inline;fill:#000000;fill-opacity:1;fill-rule:evenodd;stroke:none"
         d="m -555.71787,31.99233 c -3.08341,0.13753 -6.48049,4.31788 -9.80042,0.82889 1.93603,4.81497 5.47482,2.51766 5.72427,3.23524 3.5263,5.88008 8.73172,1.09866 7.54031,-1.65895 -1.0858,-1.87987 -2.25763,-2.45899 -3.46416,-2.40518 z"
         id="path3468"
         inkscape:connector-curvature="0" />
      <path
         style="display:inline;fill:#000000;fill-opacity:1;fill-rule:evenodd;stroke:none"
         d="m -548.77089,35.34624 c -2.71644,12.33688 -7.76823,21.07047 -13.26738,27.34961 2.28573,-0.62659 4.87078,-2.40334 7.35527,-3.96221 -1.51963,3.23498 -3.05724,6.03621 -4.57682,8.89072 0.90717,-0.30742 3.79757,-3.19007 7.7076,-7.41702 0.61237,5.81162 1.4474,8.55797 2.68508,12.49868 0.98603,-3.9342 1.7009,-6.62089 2.48373,-12.5998 2.35674,2.67392 4.62843,5.36182 7.8173,7.65562 l -4.46391,-9.19642 c 2.31172,1.47797 4.88441,3.40979 7.33595,4.23459 -5.81218,-6.59359 -10.73107,-15.11508 -13.07682,-27.45377 z"
         id="path3470"
         inkscape:connector-curvature="0" />
    </g>
    <g
       transform="matrix(2.5345004,0,0,2.5345004,1772.7558,-7.3782911)"
       id="g3410">
      <path
         style="display:inline;fill:#000000;fill-opacity:1;fill-rule:evenodd;stroke:none"
         d="m -677.03085,9.87064 c 4.17511,5.17924 -7.50003,7.24031 -1.20538,12.14267 2.68457,1.66458 8.9556,-1.93881 3.44649,-6.36743 -0.71182,-0.37916 2.47786,-2.99735 -2.24111,-5.77524 z"
         id="path3124"
         inkscape:connector-curvature="0" />
      <path
         style="display:inline;fill:#000000;fill-opacity:1;fill-rule:evenodd;stroke:none"
         d="m -670.0662,22.14958 c -1.04447,0.09831 -2.05108,0.74291 -3.00147,2.38762 -1.19195,2.75738 4.0496,7.53981 7.57704,1.66042 0.2496,-0.71754 3.75085,1.58046 5.68784,-3.23414 -3.32064,3.48835 -6.71691,-0.67575 -9.80026,-0.81385 -0.15082,-0.0068 -0.31395,-0.01409 -0.46315,-5e-5 z"
         id="path3114"
         inkscape:connector-curvature="0" />
      <path
         style="display:inline;fill:#000000;fill-opacity:1;fill-rule:evenodd;stroke:none"
         d="m -682.97894,22.19914 c -3.08341,0.13753 -6.48049,4.31788 -9.80042,0.82889 1.93603,4.81497 5.47482,2.51766 5.72427,3.23524 3.5263,5.88008 8.73172,1.09866 7.54031,-1.65895 -1.0858,-1.87987 -2.25763,-2.45899 -3.46416,-2.40518 z"
         id="path3104"
         inkscape:connector-curvature="0" />
      <path
         style="display:inline;fill:#000000;fill-opacity:1;fill-rule:evenodd;stroke:none"
         d="m -676.03196,25.55305 c -2.71644,12.33688 -7.76823,21.07047 -13.26738,27.34961 2.28573,-0.62659 4.87078,-2.40334 7.35527,-3.96221 -1.51963,3.23498 -3.05724,6.03621 -4.57682,8.89072 0.90717,-0.30742 3.79757,-3.19007 7.7076,-7.41702 0.61237,5.81162 1.4474,8.55797 2.68508,12.49868 0.98603,-3.9342 1.7009,-6.62089 2.48373,-12.5998 2.35674,2.67392 4.62843,5.36182 7.8173,7.65562 l -4.46391,-9.19642 c 2.31172,1.47797 4.88441,3.40979 7.33595,4.23459 -5.81218,-6.59359 -10.73107,-15.11508 -13.07682,-27.45377 z"
         id="path3094"
         inkscape:connector-curvature="0" />
    </g>
    <g
       transform="matrix(2.5345004,0,0,2.5345004,1772.7558,223.84074)"
       id="g3526">
      <path
         style="display:inline;fill:#000000;fill-opacity:1;fill-rule:evenodd;stroke:none"
         d="m -677.03085,9.87064 c 4.17511,5.17924 -7.50003,7.24031 -1.20538,12.14267 2.68457,1.66458 8.9556,-1.93881 3.44649,-6.36743 -0.71182,-0.37916 2.47786,-2.99735 -2.24111,-5.77524 z"
         id="path3528"
         inkscape:connector-curvature="0" />
      <path
         style="display:inline;fill:#000000;fill-opacity:1;fill-rule:evenodd;stroke:none"
         d="m -670.0662,22.14958 c -1.04447,0.09831 -2.05108,0.74291 -3.00147,2.38762 -1.19195,2.75738 4.0496,7.53981 7.57704,1.66042 0.2496,-0.71754 3.75085,1.58046 5.68784,-3.23414 -3.32064,3.48835 -6.71691,-0.67575 -9.80026,-0.81385 -0.15082,-0.0068 -0.31395,-0.01409 -0.46315,-5e-5 z"
         id="path3530"
         inkscape:connector-curvature="0" />
      <path
         style="display:inline;fill:#000000;fill-opacity:1;fill-rule:evenodd;stroke:none"
         d="m -682.97894,22.19914 c -3.08341,0.13753 -6.48049,4.31788 -9.80042,0.82889 1.93603,4.81497 5.47482,2.51766 5.72427,3.23524 3.5263,5.88008 8.73172,1.09866 7.54031,-1.65895 -1.0858,-1.87987 -2.25763,-2.45899 -3.46416,-2.40518 z"
         id="path3532"
         inkscape:connector-curvature="0" />
      <path
         style="display:inline;fill:#000000;fill-opacity:1;fill-rule:evenodd;stroke:none"
         d="m -676.03196,25.55305 c -2.71644,12.33688 -7.76823,21.07047 -13.26738,27.34961 2.28573,-0.62659 4.87078,-2.40334 7.35527,-3.96221 -1.51963,3.23498 -3.05724,6.03621 -4.57682,8.89072 0.90717,-0.30742 3.79757,-3.19007 7.7076,-7.41702 0.61237,5.81162 1.4474,8.55797 2.68508,12.49868 0.98603,-3.9342 1.7009,-6.62089 2.48373,-12.5998 2.35674,2.67392 4.62843,5.36182 7.8173,7.65562 l -4.46391,-9.19642 c 2.31172,1.47797 4.88441,3.40979 7.33595,4.23459 -5.81218,-6.59359 -10.73107,-15.11508 -13.07682,-27.45377 z"
         id="path3534"
         inkscape:connector-curvature="0" />
    </g>
    <g
       transform="matrix(2.5345004,0,0,2.5345004,1768.8846,-7.3782911)"
       id="g3436">
      <path
         style="display:inline;fill:#000000;fill-opacity:1;fill-rule:evenodd;stroke:none"
         d="m -616.4605,22.19914 c -3.08341,0.13753 -6.48049,4.31788 -9.80042,0.82889 1.93603,4.81497 5.47482,2.51766 5.72427,3.23524 3.5263,5.88008 8.73172,1.09866 7.54031,-1.65895 -1.0858,-1.87987 -2.25763,-2.45899 -3.46416,-2.40518 z"
         id="path3360"
         inkscape:connector-curvature="0" />
      <path
         style="display:inline;fill:#000000;fill-opacity:1;fill-rule:evenodd;stroke:none"
         d="m -610.51241,9.87064 c 4.17511,5.17924 -7.50003,7.24031 -1.20538,12.14267 2.68457,1.66458 8.9556,-1.93881 3.44649,-6.36743 -0.71182,-0.37916 2.47786,-2.99735 -2.24111,-5.77524 z"
         id="path3356"
         inkscape:connector-curvature="0" />
      <path
         style="display:inline;fill:#000000;fill-opacity:1;fill-rule:evenodd;stroke:none"
         d="m -603.54776,22.14958 c -1.04447,0.09831 -2.05108,0.74291 -3.00147,2.38762 -1.19195,2.75738 4.0496,7.53981 7.57704,1.66042 0.2496,-0.71754 3.75085,1.58046 5.68784,-3.23414 -3.32064,3.48835 -6.71691,-0.67575 -9.80026,-0.81385 -0.15082,-0.0068 -0.31395,-0.01409 -0.46315,-5e-5 z"
         id="path3358"
         inkscape:connector-curvature="0" />
      <path
         style="display:inline;fill:#000000;fill-opacity:1;fill-rule:evenodd;stroke:none"
         d="m -609.51352,25.55305 c -2.71644,12.33688 -7.76823,21.07047 -13.26738,27.34961 2.28573,-0.62659 4.87078,-2.40334 7.35527,-3.96221 -1.51963,3.23498 -3.05724,6.03621 -4.57682,8.89072 0.90717,-0.30742 3.79757,-3.19007 7.7076,-7.41702 0.61237,5.81162 1.4474,8.55797 2.68508,12.49868 0.98603,-3.9342 1.7009,-6.62089 2.48373,-12.5998 2.35674,2.67392 4.62843,5.36182 7.8173,7.65562 l -4.46391,-9.19642 c 2.31172,1.47797 4.88441,3.40979 7.33595,4.23459 -5.81218,-6.59359 -10.73107,-15.11508 -13.07682,-27.45377 z"
         id="path3362"
         inkscape:connector-curvature="0" />
    </g>
    <g
       transform="matrix(2.5345004,0,0,2.5345004,1768.8846,223.84074)"
       id="g3536">
      <path
         style="display:inline;fill:#000000;fill-opacity:1;fill-rule:evenodd;stroke:none"
         d="m -616.4605,22.19914 c -3.08341,0.13753 -6.48049,4.31788 -9.80042,0.82889 1.93603,4.81497 5.47482,2.51766 5.72427,3.23524 3.5263,5.88008 8.73172,1.09866 7.54031,-1.65895 -1.0858,-1.87987 -2.25763,-2.45899 -3.46416,-2.40518 z"
         id="path3538"
         inkscape:connector-curvature="0" />
      <path
         style="display:inline;fill:#000000;fill-opacity:1;fill-rule:evenodd;stroke:none"
         d="m -610.51241,9.87064 c 4.17511,5.17924 -7.50003,7.24031 -1.20538,12.14267 2.68457,1.66458 8.9556,-1.93881 3.44649,-6.36743 -0.71182,-0.37916 2.47786,-2.99735 -2.24111,-5.77524 z"
         id="path3540"
         inkscape:connector-curvature="0" />
      <path
         style="display:inline;fill:#000000;fill-opacity:1;fill-rule:evenodd;stroke:none"
         d="m -603.54776,22.14958 c -1.04447,0.09831 -2.05108,0.74291 -3.00147,2.38762 -1.19195,2.75738 4.0496,7.53981 7.57704,1.66042 0.2496,-0.71754 3.75085,1.58046 5.68784,-3.23414 -3.32064,3.48835 -6.71691,-0.67575 -9.80026,-0.81385 -0.15082,-0.0068 -0.31395,-0.01409 -0.46315,-5e-5 z"
         id="path3542"
         inkscape:connector-curvature="0" />
      <path
         style="display:inline;fill:#000000;fill-opacity:1;fill-rule:evenodd;stroke:none"
         d="m -609.51352,25.55305 c -2.71644,12.33688 -7.76823,21.07047 -13.26738,27.34961 2.28573,-0.62659 4.87078,-2.40334 7.35527,-3.96221 -1.51963,3.23498 -3.05724,6.03621 -4.57682,8.89072 0.90717,-0.30742 3.79757,-3.19007 7.7076,-7.41702 0.61237,5.81162 1.4474,8.55797 2.68508,12.49868 0.98603,-3.9342 1.7009,-6.62089 2.48373,-12.5998 2.35674,2.67392 4.62843,5.36182 7.8173,7.65562 l -4.46391,-9.19642 c 2.31172,1.47797 4.88441,3.40979 7.33595,4.23459 -5.81218,-6.59359 -10.73107,-15.11508 -13.07682,-27.45377 z"
         id="path3544"
         inkscape:connector-curvature="0" />
    </g>
    <g
       transform="matrix(2.5345004,0,0,2.5345004,1779.6523,-32.199141)"
       id="g3421">
      <path
         style="display:inline;fill:#000000;fill-opacity:1;fill-rule:evenodd;stroke:none"
         d="m -549.76978,19.66383 c 4.17511,5.17924 -7.50003,7.24031 -1.20538,12.14267 2.68457,1.66458 8.9556,-1.93881 3.44649,-6.36743 -0.71182,-0.37916 2.47786,-2.99735 -2.24111,-5.77524 z"
         id="path3376"
         inkscape:connector-curvature="0" />
      <path
         style="display:inline;fill:#000000;fill-opacity:1;fill-rule:evenodd;stroke:none"
         d="m -542.80513,31.94277 c -1.04447,0.09831 -2.05108,0.74291 -3.00147,2.38762 -1.19195,2.75738 4.0496,7.53981 7.57704,1.66042 0.2496,-0.71754 3.75085,1.58046 5.68784,-3.23414 -3.32064,3.48835 -6.71691,-0.67575 -9.80026,-0.81385 -0.15082,-0.0068 -0.31395,-0.01409 -0.46315,-5e-5 z"
         id="path3378"
         inkscape:connector-curvature="0" />
      <path
         style="display:inline;fill:#000000;fill-opacity:1;fill-rule:evenodd;stroke:none"
         d="m -555.71787,31.99233 c -3.08341,0.13753 -6.48049,4.31788 -9.80042,0.82889 1.93603,4.81497 5.47482,2.51766 5.72427,3.23524 3.5263,5.88008 8.73172,1.09866 7.54031,-1.65895 -1.0858,-1.87987 -2.25763,-2.45899 -3.46416,-2.40518 z"
         id="path3380"
         inkscape:connector-curvature="0" />
      <path
         style="display:inline;fill:#000000;fill-opacity:1;fill-rule:evenodd;stroke:none"
         d="m -548.77089,35.34624 c -2.71644,12.33688 -7.76823,21.07047 -13.26738,27.34961 2.28573,-0.62659 4.87078,-2.40334 7.35527,-3.96221 -1.51963,3.23498 -3.05724,6.03621 -4.57682,8.89072 0.90717,-0.30742 3.79757,-3.19007 7.7076,-7.41702 0.61237,5.81162 1.4474,8.55797 2.68508,12.49868 0.98603,-3.9342 1.7009,-6.62089 2.48373,-12.5998 2.35674,2.67392 4.62843,5.36182 7.8173,7.65562 l -4.46391,-9.19642 c 2.31172,1.47797 4.88441,3.40979 7.33595,4.23459 -5.81218,-6.59359 -10.73107,-15.11508 -13.07682,-27.45377 z"
         id="path3382"
         inkscape:connector-curvature="0" />
    </g>
    <g
       transform="matrix(2.5345004,0,0,2.5345004,1779.6523,199.0199)"
       id="g3546">
      <path
         style="display:inline;fill:#000000;fill-opacity:1;fill-rule:evenodd;stroke:none"
         d="m -549.76978,19.66383 c 4.17511,5.17924 -7.50003,7.24031 -1.20538,12.14267 2.68457,1.66458 8.9556,-1.93881 3.44649,-6.36743 -0.71182,-0.37916 2.47786,-2.99735 -2.24111,-5.77524 z"
         id="path3548"
         inkscape:connector-curvature="0" />
      <path
         style="display:inline;fill:#000000;fill-opacity:1;fill-rule:evenodd;stroke:none"
         d="m -542.80513,31.94277 c -1.04447,0.09831 -2.05108,0.74291 -3.00147,2.38762 -1.19195,2.75738 4.0496,7.53981 7.57704,1.66042 0.2496,-0.71754 3.75085,1.58046 5.68784,-3.23414 -3.32064,3.48835 -6.71691,-0.67575 -9.80026,-0.81385 -0.15082,-0.0068 -0.31395,-0.01409 -0.46315,-5e-5 z"
         id="path3550"
         inkscape:connector-curvature="0" />
      <path
         style="display:inline;fill:#000000;fill-opacity:1;fill-rule:evenodd;stroke:none"
         d="m -555.71787,31.99233 c -3.08341,0.13753 -6.48049,4.31788 -9.80042,0.82889 1.93603,4.81497 5.47482,2.51766 5.72427,3.23524 3.5263,5.88008 8.73172,1.09866 7.54031,-1.65895 -1.0858,-1.87987 -2.25763,-2.45899 -3.46416,-2.40518 z"
         id="path3552"
         inkscape:connector-curvature="0" />
      <path
         style="display:inline;fill:#000000;fill-opacity:1;fill-rule:evenodd;stroke:none"
         d="m -548.77089,35.34624 c -2.71644,12.33688 -7.76823,21.07047 -13.26738,27.34961 2.28573,-0.62659 4.87078,-2.40334 7.35527,-3.96221 -1.51963,3.23498 -3.05724,6.03621 -4.57682,8.89072 0.90717,-0.30742 3.79757,-3.19007 7.7076,-7.41702 0.61237,5.81162 1.4474,8.55797 2.68508,12.49868 0.98603,-3.9342 1.7009,-6.62089 2.48373,-12.5998 2.35674,2.67392 4.62843,5.36182 7.8173,7.65562 l -4.46391,-9.19642 c 2.31172,1.47797 4.88441,3.40979 7.33595,4.23459 -5.81218,-6.59359 -10.73107,-15.11508 -13.07682,-27.45377 z"
         id="path3554"
         inkscape:connector-curvature="0" />
    </g>
    <g
       transform="matrix(2.5345004,0,0,2.5345004,1775.7811,-32.199141)"
       id="g3427">
      <path
         style="display:inline;fill:#000000;fill-opacity:1;fill-rule:evenodd;stroke:none"
         d="m -483.25134,19.66383 c 4.17511,5.17924 -7.50003,7.24031 -1.20538,12.14267 2.68457,1.66458 8.9556,-1.93881 3.44649,-6.36743 -0.71182,-0.37916 2.47786,-2.99735 -2.24111,-5.77524 z"
         id="path3386"
         inkscape:connector-curvature="0" />
      <path
         style="display:inline;fill:#000000;fill-opacity:1;fill-rule:evenodd;stroke:none"
         d="m -476.28669,31.94277 c -1.04447,0.09831 -2.05108,0.74291 -3.00147,2.38762 -1.19195,2.75738 4.0496,7.53981 7.57704,1.66042 0.2496,-0.71754 3.75085,1.58046 5.68784,-3.23414 -3.32064,3.48835 -6.71691,-0.67575 -9.80026,-0.81385 -0.15082,-0.0068 -0.31395,-0.01409 -0.46315,-5e-5 z"
         id="path3388"
         inkscape:connector-curvature="0" />
      <path
         style="display:inline;fill:#000000;fill-opacity:1;fill-rule:evenodd;stroke:none"
         d="m -489.19943,31.99233 c -3.08341,0.13753 -6.48049,4.31788 -9.80042,0.82889 1.93603,4.81497 5.47482,2.51766 5.72427,3.23524 3.5263,5.88008 8.73172,1.09866 7.54031,-1.65895 -1.0858,-1.87987 -2.25763,-2.45899 -3.46416,-2.40518 z"
         id="path3390"
         inkscape:connector-curvature="0" />
      <path
         style="display:inline;fill:#000000;fill-opacity:1;fill-rule:evenodd;stroke:none"
         d="m -482.25245,35.34624 c -2.71644,12.33688 -7.76823,21.07047 -13.26738,27.34961 2.28573,-0.62659 4.87078,-2.40334 7.35527,-3.96221 -1.51963,3.23498 -3.05724,6.03621 -4.57682,8.89072 0.90717,-0.30742 3.79757,-3.19007 7.7076,-7.41702 0.61237,5.81162 1.4474,8.55797 2.68508,12.49868 0.98603,-3.9342 1.7009,-6.62089 2.48373,-12.5998 2.35674,2.67392 4.62843,5.36182 7.8173,7.65562 l -4.46391,-9.19642 c 2.31172,1.47797 4.88441,3.40979 7.33595,4.23459 -5.81218,-6.59359 -10.73107,-15.11508 -13.07682,-27.45377 z"
         id="path3392"
         inkscape:connector-curvature="0" />
    </g>
    <g
       transform="matrix(2.5345004,0,0,2.5345004,1775.7811,199.0199)"
       id="g3556">
      <path
         style="display:inline;fill:#000000;fill-opacity:1;fill-rule:evenodd;stroke:none"
         d="m -483.25134,19.66383 c 4.17511,5.17924 -7.50003,7.24031 -1.20538,12.14267 2.68457,1.66458 8.9556,-1.93881 3.44649,-6.36743 -0.71182,-0.37916 2.47786,-2.99735 -2.24111,-5.77524 z"
         id="path3558"
         inkscape:connector-curvature="0" />
      <path
         style="display:inline;fill:#000000;fill-opacity:1;fill-rule:evenodd;stroke:none"
         d="m -476.28669,31.94277 c -1.04447,0.09831 -2.05108,0.74291 -3.00147,2.38762 -1.19195,2.75738 4.0496,7.53981 7.57704,1.66042 0.2496,-0.71754 3.75085,1.58046 5.68784,-3.23414 -3.32064,3.48835 -6.71691,-0.67575 -9.80026,-0.81385 -0.15082,-0.0068 -0.31395,-0.01409 -0.46315,-5e-5 z"
         id="path3560"
         inkscape:connector-curvature="0" />
      <path
         style="display:inline;fill:#000000;fill-opacity:1;fill-rule:evenodd;stroke:none"
         d="m -489.19943,31.99233 c -3.08341,0.13753 -6.48049,4.31788 -9.80042,0.82889 1.93603,4.81497 5.47482,2.51766 5.72427,3.23524 3.5263,5.88008 8.73172,1.09866 7.54031,-1.65895 -1.0858,-1.87987 -2.25763,-2.45899 -3.46416,-2.40518 z"
         id="path3562"
         inkscape:connector-curvature="0" />
      <path
         style="display:inline;fill:#000000;fill-opacity:1;fill-rule:evenodd;stroke:none"
         d="m -482.25245,35.34624 c -2.71644,12.33688 -7.76823,21.07047 -13.26738,27.34961 2.28573,-0.62659 4.87078,-2.40334 7.35527,-3.96221 -1.51963,3.23498 -3.05724,6.03621 -4.57682,8.89072 0.90717,-0.30742 3.79757,-3.19007 7.7076,-7.41702 0.61237,5.81162 1.4474,8.55797 2.68508,12.49868 0.98603,-3.9342 1.7009,-6.62089 2.48373,-12.5998 2.35674,2.67392 4.62843,5.36182 7.8173,7.65562 l -4.46391,-9.19642 c 2.31172,1.47797 4.88441,3.40979 7.33595,4.23459 -5.81218,-6.59359 -10.73107,-15.11508 -13.07682,-27.45377 z"
         id="path3564"
         inkscape:connector-curvature="0" />
    </g>
  </g>
</svg>
