<?xml version="1.0" encoding="UTF-8" standalone="no"?>
<svg
   xmlns:dc="http://purl.org/dc/elements/1.1/"
   xmlns:cc="http://creativecommons.org/ns#"
   xmlns:rdf="http://www.w3.org/1999/02/22-rdf-syntax-ns#"
   xmlns:svg="http://www.w3.org/2000/svg"
   xmlns="http://www.w3.org/2000/svg"
   xmlns:sodipodi="http://sodipodi.sourceforge.net/DTD/sodipodi-0.dtd"
   xmlns:inkscape="http://www.inkscape.org/namespaces/inkscape"
   inkscape:version="1.0.1 (c497b03c, 2020-09-10)"
   sodipodi:docname="Drapeau_deÌpartement_fr_Mayenne.svg"
   id="svg2"
   height="533.33331"
   width="800"
   version="1.0">
  <metadata
     id="metadata114">
    <rdf:RDF>
      <cc:Work
         rdf:about="">
        <dc:format>image/svg+xml</dc:format>
        <dc:type
           rdf:resource="http://purl.org/dc/dcmitype/StillImage" />
        <dc:title />
      </cc:Work>
    </rdf:RDF>
  </metadata>
  <sodipodi:namedview
     inkscape:current-layer="svg2"
     inkscape:window-maximized="0"
     inkscape:window-y="25"
     inkscape:window-x="0"
     inkscape:cy="243.47909"
     inkscape:cx="400.89222"
     inkscape:zoom="0.98994949"
     showgrid="false"
     id="namedview112"
     inkscape:window-height="942"
     inkscape:window-width="1920"
     inkscape:pageshadow="2"
     inkscape:pageopacity="0"
     guidetolerance="10"
     gridtolerance="10"
     objecttolerance="10"
     borderopacity="1"
     inkscape:document-rotation="0"
     bordercolor="#666666"
     pagecolor="#ffffff" />
  <defs
     id="defs6" />
  <path
     inkscape:connector-curvature="0"
     id="path452"
     style="fill:#e20909;fill-opacity:1;stroke:none;stroke-width:1.51083;stroke-linecap:round;stroke-linejoin:round;stroke-miterlimit:4;stroke-dasharray:none"
     d="M 0,0 V 533.33334 H 800 V 0 Z"
     sodipodi:nodetypes="ccccc" />
  <g
     id="g482"
     transform="matrix(0.81250002,0,0,0.81250002,74.999999,50.000002)"
     style="fill:#2b5df2;fill-opacity:1">
    <rect
       style="fill:#2b5df2;fill-opacity:1;stroke:none;stroke-width:1.44783;stroke-linecap:round;stroke-linejoin:round;stroke-miterlimit:4;stroke-dasharray:none"
       id="rect454"
       width="773.33331"
       height="506.66666"
       x="13.333337"
       y="13.333332" />
    <path
       style="fill:#2b5df2;fill-opacity:1;stroke:none;stroke-width:1px;stroke-linecap:butt;stroke-linejoin:miter;stroke-opacity:1"
       d="M 781.42853,270.66666 C 757.3845,266.43674 725.8708,328.68332 692.8506,329.26 656.91144,329.88766 638.52377,269.70237 590.71426,270.66666 554.52716,271.39654 535.74702,329.0511 499.29668,329.26 454.9695,329.51404 444.14589,270.55674 399.99999,270.66666 357.69203,270.77201 337.73997,330.20335 302.132,329.26 274.39145,328.52508 249.45675,271.43798 209.28572,270.66666 162.60616,269.77037 143.49691,329.3553 113.58437,329.26 83.195881,329.1632 28.830887,283.35358 18.571456,270.66666 v -66 c 10.259431,12.68692 64.624425,58.49654 95.012914,58.59334 29.91254,0.0953 49.02179,-59.48963 95.70135,-58.59334 40.17103,0.77132 65.10573,57.85842 92.84628,58.59334 35.60797,0.94335 55.56003,-58.48799 97.86799,-58.59334 44.1459,-0.10992 54.96951,58.84738 99.29669,58.59334 36.45034,-0.2089 55.23048,-57.86346 91.41758,-58.59334 47.80951,-0.96429 66.19718,59.221 102.13634,58.59334 33.0202,-0.57668 64.5339,-62.82326 88.57793,-58.59334 z"
       id="path456"
       sodipodi:nodetypes="csssssssccssssssscc" />
    <g
       id="g476"
       style="fill:#2b5df2;fill-opacity:1">
      <g
         id="g462"
         fill="#fcef3c"
         transform="matrix(0.80899054,0,0,0.8093838,122.73304,37.481879)"
         style="fill:#2b5df2;fill-opacity:1;stroke:none;stroke-width:1.23581">
        <rect
           x="69.224998"
           y="147.132"
           width="62.459"
           height="10.104"
           rx="3.22"
           id="rect458"
           style="fill:#2b5df2;fill-opacity:1;stroke:none;stroke-width:1.23581" />
        <path
           d="m 100.024,29.61 c 13.531,14.626 21.487,22.691 22.877,45.385 1.287,21.001 -12.689,38.559 -15.701,58.871 -0.571,3.853 -1.061,11.718 -0.545,14.907 0.382,2.362 1.558,9.578 2.841,0.65 0.264,-1.837 0.454,-11.05 1.263,-15.729 1.476,-8.524 6.2,-23.513 14.395,-31.818 8.193,-8.301 21.174,-13.685 32.751,-9.343 10.49,4.84 11.481,18.508 8.497,28.503 -3.738,12.517 -18.022,21.181 -30.828,22.03 2.537,-5.018 8.611,-19.341 2.023,-18.772 -7.625,0.658 -16.745,13.631 -19.12,22.531 -0.894,3.351 -0.533,8.555 -5.321,8.34 3.157,10.667 12.07,17.726 19.878,25.173 -8.14,0.676 -16.192,-3.154 -23.294,-6.803 0.301,7.314 -1.119,22.765 -9.716,31.201 -7.979,-8.687 -8.705,-19.283 -8.855,-31.201 -7.102,3.649 -15.154,7.479 -23.293,6.803 7.808,-7.447 16.72,-14.506 19.877,-25.173 -4.788,0.215 -5.076,-4.664 -5.97,-8.016 -2.375,-8.899 -10.846,-22.197 -18.471,-22.855 -6.587,-0.569 -0.514,13.754 2.024,18.772 -12.806,-0.849 -27.09,-9.513 -30.828,-22.03 -2.985,-9.995 -1.993,-23.663 8.496,-28.503 11.577,-4.342 24.559,1.042 32.751,9.343 8.196,8.305 12.92,23.294 14.395,31.818 0.81,4.679 0.674,13.243 0.938,15.079 1.284,8.929 2.784,2.362 3.167,0 0.516,-3.189 0.026,-11.054 -0.546,-14.907 C 90.697,113.554 78.044,95.282 78.008,74.995 77.976,56.677 87.186,42.739 100.024,29.61 Z"
           id="path460"
           style="fill:#2b5df2;fill-opacity:1;stroke:none;stroke-width:1.23581" />
      </g>
      <g
         id="g468"
         fill="#fcef3c"
         transform="matrix(0.80899054,0,0,0.8093838,514.73304,37.481879)"
         style="fill:#2b5df2;fill-opacity:1;stroke:none;stroke-width:1.23581">
        <rect
           x="69.224998"
           y="147.132"
           width="62.459"
           height="10.104"
           rx="3.22"
           id="rect464"
           style="fill:#2b5df2;fill-opacity:1;stroke:none;stroke-width:1.23581" />
        <path
           d="m 100.024,29.61 c 13.531,14.626 21.487,22.691 22.877,45.385 1.287,21.001 -12.689,38.559 -15.701,58.871 -0.571,3.853 -1.061,11.718 -0.545,14.907 0.382,2.362 1.558,9.578 2.841,0.65 0.264,-1.837 0.454,-11.05 1.263,-15.729 1.476,-8.524 6.2,-23.513 14.395,-31.818 8.193,-8.301 21.174,-13.685 32.751,-9.343 10.49,4.84 11.481,18.508 8.497,28.503 -3.738,12.517 -18.022,21.181 -30.828,22.03 2.537,-5.018 8.611,-19.341 2.023,-18.772 -7.625,0.658 -16.745,13.631 -19.12,22.531 -0.894,3.351 -0.533,8.555 -5.321,8.34 3.157,10.667 12.07,17.726 19.878,25.173 -8.14,0.676 -16.192,-3.154 -23.294,-6.803 0.301,7.314 -1.119,22.765 -9.716,31.201 -7.979,-8.687 -8.705,-19.283 -8.855,-31.201 -7.102,3.649 -15.154,7.479 -23.293,6.803 7.808,-7.447 16.72,-14.506 19.877,-25.173 -4.788,0.215 -5.076,-4.664 -5.97,-8.016 -2.375,-8.899 -10.846,-22.197 -18.471,-22.855 -6.587,-0.569 -0.514,13.754 2.024,18.772 -12.806,-0.849 -27.09,-9.513 -30.828,-22.03 -2.985,-9.995 -1.993,-23.663 8.496,-28.503 11.577,-4.342 24.559,1.042 32.751,9.343 8.196,8.305 12.92,23.294 14.395,31.818 0.81,4.679 0.674,13.243 0.938,15.079 1.284,8.929 2.784,2.362 3.167,0 0.516,-3.189 0.026,-11.054 -0.546,-14.907 C 90.697,113.554 78.044,95.282 78.008,74.995 77.976,56.677 87.186,42.739 100.024,29.61 Z"
           id="path466"
           style="fill:#2b5df2;fill-opacity:1;stroke:none;stroke-width:1.23581" />
      </g>
      <g
         id="g474"
         style="fill:#2b5df2;fill-opacity:1">
        <path
           d="m 399.65151,307.73344 c 10.94645,11.83805 17.38278,18.36573 18.50728,36.73389 1.04117,16.99787 -10.26528,31.20903 -12.70196,47.64923 -0.46194,3.11856 -0.85834,9.48436 -0.4409,12.06549 0.30903,1.91176 1.2604,7.75227 2.29834,0.5261 0.21357,-1.48684 0.36728,-8.9437 1.02175,-12.7308 1.19407,-6.89919 5.01574,-19.03104 11.64542,-25.75298 6.62806,-6.71869 17.12957,-11.07641 26.49525,-7.56207 8.48631,3.91742 9.28802,14.98008 6.87399,23.06987 -3.024,10.13105 -14.57962,17.14356 -24.93956,17.83072 2.05241,-4.06149 6.96622,-15.65429 1.63659,-15.19375 -6.16855,0.53257 -13.54655,11.03271 -15.4679,18.23623 -0.72324,2.71224 -0.43119,6.92427 -4.30464,6.75026 2.55399,8.63369 9.76452,14.34713 16.08112,20.37462 -6.58519,0.54714 -13.09918,-2.5528 -18.84463,-5.50624 0.24351,5.91983 -0.90526,18.42562 -7.86015,25.25358 -6.45494,-7.03112 -7.04226,-15.60735 -7.16361,-25.25358 -5.74545,2.95344 -12.25944,6.05338 -18.84382,5.50624 6.3166,-6.02749 13.52632,-11.74093 16.08031,-20.37462 -3.87345,0.17401 -4.10644,-3.77497 -4.82968,-6.48802 -1.92135,-7.20271 -8.77431,-17.9659 -14.94286,-18.49847 -5.32882,-0.46054 -0.41582,11.13226 1.6374,15.19375 -10.35994,-0.68716 -21.91556,-7.69967 -24.93956,-17.83072 -2.41484,-8.08979 -1.61232,-19.15245 6.87318,-23.06987 9.36568,-3.51434 19.868,0.84338 26.49525,7.56207 6.63048,6.72194 10.45216,18.85379 11.64542,25.75298 0.65528,3.7871 0.54526,10.71867 0.75883,12.2047 1.03874,7.22698 2.25223,1.91176 2.56207,0 0.41744,-2.58113 0.021,-8.94693 -0.44171,-12.06549 -2.43667,-16.4402 -12.67283,-31.22926 -12.70196,-47.64923 -0.0259,-14.82629 7.42492,-26.10749 17.81074,-36.73389 z"
           id="path470"
           style="fill:#2b5df2;fill-opacity:1;stroke:none;stroke-width:1" />
        <rect
           x="374.73541"
           y="402.85385"
           width="50.52874"
           height="8.1780138"
           rx="2.6049495"
           id="rect472"
           style="fill:#2b5df2;fill-opacity:1;stroke:none;stroke-width:1" />
      </g>
    </g>
    <path
       inkscape:connector-curvature="0"
       id="path478"
       style="fill:#2b5df2;fill-opacity:1;stroke:none;stroke-width:1.51083;stroke-linecap:round;stroke-linejoin:round;stroke-miterlimit:4;stroke-dasharray:none"
       d="M 3.0793619e-6,3.20319e-6 V 533.33332 H 799.99998 V 3.20319e-6 Z"
       sodipodi:nodetypes="ccccc" />
  </g>
  <g
     id="g918"
     transform="translate(0,-3.1485924)">
    <g
       id="g656"
       transform="translate(9.9995708,18)">
      <g
         id="g642"
         transform="translate(-60,39.999951)">
        <path
           d="m 281.09626,367.37454 c -4.68509,11.05076 -10.47711,15.52422 -16.09974,20.95427 6.30224,0.0288 12.5839,-1.18027 19.0939,-6.63606 0.11088,16.83385 2.53943,22.58833 8.39346,28.24413 5.78762,-5.47903 8.46207,-11.39167 8.44255,-28.24413 6.51,5.45579 12.7753,6.66481 19.07753,6.63606 -5.62222,-5.42966 -11.39847,-9.9053 -16.08337,-20.95427 z"
           fill="#fcef3c"
           fill-rule="evenodd"
           stroke="#000000"
           stroke-width="2.5"
           id="path173" />
        <path
           d="m 267.10718,359.07974 h 50.78613 v 8.3022 h -50.78613 z"
           fill="#fcef3c"
           stroke="#000000"
           stroke-width="2.5"
           id="path175" />
        <path
           d="m 292.49378,262.00441 c -18.29437,19.40192 -25.33639,41.75191 -10.7986,69.74404 3.32027,8.50382 5.93645,17.28361 5.3993,27.32882 h 10.79861 c -0.53715,-10.04521 2.07903,-18.825 5.3993,-27.32882 14.53779,-27.99212 7.49577,-50.34212 -10.79861,-69.74404 z"
           fill="#fcef3c"
           fill-rule="evenodd"
           stroke="#000000"
           stroke-width="2.5"
           id="path177-2" />
        <path
           d="m 253.73334,310.15673 c -18.44811,0.44215 -30.74779,31.39178 7.96806,46.48514 -12.79587,-25.04023 10.94036,-15.76025 14.07091,2.4354 h 9.17881 c -5.06779,-36.9584 -19.39929,-49.20379 -31.21778,-48.92054 z"
           fill="#fcef3c"
           fill-rule="evenodd"
           stroke="#000000"
           stroke-width="2.5"
           id="path179" />
        <path
           d="m 330.55069,310.15673 c -11.67633,0.21843 -25.53152,12.70172 -30.49788,48.92054 h 9.16245 c 3.13071,-18.19565 26.88314,-27.47563 14.08727,-2.4354 39.21221,-15.28687 26.08497,-46.83751 7.24816,-46.48514 z"
           fill="#fcef3c"
           fill-rule="evenodd"
           stroke="#000000"
           stroke-width="2.5"
           id="path181" />
      </g>
      <g
         id="use184"
         stroke="#000000"
         stroke-width="1.4361"
         transform="matrix(1.7417051,0,0,1.7399445,484.30003,297.85278)">
        <path
           d="m 29.738807,62.945549 c -2.689943,6.351213 -6.015432,8.922247 -9.243665,12.043068 3.618431,0.01652 7.225043,-0.678341 10.962762,-3.813951 0.06366,9.674934 1.458013,12.982212 4.819106,16.232778 3.322963,-3.148967 4.858497,-6.547149 4.847287,-16.232778 3.737718,3.135613 7.334938,3.830472 10.953368,3.813951 -3.227999,-3.120592 -6.544434,-5.692883 -9.234271,-12.043068 z"
           fill="#fcef3c"
           fill-rule="evenodd"
           stroke="#000000"
           stroke-width="1.4361"
           id="path377" />
        <path
           d="m 21.706974,58.178268 h 29.158859 v 4.771534 H 21.706974 Z"
           fill="#fcef3c"
           stroke="#000000"
           stroke-width="1.4361"
           id="path379" />
        <path
           d="m 126.28125,7.9375 c -34.941678,37.094566 -48.391726,79.825556 -20.625,133.34375 6.34161,16.25846 11.33844,33.04455 10.3125,52.25 h 20.625 c -1.02594,-19.20545 3.97088,-35.99154 10.3125,-52.25 27.76673,-53.518189 14.31668,-96.249184 -20.625,-133.34375 z"
           fill="#fcef3c"
           fill-rule="evenodd"
           stroke="#000000"
           stroke-width="4.77734"
           transform="matrix(0.300607,0,0,0.300607,-1.678333,0)"
           id="path381" />
        <path
           d="m 52.25,100 c -35.235309,0.84534 -58.7273133,60.01799 15.21875,88.875 -24.439711,-47.87444 20.895745,-30.13204 26.875,4.65625 H 111.875 C 102.19567,122.87043 74.822961,99.458446 52.25,100 Z"
           fill="#fcef3c"
           fill-rule="evenodd"
           stroke="#000000"
           stroke-width="4.77734"
           transform="matrix(0.300607,0,0,0.300607,-1.678333,0)"
           id="path383" />
        <path
           d="m 198.96875,100 c -22.30142,0.41761 -48.7644,24.28444 -58.25,93.53125 h 17.5 C 164.19831,158.74296 209.56471,141.00056 185.125,188.875 260.01909,159.64802 234.94647,99.326296 198.96875,100 Z"
           fill="#fcef3c"
           fill-rule="evenodd"
           stroke="#000000"
           stroke-width="4.77734"
           transform="matrix(0.300607,0,0,0.300607,-1.678333,0)"
           id="path385" />
      </g>
    </g>
    <g
       id="g635">
      <g
         id="g200"
         style="fill:#fcef3c;stroke:#000000;stroke-width:2.7445;stroke-linecap:round;stroke-linejoin:round"
         transform="matrix(0.85837614,0,0,0.85823118,138.94156,65.446574)">
        <path
           d="m 292.49084,200.63047 c -5.25547,0.10356 -9.86996,4.37835 -13.30655,16.29443 9.22839,-8.32182 14.70122,-3.66936 20.41267,0.15464 -0.70011,-0.32799 9.97419,-6.75368 7.93713,-9.36502 -5.27001,-4.01849 -10.40606,-7.17548 -15.04325,-7.08405 z m -6.06939,37.98547 c -0.83742,0.0661 -1.73797,0.50341 -2.70046,1.42136 -14.18534,8.63105 -13.69652,17.41767 -2.49476,26.31443 2.17564,-13.86429 7.35209,-12.71879 12.47384,-11.84616 1.31615,1.39195 -1.41664,-16.35179 -7.27862,-15.88963 z m 72.99855,9.51512 c -5.18391,0.0763 -13.35978,3.56315 -10.60774,4.92586 4.00294,1.98211 6.76834,4.92987 1.81301,13.89973 15.98577,-3.39486 12.10056,-10.23324 12.70111,-16.29443 0.18757,-1.89411 -1.55006,-2.56587 -3.90638,-2.53116 z m -32.11186,11.81204 c -5.00732,-0.078 -9.87772,1.55987 -8.20753,5.96744 3.58144,9.16408 7.78255,12.93101 10.43357,14.95266 2.03132,-1.4426 5.9441,-7.41568 6.80422,-16.59462 1.1225,-2.45327 -4.02292,-4.24757 -9.03026,-4.32548 z"
           fill="#2b5df2"
           id="path186" />
        <path
           d="m 412.80674,151.59574 -29.70314,-34.41547 -5.94063,8.74364 c 0.20026,6.04293 -10.14334,10.56781 -27.88792,19.92423 -15.59552,9.70826 -30.89792,22.64896 -6.10564,50.02714 4.40022,4.85081 9.65134,13.23232 -11.88126,26.18519 -2.40701,0.7261 -6.61474,2.07765 -12.54132,0.99748 -1.84834,-4.07566 -1.98526,-7.28959 -1.65019,-10.26589 -2.82094,-13.8877 -26.8003,-1.33035 -18.48193,10.92049 10.55161,7.73407 7.34121,10.14466 -3.63039,9.55303 -5.54541,1.0736 -11.11658,2.17565 -18.81199,5.62404 -0.0956,1.66094 -0.11053,3.24735 0.66008,4.10636 11.99004,-1.64764 13.28795,10.92013 13.20138,13.72327 1.61061,0.27781 3.14865,0.62283 5.61059,0.11237 12.22706,-7.81953 13.46732,-7.4629 16.69465,-7.33255 4.83813,1.41232 -2.15277,16.5678 7.39789,20.99652 6.02412,-11.38713 16.21206,-5.1863 17.6708,-0.91093 2.44968,-3.26898 2.30402,-8.44094 1.80125,-13.87474 1.76792,-12.15875 7.92736,-5.6523 10.56113,-0.63821 6.20088,-7.46835 9.50507,-4.92291 13.64532,0.44084 2.95101,0.27992 3.26616,-0.1333 4.50657,-1.32591 l 1.6502,-8.60414 c 0.53167,-11.49097 9.59763,-11.80122 11.5698,-1.71545 1.57773,-1.57556 3.63009,-2.50711 3.65448,-4.08739 0.23899,-15.48782 1.28934,-11.89885 9.02862,-2.09523 3.74038,-31.74685 6.72034,-10.47956 10.07071,-15.03644 3.67452,-8.01787 -9.46659,-18.52741 10.89115,-17.16024 -3.26973,-4.29114 -11.37629,-4.64405 -8.58092,-13.87349 1.04838,-5.87399 -5.0152,-8.18867 -12.87134,-9.60618 -16.364,-4.67343 -6.77691,-9.65677 -2.97032,-13.46623 l 14.20079,-8.70078 z"
           id="path188" />
        <path
           d="m 389.55469,20.658203 c -3.27115,3.280761 -7.14107,6.191551 -16.07813,9.423828 -7.24999,2.622322 -17.37007,2.240369 -20.87695,2.09375 -11.25123,-0.467488 -14.95927,-3.497295 -26.98242,-4.628906 -7.19976,-0.677537 -17.84168,-0.365777 -26.57031,3.271484 -0.66829,0.278435 -1.36161,-0.464532 -1.65626,-0.902343 -0.83009,-3.629827 -6.56577,-6.385135 -12.17187,-6.25 -11.21002,0.276631 -11.66987,5.676298 -17.99805,7.826172 -4.85514,1.649337 -9.54291,2.419343 -13.24609,1.402343 1.81902,3.567213 6.24742,7.042361 12.69141,6.72461 7.81157,-0.385265 9.57837,-6.740175 16.21679,-6.933594 5.63339,-0.164112 6.05597,3.625657 3.70508,5.722656 -3.33891,2.978202 -5.66555,6.197889 -7.41211,9.449219 -3.48121,6.48039 -4.80229,16.0335 -2.11523,22.6875 4.58206,11.34563 19.31752,19.877231 42.82226,19.832031 33.42029,-0.05991 51.11548,-12.275482 63.80664,-20.638672 6.37172,-4.19884 17.00997,-11.602312 28.67188,-17.695312 11.25913,-5.88251 26.53663,-10.309883 36.15625,-8.761719 -15.45815,3.68918 -31.17673,12.112599 -42.06055,22.568359 -10.94401,10.51371 -18.07144,19.302504 -30.83203,23.996094 -11.032,4.05764 -19.56999,3.575362 -24.99219,3.107422 3.56334,4.636661 35.28444,10.692355 53.25,-3.447266 14.47492,-11.39237 35.43916,-39.344533 74.13477,-36.126953 -23.47773,7.38369 -29.85321,17.054873 -39.56055,26.939453 -7.99656,8.14265 -18.41338,10.5665 -24.32422,10.5625 5.21,4.55216 17.38111,5.870618 28.03711,2.035157 9.45101,-3.40202 16.27025,-10.821292 23.66016,-17.300782 8.81954,-7.73326 25.37494,-14.543719 40.41211,-11.693359 -11.49852,3.8665 -18.28165,10.732336 -18.63867,16.566406 -0.26663,4.35704 5.03138,13.361604 20.95507,12.777344 13.53762,-0.49703 12.39916,-9.760566 20.66602,-10.191406 4.76163,-0.24816 8.25686,0.09621 10.13867,4.154297 3.9342,-9.26638 -5.0054,-12.220387 -11.07812,-10.919922 -8.35701,1.789644 -10.89876,5.269252 -13.63672,5.294922 -5.43896,0.051 -8.02555,-2.865486 -5.82617,-5.791016 15.92011,-12.074461 31.60353,-9.047039 43.13281,5.273438 6.58741,26.699622 -34.80863,30.472022 -54.95508,32.861332 -21.56271,2.44401 -68.63055,4.53596 -93.22852,-5.84961 l -19.54492,24.13281 c -13.08456,4.31899 -26.70179,22.98461 -40.79297,31.21289 25.16269,-6.84287 35.5782,-12.25421 53.69532,-14.80664 l 21.83984,-20.91992 c 8.83859,3.05033 54.24595,-0.74591 79.81836,-1.41407 31.15945,-0.81421 56.55755,-4.63239 68.80791,-29.55273 5.90696,-15.137423 -4.69621,-18.934852 12.48506,-32.230515 -5.24072,-1.470694 -11.5349,-1.062712 -14.5918,2.761719 C 542.95887,52.966683 513.20032,47.488218 492.35156,37.005813 480.86632,31.177676 467.61149,27.226785 450.3125,26.845657 c -23.34447,-0.514286 -43.14932,10.011749 -52.57227,15.378906 -12.08176,6.881541 -22.05058,13.92509 -32.19531,20.59375 -11.80811,7.76205 -25.54013,13.04741 -42.75,13.03711 -17.16952,-0.01028 -28.87148,-7.076147 -26.22656,-19.154297 1.99672,-9.11773 11.68092,-15.43487 23.00976,-14.369141 7.68633,0.722929 11.36978,4.791893 10.10352,9.658203 -1.33058,5.11363 -4.73682,8.4229 -12.43945,9.16211 6.79826,3.25292 15.72994,1.341635 20.46875,-2.546875 4.61469,-3.78673 5.51851,-9.417271 4.5664,-12.707031 4.71127,0.65599 9.61205,1.011856 15.03907,0.472656 8.1504,-0.81002 21.23309,-5.948953 26.3164,-12.400391 2.75015,-3.490463 5.40047,-8.527166 5.92188,-13.3125 z"
           transform="translate(4,-8)"
           id="path190" />
        <path
           d="m 54.538909,178.87802 c -5.760708,0.10551 -10.846758,3.44178 -13.877157,10.04048 12.37436,-1.32414 15.507981,1.82817 15.809608,6.35176 l 18.241343,-4.34141 C 68.462485,182.7897 61.067702,178.75848 54.538909,178.87802 Z M 35.40681,230.32204 c -13.701823,6.17199 -16.998641,21.38691 -1.30709,29.26175 -2.374105,-10.34833 1.208203,-16.20261 9.594243,-18.43442 z m 88.82806,22.96911 -14.23212,0.75731 c 3.8547,5.88168 4.35765,12.41732 -1.08482,20.11276 11.03868,-1.20215 19.14364,-5.25011 15.31694,-20.87007 z m -56.90363,0.47076 c -8.16547,15.97554 -2.126975,26.34091 18.860064,30.80591 -7.51351,-8.14851 -7.296033,-15.69608 -2.746898,-22.90771 z"
           fill="#2b5df2"
           id="path192" />
        <path
           d="m 572.00788,213.6228 v 14.05892 c 7.80464,-2.34055 14.04711,-1.31854 17.15983,6.44501 5.70653,-14.40465 -3.31364,-19.05182 -17.15983,-20.50393 z m -76.81699,29.37773 c -10.35158,8.02005 -17.43242,16.77712 -4.97131,29.93263 0.81063,-10.12147 6.19304,-16.98678 15.55582,-21.01787 z m 84.83542,12.67624 -21.16905,8.79422 c 9.11799,3.19215 10.69288,10.50961 11.3857,18.30934 14.46796,-7.15515 10.33201,-17.43008 9.78335,-27.10356 z m -59.01689,4.39597 c -9.3816,8.74229 -11.11507,16.77907 0,23.63089 2.38986,-5.71373 1.30861,-12.80408 14.1127,-14.38866 z"
           fill="#2b5df2"
           id="path194" />
        <path
           d="m 220.96184,218.55494 c 15.89977,-14.39036 15.16445,-3.30887 16.51341,2.5334 19.62587,-31.81161 11.38941,-20.63877 17.80111,-16.30838 15.02404,-27.24751 10.68401,-11.31129 13.79184,-11.98453 11.6125,-24.21521 11.99733,-16.08506 16.1974,-18.94607 19.04826,-21.58592 58.02498,-28.72056 94.77882,-37.46713 13.71242,3.00864 14.12415,10.74613 15.87665,18.00693 6.21275,3.33725 10.09073,10.0199 12.02777,19.48365 31.52959,28.66362 69.13775,20.58775 104.08029,28.62323 4.29201,5.445 9.0217,10.60302 14.5937,15.20877 -0.8386,4.06356 0.17279,7.71928 1.44331,11.31782 -7.80763,2.16523 -12.89557,-1.0461 -25.3385,10.28256 l -8.33924,1.03089 c -5.42923,-0.2206 -5.31988,2.10537 -3.52815,5.2049 2.85465,-1.03527 7.84162,3.07722 14.11259,10.28953 20.23103,-12.33141 21.23176,-8.43937 23.73478,-6.63862 -8.83412,5.84436 -13.34753,4.28823 -10.58442,13.52085 8.19615,-1.79286 11.42864,4.91526 15.55592,10.09095 3.90795,0.15149 8.06069,1.8167 10.7448,-5.59942 2.1929,-9.62225 11.01783,-6.89709 12.50889,1.66929 17.21615,-13.9323 19.33348,-9.98508 24.37626,-9.50209 4.87543,-4.93361 2.4461,-8.25676 -1.12258,-11.32871 -25.20351,-9.66723 -7.46589,-16.64976 -2.88667,-17.8496 -5.69147,-3.05845 -5.64002,-10.16809 -0.64149,-20.76751 -3.6865,-0.0254 -6.25324,-0.65121 -15.23516,2.16232 -13.01507,-5.07336 -2.03469,-6.24997 -0.48112,-8.95746 -21.7911,-14.07089 -0.8929,-7.8749 -0.96222,-11.63326 -24.30076,-13.56911 -3.18679,-9.10869 -3.04702,-13.05816 -3.77622,-4.57563 -19.61501,6.58035 -12.34851,-11.99459 -9.69095,1.47169 -21.17239,5.37425 -18.12185,-10.45257 -9.69439,4.68626 -34.36267,13.57069 -64.1481,-18.91098 -12.34851,-15.28498 -44.76202,-40.961271 -67.83661,-39.425514 -38.33802,5.555254 -57.29465,0.719751 -120.2777,19.487674 l -99.75028,6.82584 -17.89516,-1.42026 c 0.51766,41.34005 -5.15919,67.14381 -20.6958,74.58246 -0.767,0.36722 -16.61994,6.95883 -17.40658,7.25978 -15.33137,5.86567 -28.996135,11.98254 -34.812699,9.22433 -6.719239,-2.05755 -8.253974,-5.35486 -6.158838,-9.52016 1.180679,-3.77537 2.069444,-7.54639 1.121236,-11.29001 -0.958019,-1.87955 -0.40414,-4.50799 -4.696412,-4.73597 -4.8098,6.89832 -11.733198,7.87032 -19.905642,5.34007 -2.14788,0.49268 -3.732285,3.07905 -2.266154,6.56042 11.645777,9.19214 8.966498,9.97333 8.995107,19.97983 -7.161386,0.59804 -14.306004,1.20665 -16.324635,5.04935 -3.805046,-0.99724 -7.692233,-2.14486 -10.794999,-1.85639 -1.833741,2.994 -2.822142,5.97538 -2.502192,8.93728 13.038772,7.31009 8.756686,8.8508 10.397283,12.36429 7.777702,-0.27272 14.500606,-4.90277 21.729197,-7.44391 11.11164,-1.91535 9.629866,5.95371 6.793814,9.62936 -2.474628,-0.0114 -5.222827,2.73243 -7.922123,4.98342 -1.783027,2.90497 -1.358337,4.26711 -0.878106,5.59041 19.409925,1.60911 16.492382,5.69243 21.723365,8.87279 9.087513,3.36847 5.147523,-2.62756 6.30513,-4.95932 -1.478838,-8.29297 2.455595,-8.03701 4.325727,-11.04114 3.110101,-1.76003 8.392151,-4.02353 7.295421,4.57859 0.8113,7.67189 5.43591,7.17157 9.9759,6.85258 -0.52505,-8.96048 4.30697,-9.5157 12.71412,-4.46153 1.79392,-0.53564 3.26933,-1.72387 3.99409,-4.45019 -4.19514,-11.85048 8.74285,-12.01433 15.08416,-5.56487 l -2.01471,10.53201 c 7.80264,-9.34564 14.11296,-13.02871 18.45031,-13.447 -2.00675,6.08982 -2.71388,11.12525 -1.4458,14.55816 11.24392,-14.35775 16.39407,-14.44648 21.01982,-13.3073 -1.29938,5.59571 -1.25714,8.83175 -1.58625,12.72094 6.6633,-3.53588 10.67383,-7.89351 14.46329,-12.31959 7.53648,-3.39677 7.82306,2.00812 6.1293,9.81727 1.87039,0.68674 4.71525,-1.12884 9.53914,-5.00753 5.98734,-9.04446 8.75191,-28.6226 13.27595,-27.21527 z"
           id="path196" />
        <path
           d="m 220.96184,218.55494 c 0.11593,-4.36567 1.3464,-8.21694 -0.80656,-13.62979 1.12638,-1.35942 4.88223,0.6251 8.01851,1.8217 0.95955,-5.65912 -0.15388,-13.56794 -1.28296,-21.49355 3.3775,-0.0739 5.21126,1.34437 7.37703,2.44173 -0.84532,-7.4504 -1.74616,-14.70905 -3.84888,-17.81695"
           fill="none"
           id="path198" />
      </g>
      <g
         id="g228"
         style="fill:#fcef3c;stroke:#000000;stroke-width:2.7445;stroke-linecap:round;stroke-linejoin:round"
         transform="matrix(0.85837614,0,0,0.85823118,138.94156,65.446574)">
        <path
           d="M 69.703775,7.8173765 C 65.757247,6.4256941 60.761074,6.2291076 54.243915,7.4167395 63.35015,12.051942 64.237748,17.839729 66.016475,23.49711 74.912252,24.953177 77.128992,25.447747 77.32836,23.122786 81.004191,15.232027 76.281331,10.136845 69.703775,7.8173765 Z M 118.25825,28.528041 c 2.58069,8.140439 -4.6497,11.848075 -12.73865,10.561807 -0.90759,2.496484 6.43316,15.077309 9.10032,10.643297 9.76754,1.271606 19.99732,-11.029077 3.63833,-21.205104 z m -77.289375,8.301712 c -0.680848,-0.260548 -1.469468,-0.449575 -2.29788,-0.597474 -13.253575,-2.367568 -17.99542,2.611244 -21.316756,18.83365 8.550353,-6.989554 15.390467,-6.885263 23.351916,-2.965165 7.463876,3.675094 10.475541,-11.362781 0.26272,-15.271011 z m 4.422947,36.603402 c -1.406195,-0.552654 -2.488881,-0.31794 -3.631763,1.140374 -6.152246,2.253882 -8.303872,8.980939 -16.709119,-0.521672 4.845814,21.756491 19.478167,17.773325 27.864439,16.363892 3.753709,-6.799653 -3.30486,-15.324768 -7.523557,-16.982594 z"
           fill="#2b5df2"
           stroke-linecap="round"
           stroke-linejoin="round"
           stroke-width="2.7445"
           id="path202" />
        <path
           d="m 150.28244,181.45889 23.46966,-45.30733 -7.42597,-12.1834 c -18.40672,-13.52195 -44.466,-30.413682 -62.37846,-53.091587 -12.388543,-12.501267 2.50982,-17.378371 10.99476,-15.588157 3.61485,-1.485519 2.25213,-4.025887 1.91077,-7.340886 -2.83732,-5.994475 -6.30338,-8.902523 -8.51323,-10.364985 -2.81069,-1.766735 -4.50042,-5.849353 -7.98616,2.804368 -2.367809,6.150281 -17.800936,16.00639 -19.202742,0.190502 1.820476,-4.71618 2.18307,-9.150479 4.735818,-12.496091 -0.237191,-2.613144 1.141993,-5.820091 -3.758611,-7.065169 -8.805034,-0.329459 -14.749854,-0.875166 -19.019678,-1.676846 -4.737327,4.712411 -6.871033,8.360386 5.32266,13.493681 -1.485894,3.929778 -0.777979,8.411192 -5.223073,7.873653 -9.394822,-3.518788 -18.146223,-13.541394 -30.375927,-4.563607 15.077329,6.589641 11.320959,13.79179 3.853697,14.874165 -0.648555,3.945679 1.8703,8.67255 7.541303,8.081979 16.477485,-0.548854 15.82916,1.724702 18.044089,3.954434 -1.793115,7.257126 -4.182269,11.577034 -16.78531,7.50674 -3.516032,-0.112494 -4.967915,-1.618959 -5.442965,2.458078 12.072295,6.354719 13.278631,14.578579 11.465834,20.200892 5.599837,4.463729 2.293402,8.902506 10.638078,-3.955498 6.005061,-6.303818 13.094968,3.083818 6.329219,6.10385 5.854894,5.804034 14.211008,3.819214 0.50716,8.895904 0.752583,3.77269 28.032607,8.86781 4.489765,11.11819 6.838963,4.96706 29.452123,9.84122 5.434391,13.95286 2.156382,4.46768 34.796602,11.77635 5.099229,12.57532 35.789603,15.85307 22.239803,13.99235 13.328722,14.96278 0,0 19.374981,23.49624 30.355761,26.83671 10.98079,3.34048 22.59121,-2.25055 22.59121,-2.25055 z"
           stroke-linecap="round"
           stroke-linejoin="round"
           stroke-width="2.7445"
           id="path204" />
        <path
           d="m 224.17415,24.942641 c -2.74272,-0.996204 -10.907,6.244304 -10.907,6.244304 0,0 -2.93401,-10.297577 -5.51933,-10.773787 -2.58524,-0.47618 -9.80683,7.935391 -9.80683,7.935391 0,0 -1.49197,-8.904417 -3.04805,-8.656352 -1.55615,0.248036 -5.10463,9.551303 -5.7953,10.242669 -26.1934,4.102145 -13.091,34.680187 -37.46549,37.299974 3.66304,1.646617 6.8541,3.831588 12.15756,3.780287 -7.61744,3.388202 -14.29437,15.477712 -23.01039,8.74409 -1.0007,13.98195 5.11409,19.945969 20.31726,16.435007 -24.40566,5.315876 -22.01826,22.928166 -47.83355,17.888066 14.69061,16.28575 28.02292,14.41427 41.71778,11.14101 -28.17256,8.71331 -27.10871,33.29071 -50.10589,22.57751 10.64512,24.50886 29.10073,20.14025 48.28397,12.21914 3.13408,-1.9907 12.35579,-6.08287 12.35579,-6.08287 0,0 -8.24099,4.38379 -12.35579,6.08287 -16.15247,10.2599 -13.67508,29.55036 -3.13487,36.8937 6.47006,-18.30731 18.72241,-18.49493 32.40309,-26.15493 -14.89313,17.58225 2.25742,41.7444 20.63344,34.07038 -10.90359,-10.18223 0.59207,-19.66488 14.13157,-32.89622 -9.2094,9.73777 -1.2847,29.0353 9.75488,24.90632 -4.23546,-9.55006 4.81244,-18.60285 7.80898,-26.28636 2.99298,-7.67427 -0.44711,-18.31248 -3.61697,-24.04088 9.10655,4.51665 10.5483,11.03216 13.70106,18.63478 9.28979,-20.93303 -1.92687,-37.75956 -10.99337,-48.39093 12.13991,11.24067 18.70801,13.01134 25.2415,1.0612 -10.87781,0.64108 -9.60213,-14.39853 -14.12641,-21.562096 4.38982,3.065341 8.22175,3.064111 12.15753,3.780286 -18.40593,-15.658254 7.11177,-33.148213 -9.68676,-50.998 -0.0221,-0.348121 0.69388,-8.290671 0.6673,-8.6322 -0.48437,-6.260373 -6.92547,5.159508 -8.57157,0.325583 0.95701,-4.557977 1.89133,-7.342687 -0.27888,-8.691472 -2.17011,-1.348758 -9.76151,5.058759 -9.76151,5.058759 0,0 -2.57111,-11.159164 -5.31386,-12.155256 z"
           stroke-linecap="round"
           stroke-linejoin="round"
           stroke-width="2.7445"
           id="path206" />
        <path
           d="m 183.85323,82.905167 c 1.76263,0.131398 2.94897,6.104983 8.62842,9.442706 6.49062,3.814507 8.95395,5.257476 16.58144,6.132274 7.62752,0.874787 13.23448,-5.549159 13.88225,-2.593426 0.64776,2.955737 -6.96117,7.224179 -11.29185,14.439869 -4.33059,7.21576 -1.5113,12.35585 -5.99661,14.43399 -4.48523,2.07814 -5.63328,-4.03536 -12.00843,-6.1374 -6.37512,-2.10203 -10.83815,2.27988 -13.48092,-2.31408 -2.64284,-4.59395 2.21553,-7.78322 2.94526,-16.05874 0.73042,-8.275272 -2.36315,-15.014953 -0.0255,-16.982501 0.29209,-0.245988 0.51428,-0.381434 0.76602,-0.362692 z"
           fill="#000000"
           stroke-linecap="round"
           stroke-linejoin="round"
           stroke-width="2.7445"
           id="path208" />
        <path
           d="m 187.30082,87.348477 c -0.48547,4.999281 -1.31463,11.802799 0.0193,13.375623 1.10031,1.29717 3.47455,-4.535558 6.04289,-7.84437 -0.33061,-0.193691 -0.56481,-0.358451 -0.91769,-0.565825 -2.40903,-1.415765 -3.96545,-3.248191 -5.14452,-4.965428 z m 29.98773,9.604919 c -2.26393,0.963319 -5.05909,1.916907 -8.23727,1.552416 -0.0714,-0.0082 -0.10967,-0.04789 -0.18043,-0.05613 -0.42901,4.172338 -3.60511,10.341268 -1.7298,9.933438 2.11946,-0.46092 6.88706,-7.16039 10.14762,-11.429715 z m -28.02845,6.898254 c -1.47561,-0.2961 -5.82949,8.50447 -8.53809,13.33257 1.98518,2.31236 4.88131,0.99797 8.60237,0.89846 -0.52846,-5.30328 0.30132,-13.70835 0.15636,-13.97545 -0.0769,-0.14182 -0.10603,-0.23261 -0.22052,-0.25559 z m 14.98103,5.68666 c -0.075,-0.066 -0.19377,-0.0312 -0.29597,0.001 -0.50482,0.16143 -3.92198,7.28561 -6.83163,10.8714 2.69613,1.94832 4.17889,4.42313 6.28827,4.76009 0.25762,-4.29835 1.91325,-14.68838 0.83935,-15.63296 z"
           fill="#fcef3c"
           fill-rule="evenodd"
           stroke="none"
           id="path210" />
        <g
           stroke-linecap="round"
           stroke-linejoin="round"
           id="g226">
          <path
             d="m 248.54779,65.129173 c 14.64521,0.279228 13.15937,-7.371097 16.84655,-19.004028 -9.25091,2.653402 -19.39247,-3.939232 -21.99309,3.323612 M 189.7908,32.56072 c 1.80091,-7.812259 -10.6353,-8.111845 -17.14904,-15.873197 -3.2976,12.230244 -8.87926,18.077885 3.92937,26.494449 m 7.99218,28.330254 c -5.91192,6.590309 -4.55427,13.457523 6.44796,17.133051 11.0022,3.675426 12.68827,-3.474215 12.68827,-3.474215 0,0 -2.43707,6.916218 8.7017,10.125246 11.13914,3.209241 15.95956,-1.737051 14.57636,-10.595712"
             stroke-width="2.7445"
             id="path212" />
          <path
             d="m 196.56971,74.681617 c 1.98182,-0.823958 4.09231,2.944286 9.12418,4.650499 5.03217,1.7063 9.97008,-0.570676 11.01284,1.075989 1.05037,1.658628 -9.36448,5.702199 -12.76453,4.640637 -3.52514,-1.100616 -9.38971,-9.528523 -7.37249,-10.367125 z"
             stroke-width="2.7445"
             id="path214" />
          <path
             d="m 180.83163,54.990373 c 0.37193,7.079298 1.83185,8.378102 5.39261,11.590759 8.53403,5.930922 13.74631,2.734409 13.86773,-2.913737 -3.27226,-3.690942 -3.96985,-4.748476 -6.00461,-5.669958 -0.57065,-0.258421 -0.66118,6.145351 -4.01065,8.13225 -0.57827,-1.16751 -1.15211,-5.859603 1.29391,-9.146238 -1.98826,-0.667241 -7.33911,0.247627 -10.53899,-1.993076 z m 48.04268,14.163377 c -1.46782,0.02732 -2.99913,0.527872 -6.53066,1.434866 -1.91971,5.088793 1.987,10.307072 9.9887,10.329722 4.69201,-0.646533 6.60309,-0.897505 10.71651,-6.582142 -3.8692,0.04263 -7.83259,-3.766396 -9.84725,-4.343839 0.27148,4.131617 -2.72748,7.708056 -3.83642,8.350949 -1.72231,-3.563927 1.6392,-8.94571 1.02507,-9.055697 -0.54749,-0.09803 -1.02666,-0.142971 -1.51595,-0.133859 z"
             fill="#fcef3c"
             stroke-width="2.7445"
             transform="translate(0,-6)"
             id="path216" />
          <path
             d="m 263.62269,49.030457 c 0,0 -8.00145,-4.408349 -17.15384,9.376459 m -0.496,8.55005 c -3.83522,5.321956 -9.57876,-2.166044 -14.00744,-3.383843 -7.8105,-2.147741 -14.29979,5.234734 -15.11436,-3.208889 m -9.91414,-3.082716 c -5.21524,6.568696 -6.65378,-3.278872 -14.31339,-5.94143 -4.34311,-1.509716 -13.15041,1.453829 -13.48541,-5.164828 m -6.30666,53.226749 c 0,0 -8.07883,7.611681 -8.24568,13.722071 3.33414,0.81664 9.69618,-2.04691 9.69618,-2.04691 0,0 -10.39316,11.07361 -5.7922,20.86732 8.62771,-0.61853 11.35999,-3.29019 11.35999,-3.29019 0,0 -2.0018,11.26191 4.44034,19.20724 9.63493,-2.94629 14.01849,-13.46764 14.01849,-13.46764 0,0 0.84044,3.78261 7.69431,9.21499 9.09439,-5.53527 6.38757,-20.68219 6.38757,-20.68219 0,0 3.76057,6.01109 6.97646,7.23112 3.14408,-5.18464 0.50486,-16.12902 0.50486,-16.12902 M 182.14893,38.572621 C 181.9241,21.252324 172.94456,18.999295 172.94456,18.999295"
             fill="none"
             stroke-width="2.7445"
             id="path218" />
          <path
             d="m 200.54777,107.53414 c 4.77481,5.9746 -13.57327,33.10204 -13.57327,33.10204 0,0 -0.82394,-26.77485 3.11808,-34.24834 0,0 5.6806,-4.82824 10.45519,1.1463 z"
             fill="#2b5df2"
             stroke-width="2.7445"
             id="path220" />
          <path
             d="m 191.37062,50.983449 2.64833,0.856978 c -0.17451,3.379072 -2.04336,5.842282 -3.94224,8.28926 -0.16217,-2.823225 -0.81298,-5.460771 1.29391,-9.146238 z"
             fill="#000000"
             stroke="#000000"
             stroke-width="1.37225"
             id="path222" />
          <path
             d="m 230.55328,63.135379 2.64833,0.856978 c -0.17451,3.379072 -2.04336,5.842282 -3.94224,8.28926 -0.16217,-2.823225 -0.81298,-5.460771 1.29391,-9.146238 z"
             fill="#000000"
             stroke="#000000"
             stroke-width="1.37225"
             id="path224" />
        </g>
      </g>
    </g>
  </g>
  <g
     id="g880">
    <path
       id="path238"
       style="fill-rule:evenodd;stroke:none;fill:#ffffff"
       d="M 318.05078 0 C 316.56166 5.664843 315.61133 12.369813 315.61133 20.921875 C 315.61133 61.125595 336.45117 61.149793 336.45117 101.35352 C 336.45117 141.55723 315.61133 141.54823 315.61133 181.75195 C 315.61133 221.95567 336.45117 221.94473 336.45117 262.14844 C 336.45117 302.35216 315.61133 302.34316 315.61133 342.54688 C 315.61133 382.75059 336.45117 382.77286 336.45117 422.97656 C 336.45117 463.18027 315.61133 463.17128 315.61133 503.375 C 315.61133 517.45564 318.17288 526.15977 321.49414 533.33398 L 469.24805 533.33398 C 466.00014 526.02979 463.51953 517.24603 463.51953 503.375 C 463.51953 463.1713 484.35936 463.18028 484.35938 422.97656 C 484.35938 382.77285 463.51952 382.75058 463.51953 342.54688 C 463.51953 302.34316 484.35936 302.35216 484.35938 262.14844 C 484.35938 221.94473 463.51952 221.95566 463.51953 181.75195 C 463.51953 141.54824 484.35936 141.55723 484.35938 101.35352 C 484.35938 61.149793 463.51952 61.125595 463.51953 20.921875 C 463.51953 12.389858 464.41468 5.6798459 465.82617 0 L 318.05078 0 z " />
    <path
       id="path808"
       style="fill-rule:evenodd;stroke-width:1"
       d="M 386.47461,-3.20319e-6 C 385.23675,2.3637155 383.99822,4.6570274 382.76758,6.9687468 383.84289,6.6043594 386.65167,3.9896441 390.50977,-3.20319e-6 Z m 9.7207,0 C 397.13046,6.2219378 398.33185,10.194366 399.95898,15.374997 401.25247,10.214107 402.2641,6.3102895 403.27344,-3.20319e-6 Z m 12.77735,0 C 411.35198,2.530858 413.91167,4.9772116 416.99805,7.1972624 L 413.50391,-3.20319e-6 Z M 344.71289,3.0878874 c 6.90618,8.5670706 -12.40436,11.9768876 -1.99219,20.0859376 4.44063,2.75341 14.81396,-3.207753 5.70118,-10.533203 -1.17746,-0.62717 4.0968,-4.9577846 -3.70899,-9.5527346 z m 107.50391,0.00195 c 6.90617,8.5670506 -12.40632,11.9749146 -1.99414,20.0839846 4.44064,2.75339 14.8159,-3.207763 5.70312,-10.533203 -1.17745,-0.62718 4.09682,-4.9558517 -3.70898,-9.5507816 z M 356.23438,23.398435 c -1.72769,0.16261 -3.3928,1.228688 -4.96485,3.949218 -1.97165,4.56102 6.70031,12.473227 12.53516,2.748047 0.41288,-1.1869 6.20222,2.612328 9.40625,-5.351562 -5.49278,5.77013 -11.11067,-1.117273 -16.21094,-1.345703 -0.24948,-0.0119 -0.51884,-0.0232 -0.76562,0 z m 107.32617,0.03125 c -1.66389,0.21806 -3.26927,1.291258 -4.78711,3.917968 -1.257,2.90784 1.81331,7.170512 5.71484,7.363282 -0.50994,-3.37257 -0.83306,-7.107981 -0.92773,-11.28125 z M 334.875,23.480466 c -5.10036,0.2275 -10.72129,7.142284 -16.21289,1.371093 3.20245,7.964501 9.05809,4.164603 9.4707,5.351563 5.83296,9.72631 14.4434,1.817249 12.47266,-2.744141 -1.79605,-3.10953 -3.7347,-4.067515 -5.73047,-3.978515 z m 107.50391,0.002 c -5.10038,0.2275 -10.7213,7.140341 -16.21289,1.36914 3.20244,7.96453 9.05808,4.166556 9.4707,5.353516 5.83296,9.72634 14.44146,1.817259 12.4707,-2.74414 -1.79606,-3.10953 -3.73277,-4.067516 -5.72851,-3.978516 z m -96.01172,5.544922 c -3.64988,16.57595 -9.85011,29.219996 -16.92383,38.949218 0.50055,1.066784 0.99532,2.146712 1.4668,3.269532 1.88577,-1.113542 3.79633,-2.353974 5.67578,-3.533203 -1.32418,2.818885 -2.65436,5.432261 -3.98633,7.970703 0.3331,0.971519 0.64715,1.978528 0.94727,3.013672 2.18882,-2.128269 4.99334,-5.060064 8.21874,-8.546875 1.01295,9.613083 2.39413,14.157401 4.44141,20.675781 1.63101,-6.507601 2.81445,-10.951994 4.10938,-20.841797 3.89833,4.422961 7.65486,8.869845 12.92968,12.664063 l -7.38281,-15.212891 c 3.82389,2.444742 8.07764,5.639588 12.13281,7.003906 C 358.382,63.532875 350.24736,49.436941 346.36719,29.027341 Z m 107.5039,0.002 c -4.49336,20.40663 -12.85095,34.851884 -21.94726,45.238281 3.7809,-1.036446 8.05633,-3.974187 12.16601,-6.552734 -2.51367,5.351022 -5.05672,9.985343 -7.57031,14.707031 1.50059,-0.508519 6.28228,-5.277681 12.75,-12.269531 1.01291,9.613074 2.39411,14.15737 4.44141,20.675781 1.63101,-6.507631 2.81448,-10.953947 4.10937,-20.84375 3.89837,4.422981 7.65488,8.869845 12.92969,12.664063 l -7.38477,-15.212891 c 3.82389,2.444722 8.0796,5.639588 12.13477,7.003906 -9.61411,-10.906555 -17.74875,-25.000526 -21.62891,-45.410156 z m -55.40625,49.511719 c 6.90617,8.56705 -12.40631,11.976873 -1.99414,20.085937 4.44064,2.753426 14.81591,-3.207765 5.70313,-10.533203 -1.17745,-0.627171 4.09682,-4.957785 -3.70899,-9.552734 z m 11.52149,20.310546 c -1.72768,0.162622 -3.39277,1.228667 -4.96485,3.949217 -1.97163,4.56102 6.69835,12.4713 12.53321,2.7461 0.41285,-1.18687 6.20415,2.61625 9.4082,-5.34766 -5.49279,5.77015 -11.10871,-1.119219 -16.20898,-1.347657 -0.24947,-0.01191 -0.52077,-0.02312 -0.76758,0 z m -21.35938,0.08203 c -5.10037,0.227476 -10.7213,7.142277 -16.21289,1.371097 3.20244,7.9645 9.05809,4.1646 9.47071,5.35156 5.83297,9.72634 14.44341,1.81725 12.47265,-2.74414 -1.79606,-3.109542 -3.73471,-4.067544 -5.73047,-3.978517 z m 11.49219,5.548827 c -4.49335,20.40661 -12.85097,34.85188 -21.94726,45.23828 3.78088,-1.03645 8.05633,-3.97418 12.16601,-6.55273 -2.51368,5.35102 -5.05672,9.98339 -7.57031,14.70508 1.50059,-0.50852 6.28228,-5.27571 12.75,-12.26758 1.01294,9.61309 2.3941,14.15544 4.4414,20.67383 1.63102,-6.50763 2.81448,-10.952 4.10938,-20.8418 3.89836,4.42297 7.65488,8.86791 12.92969,12.66211 l -7.38477,-15.21094 c 3.8239,2.44472 8.07959,5.64154 12.13477,7.00586 -9.61411,-10.90655 -17.74874,-25.0025 -21.62891,-45.41211 z m -55.40625,49.50781 c 6.90618,8.56705 -12.40436,11.97492 -1.99219,20.08399 4.44063,2.75339 14.81396,-3.20385 5.70118,-10.5293 -1.17746,-0.62717 4.0968,-4.95975 -3.70899,-9.55469 z m 107.50391,0 c 6.90617,8.56705 -12.40632,11.97687 -1.99414,20.08594 4.44064,2.7534 14.8159,-3.2058 5.70312,-10.53125 -1.17745,-0.62717 4.09682,-4.95973 -3.70898,-9.55469 z m -95.98242,20.31055 c -1.72769,0.16261 -3.3928,1.22867 -4.96485,3.94922 -1.97165,4.56102 6.70031,12.47127 12.53516,2.74609 0.41288,-1.18689 6.20222,2.6143 9.40625,-5.34961 -5.49278,5.77013 -11.11067,-1.11726 -16.21094,-1.3457 -0.24948,-0.0119 -0.51884,-0.0231 -0.76562,0 z m 107.5039,0 c -1.7277,0.16261 -3.39277,1.23062 -4.96484,3.95117 -1.15811,2.67907 1.35662,6.50855 4.81054,7.2461 -0.0415,-1.21046 -0.0645,-2.45541 -0.0645,-3.7461 0,-2.65427 0.096,-5.12432 0.26563,-7.45117 -0.0153,0.001 -0.0318,-0.001 -0.0469,0 z m -128.86328,0.082 c -5.10036,0.22748 -10.72129,7.14229 -16.21289,1.3711 3.20245,7.96453 9.05809,4.1646 9.4707,5.35156 5.83296,9.72633 14.4434,1.81726 12.47266,-2.74414 -1.79605,-3.10953 -3.7347,-4.06753 -5.73047,-3.97852 z m 107.50391,0 c -5.10038,0.22748 -10.7213,7.14423 -16.21289,1.37305 3.20244,7.96451 9.05808,4.16265 9.4707,5.34961 5.83296,9.72633 14.44146,1.81726 12.4707,-2.74414 -1.79606,-3.10951 -3.73277,-4.06753 -5.72851,-3.97852 z m -96.01172,5.54883 c -4.15699,18.879 -11.62325,32.64898 -19.91992,42.83008 0.23807,0.45985 0.47393,0.92282 0.71093,1.38476 3.0432,-1.38127 6.28297,-3.55614 9.42774,-5.52929 -2.06622,4.39853 -4.14737,8.29548 -6.22071,12.17187 0.18017,0.40905 0.35948,0.82058 0.53516,1.23828 2.30017,-1.93228 6.12117,-5.84411 10.86523,-10.97265 1.01295,9.61309 2.39413,14.15543 4.44141,20.67383 1.63101,-6.50763 2.81445,-10.952 4.10938,-20.8418 3.89833,4.42298 7.65486,8.86984 12.92968,12.66406 l -7.38281,-15.21289 c 3.82389,2.44472 8.07764,5.63959 12.13281,7.00391 -9.61409,-10.90655 -17.74873,-25.00054 -21.6289,-45.41016 z m 107.5039,0 c -4.49336,20.4066 -12.85095,34.85382 -21.94726,45.24024 3.7809,-1.03644 8.05633,-3.97613 12.16601,-6.55469 -2.51367,5.35103 -5.05672,9.98535 -7.57031,14.70703 1.50059,-0.50851 6.28228,-5.27766 12.75,-12.26953 1.01291,9.61309 2.39411,14.15545 4.44141,20.67383 1.63101,-6.50763 2.81448,-10.952 4.10937,-20.8418 3.89837,4.42298 7.65488,8.86986 12.92969,12.66406 l -7.38477,-15.21094 c 3.82389,2.44472 8.0796,5.6396 12.13477,7.00391 -9.61411,-10.90655 -17.74875,-25.00251 -21.62891,-45.41211 z m -55.40625,49.51172 c 6.90617,8.56705 -12.40631,11.97686 -1.99414,20.08594 4.44064,2.75341 14.81591,-3.20776 5.70313,-10.53321 -1.17745,-0.62717 4.09682,-4.95777 -3.70899,-9.55273 z m 11.52149,20.31055 c -1.72768,0.16261 -3.39277,1.23062 -4.96485,3.95117 -1.97163,4.56103 6.69835,12.4713 12.53321,2.74609 0.41285,-1.18688 6.20415,2.61235 9.4082,-5.35156 -5.49279,5.77014 -11.10871,-1.11726 -16.20898,-1.3457 -0.24947,-0.0119 -0.52077,-0.0232 -0.76758,0 z m -21.35938,0.082 c -5.10037,0.22748 -10.7213,7.14227 -16.21289,1.37109 3.20244,7.96451 9.05809,4.1646 9.47071,5.35156 5.83297,9.72633 14.44341,1.81922 12.47265,-2.74218 -1.79606,-3.10952 -3.73471,-4.06948 -5.73047,-3.98047 z m 11.49219,5.54687 c -4.49335,20.40659 -12.85097,34.85383 -21.94726,45.24024 3.78088,-1.03644 8.05633,-3.97613 12.16601,-6.55469 -2.51368,5.35103 -5.05672,9.98534 -7.57031,14.70703 1.50059,-0.50851 6.28228,-5.27766 12.75,-12.26953 1.01294,9.61308 2.3941,14.1574 4.4414,20.67578 1.63102,-6.50763 2.81448,-10.952 4.10938,-20.8418 3.89836,4.42298 7.65488,8.86987 12.92969,12.66407 l -7.38477,-15.21289 c 3.8239,2.44472 8.07959,5.63957 12.13477,7.0039 -9.61411,-10.90656 -17.74874,-25.00252 -21.62891,-45.41211 z m -55.40625,49.50977 c 6.90618,8.56705 -12.40436,11.97686 -1.99219,20.08594 4.44063,2.75341 14.81396,-3.20777 5.70118,-10.53321 -1.17746,-0.62717 4.0968,-4.95778 -3.70899,-9.55273 z m 107.50391,0 c 6.90617,8.56707 -12.40632,11.97686 -1.99414,20.08594 4.44064,2.75341 14.8159,-3.20777 5.70312,-10.53321 -1.17745,-0.62717 4.09682,-4.95778 -3.70898,-9.55273 z m -95.98242,20.31054 c -1.72769,0.16263 -3.3928,1.23063 -4.96485,3.95118 -1.97165,4.56101 6.70031,12.47129 12.53516,2.74609 0.41288,-1.18688 6.20222,2.6143 9.40625,-5.34961 -5.49278,5.77014 -11.11067,-1.11921 -16.21094,-1.34766 -0.24948,-0.0119 -0.51884,-0.0231 -0.76562,0 z m 107.5039,0.002 c -1.7277,0.16262 -3.39277,1.22869 -4.96484,3.94922 -1.17175,2.71061 1.41505,6.60352 4.93164,7.27539 0.24329,-4.1494 0.73121,-7.82853 1.40234,-11.15235 -0.20109,-0.0281 -0.402,-0.0633 -0.60156,-0.0723 -0.24946,-0.0119 -0.52078,-0.0232 -0.76758,0 z m -128.86328,0.0801 c -5.10036,0.22748 -10.72129,7.14421 -16.21289,1.37304 3.20245,7.96451 9.05809,4.16266 9.4707,5.34961 5.83296,9.72634 14.4434,1.81726 12.47266,-2.74414 -1.79605,-3.10953 -3.7347,-4.06753 -5.73047,-3.97851 z m 107.50391,0.002 c -5.10038,0.22749 -10.7213,7.14228 -16.21289,1.37109 3.20244,7.96451 9.05808,4.16461 9.4707,5.35157 5.83296,9.72631 14.44146,1.81728 12.4707,-2.74415 -1.79606,-3.10951 -3.73277,-4.06751 -5.72851,-3.97851 z m -96.01172,5.54687 c -4.49337,20.4066 -12.85097,34.85383 -21.94727,45.24024 3.78089,-1.03645 8.05636,-3.97614 12.16602,-6.55469 -2.51366,5.35102 -5.05673,9.98339 -7.57032,14.70508 1.50057,-0.50852 6.28233,-5.27572 12.75,-12.26758 1.01295,9.61307 2.39413,14.15545 4.44141,20.67383 1.63101,-6.50762 2.81445,-10.952 4.10938,-20.8418 3.89833,4.42297 7.65486,8.86791 12.92968,12.66211 l -7.38281,-15.20898 c 3.82389,2.44473 8.07764,5.63958 12.13281,7.0039 -9.61409,-10.90655 -17.74873,-25.00251 -21.6289,-45.41211 z m 107.5039,0.002 c -4.49336,20.40661 -12.85095,34.85187 -21.94726,45.23828 3.7809,-1.03645 8.05633,-3.97614 12.16601,-6.55469 -2.51367,5.35102 -5.05672,9.98535 -7.57031,14.70703 1.50059,-0.5085 6.28228,-5.27767 12.75,-12.26953 1.01291,9.61309 2.39411,14.1574 4.44141,20.67578 1.63101,-6.50762 2.81448,-10.95198 4.10937,-20.84179 3.89837,4.42298 7.65488,8.86789 12.92969,12.6621 l -7.38477,-15.21093 c 1.87693,1.19999 3.86092,2.57759 5.8711,3.83398 -1.28548,-3.01244 -2.44141,-6.27167 -3.37891,-9.95508 -5.25546,-8.71868 -9.49831,-19.19824 -11.98633,-32.28515 z m -55.40625,49.51172 c 6.90617,8.56707 -12.40631,11.97491 -1.99414,20.08398 4.44064,2.75341 14.81591,-3.2058 5.70313,-10.53125 -1.17745,-0.62717 4.09682,-4.95778 -3.70899,-9.55273 z m 11.52149,20.31054 c -1.72768,0.16261 -3.39277,1.22674 -4.96485,3.94727 -1.97163,4.56102 6.69835,12.47323 12.53321,2.74805 0.41285,-1.1869 6.20415,2.61428 9.4082,-5.34961 -5.49279,5.77012 -11.10871,-1.11729 -16.20898,-1.34571 -0.24947,-0.0119 -0.52077,-0.0232 -0.76758,0 z m -21.35938,0.082 c -5.10037,0.22749 -10.7213,7.14033 -16.21289,1.36915 3.20244,7.96449 9.05809,4.16656 9.47071,5.35351 5.83297,9.72633 14.44341,1.81533 12.47265,-2.74609 -1.79606,-3.10951 -3.73471,-4.06558 -5.73047,-3.97657 z m 11.49219,5.54688 c -4.49335,20.40662 -12.85097,34.85187 -21.94726,45.23828 3.78088,-1.03645 8.05633,-3.97418 12.16601,-6.55273 -2.51368,5.35103 -5.05672,9.98534 -7.57031,14.70703 1.50059,-0.50852 6.28228,-5.27766 12.75,-12.26953 1.01294,9.61309 2.3941,14.15544 4.4414,20.67382 1.63102,-6.50761 2.81448,-10.95198 4.10938,-20.84179 3.89836,4.42298 7.65488,8.86985 12.92969,12.66406 l -7.38477,-15.21289 c 3.8239,2.44475 8.07959,5.64157 12.13477,7.00586 -9.61411,-10.90655 -17.74874,-25.00251 -21.62891,-45.41211 z m -55.40625,49.50977 c 6.90618,8.56704 -12.40436,11.97491 -1.99219,20.08398 4.44063,2.75341 14.81396,-3.20775 5.70118,-10.5332 -1.17746,-0.62717 4.0968,-4.95583 -3.70899,-9.55078 z m 107.50391,0 c 6.90617,8.56707 -12.40632,11.97689 -1.99414,20.08593 4.44064,2.75341 14.8159,-3.20776 5.70312,-10.5332 -1.17745,-0.62718 4.09682,-4.95779 -3.70898,-9.55273 z m -95.98242,20.31054 c -1.72769,0.16261 -3.3928,1.22869 -4.96485,3.94922 -1.97165,4.56103 6.70031,12.47127 12.53516,2.74609 0.41288,-1.18691 6.20222,2.61431 9.40625,-5.34961 -5.49278,5.77016 -11.11067,-1.11727 -16.21094,-1.3457 -0.24948,-0.0119 -0.51884,-0.0232 -0.76562,0 z m 107.5039,0 c -1.7277,0.16261 -3.39277,1.22869 -4.96484,3.94922 -1.29532,2.99649 2.00279,7.43962 6.07226,7.37695 0.71527,-3.93344 1.68091,-7.3822 2.80469,-10.52734 -1.06609,-0.42973 -2.11531,-0.75273 -3.14453,-0.79883 -0.24946,-0.0119 -0.52078,-0.0232 -0.76758,0 z m -128.86328,0.082 c -4.90062,0.21858 -10.27924,6.60341 -15.56445,1.98438 -0.0506,0.15115 -0.10052,0.30248 -0.15039,0.45508 3.27425,6.51261 8.58031,3.15454 8.97265,4.2832 5.83296,9.72632 14.4434,1.81726 12.47266,-2.74414 -1.79605,-3.1095 -3.7347,-4.06754 -5.73047,-3.97852 z m 107.50391,0 c -5.10038,0.2275 -10.7213,7.14231 -16.21289,1.3711 3.20244,7.96451 9.05808,4.16461 9.4707,5.35156 5.83296,9.72632 14.44146,1.81726 12.4707,-2.74414 -1.79606,-3.10952 -3.73277,-4.06752 -5.72851,-3.97852 z m -96.01172,5.54688 c -4.49337,20.40662 -12.85097,34.85187 -21.94727,45.23828 3.78089,-1.03644 8.05636,-3.97418 12.16602,-6.55273 -2.19666,4.6762 -4.41296,8.79396 -6.61524,12.9121 h 1.5 c 2.3381,-2.06242 5.91391,-5.73656 10.29492,-10.47265 0.45351,4.30381 0.98544,7.56923 1.61329,10.47265 h 5.21679 c 0.58395,-2.91444 1.14211,-6.22168 1.72071,-10.64062 3.22634,3.66056 6.36862,7.33134 10.34179,10.64062 h 1.60742 l -6.40234,-13.1914 c 3.82389,2.44472 8.07764,5.64155 12.13281,7.00586 -9.61409,-10.90656 -17.74873,-25.00251 -21.6289,-45.41211 z m 107.5039,0 c -4.49336,20.40662 -12.85095,34.8538 -21.94726,45.24023 3.7809,-1.03645 8.05633,-3.9742 12.16601,-6.55273 -2.19666,4.6762 -4.41296,8.79239 -6.61523,12.91015 h 1.5 c 2.33809,-2.06242 5.91388,-5.73658 10.29492,-10.47265 0.45348,4.3038 0.98544,7.56923 1.61328,10.47265 h 5.2168 c 0.58395,-2.91444 1.14212,-6.22168 1.7207,-10.64062 3.22672,3.66093 6.36885,7.33202 10.34571,10.64062 h 1.11914 c -0.77856,-1.74575 -1.52643,-3.55011 -2.19336,-5.51562 l -3.72657,-7.67383 c 0.62926,0.40231 1.28573,0.84198 1.93555,1.27344 -0.72605,-3.27135 -1.26625,-6.91671 -1.55078,-11.08594 -4.28085,-7.95475 -7.73253,-17.30579 -9.87891,-28.5957 z m -55.40625,49.51172 c 0.58996,0.73183 0.97658,1.42322 1.21875,2.08593 h 1.4961 c -0.65275,-0.68161 -1.51459,-1.37939 -2.71485,-2.08593 z" />
  </g>
</svg>
