<?xml version="1.0" encoding="UTF-8" standalone="no"?>
<svg
   xmlns:svg="http://www.w3.org/2000/svg"
   xmlns="http://www.w3.org/2000/svg"
   version="1.1"
   width="745"
   height="497"
   id="svg2">
  <title
     id="title3146">Flag of Gers</title>
  <defs
     id="defs4">
    <linearGradient
       id="linearGradient2893">
      <stop
         id="stop2895"
         style="stop-color:#ffffff;stop-opacity:0.3137255"
         offset="0" />
      <stop
         id="stop2897"
         style="stop-color:#ffffff;stop-opacity:0.25098041"
         offset="0.19" />
      <stop
         id="stop2901"
         style="stop-color:#6b6b6b;stop-opacity:0.1254902"
         offset="0.60000002" />
      <stop
         id="stop2899"
         style="stop-color:#000000;stop-opacity:0.1254902"
         offset="1" />
    </linearGradient>
  </defs>
  <rect
     width="745"
     height="497"
     x="0"
     y="0"
     id="rect2866"
     style="fill:#ffffff;fill-opacity:1;stroke:none" />
  <g
     transform="translate(0,-555.36217)"
     id="layer1"
     style="display:inline">
    <g
       transform="matrix(0.75812075,0,0,0.79206289,145.06378,542.48131)"
       id="layer4"
       style="display:inline">
      <g
         transform="matrix(1.3211357,0,0,1.3211357,104.17816,75.930743)"
         id="g3448"
         style="fill:#e20909;fill-opacity:1;display:inline">
        <g
           transform="matrix(0.6258492,0.1180821,-0.1180821,0.6258492,28.993654,-34.234887)"
           id="g3046"
           style="fill:#e20909;fill-opacity:1;stroke:#000000;stroke-width:3.92531633;stroke-miterlimit:4;stroke-opacity:1;stroke-dasharray:none">
          <path
             d="m 325.01056,344.37855 c 2.54241,-0.91527 14.10692,-8.43231 41.23066,49.71927 29.90678,27.61418 49.24379,-36.10692 50.671,-56.23488 -0.99355,-24.83868 -17.28776,-55.04257 -17.28776,-55.04257 -3.55764,-15.92916 6.47317,-27.97591 17.48647,-39.74196 -10.51257,4.91232 -21.46235,5.01543 -30.99872,20.66582 0,0 -2.58324,-11.12775 -0.39743,-23.05033 2.18581,-11.92258 14.30711,-19.87098 14.30711,-19.87098 -14.23228,7.12187 -26.18141,14.62426 -27.81937,23.84518 -4.43109,-26.85923 8.1621,-50.47574 25.83227,-73.1252 -18.40068,11.85357 -34.63408,25.44098 -42.5239,45.70324 -10.06381,-47.99351 27.46166,-70.72613 68.75359,-107.7007 30.99084,-27.75051 6.35871,-52.459379 6.35871,-52.459379 -23.67662,-6.905912 -43.30541,1.050481 -59.61293,9.93549 0,0 -15.62007,-16.293315 -25.03744,-0.794831 -10.92177,17.974334 -19.65671,27.087138 -14.70452,47.69033 -2.55397,-3.4053 22.02538,-20.508982 40.93422,-20.665805 15.2225,-0.12625 4.37161,-18.281297 4.37161,-18.281297 29.90684,-16.015453 74.87899,-15.538679 36.96002,25.434832 -46.20728,45.69024 -87.65738,57.58345 -65.97165,129.95621 12.31659,41.10468 56.90491,72.08641 56.23487,98.95748 5.16682,17.3619 -12.15999,80.46995 -33.97937,47.0942 -18.88305,-44.73169 -32.69039,-48.69982 -49.00892,-47.30995 l 4.20148,15.27583 z"
             id="path2030"
             style="fill:#e20909;fill-opacity:1;fill-rule:evenodd;stroke:#000000;stroke-width:3.92531633;stroke-linecap:butt;stroke-linejoin:miter;stroke-miterlimit:4;stroke-opacity:1;stroke-dasharray:none;display:inline" />
        </g>
        <path
           d="M 15.357165,55.115446 C 10.801752,56.187099 3.8550816,58.71417 1.25,63.817487 7.2158803,62.243312 11.944753,60.915595 16.152419,60.237912 l -0.795254,-5.122466 z"
           id="path3249"
           style="fill:#e20909;fill-opacity:1;fill-rule:evenodd;stroke:#000000;stroke-width:2.5;stroke-linecap:round;stroke-linejoin:round;stroke-miterlimit:4;stroke-opacity:1;stroke-dasharray:none" />
        <path
           d="M 16.789526,44.323832 C 12.170166,45.110373 8.975802,44.59901 1.8634082,49.339043 8.0271064,48.771617 14.528337,48.93738 18.459172,50.443893 l -1.669646,-6.120061 z"
           id="path3247"
           style="fill:#e20909;fill-opacity:1;fill-rule:evenodd;stroke:#000000;stroke-width:2.5;stroke-linecap:round;stroke-linejoin:round;stroke-miterlimit:4;stroke-opacity:1;stroke-dasharray:none" />
        <path
           d="m 29.769547,38.455353 c -4.191575,-2.128422 -9.064228,-1.390058 -13.795061,-1.248691 6.321604,1.582521 7.992881,2.846797 11.399006,5.237223 l 2.396055,-3.988532 z"
           id="path3245"
           style="fill:#e20909;fill-opacity:1;fill-rule:evenodd;stroke:#000000;stroke-width:2.5;stroke-linecap:round;stroke-linejoin:round;stroke-miterlimit:4;stroke-opacity:1;stroke-dasharray:none" />
        <path
           d="m 19.272499,67.517187 c -6.045551,1.844852 -5.180416,3.158174 -6.740074,7.666004 5.77666,-3.917455 9.317241,-3.957476 11.769236,-6.384817 l -5.029162,-1.281187 z"
           id="path4220"
           style="fill:#e20909;fill-opacity:1;fill-rule:evenodd;stroke:#000000;stroke-width:2.5;stroke-linecap:round;stroke-linejoin:round;stroke-miterlimit:4;stroke-opacity:1;stroke-dasharray:none" />
        <path
           d="m 47.754632,51.235249 c 6.961738,12.884597 13.75309,11.090286 22.123493,17.970171 10.921739,8.976919 15.514048,20.03447 44.307285,20.034126 L 106.30192,132.49612 83.521524,119.62464 C 78.909408,116.06392 66.466181,112.54431 59.866781,99.924899 54.262185,100.65495 52.965816,105.60264 52.445463,111.31002 49.716715,104.65518 45.83866,97.967559 49.434477,91.49315 L 41.021494,81.842539 C 35.752608,88.464286 27.747708,86.297954 20.790968,87.49832 29.736137,84.082949 36.83551,78.486686 37.981731,72.31807 L 34.55235,67.123191 c -8.720756,-0.0089 -5.52785,3.009774 -13.051293,3.561395 l -5.885174,-2.758449 c 5.400209,-5.544566 10.07877,-3.562959 15.317821,-6.070346 -8.294659,-3.484518 -11.274545,1.636046 -17.927469,-0.367003 -1.549481,-2.61204 -1.471264,-4.48171 0.174936,-6.377341 4.598212,-1.06745 10.056089,-1.629845 15.240065,-1.058969 -7.334348,-5.248194 -7.36137,-2.805584 -13.354727,-3.748718 -1.944903,-3.116806 -2.962339,-5.043936 0.987503,-6.734396 3.95422,0.832522 11.887555,0.555643 16.678182,4.278095 -0.62983,-3.614377 -2.719475,-4.804252 -7.454256,-6.092603 0.935372,-4.002307 -1.208333,-2.545902 3.636482,-4.590694 9.747487,3.082798 17.225172,6.556609 18.840212,14.071087 z"
           id="path3243"
           style="fill:#e20909;fill-opacity:1;fill-rule:evenodd;stroke:#000000;stroke-width:2.5;stroke-linecap:round;stroke-linejoin:round;stroke-miterlimit:4;stroke-opacity:1;stroke-dasharray:none" />
        <path
           d="m 34.81008,329.66575 c -2.078729,3.25973 -6.625045,6.10105 -9.911268,7.88626 6.347093,-0.24819 11.857081,-3.29227 15.83803,-5.56629 l -5.926762,-2.31997 z"
           id="path3534"
           style="fill:#e20909;fill-opacity:1;fill-rule:evenodd;stroke:#000000;stroke-width:2.5;stroke-linecap:round;stroke-linejoin:round;stroke-miterlimit:4;stroke-opacity:1;stroke-dasharray:none" />
        <path
           d="m 20.359657,321.77803 c -4.595263,2.82485 -5.624183,7.44105 -7.088979,10.35721 3.889834,-2.91087 7.070415,-3.78978 11.036219,-6.19757 l -3.94724,-4.15964 z"
           id="path3532"
           style="fill:#e20909;fill-opacity:1;fill-rule:evenodd;stroke:#000000;stroke-width:2.5;stroke-linecap:round;stroke-linejoin:round;stroke-miterlimit:4;stroke-opacity:1;stroke-dasharray:none" />
        <path
           d="m 23.295509,307.74706 c -7.181376,0.57607 -12.2895,5.1078 -16.2226765,9.25893 5.9225845,-2.148 11.0979945,-3.66901 16.7104705,-4.01384 3.8343,-1.84115 -0.66468,-4.73327 -0.487794,-5.24509 z"
           id="path3530"
           style="fill:#e20909;fill-opacity:1;fill-rule:evenodd;stroke:#000000;stroke-width:2.5;stroke-linecap:round;stroke-linejoin:round;stroke-miterlimit:4;stroke-opacity:1;stroke-dasharray:none" />
        <path
           d="m 36.915471,300.0168 c -6.448791,-2.30408 -12.705361,-0.76576 -19.443223,-0.66037 7.149704,1.307 12.77716,3.65889 18.046056,6.25695 l 1.397167,-5.59658 z"
           id="path3528"
           style="fill:#e20909;fill-opacity:1;fill-rule:evenodd;stroke:#000000;stroke-width:2.5;stroke-linecap:round;stroke-linejoin:round;stroke-miterlimit:4;stroke-opacity:1;stroke-dasharray:none" />
        <path
           d="m 159.46149,211.35182 c -27.18535,4.2488 -65.932011,-0.62597 -84.244809,19.54689 -11.862834,8.1038 -52.201954,20.27065 -37.059315,0.69025 -24.704569,12.81302 16.435741,22.35938 42.703084,1.87131 -32.640972,23.78229 4.170481,27.11542 8.292487,50.05251 -6.993648,13.10192 -15.056192,7.79779 -25.829681,19.90764 -4.958992,2.57938 -10.384261,1.66598 -18.991717,0.37724 -1.423285,-3.58417 -4.561063,-5.20586 -7.911917,-5.84662 -3.45173,1.14226 -7.433585,3.65964 -6.930814,6.5013 5.247187,0.95269 5.169721,3.70488 9.4352,6.34734 -7.609201,-2.32392 -7.666945,-6.0957 -16.539622,-3.83228 -3.465674,2.54248 -3.20281,5.94298 -2.623127,7.45057 7.560257,0.68747 10.130858,0.64028 16.324808,2.49413 -7.03714,0.12385 -7.947904,-1.4646 -17.317412,4.57883 0.818532,3.08948 2.461848,4.29175 5.341327,6.19394 5.652495,-1.22056 7.859123,-5.97121 14.876058,-3.48842 -6.561037,4.01612 -6.384287,5.07179 -7.057536,6.50092 1.260417,1.5956 3.418725,2.79669 6.844609,3.44082 6.159362,-0.7344 8.589579,-3.63857 10.848389,-6.64245 32.190889,1.87997 22.342867,-6.90786 30.736591,-9.03475 11.166696,5.09561 11.25609,-0.73402 14.854303,-5.60403 11.794994,7.38525 9.473224,-0.15268 11.586574,-2.51167 -2.85161,-10.7834 8.53907,-12.53407 12.32987,-21.71393 5.13339,-4.07984 12.66469,-7.42864 -6.54677,-18.93016 -5.96445,-10.83854 -3.53113,-19.30133 7.81805,-25.24182 18.78625,5.22799 33.7118,0.89782 50.56772,1.34673 l -11.50635,-34.45429 z"
           id="path3524"
           style="fill:#e20909;fill-opacity:1;fill-rule:evenodd;stroke:#000000;stroke-width:2.5;stroke-linecap:round;stroke-linejoin:round;stroke-miterlimit:4;stroke-opacity:1;stroke-dasharray:none" />
        <path
           d="m 142.44523,209.21476 c 5.99209,5.98396 12.60668,11.89974 10.3376,18.78865 -6.27016,4.46477 -9.68368,8.6665 6.25398,11.08646 l 6.12991,-15.70703 -12.5068,-14.31835 c -7.31272,-1.82815 -10.02398,-1.44467 -10.21469,0.15027 z"
           id="path3526"
           style="fill:#e20909;fill-opacity:1;fill-rule:evenodd;stroke:#000000;stroke-width:2.5;stroke-linecap:round;stroke-linejoin:round;stroke-miterlimit:4;stroke-opacity:1;stroke-dasharray:none" />
        <path
           d="m 137.03676,345.94856 c -6.81133,-0.37475 -11.38763,1.61566 -16.4979,5.45232 7.85145,-1.11941 10.99184,-2.19708 16.34089,-1.83554 l 0.15701,-3.61678 z"
           id="path3536"
           style="fill:#e20909;fill-opacity:1;fill-rule:evenodd;stroke:#000000;stroke-width:2.5;stroke-linecap:round;stroke-linejoin:round;stroke-miterlimit:4;stroke-opacity:1;stroke-dasharray:none" />
        <path
           d="m 129.60193,358.83655 c -4.51609,2.6046 -9.6793,6.85687 -11.40769,12.09308 4.60926,-3.43352 9.36832,-5.53252 13.65632,-7.4611 l -2.24863,-4.63198 z"
           id="path3538"
           style="fill:#e20909;fill-opacity:1;fill-rule:evenodd;stroke:#000000;stroke-width:2.5;stroke-linecap:round;stroke-linejoin:round;stroke-miterlimit:4;stroke-opacity:1;stroke-dasharray:none" />
        <path
           d="m 136.75732,369.75388 c -4.40671,3.7092 -7.70112,8.4862 -8.98194,13.61883 4.64486,-4.22533 8.7368,-6.56789 13.83701,-8.71764 l -4.85507,-4.90119 z"
           id="path3540"
           style="fill:#e20909;fill-opacity:1;fill-rule:evenodd;stroke:#000000;stroke-width:2.5;stroke-linecap:round;stroke-linejoin:round;stroke-miterlimit:4;stroke-opacity:1;stroke-dasharray:none" />
        <path
           d="m 161.19221,371.15199 c 0.45677,2.83218 2.58228,6.87267 4.5942,9.64681 l 1.66232,-10.22687 -6.25652,0.58006 z"
           id="path3542"
           style="fill:#e20909;fill-opacity:1;fill-rule:evenodd;stroke:#000000;stroke-width:2.5;stroke-linecap:round;stroke-linejoin:round;stroke-miterlimit:4;stroke-opacity:1;stroke-dasharray:none" />
        <path
           d="m 100.85563,130.41243 c 8.98311,36.75052 36.57428,49.05418 48.07835,71.0616 13.14337,25.14341 8.45812,27.45458 8.45812,27.45458 -5.48908,14.82807 -19.22019,27.38447 -15.14374,36.83003 17.79744,41.23851 -23.72432,24.82656 -3.12195,49.12296 -11.24318,-12.4691 8.05692,-15.89028 15.6674,-22.80107 4.47951,6.39077 9.43786,12.31499 19.09327,13.66252 -2.83982,9.22745 -9.98518,18.61561 -5.06575,27.55343 -5.84625,5.72182 -8.74175,14.33234 -18.91914,15.81409 -4.03327,-2.36165 -4.40189,-4.54973 -12.10223,-3.7809 -4.1543,1.82051 -2.58068,4.15551 -2.86163,5.83144 9.98413,1.52139 2.04874,0.35184 10.14851,3.5083 -10.50828,1.39854 -7.00426,-2.76262 -16.30624,3.57256 -0.59848,2.56119 2.85747,4.78317 3.3238,6.70313 9.53019,-1.97645 5.42028,-3.99268 15.02157,-2.14444 -5.20639,2.48826 -6.46142,2.44968 -10.58331,6.26155 -0.97013,3.60895 4.37279,4.57016 4.59391,6.72466 9.68475,-2.92782 6.67934,-6.7422 17.76392,-9.56125 -0.14109,2.04074 -0.32237,4.09099 1.43259,5.68264 2.93672,0.5996 5.68972,0.86478 8.53493,-0.98757 0.77612,-2.63435 2.22289,-5.29372 -0.27273,-7.80595 8.94306,-7.20332 23.37776,-10.38572 21.34338,-25.62661 2.67172,3.34405 5.75984,6.24439 11.3902,6.43574 -3.64694,-8.6797 9.92099,-10.92139 -1.61634,-21.17578 3.08432,-3.60838 5.11183,-8.57049 11.25458,-8.26111 l 0.24022,-15.69103 c -31.55516,-25.86192 2.91623,-61.90543 -23.32625,-93.87506 0.92605,-55.37734 -3.1709,-84.20455 -12.29085,-108.008751 l -74.73459,33.500291 z"
           id="path3453"
           style="fill:#e20909;fill-opacity:1;fill-rule:evenodd;stroke:#000000;stroke-width:2.5;stroke-linecap:round;stroke-linejoin:round;stroke-miterlimit:4;stroke-opacity:1;stroke-dasharray:none" />
        <path
           d="m 51.055829,145.99311 c -2.555585,-3.8645 -5.662069,-3.13673 -8.606163,-3.76264 l 5.641116,7.30377 2.965047,-3.54113 z"
           id="path2264"
           style="fill:#e20909;fill-opacity:1;fill-rule:evenodd;stroke:#000000;stroke-width:2.5;stroke-linecap:round;stroke-linejoin:round;stroke-miterlimit:4;stroke-opacity:1;stroke-dasharray:none" />
        <path
           d="m 38.715476,152.82457 c -3.951756,-2.01926 -6.249527,-5.03602 -14.518812,-1.74502 6.31791,1.61551 8.094723,3.40055 10.553261,6.14027 l 3.965551,-4.39525 z"
           id="path2266"
           style="fill:#e20909;fill-opacity:1;fill-rule:evenodd;stroke:#000000;stroke-width:2.5;stroke-linecap:round;stroke-linejoin:round;stroke-miterlimit:4;stroke-opacity:1;stroke-dasharray:none" />
        <path
           d="m 31.991905,166.30727 c -4.677619,-0.59768 -9.884421,0.01 -12.86234,3.91058 3.412648,-0.76926 6.844528,-1.02268 10.321877,-0.0586 l 2.540463,-3.85198 z"
           id="path2268"
           style="fill:#e20909;fill-opacity:1;fill-rule:evenodd;stroke:#000000;stroke-width:2.5;stroke-linecap:round;stroke-linejoin:round;stroke-miterlimit:4;stroke-opacity:1;stroke-dasharray:none" />
        <path
           d="m 41.030388,181.65195 c -3.128062,1.65892 -6.191778,3.35528 -6.566904,6.61595 3.660343,-2.29913 7.751001,-3.67478 12.007103,-4.69542 l -5.440199,-1.92053 z"
           id="path2270"
           style="fill:#e20909;fill-opacity:1;fill-rule:evenodd;stroke:#000000;stroke-width:2.5;stroke-linecap:round;stroke-linejoin:round;stroke-miterlimit:4;stroke-opacity:1;stroke-dasharray:none" />
        <path
           d="m 52.662743,144.78965 c -4.27505,0.69081 -4.490696,2.8147 -5.609022,4.61994 1.141338,3.50872 5.506848,6.46927 9.850273,9.4336 -5.705814,-1.66071 -11.372475,-2.2731 -17.200169,-7.199 l -4.948658,0.18472 c -2.756319,1.89978 -2.556666,3.68925 -2.067187,5.46787 6.07683,5.9587 11.188387,6.04971 16.612026,8.03772 -6.161954,0.069 -11.84392,2.32581 -18.593967,-0.28606 -4.781718,2.5791 -2.063891,4.28236 -1.830562,6.27579 6.363083,2.26062 13.500646,0.89304 20.280062,1.20327 -0.702078,2.76444 -4.092614,5.36398 -9.204813,7.8579 -1.433425,3.3768 2.300456,4.24848 5.568047,5.34623 4.370107,-0.88446 8.143371,-2.55481 9.641576,-7.22078 6.957411,-0.19484 14.293924,-0.11211 20.194814,-1.08052 4.222707,2.78276 -2.241591,5.96445 -5.032233,9.009 17.149012,-0.19169 16.802135,-8.76469 30.44195,-14.20469 -2.637133,5.01033 -0.17286,9.01712 2.54905,12.97324 1.41474,-8.06118 9.44197,-10.01144 16.43295,-13.35507 l 4.77816,-4.75229 c 4.47896,2.0136 9.85404,1.65684 15.31923,1.06174 -2.79856,-3.05373 -0.27674,-6.30605 4.59549,-9.64611 7.2747,4.32843 11.56461,3.6064 15.35576,2.04047 -15.83743,-5.09427 -4.47834,-20.75353 -4.90493,-31.83442 L 131.0662,110.00891 87.880113,147.88567 c -4.177754,3.32094 -10.051784,6.51821 -18.72019,7.39632 -8.395936,-1.56234 -12.890659,-5.73068 -16.49718,-10.49234 z"
           id="path2262"
           style="fill:#e20909;fill-opacity:1;fill-rule:evenodd;stroke:#000000;stroke-width:2.5;stroke-linecap:round;stroke-linejoin:round;stroke-miterlimit:4;stroke-opacity:1;stroke-dasharray:none" />
        <g
           transform="matrix(0.9844319,-0.1757663,0.1757663,0.9844319,-23.516777,33.087624)"
           id="g2235"
           style="fill:#e20909;fill-opacity:1;stroke:#000000;stroke-width:2.5;stroke-miterlimit:4;stroke-opacity:1;stroke-dasharray:none">
          <path
             d="m 130.00497,65.064139 c 0.46784,-2.779843 -0.0119,-4.750792 1.43963,-8.370389 1.78442,3.757713 5.17126,5.463097 7.89164,8.022083"
             id="path2476"
             style="fill:#e20909;fill-opacity:1;fill-rule:evenodd;stroke:#000000;stroke-width:2.5;stroke-linecap:round;stroke-linejoin:round;stroke-miterlimit:4;stroke-opacity:1;stroke-dasharray:none" />
          <path
             d="m 160.41626,42.561106 c -23.46203,-0.175655 -41.9576,21.739072 -62.676834,2.502892 11.404804,27.863042 36.796974,3.248278 63.636404,6.609155 l -0.95957,-9.112047 z"
             id="path3447"
             style="fill:#e20909;fill-opacity:1;fill-rule:evenodd;stroke:#000000;stroke-width:2.5;stroke-linecap:round;stroke-linejoin:round;stroke-miterlimit:4;stroke-opacity:1;stroke-dasharray:none" />
          <path
             d="m 123.80891,39.8834 c 0.16369,3.484368 2.04873,6.212392 5.27584,8.350743 -1.36907,-4.462417 2.28107,-6.76788 4.60419,-9.643614"
             id="path2474"
             style="fill:#e20909;fill-opacity:1;fill-rule:evenodd;stroke:#000000;stroke-width:2.5;stroke-linecap:round;stroke-linejoin:round;stroke-miterlimit:4;stroke-opacity:1;stroke-dasharray:none" />
          <path
             d="m 134.07099,127.05634 -3.13754,9.81989 8.59306,-4.47908 c -14.35209,21.54728 0.24819,26.21635 15.73399,30.36918 -3.70029,-13.13052 11.46167,-20.47815 17.43975,-33.45559 -5.9564,12.78989 -3.94875,20.93258 18.16781,17.34129 -20.62417,-8.53039 3.69663,-16.70304 -2.40643,-33.17684 3.05009,9.16856 10.86415,5.73606 17.17126,6.2896 -18.81146,-9.30427 -6.0724,-20.620239 -3.50395,-31.287713 l -6.00662,-20.105422 c 2.44144,12.779951 10.73803,9.27113 17.85779,9.0362 -13.54854,-5.343256 -0.8441,-22.298321 -16.43776,-33.577161 5.76701,3.575446 11.44541,8.150659 17.73725,5.806434 -13.20217,-4.09689 -6.57635,-17.066128 -18.35726,-22.416616 6.89417,1.622585 11.52325,-0.05914 16.91293,-0.631307 -5.72129,-2.030852 -11.34507,-1.448397 -17.18849,-6.750998 L 188.05137,8.6081102 162.75832,3.7767525 c -6.61434,0.7003886 -13.036,2.0586166 -18.76469,5.7828341 -5.02061,1.7093884 -11.21483,2.5594704 -11.68874,7.5978924 -10.10116,0.244584 -30.44856,7.809935 -16.0111,9.145318 -1.15406,10.284972 0.87812,13.51532 6.37454,14.31622 11.90578,4.213029 16.07672,-4.242114 25.50598,-5.110385 19.27479,8.92434 8.94209,20.685471 2.10502,25.102425 -7.43139,4.800918 -18.68837,0.0045 -18.68837,0.0045 -4.68208,4.949148 -4.75588,8.186166 -0.22151,9.711043 4.88834,5.688432 7.329,1.584545 10.5321,0.53095 20.14917,3.147941 18.87547,-7.499486 26.99728,-12.096619 -6.76436,7.522923 -0.65806,19.611496 -23.1536,21.193881 -11.61754,0.822229 -9.75635,-3.216612 -20.8071,-1.995561 -11.05073,1.221069 -14.93571,7.73382 -23.39586,6.879782 -7.56252,-0.76339 -18.026195,-1.752787 -8.218874,-16.788545 -17.586371,12.840998 -3.81924,28.631281 17.294174,25.228522 -19.006523,3.25364 -31.566158,9.58135 -45.644936,-2.454545 17.339653,30.008085 30.684467,13.178005 54.866606,14.816365 -24.225739,-0.14667 -24.277919,19.59447 -49.69916,14.09907 5.710355,10.64627 13.946866,10.08488 24.856241,8.77499 -4.475031,3.14516 -9.001382,11.13637 -17.16889,9.41956 3.522475,7.67093 16.63214,6.47508 27.943309,5.42549 12.86949,-1.19421 20.42329,-9.21972 28.30025,-16.3036 z"
             id="path2462"
             style="fill:#e20909;fill-opacity:1;fill-rule:evenodd;stroke:#000000;stroke-width:2.5;stroke-linecap:round;stroke-linejoin:round;stroke-miterlimit:4;stroke-opacity:1;stroke-dasharray:none" />
          <path
             d="M 171.60227,13.84247 C 170.91241,4.0475852 179.95943,3.5465992 186.89239,1.0277603 185.60976,7.2276674 185.6807,15.40215 181.36292,17.174441"
             id="path2472"
             style="fill:#e20909;fill-opacity:1;fill-rule:evenodd;stroke:#000000;stroke-width:2.5;stroke-linecap:round;stroke-linejoin:round;stroke-miterlimit:4;stroke-opacity:1;stroke-dasharray:none" />
          <path
             d="m 133.48595,18.082995 c 2.77133,4.176822 5.28758,1.519392 7.85973,0.360053 6.8113,-6.647505 10.77866,-1.195454 15.34358,1.714238"
             id="path3449"
             style="fill:#e20909;fill-opacity:1;fill-rule:evenodd;stroke:#000000;stroke-width:2.5;stroke-linecap:round;stroke-linejoin:round;stroke-miterlimit:4;stroke-opacity:1;stroke-dasharray:none" />
          <path
             d="m 137.50838,21.058822 c 2.75634,1.931581 4.43672,2.694965 7.09584,2.022082 4.31812,-0.956387 5.76267,-3.345117 7.73186,-3.065623 -0.065,-1.717977 -0.31182,-3.370839 -3.04503,-4.133565 -6.55699,0.964031 -6.40897,3.188005 -11.78267,5.177106 z"
             id="path3451"
             style="fill:#e20909;fill-opacity:1;fill-rule:evenodd;stroke:#000000;stroke-width:2.5;stroke-linecap:round;stroke-linejoin:round;stroke-miterlimit:4;stroke-opacity:1;stroke-dasharray:none" />
        </g>
        <path
           d="m 154.88513,292.14808 c 3.67913,-8.06897 -0.18822,-15.85624 -1.47016,-23.74002"
           id="path3518"
           style="fill:#e20909;fill-opacity:1;fill-rule:evenodd;stroke:#000000;stroke-width:2.5;stroke-linecap:round;stroke-linejoin:round;stroke-miterlimit:4;stroke-opacity:1;stroke-dasharray:none" />
        <path
           d="m 32.191214,46.467206 c 5.246363,6.250706 2.328795,9.594862 10.039885,12.62992"
           id="path4248"
           style="fill:#e20909;fill-opacity:1;fill-rule:evenodd;stroke:#000000;stroke-width:2.5;stroke-linecap:butt;stroke-linejoin:miter;stroke-miterlimit:4;stroke-opacity:1;stroke-dasharray:none" />
      </g>
    </g>
  </g>
</svg>
