<?xml version="1.0" encoding="UTF-8" standalone="no"?>
<svg
   xmlns:dc="http://purl.org/dc/elements/1.1/"
   xmlns:cc="http://creativecommons.org/ns#"
   xmlns:rdf="http://www.w3.org/1999/02/22-rdf-syntax-ns#"
   xmlns:svg="http://www.w3.org/2000/svg"
   xmlns="http://www.w3.org/2000/svg"
   xmlns:sodipodi="http://sodipodi.sourceforge.net/DTD/sodipodi-0.dtd"
   xmlns:inkscape="http://www.inkscape.org/namespaces/inkscape"
   width="1203.588"
   height="797.19165"
   id="svg2"
   sodipodi:version="0.32"
   inkscape:version="1.0.1 (c497b03c, 2020-09-10)"
   sodipodi:docname="Drapeau_fr_deÌpartement_Alpes-de-Haute-Provence.svg"
   inkscape:output_extension="org.inkscape.output.svg.inkscape"
   version="1.0">
  <defs
     id="defs4" />
  <sodipodi:namedview
     id="base"
     pagecolor="#ffffff"
     bordercolor="#666666"
     borderopacity="1.0"
     inkscape:pageopacity="0.0"
     inkscape:pageshadow="2"
     inkscape:zoom="0.49497475"
     inkscape:cx="827.23839"
     inkscape:cy="310.88422"
     inkscape:document-units="px"
     inkscape:current-layer="layer1"
     inkscape:window-width="1920"
     inkscape:window-height="1080"
     inkscape:window-x="0"
     inkscape:window-y="0"
     showguides="true"
     inkscape:guide-bbox="true"
     inkscape:document-rotation="0"
     showgrid="false"
     inkscape:window-maximized="0">
    <sodipodi:guide
       orientation="vertical"
       position="-745.49257"
       id="guide28349" />
  </sodipodi:namedview>
  <metadata
     id="metadata7">
    <rdf:RDF>
      <cc:Work
         rdf:about="">
        <dc:format>image/svg+xml</dc:format>
        <dc:type
           rdf:resource="http://purl.org/dc/dcmitype/StillImage" />
      </cc:Work>
    </rdf:RDF>
  </metadata>
  <g
     inkscape:label="Calque 1"
     inkscape:groupmode="layer"
     id="layer1"
     transform="translate(1126.0609,-137.47842)"
     style="display:inline">
    <g
       transform="translate(-1022.3356,584.65272)"
       id="g22331"
       style="display:inline" />
    <path
       style="fill:none;fill-opacity:0.75;fill-rule:evenodd;stroke:none;stroke-width:3;stroke-linecap:butt;stroke-linejoin:miter;stroke-miterlimit:4;stroke-dasharray:none;stroke-opacity:1;display:inline"
       d="M 95.2819,215.06078 L 95.2819,-235.96609"
       id="path11207" />
    <rect
       transform="matrix(0,-1,1,0,0,0)"
       y="-44.954388"
       x="557.12079"
       height="0"
       width="1.5233166"
       id="rect12745"
       style="fill:#ffffff;fill-opacity:1;fill-rule:evenodd;stroke:none;stroke-width:1.52331662;stroke-linecap:round;stroke-linejoin:round;stroke-miterlimit:4;stroke-dasharray:none;stroke-dashoffset:0;stroke-opacity:1" />
    <path
       style="fill:#2b5df2;fill-opacity:1;stroke:#000000;stroke-width:0.40000001;stroke-miterlimit:4;stroke-dasharray:none;stroke-opacity:1"
       d="M -1125.856,137.67842 L 77.322109,137.67842 L 77.322109,934.47007 L -1125.856,934.47007 L -1125.856,137.67842 z "
       id="path10799"
       sodipodi:nodetypes="ccccc" />
    <path
       style="fill:none;fill-rule:evenodd;stroke:#000000;stroke-width:0.98280448px;stroke-linecap:butt;stroke-linejoin:miter;stroke-opacity:1"
       d="M 212.19321,1320.0324 L 212.19321,1320.0324 z "
       id="path30950" />
    <g
       id="g50">
      <path
         sodipodi:nodetypes="csssssscscsscccccccsscscssssssc"
         id="path3415"
         d="m -525.0049,341.80019 c 23.19109,25.06749 36.82708,38.89165 39.20977,77.78695 2.20499,35.99465 -21.74787,66.08733 -26.91059,100.90242 -0.97924,6.60349 -1.81957,20.08246 -0.93474,25.54899 0.65531,4.04851 2.67003,16.41656 4.87047,1.11319 0.45256,-3.14744 0.77707,-18.93901 2.16466,-26.95737 2.52837,-14.6104 10.62503,-40.30103 24.67214,-54.53453 14.0411,-14.22739 36.291,-23.4559 56.13342,-16.01352 17.97818,8.29526 19.67761,31.72177 14.56222,48.85232 -6.40647,21.45418 -30.88857,36.30342 -52.83724,37.75846 4.34906,-8.60056 14.75865,-33.14907 3.46836,-32.17464 -13.06881,1.12794 -28.70128,23.36347 -32.77126,38.61651 -1.53273,5.74418 -0.91328,14.66282 -9.11972,14.29453 5.41141,18.28389 20.68642,30.38256 34.06871,43.1455 -13.95025,1.15956 -27.7513,-5.40557 -39.92312,-11.65962 0.51467,12.53545 -1.91895,39.01683 -16.65308,53.47681 -13.67645,-14.88973 -14.92096,-33.04962 -15.17717,-53.47681 -12.17182,6.25405 -25.97287,12.81918 -39.92312,11.65962 13.38229,-12.76294 28.6573,-24.86161 34.06871,-43.1455 -8.20644,0.36829 -8.70018,-7.99376 -10.23291,-13.73793 -4.06999,-15.25302 -18.58926,-38.04519 -31.65808,-39.17311 -11.29028,-0.97443 -0.88069,23.57408 3.46837,32.17464 -21.94867,-1.45504 -46.43076,-16.30428 -52.83724,-37.75846 -5.11539,-17.13055 -3.41595,-40.55707 14.56222,-48.85232 19.84242,-7.44238 42.09231,1.78612 56.13342,16.01352 14.0471,14.2335 22.14377,39.92413 24.67214,54.53453 1.38759,8.01836 1.1555,22.69674 1.60806,25.84418 2.20045,15.30339 4.77176,4.04849 5.42707,0 0.88483,-5.46653 0.0445,-18.94551 -0.93474,-25.54899 -5.16272,-34.81507 -26.84878,-66.13192 -26.91059,-100.90242 -0.0548,-31.39637 15.73013,-55.28519 37.73386,-77.78695 z"
         style="fill:#fcef3c;fill-opacity:1;fill-rule:evenodd;stroke:#000000;stroke-width:1.00027;stroke-linecap:butt;stroke-linejoin:miter;stroke-miterlimit:4;stroke-dasharray:none;stroke-opacity:1" />
      <rect
         transform="scale(-1,1)"
         ry="5.9038463"
         y="540.31464"
         x="467.01331"
         height="18.523235"
         width="114.50727"
         id="rect3417"
         style="fill:#fcef3c;fill-opacity:1;fill-rule:evenodd;stroke:#000000;stroke-width:1.06994;stroke-linejoin:round;stroke-miterlimit:4;stroke-dasharray:none;stroke-opacity:1"
         rx="5.9038463" />
    </g>
    <path
       style="fill:#e20909;fill-opacity:1;fill-rule:evenodd;stroke:#000000;stroke-width:0.5822534px;stroke-linecap:butt;stroke-linejoin:miter;stroke-opacity:1"
       d="M -824.93705,281.96392 C -819.39709,281.96392 -735.06615,281.96392 -735.06615,281.96392 L -755.43536,227.30145 L -545.86793,227.30145 L -566.55881,281.96392 L -477.26156,281.96392 L -499.42147,227.30145 L -291.05585,227.30145 L -312.08283,281.96392 L -223.59684,281.96392 L -256.43104,204.78613 L -791.03951,204.78613 L -824.93705,281.96392 z "
       id="path12492"
       sodipodi:nodetypes="ccccccccccccc" />
    <path
       sodipodi:nodetypes="cccccccccc"
       id="path12743"
       d="M -1125.856,869.67842 L -925.32633,683.67842 L -724.79665,869.67842 L -524.26695,683.67842 L -323.73729,869.67842 L -123.20763,683.67842 L 77.322035,869.67842 L 77.322109,934.47007 L -1125.856,934.47007 L -1125.856,869.67842 z "
       style="fill:#ffffff;fill-opacity:1;stroke:#000000;stroke-width:0.40000001;stroke-miterlimit:4;stroke-dasharray:none;stroke-opacity:1" />
  </g>
  <g
     inkscape:groupmode="layer"
     id="layer2"
     transform="translate(-1.2170716,-1.26427)">
    <path
       id="path3430"
       d="M 799.5926,1303.6645 L 799.5926,1303.6645 z "
       style="fill:none;fill-rule:evenodd;stroke:#000000;stroke-width:0.98280448px;stroke-linecap:butt;stroke-linejoin:miter;stroke-opacity:1" />
  </g>
</svg>
