<?xml version="1.0" encoding="UTF-8" standalone="no"?>
<svg
   xmlns:dc="http://purl.org/dc/elements/1.1/"
   xmlns:cc="http://creativecommons.org/ns#"
   xmlns:rdf="http://www.w3.org/1999/02/22-rdf-syntax-ns#"
   xmlns:svg="http://www.w3.org/2000/svg"
   xmlns="http://www.w3.org/2000/svg"
   version="1.0"
   width="900.00024"
   id="Piemonte"
   height="599.99988">
  <metadata
     id="metadata3">
    <rdf:RDF>
      <cc:Work
         rdf:about="">
        <dc:title></dc:title>
        <dc:description />
        <dc:subject>
          <rdf:Bag>
            <rdf:li />
            <rdf:li>region</rdf:li>
            <rdf:li>flag</rdf:li>
            <rdf:li>piedmont</rdf:li>
            <rdf:li>italia</rdf:li>
            <rdf:li>italy</rdf:li>
            <rdf:li>europe</rdf:li>
            <rdf:li>piemonte</rdf:li>
            <rdf:li>sign</rdf:li>
          </rdf:Bag>
        </dc:subject>
        <dc:publisher>
          <cc:Agent
             rdf:about="http://www.openclipart.org">
            <dc:title>Luigi Maselli</dc:title>
          </cc:Agent>
        </dc:publisher>
        <dc:creator>
          <cc:Agent>
            <dc:title>Luigi Maselli</dc:title>
          </cc:Agent>
        </dc:creator>
        <dc:rights>
          <cc:Agent>
            <dc:title>Luigi Maselli</dc:title>
          </cc:Agent>
        </dc:rights>
        <dc:date />
        <dc:format>image/svg+xml</dc:format>
        <dc:type
           rdf:resource="http://purl.org/dc/dcmitype/StillImage" />
        <cc:license
           rdf:resource="http://web.resource.org/cc/PublicDomain" />
        <dc:language>en</dc:language>
      </cc:Work>
      <cc:License
         rdf:about="http://web.resource.org/cc/PublicDomain">
        <cc:permits
           rdf:resource="http://web.resource.org/cc/Reproduction" />
        <cc:permits
           rdf:resource="http://web.resource.org/cc/Distribution" />
        <cc:permits
           rdf:resource="http://web.resource.org/cc/DerivativeWorks" />
      </cc:License>
    </rdf:RDF>
  </metadata>
  <defs
     id="defs550" />
  <rect
     height="599.99988"
     id="rect565"
     style="font-size:12px;fill:#0c3c7c;fill-opacity:1;fill-rule:evenodd;stroke-width:1"
     width="900.00024"
     x="0"
     y="-3.9599834e-013" />
  <rect
     y="299.99988"
     x="0.00012207031"
     height="300"
     width="900"
     id="rect18347"
     style="color:#000000;clip-rule:nonzero;display:inline;overflow:visible;visibility:visible;opacity:1;isolation:auto;mix-blend-mode:normal;color-interpolation:sRGB;color-interpolation-filters:linearRGB;solid-color:#000000;solid-opacity:1;fill:#ffd203;fill-opacity:1;fill-rule:nonzero;stroke:none;stroke-width:0.37375;stroke-linecap:butt;stroke-linejoin:miter;stroke-miterlimit:4;stroke-dasharray:none;stroke-dashoffset:0;stroke-opacity:1;color-rendering:auto;image-rendering:auto;shape-rendering:auto;text-rendering:auto;enable-background:accumulate" />
  <path
     d="m 150.00013,104.63777 35.05312,-86.008914 529.1471,0 35.79976,86.332724 -104.18839,-0.32381 34.19431,-55.137856 -199.92778,0.736592 27.9581,54.242524 -114.65669,0.49527 32.98735,-55.318897 -204.55852,-0.155489 37.61417,55.137856 -109.42253,0 z"
     id="path560"
     style="font-size:12px;fill:#ffffff;fill-opacity:1;fill-rule:evenodd;stroke:#000000;stroke-width:0" />
  <g
     style="stroke:none;fill:#ffd203;fill-opacity:1"
     transform="matrix(1.1881856,0,0,1.1881856,224.85754,53.817638)"
     id="_x32_">
    <path
       style="stroke:none;fill:#ffd203;fill-opacity:1"
       id="path11053_1_"
       d="m 86.388,131.446 c 1.307,-1.418 3.611,-4.199 4.549,-7.148 1.048,-3.291 0.579,-7.963 0.327,-9.854 5.285,2.293 9.029,2.561 13.103,0.924 0,0 1.046,-0.422 1.049,-0.42 l -1.758,-0.756 c -2.82,-1.191 -7.485,-3.184 -9.582,-10.554 l 7.708,0 0,-5.234 -3.395,0 c 0.376,-10.385 6.267,-16.188 10.466,-16.383 2.072,-0.097 3.409,1.149 3.667,3.419 0.371,3.438 -1.587,7.933 -1.607,7.979 l -0.452,1.02 1.047,-0.394 c 5.441,-2.059 10.1,-5.568 13.477,-10.146 5.65,-7.663 3.77,-15.86 -1.01,-19.998 -4.518,-3.908 -12.297,-4.668 -19.5,2.447 -8.446,8.348 -12.418,24.929 -12.695,32.051 l -1.139,0 C 90.6,89.87 90.627,84.588 94.96,73.445 102.215,54.799 99.306,38.758 86.388,25.731 73.464,38.759 70.559,54.799 77.812,73.448 c 4.33,11.14 4.357,16.422 4.316,24.951 l -1.138,0 C 80.715,91.277 76.741,74.696 68.295,66.348 c -7.201,-7.112 -14.982,-6.355 -19.5,-2.443 -4.78,4.139 -6.661,12.333 -1.009,19.996 3.377,4.575 8.036,8.087 13.474,10.146 l 1.048,0.396 -0.451,-1.024 C 61.836,93.375 59.878,88.88 60.25,85.44 c 0.26,-2.268 1.594,-3.516 3.666,-3.419 4.201,0.198 10.092,5.998 10.467,16.383 l -3.394,0 0,5.236 7.707,0 c -2.097,7.371 -6.763,9.361 -9.583,10.552 l -1.76,0.756 c 0.006,-0.002 1.053,0.42 1.053,0.42 4.072,1.637 7.816,1.369 13.104,-0.922 -0.256,1.889 -0.723,6.562 0.326,9.852 0.935,2.949 3.242,5.73 4.552,7.148 z" />
    <rect
       id="rect11055_1_"
       style="fill:#ffd203;stroke:none;fill-opacity:1"
       y="99.341003"
       x="71.925003"
       height="3.3570001"
       width="28.919001" />
    <path
       id="path11057_1_"
       style="fill:#ffd203;stroke:none;fill-opacity:1"
       d="m 75.32,98.403 4.73,0 C 79.773,91.401 75.886,75.17 67.636,67.014 60.394,59.862 53.29,61.25 49.408,64.615 c -4.454,3.852 -6.183,11.524 -0.87,18.731 3.058,4.143 7.21,7.366 12.042,9.401 -0.586,-1.598 -1.553,-4.731 -1.263,-7.409 0.312,-2.743 2.089,-4.373 4.642,-4.253 4.4,0.206 10.97,5.86 11.361,17.318 z" />
    <path
       id="path11059_1_"
       style="fill:#ffd203;stroke:none;fill-opacity:1"
       d="M 89.706,98.403 C 89.663,89.766 89.69,84.41 94.086,73.104 101.06,55.171 98.44,39.713 86.389,27.096 74.332,39.713 71.71,55.173 78.685,73.104 83.082,84.41 83.11,89.761 83.067,98.403 l 6.639,0 0,0 z" />
    <path
       id="path11061_1_"
       style="fill:#ffd203;stroke:none;fill-opacity:1"
       d="m 97.453,98.403 -4.731,0 c 0.276,-7.002 4.165,-23.233 12.416,-31.389 7.242,-7.152 14.343,-5.764 18.227,-2.399 4.454,3.852 6.183,11.524 0.868,18.731 -3.055,4.143 -7.21,7.366 -12.043,9.401 0.586,-1.598 1.555,-4.731 1.266,-7.409 -0.313,-2.743 -2.091,-4.373 -4.644,-4.253 -4.397,0.206 -10.97,5.86 -11.359,17.318 z" />
    <path
       id="path11063_1_"
       style="fill:#ffd203;stroke:none;fill-opacity:1"
       d="m 93.099,103.638 c 2.085,7.669 6.751,9.949 9.79,11.248 -3.612,1.143 -7.011,0.668 -12.019,-1.625 l -0.807,-0.371 0.15,0.877 c 0.01,0.062 1.07,6.348 -0.17,10.248 -0.729,2.293 -2.396,4.533 -3.656,6.01 -1.264,-1.477 -2.932,-3.717 -3.66,-6.01 -1.242,-3.9 -0.18,-10.186 -0.172,-10.248 l 0.154,-0.877 -0.809,0.37 c -5.006,2.293 -8.404,2.766 -12.018,1.625 3.038,-1.299 7.705,-3.578 9.792,-11.248 l 13.425,0 0,0.001 z" />
  </g>
  <g
     style="stroke:none;fill:#ffd203;fill-opacity:1"
     transform="matrix(1.1881856,0,0,1.1881856,347.35766,93.817634)"
     id="_x32_-4">
    <path
       style="stroke:none;fill:#ffd203;fill-opacity:1"
       id="path11053_1_-8"
       d="m 86.388,131.446 c 1.307,-1.418 3.611,-4.199 4.549,-7.148 1.048,-3.291 0.579,-7.963 0.327,-9.854 5.285,2.293 9.029,2.561 13.103,0.924 0,0 1.046,-0.422 1.049,-0.42 l -1.758,-0.756 c -2.82,-1.191 -7.485,-3.184 -9.582,-10.554 l 7.708,0 0,-5.234 -3.395,0 c 0.376,-10.385 6.267,-16.188 10.466,-16.383 2.072,-0.097 3.409,1.149 3.667,3.419 0.371,3.438 -1.587,7.933 -1.607,7.979 l -0.452,1.02 1.047,-0.394 c 5.441,-2.059 10.1,-5.568 13.477,-10.146 5.65,-7.663 3.77,-15.86 -1.01,-19.998 -4.518,-3.908 -12.297,-4.668 -19.5,2.447 -8.446,8.348 -12.418,24.929 -12.695,32.051 l -1.139,0 C 90.6,89.87 90.627,84.588 94.96,73.445 102.215,54.799 99.306,38.758 86.388,25.731 73.464,38.759 70.559,54.799 77.812,73.448 c 4.33,11.14 4.357,16.422 4.316,24.951 l -1.138,0 C 80.715,91.277 76.741,74.696 68.295,66.348 c -7.201,-7.112 -14.982,-6.355 -19.5,-2.443 -4.78,4.139 -6.661,12.333 -1.009,19.996 3.377,4.575 8.036,8.087 13.474,10.146 l 1.048,0.396 -0.451,-1.024 C 61.836,93.375 59.878,88.88 60.25,85.44 c 0.26,-2.268 1.594,-3.516 3.666,-3.419 4.201,0.198 10.092,5.998 10.467,16.383 l -3.394,0 0,5.236 7.707,0 c -2.097,7.371 -6.763,9.361 -9.583,10.552 l -1.76,0.756 c 0.006,-0.002 1.053,0.42 1.053,0.42 4.072,1.637 7.816,1.369 13.104,-0.922 -0.256,1.889 -0.723,6.562 0.326,9.852 0.935,2.949 3.242,5.73 4.552,7.148 z" />
    <rect
       id="rect11055_1_-4"
       style="fill:#ffd203;stroke:none;fill-opacity:1"
       y="99.341003"
       x="71.925003"
       height="3.3570001"
       width="28.919001" />
    <path
       id="path11057_1_-2"
       style="fill:#ffd203;stroke:none;fill-opacity:1"
       d="m 75.32,98.403 4.73,0 C 79.773,91.401 75.886,75.17 67.636,67.014 60.394,59.862 53.29,61.25 49.408,64.615 c -4.454,3.852 -6.183,11.524 -0.87,18.731 3.058,4.143 7.21,7.366 12.042,9.401 -0.586,-1.598 -1.553,-4.731 -1.263,-7.409 0.312,-2.743 2.089,-4.373 4.642,-4.253 4.4,0.206 10.97,5.86 11.361,17.318 z" />
    <path
       id="path11059_1_-9"
       style="fill:#ffd203;stroke:none;fill-opacity:1"
       d="M 89.706,98.403 C 89.663,89.766 89.69,84.41 94.086,73.104 101.06,55.171 98.44,39.713 86.389,27.096 74.332,39.713 71.71,55.173 78.685,73.104 83.082,84.41 83.11,89.761 83.067,98.403 l 6.639,0 0,0 z" />
    <path
       id="path11061_1_-5"
       style="fill:#ffd203;stroke:none;fill-opacity:1"
       d="m 97.453,98.403 -4.731,0 c 0.276,-7.002 4.165,-23.233 12.416,-31.389 7.242,-7.152 14.343,-5.764 18.227,-2.399 4.454,3.852 6.183,11.524 0.868,18.731 -3.055,4.143 -7.21,7.366 -12.043,9.401 0.586,-1.598 1.555,-4.731 1.266,-7.409 -0.313,-2.743 -2.091,-4.373 -4.644,-4.253 -4.397,0.206 -10.97,5.86 -11.359,17.318 z" />
    <path
       id="path11063_1_-1"
       style="fill:#ffd203;stroke:none;fill-opacity:1"
       d="m 93.099,103.638 c 2.085,7.669 6.751,9.949 9.79,11.248 -3.612,1.143 -7.011,0.668 -12.019,-1.625 l -0.807,-0.371 0.15,0.877 c 0.01,0.062 1.07,6.348 -0.17,10.248 -0.729,2.293 -2.396,4.533 -3.656,6.01 -1.264,-1.477 -2.932,-3.717 -3.66,-6.01 -1.242,-3.9 -0.18,-10.186 -0.172,-10.248 l 0.154,-0.877 -0.809,0.37 c -5.006,2.293 -8.404,2.766 -12.018,1.625 3.038,-1.299 7.705,-3.578 9.792,-11.248 l 13.425,0 0,0.001 z" />
  </g>
  <g
     style="stroke:none;fill:#ffd203;fill-opacity:1"
     transform="matrix(1.1881856,0,0,1.1881856,469.85754,53.817638)"
     id="_x32_-4-3">
    <path
       style="stroke:none;fill:#ffd203;fill-opacity:1"
       id="path11053_1_-8-6"
       d="m 86.388,131.446 c 1.307,-1.418 3.611,-4.199 4.549,-7.148 1.048,-3.291 0.579,-7.963 0.327,-9.854 5.285,2.293 9.029,2.561 13.103,0.924 0,0 1.046,-0.422 1.049,-0.42 l -1.758,-0.756 c -2.82,-1.191 -7.485,-3.184 -9.582,-10.554 l 7.708,0 0,-5.234 -3.395,0 c 0.376,-10.385 6.267,-16.188 10.466,-16.383 2.072,-0.097 3.409,1.149 3.667,3.419 0.371,3.438 -1.587,7.933 -1.607,7.979 l -0.452,1.02 1.047,-0.394 c 5.441,-2.059 10.1,-5.568 13.477,-10.146 5.65,-7.663 3.77,-15.86 -1.01,-19.998 -4.518,-3.908 -12.297,-4.668 -19.5,2.447 -8.446,8.348 -12.418,24.929 -12.695,32.051 l -1.139,0 C 90.6,89.87 90.627,84.588 94.96,73.445 102.215,54.799 99.306,38.758 86.388,25.731 73.464,38.759 70.559,54.799 77.812,73.448 c 4.33,11.14 4.357,16.422 4.316,24.951 l -1.138,0 C 80.715,91.277 76.741,74.696 68.295,66.348 c -7.201,-7.112 -14.982,-6.355 -19.5,-2.443 -4.78,4.139 -6.661,12.333 -1.009,19.996 3.377,4.575 8.036,8.087 13.474,10.146 l 1.048,0.396 -0.451,-1.024 C 61.836,93.375 59.878,88.88 60.25,85.44 c 0.26,-2.268 1.594,-3.516 3.666,-3.419 4.201,0.198 10.092,5.998 10.467,16.383 l -3.394,0 0,5.236 7.707,0 c -2.097,7.371 -6.763,9.361 -9.583,10.552 l -1.76,0.756 c 0.006,-0.002 1.053,0.42 1.053,0.42 4.072,1.637 7.816,1.369 13.104,-0.922 -0.256,1.889 -0.723,6.562 0.326,9.852 0.935,2.949 3.242,5.73 4.552,7.148 z" />
    <rect
       id="rect11055_1_-4-6"
       style="fill:#ffd203;stroke:none;fill-opacity:1"
       y="99.341003"
       x="71.925003"
       height="3.3570001"
       width="28.919001" />
    <path
       id="path11057_1_-2-3"
       style="fill:#ffd203;stroke:none;fill-opacity:1"
       d="m 75.32,98.403 4.73,0 C 79.773,91.401 75.886,75.17 67.636,67.014 60.394,59.862 53.29,61.25 49.408,64.615 c -4.454,3.852 -6.183,11.524 -0.87,18.731 3.058,4.143 7.21,7.366 12.042,9.401 -0.586,-1.598 -1.553,-4.731 -1.263,-7.409 0.312,-2.743 2.089,-4.373 4.642,-4.253 4.4,0.206 10.97,5.86 11.361,17.318 z" />
    <path
       id="path11059_1_-9-2"
       style="fill:#ffd203;stroke:none;fill-opacity:1"
       d="M 89.706,98.403 C 89.663,89.766 89.69,84.41 94.086,73.104 101.06,55.171 98.44,39.713 86.389,27.096 74.332,39.713 71.71,55.173 78.685,73.104 83.082,84.41 83.11,89.761 83.067,98.403 l 6.639,0 0,0 z" />
    <path
       id="path11061_1_-5-1"
       style="fill:#ffd203;stroke:none;fill-opacity:1"
       d="m 97.453,98.403 -4.731,0 c 0.276,-7.002 4.165,-23.233 12.416,-31.389 7.242,-7.152 14.343,-5.764 18.227,-2.399 4.454,3.852 6.183,11.524 0.868,18.731 -3.055,4.143 -7.21,7.366 -12.043,9.401 0.586,-1.598 1.555,-4.731 1.266,-7.409 -0.313,-2.743 -2.091,-4.373 -4.644,-4.253 -4.397,0.206 -10.97,5.86 -11.359,17.318 z" />
    <path
       id="path11063_1_-1-7"
       style="fill:#ffd203;stroke:none;fill-opacity:1"
       d="m 93.099,103.638 c 2.085,7.669 6.751,9.949 9.79,11.248 -3.612,1.143 -7.011,0.668 -12.019,-1.625 l -0.807,-0.371 0.15,0.877 c 0.01,0.062 1.07,6.348 -0.17,10.248 -0.729,2.293 -2.396,4.533 -3.656,6.01 -1.264,-1.477 -2.932,-3.717 -3.66,-6.01 -1.242,-3.9 -0.18,-10.186 -0.172,-10.248 l 0.154,-0.877 -0.809,0.37 c -5.006,2.293 -8.404,2.766 -12.018,1.625 3.038,-1.299 7.705,-3.578 9.792,-11.248 l 13.425,0 0,0.001 z" />
  </g>
  <rect
     transform="matrix(0.5547002,0.83205029,-0.5547002,0.83205029,0,0)"
     y="225.34674"
     x="315.48584"
     height="90.138779"
     width="90.138779"
     id="rect18837"
     style="color:#000000;clip-rule:nonzero;display:inline;overflow:visible;visibility:visible;opacity:1;isolation:auto;mix-blend-mode:normal;color-interpolation:sRGB;color-interpolation-filters:linearRGB;solid-color:#000000;solid-opacity:1;fill:#d20929;fill-opacity:1;fill-rule:nonzero;stroke:none;stroke-width:0.37375;stroke-linecap:butt;stroke-linejoin:miter;stroke-miterlimit:4;stroke-dasharray:none;stroke-dashoffset:0;stroke-opacity:1;color-rendering:auto;image-rendering:auto;shape-rendering:auto;text-rendering:auto;enable-background:accumulate" />
  <rect
     transform="matrix(0.5547002,0.83205029,-0.5547002,0.83205029,0,0)"
     y="135.20796"
     x="405.6246"
     height="90.138779"
     width="90.138779"
     id="rect18837-1"
     style="color:#000000;clip-rule:nonzero;display:inline;overflow:visible;visibility:visible;opacity:1;isolation:auto;mix-blend-mode:normal;color-interpolation:sRGB;color-interpolation-filters:linearRGB;solid-color:#000000;solid-opacity:1;fill:#d20929;fill-opacity:1;fill-rule:nonzero;stroke:none;stroke-width:0.37375;stroke-linecap:butt;stroke-linejoin:miter;stroke-miterlimit:4;stroke-dasharray:none;stroke-dashoffset:0;stroke-opacity:1;color-rendering:auto;image-rendering:auto;shape-rendering:auto;text-rendering:auto;enable-background:accumulate" />
  <rect
     transform="matrix(0.5547002,0.83205029,-0.5547002,0.83205029,0,0)"
     y="-315.48593"
     x="856.31848"
     height="90.138779"
     width="90.138779"
     id="rect18837-1-3"
     style="color:#000000;clip-rule:nonzero;display:inline;overflow:visible;visibility:visible;opacity:1;isolation:auto;mix-blend-mode:normal;color-interpolation:sRGB;color-interpolation-filters:linearRGB;solid-color:#000000;solid-opacity:1;fill:#d20929;fill-opacity:1;fill-rule:nonzero;stroke:none;stroke-width:0.37375;stroke-linecap:butt;stroke-linejoin:miter;stroke-miterlimit:4;stroke-dasharray:none;stroke-dashoffset:0;stroke-opacity:1;color-rendering:auto;image-rendering:auto;shape-rendering:auto;text-rendering:auto;enable-background:accumulate" />
  <rect
     transform="matrix(0.5547002,0.83205029,-0.5547002,0.83205029,0,0)"
     y="-225.34717"
     x="766.17969"
     height="90.138779"
     width="90.138779"
     id="rect18837-1-3-6"
     style="color:#000000;clip-rule:nonzero;display:inline;overflow:visible;visibility:visible;opacity:1;isolation:auto;mix-blend-mode:normal;color-interpolation:sRGB;color-interpolation-filters:linearRGB;solid-color:#000000;solid-opacity:1;fill:#d20929;fill-opacity:1;fill-rule:nonzero;stroke:none;stroke-width:0.37375;stroke-linecap:butt;stroke-linejoin:miter;stroke-miterlimit:4;stroke-dasharray:none;stroke-dashoffset:0;stroke-opacity:1;color-rendering:auto;image-rendering:auto;shape-rendering:auto;text-rendering:auto;enable-background:accumulate" />
  <rect
     transform="matrix(0.5547002,0.83205029,-0.5547002,0.83205029,0,0)"
     y="135.20795"
     x="225.34698"
     height="90.138779"
     width="90.138779"
     id="rect18837-9"
     style="color:#000000;clip-rule:nonzero;display:inline;overflow:visible;visibility:visible;opacity:1;isolation:auto;mix-blend-mode:normal;color-interpolation:sRGB;color-interpolation-filters:linearRGB;solid-color:#000000;solid-opacity:1;fill:#d20929;fill-opacity:1;fill-rule:nonzero;stroke:none;stroke-width:0.37375;stroke-linecap:butt;stroke-linejoin:miter;stroke-miterlimit:4;stroke-dasharray:none;stroke-dashoffset:0;stroke-opacity:1;color-rendering:auto;image-rendering:auto;shape-rendering:auto;text-rendering:auto;enable-background:accumulate" />
  <rect
     transform="matrix(0.5547002,0.83205029,-0.5547002,0.83205029,0,0)"
     y="45.069187"
     x="315.48578"
     height="90.138779"
     width="90.138779"
     id="rect18837-1-8"
     style="color:#000000;clip-rule:nonzero;display:inline;overflow:visible;visibility:visible;opacity:1;isolation:auto;mix-blend-mode:normal;color-interpolation:sRGB;color-interpolation-filters:linearRGB;solid-color:#000000;solid-opacity:1;fill:#d20929;fill-opacity:1;fill-rule:nonzero;stroke:none;stroke-width:0.37375;stroke-linecap:butt;stroke-linejoin:miter;stroke-miterlimit:4;stroke-dasharray:none;stroke-dashoffset:0;stroke-opacity:1;color-rendering:auto;image-rendering:auto;shape-rendering:auto;text-rendering:auto;enable-background:accumulate" />
  <rect
     transform="matrix(0.5547002,0.83205029,-0.5547002,0.83205029,0,0)"
     y="-405.62469"
     x="766.17963"
     height="90.138779"
     width="90.138779"
     id="rect18837-1-3-64"
     style="color:#000000;clip-rule:nonzero;display:inline;overflow:visible;visibility:visible;opacity:1;isolation:auto;mix-blend-mode:normal;color-interpolation:sRGB;color-interpolation-filters:linearRGB;solid-color:#000000;solid-opacity:1;fill:#d20929;fill-opacity:1;fill-rule:nonzero;stroke:none;stroke-width:0.37375;stroke-linecap:butt;stroke-linejoin:miter;stroke-miterlimit:4;stroke-dasharray:none;stroke-dashoffset:0;stroke-opacity:1;color-rendering:auto;image-rendering:auto;shape-rendering:auto;text-rendering:auto;enable-background:accumulate" />
  <rect
     transform="matrix(0.5547002,0.83205029,-0.5547002,0.83205029,0,0)"
     y="-315.48596"
     x="676.04095"
     height="90.138779"
     width="90.138779"
     id="rect18837-1-3-6-7"
     style="color:#000000;clip-rule:nonzero;display:inline;overflow:visible;visibility:visible;opacity:1;isolation:auto;mix-blend-mode:normal;color-interpolation:sRGB;color-interpolation-filters:linearRGB;solid-color:#000000;solid-opacity:1;fill:#d20929;fill-opacity:1;fill-rule:nonzero;stroke:none;stroke-width:0.37375;stroke-linecap:butt;stroke-linejoin:miter;stroke-miterlimit:4;stroke-dasharray:none;stroke-dashoffset:0;stroke-opacity:1;color-rendering:auto;image-rendering:auto;shape-rendering:auto;text-rendering:auto;enable-background:accumulate" />
  <rect
     transform="matrix(0.5547002,0.83205029,-0.5547002,0.83205029,0,0)"
     y="-585.90228"
     x="946.45721"
     height="90.138779"
     width="90.138779"
     id="rect18837-1-3-6-6-2"
     style="color:#000000;clip-rule:nonzero;display:inline;overflow:visible;visibility:visible;opacity:1;isolation:auto;mix-blend-mode:normal;color-interpolation:sRGB;color-interpolation-filters:linearRGB;solid-color:#000000;solid-opacity:1;fill:#d20929;fill-opacity:1;fill-rule:nonzero;stroke:none;stroke-width:0.37375;stroke-linecap:butt;stroke-linejoin:miter;stroke-miterlimit:4;stroke-dasharray:none;stroke-dashoffset:0;stroke-opacity:1;color-rendering:auto;image-rendering:auto;shape-rendering:auto;text-rendering:auto;enable-background:accumulate" />
  <rect
     transform="matrix(0.5547002,0.83205029,-0.5547002,0.83205029,0,0)"
     y="-135.20839"
     x="495.76334"
     height="90.138779"
     width="90.138779"
     id="rect18837-1-3-6-6-7-4"
     style="color:#000000;clip-rule:nonzero;display:inline;overflow:visible;visibility:visible;opacity:1;isolation:auto;mix-blend-mode:normal;color-interpolation:sRGB;color-interpolation-filters:linearRGB;solid-color:#000000;solid-opacity:1;fill:#d20929;fill-opacity:1;fill-rule:nonzero;stroke:none;stroke-width:0.37375;stroke-linecap:butt;stroke-linejoin:miter;stroke-miterlimit:4;stroke-dasharray:none;stroke-dashoffset:0;stroke-opacity:1;color-rendering:auto;image-rendering:auto;shape-rendering:auto;text-rendering:auto;enable-background:accumulate" />
  <rect
     transform="matrix(0.5547002,0.83205029,-0.5547002,0.83205029,0,0)"
     y="-495.76349"
     x="856.31842"
     height="90.138779"
     width="90.138779"
     id="rect18837-5-1"
     style="color:#000000;clip-rule:nonzero;display:inline;overflow:visible;visibility:visible;opacity:1;isolation:auto;mix-blend-mode:normal;color-interpolation:sRGB;color-interpolation-filters:linearRGB;solid-color:#000000;solid-opacity:1;fill:#d20929;fill-opacity:1;fill-rule:nonzero;stroke:none;stroke-width:0.37375;stroke-linecap:butt;stroke-linejoin:miter;stroke-miterlimit:4;stroke-dasharray:none;stroke-dashoffset:0;stroke-opacity:1;color-rendering:auto;image-rendering:auto;shape-rendering:auto;text-rendering:auto;enable-background:accumulate" />
  <rect
     transform="matrix(0.5547002,0.83205029,-0.5547002,0.83205029,0,0)"
     y="-225.34718"
     x="585.90216"
     height="90.138779"
     width="90.138779"
     id="rect18837-1-7-9"
     style="color:#000000;clip-rule:nonzero;display:inline;overflow:visible;visibility:visible;opacity:1;isolation:auto;mix-blend-mode:normal;color-interpolation:sRGB;color-interpolation-filters:linearRGB;solid-color:#000000;solid-opacity:1;fill:#d20929;fill-opacity:1;fill-rule:nonzero;stroke:none;stroke-width:0.37375;stroke-linecap:butt;stroke-linejoin:miter;stroke-miterlimit:4;stroke-dasharray:none;stroke-dashoffset:0;stroke-opacity:1;color-rendering:auto;image-rendering:auto;shape-rendering:auto;text-rendering:auto;enable-background:accumulate" />
  <rect
     transform="matrix(0.5547002,0.83205029,-0.5547002,0.83205029,0,0)"
     y="-45.069614"
     x="405.6246"
     height="90.138779"
     width="90.138779"
     id="rect18837-1-3-0-8"
     style="color:#000000;clip-rule:nonzero;display:inline;overflow:visible;visibility:visible;opacity:1;isolation:auto;mix-blend-mode:normal;color-interpolation:sRGB;color-interpolation-filters:linearRGB;solid-color:#000000;solid-opacity:1;fill:#d20929;fill-opacity:1;fill-rule:nonzero;stroke:none;stroke-width:0.37375;stroke-linecap:butt;stroke-linejoin:miter;stroke-miterlimit:4;stroke-dasharray:none;stroke-dashoffset:0;stroke-opacity:1;color-rendering:auto;image-rendering:auto;shape-rendering:auto;text-rendering:auto;enable-background:accumulate" />
  <rect
     transform="matrix(0.5547002,0.83205029,-0.5547002,0.83205029,0,0)"
     y="-495.76352"
     x="1036.5961"
     height="90.138779"
     width="90.138779"
     id="rect18837-1-3-6-6"
     style="color:#000000;clip-rule:nonzero;display:inline;overflow:visible;visibility:visible;opacity:1;isolation:auto;mix-blend-mode:normal;color-interpolation:sRGB;color-interpolation-filters:linearRGB;solid-color:#000000;solid-opacity:1;fill:#d20929;fill-opacity:1;fill-rule:nonzero;stroke:none;stroke-width:0.37375;stroke-linecap:butt;stroke-linejoin:miter;stroke-miterlimit:4;stroke-dasharray:none;stroke-dashoffset:0;stroke-opacity:1;color-rendering:auto;image-rendering:auto;shape-rendering:auto;text-rendering:auto;enable-background:accumulate" />
  <rect
     transform="matrix(0.5547002,0.83205029,-0.5547002,0.83205029,0,0)"
     y="-45.069599"
     x="585.90216"
     height="90.138779"
     width="90.138779"
     id="rect18837-1-3-6-6-7"
     style="color:#000000;clip-rule:nonzero;display:inline;overflow:visible;visibility:visible;opacity:1;isolation:auto;mix-blend-mode:normal;color-interpolation:sRGB;color-interpolation-filters:linearRGB;solid-color:#000000;solid-opacity:1;fill:#d20929;fill-opacity:1;fill-rule:nonzero;stroke:none;stroke-width:0.37375;stroke-linecap:butt;stroke-linejoin:miter;stroke-miterlimit:4;stroke-dasharray:none;stroke-dashoffset:0;stroke-opacity:1;color-rendering:auto;image-rendering:auto;shape-rendering:auto;text-rendering:auto;enable-background:accumulate" />
  <rect
     transform="matrix(0.5547002,0.83205029,-0.5547002,0.83205029,0,0)"
     y="-405.62473"
     x="946.45728"
     height="90.138779"
     width="90.138779"
     id="rect18837-5"
     style="color:#000000;clip-rule:nonzero;display:inline;overflow:visible;visibility:visible;opacity:1;isolation:auto;mix-blend-mode:normal;color-interpolation:sRGB;color-interpolation-filters:linearRGB;solid-color:#000000;solid-opacity:1;fill:#d20929;fill-opacity:1;fill-rule:nonzero;stroke:none;stroke-width:0.37375;stroke-linecap:butt;stroke-linejoin:miter;stroke-miterlimit:4;stroke-dasharray:none;stroke-dashoffset:0;stroke-opacity:1;color-rendering:auto;image-rendering:auto;shape-rendering:auto;text-rendering:auto;enable-background:accumulate" />
  <rect
     transform="matrix(0.5547002,0.83205029,-0.5547002,0.83205029,0,0)"
     y="-135.20839"
     x="676.04095"
     height="90.138779"
     width="90.138779"
     id="rect18837-1-7"
     style="color:#000000;clip-rule:nonzero;display:inline;overflow:visible;visibility:visible;opacity:1;isolation:auto;mix-blend-mode:normal;color-interpolation:sRGB;color-interpolation-filters:linearRGB;solid-color:#000000;solid-opacity:1;fill:#d20929;fill-opacity:1;fill-rule:nonzero;stroke:none;stroke-width:0.37375;stroke-linecap:butt;stroke-linejoin:miter;stroke-miterlimit:4;stroke-dasharray:none;stroke-dashoffset:0;stroke-opacity:1;color-rendering:auto;image-rendering:auto;shape-rendering:auto;text-rendering:auto;enable-background:accumulate" />
  <rect
     transform="matrix(0.5547002,0.83205029,-0.5547002,0.83205029,0,0)"
     y="45.06918"
     x="495.7634"
     height="90.138779"
     width="90.138779"
     id="rect18837-1-3-0"
     style="color:#000000;clip-rule:nonzero;display:inline;overflow:visible;visibility:visible;opacity:1;isolation:auto;mix-blend-mode:normal;color-interpolation:sRGB;color-interpolation-filters:linearRGB;solid-color:#000000;solid-opacity:1;fill:#d20929;fill-opacity:1;fill-rule:nonzero;stroke:none;stroke-width:0.37375;stroke-linecap:butt;stroke-linejoin:miter;stroke-miterlimit:4;stroke-dasharray:none;stroke-dashoffset:0;stroke-opacity:1;color-rendering:auto;image-rendering:auto;shape-rendering:auto;text-rendering:auto;enable-background:accumulate" />
  <path
     style="fill:#ffffff"
     id="w"
     d="m -49.999858,263.63631 q 45.4545387,-25.45455 90.909095,0 45.45454,25.45454 90.909083,0 45.45457,-25.45455 90.90915,0 45.4545,25.45454 90.909,0 45.45461,-25.45455 90.9091,0 45.4546,25.45454 90.9091,0 45.4546,-25.45455 90.9091,0 45.4546,25.45454 90.9091,0 45.4545,-25.45455 90.9091,0 45.4545,25.45454 90.9091,0 45.45452,-25.45455 90.90903,0 l 0,72.72727 q -45.45451,-25.45455 -90.90903,0 -45.4546,25.45454 -90.9091,0 -45.4546,-25.45455 -90.9091,0 -45.4545,25.45454 -90.9091,0 -45.4545,-25.45455 -90.9091,0 -45.4545,25.45454 -90.9091,0 -45.4545,-25.45455 -90.9091,0 -45.4545,25.45454 -90.909,0 -45.45459,-25.45455 -90.90916,0 -45.454543,25.45454 -90.909083,0 -45.4545463,-25.45455 -90.909085,0 z" />
</svg>
