<?xml version="1.0" encoding="UTF-8" standalone="no"?>
<svg
   xmlns:dc="http://purl.org/dc/elements/1.1/"
   xmlns:cc="http://creativecommons.org/ns#"
   xmlns:rdf="http://www.w3.org/1999/02/22-rdf-syntax-ns#"
   xmlns:svg="http://www.w3.org/2000/svg"
   xmlns="http://www.w3.org/2000/svg"
   xmlns:sodipodi="http://sodipodi.sourceforge.net/DTD/sodipodi-0.dtd"
   xmlns:inkscape="http://www.inkscape.org/namespaces/inkscape"
   width="1200"
   height="800"
   id="svg2"
   sodipodi:version="0.32"
   inkscape:version="1.0.1 (c497b03c, 2020-09-10)"
   sodipodi:docname="Drapeau_fr_deÌpartement_Loir-et-Cher.svg"
   inkscape:output_extension="org.inkscape.output.svg.inkscape"
   version="1.0">
  <defs
     id="defs4" />
  <sodipodi:namedview
     id="base"
     pagecolor="#ffffff"
     bordercolor="#666666"
     borderopacity="1.0"
     inkscape:pageopacity="0.0"
     inkscape:pageshadow="2"
     inkscape:zoom="0.49497475"
     inkscape:cx="827.03349"
     inkscape:cy="149.05981"
     inkscape:document-units="px"
     inkscape:current-layer="layer1"
     inkscape:window-width="1920"
     inkscape:window-height="1080"
     inkscape:window-x="0"
     inkscape:window-y="0"
     showguides="true"
     inkscape:guide-bbox="true"
     inkscape:document-rotation="0"
     showgrid="false"
     inkscape:window-maximized="0">
    <sodipodi:guide
       orientation="vertical"
       position="-745.69747,3.0083496"
       id="guide28349" />
  </sodipodi:namedview>
  <metadata
     id="metadata7">
    <rdf:RDF>
      <cc:Work
         rdf:about="">
        <dc:format>image/svg+xml</dc:format>
        <dc:type
           rdf:resource="http://purl.org/dc/dcmitype/StillImage" />
      </cc:Work>
    </rdf:RDF>
  </metadata>
  <g
     inkscape:label="Calque 1"
     inkscape:groupmode="layer"
     id="layer1"
     transform="translate(1125.856,-137.67842)"
     style="display:inline">
    <path
       style="fill:#2b5df2;fill-opacity:1;stroke:none;stroke-width:0.400275;stroke-miterlimit:4;stroke-dasharray:none;stroke-opacity:1"
       d="m -1125.856,137.67842 h 1200 v 800 h -1200 z"
       id="path10799"
       sodipodi:nodetypes="ccccc" />
    <path
       id="path566"
       style="fill:#ffff00;fill-opacity:1;stroke:none;stroke-width:0.400275;stroke-miterlimit:4;stroke-dasharray:none;stroke-opacity:1"
       d="m 1200,446.31641 c -1.8104,-0.0885 -3.7156,-0.0903 -5.4219,-0.27344 -3.2798,-0.35196 -6.3755,-0.87214 -9.3105,-1.53711 -2.9351,-0.66497 -5.711,-1.47429 -8.3535,-2.4043 -2.6425,-0.93 -5.1506,-1.98184 -7.5528,-3.1289 -2.4022,-1.14707 -4.6979,-2.3909 -6.9121,-3.70704 -2.2142,-1.31613 -4.3474,-2.70339 -6.4258,-4.14062 -4.1567,-2.87447 -8.0944,-5.94464 -12.0214,-9.01562 -3.9271,-3.07099 -7.8437,-6.14369 -11.959,-9.02735 -2.0577,-1.44183 -4.1646,-2.83517 -6.3477,-4.1582 -2.1831,-1.32303 -4.4419,-2.57617 -6.8027,-3.73242 -2.3608,-1.15625 -4.8233,-2.21671 -7.4141,-3.15821 -2.5907,-0.94149 -5.3107,-1.76265 -8.1836,-2.4414 -2.8729,-0.67876 -5.9,-1.214 -9.1074,-1.58203 -3.2074,-0.36804 -6.5954,-0.56879 -10.1895,-0.57813 -3.594,0.009 -6.9801,0.21009 -10.1875,0.57813 -3.2073,0.36803 -6.2345,0.90327 -9.1074,1.58203 -2.8729,0.67875 -5.5928,1.49991 -8.1836,2.4414 -2.5907,0.9415 -5.0532,2.00196 -7.414,3.15821 -2.3608,1.15625 -4.6197,2.40939 -6.8028,3.73242 -2.1831,1.32303 -4.29,2.71637 -6.3476,4.1582 -4.1153,2.88366 -8.032,5.95636 -11.959,9.02735 -3.927,3.07098 -7.8648,6.14115 -12.0215,9.01562 -2.0783,1.43723 -4.2117,2.82449 -6.4258,4.14062 -2.2141,1.31614 -4.508,2.55997 -6.91013,3.70704 -2.40214,1.14706 -4.91227,2.1989 -7.55469,3.1289 -2.64241,0.93001 -5.41662,1.73933 -8.35156,2.4043 -2.93494,0.66497 -6.03084,1.18515 -9.31054,1.53711 -3.27971,0.35196 -6.7432,0.52539 -10.41993,0.52539 h -0.006 c -3.67672,0 -7.14021,-0.17343 -10.41992,-0.52539 -3.2797,-0.35196 -6.37561,-0.87214 -9.31055,-1.53711 -2.93493,-0.66497 -5.70914,-1.47429 -8.35156,-2.4043 -2.64241,-0.93 -5.15254,-1.98184 -7.55468,-3.1289 -2.40215,-1.14707 -4.69605,-2.3909 -6.91016,-3.70704 -2.21411,-1.31613 -4.34745,-2.70339 -6.42578,-4.14062 -4.15666,-2.87447 -8.09449,-5.94464 -12.02149,-9.01562 -3.927,-3.07099 -7.84367,-6.14369 -11.95898,-9.02735 -2.05766,-1.44183 -4.16455,-2.83517 -6.34766,-4.1582 -2.1831,-1.32303 -4.44194,-2.57617 -6.80273,-3.73242 -2.3608,-1.15625 -4.82333,-2.21671 -7.41406,-3.15821 -2.59074,-0.94149 -5.31068,-1.76265 -8.1836,-2.4414 -2.87292,-0.67876 -5.90007,-1.214 -9.10742,-1.58203 -3.20735,-0.36804 -6.59347,-0.56879 -10.1875,-0.57813 -3.59402,0.009 -6.9821,0.21009 -10.18945,0.57813 -3.20735,0.36803 -6.23451,0.90327 -9.10743,1.58203 -2.87291,0.67875 -5.59285,1.49991 -8.18359,2.4414 -2.59074,0.9415 -5.05326,2.00196 -7.41406,3.15821 -2.3608,1.15625 -4.61962,2.40939 -6.80274,3.73242 -2.18311,1.32303 -4.28998,2.71637 -6.34765,4.1582 -4.11535,2.88366 -8.03192,5.95636 -11.95899,9.02735 -3.92706,3.07098 -7.86472,6.14115 -12.02148,9.01562 -2.07838,1.43723 -4.21161,2.82449 -6.42578,4.14062 -2.21418,1.31614 -4.50989,2.55997 -6.91211,3.70704 -2.40222,1.14706 -4.91023,2.1989 -7.55274,3.1289 -2.6425,0.93001 -5.41847,1.73933 -8.35351,2.4043 -2.93504,0.66497 -6.02877,1.18515 -9.30859,1.53711 -3.27983,0.35196 -6.74698,0.53442 -10.42383,0.52539 -3.67686,0.009 -7.14205,-0.17343 -10.42188,-0.52539 -3.27982,-0.35196 -6.37355,-0.87214 -9.30859,-1.53711 -2.93504,-0.66497 -5.71101,-1.47429 -8.35352,-2.4043 -2.6425,-0.93 -5.15051,-1.98184 -7.55273,-3.1289 -2.40222,-1.14707 -4.69794,-2.3909 -6.91211,-3.70704 -2.21418,-1.31613 -4.3474,-2.70339 -6.42578,-4.14062 -4.15677,-2.87447 -8.09442,-5.94464 -12.02149,-9.01562 -3.92706,-3.07099 -7.84363,-6.14369 -11.95898,-9.02735 -2.05768,-1.44183 -4.16454,-2.83517 -6.34766,-4.1582 -2.18311,-1.32303 -4.44193,-2.57617 -6.80273,-3.73242 -2.36081,-1.15625 -4.82333,-2.21671 -7.41406,-3.15821 -2.59074,-0.94149 -5.31068,-1.76265 -8.1836,-2.4414 -2.87292,-0.67876 -5.90007,-1.214 -9.10742,-1.58203 -3.20735,-0.36804 -6.59543,-0.56879 -10.18945,-0.57813 -3.59403,0.009 -6.98015,0.21009 -10.1875,0.57813 -3.20735,0.36803 -6.23451,0.90327 -9.10743,1.58203 -2.87291,0.67875 -5.59286,1.49991 -8.18359,2.4414 -2.59073,0.9415 -5.05327,2.00196 -7.41406,3.15821 -2.3608,1.15625 -4.61963,2.40939 -6.80274,3.73242 -2.1831,1.32303 -4.29,2.71637 -6.34765,4.1582 -4.11531,2.88366 -8.03199,5.95636 -11.95899,9.02735 -3.927,3.07098 -7.86482,6.14115 -12.02148,9.01562 -2.07833,1.43723 -4.21167,2.82449 -6.42578,4.14062 -2.21411,1.31614 -4.50802,2.55997 -6.91016,3.70704 -2.40214,1.14706 -4.91227,2.1989 -7.55469,3.1289 -2.64241,0.93001 -5.41857,1.73933 -8.35351,2.4043 -2.93494,0.66497 -6.02889,1.18515 -9.30859,1.53711 -3.27971,0.35196 -6.74515,0.52539 -10.42188,0.52539 h -0.004 c -3.67672,0 -7.14021,-0.17343 -10.41992,-0.52539 -3.2797,-0.35196 -6.37561,-0.87214 -9.31055,-1.53711 -2.93493,-0.66497 -5.70914,-1.47429 -8.35156,-2.4043 -2.64241,-0.93 -5.15254,-1.98184 -7.55468,-3.1289 -2.40215,-1.14707 -4.69605,-2.3909 -6.91016,-3.70704 -2.21411,-1.31613 -4.34745,-2.70339 -6.42578,-4.14062 -4.15666,-2.87447 -8.09449,-5.94464 -12.02149,-9.01562 -3.927,-3.07099 -7.84367,-6.14369 -11.95898,-9.02735 -2.05766,-1.44183 -4.16455,-2.83517 -6.34766,-4.1582 -2.1831,-1.32303 -4.44194,-2.57617 -6.80273,-3.73242 -2.3608,-1.15625 -4.82333,-2.21671 -7.41406,-3.15821 -2.59074,-0.94149 -5.31068,-1.76265 -8.1836,-2.4414 -2.87292,-0.67876 -5.90007,-1.214 -9.10742,-1.58203 -3.20735,-0.36804 -6.59543,-0.56879 -10.18945,-0.57813 -3.59403,0.009 -6.98015,0.21009 -10.1875,0.57813 -3.20735,0.36803 -6.23451,0.90327 -9.10743,1.58203 -2.87291,0.67875 -5.59285,1.49991 -8.18359,2.4414 -2.59074,0.9415 -5.05326,2.00196 -7.41406,3.15821 -2.3608,1.15625 -4.61962,2.40939 -6.80274,3.73242 -2.18311,1.32303 -4.28998,2.71637 -6.34765,4.1582 -4.11535,2.88366 -8.03192,5.95636 -11.95899,9.02735 -3.92706,3.07098 -7.86472,6.14115 -12.02148,9.01562 -2.07838,1.43723 -4.21161,2.82449 -6.42578,4.14062 -2.21418,1.31614 -4.50989,2.55997 -6.91211,3.70704 -2.40222,1.14706 -4.91023,2.1989 -7.55274,3.1289 -2.6425,0.93001 -5.41847,1.73933 -8.35351,2.4043 -2.93504,0.66497 -6.03072,1.18515 -9.31055,1.53711 -3.27982,0.35196 -6.74502,0.53442 -10.42187,0.52539 -3.67686,0.009 -7.14205,-0.17343 -10.42188,-0.52539 -3.27982,-0.35196 -6.37355,-0.87214 -9.30859,-1.53711 -2.93504,-0.66497 -5.71101,-1.47429 -8.35352,-2.4043 -2.6425,-0.93 -5.15247,-1.98184 -7.55468,-3.1289 -2.40222,-1.14707 -4.69599,-2.3909 -6.91016,-3.70704 -2.21418,-1.31613 -4.3474,-2.70339 -6.42578,-4.14062 -4.15677,-2.87447 -8.09442,-5.94464 -12.02149,-9.01562 -3.92707,-3.07099 -7.84363,-6.14369 -11.95898,-9.02735 -2.05768,-1.44183 -4.16454,-2.83517 -6.34766,-4.1582 -2.18312,-1.32303 -4.44193,-2.57617 -6.80273,-3.73242 -2.36081,-1.15625 -4.82528,-2.21671 -7.41602,-3.15821 -2.59074,-0.94149 -5.30871,-1.76265 -8.18164,-2.4414 -2.87292,-0.67876 -5.90007,-1.214 -9.10742,-1.58203 -3.20735,-0.36804 -6.59542,-0.56879 -10.18945,-0.57813 -3.59403,0.009 -6.98016,0.21009 -10.1875,0.57813 -3.20735,0.36803 -6.234508,0.90327 -9.107425,1.58203 -2.872917,0.67875 -5.592862,1.49991 -8.183594,2.4414 -2.590732,0.9415 -5.053269,2.00196 -7.414062,3.15821 -2.360793,1.15625 -4.619635,2.40939 -6.802735,3.73242 -2.1831,1.32303 -4.290003,2.71637 -6.347656,4.1582 -4.115306,2.88366 -8.03199,5.95636 -11.958984,9.02735 -3.926994,3.07098 -7.864835,6.14115 -12.021485,9.01562 -2.078324,1.43723 -4.211673,2.82449 -6.425781,4.14062 -2.214108,1.31614 -4.508019,2.55997 -6.910156,3.70704 -2.402137,1.14706 -4.912276,2.1989 -7.554688,3.1289 -2.642411,0.93001 -5.418583,1.73933 -8.353515,2.4043 -2.934933,0.66497 -6.0288944,1.18515 -9.308594,1.53711 C 3.7156428,446.22607 1.8102918,446.22789 0,446.31641 V 800 h 1200 z"
       sodipodi:nodetypes="cssssssssssssscsssssssssssssssssssssssssssscssssssssssssscssssssssssssscsssssssssssssssssssssssssssscssssssssssssscssssssssssssscssssssssssssscccc"
       transform="translate(-1125.856,137.67842)" />
    <path
       style="fill:#ffffff;fill-opacity:1;fill-rule:evenodd;stroke:none;stroke-width:0.831435px;stroke-linecap:butt;stroke-linejoin:miter;stroke-opacity:1"
       d="m -971.29285,260.21123 c 8.40122,0 136.28726,0 136.28726,0 l -30.88946,-73.49964 h 317.80445 l -31.37726,73.49964 h 135.41735 l -33.60502,-73.49964 h 315.98193 l -31.88696,73.49964 H -59.373488 L -109.16583,156.43729 h -810.72214 z"
       id="path12492"
       sodipodi:nodetypes="ccccccccccccc" />
    <g
       id="g610">
      <g
         id="g578"
         style="fill:#2b5df2;fill-opacity:1;stroke:none"
         transform="translate(0,79.002545)">
        <path
           sodipodi:nodetypes="csssssscscsscccccccsscscssssssc"
           id="path574"
           d="m -525.05629,496.86203 c 24.80615,26.81323 39.39177,41.60013 41.94039,83.20416 2.35856,38.50137 -23.26242,70.68975 -28.78468,107.92941 -1.04743,7.06337 -1.94629,21.48103 -0.99983,27.32827 0.70094,4.33045 2.85597,17.55983 5.20966,1.19071 0.48407,-3.36663 0.83117,-20.25795 2.3154,-28.83472 2.70445,-15.6279 11.36498,-43.10766 26.39035,-58.3324 15.01895,-15.21822 38.81836,-25.08941 60.04264,-17.12873 19.23021,8.87295 21.04798,33.93092 15.57636,52.25447 -6.85263,22.94829 -33.0397,38.83165 -56.51692,40.38802 4.65194,-9.19952 15.78647,-35.45762 3.70991,-34.41533 -13.97895,1.20648 -30.70008,24.99054 -35.05351,41.30583 -1.63947,6.1442 -0.97687,15.68396 -9.75482,15.29002 5.78826,19.55721 22.12705,32.49845 36.4413,46.15021 -14.92176,1.24032 -29.68394,-5.78201 -42.70342,-12.4716 0.5505,13.40843 -2.0526,41.73401 -17.81283,57.20101 -14.6289,-15.92667 -15.96008,-35.35124 -16.23414,-57.20101 -13.01947,6.68959 -27.78166,13.71192 -42.70342,12.4716 14.31425,-13.65176 30.65304,-26.593 36.44131,-46.15021 -8.77796,0.39394 -9.30608,-8.55045 -10.94555,-14.69466 -4.35343,-16.31527 -19.88384,-40.69472 -33.86279,-41.90119 -12.07656,-1.04229 -0.94203,25.21581 3.70991,34.41533 -23.47722,-1.55637 -49.66428,-17.43973 -56.51692,-40.38802 -5.47162,-18.32355 -3.65384,-43.38153 15.57636,-52.25447 21.22429,-7.96068 45.02369,1.91051 60.04264,17.12873 15.02537,15.22474 23.6859,42.7045 26.39035,58.3324 1.48423,8.57677 1.23597,24.27737 1.72005,27.64401 2.35368,16.36914 5.10407,4.33043 5.80502,0 0.94645,-5.84724 0.0476,-20.2649 -0.99984,-27.32827 -5.52226,-37.23964 -28.71857,-70.73744 -28.78468,-107.92941 -0.0586,-33.58286 16.82559,-59.13534 40.3617,-83.20416 z"
           style="fill:#2b5df2;fill-opacity:1;fill-rule:evenodd;stroke:none;stroke-width:1.06994;stroke-linecap:butt;stroke-linejoin:miter;stroke-miterlimit:4;stroke-dasharray:none;stroke-opacity:1" />
        <rect
           transform="scale(-1,1)"
           ry="5.9038463"
           y="712.31464"
           x="467.01331"
           height="18.523235"
           width="114.50727"
           id="rect576"
           style="fill:#2b5df2;fill-opacity:1;fill-rule:evenodd;stroke:none;stroke-width:1.06994;stroke-linejoin:round;stroke-miterlimit:4;stroke-dasharray:none;stroke-opacity:1"
           rx="5.9038463" />
      </g>
      <g
         id="g598"
         transform="translate(4.46702,30)">
        <g
           id="g584"
           style="fill:#ffff00;fill-opacity:1;stroke:none"
           transform="translate(-246.46702,-324.32234)">
          <path
             sodipodi:nodetypes="csssssscscsscccccccsscscssssssc"
             id="path580"
             d="m -525.05629,496.86203 c 24.80615,26.81323 39.39177,41.60013 41.94039,83.20416 2.35856,38.50137 -23.26242,70.68975 -28.78468,107.92941 -1.04743,7.06337 -1.94629,21.48103 -0.99983,27.32827 0.70094,4.33045 2.85597,17.55983 5.20966,1.19071 0.48407,-3.36663 0.83117,-20.25795 2.3154,-28.83472 2.70445,-15.6279 11.36498,-43.10766 26.39035,-58.3324 15.01895,-15.21822 38.81836,-25.08941 60.04264,-17.12873 19.23021,8.87295 21.04798,33.93092 15.57636,52.25447 -6.85263,22.94829 -33.0397,38.83165 -56.51692,40.38802 4.65194,-9.19952 15.78647,-35.45762 3.70991,-34.41533 -13.97895,1.20648 -30.70008,24.99054 -35.05351,41.30583 -1.63947,6.1442 -0.97687,15.68396 -9.75482,15.29002 5.78826,19.55721 22.12705,32.49845 36.4413,46.15021 -14.92176,1.24032 -29.68394,-5.78201 -42.70342,-12.4716 0.5505,13.40843 -2.0526,41.73401 -17.81283,57.20101 -14.6289,-15.92667 -15.96008,-35.35124 -16.23414,-57.20101 -13.01947,6.68959 -27.78166,13.71192 -42.70342,12.4716 14.31425,-13.65176 30.65304,-26.593 36.44131,-46.15021 -8.77796,0.39394 -9.30608,-8.55045 -10.94555,-14.69466 -4.35343,-16.31527 -19.88384,-40.69472 -33.86279,-41.90119 -12.07656,-1.04229 -0.94203,25.21581 3.70991,34.41533 -23.47722,-1.55637 -49.66428,-17.43973 -56.51692,-40.38802 -5.47162,-18.32355 -3.65384,-43.38153 15.57636,-52.25447 21.22429,-7.96068 45.02369,1.91051 60.04264,17.12873 15.02537,15.22474 23.6859,42.7045 26.39035,58.3324 1.48423,8.57677 1.23597,24.27737 1.72005,27.64401 2.35368,16.36914 5.10407,4.33043 5.80502,0 0.94645,-5.84724 0.0476,-20.2649 -0.99984,-27.32827 -5.52226,-37.23964 -28.71857,-70.73744 -28.78468,-107.92941 -0.0586,-33.58286 16.82559,-59.13534 40.3617,-83.20416 z"
             style="fill:#ffff00;fill-opacity:1;fill-rule:evenodd;stroke:none;stroke-width:1.06994;stroke-linecap:butt;stroke-linejoin:miter;stroke-miterlimit:4;stroke-dasharray:none;stroke-opacity:1" />
          <rect
             transform="scale(-1,1)"
             ry="5.9038463"
             y="712.31464"
             x="467.01331"
             height="18.523235"
             width="114.50727"
             id="rect582"
             style="fill:#ffff00;fill-opacity:1;fill-rule:evenodd;stroke:none;stroke-width:1.06994;stroke-linejoin:round;stroke-miterlimit:4;stroke-dasharray:none;stroke-opacity:1"
             rx="5.9038463" />
        </g>
        <g
           id="g590"
           style="fill:#ffff00;fill-opacity:1;stroke:none"
           transform="translate(237.53298,-324.32234)">
          <path
             sodipodi:nodetypes="csssssscscsscccccccsscscssssssc"
             id="path586"
             d="m -525.05629,496.86203 c 24.80615,26.81323 39.39177,41.60013 41.94039,83.20416 2.35856,38.50137 -23.26242,70.68975 -28.78468,107.92941 -1.04743,7.06337 -1.94629,21.48103 -0.99983,27.32827 0.70094,4.33045 2.85597,17.55983 5.20966,1.19071 0.48407,-3.36663 0.83117,-20.25795 2.3154,-28.83472 2.70445,-15.6279 11.36498,-43.10766 26.39035,-58.3324 15.01895,-15.21822 38.81836,-25.08941 60.04264,-17.12873 19.23021,8.87295 21.04798,33.93092 15.57636,52.25447 -6.85263,22.94829 -33.0397,38.83165 -56.51692,40.38802 4.65194,-9.19952 15.78647,-35.45762 3.70991,-34.41533 -13.97895,1.20648 -30.70008,24.99054 -35.05351,41.30583 -1.63947,6.1442 -0.97687,15.68396 -9.75482,15.29002 5.78826,19.55721 22.12705,32.49845 36.4413,46.15021 -14.92176,1.24032 -29.68394,-5.78201 -42.70342,-12.4716 0.5505,13.40843 -2.0526,41.73401 -17.81283,57.20101 -14.6289,-15.92667 -15.96008,-35.35124 -16.23414,-57.20101 -13.01947,6.68959 -27.78166,13.71192 -42.70342,12.4716 14.31425,-13.65176 30.65304,-26.593 36.44131,-46.15021 -8.77796,0.39394 -9.30608,-8.55045 -10.94555,-14.69466 -4.35343,-16.31527 -19.88384,-40.69472 -33.86279,-41.90119 -12.07656,-1.04229 -0.94203,25.21581 3.70991,34.41533 -23.47722,-1.55637 -49.66428,-17.43973 -56.51692,-40.38802 -5.47162,-18.32355 -3.65384,-43.38153 15.57636,-52.25447 21.22429,-7.96068 45.02369,1.91051 60.04264,17.12873 15.02537,15.22474 23.6859,42.7045 26.39035,58.3324 1.48423,8.57677 1.23597,24.27737 1.72005,27.64401 2.35368,16.36914 5.10407,4.33043 5.80502,0 0.94645,-5.84724 0.0476,-20.2649 -0.99984,-27.32827 -5.52226,-37.23964 -28.71857,-70.73744 -28.78468,-107.92941 -0.0586,-33.58286 16.82559,-59.13534 40.3617,-83.20416 z"
             style="fill:#ffff00;fill-opacity:1;fill-rule:evenodd;stroke:none;stroke-width:1.06994;stroke-linecap:butt;stroke-linejoin:miter;stroke-miterlimit:4;stroke-dasharray:none;stroke-opacity:1" />
          <rect
             transform="scale(-1,1)"
             ry="5.9038463"
             y="712.31464"
             x="467.01331"
             height="18.523235"
             width="114.50727"
             id="rect588"
             style="fill:#ffff00;fill-opacity:1;fill-rule:evenodd;stroke:none;stroke-width:1.06994;stroke-linejoin:round;stroke-miterlimit:4;stroke-dasharray:none;stroke-opacity:1"
             rx="5.9038463" />
        </g>
      </g>
    </g>
  </g>
  <g
     inkscape:groupmode="layer"
     id="layer2"
     transform="translate(-1.4219716,-1.46427)">
    <path
       id="path3430"
       d="M 799.5926,1303.6645 Z"
       style="fill:none;fill-rule:evenodd;stroke:#000000;stroke-width:0.982804px;stroke-linecap:butt;stroke-linejoin:miter;stroke-opacity:1" />
  </g>
</svg>
