<?xml version="1.0" encoding="UTF-8" standalone="no"?>
<svg
   xmlns:dc="http://purl.org/dc/elements/1.1/"
   xmlns:cc="http://creativecommons.org/ns#"
   xmlns:rdf="http://www.w3.org/1999/02/22-rdf-syntax-ns#"
   xmlns:svg="http://www.w3.org/2000/svg"
   xmlns="http://www.w3.org/2000/svg"
   xmlns:sodipodi="http://sodipodi.sourceforge.net/DTD/sodipodi-0.dtd"
   xmlns:inkscape="http://www.inkscape.org/namespaces/inkscape"
   inkscape:version="1.0beta1 (76ce730, 2019-10-19)"
   sodipodi:docname="Blason_deÌpartement_fr_Haute-Loire.svg"
   id="svg2"
   height="400"
   width="600"
   version="1.0">
  <metadata
     id="metadata114">
    <rdf:RDF>
      <cc:Work
         rdf:about="">
        <dc:format>image/svg+xml</dc:format>
        <dc:type
           rdf:resource="http://purl.org/dc/dcmitype/StillImage" />
      </cc:Work>
    </rdf:RDF>
  </metadata>
  <sodipodi:namedview
     inkscape:current-layer="svg2"
     inkscape:window-maximized="0"
     inkscape:window-y="23"
     inkscape:window-x="0"
     inkscape:cy="186.33623"
     inkscape:cx="310.38296"
     inkscape:zoom="0.7"
     showgrid="false"
     id="namedview112"
     inkscape:window-height="784"
     inkscape:window-width="1440"
     inkscape:pageshadow="2"
     inkscape:pageopacity="0"
     guidetolerance="10"
     gridtolerance="10"
     objecttolerance="10"
     borderopacity="1"
     inkscape:document-rotation="0"
     bordercolor="#666666"
     pagecolor="#ffffff" />
  <defs
     id="defs6" />
  <g
     transform="translate(692.38086,-103.9043)"
     id="g1294" />
  <g
     transform="translate(692.38086,-103.9043)"
     id="g1851">
    <rect
       style="fill:#e20909;fill-opacity:1;stroke:none;stroke-width:1.44783;stroke-linecap:round;stroke-linejoin:round;stroke-miterlimit:4;stroke-dasharray:none"
       id="rect1491"
       width="580"
       height="380"
       x="-682.38086"
       y="113.9043" />
    <g
       id="g1809">
      <g
         id="g1724">
        <path
           d="m -237.87481,376.95609 c -3.0832,13.36312 -6.98571,13.36312 -9.91798,0 -2.93227,-13.36314 -3.83783,-29.81183 -0.60371,-43.17496 3.23414,-13.36314 8.49497,-13.36314 11.7291,0 3.23415,13.36313 1.87581,29.81182 -1.20741,43.17496 z"
           style="opacity:1;fill:#fcef3c;fill-opacity:1;fill-rule:nonzero;stroke:#000000;stroke-width:1.5;stroke-miterlimit:4;stroke-dasharray:none;stroke-opacity:1;stop-opacity:1"
           id="path18781"
           inkscape:connector-curvature="0" />
        <path
           d="m -239.22171,383.53578 c 0.1097,-0.30302 0.21703,-0.60196 0.31699,-0.90331 l -8.83152,-5.86142 c 0.088,0.42961 0.1805,0.85659 0.27291,1.28469 z m 1.54969,-5.39975 c 0.0745,-0.32039 0.14811,-0.64223 0.22013,-0.96351 l -11.55233,-7.67805 c 0.06,0.4158 0.12076,0.82965 0.18491,1.24454 z m 1.1711,-5.64061 c 0.0611,-0.33101 0.12642,-0.66191 0.1849,-0.99362 l -13.48943,-8.95273 c 0.0337,0.39569 0.0679,0.78913 0.10561,1.18431 z m 0.93335,-5.81122 c 0.0458,-0.33767 0.0892,-0.67555 0.13207,-1.01371 l -14.74865,-9.79581 c 0.0101,0.3776 0.0215,0.75664 0.0353,1.13413 z m 0.65156,-5.99192 c 0.0293,-0.34853 0.0619,-0.69497 0.0881,-1.04381 l -15.33854,-10.18724 c -0.0119,0.36537 -0.0183,0.72844 -0.0264,1.09399 z m 0.36103,-6.1826 c 0.0107,-0.36359 0.0193,-0.73033 0.0264,-1.09399 l -15.25045,-10.12701 c -0.0326,0.35007 -0.0591,0.70337 -0.0881,1.05384 z m 0,-6.42347 c -0.0113,-0.37825 -0.0199,-0.75607 -0.0352,-1.13414 l -14.44041,-9.58503 c -0.0227,0.11618 -0.0476,0.23575 -0.0704,0.35127 -0.0332,0.21827 -0.0652,0.43391 -0.0968,0.6524 z m -0.41385,-6.69447 c -0.0529,-0.40243 -0.10431,-0.80861 -0.15849,-1.21442 l -12.73226,-8.46093 c -0.0799,0.32048 -0.15564,0.6405 -0.22885,0.96348 z"
           style="opacity:1;fill:#000000;fill-opacity:1;fill-rule:nonzero;stroke:none;stroke-width:1.5;stroke-miterlimit:4;stroke-dasharray:none;stroke-opacity:1;stop-opacity:1"
           id="path18783"
           inkscape:connector-curvature="0" />
        <path
           inkscape:connector-curvature="0"
           id="path18787"
           style="opacity:1;fill:#ffffff;fill-opacity:1;fill-rule:nonzero;stroke:#000000;stroke-width:1.5;stroke-miterlimit:4;stroke-dasharray:none;stroke-opacity:1;stop-opacity:1"
           d="m -232.61089,331.3592 h -19.84215 l 2.87455,-117.50542 7.04652,-10.15772 7.04653,10.15772 z" />
        <path
           inkscape:connector-curvature="0"
           id="path18789"
           style="opacity:1;fill:#000000;fill-opacity:1;fill-rule:evenodd;stroke:none;stroke-width:1.5;stroke-linecap:butt;stroke-linejoin:miter;stroke-miterlimit:4;stroke-dasharray:none;stroke-opacity:1;stop-opacity:1"
           d="m -241.69019,330.29876 -0.41963,-111.77212 -1.26391,111.77212 z" />
        <rect
           width="48.860424"
           height="6.4503422"
           x="218.10175"
           y="-334.25259"
           transform="scale(-1)"
           style="opacity:1;fill:#fcef3c;fill-opacity:1;fill-rule:nonzero;stroke:#000000;stroke-width:1.5;stroke-miterlimit:4;stroke-dasharray:none;stroke-opacity:1;stop-opacity:1"
           id="rect18791" />
        <path
           d="m -250.57312,338.06142 c -3.49754,0.3125 -5.29381,0.53466 -9.315,3.22505 5.8e-4,2.12776 -0.86451,4.25553 1.96352,6.38329 -6.12478,-0.55029 -5.99744,4.82627 -1.84441,7.57271 -3.59163,-0.77966 -3.70459,6.57821 3.24196,9.93954 -2.04669,-0.67643 -2.10556,4.65528 1.08841,6.07808 2.23561,0.67114 3.65295,1.33335 5.7362,1.79172 11.37882,0.51167 4.80257,-5.90811 -1.16925,-6.36435 12.04784,3.8036 12.40829,-4.42988 2.2815,-6.76525 11.66463,2.40661 9.27586,-7.98652 1.74997,-8.31156 8.94021,1.40407 5.18719,-6.26726 -1.22487,-7.32358 l -3.48963,-1.87655 z"
           style="display:inline;opacity:1;fill:#ffffff;fill-opacity:1;fill-rule:evenodd;stroke:#000000;stroke-width:1.5;stroke-linecap:butt;stroke-linejoin:miter;stroke-miterlimit:4;stroke-dasharray:none;stroke-opacity:1;stop-opacity:1"
           id="path15830"
           inkscape:connector-curvature="0" />
        <path
           d="m -254.05361,337.68787 c -4.87033,0.001 -5.919,7.50036 2.98066,7.74395 2.95833,0.4879 5.71309,0.51586 8.56963,-0.66521 1.39774,1.94904 4.36736,2.74384 7.55149,2.81094 0.3255,8.60212 -0.53264,19.24095 -2.59482,28.18958 6.78388,-0.31228 16.57205,-6.91483 22.10533,-6.2484 21.74547,4.71514 13.29285,4.99648 36.97431,2.19438 l 18.8163,-30.19809 c -18.08046,0.38604 -41.98433,6.25891 -53.58003,4.465 -13.87339,-8.02637 -14.03287,-9.99681 -19.13572,-10.20572 -5.70882,0.40929 -8.40126,-0.84908 -12.11929,-1.27572 -2.06913,0.48961 -5.52232,3.28597 -9.56786,3.18929 z"
           style="display:inline;opacity:1;fill:#ffffff;fill-opacity:1;fill-rule:evenodd;stroke:#000000;stroke-width:1.5;stroke-linecap:butt;stroke-linejoin:miter;stroke-miterlimit:4;stroke-dasharray:none;stroke-opacity:1;stop-opacity:1"
           id="path16951"
           inkscape:connector-curvature="0" />
        <path
           d="m -234.95104,348.46013 c 0.5117,10.61655 -1.12827,21.26177 -3.31216,30.07453"
           style="display:inline;opacity:1;fill:none;fill-opacity:1;fill-rule:nonzero;stroke:#000000;stroke-width:1.5;stroke-miterlimit:4;stroke-dasharray:none;stroke-opacity:1;stop-opacity:1"
           id="path16953"
           inkscape:connector-curvature="0" />
        <path
           d="m -257.94682,347.95494 c 3.42764,3.05698 7.18438,3.19677 11.86642,3.7658"
           style="opacity:1;fill:none;fill-rule:evenodd;stroke:#000000;stroke-width:1.5;stroke-linecap:butt;stroke-linejoin:miter;stroke-miterlimit:4;stroke-dasharray:none;stroke-opacity:1;stop-opacity:1"
           id="path22348"
           inkscape:connector-curvature="0" />
        <path
           d="m -260.43219,354.83928 c 3.38766,3.10798 9.19652,4.95546 13.67054,5.28968"
           style="opacity:1;fill:none;fill-rule:evenodd;stroke:#000000;stroke-width:1.5;stroke-linecap:butt;stroke-linejoin:miter;stroke-miterlimit:4;stroke-dasharray:none;stroke-opacity:1;stop-opacity:1"
           id="path22350"
           inkscape:connector-curvature="0" />
        <path
           d="m -258.08361,364.01747 c 3.18998,2.28929 5.13371,2.07209 9.3697,3.23267"
           style="opacity:1;fill:none;fill-rule:evenodd;stroke:#000000;stroke-width:1.5;stroke-linecap:butt;stroke-linejoin:miter;stroke-miterlimit:4;stroke-dasharray:none;stroke-opacity:1;stop-opacity:1"
           id="path22352"
           inkscape:connector-curvature="0" />
      </g>
      <g
         id="g1770">
        <path
           d="m -548.88962,153.9718 c -13.63336,0.91638 -24.4039,12.02779 -24.4039,25.52336 0,2.20224 0.28041,4.34314 0.82029,6.38084 h 7.58778 c -0.746,-1.97709 -1.14842,-4.15107 -1.14842,-6.38084 -10e-6,-9.87467 7.98197,-17.96968 18.00557,-18.46455 0.32333,-0.016 0.65696,0 0.98435,0 10.47669,0 18.94892,8.27134 18.94892,18.46455 10e-6,5.0966 -2.11806,9.71275 -5.5457,13.05473 -3.42764,3.34199 -7.49239,6.11162 -10.08693,7.9434 -2.61919,1.84919 -3.64279,4.40677 -3.63058,7.0588 0.0122,2.65202 0.35531,18.68273 0.35531,18.68273 h 7.87488 c 0,0 0,-5.60318 0,-11.20635 0,-5.60318 -0.66591,-8.87981 1.5397,-10.63055 2.27742,-1.80772 8.35447,-5.43882 11.61021,-9.68595 3.25574,-4.24713 5.18378,-9.51204 5.18378,-15.21681 0,-14.09433 -11.76329,-25.52336 -26.24959,-25.52336 -0.3961,0 -0.79758,-0.0169 -1.18942,0 -0.1089,0.005 -0.21958,-0.006 -0.32813,0 -0.1077,0.006 -0.22077,-0.007 -0.32812,0 z"
           style="opacity:1;fill:#fcef3c;fill-opacity:1;fill-rule:nonzero;stroke:#000000;stroke-width:1.5;stroke-miterlimit:4;stroke-dasharray:none;stroke-opacity:1;stop-opacity:1"
           id="path12604"
           inkscape:connector-curvature="0" />
        <path
           d="m -555.70004,202.97164 c 2.40922,2.10598 2.65231,3.99561 0.97215,4.99963 -1.68015,1.004 -2.91508,0.35454 -2.91508,0.35454 0,0 5.08418,6.43321 9.04925,2.57783 1.47794,-1.43705 2.7528,-4.1732 0.89021,-5.86585 -1.86259,-1.69266 -1.66491,-0.87362 -3.34039,-1.67285 2.70675,-1.95086 6.11358,-1.06344 6.11358,-1.06344 0,0 -1.0042,-4.44529 -6.58179,-5.76009 -2.00636,-0.47296 -7.81633,-1.67462 -9.74285,-3.60818 3.16635,1.86681 8.56008,2.67424 9.98767,2.30229 8.67704,-2.26067 10.22184,-6.06205 11.35594,-10.17746 0.51041,-1.85221 1.47758,-2.57873 3.05655,-3.09063 1.57899,-0.51191 5.36158,-5.64678 4.14679,-7.41824 -1.80698,1.68342 -3.88143,2.70042 -6.96115,2.7387 2.48692,-2.26498 1.76985,-4.41026 2.8022,-5.33549 1.03237,-0.92522 2.64275,-2.77969 2.64275,-2.77969 0,0 -3.70281,-2.37593 -7.59043,1.48772 0.84993,-3.6219 -0.0623,-7.27413 -1.66161,-8.19914 -1.59935,-0.92501 -6.84262,-2.04656 -6.84262,-2.04656 0,0 3.98841,4.15297 3.07761,6.02301 -0.91082,1.87004 -2.76408,3.58764 -2.76408,3.58764 l -0.55596,-3.82357 c 0,0 -5.86891,0.12191 -4.777,5.30213 0.65462,3.10559 3.85068,3.55492 5.22553,6.26407 -2.65209,-1.43671 -9.66644,0.44935 -8.18863,0.42955 1.4778,-0.0198 4.3404,2.49184 6.30416,3.69238 1.96376,1.20056 1.46388,4.25859 0.006,5.71532 -1.45745,1.45673 -3.99374,2.92622 -7.29362,1.5683 -3.29987,-1.35791 -4.67672,-4.38911 -4.67672,-4.38911 0,0 -1.76142,-2.18475 0,0 1.76141,2.18476 4.49429,1.69245 5.99223,0.55066 1.49795,-1.14179 2.45785,-2.7539 2.22346,-4.67023 -12.28931,2.87518 -13.56563,-10.0669 -15.37032,-11.7845 -9.94865,24.11707 13.00652,31.98529 15.41572,34.09126 z"
           style="opacity:1;fill:#fcef3c;fill-opacity:1;fill-rule:evenodd;stroke:#000000;stroke-width:1.5;stroke-linecap:butt;stroke-linejoin:miter;stroke-miterlimit:4;stroke-dasharray:none;stroke-opacity:1;stop-opacity:1"
           id="path11679"
           inkscape:connector-curvature="0" />
        <path
           d="m -563.12783,190.27276 c 7.9354,4.37616 11.96232,2.18808 13.26515,1.26678 1.30283,-0.92129 4.2638,-4.95197 4.85599,-10.0191 0.59219,-5.06713 -0.94751,-10.36459 -0.94751,-10.36459 0,0 -1.18439,1.61227 0,0 1.18438,-1.61227 2.1319,-4.60648 1.65814,-5.29746 -0.47376,-0.69097 -1.42126,-2.18808 -1.42126,-2.18808"
           style="opacity:1;fill:none;fill-opacity:1;fill-rule:evenodd;stroke:#000000;stroke-width:1.5;stroke-linecap:butt;stroke-linejoin:miter;stroke-miterlimit:4;stroke-dasharray:none;stroke-opacity:1;stop-opacity:1"
           id="path15234"
           inkscape:connector-curvature="0" />
        <path
           d="m -551.87614,170.6952 c -0.23688,1.61227 1.89502,4.14584 3.07941,5.06713 1.18438,0.9213 3.43473,2.18809 3.43473,2.18809"
           style="opacity:1;fill:#fcef3c;fill-opacity:1;fill-rule:evenodd;stroke:#000000;stroke-width:1.5;stroke-linecap:butt;stroke-linejoin:miter;stroke-miterlimit:4;stroke-dasharray:none;stroke-opacity:1;stop-opacity:1"
           id="path15236"
           inkscape:connector-curvature="0" />
        <path
           d="m -537.78192,169.88907 c -2.84253,1.38194 -2.84253,2.87905 -3.43473,4.37616 -0.59219,1.4971 -3.43473,3.68519 -3.43473,3.68519"
           style="opacity:1;fill:#fcef3c;fill-opacity:1;fill-rule:evenodd;stroke:#000000;stroke-width:1.5;stroke-linecap:butt;stroke-linejoin:miter;stroke-miterlimit:4;stroke-dasharray:none;stroke-opacity:1;stop-opacity:1"
           id="path15238"
           inkscape:connector-curvature="0" />
        <path
           d="m -535.2119,178.06558 c -2.74714,2.76389 -6.11863,2.53356 -7.24246,2.99421 -1.12383,0.46065 -2.87202,1.84259 -2.87202,1.84259"
           style="opacity:1;fill:#fcef3c;fill-opacity:1;fill-rule:evenodd;stroke:#000000;stroke-width:1.5;stroke-linecap:butt;stroke-linejoin:miter;stroke-miterlimit:4;stroke-dasharray:none;stroke-opacity:1;stop-opacity:1"
           id="path15240"
           inkscape:connector-curvature="0" />
        <path
           d="m -553.06053,178.64139 c 3.90848,0.9213 5.09287,2.64873 5.44818,3.68519 0.35532,1.03645 0.71064,4.72164 0.71064,4.72164"
           style="opacity:1;fill:#fcef3c;fill-opacity:1;fill-rule:evenodd;stroke:#000000;stroke-width:1.5;stroke-linecap:butt;stroke-linejoin:miter;stroke-miterlimit:4;stroke-dasharray:none;stroke-opacity:1;stop-opacity:1"
           id="path15242"
           inkscape:connector-curvature="0" />
        <path
           d="m -567.98382,178.64139 c 3.07941,4.03067 4.73755,4.60648 6.27726,5.06713 1.5397,0.46065 2.96096,-0.34549 2.96096,-0.34549"
           style="opacity:1;fill:#fcef3c;fill-opacity:1;fill-rule:evenodd;stroke:#000000;stroke-width:1.5;stroke-linecap:butt;stroke-linejoin:miter;stroke-miterlimit:4;stroke-dasharray:none;stroke-opacity:1;stop-opacity:1"
           id="path16124"
           inkscape:connector-curvature="0" />
        <path
           d="m -548.79673,200.63735 c -2.48722,-2.76389 -5.68507,-1.84259 -7.34321,-2.18808 -1.65814,-0.34549 -6.15882,-3.3397 -6.15882,-3.3397"
           style="opacity:1;fill:#fcef3c;fill-opacity:1;fill-rule:evenodd;stroke:#000000;stroke-width:1.5;stroke-linecap:butt;stroke-linejoin:miter;stroke-miterlimit:4;stroke-dasharray:none;stroke-opacity:1;stop-opacity:1"
           id="path16126"
           inkscape:connector-curvature="0" />
        <path
           d="m -554.36336,209.62 c 3.31629,0.80613 3.31629,-0.46065 3.67161,-1.95776 0.35532,-1.49711 -1.65815,-4.95197 -3.19785,-5.75811 -1.53971,-0.80613 -4.14536,-3.68518 -4.14536,-3.68518"
           style="opacity:1;fill:none;fill-opacity:1;fill-rule:evenodd;stroke:#000000;stroke-width:1.5;stroke-linecap:butt;stroke-linejoin:miter;stroke-miterlimit:4;stroke-dasharray:none;stroke-opacity:1;stop-opacity:1"
           id="path16128"
           inkscape:connector-curvature="0" />
        <path
           inkscape:connector-curvature="0"
           id="path19895"
           style="opacity:1;fill:#fcef3c;fill-opacity:1;fill-rule:evenodd;stroke:#000000;stroke-width:1.127;stroke-linecap:butt;stroke-linejoin:miter;stroke-miterlimit:4;stroke-dasharray:none;stroke-opacity:1;stop-opacity:1"
           d="m -549.07724,405.32218 c -1.65814,2.30323 -0.72248,8.76553 -6.64443,10.60814 10.37964,5.8269 12.46531,27.11093 12.50957,27.31797 0.0575,-0.20867 2.50448,-21.67832 12.55058,-27.31797 -5.92194,-1.84261 -4.98628,-8.30491 -6.64442,-10.60814 -0.25512,-5.22408 -4.88591,-4.34695 -6.35733,-4.34695 -1.47141,0 -5.41397,-0.2505 -5.41397,4.34695 z" />
        <path
           inkscape:connector-curvature="0"
           id="path20773"
           style="opacity:1;fill:#fcef3c;fill-opacity:1;fill-rule:evenodd;stroke:#000000;stroke-width:1.127;stroke-linecap:butt;stroke-linejoin:miter;stroke-miterlimit:4;stroke-dasharray:none;stroke-opacity:1;stop-opacity:1"
           d="M -543.19159,439.59379 V 409.79912" />
        <rect
           width="7.8169637"
           height="174.99023"
           x="-547.1001"
           y="226.23143"
           style="opacity:1;fill:#fcef3c;fill-opacity:1;fill-rule:nonzero;stroke:#000000;stroke-width:1.5;stroke-miterlimit:4;stroke-dasharray:none;stroke-opacity:1;stop-opacity:1"
           id="rect17044" />
        <path
           inkscape:connector-curvature="0"
           id="path17922"
           style="opacity:1;fill:#fcef3c;fill-opacity:1;fill-rule:nonzero;stroke:#000000;stroke-width:1.5;stroke-miterlimit:4;stroke-dasharray:none;stroke-opacity:1;stop-opacity:1"
           d="m -535.46953,225.22587 c 0.0846,3.63892 -1.20783,3.59258 -7.72155,3.59258 -6.40406,0 -7.6261,-0.13813 -7.72155,-3.59258 -0.1007,-3.64433 1.32736,-3.59257 7.72155,-3.59257 6.03888,0 7.63252,-0.23616 7.72155,3.59257 z" />
        <path
           inkscape:connector-curvature="0"
           id="path17919"
           style="opacity:1;fill:#fcef3c;fill-opacity:1;fill-rule:nonzero;stroke:#000000;stroke-width:1.5;stroke-miterlimit:4;stroke-dasharray:none;stroke-opacity:1;stop-opacity:1"
           d="m -534.09252,225.22535 c 0.0997,2.27463 -4.07623,2.24566 -9.09874,2.24566 -5.0225,0 -8.98625,-0.0864 -9.09873,-2.24566 -0.11866,-2.27802 4.07623,-2.24567 9.09873,-2.24567 5.02251,0 8.99382,-0.14762 9.09874,2.24567 z" />
        <path
           inkscape:connector-curvature="0"
           id="path19891"
           style="opacity:1;fill:#fcef3c;fill-opacity:1;fill-rule:nonzero;stroke:#000000;stroke-width:1.127;stroke-miterlimit:4;stroke-dasharray:none;stroke-opacity:1;stop-opacity:1"
           d="m -535.46953,402.30638 c 0.0846,3.63891 -1.20783,3.59257 -7.72155,3.59257 -6.40406,0 -7.6261,-0.13813 -7.72155,-3.59257 -0.1007,-3.64433 1.32736,-3.59257 7.72155,-3.59257 6.03888,0 7.63252,-0.23616 7.72155,3.59257 z" />
        <path
           inkscape:connector-curvature="0"
           id="path19893"
           style="opacity:1;fill:#fcef3c;fill-opacity:1;fill-rule:nonzero;stroke:#000000;stroke-width:1.127;stroke-miterlimit:4;stroke-dasharray:none;stroke-opacity:1;stop-opacity:1"
           d="m -534.09252,402.30585 c 0.0997,2.27463 -4.07623,2.24566 -9.09874,2.24566 -5.0225,0 -8.98625,-0.0863 -9.09873,-2.24566 -0.11866,-2.27801 4.07623,-2.24566 9.09873,-2.24566 5.02251,0 8.99382,-0.14762 9.09874,2.24566 z" />
        <path
           d="m -529.08652,272.53608 c 3.76172,0.32964 5.69368,0.56399 10.01862,3.40198 -6.3e-4,2.24449 0.9298,4.48899 -2.11185,6.73349 6.58743,-0.58048 6.45047,5.09104 1.98373,7.98816 3.86294,-0.82244 3.98443,6.93909 -3.48685,10.48483 2.20129,-0.71354 2.26462,4.91067 -1.17061,6.41153 -2.40449,0.70796 -3.9289,1.4065 -6.1695,1.89002 -12.23835,0.53974 -5.16535,-6.23224 1.25757,-6.71351 -12.9579,4.01227 -13.34557,-4.67291 -2.45383,-7.1364 -12.54575,2.53864 -9.97654,-8.42467 -1.88216,-8.76755 -9.61553,1.48111 -5.57902,-6.61109 1.31739,-7.72536 l 3.75323,-1.97949 z"
           style="display:inline;opacity:1;fill:#ffffff;fill-opacity:1;fill-rule:evenodd;stroke:#000000;stroke-width:1.5;stroke-linecap:butt;stroke-linejoin:miter;stroke-miterlimit:4;stroke-dasharray:none;stroke-opacity:1;stop-opacity:1"
           id="path4177"
           inkscape:connector-curvature="0" />
        <path
           d="m -525.34313,272.14204 c 5.23821,10e-4 6.36609,7.91183 -3.20581,8.16879 -3.1818,0.51467 -6.14464,0.54416 -9.21697,-0.70171 -1.50331,2.05597 -4.69724,2.89437 -8.12189,2.96515 -0.35008,9.07405 0.57286,20.29654 2.79082,29.73611 -7.29631,-0.32941 -17.82385,-7.2942 -23.7751,-6.5912 -23.38804,4.97382 -14.29695,5.27059 -39.76723,2.31477 l -20.23762,-31.85481 c 19.44621,0.40723 45.15568,6.60229 57.62728,4.70996 14.92136,-8.46671 15.09287,-10.54524 20.58119,-10.76561 6.14004,0.43174 9.03585,-0.89567 13.03474,-1.34571 2.22543,0.51646 5.93945,3.46624 10.29059,3.36426 z"
           style="display:inline;opacity:1;fill:#ffffff;fill-opacity:1;fill-rule:evenodd;stroke:#000000;stroke-width:1.5;stroke-linecap:butt;stroke-linejoin:miter;stroke-miterlimit:4;stroke-dasharray:none;stroke-opacity:1;stop-opacity:1"
           id="path4179"
           inkscape:connector-curvature="0" />
        <path
           d="m -521.15586,282.97237 c -3.68654,3.22469 -7.72704,3.37215 -12.76277,3.9724"
           style="opacity:1;fill:none;fill-rule:evenodd;stroke:#000000;stroke-width:1.5;stroke-linecap:butt;stroke-linejoin:miter;stroke-miterlimit:4;stroke-dasharray:none;stroke-opacity:1;stop-opacity:1"
           id="path4183"
           inkscape:connector-curvature="0" />
        <path
           d="m -518.48273,290.2344 c -3.64356,3.27849 -9.8912,5.22732 -14.70319,5.57987"
           style="opacity:1;fill:none;fill-rule:evenodd;stroke:#000000;stroke-width:1.5;stroke-linecap:butt;stroke-linejoin:miter;stroke-miterlimit:4;stroke-dasharray:none;stroke-opacity:1;stop-opacity:1"
           id="path4185"
           inkscape:connector-curvature="0" />
        <path
           d="m -521.00873,299.91611 c -3.43095,2.41488 -5.52149,2.18577 -10.07746,3.41002"
           style="opacity:1;fill:none;fill-rule:evenodd;stroke:#000000;stroke-width:1.5;stroke-linecap:butt;stroke-linejoin:miter;stroke-miterlimit:4;stroke-dasharray:none;stroke-opacity:1;stop-opacity:1"
           id="path4187"
           inkscape:connector-curvature="0" />
      </g>
      <path
         sodipodi:nodetypes="cccccsccccsscc"
         inkscape:connector-curvature="0"
         id="path356"
         d="m -100.71429,318.57143 c -20.48419,-7.67 -74.35862,-11.67985 -75,2.85714 -2.85075,-8.51905 -8.01792,4.62558 -5.71428,7.5 -7.94353,3.33215 -13.73748,8.54519 -10.35714,21.78572 -4.99814,3.02446 -9.86339,12.22043 5.89285,19.10713 -6.86763,-4.81763 -10.85754,-7.15706 -14.66298,-1.08124 -1.23677,1.97464 0.24568,5.29947 5.1987,8.58125 -2.95533,3.58762 -8.40144,8.69047 5.16959,13.03571 -9.83723,5.71653 -7.84147,17.14805 0.90184,16.42857 -7.32154,3.83299 -5.41268,10.33794 0,17.85715 -6.39668,3.25401 -8.09827,5.72613 -7.99615,7.93018 0.73376,15.83664 50.72496,10.15112 79.36492,12.41977 2.31468,0.18335 16.10665,0.16612 18.105124,0.46894 z"
         style="fill:#2b5df2;fill-opacity:1;stroke:#000000;stroke-width:1.5;stroke-linecap:butt;stroke-linejoin:miter;stroke-miterlimit:4;stroke-dasharray:none;stroke-opacity:1" />
      <path
         sodipodi:nodetypes="cccccscsccsccc"
         inkscape:connector-curvature="0"
         id="path1183"
         d="m -687.91388,381.33259 c 22.16995,-6.16077 56.67068,-9.72559 87.12565,-14.14214 5.65731,-6.3954 10.39069,-12.76001 2.02031,-18.68782 7.59268,-2.77747 11.2019,-7.62009 1.26269,-18.94036 8.39535,-2.7499 12.02457,-6.90161 4.29315,-14.39468 8.98418,-2.68855 6.09688,-9.60008 4.76919,-10.82777 -1.77664,-1.64282 -6.90233,-3.75143 -14.1131,2.24148 6.94391,-3.83258 11.58116,-7.61749 10.9319,-13.00425 -0.67583,-5.60719 -2.15218,-4.2477 -5.524,-6.69373 4.42337,-11.78348 -0.51797,-21.20603 -10.96374,-23.23351 0.63935,-1.91903 1.63584,-5.8924 0.48948,-8.81211 -1.0423,-2.65466 -6.72746,-6.55731 -6.8769,-1.46798 -7.83937,-18.19194 -46.99648,-8.39781 -75.1824,-8.40773 z"
         style="fill:#2b5df2;fill-opacity:1;stroke:#000000;stroke-width:1.5;stroke-linecap:butt;stroke-linejoin:miter;stroke-miterlimit:4;stroke-dasharray:none;stroke-opacity:1" />
    </g>
    <path
       inkscape:connector-curvature="0"
       id="rect1698"
       style="fill:#ffffff;fill-opacity:1;stroke:none;stroke-width:1.51083;stroke-linecap:round;stroke-linejoin:round;stroke-miterlimit:4;stroke-dasharray:none"
       d="m -692.38086,103.9043 v 400 h 600.000001 v -400 z m 42,22 a 22,22 0 0 1 21.34766,16.68359 22,22 0 0 1 0.0684,0.28516 22,22 0 0 1 21.41796,-16.96875 22,22 0 0 1 21.41602,16.9707 22,22 0 0 1 21.41602,-16.9707 22,22 0 0 1 21.41796,16.97461 22,22 0 0 1 21.41602,-16.97461 22,22 0 0 1 21.41602,16.9707 22,22 0 0 1 21.41796,-16.9707 22,22 0 0 1 21.41602,16.9707 22,22 0 0 1 21.41602,-16.9707 22,22 0 0 1 21.41796,16.97461 22,22 0 0 1 21.41602,-16.97461 22,22 0 0 1 21.41602,16.9707 22,22 0 0 1 21.41796,-16.9707 22,22 0 0 1 21.41602,16.9707 22,22 0 0 1 21.41602,-16.9707 22,22 0 0 1 21.41796,16.97461 22,22 0 0 1 21.41602,-16.97461 22,22 0 0 1 21.41602,16.9707 22,22 0 0 1 21.41796,-16.9707 22,22 0 0 1 21.41602,16.9707 22,22 0 0 1 21.41602,-16.9707 22,22 0 0 1 21.41796,16.97461 22,22 0 0 1 21.41602,-16.97461 22,22 0 0 1 22,22 22,22 0 0 1 -16.31836,21.2539 24,24 0 0 1 18.31836,23.31836 24,24 0 0 1 -15.09375,22.28516 24,24 0 0 1 15.09375,22.28516 24,24 0 0 1 -15.0957,22.28515 24,24 0 0 1 15.0957,22.28711 24,24 0 0 1 -15.09375,22.28516 24,24 0 0 1 15.09375,22.28711 24,24 0 0 1 -15.0957,22.2832 24,24 0 0 1 15.0957,22.28711 24,24 0 0 1 -15.09375,22.28516 24,24 0 0 1 15.09375,22.2871 24,24 0 0 1 -18.32031,23.31641 22,22 0 0 1 16.32031,21.25391 22,22 0 0 1 -22,22 22,22 0 0 1 -21.41602,-16.96875 22,22 0 0 1 -21.41796,16.96875 22,22 0 0 1 -21.41602,-16.96875 22,22 0 0 1 -21.41602,16.96875 22,22 0 0 1 -21.41796,-16.97266 22,22 0 0 1 -21.41602,16.97266 22,22 0 0 1 -21.41602,-16.96875 22,22 0 0 1 -21.41796,16.96875 22,22 0 0 1 -21.41602,-16.96875 22,22 0 0 1 -21.41602,16.96875 22,22 0 0 1 -21.41796,-16.97266 22,22 0 0 1 -21.41602,16.97266 22,22 0 0 1 -21.41602,-16.96875 22,22 0 0 1 -21.41796,16.96875 22,22 0 0 1 -21.41602,-16.96875 22,22 0 0 1 -21.41602,16.96875 22,22 0 0 1 -21.41796,-16.97266 22,22 0 0 1 -21.41602,16.97266 22,22 0 0 1 -21.41602,-16.96875 22,22 0 0 1 -21.41796,16.96875 22,22 0 0 1 -21.41602,-16.96875 22,22 0 0 1 -21.41602,16.96875 22,22 0 0 1 -21.41796,-16.97266 22,22 0 0 1 -21.41602,16.97266 22,22 0 0 1 -22,-22 22,22 0 0 1 17.37109,-21.50586 24,24 0 0 1 -17.37109,-23.06446 24,24 0 0 1 15.0957,-22.28515 24,24 0 0 1 -15.0957,-22.28711 24,24 0 0 1 15.09375,-22.28516 24,24 0 0 1 -15.09375,-22.28515 24,24 0 0 1 15.0957,-22.28516 24,24 0 0 1 -15.0957,-22.28711 24,24 0 0 1 15.09375,-22.28516 24,24 0 0 1 -15.09375,-22.2871 24,24 0 0 1 15.0957,-22.28321 24,24 0 0 1 -15.0957,-22.28711 24,24 0 0 1 17.36524,-23.06445 22,22 0 0 1 -17.36524,-21.50781 22,22 0 0 1 22,-22 z" />
  </g>
</svg>
