<?xml version="1.0" encoding="UTF-8" standalone="no"?>
<svg xmlns="http://www.w3.org/2000/svg"
   xmlns:dc="http://purl.org/dc/elements/1.1/"
   xmlns:cc="http://web.resource.org/cc/"
   xmlns:rdf="http://www.w3.org/1999/02/22-rdf-syntax-ns#"
   xmlns:sodipodi="http://sodipodi.sourceforge.net/DTD/sodipodi-0.dtd"
   width="1203" height="797"
   sodipodi:docname="Flag_of_Vendée.svg"
   sodipodi:docbase="C:\Documents and Settings\Michel &amp; Evelyne\Bureau">
  <metadata><rdf:RDF><cc:Work rdf:about="">
    <dc:format>image/svg+xml</dc:format>
    <dc:type rdf:resource="http://purl.org/dc/dcmitype/StillImage"/>
  </cc:Work></rdf:RDF></metadata>
  <rect style="fill:#ffffff" x="3" width="1200" height="797"/>
  <g style="fill:#ff0000;fill-opacity:1"
     transform="translate(-106.0067304,90.4857)">
    <path
       d="M 107.42857,308.88021 L 107.42857,-89.619787 L 406.34473,-89.619787 L 705.26089,-89.619787 L 705.26089,-17.361763 L 705.26089,51.22331 C 699.09014,58.515473 685.61797,72.182846 680.40039,80.192378 C 678.01248,83.858067 678.20654,87.253257 675.82384,88.807441 C 670.58245,92.226294 666.71806,90.80703 662.02549,93.702622 C 659.20846,95.440891 655.66077,101.75334 650.70214,108.82305 C 646.90499,115.78391 636.5564,123.15336 634.7198,127.91054 C 632.25828,134.28641 637.0717,142.26238 644.17479,141.53256 C 653.24003,140.60115 675.68331,139.06182 675.70086,141.66271 C 675.81951,159.25108 676.48306,156.50692 678.93643,162.89666 C 680.28906,166.41955 649.95212,166.55468 647.29025,166.86475 C 625.34178,169.42143 581.45871,182.20562 571.93193,201.61687 C 568.868,207.85977 560.17624,229.95752 560.12871,246.2951 L 560.75654,276.71409 L 561.63294,299.4561 C 555.45485,310.90965 529.63395,317.99734 513.86779,347.8597 C 487.96143,396.92842 502.51199,461.71746 565.29606,522.72702 L 618.69522,571.87975 L 660.84269,544.11538 L 705.26089,584.62044 L 705.26089,638.92928 L 705.26089,707.38021 L 406.34473,707.38021 L 107.42857,707.38021 L 107.42857,308.88021 z "
       sodipodi:nodetypes="ccccccssscsssssscccsccccccccc" />
    <path
       d="M 693.0805,546.97323 C 640.81287,500.72325 602.71277,449.62946 588.48703,406.709 C 585.09126,396.46365 584.09433,389.20114 584.07458,374.56492 C 584.05031,356.59643 584.39589,354.9486 591.0274,341.41164 C 599.30565,324.51313 609.99059,311.84329 622.4081,304.20142 C 627.37884,301.14237 639.2382,293.81276 648.76223,287.91338 C 658.28626,282.014 668.14621,277.18723 670.67327,277.18723 C 673.20032,277.18723 679.71167,279.39508 685.14292,282.09353 C 701.87267,290.40558 715.71432,311.29985 715.79664,328.36598 L 715.83831,337.00107 L 698.56434,349.62258 C 689.06366,356.56439 680.52959,361.77527 679.59973,361.2023 C 678.66988,360.62933 677.9091,358.11546 677.9091,355.61597 C 677.9091,342.00184 662.02008,316.7514 649.33922,310.21334 C 636.92311,303.81179 626.1699,309.31758 622.79861,323.8025 C 619.35621,338.59297 620.68934,361.58509 625.88392,377.01354 C 635.29952,404.97883 659.39297,445.62168 686.19921,478.75837 C 699.55713,495.27088 733.62523,528.53396 742.58271,533.80957 C 745.6052,535.58968 748.07812,537.5762 748.07812,538.22408 C 748.07812,539.81616 716.61605,564.59322 714.5944,564.59322 C 713.71368,564.59322 704.03242,556.66422 693.0805,546.97323 z M 598.57281,526.38116 C 556.84038,487.76703 533.12094,452.50424 523.16306,414.27232 C 517.94421,394.23528 518.28315,360.86889 523.8458,347.063 C 529.33788,333.43228 543.85398,317.35738 559.65647,307.40685 L 572.25881,299.47136 L 570.63253,279.34787 C 567.97484,246.46211 568.51773,236.00945 573.62867,221.66168 C 584.32905,191.62287 606.1939,179.76499 659.89272,174.87845 C 672.40936,173.73946 682.7602,172.68125 682.89457,172.52688 C 683.02895,172.37252 682.70151,163.52476 682.16691,152.86522 L 681.19492,133.48421 L 665.41266,133.48421 L 651.05902,132.76992 L 652.43295,125.56462 C 653.97437,121.20882 658.65787,113.12553 662.84082,107.60172 C 669.37252,98.976234 671.34366,97.558471 676.8042,97.558471 C 681.66719,97.558471 683.94672,96.335791 686.4984,92.35869 C 687.30045,91.108588 687.32687,87.650729 688.39905,86.275236 C 689.7797,84.503995 691.72447,82.835663 695.07126,80.792866 C 699.70098,77.966999 717.91144,67.317557 720.11858,67.310068 C 720.90815,67.307405 720.99895,73.261313 720.32037,80.54101 L 719.08656,93.776811 L 737.84938,93.731714 C 748.16893,93.706904 760.00187,92.90305 764.14481,91.945367 C 768.28772,90.987688 771.81413,90.36984 771.98125,90.572353 C 772.14836,90.774876 768.26619,98.172984 763.35421,107.01261 C 752.9002,125.82573 747.34779,129.69504 730.79892,129.69962 L 720.15732,129.70256 L 719.19198,146.58274 C 718.41257,160.21179 717.41775,164.48823 714.02681,168.78633 L 709.82696,174.10972 L 716.15143,175.58687 C 726.43621,177.98896 783.57006,179.25842 803.40113,177.52544 C 815.86581,176.43619 821.37112,176.54535 820.58213,177.86606 C 819.94359,178.93498 814.83797,185.91022 809.23636,193.36662 L 799.0516,206.9237 L 785.41774,209.43865 C 775.72535,211.22657 759.44817,211.73544 729.11352,211.19889 C 705.64482,210.78378 670.79771,210.35834 651.67548,210.25347 L 616.90776,210.06278 L 611.1254,216.51712 C 605.51969,222.77423 605.37856,223.38078 606.50569,236.37082 C 607.14513,243.74049 608.21998,256.1749 608.89422,264.00284 L 610.12007,278.23547 L 599.59762,281.54253 C 580.02266,287.69466 563.32914,307.39348 558.60152,329.91904 C 555.5574,344.42334 555.87091,368.94462 559.26265,381.62855 C 568.23266,415.17333 595.88183,457.68786 634.73052,497.67105 C 645.9621,509.23064 655.1174,519.44471 655.07562,520.36903 C 655.01483,521.71416 625.52221,543.17111 620.82243,545.28944 C 620.1514,545.5919 610.13906,537.08317 598.57281,526.38116 z M 757.56042,517.91243 C 759.12501,515.68652 765.32624,507.4556 771.34094,499.62152 C 802.42012,459.14117 825.86632,410.3122 825.8105,386.18341 C 825.76932,368.38758 815.90152,341.53761 802.48971,322.72832 C 796.60667,314.47769 787.90379,300.35137 787.90379,299.05278 C 787.90379,298.71825 794.3763,293.58741 802.28714,287.65091 C 818.47259,275.50494 820.94641,275.27856 831.25974,284.99983 C 849.5685,302.25748 864.04697,338.24495 863.97606,366.31902 C 863.89446,398.61853 837.4782,445.19716 795.48963,487.07809 C 774.46324,508.05057 751.19842,526.9636 757.56042,517.91243 z M 733.72962,437.05222 C 760.04797,400.47886 765.08194,370.70337 750.04807,340.52999 C 744.3852,329.16443 730.92497,313.35143 720.94889,306.34443 L 715.62895,302.60782 L 730.0728,289.89754 C 738.01689,282.90687 745.53128,277.19521 746.77147,277.20496 C 751.94507,277.24568 768.99142,288.97625 777.47235,298.33198 C 809.22552,333.36046 805.2514,376.02337 766.46761,416.46932 C 758.32841,424.95734 745.31507,436.28157 737.54907,441.63424 L 723.4291,451.3664 L 733.72962,437.05222 z M 720.57945,259.89639 C 665.38347,256.26724 663.75138,256.0046 663.12501,250.65055 C 662.31168,243.69839 669.98994,233.43382 679.82087,228.33099 C 688.02115,224.07456 689.47402,223.95016 718.683,225.00342 C 735.37184,225.60519 758.41382,227.02469 769.88742,228.15785 C 781.36101,229.29102 802.77234,230.36298 817.46815,230.54003 L 844.18782,230.86191 L 833.67048,242.74161 C 827.88594,249.27542 821.40925,255.00395 819.2778,255.47166 C 817.14637,255.9394 806.33218,257.61323 795.24625,259.19135 C 773.51382,262.28498 758.99288,262.42209 720.57945,259.89639 z " />
  </g>
</svg>