<?xml version="1.0" encoding="UTF-8" standalone="no"?>
<svg
   xmlns:dc="http://purl.org/dc/elements/1.1/"
   xmlns:cc="http://creativecommons.org/ns#"
   xmlns:rdf="http://www.w3.org/1999/02/22-rdf-syntax-ns#"
   xmlns:svg="http://www.w3.org/2000/svg"
   xmlns="http://www.w3.org/2000/svg"
   xmlns:sodipodi="http://sodipodi.sourceforge.net/DTD/sodipodi-0.dtd"
   xmlns:inkscape="http://www.inkscape.org/namespaces/inkscape"
   inkscape:version="1.0.1 (c497b03c, 2020-09-10)"
   sodipodi:docname="Drapeau_fr département Nièvre.svg"
   id="svg2"
   height="400"
   width="600"
   version="1.0">
  <metadata
     id="metadata114">
    <rdf:RDF>
      <cc:Work
         rdf:about="">
        <dc:format>image/svg+xml</dc:format>
        <dc:type
           rdf:resource="http://purl.org/dc/dcmitype/StillImage" />
      </cc:Work>
    </rdf:RDF>
  </metadata>
  <sodipodi:namedview
     inkscape:current-layer="svg2"
     inkscape:window-maximized="0"
     inkscape:window-y="25"
     inkscape:window-x="0"
     inkscape:cy="186.33623"
     inkscape:cx="310.38296"
     inkscape:zoom="0.7"
     showgrid="false"
     id="namedview112"
     inkscape:window-height="784"
     inkscape:window-width="1440"
     inkscape:pageshadow="2"
     inkscape:pageopacity="0"
     guidetolerance="10"
     gridtolerance="10"
     objecttolerance="10"
     borderopacity="1"
     inkscape:document-rotation="0"
     bordercolor="#666666"
     pagecolor="#ffffff" />
  <defs
     id="defs6" />
  <rect
     style="fill:#2b5df2;fill-opacity:1;stroke:none;stroke-width:1.44783;stroke-linecap:round;stroke-linejoin:round;stroke-miterlimit:4;stroke-dasharray:none"
     id="rect1491"
     width="580"
     height="380"
     x="10.000001"
     y="9.9999971" />
  <g
     id="g1056">
    <path
       style="color:#000000;font-style:normal;font-variant:normal;font-weight:normal;font-stretch:normal;font-size:medium;line-height:normal;font-family:sans-serif;font-variant-ligatures:normal;font-variant-position:normal;font-variant-caps:normal;font-variant-numeric:normal;font-variant-alternates:normal;font-variant-east-asian:normal;font-feature-settings:normal;font-variation-settings:normal;text-indent:0;text-align:start;text-decoration:none;text-decoration-line:none;text-decoration-style:solid;text-decoration-color:#000000;letter-spacing:normal;word-spacing:normal;text-transform:none;writing-mode:lr-tb;direction:ltr;text-orientation:mixed;dominant-baseline:auto;baseline-shift:baseline;text-anchor:start;white-space:normal;shape-padding:0;shape-margin:0;inline-size:0;clip-rule:nonzero;display:inline;overflow:visible;visibility:visible;opacity:1;isolation:auto;mix-blend-mode:normal;color-interpolation:sRGB;color-interpolation-filters:linearRGB;solid-color:#000000;solid-opacity:1;vector-effect:none;fill:#fcef3c;fill-opacity:1;fill-rule:nonzero;stroke:none;stroke-width:1;stroke-linecap:butt;stroke-linejoin:miter;stroke-miterlimit:4;stroke-dasharray:none;stroke-dashoffset:0;stroke-opacity:1;color-rendering:auto;image-rendering:auto;shape-rendering:auto;text-rendering:auto;enable-background:accumulate;stop-color:#000000;stop-opacity:1"
       d="M 9.4921875,140.22656 V 272.42969 L 192.20117,394.23633 h 198.30664 z"
       id="path1051" />
    <path
       style="color:#000000;font-style:normal;font-variant:normal;font-weight:normal;font-stretch:normal;font-size:medium;line-height:normal;font-family:sans-serif;font-variant-ligatures:normal;font-variant-position:normal;font-variant-caps:normal;font-variant-numeric:normal;font-variant-alternates:normal;font-variant-east-asian:normal;font-feature-settings:normal;font-variation-settings:normal;text-indent:0;text-align:start;text-decoration:none;text-decoration-line:none;text-decoration-style:solid;text-decoration-color:#000000;letter-spacing:normal;word-spacing:normal;text-transform:none;writing-mode:lr-tb;direction:ltr;text-orientation:mixed;dominant-baseline:auto;baseline-shift:baseline;text-anchor:start;white-space:normal;shape-padding:0;shape-margin:0;inline-size:0;clip-rule:nonzero;display:inline;overflow:visible;visibility:visible;opacity:1;isolation:auto;mix-blend-mode:normal;color-interpolation:sRGB;color-interpolation-filters:linearRGB;solid-color:#000000;solid-opacity:1;vector-effect:none;fill:#fcef3c;fill-opacity:1;fill-rule:nonzero;stroke:none;stroke-width:1;stroke-linecap:butt;stroke-linejoin:miter;stroke-miterlimit:4;stroke-dasharray:none;stroke-dashoffset:0;stroke-opacity:1;color-rendering:auto;image-rendering:auto;shape-rendering:auto;text-rendering:auto;enable-background:accumulate;stop-color:#000000;stop-opacity:1"
       d="M 409.49219,5.7636719 590.50781,126.44141 V 5.7636719 Z"
       id="path1049" />
    <path
       style="color:#000000;font-style:normal;font-variant:normal;font-weight:normal;font-stretch:normal;font-size:medium;line-height:normal;font-family:sans-serif;font-variant-ligatures:normal;font-variant-position:normal;font-variant-caps:normal;font-variant-numeric:normal;font-variant-alternates:normal;font-variant-east-asian:normal;font-feature-settings:normal;font-variation-settings:normal;text-indent:0;text-align:start;text-decoration:none;text-decoration-line:none;text-decoration-style:solid;text-decoration-color:#000000;letter-spacing:normal;word-spacing:normal;text-transform:none;writing-mode:lr-tb;direction:ltr;text-orientation:mixed;dominant-baseline:auto;baseline-shift:baseline;text-anchor:start;white-space:normal;shape-padding:0;shape-margin:0;inline-size:0;clip-rule:nonzero;display:inline;overflow:visible;visibility:visible;opacity:1;isolation:auto;mix-blend-mode:normal;color-interpolation:sRGB;color-interpolation-filters:linearRGB;solid-color:#000000;solid-opacity:1;vector-effect:none;fill:#fcef3c;fill-opacity:1;fill-rule:nonzero;stroke:none;stroke-width:1;stroke-linecap:butt;stroke-linejoin:miter;stroke-miterlimit:4;stroke-dasharray:none;stroke-dashoffset:0;stroke-opacity:1;color-rendering:auto;image-rendering:auto;shape-rendering:auto;text-rendering:auto;enable-background:accumulate;stop-color:#000000;stop-opacity:1"
       d="M 9.4921875,5.7636719 590.50781,393.10742 V 260.90234 L 207.79883,5.7636719 Z"
       id="path1033" />
  </g>
  <path
     inkscape:connector-curvature="0"
     id="rect1698"
     style="fill:#e20909;fill-opacity:1;stroke:none;stroke-width:1.51083;stroke-linecap:round;stroke-linejoin:round;stroke-miterlimit:4;stroke-dasharray:none"
     d="M 0,0 V 400 H 600 V 0 Z m 42,22 a 22,22 0 0 1 21.34766,16.68359 22,22 0 0 1 0.0684,0.28516 A 22,22 0 0 1 84.83402,22 22,22 0 0 1 106.25004,38.9707 22,22 0 0 1 127.66606,22 22,22 0 0 1 149.08402,38.97461 22,22 0 0 1 170.50004,22 22,22 0 0 1 191.91606,38.9707 22,22 0 0 1 213.33402,22 22,22 0 0 1 234.75004,38.9707 22,22 0 0 1 256.16606,22 22,22 0 0 1 277.58402,38.97461 22,22 0 0 1 299.00004,22 22,22 0 0 1 320.41606,38.9707 22,22 0 0 1 341.83402,22 22,22 0 0 1 363.25004,38.9707 22,22 0 0 1 384.66606,22 22,22 0 0 1 406.08402,38.97461 22,22 0 0 1 427.50004,22 22,22 0 0 1 448.91606,38.9707 22,22 0 0 1 470.33402,22 22,22 0 0 1 491.75004,38.9707 22,22 0 0 1 513.16606,22 22,22 0 0 1 534.58402,38.97461 22,22 0 0 1 556.00004,22 a 22,22 0 0 1 22,22 22,22 0 0 1 -16.31836,21.2539 24,24 0 0 1 18.31836,23.31836 24,24 0 0 1 -15.09375,22.28516 24,24 0 0 1 15.09375,22.28516 24,24 0 0 1 -15.0957,22.28515 24,24 0 0 1 15.0957,22.28711 A 24,24 0 0 1 564.90629,200 a 24,24 0 0 1 15.09375,22.28711 24,24 0 0 1 -15.0957,22.2832 24,24 0 0 1 15.0957,22.28711 24,24 0 0 1 -15.09375,22.28516 24,24 0 0 1 15.09375,22.2871 24,24 0 0 1 -18.32031,23.31641 22,22 0 0 1 16.32031,21.25391 22,22 0 0 1 -22,22 A 22,22 0 0 1 534.58402,361.03125 22,22 0 0 1 513.16606,378 22,22 0 0 1 491.75004,361.03125 22,22 0 0 1 470.33402,378 22,22 0 0 1 448.91606,361.02734 22,22 0 0 1 427.50004,378 22,22 0 0 1 406.08402,361.03125 22,22 0 0 1 384.66606,378 22,22 0 0 1 363.25004,361.03125 22,22 0 0 1 341.83402,378 22,22 0 0 1 320.41606,361.02734 22,22 0 0 1 299.00004,378 22,22 0 0 1 277.58402,361.03125 22,22 0 0 1 256.16606,378 22,22 0 0 1 234.75004,361.03125 22,22 0 0 1 213.33402,378 22,22 0 0 1 191.91606,361.02734 22,22 0 0 1 170.50004,378 22,22 0 0 1 149.08402,361.03125 22,22 0 0 1 127.66606,378 22,22 0 0 1 106.25004,361.03125 22,22 0 0 1 84.83402,378 22,22 0 0 1 63.41606,361.02734 22,22 0 0 1 42.00004,378 a 22,22 0 0 1 -22,-22 22,22 0 0 1 17.37109,-21.50586 24,24 0 0 1 -17.37109,-23.06446 24,24 0 0 1 15.0957,-22.28515 24,24 0 0 1 -15.0957,-22.28711 24,24 0 0 1 15.09375,-22.28516 24,24 0 0 1 -15.09375,-22.28515 24,24 0 0 1 15.0957,-22.28516 24,24 0 0 1 -15.0957,-22.28711 24,24 0 0 1 15.09375,-22.28516 24,24 0 0 1 -15.09375,-22.2871 24,24 0 0 1 15.0957,-22.28321 A 24,24 0 0 1 20.00004,88.57226 24,24 0 0 1 37.36528,65.50781 22,22 0 0 1 20.00004,44 a 22,22 0 0 1 22,-22 z" />
</svg>
