<svg version="1.1" xmlns="http://www.w3.org/2000/svg" xmlns:xlink="http://www.w3.org/1999/xlink" width="1000" height="600" viewBox="0 0 1000 600">
<g id="Flag_of_Savoie">
<path id="Relleno-de-color" d="M-0.000,-0.000 L1000.000,-0.000 L1000.000,600.000 L-0.000,600.000 L-0.000,-0.000 z" fill="#CC0000" />
<g id="Relleno-de-color" >
<path id="Relleno-de-color-fill" d="M500.000,-0.000 L500.000,600.000 M-0.000,300.000 L1000.000,300.000 " fill="#000000" />
<path id="Relleno-de-color-stroke" d="M500.000,-0.000 L500.000,600.000 M-0.000,300.000 L1000.000,300.000 " fill="none" stroke="#FFFFFF" stroke-width="135" />
</g>
<path id="Haute-Savoie" d="M715.298,309.775 C715.298,309.775 691.636,309.775 691.636,309.775 C691.703,312.116 692.464,313.937 693.921,315.239 C695.378,316.540 697.193,317.191 699.366,317.191 C700.845,317.191 702.089,316.854 703.097,316.180 C704.106,315.505 704.867,314.419 705.383,312.921 C705.383,312.921 714.794,314.241 714.794,314.241 C713.584,317.126 711.673,319.322 709.063,320.829 C706.453,322.337 703.186,323.090 699.265,323.090 C693.058,323.090 688.465,321.396 685.485,318.006 C683.132,315.290 681.956,311.863 681.956,307.724 C681.956,302.779 683.502,298.908 686.594,296.107 C689.686,293.308 693.596,291.908 698.324,291.908 C703.635,291.908 707.825,293.373 710.895,296.304 C713.965,299.235 715.433,303.725 715.298,309.775 zM703.803,299.731 C702.459,298.542 700.823,297.948 698.896,297.948 C696.834,297.948 695.131,298.575 693.787,299.830 C692.442,301.085 691.781,302.789 691.804,304.943 C691.804,304.943 705.921,304.943 705.921,304.943 C705.853,302.658 705.147,300.921 703.803,299.731 zM665.587,292.582 L675.032,292.582 L675.032,322.416 L665.587,322.416 L665.587,292.582 zM665.587,281.232 L675.032,281.232 L675.032,288.537 L665.587,288.537 L665.587,281.232 zM639.807,323.090 C636.535,323.090 633.415,322.472 630.446,321.236 C627.477,320.000 625.219,318.188 623.673,315.800 C622.127,313.413 621.354,310.505 621.354,307.078 C621.354,304.456 622.127,301.918 623.673,299.465 C625.219,297.011 627.409,295.138 630.244,293.846 C633.079,292.554 636.244,291.908 639.739,291.908 C645.139,291.908 649.565,293.373 653.016,296.304 C656.466,299.235 658.192,302.939 658.192,307.415 C658.192,311.928 656.450,315.670 652.966,318.638 C649.481,321.606 645.095,323.090 639.807,323.090 zM645.974,300.701 C644.305,299.127 642.238,298.341 639.773,298.341 C637.308,298.341 635.236,299.127 633.555,300.701 C631.874,302.274 631.034,304.540 631.034,307.499 C631.034,310.458 631.874,312.724 633.555,314.297 C635.236,315.871 637.308,316.657 639.773,316.657 C642.238,316.657 644.305,315.871 645.974,314.297 C647.643,312.724 648.478,310.440 648.478,307.443 C648.478,304.521 647.643,302.274 645.974,300.701 zM595.070,322.416 L580.684,292.582 L590.599,292.582 L597.322,307.808 C597.322,307.808 599.271,312.893 599.271,312.893 C599.786,311.601 600.112,310.749 600.246,310.336 C600.560,309.494 600.896,308.651 601.254,307.808 C601.254,307.808 608.044,292.582 608.044,292.582 L617.758,292.582 L603.574,322.416 L595.070,322.416 zM567.744,320.084 C567.587,319.617 567.475,319.308 567.408,319.157 C565.794,320.469 564.068,321.452 562.231,322.107 C560.394,322.763 558.433,323.090 556.349,323.090 C552.674,323.090 549.778,322.257 547.661,320.590 C545.543,318.923 544.484,316.817 544.484,314.269 C544.484,312.584 544.966,311.081 545.930,309.760 C546.893,308.440 548.243,307.429 549.980,306.726 C551.716,306.024 554.220,305.411 557.492,304.886 C561.906,304.194 564.965,303.548 566.668,302.948 C566.668,302.948 566.668,302.161 566.668,302.161 C566.668,300.644 566.220,299.563 565.324,298.917 C564.427,298.271 562.736,297.948 560.248,297.948 C558.568,297.948 557.257,298.224 556.316,298.776 C555.375,299.329 554.613,300.298 554.030,301.684 C554.030,301.684 545.459,300.392 545.459,300.392 C546.422,297.508 548.081,295.373 550.434,293.986 C552.787,292.601 556.282,291.908 560.921,291.908 C565.133,291.908 568.270,292.325 570.332,293.158 C572.393,293.991 573.844,295.050 574.684,296.332 C575.525,297.615 575.945,299.970 575.945,303.397 C575.945,303.397 575.844,312.612 575.844,312.612 C575.844,315.234 575.995,317.168 576.298,318.413 C576.600,319.659 577.166,320.993 577.995,322.416 C577.995,322.416 568.651,322.416 568.651,322.416 C568.404,321.892 568.102,321.115 567.744,320.084 zM566.668,308.089 C565.458,308.426 563.542,308.829 560.921,309.297 C558.299,309.765 556.585,310.224 555.778,310.673 C554.545,311.404 553.929,312.331 553.929,313.455 C553.929,314.560 554.422,315.515 555.408,316.320 C556.394,317.126 557.649,317.528 559.173,317.528 C560.875,317.528 562.500,317.060 564.046,316.123 C565.189,315.412 565.940,314.541 566.298,313.511 C566.545,312.837 566.668,311.554 566.668,309.662 C566.668,309.662 566.668,308.089 566.668,308.089 zM520.519,296.711 C525.360,297.667 528.939,298.655 531.258,299.675 C533.578,300.696 535.393,302.091 536.703,303.861 C538.014,305.631 538.670,307.818 538.670,310.421 C538.670,312.780 537.885,314.991 536.317,317.050 C534.748,319.111 532.530,320.642 529.662,321.644 C526.793,322.645 523.219,323.147 518.940,323.147 C512.710,323.147 507.926,321.943 504.588,319.537 C501.249,317.130 499.254,313.623 498.605,309.016 C498.605,309.016 508.285,308.229 508.285,308.229 C508.867,310.945 510.050,312.940 511.831,314.213 C513.612,315.487 516.016,316.123 519.041,316.123 C522.245,316.123 524.659,315.557 526.284,314.424 C527.908,313.291 528.721,311.966 528.721,310.449 C528.721,309.475 528.379,308.646 527.696,307.963 C527.012,307.279 525.819,306.684 524.116,306.179 C522.951,305.842 520.295,305.242 516.150,304.381 C510.817,303.276 507.075,301.918 504.924,300.307 C501.899,298.041 500.386,295.279 500.386,292.020 C500.386,289.923 501.097,287.961 502.521,286.135 C503.943,284.309 505.994,282.918 508.671,281.963 C511.349,281.008 514.581,280.530 518.368,280.530 C524.553,280.530 529.208,281.663 532.334,283.929 C535.460,286.196 537.101,289.220 537.258,293.003 C537.258,293.003 527.309,293.368 527.309,293.368 C526.883,291.252 525.970,289.730 524.570,288.803 C523.169,287.876 521.068,287.413 518.268,287.413 C515.377,287.413 513.113,287.909 511.478,288.902 C510.424,289.539 509.898,290.391 509.898,291.458 C509.898,292.432 510.391,293.266 511.377,293.958 C512.632,294.839 515.679,295.756 520.519,296.711 zM477.060,303.538 L495.613,303.538 L495.613,311.432 L477.060,311.432 L477.060,303.538 zM446.776,309.775 C446.843,312.116 447.605,313.937 449.061,315.239 C450.518,316.540 452.333,317.191 454.507,317.191 C455.985,317.191 457.229,316.854 458.237,316.180 C459.246,315.505 460.007,314.419 460.523,312.921 C460.523,312.921 469.934,314.241 469.934,314.241 C468.724,317.126 466.814,319.322 464.203,320.829 C461.593,322.337 458.327,323.090 454.406,323.090 C448.199,323.090 443.605,321.396 440.625,318.006 C438.272,315.290 437.096,311.863 437.096,307.724 C437.096,302.779 438.642,298.908 441.734,296.107 C444.826,293.308 448.736,291.908 453.465,291.908 C458.775,291.908 462.965,293.373 466.035,296.304 C469.105,299.235 470.573,303.725 470.438,309.775 C470.438,309.775 446.776,309.775 446.776,309.775 zM458.943,299.731 C457.599,298.542 455.963,297.948 454.036,297.948 C451.974,297.948 450.271,298.575 448.927,299.830 C447.583,301.085 446.921,302.789 446.944,304.943 C446.944,304.943 461.061,304.943 461.061,304.943 C460.994,302.658 460.288,300.921 458.943,299.731 zM427.029,315.154 C427.152,315.557 427.432,315.889 427.869,316.152 C428.306,316.414 428.838,316.545 429.466,316.545 C430.340,316.545 431.606,316.292 433.264,315.786 C433.264,315.786 434.071,321.911 434.071,321.911 C431.874,322.697 429.387,323.090 426.609,323.090 C424.906,323.090 423.371,322.852 422.004,322.374 C420.637,321.896 419.635,321.278 418.996,320.520 C418.357,319.761 417.915,318.736 417.668,317.444 C417.467,316.526 417.366,314.672 417.366,311.881 C417.366,311.881 417.366,298.875 417.366,298.875 L413.030,298.875 L413.030,292.582 L417.366,292.582 L417.366,286.654 L426.844,282.047 L426.844,292.582 L433.298,292.582 L433.298,298.875 L426.844,298.875 C426.844,298.875 426.844,310.898 426.844,310.898 C426.844,313.333 426.906,314.752 427.029,315.154 zM398.375,317.949 C397.075,319.542 395.367,320.796 393.250,321.714 C391.132,322.631 388.897,323.090 386.544,323.090 C384.146,323.090 381.995,322.650 380.091,321.770 C378.186,320.890 376.808,319.654 375.956,318.062 C375.105,316.470 374.679,314.269 374.679,311.460 C374.679,311.460 374.679,292.582 374.679,292.582 L384.124,292.582 C384.124,292.582 384.124,306.291 384.124,306.291 C384.124,310.486 384.297,313.057 384.645,314.002 C384.992,314.948 385.625,315.698 386.544,316.250 C387.463,316.802 388.628,317.079 390.040,317.079 C391.653,317.079 393.098,316.709 394.376,315.969 C395.653,315.229 396.527,314.311 396.997,313.216 C397.468,312.120 397.703,309.437 397.703,305.167 C397.703,305.167 397.703,292.582 397.703,292.582 L407.148,292.582 L407.148,322.416 L398.375,322.416 C398.375,322.416 398.375,317.949 398.375,317.949 zM357.369,320.084 C357.212,319.617 357.100,319.308 357.033,319.157 C355.420,320.469 353.694,321.452 351.857,322.107 C350.019,322.763 348.059,323.090 345.975,323.090 C342.300,323.090 339.404,322.257 337.286,320.590 C335.169,318.923 334.110,316.817 334.110,314.269 C334.110,312.584 334.592,311.081 335.555,309.760 C336.519,308.440 337.869,307.429 339.606,306.726 C341.342,306.024 343.846,305.411 347.118,304.886 C351.532,304.194 354.591,303.548 356.294,302.948 C356.294,302.948 356.294,302.161 356.294,302.161 C356.294,300.644 355.845,299.563 354.949,298.917 C354.053,298.271 352.361,297.948 349.874,297.948 C348.193,297.948 346.882,298.224 345.941,298.776 C345.000,299.329 344.238,300.298 343.656,301.684 C343.656,301.684 335.085,300.392 335.085,300.392 C336.048,297.508 337.707,295.373 340.059,293.986 C342.412,292.601 345.908,291.908 350.546,291.908 C354.759,291.908 357.895,292.325 359.957,293.158 C362.019,293.991 363.470,295.050 364.310,296.332 C365.150,297.615 365.570,299.970 365.570,303.397 C365.570,303.397 365.470,312.612 365.470,312.612 C365.470,315.234 365.621,317.168 365.923,318.413 C366.226,319.659 366.792,320.993 367.621,322.416 C367.621,322.416 358.277,322.416 358.277,322.416 C358.030,321.892 357.727,321.115 357.369,320.084 zM356.294,308.089 C355.084,308.426 353.168,308.829 350.546,309.297 C347.924,309.765 346.210,310.224 345.404,310.673 C344.171,311.404 343.555,312.331 343.555,313.455 C343.555,314.560 344.048,315.515 345.034,316.320 C346.020,317.126 347.274,317.528 348.798,317.528 C350.501,317.528 352.126,317.060 353.672,316.123 C354.815,315.412 355.565,314.541 355.924,313.511 C356.170,312.837 356.294,311.554 356.294,309.662 C356.294,309.662 356.294,308.089 356.294,308.089 zM316.430,304.409 L296.936,304.409 L296.936,322.416 L286.987,322.416 L286.987,281.232 L296.936,281.232 L296.936,297.442 L316.430,297.442 L316.430,281.232 L326.379,281.232 L326.379,322.416 L316.430,322.416 L316.430,304.409 z" fill="#000000" />
</g>
</svg>
