<svg width="24" height="18" viewBox="0 0 24 18" fill="none" xmlns="http://www.w3.org/2000/svg">
    <linearGradient id="candy-gradient" x1="23" y1="22.0418" x2="-1.92184" y2="19.452" gradientUnits="userSpaceOnUse">
        <stop stop-color="#F7A2E4"/>
        <stop offset="1" stop-color="#FCCB1A"/>
    </linearGradient>
    <path fill="url(#candy-gradient)" d="M16.871 1.312C16.589 0.548 15.861 0 15 0C13.702 0 12.687 1.244 13.096 2.582C14.207 2.187 15.442 1.479 16.871 1.312ZM13 10C13 9.448 12.553 9 12 9C11.447 9 11 9.448 11 10C11 10.552 11.447 11 12 11C12.553 11 13 10.552 13 10ZM18.318 14.873C19.781 14.562 20.789 13.383 20.464 11.646C21.863 13.163 20.309 15.595 18.318 14.873ZM4.317 14.873C5.78 14.562 6.788 13.383 6.463 11.646C7.862 13.163 6.307 15.595 4.317 14.873ZM9 0C8.139 0 7.411 0.548 7.129 1.312C8.558 1.48 9.793 2.187 10.904 2.582C11.313 1.244 10.298 0 9 0ZM10.134 5.494C11.342 5.89 12.651 5.892 13.865 5.494C16.48 4.64 17.38 3.508 18.317 5.163C18.709 5.854 19.649 7.5 19.982 8.097C17.128 7.522 14.41 9.513 14.042 12.351C12.809 11.731 11.248 11.704 9.958 12.351C9.589 9.512 6.872 7.522 4.017 8.097C4.431 7.359 5.2 6.016 5.682 5.164C6.618 3.509 7.516 4.638 10.134 5.494ZM17.305 2.319C15.912 2.319 14.445 3.2 13.243 3.593C12.431 3.859 11.558 3.856 10.757 3.593C9.556 3.2 8.088 2.319 6.695 2.319C5.697 2.319 4.737 2.771 3.941 4.178C1.535 8.433 0 10.865 0 13C0 15.761 2.238 18 5 18C9.039 18 9.156 13.877 12 13.877C14.844 13.877 14.961 18 19 18C21.762 18 24 15.761 24 13C24 10.865 22.465 8.433 20.059 4.179C19.262 2.771 18.303 2.319 17.305 2.319ZM19 16C17.346 16 16 14.654 16 13C16 11.346 17.346 10 19 10C20.654 10 22 11.346 22 13C22 14.654 20.654 16 19 16ZM5 16C3.346 16 2 14.654 2 13C2 11.346 3.346 10 5 10C6.654 10 8 11.346 8 13C8 14.654 6.654 16 5 16Z"/>
</svg>