<svg width="22" height="22" viewBox="0 0 22 22" fill="none" xmlns="http://www.w3.org/2000/svg">
    <linearGradient id="candy-gradient" x1="23" y1="22.0418" x2="-1.92184" y2="19.452" gradientUnits="userSpaceOnUse">
        <stop stop-color="#F7A2E4"/>
        <stop offset="1" stop-color="#FCCB1A"/>
    </linearGradient>
    <path fill="url(#candy-gradient)" d="M22 2.09183V10.9377C22 10.9377 20.8203 12.0276 19.118 12.0276C16.4844 12.0276 16.0692 9.81842 13.1148 9.81842C12.1266 9.81842 10.8662 10.3693 10.0824 11V18.3333H8.25V0H10.0833V1.68667C10.8772 1.27692 11.9616 0.916667 13.1047 0.916667C16.2332 0.916667 16.2938 3.23858 18.9888 3.23858C20.7002 3.23858 22 2.09183 22 2.09183ZM20.1667 4.95092C18.0208 5.39 16.5596 4.6805 15.1617 3.586C13.3384 2.15783 11.3245 2.81508 10.0833 3.88483V8.822C11.0092 8.34717 12.0908 7.98508 13.1157 7.98508C15.2057 7.98508 16.4432 8.8385 17.347 9.46092C18.2637 10.0934 18.9943 10.4876 20.1667 9.94767V4.95092ZM18.3333 15.5833H11.9167V17.4167H17.27L18.8412 20.1667H3.15883L4.73 17.4167H6.41667V15.5833H3.66667L0 22H22L18.3333 15.5833Z" />
</svg>