<?xml version="1.0" encoding="UTF-8" standalone="no"?>
<svg viewBox="0 0 512 406" version="1.1" xmlns="http://www.w3.org/2000/svg">
  <linearGradient  id="candy-gradient" x1="512" y1="0" x2="0" y2="0" gradientUnits="userSpaceOnUse">
    <stop stop-color="#F7A2E4" id="stop841" />
    <stop offset="1" stop-color="#FCCB1A" id="stop843" />
  </linearGradient>
  <path fill="url(#candy-gradient)" style="fill:url(#candy-gradient)" d="m 95.16,148.54 h 348.48 q 49.54,0 58.95,9.1 9.41,9.1 9.41,56.74 V 339.9 q 0,46.84 -10.1,56.47 Q 491.8,406 443.67,406 H 68.32 Q 21.85,406 10.93,395.43 0.01,384.86 0,339.9 V 214.38 Q 0,170 8.5,159 17,148 51.85,148 l 15.92,0.53 v -5.09 q 0,-40.68 25.61,-68.39 25.61,-27.71 63.53,-27.7 18,0 39.88,5.88 l 12.21,3.5 q 24.08,6.7 41.53,6.69 50.38,0 68.66,-42.82 Q 327.76,0 336.62,0 q 12.73,0 12.73,11.51 0,20.34 -22.68,45 -30.43,33.46 -75,33.46 -15.21,0 -47.85,-7.23 l -14.66,-3.21 q -24.06,-5.62 -34.3,-5.62 -24.62,0 -42.18,20.34 -17.56,20.34 -17.52,48.4 z m 348.77,13.11 H 68.35 q -40.41,0 -47.6,7 -7.19,7 -7.2,45.83 v 125.4 q 0,39.12 7.2,46.09 7.2,6.97 47.6,7 h 375.57 q 40.41,0 47.46,-7 7.05,-7 7.05,-46.09 V 214.44 q 0,-38.86 -7.19,-45.83 -7.19,-6.97 -47.32,-6.96 z M 67.77,200.46 h 34 v 32.92 h 34.3 v -32.92 h 34.58 v 32.92 h 33.74 V 200.46 H 239 v 32.92 h 34 v -32.92 h 34 v 32.92 h 34 v -32.92 h 34 v 32.92 h 34.3 v -32.92 h 34 v 33.46 H 409.65 V 267.1 H 443.4 V 300 h -34 V 267.64 H 375.1 V 300 h -34 V 267.64 H 307 V 300 H 273 V 267.64 H 239 V 300 H 204.41 V 267.64 H 170.67 V 300 h -34.58 v -32.36 h -34.3 V 300 h -34 v -32.9 h 33.74 V 233.91 H 67.77 Z m 68.32,152.83 v -32.93 h 239 v 32.92 z m 0.28,-86.18 h 33.74 v -33.2 h -33.74 z m 68.32,0 h 34 v -33.2 h -34 z m 68.6,0 h 33.47 v -33.2 h -33.47 z m 68,0 h 33.51 v -33.2 h -33.47 z"/>
</svg>