<svg xmlns="http://www.w3.org/2000/svg" fill="none" viewBox="0 0 512 512">
    <title>keyboard-outline</title>
    <linearGradient id="candy-gradient" x1="512" y1="0" x2="0" y2="0" gradientUnits="userSpaceOnUse">
        <stop stop-color="#F7A2E4"/>
        <stop offset="1" stop-color="#FCCB1A"/>
    </linearGradient>
    <path fill="url(#candy-gradient)" d="M95.16,201.54H443.64q49.54,0,58.95,9.1T512,267.38V392.9q0,46.84-10.1,56.47T443.67,459H68.32q-46.47,0-57.39-10.57T0,392.9V267.38Q0,223,8.5,212t43.35-11l15.92.53v-5.09q0-40.68,25.61-68.39t63.53-27.7q18,0,39.88,5.88L209,109.73q24.08,6.7,41.53,6.69,50.38,0,68.66-42.82Q327.76,53,336.62,53q12.73,0,12.73,11.51,0,20.34-22.68,45-30.43,33.46-75,33.46-15.21,0-47.85-7.23l-14.66-3.21q-24.06-5.62-34.3-5.62-24.62,0-42.18,20.34T95.16,195.65Zm348.77,13.11H68.35q-40.41,0-47.6,7t-7.2,45.83v125.4q0,39.12,7.2,46.09t47.6,7H443.92q40.41,0,47.46-7t7.05-46.09V267.44q0-38.86-7.19-45.83T443.92,214.65ZM67.77,253.46h34v32.92h34.3V253.46h34.58v32.92h33.74V253.46H239v32.92h34V253.46h34v32.92h34V253.46h34v32.92h34.3V253.46h34v33.46H409.65V320.1H443.4V353h-34V320.64h-34.3V353h-34V320.64H307V353H273V320.64H239V353H204.41V320.64H170.67V353H136.09V320.64h-34.3V353h-34V320.1h33.74V286.91H67.77Zm68.32,152.83V373.36h239v32.92Zm.28-86.18h33.74V286.91H136.37Zm68.32,0h34V286.91h-34Zm68.6,0h33.47V286.91H273.29Zm68,0H374.8V286.91H341.33Z"/>
</svg>