<svg width="7" height="15" viewBox="0 0 7 15" fill="none" xmlns="http://www.w3.org/2000/svg">
  <linearGradient id="candy-gradient" x1="7" y1="10" x2="0" y2="0"
    gradientUnits="userSpaceOnUse">
    <stop stop-color="#F7A2E4" />
    <stop offset="1" stop-color="#FCCB1A" />
  </linearGradient>
  <path
    d="M7 4C7 2.06683 5.43258 0.5 3.5 0.5C1.56742 0.5 0 2.06683 0 4C0 5.73367 1.26233 7.16925 2.91667 7.4475V14.5L4.08333 13.3333V7.4475C5.73767 7.16925 7 5.73367 7 4ZM1.94833 3.32392C1.63917 3.0515 1.64733 2.52358 1.96817 2.14383C2.28783 1.76467 2.79767 1.67775 3.10683 1.94958C3.416 2.22142 3.40725 2.74992 3.08758 3.1285C2.76733 3.50883 2.2575 3.59575 1.94833 3.32392Z"
    fill="url(#candy-gradient)" />
</svg>
