<svg width="1000" height="500" viewBox="0 0 1000 500" xmlns="http://www.w3.org/2000/svg"><g transform="translate(332.18451,-79.880943)"><path fill="#fff" d="M-332.185 79.881H667.815V579.881H-332.185z"/><g transform="matrix(1.0616339,0,0,1.0588263,44.302297,324.69356)"><path d="m -229.37547,-131.70044 c -2.11146,0.57747 -5.30232,8.24619 -4.11327,10.99545 0.99024,2.28963 3.08877,3.28146 5.53734,3.80799 -1.51377,5.50581 -14.23707,10.16106 -16.74609,14.8524 -0.1809,3.466138 0.0333,10.246528 6.13503,11.253418 13.1859,2.17569 25.02606,-10.163818 29.38197,-24.587098 -3.32361,3.58488 -12.03102,12.44859 -16.92153,15.678958 -5.9874,3.83061 -11.70558,3.31572 -15.33258,1.55814 0.86769,-1.40187 4.7202,-3.810538 9.97959,-7.442488 5.25945,-3.63198 5.77035,-4.60215 7.28331,-10.08483 3.05169,1.15224 7.38795,0.55554 8.25735,-0.246 1.7733,-2.32653 2.50929,-5.0031 1.96212,-7.70985 -0.92835,-1.96512 -6.52932,-8.78883 -9.27636,-9.38775 0.002,-2.37834 -6.51339,-5.1879 -7.76658,-2.91735 -0.47718,0.92289 1.93659,2.53437 1.6197,4.22856 z m 3.98829,4.11735 c 0.7305,1.57824 0.58812,3.33597 -0.30372,4.26402 -7.8183,0.34818 -4.29546,-5.42427 0.30372,-4.26402 z m 2.96583,2.22147 c 1.83789,0.36978 3.79128,2.62806 5.22621,3.96141 -3.08571,0.42291 -4.09086,0.291 -5.72196,-0.2052 -0.1614,-1.27251 0.0501,-2.57934 0.49575,-3.75633 z"/><path d="m 138.40623,9.8958681 c -3.84777,1.2020099 -4.74273,1.7216399 -10.18806,3.9692099 -2.90982,-4.9817399 -3.65385,-5.3089199 -5.09679,-7.0701299 1.35432,-1.64415 14.00478,-0.81045 15.28485,3.10092 z M 124.46934,70.969748 C 109.78962,77.632358 99.633659,86.568038 100.23975,103.29313 83.335739,96.633248 78.852059,78.761288 76.657319,69.695738 73.249559,55.619798 64.733579,-0.69254186 46.409429,-11.278192 l -0.44319,22.31313 c 6.34569,10.60584 17.27199,40.78035 20.95263,58.21956 -6.47619,16.0299 -42.63513,44.920682 -59.2504804,43.966202 -11.85621,-0.68112 -10.40229,-15.887432 -2.42997,-44.276072 -12.29115,12.62964 -18.9461096,54.288992 -1.13541,61.415612 11.2608304,3.90543 27.1761304,-6.47502 42.2689504,-18.46245 22.28094,-17.696552 20.05482,-25.554692 22.48665,-34.849412 4.60599,20.3631 18.31932,48.281852 59.484601,49.106882 l 0.3231,-15.58884 c -7.42881,-0.68523 -20.73486,-11.863802 -20.9058,-15.378002 4.54506,-6.21081 28.59576,-19.12569 64.07217,-27.02652 4.82775,-7.48566 8.20038,-11.50689 10.05396,-15.64419 -8.99808,1.69788 -41.3871,2.90949 -49.84383,3.15627 -24.14889,-0.0354 -24.72789,0.38889 -39.625261,-0.0915 0.95937,-4.11834 24.324361,-23.01249 30.791911,-25.53219 1.18299,1.71765 1.60995,5.54964 2.42199,8.87727 7.33314,-4.6035 6.07929,-11.71341 6.22308,-12.29298 0.144,-0.57957 14.18226,-5.08836 19.24692,-7.43196 l 6.51147,-13.8558299 c -7.42299,-9.14415 -22.99797,-15.30564 -29.09337,-13.43316 -19.48821,5.98686 -12.0993,18.7148099 -9.44625,26.6242799 -19.188661,17.18808 -41.704771,23.04525 -42.367771,54.26178 8.04534,-2.05581 36.463501,-1.51146 47.763721,-1.8303 z"/><path d="m -30.570121,-13.590562 -2.67948,-0.0019 c -8.00859,12.5726401 -10.55079,23.3309101 -22.26,26.11239 -8.87706,2.10879 -18.38043,-0.47382 -14.67069,-23.03559 -10.62882,-2.5602 -38.393369,13.9119001 -46.145849,15.7676401 -2.27262,-12.66747 -9.39975,-19.7951101 -16.76655,-24.1788301 -23.84571,-14.18991 -36.79371,44.22426 -15.18507,44.84781 8.2242,0.2367 10.90701,0.1512 23.62446,0.021 1.7901,3.14124 5.502,10.56687 4.46988,16.34325 -11.5248,16.62141 -43.35492,41.83506 -64.0629,39.32055 -23.92056,-2.90451 -36.99942,-19.32213 -26.22627,-59.07117 l -1.16277,-0.009 c -4.67769,12.29346 -25.6551,65.23965 18.10158,77.541122 18.56592,3.46416 50.34003,-4.037942 75.58425,-39.611882 5.78412,-8.151 5.6724,-26.97864 5.13381,-36.85014 17.040899,-5.33718 23.919029,-13.01304 32.150669,-15.9056399 1.82169,21.5103299 14.38833,24.7331699 21.06612,24.4938599 14.14125,-0.50673 21.32442,-13.7211 24.21414,-20.07444 1.94835,7.75701 8.73945,13.3248 17.59653,11.71431 18.26036955,-3.32028 24.1794596,-34.14909 13.4066396,-47.07693 l -7.7004296,15.5261101 c 9.0513596,12.60708 2.0457,13.43142 -1.95084,14.38572 -12.37788,2.95557 -15.65397,-10.43316 -16.53723,-20.2619101 z M -131.66781,7.3165581 c -6.92433,0.60267 -13.57602,0.53955 -18.4812,0.1119 -1.1169,-2.29575 1.00371,-8.06801996 4.65168,-9.38712 4.54257,-1.64256 10.12647,2.30706004 13.82952,9.27522 z"/><path d="m 21.820229,-130.30451 c 11.2347,6.78837 23.89191,25.4253 9.79416,53.312368 l -1.6863,0.0027 c 0.98373,-8.79978 7.57746,-25.407598 -8.166,-38.802328 z"/><path d="m 40.437299,14.724278 -0.1929,4.81101 -10.05888,-4.01883 c 6.47199,13.99143 13.59822,24.83889 10.76652,41.96331 -3.07992,18.62562 -59.85528,59.301392 -79.98507,64.655942 -16.19436,4.30779 -37.64823,4.59387 -60.57516,4.89003 47.25297,-11.27715 106.1078096,-45.960542 136.80192,-74.069192 -4.91913,-6.25911 -14.40024,-19.46769 -16.07769,-31.48644 -3.96426,-7.4448 -7.20171,-12.9473399 -7.20171,-12.9473399 l 2.85714,-17.52816 z"/><path d="m 396.6269,98.278268 c 0.25992,4.744922 10.05263,6.322562 17.69343,-1.08045 0.87648,-0.2409 2.61924,-0.2415 3.57312,-0.3546 -1.29939,6.459482 -9.62819,10.936352 -12.12469,12.505292 -3.92026,2.4636 -9.42035,6.83331 -14.90864,8.2959 l 0.075,-4.15485 c 1.42585,-1.01661 2.37424,-1.68216 4.73979,-3.73845 -6.4902,-3.4038 -6.62861,-7.44876 -5.21771,-10.267022 3.8798,-7.75011 12.30186,-16.3581 19.22656,-10.962 0.85256,4.15506 -2.13588,11.861342 -6.35496,5.98365 -2.98408,0.2196 -6.17804,1.84281 -6.70193,3.77253 z"/><path d="m 139.20789,-119.19719 c -1.86357,-1.60725 -9.92391,-0.42405 -12.70113,-1.12707 0.0864,-3.86256 1.08819,-8.11158 5.57958,-10.86087 6.55866,-1.88415 18.97224,2.03697 20.59839,4.24329 1.62627,2.20635 -4.58097,9.3066 -7.41255,11.00436 -9.80127,5.87667 -16.01859,6.68637 -19.1346,7.15296 -1.43223,-0.39504 -2.78286,-1.05555 -4.13343,-1.67529 8.0763,-2.04681 17.0091,-6.75849 17.20374,-8.73738 z"/><path d="m 169.57122,94.738988 c -4.57905,-0.1083 -9.17718,14.860562 -23.28105,27.720662 -15.47667,12.49158 -23.17875,15.21108 -35.79066,20.81976 22.00506,-1.22268 43.2573,-13.52385 51.37272,-34.03548 1.81602,1.55085 7.05996,4.5489 10.52115,3.22335 7.03506,-8.98557 -1.03038,-17.685872 -2.82216,-17.728292 z m 1.71384,10.926782 c -0.47028,0.2907 -4.17342,-1.06947 -5.48208,-2.30082 0.2556,-1.24053 1.87128,-2.07567 2.85807,-1.70292 2.71575,1.86999 3.63435,3.12447 2.62401,4.00374 z"/><path d="m -167.57397,16.752848 c -10.82679,-4.26042 -13.7565,19.14084 -16.86774,31.25076 -6.29658,-18.11034 -13.44612,-18.95919 -17.03961,-17.39268 -13.67874,6.11331 1.64625,28.0038 8.86857,14.9253 2.30652,2.75745 3.87858,8.03412 9.77568,19.11546 2.01372,-14.89566 4.1067,-39.4422 15.17598,-29.4045 7.14633,-7.61133 2.85438,-17.26509 0.0882,-18.49434 z"/><path d="m -200.01012,-32.849662 c -2.36013,-0.1881 -5.42001,4.04223 -6.96804,9.12393 -1.71417,5.62695 -2.24877,8.90814 7.99077,14.8147501 -7.44075,17.48547 -35.94732,36.2951099 -42.84987,40.9734299 24.17445,-2.09649 44.34906,-27.4565699 46.04535,-38.4365099 2.86863,2.51688 5.3037,2.72358 4.28181,12.57825 1.1961,-1.85394 4.72464,-5.41937996 3.51993,-12.22353 -2.19315,-7.3519801 -4.81053,-7.3518301 -6.05652,-9.3482701 1.0506,-6.8115 -0.77754,-17.06916 -5.96496,-17.48205 z m 1.86462,14.53173 c -0.68082,-0.51516 -4.54101,-3.5889 -5.52417,-5.27763 0.72927,-1.80963 3.13692,-1.58598 4.38909,-0.66732 1.25202,0.91869 1.22271,5.79909 1.13508,5.94495 z"/><path d="m 69.286979,-115.36076 c 1.33806,0.59244 -1.77006,12.84048 2.84979,12.56235 4.27989,-0.63993 1.70136,-7.83135 1.38582,-11.46765 0.64389,-1.44087 1.34559,-2.47737 2.27835,-3.28293 0.96783,1.39554 1.34871,2.41848 2.25372,4.4625 -0.0354,1.55385 -1.09506,7.46931 2.62542,7.9911 3.70038,0.2904 0.45357,-7.38549 0.2469,-9.98121 0.63081,-2.39349 2.25093,-4.15326 2.25093,-4.15326 7.56369,20.987128 -1.64937,24.305458 -7.17399,18.35856 -2.77956,5.046268 -4.56051,4.732948 -5.89302,4.697488 -5.33937,-0.1416 -3.83232,-10.566958 -4.20882,-10.825468 -0.90618,0.50412 -1.49274,1.01325 -2.3721,2.08791 l -0.1656,-2.98266 z"/><path d="m -126.9582,-131.08973 -6.12576,16.21857 4.97895,16.996948 24.48285,160.35687 c -6.82578,9.27606 -43.41612,52.952192 -83.15469,49.900772 -62.88507,-4.82883 -33.66333,-76.986482 -34.40646,-83.673842 l -0.74907,-0.024 c -34.54536,77.061122 6.88488,102.645152 33.28038,103.500662 35.05083,1.13607 66.92226,-21.23883 86.55081,-50.687462 12.417569,-21.42915 0.42315,-76.6336799 -3.03036,-98.6202 -3.20601,-23.47167 -8.18544,-52.26921 -12.4923,-78.59874 3.51573,2.44992 7.3509,4.06557 7.3509,4.06557 v -5.13393 z"/><path d="m 184.09188,-90.687322 -7.17456,-6.69222 c 2.8719,19.95507 9.38301,63.60306 16.12278,105.5583901 1.10178,13.5659099 17.22297,77.8173299 0.64572,91.6243199 1.44762,-25.77609 -14.98284,-107.2581599 -19.78614,-144.69348 -0.80421,-6.72015 -7.91061,-56.458708 -12.10089,-70.580728 l 5.03061,-17.76966 17.26194,35.727568 z"/><path d="m 155.28681,-73.571392 -11.28645,-1.02066 c 21.77331,26.59389 34.90497,42.87264 67.16406,77.8314601 31.42365,34.0534499 37.98462,40.9706399 32.75673,69.9069599 -2.88264,-26.02884 -19.82574,-34.43352 -50.74422,-69.4297499 -4.2255,-5.13885 -43.05612,-46.0513801 -70.77453,-88.6311901 l 2.556,-18.161158 30.23382,25.885138 z"/><path d="m 301.50207,-88.469062 -7.1745,-6.69234 c 2.87193,19.95516 9.56826,62.76192 15.71859,104.8077001 7.54518,51.5822099 20.18199,99.7683319 7.44087,125.3878519 C 313.16391,95.221868 303.86592,43.567358 298.76013,6.1297881 297.95598,-0.59036186 283.56276,-97.905712 279.20901,-113.25287 l 5.03061,-17.76963 17.26197,35.727508 z"/><path d="m 411.92992,-88.429462 -7.17451,-6.69228 c 2.87188,19.95513 8.60123,63.42513 15.77631,105.67398 6.91451,40.71447 6.27825,55.46355 0.0544,74.91717 -4.85935,-34.74609 -13.23622,-88.4838899 -19.13721,-128.21742 -0.80418,-6.72012 -7.40064,-54.42498 -11.75436,-69.772138 l 4.74188,-18.9825 17.49291,36.247288 z"/><path d="m 247.73238,-89.115982 -6.94353,-6.37464 c 4.83549,33.0075 9.34803,62.80959 16.18062,104.7499201 3.39717,20.8531199 10.33983,64.9302599 -14.1537,91.2851719 -21.59076,23.23158 -49.23672,25.57416 -64.60104,25.96212 25.63593,-14.78682 71.96637,-37.000172 75.06999,-66.481082 -1.70562,-20.74785 -10.53705,-67.2087899 -15.80238,-103.83564 -0.80418,-6.72006 -7.57386,-52.54788 -11.69664,-68.934688 l 4.85742,-18.49164 17.08863,36.276208 z"/><path d="m 342.81564,-101.41763 -10.63293,-1.10226 c 30.62076,37.022728 62.51366,70.424398 94.34995,104.8388681 31.81938,32.9285999 39.97926,45.0255899 33.77866,70.5876599 1.52806,-23.74449 -49.35629,-63.9472499 -77.23686,-97.11822 -30.11687,-34.70571 -44.52641,-47.52162 -72.81653,-88.386238 l 2.06595,-17.83443 c 9.31167,5.56425 30.56052,25.23171 30.56052,25.23171 z"/><path d="m 342.9063,-6.4539519 c 11.23467,6.78840004 23.89191,25.4253299 9.79413,53.3123999 l -1.68624,0.0027 c 0.98367,-8.79972 7.57743,-25.40751 -8.16603,-38.8022699 z"/><path d="m 429.18211,-70.810612 c 11.23463,6.78843 23.89187,25.42545 9.79411,53.31243 l -1.68625,0.0028 c 0.98366,-8.79972 7.57742,-25.40754 -8.16605,-38.80224 z"/><path d="m -175.90035,-127.5095 c 11.23458,6.78831 23.89185,25.42533 9.7941,53.312368 l -1.68624,0.0026 c 0.98364,-8.79978 7.57743,-25.4076 -8.16606,-38.802268 z"/><path d="m 206.38266,-119.00516 c -1.86351,-1.60722 -9.92391,-0.42402 -12.70116,-1.12701 0.0864,-3.86253 1.08822,-8.11161 5.57964,-10.86093 6.5586,-1.88418 18.97224,2.03697 20.59845,4.24332 1.62618,2.20638 -4.58103,9.30663 -7.41261,11.00439 -9.80133,5.87664 -16.01865,6.68634 -19.13466,7.1529 -1.43223,-0.39501 -2.7828,-1.05558 -4.13337,-1.67529 8.07633,-2.04678 17.00904,-6.75849 17.20371,-8.73738 z"/><path d="m 263.90538,-119.35166 c -1.86354,-1.60728 -9.92391,-0.42405 -12.70116,-1.12704 0.0864,-3.86256 1.08822,-8.11158 5.57961,-10.86096 6.5586,-1.88412 18.97224,2.03697 20.59845,4.24335 1.62624,2.20635 -4.58106,9.30657 -7.41261,11.00436 -9.80127,5.87667 -16.01865,6.68637 -19.13463,7.15293 -1.43223,-0.39507 -2.78283,-1.05558 -4.13337,-1.67523 8.0763,-2.04687 17.00907,-6.75852 17.20371,-8.73741 z"/><path d="m 424.69182,-119.00516 c -1.86356,-1.60722 -9.92396,-0.42402 -12.70117,-1.12701 0.0866,-3.86253 1.0882,-8.11161 5.5796,-10.86093 6.55862,-1.88418 18.97225,2.03697 20.59844,4.24332 1.62621,2.20638 -4.58103,9.30663 -7.41261,11.00439 -9.80128,5.87664 -16.01864,6.68634 -19.13462,7.1529 -1.43224,-0.39501 -2.78283,-1.05558 -4.13339,-1.67529 8.07633,-2.04678 17.00908,-6.75849 17.20375,-8.73738 z"/><path d="m -226.29681,-2.5336719 c -1.8636,-1.60725 -9.92397,-0.42408 -12.70116,-1.12704 0.0864,-3.86259 1.08819,-8.1115801 5.57955,-10.8609601 6.55866,-1.88415 18.97227,2.037 20.59845,4.24335 1.62621,2.2063201 -4.58103,9.30657014 -7.41261,11.00433014 -9.80127,5.87663996 -16.01865,6.68636996 -19.1346,7.15292996 -1.43226,-0.39501 -2.78289,-1.05555 -4.13337,-1.67529 8.07627,-2.04678 17.00904,-6.75848996 17.20374,-8.73732 z"/><path d="m -107.45619,-134.27708 c 4.34916,6.73689 11.840009,16.25493 16.005569,23.72352 0.0579,1.96479 -0.1716,3.20478 -0.0795,5.02188 -7.38216,-4.2621 -2.01372,-1.21035 -6.55374,-3.69966 5.34858,10.576678 16.31097,34.377598 15.00561,49.271398 -1.72383,19.66812 -22.816259,34.32546 -43.515119,25.24812 -10.97616,-4.81353 -15.22164,-21.78435 -15.22164,-21.78435 0,0 -2.33583,8.76495 -4.72215,14.30523 -5.83443,13.54575 -31.8285,23.07207 -44.99661,8.32059 -18.36837,-20.57685 -4.06839,-47.20134 -8.33184,-57.55146 -15.27903,29.51961 -6.89736,63.13515 -26.66337,63.33246 -10.77417,-1.49958 -24.31509,-31.92633 -13.72557,-60.74472 -0.95034,20.52138 2.17542,43.74477 13.99374,44.25909 2.89413,0.126 4.55094,-2.48652 7.76235,-9.69744 6.91938,-17.5965 8.19219,-49.949428 29.55729,-60.121348 1.50663,9.58077 -0.0633,23.505178 -2.36529,36.187948 -3.11052,17.13777 5.06007,38.32362 26.44524,32.02911 3.96078,-1.1658 9.80958,-3.73584 17.92305,-18.35472 2.91258,-10.91559 -4.55907,-33.65892 -6.82824,-48.817708 1.33752,-3.38511 3.94488,-11.34282 5.74554,-14.18112 1.68387,1.62561 6.59508,11.01345 6.74439,12.76824 2.9022,16.179058 3.52008,52.623328 18.60624,62.968438 7.98933,5.47851 28.160789,1.2276 34.062719,-7.64205 -4.67343,-7.24356 -18.193259,-33.71535 -19.558349,-51.044788 -0.53574,-3.20934 -2.34954,-7.21608 -2.79033,-8.63091 z"/><path d="m 464.39983,-88.692112 -6.94348,-6.37467 c 4.83552,33.0075 9.34798,62.80962 16.18058,104.7499501 3.3972,20.8530899 11.09146,66.5744699 -14.43872,91.9265119 -20.16561,20.02482 -40.68529,23.65008 -65.52745,25.107 23.85441,-12.93363 73.24905,-37.214162 76.2814,-66.267332 -1.7056,-20.74785 -10.53704,-67.2087899 -15.80238,-103.83558 -0.80415,-6.72012 -7.57392,-52.54803 -11.69662,-68.934718 l 4.85738,-18.49167 17.08867,36.276238 z"/><path d="m 376.62017,-89.019052 -6.9435,-6.37464 c 4.83546,33.00741 8.93956,61.58436 15.77218,103.5246901 3.39722,20.8531499 9.51322,51.7150199 3.00792,68.4284699 -6.07098,15.59766 -10.60209,28.805972 -31.2543,30.076862 -31.64763,1.94757 -25.87551,-42.576272 -44.61558,-42.173732 -29.70048,0.63792 -39.13857,80.750912 -56.43504,82.077272 -22.61787,1.29858 -38.19591,-47.098082 -23.8596,-77.015702 -3.61899,31.414592 6.3267,57.226202 19.9764,57.594542 18.88227,0.50952 26.88354,-83.360282 65.39106,-82.163852 18.31545,0.56904 12.09675,42.14718 40.96953,43.03494 12.54717,0.38586 22.46825,-8.41713 23.61093,-16.71129 -1.70564,-20.74788 -10.6864,-75.0982199 -15.95177,-111.72498 -0.8042,-6.72012 -7.49224,-55.81506 -11.61499,-72.201808 l 4.85742,-18.49158 17.08867,36.276238 z"/><path d="m -13.597981,-130.27103 c -2.2656,-0.1188 -5.85279,6.41061 -5.45247,8.92719 0.42327,2.66076 1.011,2.91396 3.08289,3.67362 -15.82884,15.52977 -22.30617,14.29671 -38.31915,19.559818 29.26599,2.47974 37.5243,-12.665728 41.4531,-18.118138 2.52141,1.37946 7.8363896,1.9248 8.6932796,1.33185 1.83255,-1.81245 2.80911,-4.10154 2.66361,-6.53028 -0.56904,-1.82841 -4.27374,-8.37561 -6.59712,-9.23508 0.2931,-2.07492 -5.0468096,-5.32521 -6.4187396,-3.49785 -0.52953,0.74685 1.37892,2.44872 0.89469,3.88827 z m 2.97498,4.08144 c 0.44382,1.46667 0.1044,2.98287 -0.78795,3.68319 -6.86433,-0.65487 -3.08271,-5.25948 0.78795,-3.68319 z m 2.3153096,2.30208 c 1.55823,0.54804 2.57736,2.59452 3.66588,3.93378 -2.74425,-0.009 -3.1968,-0.0828 -4.55904,-0.71718 0.012,-1.13016 0.36012,-2.24442 0.89316,-3.21663 z"/><path d="m 131.24976,-54.825622 c -1.93062,-0.1536 -4.43349,3.30639 -5.69979,7.46319 -1.40214,4.60278 -1.83948,7.2867 6.53637,12.1182 1.5147,6.64452 -22.76628,23.6298 -30.89217,28.8343801 22.69662,-4.2996301 30.24183,-16.4893801 33.50577,-26.7591901 2.34648,2.05872 4.33833,2.22786 3.50241,10.2888 0.97839,-1.5165 3.86466,-4.43298 2.87928,-9.99873 -1.79394,-6.0138 -3.93495,-6.01365 -4.9542,-7.64664 0.85944,-5.57175 -0.63591,-13.9623 -4.8792,-14.30001 z m 1.5252,11.88666 c -0.55692,-0.42135 -3.71448,-2.93565 -4.51869,-4.31697 0.59655,-1.48029 2.56599,-1.29735 3.59019,-0.54591 1.02414,0.75144 1.00011,4.74357 0.9285,4.86288 z"/><path d="m 77.048489,0.08445814 c 1.2012,1.21781996 -2.08575,15.12989986 3.35778,14.80220986 5.04309,-0.75405 2.00472,-9.2276699 1.63287,-13.5123299 0.75876,-1.69772996 1.58556,-2.91915 2.68461,-3.86829 1.14057,1.64439004 1.58925,2.84973004 2.65557,5.25807 -0.0411,1.83099 -1.29024,8.8012199 3.09348,9.4159799 4.36026,0.34263 0.5346,-8.7023099 0.2904,-11.76074986 0.74322,-2.82030004 2.91225,-5.06709004 2.91225,-5.06709004 8.912131,24.7290899 -2.03016,29.1299099 -8.5398,22.1227199 -3.27516,5.946 -5.37363,5.57679 -6.94374,5.53506 -6.29142,-0.1668 -4.68885,-12.7686 -5.13258,-13.0733699 -1.06776,0.5941199 -1.81659,1.5693899 -2.85276,2.8356899 l 0.1512,-4.4096999 z"/><path d="m 200.62365,-79.594702 c 1.20129,1.21788 -2.08566,15.12993 3.35781,14.80224 5.04303,-0.75402 2.00472,-9.22773 1.63284,-13.51239 0.75876,-1.69776 1.58565,-2.91909 2.68467,-3.86823 1.14045,1.64436 1.58925,2.84976 2.65557,5.2581 -0.0411,1.83093 -1.2903,8.80113 3.09339,9.41595 4.36029,0.34266 0.53463,-8.70234 0.2904,-11.76084 0.74328,-2.82021 2.91219,-5.06706 2.91219,-5.06706 8.91222,24.72915 -2.03019,29.12991 -8.53968,22.12281 -3.27516,5.94597 -5.37372,5.57676 -6.94383,5.53506 -6.29142,-0.1671 -4.68882,-12.7686 -5.13261,-13.0734 -1.06773,0.59412 -1.8165,1.56939 -2.85261,2.83572 l 0.1512,-4.4097 z"/><path d="m -57.511141,-91.889242 -7.17453,-6.69222 c 2.8719,19.95504 9.38301,63.60306 16.12275,105.5583901 1.10178,13.5659099 17.22297,77.8173299 0.64572,91.6242899 1.44765,-25.77606 -14.98281,-107.2581299 -19.78614,-144.69348 -0.80418,-6.72012 -7.91058,-56.458678 -12.10089,-70.580698 l 5.03064,-17.76966 17.26191,35.727568 z"/><path d="m 92.635709,-134.28407 c 4.34919,6.73689 11.840011,16.2549 16.005571,23.72352 0.0579,1.96476 -0.1716,3.20478 -0.0798,5.02185 -7.38216,-4.26207 -2.01369,-1.21032 -6.55371,-3.69963 5.34858,10.576648 16.31097,34.377568 15.00561,49.271398 -1.72386,19.66812 -22.816291,34.32546 -43.515151,25.24812 -10.97613,-4.81353 -15.22161,-21.78435 -15.22161,-21.78435 0,0 -2.33586,8.76495 -4.72215,14.30523 -5.83446,13.54575 -31.82853,23.07204 -44.9966404,8.32059 -18.36837,-20.57685 -4.06836,-47.20137 -8.33181005,-57.55149 -15.27902955,29.51964 -6.89738995,63.13518 -26.66339955,63.33249 -10.77414,-1.49961 -24.25605,-29.24877 -13.524,-63.76815 -0.95031,20.52141 1.97385,46.7682 13.79217,47.28252 2.89416,0.126 4.55094,-2.48652 7.76235,-9.69744 6.91938,-17.5965 8.19219,-49.949458 29.55729,-60.121348 1.50663,9.58077 -0.0633,23.505178 -2.3652604,36.187918 -3.11052,17.1378 5.0600704,38.32365 26.4452104,32.02914 3.96081,-1.1658 9.80958,-3.73587 17.92305,-18.35475 2.91258,-10.91556 -4.55907,-33.65892 -6.82821,-48.817708 1.33752,-3.38511 3.94485,-11.34279 5.74551,-14.18109 1.68387,1.62558 6.59508,11.01345 6.74442,12.76824 2.90217,16.179028 3.52005,52.623328 18.60621,62.968438 7.98933,5.47848 28.160821,1.2276 34.062751,-7.64205 -4.67343,-7.24356 -18.193291,-33.71538 -19.558381,-51.044788 -0.53571,-3.20934 -2.34951,-7.21608 -2.7903,-8.63091 z"/><path d="M 163.79082,45.752138 C 147.03855,43.883648 169.33011,6.8245281 178.52403,5.9554581 164.90355,21.818738 165.71637,27.566348 165.76287,29.694428 c 0.0537,2.43645 2.80674,5.92599 6.3714,2.1945 l 1.31148,0.87399 c -0.2904,1.23441 -3.20958,13.70811 -9.65493,12.98922 z"/><path d="m 217.68906,-6.9287319 c -16.75227,-1.86849 5.53929,-38.9276101 14.73321,-39.7966801 -13.62048,15.86328 -12.80766,21.61089 -12.76116,23.73897 0.0537,2.43645 2.80674,5.92599 6.3714,2.1945 l 1.31148,0.87399 c -0.2904,1.23441 -3.20958,13.7081101 -9.65493,12.9892201 z"/><path d="m 263.9931,-25.219372 c -20.15067,-2.24751 6.663,-46.82448 17.72196,-47.86986 -16.38351,19.08129 -15.40578,25.99488 -15.34989,28.55466 0.0648,2.93073 3.37614,7.12815 7.66392,2.6397 l 1.57752,1.05129 c -0.34929,1.48482 -3.86067,16.48893 -11.61351,15.62421 z"/><path d="m 275.20719,50.399468 c -20.15067,-2.24751 6.663,-46.8244799 17.72196,-47.8698599 -16.38351,19.0812899 -15.40578,25.9948799 -15.34989,28.5546599 0.0648,2.93073 3.37614,7.12815 7.66392,2.6397 l 1.57752,1.05129 c -0.34929,1.48482 -3.86067,16.48893 -11.61351,15.62421 z"/><path d="m 323.29254,-13.003912 c -20.15067,-2.24751 6.663,-46.82448 17.72196,-47.86986 -16.38351,19.08129 -15.40578,25.99488 -15.34989,28.55466 0.0648,2.93073 3.37614,7.12815 7.66392,2.6397 l 1.57752,1.05129 c -0.34929,1.48482 -3.86067,16.48893 -11.61351,15.62421 z"/><path d="m 290.21793,136.73386 c -20.15067,-2.24751 6.663,-46.824482 17.72196,-47.869862 -16.38351,19.081292 -15.40578,25.994882 -15.34989,28.554662 0.0648,2.93073 3.37614,7.12815 7.66392,2.6397 l 1.57752,1.05129 c -0.34929,1.48482 -3.86067,16.48893 -11.61351,15.62421 z"/><path d="m -18.077461,72.789638 c -20.15067,-2.24751 6.663,-46.82448 17.72195955,-47.86986 -16.38350955,19.08129 -15.40577955,25.99488 -15.34988955,28.55466 0.0648,2.93073 3.37614,7.12815 7.6639196,2.6397 l 1.57752,1.05129 c -0.34929,1.48482 -3.8606696,16.48893 -11.6135096,15.62421 z"/><path d="m 58.973549,140.51791 c -16.75227,-1.86849 5.53929,-38.92761 14.73321,-39.79668 -13.62048,15.86328 -12.80766,21.61089 -12.76116,23.73897 0.0537,2.43645 2.80674,5.92599 6.3714,2.1945 l 1.31148,0.87399 c -0.2904,1.23441 -3.20958,13.70811 -9.65493,12.98922 z"/><path d="m -117.02343,141.52018 c -16.75227,-1.86849 5.53929,-38.92761 14.73321,-39.79668 -13.62048,15.86328 -12.80766,21.61089 -12.76116,23.73897 0.0537,2.43645 2.80674,5.92599 6.3714,2.1945 l 1.31148,0.87399 c -0.2904,1.23441 -3.20958,13.70811 -9.65493,12.98922 z"/><path d="m -83.925331,107.23186 c -22.907369,-2.55498 7.57449,-53.230352 20.14641,-54.418712 -18.62484,21.69177 -17.5134,29.55114 -17.4498,32.46111 0.0732,3.33162 3.83796,8.10327 8.71233,3.00078 l 1.7934,1.19511 c -0.39711,1.68795 -4.38888,18.744722 -13.20234,17.761712 z"/></g></g></svg>