<svg width="447" height="50" viewBox="0 0 447 50" fill="none" xmlns="http://www.w3.org/2000/svg">
  <g clip-path="url(#clip0_1309_13655)">
    <path
      d="M108.168 49V1.4H113.608L115.988 10.376V49H108.168ZM141.148 49L112.656 11.804L113.608 1.4L142.1 38.596L141.148 49ZM141.148 49L138.768 40.636V1.4H146.588V49H141.148ZM160.922 49V41.86H173.434C176.698 41.86 179.554 41.1573 182.002 39.752C184.496 38.3467 186.422 36.3973 187.782 33.904C189.188 31.3653 189.89 28.4413 189.89 25.132C189.89 21.868 189.188 18.9893 187.782 16.496C186.377 14.0027 184.428 12.0533 181.934 10.648C179.486 9.24267 176.653 8.54 173.434 8.54H160.922V1.4H173.638C177.084 1.4 180.28 2.012 183.226 3.236C186.173 4.41467 188.734 6.092 190.91 8.268C193.132 10.3987 194.854 12.9147 196.078 15.816C197.302 18.672 197.914 21.8 197.914 25.2C197.914 28.5547 197.302 31.6827 196.078 34.584C194.854 37.4853 193.154 40.024 190.978 42.2C188.802 44.3307 186.241 46.008 183.294 47.232C180.348 48.4107 177.174 49 173.774 49H160.922ZM155.55 49V1.4H163.37V49H155.55ZM204.526 49V1.4H212.346V49H204.526ZM209.898 49V41.86H236.554V49H209.898ZM209.898 28.124V21.256H234.242V28.124H209.898ZM209.898 8.54V1.4H236.214V8.54H209.898ZM248.647 28.804V22.344H260.683C263.086 22.344 264.945 21.732 266.26 20.508C267.62 19.2387 268.3 17.4933 268.3 15.272C268.3 13.2773 267.642 11.6 266.327 10.24C265.013 8.88 263.154 8.2 260.751 8.2H248.647V1.4H261.092C264.083 1.4 266.713 2.012 268.979 3.236C271.246 4.41467 272.991 6.04667 274.215 8.132C275.485 10.172 276.119 12.5067 276.119 15.136C276.119 17.9013 275.485 20.304 274.215 22.344C272.991 24.384 271.246 25.9707 268.979 27.104C266.713 28.2373 264.083 28.804 261.092 28.804H248.647ZM243.275 49V1.4H251.095V49H243.275ZM269.387 49L252.727 28.328L260.003 25.676L279.247 49H269.387ZM295.062 49L279.422 1.4H287.106L298.87 38.052H296.83L308.322 1.4H313.762L325.254 38.052H323.214L334.978 1.4H342.662L327.022 49H321.582L310.022 12.416H312.062L300.502 49H295.062Z"
      fill="white" />
    <path
      d="M16.408 49L0.768 1.4H8.452L20.216 38.052H18.176L29.668 1.4H35.108L46.6 38.052H44.56L56.324 1.4H64.008L48.368 49H42.928L31.368 12.416H33.408L21.848 49H16.408Z"
      fill="white" />
    <path
      d="M392.06 29.96L373.496 1.4H382.54L397.024 24.18H392.808L407.292 1.4H416.2L397.5 29.96H392.06ZM390.972 49V25.064H398.792V49H390.972ZM430.107 49.68C426.344 49.68 423.148 49 420.519 47.64C417.89 46.28 415.532 44.2853 413.447 41.656L418.751 36.352C420.066 38.256 421.63 39.752 423.443 40.84C425.256 41.8827 427.568 42.404 430.379 42.404C433.008 42.404 435.094 41.86 436.635 40.772C438.222 39.684 439.015 38.188 439.015 36.284C439.015 34.6973 438.607 33.4053 437.791 32.408C436.975 31.4107 435.887 30.5947 434.527 29.96C433.212 29.28 431.739 28.6907 430.107 28.192C428.52 27.648 426.911 27.0587 425.279 26.424C423.692 25.744 422.219 24.9053 420.859 23.908C419.544 22.9107 418.479 21.6187 417.663 20.032C416.847 18.4453 416.439 16.428 416.439 13.98C416.439 11.1693 417.119 8.78933 418.479 6.84C419.884 4.84533 421.766 3.32666 424.123 2.284C426.48 1.24133 429.11 0.719997 432.011 0.719997C435.139 0.719997 437.927 1.332 440.375 2.556C442.868 3.78 444.886 5.344 446.427 7.248L441.123 12.552C439.763 11.0107 438.335 9.87733 436.839 9.152C435.388 8.38133 433.711 7.996 431.807 7.996C429.45 7.996 427.591 8.472 426.231 9.424C424.916 10.376 424.259 11.7133 424.259 13.436C424.259 14.8867 424.667 16.0653 425.483 16.972C426.299 17.8333 427.364 18.5813 428.679 19.216C430.039 19.8053 431.512 20.372 433.099 20.916C434.731 21.46 436.34 22.072 437.927 22.752C439.559 23.432 441.032 24.316 442.347 25.404C443.707 26.4467 444.795 27.8067 445.611 29.484C446.427 31.1613 446.835 33.2693 446.835 35.808C446.835 40.0693 445.316 43.4467 442.279 45.94C439.287 48.4333 435.23 49.68 430.107 49.68Z"
      fill="white" />
    <path d="M78.5 2L59 49.5H67L81 14.5L95 49.5H103L83.5 2H78.5Z" fill="white" />
    <path
      d="M71.5 38L76 26.5C76.6667 26.3333 78.6 26 81 26C83.4 26 85.3333 26.3333 86 26.5L90.5 38C89.3333 36.6667 85.8 34 81 34C76.2 34 72.6667 36.6667 71.5 38Z"
      fill="white" />
    <path d="M357.5 2L338 49.5H346L360 14.5L374 49.5H382L362.5 2H357.5Z" fill="white" />
    <path
      d="M350.5 38L355 26.5C355.667 26.3333 357.6 26 360 26C362.4 26 364.333 26.3333 365 26.5L369.5 38C368.333 36.6667 364.8 34 360 34C355.2 34 351.667 36.6667 350.5 38Z"
      fill="white" />
  </g>
  <defs>
    <clipPath id="clip0_1309_13655">
      <rect width="447" height="50" fill="white" />
    </clipPath>
  </defs>
</svg>
