<?xml version="1.0" encoding="UTF-8" standalone="no"?>
<!-- Generator: Adobe Illustrator 25.0.1, SVG Export Plug-In . SVG Version: 6.00 Build 0)  -->

<svg version="1.1" x="0px" y="0px" viewBox="0 0 250 241.60001" xml:space="preserve"
  width="250" height="241.60001" xmlns="http://www.w3.org/2000/svg"
  xmlns:svg="http://www.w3.org/2000/svg">
  <style type="text/css">
	.white{fill:#FFFFFF;}
	.yellow{fill:#F7CB47;}
</style>
  <linearGradient id="myGradient" gradientUnits="userSpaceOnUse" x1="128.84081" y1="132.0385" x2="292.26431" y2="294.6712" gradientTransform="matrix(1,0,0,-1,0,433)">
    <stop offset="0.0379" style="stop-color:#F7CB47" />
    <stop offset="0.214" style="stop-color:#F4C362" />
    <stop offset="0.7613" style="stop-color:#EBABA9" />
    <stop offset="1" style="stop-color:#E7A2C2" />
  </linearGradient>

  <path style="fill:url(#myGradient)" d="m 165.89,0 c 41.09,14.48 72.26,49.92 80.76,93.46 C 241.06,82.33 210.85,25.39 165.89,0 Z"/>
  <path style="fill:url(#myGradient)" d="m 248.95,117.45 c 0,9.4 -1.04,18.54 -3.01,27.35 -1.05,-7.01 -4.86,-25.85 -17.39,-46.28 -10.15,-16.57 -36.52,-48.37 -69.2,-74.61 2.74,-6.16 4.68,-12.13 6.08,-17.33 43.33,31.93 74.23,82.03 82.7,96.64 0,0.01 0,0.01 0,0.01 0.55,4.66 0.82,9.41 0.82,14.22 z"/>
  <path style="fill:url(#myGradient)" d="m 236.96,135.76 c 4.35,19.26 -0.45,35.45 -0.88,36.85 -0.01,0.07 -0.02,0.09 -0.02,0.09 -3.92,7.9 -8.64,15.31 -14.07,22.14 2.64,-7.46 10.63,-39.51 -25.53,-84.47 -16.31,-20.29 -37.77,-39.9 -58.48,-56.66 7.44,-6.37 13.11,-14.02 17.42,-21.79 44.14,36.65 77.66,86.63 81.56,103.84 z"/>
  <path style="fill:url(#myGradient)" d="m 194.94,131.04 c 18.49,32.2 30.36,40.2 12.48,79.26 -7.01,6.28 -14.76,11.78 -23.07,16.34 5.84,-6.43 18.11,-24.8 3.6,-54.41 -10.36,-21.12 -53.69,-66.25 -94.93,-102.65 14.26,-0.09 25.84,-3.57 35.27,-9.01 27.03,23.15 54.82,49.82 66.65,70.47 z"/>
  <path style="fill:url(#myGradient)" d="m 150.46,239.25 c -0.23,0.05 -0.35,0.08 -0.35,0.08 -5.25,1.1 -10.65,1.88 -16.13,2.28 3.92,-0.63 37.2,-7.3 12.34,-53.77 -19.01,-35.55 -74.51,-79.72 -116.8,-105.5 9.34,-7.6 20.43,-12.8 33.57,-14.05 26.84,19.15 61.41,47.37 92.38,83.67 59.31,69.51 0.17,86 -5.01,87.29 z"/>
  <path style="fill:url(#myGradient)" d="m 142.6,220.56 c -0.16,24.03 -47.37,17.74 -49.54,17.44 -0.06,-0.01 -0.08,-0.01 -0.08,-0.01 -8.9,-2.31 -17.39,-5.59 -25.4,-9.7 1.48,0.47 37.07,11.86 45.9,-0.02 C 122.5,216.13 69.53,139.34 0.03,123.76 0.02,123.56 0,123.34 0,123.14 c 3.41,-7.42 7.4,-14.75 12.06,-21.52 80.98,23.52 130.7,95.36 130.54,118.94 z"/>
  <path class="yellow" d="m 97.12,226.02 c -13.77,8.42 -35.17,-1.64 -46.46,-8.22 -0.01,-0.01 -0.03,-0.01 -0.04,-0.03 -4.33,-3.18 -8.43,-6.63 -12.29,-10.35 2.59,1.77 39.95,27.1 39.95,7.95 0,-12.54 -37.87,-31.1 -65.69,-43.06 -5.13,-10.42 -8.83,-21.66 -10.87,-33.46 58.51,20.37 114.4,75.54 95.4,87.17 z" />
</svg>
