<svg width="548" height="80" viewBox="0 0 548 80" fill="none" xmlns="http://www.w3.org/2000/svg">
  <g clip-path="url(#clip0_1326_13561)">
    <path
      d="M209.168 66.8477V19.2477H214.608L216.988 28.2237V66.8477H209.168ZM242.148 66.8477L213.656 29.6517L214.608 19.2477L243.1 56.4437L242.148 66.8477ZM242.148 66.8477L239.768 58.4837V19.2477H247.588V66.8477H242.148ZM261.922 66.8477V59.7077H274.434C277.698 59.7077 280.554 59.005 283.002 57.5997C285.496 56.1943 287.422 54.245 288.782 51.7517C290.188 49.213 290.89 46.289 290.89 42.9797C290.89 39.7157 290.188 36.837 288.782 34.3437C287.377 31.8503 285.428 29.901 282.934 28.4957C280.486 27.0903 277.653 26.3877 274.434 26.3877H261.922V19.2477H274.638C278.084 19.2477 281.28 19.8597 284.226 21.0837C287.173 22.2623 289.734 23.9397 291.91 26.1157C294.132 28.2463 295.854 30.7623 297.078 33.6637C298.302 36.5197 298.914 39.6477 298.914 43.0477C298.914 46.4023 298.302 49.5303 297.078 52.4317C295.854 55.333 294.154 57.8717 291.978 60.0477C289.802 62.1783 287.241 63.8557 284.294 65.0797C281.348 66.2583 278.174 66.8477 274.774 66.8477H261.922ZM256.55 66.8477V19.2477H264.37V66.8477H256.55ZM305.526 66.8477V19.2477H313.346V66.8477H305.526ZM310.898 66.8477V59.7077H337.554V66.8477H310.898ZM310.898 45.9717V39.1037H335.242V45.9717H310.898ZM310.898 26.3877V19.2477H337.214V26.3877H310.898ZM349.647 46.6517V40.1917H361.683C364.086 40.1917 365.945 39.5797 367.26 38.3557C368.62 37.0863 369.3 35.341 369.3 33.1197C369.3 31.125 368.642 29.4477 367.327 28.0877C366.013 26.7277 364.154 26.0477 361.751 26.0477H349.647V19.2477H362.092C365.083 19.2477 367.713 19.8597 369.979 21.0837C372.246 22.2623 373.991 23.8943 375.215 25.9797C376.485 28.0197 377.119 30.3543 377.119 32.9837C377.119 35.749 376.485 38.1517 375.215 40.1917C373.991 42.2317 372.246 43.8183 369.979 44.9517C367.713 46.085 365.083 46.6517 362.092 46.6517H349.647ZM344.275 66.8477V19.2477H352.095V66.8477H344.275ZM370.387 66.8477L353.727 46.1757L361.003 43.5237L380.247 66.8477H370.387ZM396.062 66.8477L380.422 19.2477H388.106L399.87 55.8997H397.83L409.322 19.2477H414.762L426.254 55.8997H424.214L435.978 19.2477H443.662L428.022 66.8477H422.582L411.022 30.2637H413.062L401.502 66.8477H396.062Z"
      fill="white" />
    <path
      d="M117.408 66.8477L101.768 19.2477H109.452L121.216 55.8997H119.176L130.668 19.2477H136.108L147.6 55.8997H145.56L157.324 19.2477H165.008L149.368 66.8477H143.928L132.368 30.2637H134.408L122.848 66.8477H117.408Z"
      fill="white" />
    <path
      d="M493.06 47.8077L474.496 19.2477H483.54L498.024 42.0277H493.808L508.292 19.2477H517.2L498.5 47.8077H493.06ZM491.972 66.8477V42.9117H499.792V66.8477H491.972ZM531.107 67.5277C527.344 67.5277 524.148 66.8477 521.519 65.4877C518.89 64.1277 516.532 62.133 514.447 59.5037L519.751 54.1997C521.066 56.1037 522.63 57.5997 524.443 58.6877C526.256 59.7303 528.568 60.2517 531.379 60.2517C534.008 60.2517 536.094 59.7077 537.635 58.6197C539.222 57.5317 540.015 56.0357 540.015 54.1317C540.015 52.545 539.607 51.253 538.791 50.2557C537.975 49.2583 536.887 48.4423 535.527 47.8077C534.212 47.1277 532.739 46.5383 531.107 46.0397C529.52 45.4957 527.911 44.9063 526.279 44.2717C524.692 43.5917 523.219 42.753 521.859 41.7557C520.544 40.7583 519.479 39.4663 518.663 37.8797C517.847 36.293 517.439 34.2757 517.439 31.8277C517.439 29.017 518.119 26.637 519.479 24.6877C520.884 22.693 522.766 21.1743 525.123 20.1317C527.48 19.089 530.11 18.5677 533.011 18.5677C536.139 18.5677 538.927 19.1797 541.375 20.4037C543.868 21.6277 545.886 23.1917 547.427 25.0957L542.123 30.3997C540.763 28.8583 539.335 27.725 537.839 26.9997C536.388 26.229 534.711 25.8437 532.807 25.8437C530.45 25.8437 528.591 26.3197 527.231 27.2717C525.916 28.2237 525.259 29.561 525.259 31.2837C525.259 32.7343 525.667 33.913 526.483 34.8197C527.299 35.681 528.364 36.429 529.679 37.0637C531.039 37.653 532.512 38.2197 534.099 38.7637C535.731 39.3077 537.34 39.9197 538.927 40.5997C540.559 41.2797 542.032 42.1637 543.347 43.2517C544.707 44.2943 545.795 45.6543 546.611 47.3317C547.427 49.009 547.835 51.117 547.835 53.6557C547.835 57.917 546.316 61.2943 543.279 63.7877C540.287 66.281 536.23 67.5277 531.107 67.5277Z"
      fill="white" />
    <path d="M179.5 19.8477L160 67.3477H168L182 32.3477L196 67.3477H204L184.5 19.8477H179.5Z"
      fill="white" />
    <path
      d="M172.5 55.8477L177 44.3477C177.667 44.181 179.6 43.8477 182 43.8477C184.4 43.8477 186.333 44.181 187 44.3477L191.5 55.8477C190.333 54.5143 186.8 51.8477 182 51.8477C177.2 51.8477 173.667 54.5143 172.5 55.8477Z"
      fill="white" />
    <path d="M458.5 19.8477L439 67.3477H447L461 32.3477L475 67.3477H483L463.5 19.8477H458.5Z"
      fill="white" />
    <path
      d="M451.5 55.8477L456 44.3477C456.667 44.181 458.6 43.8477 461 43.8477C463.4 43.8477 465.333 44.181 466 44.3477L470.5 55.8477C469.333 54.5143 465.8 51.8477 461 51.8477C456.2 51.8477 452.667 54.5143 451.5 55.8477Z"
      fill="white" />
    <path
      d="M54.7725 0C68.3394 4.78095 78.631 16.4824 81.4375 30.8583C79.5918 27.1834 69.6172 8.38318 54.7725 0Z"
      fill="url(#paint0_linear_1326_13561)" />
    <path
      d="M82.1971 38.7795C82.1971 41.8831 81.8537 44.901 81.2032 47.8098C80.8566 45.4953 79.5986 39.2748 75.4615 32.5293C72.1102 27.0582 63.4034 16.5586 52.6133 7.89481C53.518 5.86092 54.1585 3.88977 54.6207 2.17285C68.9273 12.7154 79.1297 29.2572 81.9263 34.0811C81.9263 34.0844 81.9263 34.0844 81.9263 34.0844C82.1079 35.623 82.1971 37.1913 82.1971 38.7795Z"
      fill="url(#paint1_linear_1326_13561)" />
    <path
      d="M78.2375 44.8246C79.6738 51.1838 78.0889 56.5293 77.9469 56.9916C77.9436 57.0147 77.9403 57.0213 77.9403 57.0213C76.646 59.6297 75.0876 62.0763 73.2948 64.3314C74.1664 61.8683 76.8045 51.2861 64.8654 36.4414C59.4802 29.7421 52.3946 23.2674 45.5566 17.7336C48.0132 15.6304 49.8853 13.1045 51.3083 10.5391C65.8823 22.64 76.9498 39.1422 78.2375 44.8246Z"
      fill="url(#paint2_linear_1326_13561)" />
    <path
      d="M64.3645 43.2665C70.4694 53.8982 74.3886 56.5396 68.4851 69.4363C66.1705 71.5098 63.6117 73.3258 60.8679 74.8314C62.7961 72.7084 66.8474 66.643 62.0565 56.8665C58.6359 49.8932 44.3294 34.9923 30.7129 22.9739C35.4212 22.9442 39.2446 21.7952 42.3582 19.999C51.2829 27.6426 60.4585 36.4484 64.3645 43.2665Z"
      fill="url(#paint3_linear_1326_13561)" />
    <path
      d="M49.6786 78.9948C49.6026 79.0113 49.563 79.0212 49.563 79.0212C47.8296 79.3844 46.0466 79.6419 44.2373 79.774C45.5316 79.566 56.5198 77.3637 48.3117 62.0204C42.035 50.2827 23.7102 35.6988 9.74707 27.1868C12.8309 24.6775 16.4926 22.9606 20.8311 22.5479C29.693 28.8707 41.1072 38.1883 51.3328 50.1737C70.9155 73.1243 51.3889 78.5689 49.6786 78.9948Z"
      fill="url(#paint4_linear_1326_13561)" />
    <path
      d="M47.0831 72.8229C47.0303 80.7571 31.4427 78.6803 30.7262 78.5812C30.7064 78.5779 30.6998 78.5779 30.6998 78.5779C27.7612 77.8152 24.958 76.7322 22.3133 75.3752C22.802 75.5304 34.553 79.2911 37.4684 75.3686C40.4466 71.3602 22.9572 46.006 0.00990529 40.8619C0.00660353 40.7958 0 40.7232 0 40.6572C1.1259 38.2072 2.44331 35.7871 3.98193 33.5518C30.7196 41.3175 47.136 65.0374 47.0831 72.8229Z"
      fill="url(#paint5_linear_1326_13561)" />
    <path
      d="M32.0662 74.6272C27.5197 77.4073 20.4539 74.0857 16.7262 71.9131C16.7229 71.9098 16.7163 71.9098 16.713 71.9032C15.2833 70.8533 13.9296 69.7141 12.6551 68.4859C13.5103 69.0703 25.8457 77.4337 25.8457 71.1108C25.8457 66.9704 13.3419 60.8423 4.1564 56.8934C2.46259 53.453 1.24094 49.7418 0.567383 45.8457C19.886 52.5714 38.3395 70.7872 32.0662 74.6272Z"
      fill="#F7CB47" />
  </g>
  <defs>
    <linearGradient id="paint0_linear_1326_13561" x1="42.5397" y1="99.3704" x2="96.4983"
      y2="45.6729" gradientUnits="userSpaceOnUse">
      <stop offset="0.0379" stop-color="#F7CB47" />
      <stop offset="0.214" stop-color="#F4C362" />
      <stop offset="0.7613" stop-color="#EBABA9" />
      <stop offset="1" stop-color="#E7A2C2" />
    </linearGradient>
    <linearGradient id="paint1_linear_1326_13561" x1="42.5399" y1="99.3706" x2="96.4984"
      y2="45.6732" gradientUnits="userSpaceOnUse">
      <stop offset="0.0379" stop-color="#F7CB47" />
      <stop offset="0.214" stop-color="#F4C362" />
      <stop offset="0.7613" stop-color="#EBABA9" />
      <stop offset="1" stop-color="#E7A2C2" />
    </linearGradient>
    <linearGradient id="paint2_linear_1326_13561" x1="42.5391" y1="99.3702" x2="96.4977"
      y2="45.6727" gradientUnits="userSpaceOnUse">
      <stop offset="0.0379" stop-color="#F7CB47" />
      <stop offset="0.214" stop-color="#F4C362" />
      <stop offset="0.7613" stop-color="#EBABA9" />
      <stop offset="1" stop-color="#E7A2C2" />
    </linearGradient>
    <linearGradient id="paint3_linear_1326_13561" x1="42.5401" y1="99.3706" x2="96.4987"
      y2="45.6731" gradientUnits="userSpaceOnUse">
      <stop offset="0.0379" stop-color="#F7CB47" />
      <stop offset="0.214" stop-color="#F4C362" />
      <stop offset="0.7613" stop-color="#EBABA9" />
      <stop offset="1" stop-color="#E7A2C2" />
    </linearGradient>
    <linearGradient id="paint4_linear_1326_13561" x1="42.5404" y1="99.3705" x2="96.499" y2="45.673"
      gradientUnits="userSpaceOnUse">
      <stop offset="0.0379" stop-color="#F7CB47" />
      <stop offset="0.214" stop-color="#F4C362" />
      <stop offset="0.7613" stop-color="#EBABA9" />
      <stop offset="1" stop-color="#E7A2C2" />
    </linearGradient>
    <linearGradient id="paint5_linear_1326_13561" x1="42.5402" y1="99.3696" x2="96.4988"
      y2="45.6721" gradientUnits="userSpaceOnUse">
      <stop offset="0.0379" stop-color="#F7CB47" />
      <stop offset="0.214" stop-color="#F4C362" />
      <stop offset="0.7613" stop-color="#EBABA9" />
      <stop offset="1" stop-color="#E7A2C2" />
    </linearGradient>
    <clipPath id="clip0_1326_13561">
      <rect width="548" height="80" fill="white" />
    </clipPath>
  </defs>
</svg>
