<svg xmlns="http://www.w3.org/2000/svg" version="1.1" width="1181pt" height="1087pt" viewBox="0 0 1181 1087">
	<rect y="1.7053e-13" width="1181" height="1087" fill="#ffffff"/>
	<g transform="translate(0 1087) scale(.1 -.1)" fill="#e30613">
		<path d="m0 5435v-5435h5905 5905v5435 5435h-5905-5905v-5435zm6125 4181c282-10 618-65 918-151 922-264 1712-837 2280-1651 31-45 57-87 57-93 0-8-45-11-144-11h-144l-46 65c-127 176-375 452-538 597l-70 62-171-43c-306-75-643-136-979-177-76-10-138-21-138-24 0-4 14-52 31-106 39-129 99-345 99-361 0-10-31-13-125-13h-124l-17 58c-8 31-25 89-35 127-32 110-81 259-89 268-4 5-70 4-146-2-75-6-288-16-472-23-353-12-850-1-1182 27-85 7-158 10-162 6-8-8-80-233-114-360l-27-101h-123c-113 0-124 2-124 18 0 22 57 234 100 371 17 52 27 98 22 102-4 3-54 12-112 18-273 31-669 104-972 178l-187 46-53-45c-161-138-420-422-553-605l-60-83h-147c-82 0-148 3-148 6 0 13 160 235 250 349 384 481 854 859 1410 1134 424 210 838 333 1325 396 123 16 449 33 525 28 19-1 103-5 185-7zm-470-2287c156-19 244-23 663-26l482-4v-540-539h-430-429l-3 117-3 118-60 24c-172 68-403 105-660 106-253 0-367-22-476-95-112-73-128-222-35-314 97-98 216-129 746-195 458-58 635-95 857-182 107-42 242-121 326-192 124-103 226-273 273-453 35-134 45-392 20-529-43-234-131-402-292-555-174-166-398-275-707-344-341-77-824-89-1308-34-166 18-262 22-661 25l-468 4v535 534h430 430v-110-110l39-20c127-64 388-111 663-117 474-12 687 72 688 272 0 78-22 120-88 166-96 68-231 99-662 154-518 67-723 114-948 220-359 170-536 429-572 837-20 216 15 418 100 594 191 395 628 622 1305 678 136 11 606-4 780-25zm3785 6c446-67 801-235 1076-509 335-335 497-765 496-1316 0-264-29-462-98-670-235-706-844-1128-1701-1179-449-26-906 63-1233 241-221 120-456 331-583 523-154 234-249 502-287 815-15 125-12 441 5 572 82 620 414 1090 948 1343 223 105 464 168 762 199 100 10 505-2 615-19zm-6210-490v-445h-290-290v-900-900h290 290v-445-445l-1152 2-1153 3-3 443-2 442h290 290v900 900l-287 2-288 3-3 443-2 442h1155 1155v-445zm-470-3602c127-180 405-489 562-625l57-49 163 40c313 77 623 134 943 173 99 12 181 23 183 24s-11 46-28 101c-41 129-100 343-100 365 0 16 12 18 124 18h123l27-97c15-54 46-158 68-232l42-133 56 6c323 33 1165 42 1560 16 124-8 254-15 289-15h65l34 105c19 58 49 159 67 225l33 120 126 3c84 2 126-1 126-8 0-17-87-329-114-407l-25-72 32-5c18-3 88-13 157-21 293-37 657-106 933-176 143-37 160-39 180-26 48 32 264 247 368 364 60 69 148 176 195 239l87 114h143c79 0 144-4 144-8 0-13-132-203-209-302-690-889-1709-1457-2836-1582-186-20-724-17-900 5-915 118-1686 478-2355 1100-230 214-518 560-644 775-6 9 25 12 142 12h149l33-47z"/>
		<path d="m5769 9367c-231-79-451-329-653-742-46-93-86-178-89-187-5-14 3-18 46-23 248-27 898-41 1252-26 425 18 465 21 465 40 0 25-150 326-214 428-130 210-259 356-391 443-139 90-280 113-416 67z"/>
		<path d="m5210 9328c-536-113-974-294-1432-594-112-73-148-104-120-104 4 0 68-14 142-30 242-55 747-138 923-152l38-3 42 100c122 285 312 596 466 758 34 36 34 37 11 36-14-1-45-5-70-11z"/>
		<path d="m6555 9298c69-80 183-237 241-330 71-115 178-325 224-442l35-87 65 6c315 31 1060 162 1060 187 0 5-64 51-142 102-426 281-898 481-1367 580-161 34-160 34-116-16z"/>
		<path d="m8921 6509c-333-51-527-288-587-716-23-167-15-526 15-666 95-438 340-643 745-624 211 10 326 56 451 182 174 173 244 412 245 825 0 339-49 554-167 732-82 125-215 217-363 253-83 19-256 27-339 14z"/>
		<path d="m5480 2614c-270-15-455-26-458-29-8-8 118-267 184-381 142-244 282-408 426-502 94-61 151-81 244-89 91-7 157 8 259 60 115 59 281 226 394 397 75 113 261 468 261 498 0 16-21 19-215 32-164 11-963 21-1095 14z"/>
		<path d="m4655 2553c-16-2-112-15-213-29-240-33-428-65-639-110-134-29-170-40-162-50 18-22 281-191 413-264 342-191 714-332 1086-410 77-17 145-30 151-30s-13 28-43 63c-162 185-315 437-439 722l-48 110-38 1c-21 1-51 0-68-3z"/>
		<path d="m7031 2497c-37-94-161-340-226-447-70-116-155-234-229-319-31-36-54-66-52-69 11-11 351 71 533 129 327 104 739 308 1037 513l88 61-53 12c-268 62-589 120-844 153-88 11-176 22-195 25-35 4-35 4-59-58z"/>
	</g>
</svg>
