<svg id="map-container" viewBox="0 0 579 535" xmlns="http://www.w3.org/2000/svg">
    <g id="scaled-map-container">
        <path class="separator" id="separator-corse" d="M516,535L516,468L551,431L581,431L551,431L516,468,L516,535"></path>
        <path class="separator" id="separator-dom" d="M4,493L275,493L275,535L275,493L4,493"></path>
        <path class="separator" id="separator-idf" d="M4,73L83,73L83,3L83,73L4,73"></path>
        <path class="FR-ARA area land" id="FR-01" d="M424,254L422,254L421,257L417,271L416,272L416,276L415,278L415,284L414,285L418,288L420,288L422,290L422,293L425,292L429,293L429,293L431,293L433,295L436,294L437,290L438,289L440,289L441,291L442,293L450,302L452,301L453,297L455,297L455,291L456,290L457,284L457,285L457,283L456,281L456,275L458,276L459,274L461,274L463,272L461,272L461,269L463,267L467,267L467,265L466,264L469,261L468,260L465,258L457,267L452,267L452,264L449,263L445,267L442,267L442,264L440,263L436,258L432,257L431,254L429,254L428,255L426,256L424,254z"></path>
        <path class="FR-HDF area land" id="FR-02" d="M371,60L368,62L366,61L365,61L362,63L360,61L357,63L357,63L356,62L354,62L352,63L352,63L353,65L350,68L350,71L349,72L349,75L350,79L351,85L351,91L350,93L352,94L351,95L349,100L346,101L345,102L347,103L348,106L346,106L346,109L347,109L348,107L350,109L351,110L351,113L353,114L353,118L358,123L360,124L361,126L364,127L365,126L366,124L368,123L370,119L372,118L371,116L368,116L368,115L370,114L370,113L369,112L369,110L373,110L373,108L370,106L370,101L374,99L378,99L377,97L380,96L383,98L384,98L384,91L384,89L385,86L383,85L383,83L387,83L387,80L390,79L391,76L390,75L390,72L391,70L390,67L390,64L386,64L385,65L382,64L381,61L380,61L378,63L377,61L373,61L372,60L371,60z"></path>
        <path class="FR-20R area land" id="FR-2A" d="M530,479L530,481L532,482L535,484L535,486L533,486L530,487L530,488L532,489L532,493L536,495L537,495L539,497L538,498L536,499L535,501L534,502L535,506L537,506L538,506L541,505L542,506L540,508L542,510L539,511L538,515L542,516L548,516L545,519C545,519 544,519 544,519C544,519 544,519 544,519C544,519 544,519 544,519C544,519 544,519 544,519C544,519 544,519 544,519C544,519 544,519 544,519C544,519 544,519 544,519C544,519 544,519 544,519C544,519 544,519 544,519C544,519 543,519 543,519C543,519 543,519 543,519C543,520 542,523 542,523L544,525L547,527L554,528L556,529L557,530L556,532L559,532L560,533L563,533L564,530L562,529L564,526L564,525L564,524L567,522L567,520L565,520L564,521L564,519L567,519L568,516L568,510L568,507L568,504L564,506L560,507L560,504L561,503L559,502L559,498L559,497L556,497L555,496L555,493L554,492L553,491L551,489L551,487L549,487L548,485L544,485L542,482L543,481L542,481L539,481L538,480L534,480L534,479L532,479L530,479z"></path>
        <path class="FR-20R area land" id="FR-2B" d="M562,441L559,443L559,445L561,447L559,448L560,450L559,451L559,453L561,454L561,457L559,460L558,460L557,458L554,458L553,458L551,458L549,460L548,463L543,464L540,467L539,469L537,469L536,468L535,471L534,472L534,475L534,476L532,478L532,479L534,479L534,480L538,480L539,481L542,481L543,481L542,482L544,485L548,485L549,487L551,487L551,489L553,491L554,492L555,493L555,496L556,497L559,497L559,498L559,502L561,503L560,504L560,507L564,506L568,504L568,499L572,492L572,482L570,478L570,467L568,465L566,463L565,456L567,453L565,447L564,443L563,442L562,441z"></path>
        <path class="FR-ARA area land" id="FR-03" d="M345,240L342,243L341,243L339,245L337,243L332,248L332,251L333,252L333,253L331,255L328,255L323,256L321,258L320,260L320,260L322,264L322,266L324,268L325,266L327,268L329,269L331,274L331,276L334,278L335,277L336,274L338,274L338,272L340,272L340,273L342,270L345,270L346,271L345,273L347,275L347,277L352,280L358,280L359,280L362,281L364,279L366,280L366,283L368,283L371,283L372,285L375,286L375,285L379,285L379,274L378,272L378,269L381,269L381,269L385,266L386,258L384,256L381,256L380,255L377,255L376,254L376,251L372,244L370,242L367,247L365,248L365,245L363,244L362,246L359,246L359,244L357,245L355,247L353,244L349,243L349,240L345,240z"></path>
        <path class="FR-PAC area land" id="FR-04" d="M502,352L500,356L497,357L496,359L493,359L493,361L493,362L492,365L486,365L483,363L481,365L477,364L476,366L477,366L478,369L477,369L474,367L474,366L472,364L471,364L471,366L469,366L466,368L464,372L463,373L465,374L465,377L463,377L462,375L461,375L461,377L464,380L462,381L461,380L457,380L454,382L454,382L454,383L453,382L452,381L451,384L449,385L448,385L448,385L448,388L450,388L450,391L449,391L449,394L452,396L452,398L451,400L451,401L455,401L459,406L459,406L464,404L470,408L474,406L474,404L479,402L482,404L487,401L492,401L493,400L496,400L496,400L495,398L496,397L496,396L499,396L499,395L502,393L504,395L505,394L502,391L499,388L498,387L497,385L495,382L496,377L497,375L499,373L499,371L502,370L502,369L502,366L505,365L503,364L501,363L500,361L501,359L505,356L504,353L504,353L502,352z"></path>
        <path class="FR-PAC area land" id="FR-05" d="M486,328L484,329L484,332L481,332L480,329L479,328L475,329L474,330L473,334L474,335L478,335L479,338L480,338L480,342L477,342L475,344L471,343L468,345L467,345L464,346L465,348L464,350L459,350L459,352L460,353L460,354L457,355L453,356L451,359L451,362L453,363L451,366L449,364L446,364L445,366L447,367L445,369L446,372L452,374L453,376L455,376L454,382L454,382L457,380L461,380L462,381L464,380L461,377L461,375L462,375L463,377L465,377L465,374L463,373L464,372L466,368L469,366L471,366L471,364L472,364L474,366L474,367L477,369L478,369L477,366L476,366L477,364L481,365L483,363L486,365L492,365L493,362L493,361L493,359L496,359L497,357L500,356L502,352L504,353L506,351L508,351L508,349L506,348L505,342L503,342L500,342L495,339L495,334L492,333L491,331L490,328L486,328z"></path>
        <path class="FR-PAC area land" id="FR-06" d="M502,369L502,370L499,371L499,373L497,375L496,377L495,382L497,385L498,387L499,388L502,391L505,394L504,395L502,393L499,395L499,396L496,396L496,397L495,398L496,400L494,401L495,403L497,403L499,404L500,408L502,410L503,410L505,411L505,413L504,414L505,415L505,416L507,418L507,418L508,414L511,415L513,413L515,413L515,407L519,407L523,404L526,404L526,401L530,399L528,395L531,393L530,390L534,388L536,384L535,381L534,380L533,377L530,377L522,381L519,381L514,377L509,375L506,375L506,372L502,370L502,369z"></path>
        <path class="FR-ARA area land" id="FR-07" d="M416,318L412,320L411,324L408,325L406,325L406,325L405,330L402,331L401,333L402,335L402,337L400,337L399,340L396,340L395,345L390,345L385,349L383,353L383,354L384,361L388,364L387,368L391,370L391,376L393,375L398,378L400,378L401,375L403,374L404,377L407,377L407,374L413,377L414,375L417,375L417,371L417,370L416,370L416,368L416,367L415,365L416,362L418,359L418,355L417,350L419,350L420,348L421,344L423,341L421,337L420,334L418,328L418,320L417,320L416,318z"></path>
        <path class="FR-GES area land" id="FR-08" d="M409,54L407,57L405,58L405,60L405,62L403,64L399,65L397,66L394,64L390,64L390,67L391,70L390,72L390,75L391,76L390,79L387,80L387,83L383,83L383,85L385,86L384,89L384,91L384,96L389,96L393,98L393,100L396,100L399,102L401,103L402,102L404,102L405,105L407,105L407,103L412,104L413,105L413,105L415,103L417,104C417,104 417,104 417,104L417,103L419,102L421,101L420,99L420,98L422,96L422,92L420,90L421,88L423,85L423,85L426,85L428,87L429,86L431,83L429,83L429,79L427,78L422,78L421,75L419,74L413,73L413,69L413,68L413,67L410,65L411,63L412,61L410,60L412,58L412,54L412,54L409,54z"></path>
        <path class="FR-OCC area land" id="FR-09" d="M283,432L281,433L281,434L283,435L284,437L283,438L279,438L278,440L278,440L280,441L281,442L280,444L278,444L277,442L274,441L272,441L268,444L268,447L269,448L269,450L264,451L263,453L263,457L263,458L262,459L263,460L268,461L271,461L274,465L282,465L286,470L288,469L297,470L297,473L303,472L305,470L309,469L309,468L316,467L312,462L309,464L302,459L304,457L309,457L308,453L308,449L307,443L298,438L298,436L297,435L295,435L293,435L289,434L288,433L290,435L289,437L286,436L286,435L284,432L283,432z"></path>
        <path class="FR-GES area land" id="FR-10" d="M391,134L387,136L384,138L381,138L375,142L371,143L367,139L367,139L367,140L364,141L364,143L363,145L362,149L361,152L363,153L365,153L370,158L369,163L373,166L374,165L377,168L378,172L380,174L381,177L388,177L392,175L393,177L395,177L396,175L402,175L404,174L405,171L410,171L411,172L410,169L409,168L411,166L414,166L415,164L415,158L414,154L411,152L408,148L408,145L409,143L407,142L402,143L398,143L394,138L394,134L391,134z"></path>
        <path class="FR-OCC area land" id="FR-11" d="M318,424L318,428L315,427L311,427L311,425L309,426L305,427L304,424L301,427L302,429L299,430L299,433L296,434L298,436L298,438L307,443L308,449L308,453L309,457L304,457L302,459L309,464L312,462L316,467L316,467L316,468L324,464L322,461L322,458L340,458L340,456L344,453L349,457L351,458L351,453L351,447L349,447L347,444L348,442L352,445L355,442L356,440L357,438L354,438L353,436L351,435L349,432L347,432L345,431L345,428L344,429L344,431L342,431L342,434L338,435L336,432L334,433L332,432L331,429L333,427L332,425L332,425L326,425L320,424L318,424z"></path>
        <path class="FR-OCC area land" id="FR-12" d="M338,342L333,346L333,351L332,351L331,355L330,356L329,358L323,358L322,357L319,357L318,360L317,360L317,361L316,362L312,362L312,363L310,363L307,366L306,366L304,368L304,371L306,374L305,375L305,379L308,379L306,383L307,386L309,385L310,386L312,384L315,384L318,386L324,387L326,391L329,392L330,396L330,398L332,401L332,403L336,408L339,409L341,409L342,407L343,408L347,410L347,410L349,410L352,410L352,404L352,403L353,403L356,404L359,404L359,401L360,400L363,399L363,396L367,395L366,391L363,391L360,391L360,388L362,388L362,385L364,383L363,382L358,383L358,381L355,380L354,373L354,369L352,367L352,363L346,356L346,351L344,351L343,346L339,346L339,343L338,342z"></path>
        <path class="FR-PAC area land" id="FR-13" d="M421,397L415,400L414,410L408,409L407,413L408,415L402,419L400,423L406,423L414,424L416,425L413,425L411,428L419,430L425,429L422,426L424,424L428,425L430,429L440,429L443,428L444,430L441,432L445,433L444,434L443,436L452,436L457,437L457,438L457,434L459,433L461,432L460,431L459,429L458,429L457,428L458,427L458,426L457,425L457,424L460,424L461,423L458,420L458,417L456,415L458,412L462,409L459,407L457,409L451,410L447,409L440,406L436,406L432,405L430,403L428,400L421,397L421,397z"></path>
        <path class="FR-NOR area land" id="FR-14" d="M249,94L245,95L237,99L229,102L223,99L207,97L204,95L198,96L199,98L197,99L198,101L201,104L203,106L205,104L206,105L205,107L206,110L205,110L207,113L206,115L204,118L202,119L200,118L199,119L201,121L199,123L196,124L200,129L204,129L206,131L210,130L213,126L217,127L220,125L222,124L224,127L228,126L231,128L235,126L239,124L241,121L243,121L243,123L244,122L244,121L248,120L249,121L253,120L254,118L254,117L252,116L252,115L253,114L253,112L252,107L250,104L252,103L252,102L250,101L249,94z"></path>
        <path class="FR-ARA area land" id="FR-15" d="M330,313L329,315L330,317L329,319L327,319L325,317L323,316L323,321L320,323L317,327L318,330L317,331L316,334L315,334L313,336L314,338L315,339L313,341L314,347L317,350L314,355L317,357L316,360L318,360L319,357L322,357L323,358L329,358L330,356L331,355L332,351L333,351L333,346L338,342L339,343L339,346L343,346L344,351L346,351L346,356L348,358L351,352L353,344L357,346L358,343L363,341L363,339L362,338L360,337L361,335L360,334L361,334L362,333L360,333L359,331L359,328L358,326L357,323L353,323L352,321L350,321L350,322L347,322L344,318L343,318L341,317L340,318L337,318L335,315L330,313z"></path>
        <path class="FR-NAQ area land" id="FR-16" d="M253,275L251,277L251,279L250,280L247,279L244,280L241,280L239,277L238,277L234,279L232,279L232,281L231,282L231,283L229,284L228,290L227,294L226,295L224,295L223,294L221,294L220,295L217,295L215,296L216,296L217,301L217,301L216,303L218,304L220,306L221,308L223,309L222,311L221,312L223,313L223,315L220,317L221,318L223,318L223,318L221,319L221,320L222,321L226,320L228,322L229,324L233,327L233,326L237,326L239,324L242,321L243,314L252,308L252,304L254,303L256,300L257,300L258,297L259,297L260,295L262,294L264,292L264,288L266,287L269,286L269,285L268,282L266,282L264,280L265,279L265,277L263,276L260,276L259,278L255,279L254,278L253,275z"></path>
        <path class="FR-NAQ area land" id="FR-17" d="M197,262L195,262L189,265L190,267L187,269L187,271L184,271L183,270L179,269L178,267L176,266L173,267L175,270L178,270L180,272L182,273L186,273L187,275L190,276L191,278L192,279L192,281L190,281L189,282L191,284L190,288L188,288L188,291L189,292L186,292L185,290L187,288L187,287L186,286L185,281L182,281L179,278L179,284L183,288L184,291L185,295L185,300L187,299L191,303L194,304L194,306L196,306L202,312L204,319L209,319L210,318L210,321L215,321L216,327L219,328L223,332L225,332L228,331L230,332L231,329L233,327L229,324L228,322L226,320L222,321L221,320L221,319L223,318L223,318L221,318L220,317L223,315L223,313L221,312L222,311L223,309L221,308L220,306L218,304L216,303L217,301L217,301L216,296L215,296L217,295L220,295L221,294L223,294L224,295L226,295L227,294L228,290L229,284L229,284L228,283L227,281L225,280L221,277L217,278L214,274L210,274L207,272L207,270L205,268L205,265L202,263L199,265L197,262z"></path>
        <path class="FR-CVL area land" id="FR-18" d="M320,194L317,195L314,197L315,198L317,199L318,201L319,202L319,203L319,205L317,206L315,209L315,211L315,212L316,213L313,214L309,214L308,213L307,213L306,215L306,217L304,217L304,219L302,221L302,222L303,223L306,223L308,223L311,222L312,223L311,226L314,229L314,230L313,232L313,232L314,234L316,234L316,234L314,236L314,237L312,238L313,239L315,241L315,242L313,243L313,244L315,246L316,248L317,249L317,250L317,250L316,253L316,254L317,256L318,258L316,259L316,261L320,260L321,258L323,256L328,255L331,255L333,253L333,252L332,251L332,248L337,243L339,245L341,243L342,243L345,240L349,240L349,241L351,237L350,235L350,232L351,227L349,225L349,221L347,217L347,214L343,212L343,209L345,207L345,203L343,201L341,202L340,201L338,200L338,199L337,200L337,202L336,203L335,202L333,199L332,198L329,197L327,196L326,196L325,196L323,197L322,195L320,194L320,194z"></path>
        <path class="FR-NAQ area land" id="FR-19" d="M310,298L309,300L306,300L305,302L304,302L302,302L300,304L298,304L296,307L295,307L293,308L289,308L288,310L287,310L284,313L282,312L281,314L282,316L284,318L280,321L280,324L282,325L280,327L282,328L281,330L282,331L286,331L286,335L288,338L288,338L292,336L297,338L301,343L303,343L306,340L307,342L310,340L313,340L313,341L315,339L314,338L313,336L315,334L316,334L317,331L318,330L317,327L320,323L323,321L323,316L325,317L327,319L329,319L330,317L329,315L330,312L329,309L328,307L328,305L330,302L330,299L329,299L327,300L324,300L322,302L320,302L318,300L317,299L313,299L312,298L310,298z"></path>
        <path class="FR-BFC area land" id="FR-21" d="M405,171L404,174L402,175L396,175L396,177L396,178L394,179L394,182L395,182L396,182L397,184L396,186L394,188L394,190L395,190L395,191L393,191L393,193L391,198L389,200L389,202L390,203L389,204L387,205L387,207L389,208L390,210L390,212L389,213L390,215L393,215L394,217L394,218L393,218L393,220L393,220L397,224L401,224L404,227L407,228L407,231L409,231L412,233L417,231L421,230L423,229L423,229L425,229L427,230L429,229L431,228L433,228L433,228L434,227L434,226L434,225L435,223L438,222L438,220L439,219L440,217L440,216L440,214L441,211L441,211L441,210L440,209L440,205L439,205L438,202L436,201L437,200L438,200L440,197L440,195L439,192L436,192L436,194L432,195L431,194L428,190L426,191L424,191L423,189L420,189L420,186L419,185L421,182L417,177L413,173L410,171L405,171z"></path>
        <path class="FR-NAQ area land" id="FR-24" d="M256,300L254,303L252,304L252,308L243,314L242,321L239,324L237,326L233,326L231,329L231,330L232,332L234,332L235,333L234,336L233,339L231,340L231,341L232,342L232,344L231,346L232,346L233,348L239,348L241,345L244,346L242,348L242,351L245,353L245,357L248,358L250,356L253,356L255,355L257,355L257,356L261,356L261,355L263,355L264,357L264,358L263,359L264,360L265,360L268,358L270,358L271,360L274,361L274,361L276,359L276,356L280,356L283,352L282,351L282,349L285,349L285,347L287,346L288,343L287,341L287,339L288,338L286,335L286,331L282,331L281,330L282,328L280,327L282,325L280,324L280,321L284,318L282,316L281,313L277,313L275,312L278,311L277,309L273,309L272,305L266,304L265,306L263,307L262,304L262,302L262,300L256,300z"></path>
        <path class="FR-NAQ area land" id="FR-23" d="M301,259L300,262L296,262L296,261L293,262L292,261L288,264L288,267L286,272L287,274L289,274L291,279L292,280L292,288L295,287L297,289L294,291L294,293L296,293L299,293L301,291L301,291L301,294L304,295L306,296L306,298L305,298L305,300L306,301L306,300L309,300L310,298L312,298L313,299L317,299L318,300L320,302L322,302L324,300L327,300L329,299L325,295L325,293L328,291L331,290L331,287L333,285L333,282L331,280L331,274L329,269L327,268L325,266L324,268L322,266L322,264L320,260L314,261L310,260L301,259z"></path>
        <path class="FR-BRE area land" id="FR-22" d="M120,119L119,120L114,121L113,122L110,120L106,123L108,125L105,128L105,128L104,133L106,133L106,135L108,136L106,138L105,139L105,141L108,141L106,142L106,144L107,146L107,152L106,153L107,156L110,156L110,158L112,158L114,157L115,158L118,159L121,158L122,156L125,156L127,159L130,158L132,160L134,160L135,162L137,162L138,161L139,163L141,164L144,162L144,160L146,159L147,159L149,162L153,162L155,160L157,156L160,155L161,153L162,154L165,154L166,145L167,141L166,140L165,139L164,133L162,135L159,134L158,136L156,137L156,134L154,133L153,135L153,131L150,133L147,132L146,134L139,138L139,140L137,140L137,137L133,135L134,131L130,129L130,126L128,125L128,122L126,122L126,120L122,120L122,122L120,119z"></path>
        <path class="FR-BFC area land" id="FR-25" d="M486,193L486,193L484,193L483,195L481,196L481,197L478,198L476,197L473,197L471,199L469,202L467,202L466,204L464,205L461,207L457,207L456,208L455,208L451,211L449,211L449,212L450,214L452,216L453,218L453,220L452,222L451,224L456,226L460,226L460,229L460,233L464,234L466,234L469,237L469,239L467,241L464,242L465,244L465,245L464,247L464,248L466,248L466,248L478,237L477,228L482,226L484,225L487,222L487,219L490,217L496,210L495,208L497,207L500,204L498,203L494,204L494,203L498,198L486,193z"></path>
        <path class="FR-ARA area land" id="FR-26" d="M426,318L423,320L421,321L418,320L418,328L420,334L421,337L423,341L421,344L420,348L419,350L417,350L418,355L418,359L416,362L415,365L416,367L416,368L416,370L417,370L417,371L417,375L419,375L421,376L420,380L421,381L424,378L426,378L427,376L423,376L423,372L425,369L428,369L430,371L428,375L428,376L432,377L435,375L433,377L434,380L438,380L443,380L444,383L447,385L449,385L451,384L452,381L453,382L454,383L455,376L453,376L452,374L446,372L445,369L447,367L445,366L446,364L449,364L451,366L453,363L451,362L451,359L453,356L457,355L460,354L460,353L457,353L455,352L454,352L452,350L449,349L447,349L446,348L445,332L445,332L444,334L442,335L438,334L434,333L433,333L433,332L434,329L433,326L434,324L432,321L429,321L426,318z"></path>
        <path class="FR-NOR area land" id="FR-27" d="M257,91L256,92L253,94L249,94L250,101L252,102L252,103L250,104L252,107L253,112L253,114L252,115L252,116L254,117L254,118L252,123L254,125L259,125L260,128L262,129L265,130L266,133L264,135L267,137L270,134L272,134L279,131L281,132L286,132L287,130L287,128L291,126L291,123L292,122L292,121L293,120L291,120L291,118L290,117L291,116L296,114L298,112L299,108L300,106L300,104L302,105L304,104L303,103L302,98L300,97L300,97L297,96L292,94L288,94L286,96L284,100L280,100L275,102L277,103L276,104L274,104L273,102L271,102L269,100L272,99L267,96L263,96L262,94L259,94L257,91z"></path>
        <path class="FR-CVL area land" id="FR-28" d="M292,122L291,123L291,126L287,128L287,130L286,132L281,132L279,131L272,134L270,134L267,137L268,137L268,141L272,144L272,151L270,153L267,154L265,156L265,157L266,159L266,163L267,163L269,165L268,166L270,167L273,167L275,167L275,168L273,169L274,169L277,169L278,172L280,173L281,175L285,176L288,176L290,174L292,174L292,173L292,172L293,171L295,172L296,172L296,170L298,169L299,170L300,171L302,170L305,170L306,168L307,165L309,164L308,161L310,159L310,158L310,158L309,158L309,153L309,152L308,150L304,149L303,147L302,143L300,142L299,140L297,138L295,135L297,133L295,131L295,129L296,127L295,126L294,124L292,122z"></path>
        <path class="FR-BRE area land" id="FR-29" d="M92,125L90,127L88,126L84,126L83,128L80,129L80,127L76,127L76,129L73,129L71,128L70,129L70,131L64,131L62,134L64,136L61,138L62,140L61,144L64,145L65,144L66,144L73,143L78,140L74,144L74,146L78,144L77,147L81,147L81,148L77,148L73,147L69,145L66,148L69,149L69,154L70,153L72,150L76,152L78,153L79,156L78,158L75,158L73,158L69,158L63,159L61,160L63,161L65,161L67,163L70,163L74,167L74,172L73,175L77,175L81,175L82,174L81,171L82,172L84,172L87,174L89,173L89,170L90,173L92,177L98,178L98,176L99,178L102,179L105,179L105,179L106,175L108,175L109,174L110,174L111,171L111,170L110,168L109,169L107,167L102,166L101,164L100,160L99,159L102,157L104,157L107,155L106,153L107,152L107,146L106,144L106,142L108,141L105,141L105,139L106,138L108,136L106,135L106,133L104,133L105,128L102,126L97,127L97,130L95,130L95,129L93,129L92,125z"></path>
        <path class="FR-OCC area land" id="FR-30" d="M388,369L387,370L386,371L384,372L386,375L386,379L388,379L386,381L386,383L384,387L379,386L376,384L374,384L375,386L374,387L369,388L363,384L362,385L362,388L360,388L360,391L363,391L366,391L367,395L363,396L363,398L366,399L366,401L367,401L368,400L370,400L370,402L372,402L373,398L375,398L378,395L381,395L381,400L383,401L384,400L388,402L389,404L394,407L397,412L397,415L393,417L391,419L394,419L394,423L398,423L400,423L402,419L408,415L407,413L408,409L414,410L415,400L423,395L423,393L417,387L417,383L414,378L407,374L407,377L404,377L403,374L401,375L400,378L398,378L393,375L391,376L391,370L388,369z"></path>
        <path class="FR-OCC area land" id="FR-31" d="M290,399L287,400L286,401L285,400L284,400L283,402L282,402L284,403L283,405L278,406L276,404L275,404L273,405L268,405L268,405L268,407L271,410L271,411L273,414L275,414L275,415L277,415L278,417L276,418L272,419L271,423L269,427L268,428L266,427L259,426L256,431L254,432L253,433L251,435L251,436L249,437L247,440L247,442L250,444L251,446L250,448L252,447L253,448L254,452L251,453L252,455L250,456L249,455L247,455L247,465L255,466L255,457L258,457L262,459L263,458L263,457L263,453L264,451L269,450L269,448L268,447L268,444L272,441L274,441L277,442L278,444L280,444L281,442L280,441L278,440L278,440L279,438L283,438L284,437L283,435L281,434L281,433L283,432L284,432L286,435L286,436L289,437L290,435L288,433L289,434L293,435L295,435L297,435L296,434L299,433L299,430L302,429L301,427L304,424L305,427L309,426L310,425L310,424L310,422L308,422L305,421L303,419L302,417L298,416L297,414L298,414L298,412L297,410L295,407L295,405L295,405L292,402L292,400L290,399z"></path>
        <path class="FR-OCC area land" id="FR-32" d="M254,389L248,389L247,392L244,392L240,393L239,391L236,394L234,392L232,395L233,397L231,398L230,397L229,394L226,396L224,395L222,396L220,398L222,402L221,403L221,407L220,409L218,413L220,415L225,416L226,415L229,415L229,418L231,419L234,419L235,422L235,423L235,424L234,425L236,426L236,428L239,428L240,427L242,427L242,429L245,429L246,430L250,430L254,432L254,432L256,431L259,426L266,427L268,428L269,427L271,423L272,419L276,418L278,417L277,415L275,415L275,414L273,414L271,411L271,410L268,407L268,405L266,406L265,405L267,403L265,402L265,399L264,398L260,398L260,396L262,394L262,392L265,391L263,391L262,391L259,391L258,391L258,391L257,392L254,389z"></path>
        <path class="FR-NAQ area land" id="FR-33" d="M190,305L187,309L186,325L183,341L181,354L181,357L183,353L185,349L189,353L189,354L191,355L186,356L185,354L183,355L183,358L181,361L181,365L181,365L182,365L188,362L191,363L191,366L190,367L191,368L195,367L197,369L198,368L200,367L204,366L205,367L206,368L206,369L205,370L208,371L210,372L210,374L212,374L214,376L215,381L219,382L222,382L222,381L221,377L222,378L224,380L227,379L229,378L229,376L227,375L228,373L230,373L232,372L231,370L230,368L232,365L234,361L236,359L238,358L238,357L236,357L235,355L236,353L238,352L240,352L242,351L242,351L242,348L244,346L241,345L239,348L233,348L232,346L231,346L232,344L232,342L231,341L231,340L233,339L234,336L235,333L234,332L232,332L231,330L230,332L228,331L225,332L223,332L219,328L216,327L215,321L210,321L210,318L209,319L204,319L204,320L205,326L206,331L205,333L204,328L201,318L191,309L192,305L190,305z"></path>
        <path class="FR-OCC area land" id="FR-34" d="M378,395L375,398L373,398L372,402L370,402L370,400L368,400L367,401L366,401L366,399L363,398L363,399L360,400L359,401L359,404L356,404L353,403L352,403L352,404L352,410L349,410L347,410L346,412L339,415L336,413L335,415L334,418L337,420L336,424L332,425L333,427L331,429L332,432L334,433L336,432L338,435L342,434L342,431L344,431L344,429L345,428L345,431L347,432L349,432L351,435L353,436L354,438L357,438L357,437L364,435L364,434L370,433L371,431L382,423L388,419L391,419L393,417L397,415L397,412L394,407L389,404L388,402L384,400L383,401L381,400L381,395L378,395z"></path>
        <path class="FR-BRE area land" id="FR-35" d="M165,131L164,133L165,139L166,140L167,141L166,145L165,154L162,154L161,153L160,155L157,156L155,160L154,162L154,164L153,167L152,168L152,169L153,170L155,170L158,171L159,174L158,176L158,178L160,178L161,179L159,181L157,182L158,183L159,184L157,185L159,189L163,187L175,186L175,184L177,182L181,182L182,180L184,180L186,182L190,183L191,182L192,178L194,172L195,171L199,172L199,167L197,165L197,160L197,158L197,155L199,153L199,149L198,149L198,143L196,143L194,143L192,141L190,143L188,144L187,146L185,145L182,143L181,139L180,137L171,137L168,134L170,131L165,131z"></path>
        <path class="FR-CVL area land" id="FR-36" d="M299,214L298,214L296,214L293,215L292,217L292,216L289,216L287,218L285,218L285,219L286,221L286,223L284,223L284,224L283,226L281,228L280,227L278,226L275,228L274,231L273,234L272,241L270,243L268,243L269,244L269,247L268,250L272,253L273,254L276,255L278,259L280,260L279,263L278,263L278,263L283,264L285,262L288,265L292,261L293,262L296,261L296,262L300,262L301,259L310,260L314,261L316,261L316,259L318,258L317,256L316,254L316,253L317,250L317,250L317,249L316,248L315,246L313,244L313,243L315,242L315,241L313,239L312,238L314,237L314,236L316,234L316,234L314,234L313,232L313,232L314,230L314,229L311,226L312,223L311,222L308,223L306,223L303,223L302,222L302,221L304,219L304,217L301,216L299,214z"></path>
        <path class="FR-CVL area land" id="FR-37" d="M258,190L259,191L253,193L252,195L250,193L251,197L249,197L245,194L243,198L244,199L244,200L242,203L242,207L239,210L237,218L237,218L238,221L242,222L242,224L246,226L246,229L246,231L252,231L257,230L256,228L258,227L259,229L261,230L262,234L265,238L265,240L268,243L270,243L272,241L273,234L274,231L275,228L278,226L280,227L281,228L283,226L284,224L284,223L286,223L286,221L285,219L285,218L284,217L281,213L278,213L277,211L277,205L275,201L275,196L273,196L271,194L270,194L268,195L267,195L267,193L268,192L268,191L267,191L258,190z"></path>
        <path class="FR-ARA area land" id="FR-38" d="M438,289L437,290L436,294L433,295L431,293L429,293L428,295L431,298L427,303L422,304L418,306L420,308L421,310L417,312L416,318L416,318L417,320L421,321L423,320L426,318L429,321L432,321L434,324L433,326L434,329L433,332L433,333L434,333L438,334L442,335L444,334L445,332L445,332L446,348L447,349L449,349L452,350L454,352L455,352L457,353L460,353L460,353L459,352L459,350L464,350L465,348L464,346L467,345L468,345L471,343L475,344L477,342L480,342L480,338L479,338L478,335L474,335L473,334L474,330L475,329L474,327L472,326L471,327L471,325L471,324L470,322L471,318L472,317L472,315L468,311L467,311L466,312L463,309L462,309L461,312L462,313L461,314L459,313L455,312L452,308L452,306L450,303L450,302L442,293L441,291L440,289L438,289z"></path>
        <path class="FR-BFC area land" id="FR-39" d="M441,210L441,211L441,211L440,214L440,216L440,217L439,219L438,220L438,222L435,223L434,225L434,226L434,227L433,228L433,230L434,230L436,233L438,233L439,234L440,234L440,236L436,237L436,238L438,239L438,241L437,241L438,243L440,246L439,249L437,251L437,253L440,254L440,255L439,257L434,257L436,258L440,263L442,264L442,267L445,267L449,263L452,264L452,267L457,267L465,258L465,258L465,254L468,250L466,250L466,248L464,248L464,247L465,245L465,244L464,242L467,241L469,239L469,237L466,234L464,234L460,233L460,229L460,226L456,226L451,224L452,222L453,220L453,218L452,216L450,214L449,212L449,211L448,211L447,212L444,212L443,211L441,210z"></path>
        <path class="FR-NAQ area land" id="FR-40" d="M188,362L182,365L181,365L177,383L173,400L172,406L171,411L168,416L173,419L178,418L181,416L183,417L182,419L183,419L184,418L188,418L191,416L195,417L197,416L200,416L200,417L202,416L204,417L207,417L211,415L211,416L217,416L220,415L218,413L220,409L221,407L221,403L222,402L220,398L222,396L224,395L226,396L229,394L230,397L231,398L233,397L232,395L233,394L233,392L233,389L235,387L234,385L232,385L229,384L226,385L225,381L222,378L221,377L222,381L222,382L219,382L215,381L214,376L212,374L210,374L210,372L208,371L205,370L206,369L206,368L205,367L204,366L200,367L198,368L197,369L195,367L191,368L190,367L191,366L191,363L188,362z"></path>
        <path class="FR-CVL area land" id="FR-41" d="M268,166L267,168L266,171L267,172L267,176L266,179L265,179L265,183L262,186L259,187L258,189L258,190L267,191L268,191L268,192L267,193L267,195L268,195L270,194L271,194L273,196L275,196L275,201L277,205L277,211L278,213L281,213L284,217L285,218L285,218L287,218L289,216L292,216L292,217L293,215L296,214L298,214L299,214L301,216L304,217L306,217L306,215L307,213L308,213L309,214L313,214L316,213L315,212L315,211L315,209L317,206L319,205L319,203L319,202L318,201L317,199L315,198L314,197L317,195L320,194L318,192L311,192L310,193L308,193L308,192L305,192L304,193L302,194L300,192L300,189L298,188L296,188L294,187L294,185L293,183L295,181L295,180L294,178L293,178L293,178L294,176L294,175L292,175L290,174L288,176L285,176L281,175L280,173L278,172L277,169L274,169L273,169L275,168L275,167L273,167L270,167L268,166z"></path>
        <path class="FR-ARA area land" id="FR-42" d="M382,269L378,269L378,272L379,274L379,285L375,285L375,287L378,289L376,291L375,295L378,298L380,303L385,306L386,313L383,316L383,318L389,320L393,317L395,316L401,319L401,323L404,322L406,325L408,325L411,324L412,320L416,318L417,312L417,312L415,311L413,312L411,311L413,309L412,307L406,306L401,301L401,299L402,298L402,297L401,296L402,294L402,291L399,289L399,287L398,285L398,283L397,280L398,279L398,275L402,275L403,274L402,272L402,270L401,269L400,273L398,273L397,275L395,274L389,273L387,274L386,274L385,273L382,272L382,269L382,269z"></path>
        <path class="FR-ARA area land" id="FR-43" d="M361,316L359,316L359,318L357,318L355,319L352,320L351,321L352,321L353,323L357,323L358,326L359,328L359,331L360,333L362,333L361,334L360,334L361,335L360,337L362,338L363,339L363,341L363,341L367,349L372,348L372,346L374,346L375,348L378,347L383,353L385,349L390,345L395,345L396,340L399,340L400,337L402,337L402,335L401,333L402,331L405,330L406,325L404,322L401,323L401,319L395,316L393,317L389,320L385,319L384,319L382,319L380,317L379,319L376,319L375,318L374,320L372,319L371,317L369,317L368,316L366,317L363,317L362,316L361,316L361,316z"></path>
        <path class="FR-PDL area land" id="FR-44" d="M182,180L181,182L177,182L175,184L175,186L163,187L158,189L158,195L152,197L149,199L146,199L145,197L143,199L142,199L143,200L140,203L140,204L141,205L139,208L141,209L145,210L145,208L147,211L151,211L153,208L156,208L153,210L153,212L154,214L152,216L150,216L150,219L154,218L159,222L159,223L162,225L163,227L166,228L169,229L170,232L174,233L177,233L178,231L177,229L176,225L177,224L179,224L180,225L179,228L180,229L183,228L184,225L183,224L186,224L187,222L188,222L191,224L192,225L192,223L191,221L189,221L189,221L188,220L189,220L189,218L190,218L191,216L191,215L190,212L188,212L186,210L186,208L189,207L192,206L199,206L200,205L200,201L197,198L194,199L193,198L192,195L195,193L193,191L192,187L190,186L190,184L190,183L186,182L184,180L182,180z"></path>
        <path class="FR-CVL area land" id="FR-45" d="M318,155L315,157L310,158L310,158L310,159L308,161L309,164L307,165L306,168L305,170L302,170L300,171L299,170L298,169L296,170L296,172L295,172L293,171L292,172L292,173L292,174L292,175L294,175L294,176L293,178L293,178L294,178L295,180L295,181L293,183L294,185L294,187L296,188L298,188L300,189L300,192L302,194L304,193L305,192L308,192L308,193L310,193L311,192L318,192L320,194L322,195L323,197L325,196L326,196L327,196L329,197L332,198L333,199L335,202L336,203L337,202L337,200L338,199L338,200L340,201L341,202L343,201L342,201L342,199L346,198L345,195L345,192L342,189L342,187L345,187L348,185L349,182L347,180L352,176L352,173L349,170L348,167L345,164L340,167L340,165L338,165L337,166L335,167L330,167L328,168L326,166L329,164L329,161L327,160L325,157L320,157L318,155z"></path>
        <path class="FR-OCC area land" id="FR-46" d="M292,336L288,338L288,338L288,338L287,339L287,341L288,343L287,346L285,347L285,349L282,349L282,351L283,352L280,356L276,356L276,359L274,361L273,363L270,363L271,369L273,372L275,372L275,373L274,375L275,377L277,377L278,379L280,379L281,377L281,378L281,379L282,382L285,382L288,379L290,379L290,379L291,381L293,381L293,378L296,378L298,376L301,377L305,375L305,375L306,374L304,371L304,368L306,366L307,366L310,363L312,363L312,362L316,362L317,361L317,360L316,360L317,357L314,355L317,350L314,347L313,340L310,340L307,342L306,340L303,343L301,343L297,338L292,336z"></path>
        <path class="FR-NAQ area land" id="FR-47" d="M242,351L240,352L238,352L236,353L235,355L236,357L238,357L238,358L236,359L234,361L232,365L230,368L231,370L232,372L230,373L228,373L227,375L229,376L229,378L227,379L224,380L225,381L226,385L229,384L232,385L234,385L235,387L233,389L233,392L233,394L234,392L236,394L239,391L240,393L244,392L247,392L248,389L254,389L257,392L258,391L260,390L259,387L262,387L266,386L265,384L266,382L267,379L265,376L266,372L269,374L273,373L271,369L270,363L273,363L274,361L271,360L270,358L268,358L265,360L264,360L263,359L264,358L264,357L263,355L261,355L261,356L257,356L257,355L255,355L253,356L250,356L248,358L245,357L245,353L242,351z"></path>
        <path class="FR-OCC area land" id="FR-48" d="M363,341L358,343L357,346L353,344L351,352L348,358L352,363L352,367L354,369L354,373L355,380L358,381L358,383L363,382L364,383L363,384L369,388L374,387L375,386L374,384L376,384L379,386L384,387L386,383L386,381L388,379L386,379L386,375L384,372L386,371L387,370L388,369L387,368L388,364L384,361L383,354L378,347L375,348L374,346L372,346L372,348L367,349L363,341z"></path>
        <path class="FR-PDL area land" id="FR-49" d="M190,182L190,183L190,183L190,184L190,186L192,187L193,191L195,193L192,195L193,198L194,199L197,198L200,201L200,205L199,206L192,206L189,207L186,208L186,210L188,212L190,212L191,215L191,216L190,218L189,218L189,220L188,220L189,221L189,221L191,221L192,223L192,225L193,225L194,226L199,226L202,228L205,226L211,228L214,226L214,223L219,223L224,222L229,222L229,223L231,224L232,222L236,218L237,218L239,210L242,207L242,203L244,200L244,199L243,198L244,197L241,196L233,191L226,189L223,189L223,187L221,185L219,185L216,184L214,186L209,186L207,185L201,184L200,185L197,183L194,183L190,182z"></path>
        <path class="FR-PDL area land" id="FR-53" d="M230,141L228,142L227,143L224,145L219,144L214,147L212,146L209,147L207,146L206,144L203,143L201,144L198,144L198,149L199,149L199,153L197,155L197,158L197,160L197,165L199,167L199,172L195,171L194,172L192,178L191,182L190,182L194,183L197,183L200,185L201,184L207,185L209,186L214,186L216,184L219,185L221,185L221,185L222,184L222,178L221,177L222,176L224,176L225,175L226,174L224,171L225,169L228,169L227,168L228,166L228,165L228,163L231,161L231,159L231,154L232,153L236,151L235,151L234,148L232,147L231,143L230,141z"></path>
        <path class="FR-GES area land" id="FR-54" d="M442,85L439,87L436,88L435,89L435,89L435,91L436,93L435,94L435,95L435,96L436,95L437,94L439,93L442,92L444,94L445,95L445,97L445,99L446,99L446,101L445,102L445,104L446,105L446,107L446,109L447,110L449,111L448,112L450,114L448,116L449,117L451,118L451,119L448,119L447,121L448,122L449,123L448,127L446,130L447,132L447,135L448,137L449,137L449,138L448,138L446,139L446,140L448,141L448,144L450,143L453,144L453,147L454,147L453,148L453,149L455,149L456,151L462,150L463,148L466,148L467,147L469,148L471,148L473,148L475,147L477,146L478,147L478,144L480,144L481,146L483,146L485,147L486,147L489,145L491,144L492,142L495,141L497,141L496,140L498,140L499,140L496,139L493,137L491,135L487,135L484,133L481,132L481,132L477,129L472,127L469,127L469,125L465,120L461,120L460,118L457,118L457,115L453,112L453,110L455,110L455,108L456,107L454,105L456,102L455,99L454,99L451,93L452,92C452,92 452,91 452,89L450,89L446,85L442,85z"></path>
        <path class="FR-GES area land" id="FR-55" d="M431,83L429,86L428,87L426,85L423,85L423,85L421,88L420,90L422,92L422,96L420,98L420,99L421,101L419,102L417,103L418,105L419,106L417,107L418,110L419,114L418,116L421,116L419,121L417,122L416,124L417,125L416,128L416,129L420,132L420,139L424,139L426,142L431,144L433,145L437,149L436,149L440,149L440,147L443,147L443,145L444,145L444,146L447,145L448,144L448,144L448,141L446,140L446,139L448,138L449,138L449,137L448,137L447,135L447,132L446,130L448,127L449,123L448,122L447,121L448,119L451,119L451,118L449,117L448,116L450,114L448,112L449,111L447,110L446,109L446,107L446,105L445,104L445,102L446,101L446,99L445,99L445,97L445,95L444,94L442,92L439,93L437,94L436,95L435,96L435,95L435,94L436,93L435,91L435,89L434,89L433,85L432,84L431,83z"></path>
        <path class="FR-BRE area land" id="FR-56" d="M107,155L104,157L102,157L99,159L100,160L101,164L102,166L107,167L109,169L110,168L111,170L111,171L110,174L109,174L108,175L106,175L105,179L107,182L110,183L111,182L111,184L113,185L117,188L118,190L117,193L117,195L119,197L120,196L119,194L119,191L122,191L122,189L123,190L125,192L126,190L125,188L127,191L130,190L129,189L132,189L134,192L133,193L130,193L128,191L126,193L128,194L130,196L140,196L143,196L142,197L142,199L142,199L143,199L145,197L146,199L149,199L152,197L158,195L158,189L159,189L157,185L159,184L158,183L157,182L159,181L161,179L160,178L158,178L158,176L159,174L158,171L155,170L153,170L152,169L152,168L153,167L154,164L154,162L153,162L149,162L147,159L146,159L144,160L144,162L141,164L139,163L138,161L137,162L135,162L134,160L132,160L130,158L127,159L125,156L122,156L121,158L118,159L115,158L114,157L112,158L110,158L110,156L107,156L107,155z"></path>
        <path class="FR-HDF area land" id="FR-59" d="M330,4L324,6L314,8L314,8L317,14L320,20L324,20L326,22L324,23L324,25L326,28L331,29L337,29L338,27L340,27L341,29L339,31L339,34L343,35L346,36L347,38L349,39L348,40L346,42L346,43L348,45L349,46L348,47L347,48L348,49L350,49L352,50L352,52L351,53L351,56L349,56L347,56L345,57L346,57L348,57L350,58L351,59L349,61L351,62L352,63L354,62L356,62L357,63L357,63L360,61L362,63L365,61L366,61L368,62L371,60L372,60L373,61L377,61L378,63L380,61L381,61L382,64L385,65L386,64L386,64L386,62L390,60L389,56L386,55L386,54L386,52L389,50L389,48L383,43L372,44L371,46L369,46L370,39L367,36L364,36L363,34L359,36L358,35L355,34L355,32L354,24L353,24L352,22L351,22L351,20L348,20L344,22L341,25L339,25L338,23L337,21L335,19L333,19L331,17L331,13L333,11L332,8L330,4z"></path>
        <path class="FR-OCC area land" id="FR-66" d="M344,453L340,456L340,458L322,458L322,461L324,464L316,468L316,467L309,468L309,469L305,470L303,472L297,473L298,475L300,478L306,480L306,483L309,486L312,485L315,481L319,481L325,483L330,487L332,485L333,485L335,486L336,486L336,483L341,482L343,479L346,478L350,478L353,481L356,481L356,478L354,476L352,475L351,458L349,457L344,453z"></path>
        <path class="FR-ARA area land" id="FR-69" d="M413,266L411,266L409,268L408,267L406,268L404,267L402,267L401,267L401,269L402,270L402,272L403,274L402,275L398,275L398,279L397,280L398,283L398,285L399,287L399,289L402,291L402,294L401,296L402,297L402,298L401,299L401,301L406,306L412,307L413,309L411,311L413,312L415,311L417,312L421,310L420,308L418,306L422,304L427,303L431,298L428,295L429,293L425,292L422,293L422,290L420,288L418,288L414,285L415,284L415,278L416,276L416,272L416,273L415,273L414,269L413,266z"></path>
        <path class="FR-NAQ area land" id="FR-64" d="M220,415L217,416L211,416L211,415L207,417L204,417L202,416L200,417L200,416L197,416L195,417L191,416L188,418L184,418L183,419L182,419L183,417L181,416L178,418L173,419L168,416L167,417L163,422L159,424L157,424L157,426L159,428L162,429L163,431L165,431L166,429L170,431L172,432L172,434L171,435L171,439L168,440L168,442L170,443L173,444L174,442L175,440L175,442L176,444L180,444L181,446L186,447L190,450L197,450L198,454L203,457L205,460L207,458L209,458L209,459L211,458L214,456L215,452L216,451L217,445L220,446L221,445L220,442L225,438L228,431L230,428L227,425L226,423L228,421L225,416L220,415L220,415z"></path>
        <path class="FR-ARA area land" id="FR-63" d="M342,270L340,273L340,272L338,272L338,274L336,274L335,277L334,278L331,276L331,280L333,282L333,285L331,287L331,290L328,291L325,293L325,295L330,299L330,302L328,305L328,307L329,309L330,312L330,313L335,315L337,318L340,318L341,317L343,318L344,318L347,322L350,322L350,321L351,321L352,320L355,319L357,318L359,318L359,316L361,316L361,316L362,316L363,317L366,317L368,316L369,317L371,317L372,319L374,320L375,318L376,319L379,319L380,317L382,319L384,319L385,319L383,318L383,316L386,313L385,306L380,303L378,298L375,295L376,291L378,289L375,287L375,286L372,285L371,283L368,283L366,283L366,280L364,279L362,281L359,280L358,280L352,280L347,277L347,275L345,273L346,271L345,270L342,270z"></path>
        <path class="FR-OCC area land" id="FR-65" d="M226,415L225,416L225,416L228,421L226,423L227,425L230,428L228,431L225,438L220,442L221,445L220,446L217,445L216,451L215,452L214,456L215,456L218,458L222,461L222,463L225,465L228,465L234,463L237,466L240,467L242,464L243,465L247,465L247,455L249,455L250,456L252,455L251,453L254,452L253,448L252,447L250,448L251,446L250,444L247,442L247,440L249,437L251,436L251,435L253,433L254,432L250,430L246,430L245,429L242,429L242,427L240,427L239,428L236,428L236,426L234,425L235,424L235,423L235,422L234,419L231,419L229,418L229,415L226,415z"></path>
        <path class="FR-OCC area land" id="FR-81" d="M315,384L312,384L310,386L309,385L307,386L307,385L306,386L304,387L301,389L296,389L295,392L297,392L295,394L294,396L291,396L292,398L291,400L292,400L292,402L295,405L295,405L295,407L297,410L298,412L298,414L297,414L298,416L302,417L303,419L305,421L308,422L310,422L310,424L310,425L311,425L311,427L315,427L318,428L318,424L320,424L326,425L332,425L336,424L337,420L334,418L335,415L336,413L339,415L346,412L347,410L343,408L342,407L341,409L339,409L336,408L332,403L332,401L330,398L330,396L329,392L326,391L324,387L318,386L315,384z"></path>
        <path class="FR-NOR area land" id="FR-50" d="M169,75L168,77L172,80L172,84L170,86L171,87L172,87L171,91L173,94L177,99L178,103L179,104L179,111L181,116L181,121L179,126L181,133L186,134L186,136L184,137L180,137L181,139L182,143L185,145L187,146L188,144L190,143L192,141L194,143L196,143L198,143L198,144L201,144L203,143L206,144L206,144L209,141L210,137L210,136L210,134L208,132L204,129L200,129L196,124L199,123L201,121L199,119L200,118L202,119L204,118L206,115L207,113L205,110L206,110L205,107L206,105L205,104L203,106L201,104L198,101L197,99L199,98L198,96L196,97L196,92L191,86L193,82L195,82L193,77L185,77L181,80L176,77L169,75z"></path>
        <path class="FR-GES area land" id="FR-51" d="M380,96L377,97L378,99L374,99L370,101L370,106L373,108L373,110L369,110L369,112L370,113L370,114L368,115L368,116L371,116L372,118L370,119L368,123L366,124L365,126L364,127L364,128L362,129L362,132L363,133L364,136L363,137L364,139L367,139L367,139L367,139L371,143L375,142L381,138L384,138L387,136L391,134L394,134L394,138L398,143L402,143L407,142L411,143L415,140L415,136L420,135L420,132L416,129L416,128L417,125L416,124L417,122L419,121L421,116L418,116L419,114L418,110L417,107L419,106L418,105L417,104C417,104 417,104 417,104L415,103L413,105L413,105L412,104L407,103L407,105L405,105L404,102L402,102L401,103L399,102L396,100L393,100L393,98L389,96L384,96L384,98L383,98L380,96z"></path>
        <path class="FR-GES area land" id="FR-52" d="M420,135L415,136L415,140L411,143L409,143L408,145L408,148L411,152L414,154L415,158L415,164L414,166L411,166L409,168L410,169L411,172L413,173L417,177L421,182L419,185L420,186L420,189L423,189L424,191L426,191L428,190L431,194L432,195L436,194L436,192L437,192L437,190L439,189L442,190L445,189L447,189L447,185L448,184L447,184L447,181L449,181L449,179L452,179L452,177L454,176L453,175L454,174L452,173L450,174L450,170L445,167L446,162L448,161L447,159L445,159L444,156L442,156L439,153L436,153L435,151L437,149L433,145L431,144L426,142L424,139L420,139L420,135z"></path>
        <path class="FR-GES area land" id="FR-57" d="M463,87L460,87L457,89L457,90L454,90L453,89L452,89C452,91 452,92 452,92L451,93L454,99L455,99L456,102L454,105L456,107L455,108L455,110L453,110L453,112L457,115L457,118L460,118L461,120L465,120L469,125L469,127L472,127L477,129L481,132L481,132L484,133L487,135L491,135L493,137L496,139L499,140L502,136L503,132L502,131L502,129L504,125L499,122L495,125L494,123L495,122L493,120L490,119L490,117L493,116L494,112L495,110L496,113L498,114L502,114L504,116L506,116L508,115L510,116L512,116L513,115L513,112L515,109L514,109L513,108L509,105L508,103L503,104L501,106L494,106L492,105C492,105 491,103 491,103C491,103 490,103 490,103C490,103 490,103 490,103C490,103 490,102 490,102C490,102 490,102 490,102C490,102 490,102 490,102C489,102 488,101 487,101L485,102L484,105L481,105L479,102L478,101L478,99L476,97L475,93L473,91L470,89L468,89L467,89L465,89L463,87z"></path>
        <path class="FR-BFC area land" id="FR-58" d="M350,197L349,198L347,198L345,198L342,199L342,201L345,203L345,207L343,209L343,212L347,214L347,217L349,221L349,225L351,227L350,232L350,235L351,237L349,241L349,243L353,244L355,247L357,245L359,244L359,246L362,246L363,244L365,245L365,248L367,247L370,242L372,244L372,244L375,242L377,243L378,245L379,245L381,243L382,243L384,241L385,241L385,240L388,240L389,240L387,239L387,237L389,236L389,235L387,234L387,232L387,230L386,230L387,228L388,228L389,226L388,225L387,224L388,222L390,220L393,220L393,218L394,218L394,217L393,215L390,215L389,213L390,212L390,210L389,208L386,211L385,211L383,210L384,207L382,207L380,208L380,207L381,206L380,204L379,206L379,207L376,207L372,203L369,203L369,201L367,200L366,198L366,198L366,201L365,202L363,201L361,202L360,203L359,202L358,202L355,200L353,200L352,200L352,198L351,197L350,197z"></path>
        <path class="FR-HDF area land" id="FR-60" d="M302,77L301,79L300,81L301,81L301,83L300,86L301,88L301,91L303,91L302,93L301,95L300,97L302,98L303,103L304,104L302,105L300,104L300,106L300,106L301,108L302,109L307,110L311,109L313,108L316,109L318,111L320,110L322,109L326,111L330,114L332,115L334,113L336,115L337,115L339,115L340,114L342,115L346,114L348,115L349,113L351,112L351,113L351,110L350,109L348,107L347,109L346,109L346,106L348,106L347,103L345,102L346,101L349,100L351,95L352,94L350,93L351,91L351,85L350,81L346,81L344,81L339,82L334,86L331,85L328,85L325,82L320,81L314,81L312,80L308,80L306,81L305,80L305,78L304,77L302,77z"></path>
        <path class="FR-NOR area land" id="FR-61" d="M253,120L249,121L248,120L244,121L244,122L243,123L243,121L241,121L239,124L235,126L231,128L228,126L224,127L222,124L220,125L217,127L213,126L210,130L206,131L208,132L210,134L210,136L210,137L209,141L206,144L207,146L209,147L212,146L214,147L219,144L224,145L227,143L228,142L230,141L231,143L232,147L234,148L235,151L239,152L244,147L249,147L250,149L251,156L255,157L256,160L260,160L261,161L261,159L262,159L264,163L266,163L266,159L265,157L265,156L267,154L270,153L272,151L272,144L268,141L268,137L264,135L266,133L265,130L262,129L260,128L259,125L254,125L252,123L253,120z"></path>
        <path class="FR-HDF area land" id="FR-62" d="M314,8L303,10L295,16L295,42L295,43L298,43L299,45L301,45L302,43L304,44L307,47L309,46L310,48L313,50L313,52L316,53L318,52L323,51L324,52L326,51L327,53L325,55L325,58L325,59L326,58L327,57L328,56L330,57L334,58L336,58L336,56L338,58L339,60L337,61L339,60L341,59L342,61L342,62L345,61L349,61L349,61L351,59L350,58L348,57L346,57L345,57L347,56L349,56L351,56L351,53L352,52L352,50L350,49L348,49L347,48L348,47L349,46L348,45L346,43L346,42L348,40L349,39L347,38L346,36L343,35L339,34L339,31L341,29L340,27L338,27L337,29L331,29L326,28L324,25L324,23L326,22L324,20L320,20L317,14L314,8z"></path>
        <path class="FR-GES area land" id="FR-67" d="M518,108L515,109L513,112L513,115L512,116L510,116L508,115L506,116L504,116L502,114L498,114L496,113L495,110L494,112L493,116L490,117L490,119L493,120L495,122L494,123L495,125L499,122L504,125L502,129L502,131L503,132L502,136L498,140L496,140L498,141L497,145L498,150L501,151L501,151L504,151L505,153L507,155L511,155L512,160L515,161L515,160L520,151L519,145L522,138L522,131L527,128L527,126L529,123L531,123L532,121L532,118L534,114L536,113L534,111L529,110L525,108L522,110L520,108L518,108z"></path>
        <path class="FR-GES area land" id="FR-68" d="M504,151L501,151L499,155L497,160L497,163L495,167L492,170L492,177L490,179L490,179L491,181L494,181L497,184L498,185L497,187L496,189L497,191L499,191L500,193L501,197L503,197L503,199L504,200L511,200L515,197L515,193L517,190L514,187L513,184L515,182L515,178L516,175L516,172L517,169L515,166L515,161L512,160L511,155L507,155L505,153L504,151z"></path>
        <path class="FR-BFC area land" id="FR-70" d="M463,170L459,170L459,172L457,173L456,172L455,172L455,174L453,175L454,176L452,177L452,179L449,179L449,181L447,181L447,184L448,184L447,185L447,189L445,189L442,190L439,189L437,190L437,192L439,192L440,195L440,197L438,200L437,200L436,201L438,202L439,205L440,205L440,209L441,210L441,210L443,211L444,212L447,212L448,211L449,211L451,211L455,208L456,208L457,207L461,207L464,205L466,204L467,202L469,202L471,199L473,197L476,197L478,198L481,197L481,196L483,195L484,193L486,193L487,192L488,189L488,187L487,184L487,182L488,181L490,180L490,179L484,176L482,174L480,173L479,174L479,175L477,176L476,176L473,173L469,173L468,174L466,174L464,172L464,170L463,170z"></path>
        <path class="FR-BFC area land" id="FR-71" d="M393,220L393,220L390,220L388,222L387,224L388,225L389,226L388,228L387,228L386,230L387,230L387,232L387,234L389,235L389,236L387,237L387,239L389,240L388,240L385,240L385,241L384,241L382,243L381,243L379,245L378,245L377,243L375,242L372,244L376,251L376,254L377,255L380,255L381,256L384,256L386,258L385,266L381,269L381,269L382,269L382,269L382,272L385,273L386,274L387,274L389,273L395,274L397,275L398,273L400,273L401,267L402,267L404,267L406,268L408,267L409,268L411,266L413,266L414,269L415,273L416,273L417,271L421,257L422,254L424,254L426,256L428,255L429,254L431,254L432,257L434,257L439,257L440,255L440,254L437,253L437,251L439,249L440,246L438,243L437,241L438,241L438,239L436,238L436,237L440,236L440,234L439,234L438,233L436,233L434,230L433,230L433,228L431,228L429,229L427,230L425,229L423,229L423,229L421,230L417,231L412,233L409,231L407,231L407,228L404,227L401,224L397,224L393,220L393,220z"></path>
        <path class="FR-PDL area land" id="FR-72" d="M249,147L244,147L239,152L236,151L232,153L231,154L231,159L231,161L228,163L228,165L228,166L227,168L228,169L225,169L224,171L226,174L225,175L224,176L222,176L221,177L222,178L222,184L221,185L223,187L223,189L226,189L233,191L241,196L244,197L245,194L249,197L251,197L250,193L252,195L253,193L259,191L258,189L259,187L262,186L265,183L265,179L266,179L267,176L267,172L266,171L267,168L269,165L267,163L264,163L262,159L261,159L261,161L260,160L256,160L255,157L251,156L250,149L249,147z"></path>
        <path class="FR-ARA area land" id="FR-73" d="M457,284L456,290L455,291L455,297L453,297L452,301L450,302L450,302L450,303L452,306L452,308L455,312L459,313L461,314L462,313L461,312L462,309L463,309L466,312L467,311L468,311L472,315L472,317L471,318L470,322L471,324L471,325L471,327L472,326L474,327L475,329L479,328L480,329L481,332L484,332L484,329L486,328L490,328L490,328L495,326L497,327L499,327L500,325L502,324L503,322L508,321L509,317L508,316L510,311L508,310L507,308L502,305C502,305 502,299 502,298C502,298 502,298 502,298C502,298 502,298 502,298C502,298 502,298 502,298C502,298 502,298 502,298C502,298 502,298 502,298C502,298 502,298 502,298C502,298 501,298 501,298C501,298 498,298 498,298L495,295L495,292L494,292L492,293L491,294L491,293L489,290L486,290L484,288L485,287L485,286L483,285L482,286L480,291L478,292L477,295L477,297L473,298L472,297L469,294L468,294L467,295L464,294L462,292L459,291L459,286L457,284z"></path>
        <path class="FR-ARA area land" id="FR-74" d="M485,257L481,258L476,262L475,260L473,260L471,264L471,266L473,268L470,270L467,272L463,272L461,274L459,274L458,276L456,275L456,281L457,283L457,285L459,286L459,291L462,292L464,294L467,295L468,294L469,294L472,297L473,298L477,297L477,295L478,292L480,291L482,286L483,285L485,286L485,287L484,288L486,290L489,290L491,293L491,294L492,293L494,292L495,292L495,288L502,286L502,284L502,280L498,275L497,276L497,274L497,272L493,270L493,268L495,266L495,263L491,260L491,257L485,257z"></path>
        <path class="FR-IDF area land" id="FR-75" d="M42,28L34,28L30,30L29,32L26,32L23,36L23,37L23,40L28,41L34,44L38,44L41,44L44,42L45,42L50,43L51,41L51,39L50,39L46,39L47,40L46,40L45,40L45,39L45,38L45,38L45,32L42,28z"></path>
        <path class="FR-NOR area land" id="FR-76" d="M287,59L286,61L278,67L263,71L254,74L246,78L242,85L241,90L244,93L250,94L249,94L249,94L253,94L256,92L257,91L259,94L262,94L263,96L267,96L272,99L269,100L271,102L273,102L274,104L276,104L277,103L275,102L280,100L284,100L286,96L288,94L292,94L297,96L300,97L301,95L302,93L303,91L301,91L301,88L300,86L301,83L301,81L300,81L301,79L303,77L301,73L300,70L292,62L291,60L289,60L287,59z"></path>
        <path class="FR-IDF area land" id="FR-77" d="M351,112L349,113L348,115L346,114L342,115L340,114L339,115L337,115L336,115L334,113L332,115L332,115L331,120L332,127L332,131L330,135L331,137L329,139L330,144L329,145L329,150L330,152L326,154L326,158L327,160L329,161L329,164L326,166L328,168L330,167L335,167L337,166L338,165L340,165L340,167L345,164L347,162L349,159L347,157L349,155L352,153L360,153L361,152L361,152L362,149L363,145L364,143L364,141L367,140L367,139L364,139L363,137L364,136L363,133L362,132L362,129L364,128L364,127L364,127L361,126L360,124L358,123L353,118L353,114L351,112z"></path>
        <path class="FR-IDF area land" id="FR-78" d="M296,114L296,114L291,116L290,117L291,118L291,120L293,120L292,121L292,122L292,122L294,124L295,126L296,127L295,129L295,131L297,133L295,135L297,138L299,140L300,142L302,143L303,147L304,149L307,150L308,147L309,145L308,143L311,143L313,141L311,139L312,137L314,135L315,133L317,132L318,132L319,132L319,132L317,130L316,127L318,123L317,120L314,118L309,118L304,115L301,116L296,114z"></path>
        <path class="FR-NAQ area land" id="FR-79" d="M229,222L224,222L219,223L214,223L214,226L211,228L205,226L201,228L203,231L203,233L208,237L207,239L210,243L208,244L210,247L211,252L210,254L211,256L210,259L210,260L211,259L213,261L211,263L210,264L208,264L205,265L205,265L205,268L207,270L207,272L210,274L214,274L217,278L221,277L225,280L227,281L228,283L229,284L231,283L231,282L232,281L232,279L234,279L238,277L241,276L242,274L239,274L238,271L239,269L240,267L240,264L239,264L237,264L237,265L236,267L234,265L234,264L235,262L233,261L233,257L233,257L233,255L234,253L234,252L235,250L234,248L232,248L234,244L235,243L235,242L233,240L233,239L234,238L234,237L235,236L234,233L233,230L233,228L231,228L231,224L231,224L229,223L229,222z"></path>
        <path class="FR-HDF area land" id="FR-80" d="M295,43L294,49L298,53L298,55L293,52L287,59L289,60L291,60L292,62L300,70L301,73L303,77L302,77L304,77L305,78L305,80L306,81L308,80L312,80L314,81L320,81L325,82L328,85L331,85L334,86L339,82L344,81L346,81L350,81L350,79L349,75L349,72L350,71L350,68L353,65L352,63L351,62L349,61L345,61L342,62L342,61L341,59L339,60L337,61L339,60L338,58L336,56L336,58L334,58L330,57L328,56L327,57L326,58L325,59L325,58L325,55L327,53L326,51L324,52L323,51L318,52L316,53L313,52L313,50L310,48L309,46L307,47L304,44L302,43L301,45L299,45L298,43L295,43z"></path>
        <path class="FR-OCC area land" id="FR-82" d="M266,372L265,376L267,379L266,382L265,384L266,386L262,387L259,387L260,390L258,391L259,391L262,391L263,391L265,391L262,392L262,394L260,396L260,398L264,398L265,399L265,402L267,403L265,405L266,406L268,405L273,405L275,404L276,404L278,406L283,405L284,403L282,402L283,402L284,400L285,400L286,401L287,400L290,399L291,400L292,398L291,396L294,396L295,394L297,392L295,392L296,389L301,389L304,387L306,386L307,385L306,383L308,379L305,379L305,375L301,377L298,376L296,378L293,378L293,381L291,381L290,379L290,379L288,379L285,382L282,382L281,379L281,378L281,377L280,379L278,379L277,377L275,377L274,375L275,373L275,372L273,372L273,373L269,374L266,372z"></path>
        <path class="FR-PAC area land" id="FR-83" d="M496,400L493,400L492,401L487,401L482,404L479,402L474,404L474,406L470,408L464,404L459,406L459,407L459,407L462,409L458,412L456,415L458,417L458,420L461,423L460,424L457,424L457,425L458,426L458,427L457,428L458,429L459,429L460,431L461,432L459,433L457,434L457,438L458,439L461,440L462,444L464,444L466,443L470,441L475,441L475,443L473,444L478,444L477,443L476,440L479,439L482,440L483,440L484,441L485,440L485,438L487,436L491,436L492,435L495,436L498,434L498,429L494,429L497,428L498,426L499,422L504,422L507,418L505,416L505,415L504,414L505,413L505,411L503,410L502,410L500,408L499,404L497,403L495,403L494,401L496,400z"></path>
        <path class="FR-PAC area land" id="FR-84" d="M428,369L425,369L423,372L423,376L427,376L426,378L424,378L421,381L420,380L421,376L419,375L414,375L413,377L414,378L417,383L417,387L423,393L423,395L421,397L421,397L428,400L430,403L432,405L436,406L440,406L447,409L451,410L457,409L459,407L459,406L455,401L451,401L451,400L452,398L452,396L449,394L449,391L450,391L450,388L448,388L448,385L448,385L447,385L444,383L443,380L438,380L434,380L433,377L435,375L432,377L428,376L428,375L430,371L428,369z"></path>
        <path class="FR-PDL area land" id="FR-85" d="M187,222L186,224L183,224L184,225L183,228L180,229L179,228L180,225L179,224L177,224L176,225L177,229L178,231L177,233L174,233L170,232L169,229L166,228L163,227L162,225L159,223L153,230L153,235L159,240L159,242L160,242L164,253L168,255L171,258L176,258L178,262L182,262L184,265L188,267L188,264L189,265L195,262L197,262L199,265L202,263L205,265L208,264L210,264L211,263L213,261L211,259L210,260L210,259L211,256L210,254L211,252L210,247L208,244L210,243L207,239L208,237L203,233L203,231L201,228L202,228L199,226L194,226L193,225L191,224L188,222L187,222z"></path>
        <path class="FR-NAQ area land" id="FR-86" d="M236,218L232,222L231,224L231,228L233,228L233,230L234,233L235,236L234,237L234,238L233,239L233,240L235,242L235,243L234,244L232,248L234,248L235,250L234,252L234,253L233,255L233,257L233,257L233,261L235,262L234,264L234,265L236,267L237,265L237,264L239,264L240,264L240,267L239,269L238,271L239,274L242,274L241,276L239,277L241,280L244,280L247,279L250,280L251,279L251,277L253,275L254,278L255,279L259,278L260,276L263,276L265,277L265,273L264,272L266,271L268,268L272,268L272,265L274,264L279,263L280,260L278,259L276,255L273,254L272,253L268,250L269,247L269,244L265,240L265,238L262,234L261,230L259,229L258,227L256,228L257,230L252,231L246,231L246,229L246,226L242,224L242,222L238,221L237,218L236,218z"></path>
        <path class="FR-NAQ area land" id="FR-87" d="M285,262L283,264L278,263L278,263L274,264L272,265L272,268L268,268L266,271L264,272L265,273L265,279L264,280L266,282L268,282L269,285L269,286L266,287L264,288L264,292L262,294L260,295L259,297L258,297L257,300L262,300L262,302L262,304L263,307L265,306L266,304L272,305L273,309L277,309L278,311L275,312L277,313L281,313L281,314L282,312L284,313L287,310L288,310L289,308L293,308L295,307L296,307L298,304L300,304L302,302L304,302L305,302L306,301L305,300L305,298L306,298L306,296L304,295L301,294L301,291L301,291L299,293L296,293L294,293L294,291L297,289L295,287L292,288L292,280L291,279L289,274L287,274L286,272L288,267L288,264L288,265L285,262z"></path>
        <path class="FR-GES area land" id="FR-88" d="M497,141L495,141L492,142L491,144L489,145L486,147L485,147L483,146L481,146L480,144L478,144L478,147L477,146L475,147L473,148L471,148L469,148L467,147L466,148L463,148L462,150L456,151L455,149L453,149L453,148L454,147L453,147L453,144L450,143L448,144L447,145L444,146L444,145L443,145L443,147L440,147L440,149L436,149L435,151L436,153L439,153L442,156L444,156L445,159L447,159L448,161L446,162L445,167L450,170L450,174L452,173L454,174L455,174L455,172L456,172L457,173L459,172L459,170L463,170L464,170L464,172L466,174L468,174L469,173L473,173L476,176L477,176L479,175L479,174L480,173L482,174L484,176L490,179L492,177L492,170L495,167L497,163L497,160L499,155L501,151L498,150L497,145L498,141L497,141z"></path>
        <path class="FR-BFC area land" id="FR-89" d="M361,152L360,153L352,153L349,155L347,157L349,159L347,162L345,164L348,167L349,170L352,173L352,176L347,180L349,182L348,185L345,187L342,187L342,189L345,192L345,195L346,198L345,198L347,198L349,198L350,197L351,197L352,198L352,200L353,200L355,200L358,202L359,202L360,203L361,202L363,201L365,202L366,201L366,198L366,198L367,200L369,201L369,203L372,203L376,207L379,207L379,206L380,204L381,206L380,207L380,208L382,207L384,207L383,210L385,211L386,211L389,208L389,208L387,207L387,205L389,204L390,203L389,202L389,200L391,198L393,193L393,191L395,191L395,190L394,190L394,188L396,186L397,184L396,182L395,182L394,182L394,179L396,178L396,177L396,175L395,177L393,177L392,175L388,177L381,177L380,174L378,172L377,168L374,165L373,166L369,163L370,158L365,153L363,153L361,152z"></path>
        <path class="FR-BFC area land" id="FR-90" d="M490,180L488,181L487,182L487,184L488,187L488,189L487,192L486,193L498,198L498,197L501,197L500,193L499,191L497,191L496,189L497,187L498,185L497,184L494,181L491,181L490,180z"></path>
        <path class="FR-IDF area land" id="FR-91" d="M318,132L317,132L315,133L314,135L312,137L311,139L313,141L311,143L308,143L309,145L308,147L307,150L308,150L309,152L309,153L309,158L315,157L318,155L320,157L325,157L326,158L326,154L330,152L329,150L329,145L330,144L329,139L331,137L330,135L328,134L325,134L323,133L321,134L318,132z"></path>
        <path class="FR-IDF area land" id="FR-92" d="M33,18L21,24L20,24L15,36L18,45L24,52L24,52L32,58L35,57L33,54L35,50L34,48L35,44L34,44L28,41L23,40L23,37L23,36L26,32L29,32L30,30L34,28L33,25L34,25L36,22L34,20L33,20L33,18z"></path>
        <path class="FR-IDF area land" id="FR-93" d="M64,8L58,13L49,17L33,18L33,20L34,20L36,22L34,25L33,25L34,28L42,28L45,32L45,38L48,37L50,35L54,36L59,38L62,41L63,42L64,43L67,44L67,35L64,13L64,8z"></path>
        <path class="FR-IDF area land" id="FR-94" d="M50,35L48,37L45,38L45,39L45,40L46,40L47,40L46,39L50,39L51,39L51,41L50,43L45,42L44,42L41,44L38,44L35,44L34,48L35,50L33,54L35,57L37,56L44,60L56,60L62,63L62,62L67,50L67,44L64,43L63,42L62,41L59,38L54,36L50,35z"></path>
        <path class="FR-IDF area land" id="FR-95" d="M300,106L299,108L298,112L296,114L301,116L304,115L309,118L314,118L317,120L318,123L318,123L318,123L321,121L326,121L329,120L331,119L332,115L330,114L326,111L322,109L320,110L318,111L316,109L313,108L311,109L307,110L302,109L301,108L300,106z"></path>
        <path class="FR-GUA area dom land" id="FR-971" d="M36,501L34,502L33,503L33,505L34,506L34,507L33,508L33,509L33,510L32,511L32,511L30,511L30,510L28,509L25,508L22,508L21,510L21,513L21,514L22,514L22,516L23,521L23,523C23,523 24,524 24,524C24,524 25,525 25,525L26,525L27,525L27,525L28,525L30,523L32,521L32,517L31,515L31,513L32,513L32,513L33,513L34,513L35,514L35,514L35,514L37,514L40,514L42,512L45,512L48,511L46,510L46,509L44,508L40,508L39,506L39,504L38,502L36,501z"></path>
        <path class="FR-MTQ area dom land" id="FR-972" d="M81,499C81,499 77,499 77,499C76,499 74,501 74,501L74,501L73,502L73,504L76,507L76,508L76,510L77,512L81,515L85,515L86,515L87,515L87,515L87,516L87,517L88,517L88,517C88,517 88,519 89,519L87,519L86,518L84,518L83,519L82,520L81,521L82,522L83,524L84,524C84,524 85,524 85,524C86,524 86,523 86,523C86,523 87,523 88,523C89,523 89,523 89,523L92,524L94,525L94,524L94,524L95,523L96,524L95,525L95,525L95,527L96,527L97,527L98,526L99,525L100,524L99,522L99,521L98,519L98,517C98,517 96,516 96,515C96,515 95,514 95,514L94,513C94,513 95,513 95,512C96,512 95,512 95,512L94,512L93,512L92,512L92,511L92,510L93,510L94,510L93,509L92,508L91,508L91,508L91,507L92,507L93,507L94,508L95,507L95,506L95,506L95,505L94,505L93,505L91,506L90,506L89,506L88,504L85,501L83,500L81,499z"></path>
        <path class="FR-GUF area dom land" id="FR-973" d="M131,498C131,498 131,498 131,498L130,500L128,502L127,503L127,507L127,511L128,513L129,515L130,516L129,517L129,520L129,523L128,525L126,526L126,527L128,527L129,528L131,528L132,527L136,526L138,527L139,528L140,528L143,526L145,522L147,518L149,516L151,513L152,511L151,510L150,507L149,507L147,506L146,504L144,503L143,503L140,501L137,500L135,499C135,499 134,499 134,499C133,499 132,498 131,498z"></path>
        <path class="FR-LRE area dom land" id="FR-974" d="M188,500L186,501L185,501L184,502L184,502L183,502L182,502L181,503L179,503L179,504L178,506C178,506 178,507 177,507C177,507 176,508 176,508L176,510L176,511L178,513L178,514L179,514L179,514L179,517L180,519L182,520L184,522L184,522L184,522L187,524L190,524L192,525L194,526L196,526C196,526 198,526 198,526C198,526 200,525 200,525L203,524L204,523L204,521L204,519L205,518L206,517L206,516L206,514L205,513L204,513L203,513L202,511C202,511 201,510 201,510C201,509 200,508 200,508L200,505L198,504L196,503C196,503 195,502 195,502C194,502 192,501 192,501C192,501 190,501 190,501L190,501L188,500z"></path>
        <path class="FR-MAY area dom land" id="FR-976" d="M246,526C246,526 245,526 245,526C245,527 245,526 245,526C244,526 244,526 244,527C244,527 244,527 244,527C244,527 244,527 244,527C244,526 244,526 243,526C242,526 242,526 242,526C242,527 242,527 242,527C242,527 242,527 242,527C242,527 242,527 242,527C242,528 241,528 241,528C241,528 241,527 241,527C241,527 240,527 240,527C240,527 240,527 240,527C240,527 240,527 240,526C239,526 239,526 239,526C239,526 238,527 238,527C238,527 238,526 238,526C238,526 238,526 238,525C238,525 239,524 238,524C238,524 238,525 237,525C237,525 237,525 237,525C236,525 236,524 236,524C236,524 236,524 236,524C236,524 236,524 237,524C237,524 237,524 237,523C238,523 238,522 238,522C238,522 237,521 237,521C237,521 237,522 237,521C237,521 236,521 236,521C236,521 236,521 236,520C236,520 236,520 236,520C235,519 235,519 235,519C235,519 236,519 236,519C236,519 236,519 237,519C237,519 237,519 237,519C237,519 237,519 238,519C238,520 238,520 238,520C238,520 238,520 238,521C238,521 238,521 238,521C238,521 239,521 239,522C239,522 239,522 240,522C240,522 240,522 240,522C241,522 241,522 241,522C241,522 242,522 242,521C242,521 242,521 242,521C242,521 242,521 242,521C242,521 241,520 241,520C241,520 241,520 241,520C241,520 241,520 241,520C241,519 241,519 241,519C240,519 240,519 240,518C240,518 240,518 240,518C240,518 240,518 240,518C239,518 239,517 238,517C238,516 238,516 238,516C238,516 237,516 237,516C237,516 237,516 237,515C237,515 237,515 237,515C237,515 237,515 237,515C238,514 239,515 239,514C239,514 239,514 238,514C238,514 238,514 238,514C237,514 238,514 238,513C238,513 238,513 238,512C238,512 237,512 237,511C238,511 238,511 238,511C238,510 238,510 237,510C237,510 237,510 237,510C237,510 237,510 238,509C238,509 238,509 238,509C238,508 237,508 237,508C237,509 236,508 236,508C236,508 235,508 235,508C235,508 235,508 235,508C235,508 235,508 235,507C235,507 234,507 234,507C234,507 234,507 233,507C233,507 233,507 233,507C233,507 233,507 233,507C233,507 233,506 233,506C233,506 234,505 234,505C234,504 233,505 233,505C233,504 233,504 233,504C233,503 233,503 233,503C234,503 234,503 234,503C234,503 235,503 235,503C235,503 235,502 235,502C235,502 235,502 235,502C235,501 235,501 235,501C236,501 236,501 236,501C236,501 236,500 236,500C236,500 236,500 237,500C237,500 237,500 237,500C237,499 237,499 237,499C237,499 237,499 238,499C238,499 238,498 238,499C238,499 238,499 238,499C238,500 238,500 238,500C237,500 236,500 237,501C237,501 237,501 238,501C238,501 237,501 238,501C238,501 238,501 238,501C238,501 238,502 238,502C239,502 238,502 239,502C239,502 239,503 239,503C239,503 240,503 240,503C240,503 240,503 240,503C240,503 239,503 240,504C240,504 240,504 240,504C240,505 240,505 240,505C241,505 241,505 241,505C241,505 241,505 241,505C241,505 241,505 242,505C242,506 243,505 243,505C243,505 243,505 244,505C244,505 244,505 244,505C244,505 245,505 245,505C245,505 245,505 245,505C246,505 246,505 246,505C246,505 246,505 246,506C247,506 246,506 247,506C247,506 247,505 247,506C247,506 247,506 247,506C247,506 247,506 247,506C247,506 248,506 248,507C248,507 248,507 248,507C248,507 249,507 249,507C249,507 249,508 249,508C249,508 248,509 249,509C249,509 249,510 249,510C249,510 248,510 248,510C248,510 247,510 247,511C247,511 247,511 247,512C246,512 246,512 246,512C246,513 246,513 246,513C245,513 245,513 245,513C245,513 245,514 245,514C245,514 245,514 245,514C245,514 245,514 245,515C245,515 245,515 245,515C245,515 245,515 245,515C245,515 246,516 246,516C246,516 246,516 246,516C246,516 246,516 246,516C246,516 247,516 247,516C247,517 247,517 247,517C247,517 247,517 247,517C247,517 247,517 247,517C247,518 247,518 247,518C247,518 246,519 246,519C246,519 246,519 246,519C245,520 246,520 246,520C246,521 246,521 245,521C245,521 245,521 245,521C244,521 244,521 244,522C244,522 244,522 244,522C244,523 244,523 244,523C243,523 243,523 243,524C243,524 244,524 244,524C244,525 244,525 244,525C245,525 245,525 245,525C245,525 245,526 245,526C245,526 246,525 246,526C246,526 246,526 246,526 M253,511C253,511 253,511 253,511C253,511 253,511 253,511C253,511 253,511 253,511C253,511 253,511 253,512C253,512 253,512 252,512C252,512 252,512 252,512C252,512 252,512 252,512C252,512 252,512 252,512C252,512 252,512 252,512C252,511 252,511 252,511C252,511 252,511 252,511C252,511 252,511 252,511C251,511 251,511 251,511C251,511 251,510 251,510C251,510 251,510 251,510C251,510 251,510 251,510C250,510 250,510 250,510C250,509 250,510 251,510C251,510 251,510 251,510C251,510 251,510 251,510C251,510 251,510 251,510C251,510 251,509 251,509C251,509 251,509 251,509C251,509 251,509 251,509C251,509 251,509 251,509C251,509 251,509 251,509C252,509 252,509 252,509C252,509 252,509 252,509C252,509 252,508 252,508C252,508 252,508 252,508C252,508 252,508 252,508C252,508 253,508 253,508C253,508 253,508 253,508C253,508 253,508 253,508C253,508 253,508 253,508C253,508 253,508 253,508C253,509 253,509 253,509C253,509 253,509 253,509C254,509 254,509 254,509C254,509 254,509 254,509C254,510 254,510 254,510C254,510 254,510 254,510C254,510 253,510 253,510C253,510 254,511 254,511C253,511 253,511 253,511"></path>
    </g>
</svg>
