<?xml version="1.0" encoding="UTF-8" standalone="no"?>
<svg
   xmlns:dc="http://purl.org/dc/elements/1.1/"
   xmlns:cc="http://creativecommons.org/ns#"
   xmlns:rdf="http://www.w3.org/1999/02/22-rdf-syntax-ns#"
   xmlns:svg="http://www.w3.org/2000/svg"
   xmlns="http://www.w3.org/2000/svg"
   xmlns:xlink="http://www.w3.org/1999/xlink"
   xmlns:sodipodi="http://sodipodi.sourceforge.net/DTD/sodipodi-0.dtd"
   xmlns:inkscape="http://www.inkscape.org/namespaces/inkscape"
   inkscape:version="1.0.1 (c497b03c, 2020-09-10)"
   sodipodi:docname="Drapeau_fr deÌpartement_Meuse.svg"
   id="svg2"
   height="533.33331"
   width="800"
   version="1.0">
  <metadata
     id="metadata114">
    <rdf:RDF>
      <cc:Work
         rdf:about="">
        <dc:format>image/svg+xml</dc:format>
        <dc:type
           rdf:resource="http://purl.org/dc/dcmitype/StillImage" />
      </cc:Work>
    </rdf:RDF>
  </metadata>
  <sodipodi:namedview
     inkscape:current-layer="svg2"
     inkscape:window-maximized="0"
     inkscape:window-y="25"
     inkscape:window-x="0"
     inkscape:cy="243.47909"
     inkscape:cx="230.19192"
     inkscape:zoom="0.49497475"
     showgrid="false"
     id="namedview112"
     inkscape:window-height="942"
     inkscape:window-width="1920"
     inkscape:pageshadow="2"
     inkscape:pageopacity="0"
     guidetolerance="10"
     gridtolerance="10"
     objecttolerance="10"
     borderopacity="1"
     inkscape:document-rotation="0"
     bordercolor="#666666"
     pagecolor="#ffffff" />
  <defs
     id="defs6">
    <g
       id="b">
      <path
         id="a"
         d="M0 0v1h.5L0 0z"
         transform="rotate(18 3.15687723 -.49999528)" />
      <use
         width="810"
         height="540"
         transform="scale(-1 1)"
         xlink:href="#a"
         id="use697" />
    </g>
    <g
       id="e">
      <path
         id="d"
         d="M0 0v1h.5L0 0z"
         transform="rotate(18 3.15687723 -.49999528)" />
      <use
         width="810"
         height="540"
         transform="scale(-1 1)"
         xlink:href="#d"
         id="use706" />
    </g>
    <g
       id="h">
      <path
         id="g"
         d="M0 0v1h.5L0 0z"
         transform="rotate(18 3.15687723 -.49999528)" />
      <use
         width="810"
         height="540"
         transform="scale(-1 1)"
         xlink:href="#g"
         id="use715" />
    </g>
    <g
       id="k">
      <path
         id="j"
         d="M0 0v1h.5L0 0z"
         transform="rotate(18 3.15687723 -.49999528)" />
      <use
         width="810"
         height="540"
         transform="scale(-1 1)"
         xlink:href="#j"
         id="use724" />
    </g>
    <g
       id="n">
      <path
         id="m"
         d="M0 0v1h.5L0 0z"
         transform="rotate(18 3.15687723 -.49999528)" />
      <use
         width="810"
         height="540"
         transform="scale(-1 1)"
         xlink:href="#m"
         id="use733" />
    </g>
    <g
       id="q">
      <path
         id="p"
         d="M0 0v1h.5L0 0z"
         transform="rotate(18 3.15687723 -.49999528)" />
      <use
         width="810"
         height="540"
         transform="scale(-1 1)"
         xlink:href="#p"
         id="use742" />
    </g>
    <g
       id="t">
      <path
         id="s"
         d="M0 0v1h.5L0 0z"
         transform="rotate(18 3.15687723 -.49999528)" />
      <use
         width="810"
         height="540"
         transform="scale(-1 1)"
         xlink:href="#s"
         id="use751" />
    </g>
    <g
       id="w">
      <path
         id="v"
         d="M0 0v1h.5L0 0z"
         transform="rotate(18 3.15687723 -.49999528)" />
      <use
         width="810"
         height="540"
         transform="scale(-1 1)"
         xlink:href="#v"
         id="use760" />
    </g>
    <g
       id="z">
      <path
         id="y"
         d="M0 0v1h.5L0 0z"
         transform="rotate(18 3.15687723 -.49999528)" />
      <use
         width="810"
         height="540"
         transform="scale(-1 1)"
         xlink:href="#y"
         id="use769" />
    </g>
    <g
       id="D">
      <path
         id="C"
         d="M0 0v1h.5L0 0z"
         transform="rotate(18 3.15687723 -.49999528)" />
      <use
         width="810"
         height="540"
         transform="scale(-1 1)"
         xlink:href="#C"
         id="use778" />
    </g>
    <g
       id="G">
      <path
         id="F"
         d="M0 0v1h.5L0 0z"
         transform="rotate(18 3.15687723 -.49999528)" />
      <use
         width="810"
         height="540"
         transform="scale(-1 1)"
         xlink:href="#F"
         id="use787" />
    </g>
    <g
       id="J">
      <path
         id="I"
         d="M0 0v1h.5L0 0z"
         transform="rotate(18 3.15687723 -.49999528)" />
      <use
         width="810"
         height="540"
         transform="scale(-1 1)"
         xlink:href="#I"
         id="use796" />
    </g>
    <g
       id="N">
      <path
         id="M"
         d="M0 0v1h.5L0 0z"
         transform="rotate(18 3.15687723 -.49999528)" />
      <use
         width="810"
         height="540"
         transform="scale(-1 1)"
         xlink:href="#M"
         id="use805" />
    </g>
    <g
       id="Q">
      <path
         id="P"
         d="M0 0v1h.5L0 0z"
         transform="rotate(18 3.15687723 -.49999528)" />
      <use
         width="810"
         height="540"
         transform="scale(-1 1)"
         xlink:href="#P"
         id="use814" />
    </g>
    <g
       id="T">
      <path
         id="S"
         d="M0 0v1h.5L0 0z"
         transform="rotate(18 3.15687723 -.49999528)" />
      <use
         width="810"
         height="540"
         transform="scale(-1 1)"
         xlink:href="#S"
         id="use823" />
    </g>
    <g
       id="X">
      <path
         id="W"
         d="M0 0v1h.5L0 0z"
         transform="rotate(18 3.15687723 -.49999528)" />
      <use
         width="810"
         height="540"
         transform="scale(-1 1)"
         xlink:href="#W"
         id="use832" />
    </g>
  </defs>
  <path
     inkscape:connector-curvature="0"
     id="rect1698"
     style="fill:#2b5df2;fill-opacity:1;stroke:none;stroke-width:1.51083;stroke-linecap:round;stroke-linejoin:round;stroke-miterlimit:4;stroke-dasharray:none"
     d="M 3.0793619e-6,3.20319e-6 V 533.33332 H 799.99998 V 3.20319e-6 Z"
     sodipodi:nodetypes="ccccc" />
  <g
     id="g441">
    <path
       style="display:inline;fill:#fcef3c;fill-opacity:1;stroke:#000000;stroke-width:3;stroke-miterlimit:4;stroke-dasharray:none;stroke-opacity:1"
       sodipodi:nodetypes="cccccccccccccccccccccccccccccccccccccccc"
       id="path4256"
       d="m 255.61117,241.76016 -4.84868,23.83018 -4.8487,-23.83018 v -19.52761 -25.21319 h -25.21318 v 14.54606 h -9.69738 v -14.54606 h -14.54607 v -9.69739 h 14.54607 V 172.7759 h 9.69738 v 14.54607 h 25.21318 v -25.21319 h -14.54606 v -9.69738 h 14.54606 v -14.54607 h 9.69738 v 14.54607 h 14.54608 v 9.69738 h -14.54608 v 25.21319 h 25.2132 V 172.7759 h 9.69738 v 14.54607 h 14.54607 v 9.69739 h -14.54607 v 14.54606 h -9.69738 v -14.54606 h -25.2132 v 25.21319 z" />
    <path
       style="display:inline;fill:#fcef3c;fill-opacity:1;stroke:#000000;stroke-width:3;stroke-miterlimit:4;stroke-dasharray:none;stroke-opacity:1"
       sodipodi:nodetypes="cccccccccccccccccccccccccccccccccccccccc"
       id="path4252"
       d="m 479.46742,109.80449 -4.84869,23.83018 -4.84869,-23.83018 V 90.276886 65.063662 h -25.2132 v 14.546074 h -9.69738 V 65.063662 h -14.54607 v -9.697377 h 14.54607 v -14.54607 h 9.69738 v 14.54607 h 25.2132 V 30.153094 h -14.54608 v -9.697379 h 14.54608 V 5.909645 h 9.69738 v 14.54607 h 14.54607 v 9.697379 h -14.54607 v 25.213191 h 25.21319 v -14.54607 h 9.69738 v 14.54607 h 14.54607 v 9.697377 h -14.54607 v 14.546074 h -9.69738 V 65.063662 h -25.21319 v 25.213224 z" />
    <path
       style="display:inline;fill:#fcef3c;fill-opacity:1;stroke:#000000;stroke-width:3;stroke-miterlimit:4;stroke-dasharray:none;stroke-opacity:1"
       sodipodi:nodetypes="cccccccccccccccccccccccccccccccccccccccc"
       id="path4262"
       d="m 628.70494,109.8045 -4.84868,23.83018 -4.8487,-23.83018 V 90.276886 65.063671 H 593.79438 V 79.609746 H 584.097 V 65.063671 H 569.55093 V 55.366292 H 584.097 v -14.54608 h 9.69738 v 14.54608 h 25.21318 V 30.153093 H 604.4615 v -9.697381 h 14.54606 V 5.909642 h 9.69738 v 14.54607 h 14.54608 v 9.697381 h -14.54608 v 25.213199 h 25.2132 v -14.54608 h 9.69738 v 14.54608 h 14.54607 v 9.697379 h -14.54607 v 14.546075 h -9.69738 V 65.063671 h -25.2132 v 25.213215 z" />
    <path
       style="display:inline;fill:#fcef3c;fill-opacity:1;stroke:#000000;stroke-width:3;stroke-miterlimit:4;stroke-dasharray:none;stroke-opacity:1"
       sodipodi:nodetypes="cccccccccccccccccccccccccccccccccccccccc"
       id="path4264"
       d="m 330.22992,109.80449 -4.84868,23.83018 -4.8487,-23.83018 V 90.276876 65.063671 h -25.21318 v 14.546075 h -9.69738 V 65.063671 h -14.54607 v -9.69738 h 14.54607 v -14.54607 h 9.69738 v 14.54607 h 25.21318 V 30.153102 h -14.54606 v -9.697381 h 14.54606 V 5.909652 h 9.69738 V 20.455721 H 344.776 v 9.697381 h -14.54608 v 25.213189 h 25.2132 v -14.54607 h 9.69738 v 14.54607 h 14.54607 v 9.69738 H 365.1405 v 14.546075 h -9.69738 V 65.063671 h -25.2132 v 25.213205 z" />
    <path
       style="display:inline;fill:#fcef3c;fill-opacity:1;stroke:#000000;stroke-width:3;stroke-miterlimit:4;stroke-dasharray:none;stroke-opacity:1"
       sodipodi:nodetypes="cccccccccccccccccccccccccccccccccccccccc"
       id="path4270"
       d="m 554.08622,241.76016 -4.84868,23.83018 -4.8487,-23.83018 v -19.52761 -25.2132 h -25.21318 v 14.54607 h -9.69738 v -14.54607 h -14.54607 v -9.69738 h 14.54607 V 172.7759 h 9.69738 v 14.54607 h 25.21318 v -25.21319 h -14.54606 v -9.69738 h 14.54606 v -14.54607 h 9.69738 v 14.54607 h 14.54608 v 9.69738 h -14.54608 v 25.21319 h 25.2132 V 172.7759 h 9.69738 v 14.54607 h 14.54607 v 9.69738 H 588.9968 v 14.54607 h -9.69738 v -14.54607 h -25.2132 v 25.2132 z" />
    <path
       style="display:inline;fill:#fcef3c;fill-opacity:1;stroke:#000000;stroke-width:3;stroke-miterlimit:4;stroke-dasharray:none;stroke-opacity:1"
       sodipodi:nodetypes="cccccccccccccccccccccccccccccccccccccccc"
       id="path4272"
       d="m 404.84872,241.76016 -4.84868,23.83018 -4.8487,-23.83018 v -19.52761 -25.21319 h -25.21318 v 14.54606 h -9.69738 v -14.54606 h -14.54607 v -9.69739 h 14.54607 V 172.7759 h 9.69738 v 14.54607 h 25.21318 v -25.21319 h -14.54606 v -9.69738 h 14.54606 v -14.54607 h 9.69738 v 14.54607 h 14.54608 v 9.69738 h -14.54608 v 25.21319 h 25.2132 V 172.7759 h 9.69738 v 14.54607 h 14.54607 v 9.69739 H 439.7593 v 14.54606 h -9.69738 v -14.54606 h -25.2132 v 25.21319 z" />
    <path
       style="display:inline;fill:#fcef3c;fill-opacity:1;stroke:#000000;stroke-width:3;stroke-miterlimit:4;stroke-dasharray:none;stroke-opacity:1"
       sodipodi:nodetypes="cccccccccccccccccccccccccccccccccccccccc"
       id="path4309"
       d="m 479.46742,372.48529 -4.84869,23.83018 -4.84869,-23.83018 v -19.5276 -25.21322 h -25.2132 v 14.54607 h -9.69738 v -14.54607 h -14.54607 v -9.69738 h 14.54607 v -14.54607 h 9.69738 v 14.54607 h 25.2132 V 292.8339 h -14.54608 v -9.69738 h 14.54608 v -14.54607 h 9.69738 v 14.54607 h 14.54607 v 9.69738 h -14.54607 v 25.21319 h 25.21319 v -14.54607 h 9.69738 v 14.54607 h 14.54607 v 9.69738 h -14.54607 v 14.54607 h -9.69738 v -14.54607 h -25.21319 v 25.21322 z" />
    <path
       style="display:inline;fill:#fcef3c;fill-opacity:1;stroke:#000000;stroke-width:3;stroke-miterlimit:4;stroke-dasharray:none;stroke-opacity:1"
       sodipodi:nodetypes="cccccccccccccccccccccccccccccccccccccccc"
       id="path4317"
       d="m 330.22992,372.48529 -4.84868,23.83018 -4.8487,-23.83018 v -19.52761 -25.2132 h -25.21318 v 14.54607 h -9.69738 v -14.54607 h -14.54607 v -9.69738 h 14.54607 v -14.54607 h 9.69738 v 14.54607 h 25.21318 v -25.21319 h -14.54606 v -9.69738 h 14.54606 v -14.54607 h 9.69738 v 14.54607 H 344.776 v 9.69738 h -14.54608 v 25.21319 h 25.2132 v -14.54607 h 9.69738 v 14.54607 h 14.54607 v 9.69738 H 365.1405 v 14.54607 h -9.69738 v -14.54607 h -25.2132 v 25.2132 z" />
    <path
       style="display:inline;fill:#fcef3c;fill-opacity:1;stroke:#000000;stroke-width:3;stroke-miterlimit:4;stroke-dasharray:none;stroke-opacity:1"
       sodipodi:nodetypes="cccccccccccccccccccccccccccccccccccccccc"
       id="path4311"
       d="m 255.61122,504.79444 -4.84868,23.83017 -4.8487,-23.83017 v -19.52761 -25.21319 h -25.21318 v 14.54606 h -9.69738 v -14.54606 h -14.54607 v -9.69739 h 14.54607 v -14.54607 h 9.69738 v 14.54607 h 25.21318 v -25.21319 h -14.54606 v -9.69738 h 14.54606 v -14.54607 h 9.69738 v 14.54607 h 14.54608 v 9.69738 h -14.54608 v 25.21319 h 25.2132 v -14.54607 h 9.69738 v 14.54607 h 14.54607 v 9.69739 H 290.5218 v 14.54606 h -9.69738 v -14.54606 h -25.2132 v 25.21319 z" />
    <path
       style="display:inline;fill:#fcef3c;fill-opacity:1;stroke:#000000;stroke-width:3;stroke-miterlimit:4;stroke-dasharray:none;stroke-opacity:1"
       sodipodi:nodetypes="cccccccccccccccccccccccccccccccccccccccc"
       id="path4319"
       d="m 554.08627,504.79444 -4.84868,23.83017 -4.8487,-23.83017 v -19.52761 -25.2132 h -25.21318 v 14.54607 h -9.69738 v -14.54607 h -14.54607 v -9.69738 h 14.54607 v -14.54607 h 9.69738 v 14.54607 h 25.21318 v -25.21319 h -14.54606 v -9.69738 h 14.54606 v -14.54607 h 9.69738 v 14.54607 h 14.54608 v 9.69738 h -14.54608 v 25.21319 h 25.2132 v -14.54607 h 9.69738 v 14.54607 h 14.54607 v 9.69738 h -14.54607 v 14.54607 h -9.69738 v -14.54607 h -25.2132 v 25.2132 z" />
    <path
       style="display:inline;fill:#fcef3c;fill-opacity:1;stroke:#000000;stroke-width:3;stroke-miterlimit:4;stroke-dasharray:none;stroke-opacity:1"
       sodipodi:nodetypes="cccccccccccccccccccccccccccccccccccccccc"
       id="path4321"
       d="m 404.84877,504.79444 -4.84868,23.83017 -4.8487,-23.83017 v -19.52761 -25.21319 h -25.21318 v 14.54606 h -9.69738 v -14.54606 h -14.54607 v -9.69739 h 14.54607 v -14.54607 h 9.69738 v 14.54607 h 25.21318 v -25.21319 h -14.54606 v -9.69738 h 14.54606 v -14.54607 h 9.69738 v 14.54607 h 14.54608 v 9.69738 h -14.54608 v 25.21319 h 25.2132 v -14.54607 h 9.69738 v 14.54607 h 14.54607 v 9.69739 h -14.54607 v 14.54606 h -9.69738 v -14.54606 h -25.2132 v 25.21319 z" />
    <g
       id="layer4"
       inkscape:label="Meubles"
       transform="translate(-758.78526,7.3810054)" />
    <path
       style="display:inline;fill:#fcef3c;fill-opacity:1;stroke:#000000;stroke-width:3;stroke-miterlimit:4;stroke-dasharray:none;stroke-opacity:1"
       sodipodi:nodetypes="cccccccccccccccccccccccccccccccccccccccc"
       id="path4313"
       d="m 180.99241,372.48529 -4.84868,23.83018 -4.8487,-23.83018 v -19.52761 -25.2132 h -25.21318 v 14.54607 h -9.69738 V 327.74448 H 121.8384 v -9.69739 h 14.54607 v -14.54607 h 9.69738 v 14.54607 h 25.21318 V 292.8339 h -14.54606 v -9.69738 h 14.54606 v -14.54607 h 9.69738 v 14.54607 h 14.54608 v 9.69738 h -14.54608 v 25.21319 h 25.2132 v -14.54607 h 9.69738 v 14.54607 h 14.54607 v 9.69739 h -14.54607 v 14.54607 h -9.69738 v -14.54607 h -25.2132 v 25.2132 z" />
    <path
       id="path367"
       style="display:inline;fill:#fcef3c;fill-opacity:1;stroke:#000000;stroke-width:3;stroke-miterlimit:4;stroke-dasharray:none;stroke-opacity:1"
       d="M 22.056641 5.9101562 L 22.056641 20.455078 L 7.5117188 20.455078 L 7.5117188 30.152344 L 22.056641 30.152344 L 22.056641 55.367188 L 0 55.367188 L 0 65.064453 L 22.056641 65.064453 L 22.056641 90.277344 L 22.056641 109.80469 L 26.90625 133.63477 L 31.755859 109.80469 L 31.755859 90.277344 L 31.755859 65.064453 L 56.96875 65.064453 L 56.96875 79.609375 L 66.666016 79.609375 L 66.666016 65.064453 L 81.210938 65.064453 L 81.210938 55.367188 L 66.666016 55.367188 L 66.666016 40.820312 L 56.96875 40.820312 L 56.96875 55.367188 L 31.755859 55.367188 L 31.755859 30.152344 L 46.300781 30.152344 L 46.300781 20.455078 L 31.755859 20.455078 L 31.755859 5.9101562 L 22.056641 5.9101562 z M 768.24414 5.9101562 L 768.24414 20.455078 L 753.69922 20.455078 L 753.69922 30.152344 L 768.24414 30.152344 L 768.24414 55.367188 L 743.03125 55.367188 L 743.03125 40.820312 L 733.33398 40.820312 L 733.33398 55.367188 L 718.78906 55.367188 L 718.78906 65.064453 L 733.33398 65.064453 L 733.33398 79.609375 L 743.03125 79.609375 L 743.03125 65.064453 L 768.24414 65.064453 L 768.24414 90.277344 L 768.24414 109.80469 L 773.09375 133.63477 L 777.94336 109.80469 L 777.94336 90.277344 L 777.94336 65.064453 L 800 65.064453 L 800 55.367188 L 777.94336 55.367188 L 777.94336 30.152344 L 792.48828 30.152344 L 792.48828 20.455078 L 777.94336 20.455078 L 777.94336 5.9101562 L 768.24414 5.9101562 z M 22.056641 268.58984 L 22.056641 283.13672 L 7.5117188 283.13672 L 7.5117188 292.83398 L 22.056641 292.83398 L 22.056641 318.04688 L 0 318.04688 L 0 327.74414 L 22.056641 327.74414 L 22.056641 352.95703 L 22.056641 372.48438 L 26.90625 396.31641 L 31.755859 372.48438 L 31.755859 352.95703 L 31.755859 327.74414 L 56.96875 327.74414 L 56.96875 342.29102 L 66.666016 342.29102 L 66.666016 327.74414 L 81.210938 327.74414 L 81.210938 318.04688 L 66.666016 318.04688 L 66.666016 303.50195 L 56.96875 303.50195 L 56.96875 318.04688 L 31.755859 318.04688 L 31.755859 292.83398 L 46.300781 292.83398 L 46.300781 283.13672 L 31.755859 283.13672 L 31.755859 268.58984 L 22.056641 268.58984 z M 768.24414 268.58984 L 768.24414 283.13672 L 753.69922 283.13672 L 753.69922 292.83398 L 768.24414 292.83398 L 768.24414 318.04688 L 743.03125 318.04688 L 743.03125 303.50195 L 733.33398 303.50195 L 733.33398 318.04688 L 718.78906 318.04688 L 718.78906 327.74414 L 733.33398 327.74414 L 733.33398 342.29102 L 743.03125 342.29102 L 743.03125 327.74414 L 768.24414 327.74414 L 768.24414 352.95703 L 768.24414 372.48438 L 773.09375 396.31641 L 777.94336 372.48438 L 777.94336 352.95703 L 777.94336 327.74414 L 800 327.74414 L 800 318.04688 L 777.94336 318.04688 L 777.94336 292.83398 L 792.48828 292.83398 L 792.48828 283.13672 L 777.94336 283.13672 L 777.94336 268.58984 L 768.24414 268.58984 z " />
    <path
       style="display:inline;fill:#fcef3c;fill-opacity:1;stroke:#000000;stroke-width:3;stroke-miterlimit:4;stroke-dasharray:none;stroke-opacity:1"
       sodipodi:nodetypes="cccccccccccccccccccccccccccccccccccccccc"
       id="path379"
       d="m 180.99241,109.80449 -4.84868,23.83018 -4.8487,-23.83018 v -19.527609 -25.2132 h -25.21318 v 14.54607 h -9.69738 V 65.063681 H 121.8384 v -9.69739 h 14.54607 v -14.54607 h 9.69738 v 14.54607 h 25.21318 v -25.21319 h -14.54606 v -9.69738 h 14.54606 V 5.909651 h 9.69738 v 14.54607 h 14.54608 v 9.69738 h -14.54608 v 25.21319 h 25.2132 v -14.54607 h 9.69738 v 14.54607 h 14.54607 v 9.69739 h -14.54607 v 14.54607 h -9.69738 v -14.54607 h -25.2132 v 25.2132 z" />
    <path
       style="display:inline;fill:#fcef3c;fill-opacity:1;stroke:#000000;stroke-width:3;stroke-miterlimit:4;stroke-dasharray:none;stroke-opacity:1"
       sodipodi:nodetypes="cccccccccccccccccccccccccccccccccccccccc"
       id="path4315"
       d="m 628.70494,372.4853 -4.84868,23.83018 -4.8487,-23.83018 v -19.52761 -25.21321 h -25.21318 v 14.54607 H 584.097 V 327.74448 H 569.55093 V 318.0471 H 584.097 v -14.54608 h 9.69738 v 14.54608 h 25.21318 V 292.8339 H 604.4615 v -9.69738 h 14.54606 v -14.54607 h 9.69738 v 14.54607 h 14.54608 v 9.69738 h -14.54608 v 25.2132 h 25.2132 v -14.54608 h 9.69738 v 14.54608 h 14.54607 v 9.69738 h -14.54607 v 14.54607 h -9.69738 v -14.54607 h -25.2132 v 25.21321 z" />
    <path
       style="display:inline;fill:#fcef3c;fill-opacity:1;stroke:#000000;stroke-width:3;stroke-miterlimit:4;stroke-dasharray:none;stroke-opacity:1"
       sodipodi:nodetypes="cccccccccccccccccccccccccccccccccccccccc"
       id="path397"
       d="m 703.32371,504.79444 -4.84868,23.83017 -4.8487,-23.83017 v -19.52761 -25.2132 h -25.21318 v 14.54607 h -9.69738 V 460.05363 H 644.1697 v -9.69738 h 14.54607 v -14.54607 h 9.69738 v 14.54607 h 25.21318 v -25.21319 h -14.54606 v -9.69738 h 14.54606 v -14.54607 h 9.69738 v 14.54607 h 14.54608 v 9.69738 h -14.54608 v 25.21319 h 25.2132 v -14.54607 h 9.69738 v 14.54607 h 14.54607 v 9.69738 h -14.54607 v 14.54607 h -9.69738 v -14.54607 h -25.2132 v 25.2132 z" />
    <path
       style="display:inline;fill:#fcef3c;fill-opacity:1;stroke:#000000;stroke-width:3;stroke-miterlimit:4;stroke-dasharray:none;stroke-opacity:1"
       sodipodi:nodetypes="cccccccccccccccccccccccccccccccccccccccc"
       id="path405"
       d="m 703.32371,241.76016 -4.84868,23.83017 -4.8487,-23.83017 v -19.52761 -25.2132 h -25.21318 v 14.54607 h -9.69738 V 197.01935 H 644.1697 v -9.69738 h 14.54607 V 172.7759 h 9.69738 v 14.54607 h 25.21318 v -25.21319 h -14.54606 v -9.69738 h 14.54606 v -14.54607 h 9.69738 v 14.54607 h 14.54608 v 9.69738 h -14.54608 v 25.21319 h 25.2132 V 172.7759 h 9.69738 v 14.54607 h 14.54607 v 9.69738 h -14.54607 v 14.54607 h -9.69738 v -14.54607 h -25.2132 v 25.2132 z" />
    <path
       style="display:inline;fill:#fcef3c;fill-opacity:1;stroke:#000000;stroke-width:3;stroke-miterlimit:4;stroke-dasharray:none;stroke-opacity:1"
       sodipodi:nodetypes="cccccccccccccccccccccccccccccccccccccccc"
       id="path407"
       d="m 106.37366,504.79444 -4.84868,23.83017 -4.848705,-23.83017 v -19.52761 -25.21319 h -25.21318 v 14.54606 h -9.69738 v -14.54606 h -14.54607 v -9.69739 h 14.54607 v -14.54607 h 9.69738 v 14.54607 h 25.21318 v -25.21319 h -14.54606 v -9.69738 h 14.54606 v -14.54607 h 9.697385 v 14.54607 h 14.54608 v 9.69738 h -14.54608 v 25.21319 h 25.2132 v -14.54607 h 9.69738 v 14.54607 h 14.54607 v 9.69739 h -14.54607 v 14.54606 h -9.69738 v -14.54606 h -25.2132 v 25.21319 z" />
    <path
       style="display:inline;fill:#fcef3c;fill-opacity:1;stroke:#000000;stroke-width:3;stroke-miterlimit:4;stroke-dasharray:none;stroke-opacity:1"
       sodipodi:nodetypes="cccccccccccccccccccccccccccccccccccccccc"
       id="path415"
       d="m 106.37366,241.76016 -4.84868,23.83017 -4.848705,-23.83017 v -19.52761 -25.21319 h -25.21318 v 14.54606 h -9.69738 v -14.54606 h -14.54607 v -9.69739 h 14.54607 V 172.7759 h 9.69738 v 14.54607 h 25.21318 v -25.21319 h -14.54606 v -9.69738 h 14.54606 v -14.54607 h 9.697385 v 14.54607 h 14.54608 v 9.69738 h -14.54608 v 25.21319 h 25.2132 V 172.7759 h 9.69738 v 14.54607 h 14.54607 v 9.69739 h -14.54607 v 14.54606 h -9.69738 v -14.54606 h -25.2132 v 25.21319 z" />
  </g>
  <g
     id="g2305"
     transform="translate(93.11022,-2.699919)">
    <g
       id="g2402"
       transform="matrix(2.1034943,0,0,2.1034943,54.45624,61.406416)">
      <path
         sodipodi:nodetypes="csssssssssccscccccsssscccssssssssssssssssssccsssc"
         style="fill:#fcef3c"
         d="m 62.2941,184.75989 c -3.38534,-0.8621 -12.42018,-8.33238 -13.76602,-11.38215 -1.21596,-2.75548 -1.55615,-2.89796 -5.50763,-2.30681 -5.77427,0.86384 -13.28838,-2.62774 -13.28838,-6.17472 0,-1.94899 0.5142,-2.41079 2.68428,-2.41079 5.20031,0 10.61323,-3.65037 13.97367,-9.42358 3.76085,-6.46109 4.85878,-9.81671 6.19425,-18.93151 1.15209,-7.86321 0.71099,-9.95845 -1.92065,-9.12319 -1.49178,0.47348 -7.01605,-1.50173 -8.87122,-3.1719 -0.24182,-0.21771 0.54568,-1.086 1.75,-1.92952 1.20432,-0.84355 2.87535,-2.03418 2.87535,-3.10299 3.89582,-10.27801 6.85729,-22.77151 3.70084,-34.104037 -0.62691,-0.208969 -2.38652,-2.067445 -2.38652,-4.129945 0,-4.871372 -0.84516,-5.577425 -3.58981,-2.998959 l -2.17586,0.793648 -3.12465,-0.955055 -1.12997,-2.451078 1.54397,-6.359718 c 3.77004,-7.099866 4.13899,-10.14538 2.38393,-19.678512 -1.51299,-8.218257 -3.52224,-10.510397 -5.42048,-6.183659 -0.54292,1.2375 -1.99963,2.393798 -3.23713,2.569551 -1.44596,0.205359 -2.25,1.009401 -2.25,2.25 0,1.478277 -0.7027,1.930449 -3,1.930449 h -3 v -9 c 0,-8 -0.2,-9 -1.8,-9 -3.81852,0 -5.415,-3.927856 -2.7,-6.642857 2.26766,-2.267663 1.84143,-3.316539 -2,-4.92159 -5.27727,-2.204984 -4.651,-4.745799 1.93807,-7.862932 7.05729,-3.338628 18.60901,-3.6372 24.35177,-0.629408 4.89515,2.563854 24.19154,22.462542 26.7227,27.556787 1.0931,2.2 3.38425,6.268511 5.09143,9.041137 7.02625,11.411275 8.26519,17.622389 3.64603,18.278414 -1.71148,0.243068 -2.25,-0.175784 -2.25,-1.75 0,-1.449529 -0.64264,-2.069551 -2.14504,-2.069551 -2.05723,0 -2.11784,0.296754 -1.48058,7.25 0.36545,3.9875 1.10747,18.950005 1.64893,33.250005 0.54147,14.3 1.41801,29.15 1.94787,33 1.57812,11.46669 1.37211,14.5 -0.98475,14.5 -1.10746,0 -2.79496,-0.41715 -3.75,-0.927 -0.95504,-0.50985 -2.56665,-1.18713 -3.58137,-1.50505 -1.01472,-0.31792 -2.08451,-1.49417 -2.37732,-2.61389 -0.69838,-2.67058 -2.68369,-1.956 -3.12356,1.12427 -0.1902,1.33192 -0.79309,2.96645 -1.33976,3.63229 -2.85399,7.52412 -4.70865,10.73749 -4.81442,17.53473 0,5.49356 0.40144,6.94873 2.75,9.9683 1.5125,1.94465 4.2125,4.49625 6,5.67023 1.7875,1.17398 3.25,2.58037 3.25,3.12531 0,1.01178 -3.95298,1.15277 -7.43797,0.26528 z"
         id="path1933" />
      <path
         sodipodi:nodetypes="csssssssssccsccccccssssccsssccccssssssssscccsssssssssssssssssccssssssssssssscccccccsssscccsssssssssssssssssccsssccscccssssccsssssssccsssccssssssssccsssccssssccssccsssccssssssc"
         style="fill:#000000;fill-opacity:1"
         d="m 62.29411,184.75989 c -3.38534,-0.8621 -12.42018,-8.33238 -13.76602,-11.38215 -1.21596,-2.75548 -1.55615,-2.89796 -5.50763,-2.30681 -5.77427,0.86384 -13.28839,-2.62774 -13.28839,-6.17472 0,-1.94898 0.5142,-2.41079 2.68428,-2.41079 5.20032,0 10.61323,-3.65037 13.97368,-9.42358 3.76085,-6.46109 4.85878,-9.81671 6.19424,-18.93151 1.1521,-7.86321 0.711,-9.95844 -1.92064,-9.12319 -1.49178,0.47348 -7.01605,-1.50172 -8.87122,-3.1719 -0.24182,-0.2177 0.54568,-1.08599 1.75,-1.92952 1.20432,-0.84354 2.62601,-2.28352 2.62601,-3.35233 6.70081,-15.6323 2.27455,-0.50405 0.98236,2.4261 -1.18746,2.28881 -1.22664,3.01354 -0.19883,3.67704 2.18446,1.41017 3.97003,0.4666 6.00092,-3.17111 l 1.95401,-3.5 -0.45846,14.45702 c -0.3375,5.66639 0.15414,13.48153 -2.72492,18.55332 -0.94632,1.14024 -0.61714,1.90753 1.65787,3.86443 4.8675,4.60989 5.96988,-3.49396 7.58711,-7.37477 3.14871,-6.90184 4.7636,-10.8145 4.7636,-11.5416 0,-0.63522 3.88083,-9.15297 4.73466,-10.39173 0.16427,-0.23834 0.77812,0.0461 1.36411,0.6321 0.73086,0.73087 0.74651,1.65199 0.04984,2.93333 -1.40042,2.57568 -3.39159,14.16575 -2.64201,15.37857 2.41237,1.03642 4.58938,3.2837 7.07321,3.74284 0.31217,-0.31216 -0.1406,-7.3635 -1.00612,-15.66966 -0.86553,-8.30616 -1.60711,-21.5105 -1.64797,-29.34298 -0.07826,-15.00254 -2.06568,-39.485611 -3.75364,-46.240877 -0.54972,-2.2 -2.16332,-7.305605 -3.58578,-11.34579 C 65.39265,38.002051 63.5383,33.721536 60.55927,28.007064 56.21978,22.250669 50.591,14.900825 44.00771,11.355123 37.24307,8.302071 35.81921,7.598631 24.35873,10.179662 c -2.0625,0.361655 -4.2085,2.210532 -5.53075,3.042008 -2.2931,1.44198 -2.31618,1.558521 -0.5,2.524328 5.99968,3.1905 8.87871,9.739415 4.28165,9.739415 -1.73432,0 -1.90382,0.263436 -0.92689,1.440559 1.50188,1.809661 3.30209,1.161721 4.57045,-1.645026 0.53839,-1.191381 1.54138,-2.345259 2.22888,-2.564174 2.00586,-0.638707 1.44811,3.279375 -0.75,5.268641 -1.69828,1.536922 -2,3.079967 -2,10.228312 0,7.477731 0.19553,8.381107 1.75,8.085134 1.44763,-0.275629 1.8474,-1.800156 2.3137,-8.823324 l 0.56369,-8.490122 0.18631,6.819551 c 0.17635,6.455175 0.30652,6.802477 2.4363,6.5 1.63856,-0.232712 2.33918,-1.099976 2.57818,-3.191373 0.1805,-1.579503 -0.157,-3.357003 -0.75,-3.95 -1.55661,-1.556612 -1.40767,-7.964212 0.17182,-7.391999 0.6875,0.249065 2.04026,-0.235676 3.00613,-1.077203 2.90479,-2.530823 3.16103,-0.53522 0.29879,2.327009 -3.6892,3.689207 -2.69449,5.293775 1.23304,1.988986 2.57527,-2.166947 3.21205,-3.453845 3.21205,-6.49142 0,-5.141881 -2.15128,-6.882271 -4.99366,-4.039886 -2.71373,2.713719 -7.1342,2.354205 -8.46988,-0.688849 -0.52993,-1.20735 -1.99243,-2.453424 -3.25,-2.769052 -1.25756,-0.315627 -2.28647,-0.988737 -2.28647,-1.495799 0,-1.453627 1.87736,-2.236717 3.25,-1.355648 2.34106,1.502684 10.24304,3.170188 10.58333,2.233337 0.5431,-1.495106 4.81575,-1.045421 6.22731,0.655406 2.24746,2.708019 1.21801,10.51695 -1.8028,13.675183 -2.52188,2.63662 -3.80777,6.751757 -2.10976,6.751757 0.44759,0 1.09618,1.125 1.44129,2.5 2.552361,4.282289 3.237982,8.618032 2.96247,13.75 -0.53891,6.293624 -1.39601,9.530652 -3.61445,13.650488 -2.71875,5.048969 -2.79508,5.486255 -1.17271,6.718195 2.45444,1.86376 2.84064,1.74435 5.23533,-1.618683 1.17489,-1.65 2.54005,-3 3.03365,-3 0.49361,0 1.22742,2.3625 1.6307,5.250003 0.40328,2.8875 0.90177,4.4625 1.10777,3.5 0.20599,-0.9625 0.79153,-1.75 1.3012,-1.75 1.2306,0 1.18875,3.33793 -0.05747,4.58414 -1.16627,1.16628 0.85673,18.571114 2.2706,19.535024 0.85523,0.58306 -0.7838,14.71153 -1.82779,15.75552 -1.13745,1.13744 -1.76553,-1.15366 -0.75838,-2.76636 0.61852,-0.9904 1.20758,-3.55744 1.30904,-5.70452 0.25597,-5.41707 0.12049,-6.4038 -0.87928,-6.4038 -0.79846,0 -1.77318,8.41566 -2.80336,12.43435 -3.71248,6.66975 -2.32489,1.20019 -0.9403,-2.18435 2.06046,-9.14612 2.66101,-15.5653 2.0581,-21.99919 0.35528,-4.15657 -2.29859,-7.182903 -2.44448,-11.084154 0,-4.95498 -1.64443,-4.798471 -4.40015,-2.209611 -2.14522,1.469224 -3.05648,0.02559 -4.49017,-1.034089 -2.95295,-0.906223 -1.86641,-6.288156 0.414,-8.810792 3.77004,-7.099866 4.13899,-10.14538 2.38393,-19.678512 -1.51299,-8.218257 -3.52224,-10.510397 -5.42049,-6.183659 -0.54292,1.2375 -1.99963,2.393798 -3.23713,2.569551 -1.44596,0.205359 -2.25,1.009401 -2.25,2.25 0,1.478277 -0.7027,1.930449 -3,1.930449 h -3 v -9 c 0,-8 -0.2,-9 -1.8,-9 -3.81852,0 -5.415,-3.927856 -2.7,-6.642857 2.26766,-2.267663 1.84143,-3.316539 -2,-4.92159 -5.27727,-2.204984 -4.651,-4.745799 1.93807,-7.862932 7.05729,-3.338628 18.60902,-3.6372 24.35178,-0.629408 4.89515,2.563854 24.19154,22.462542 26.7227,27.556787 1.0931,2.2 3.38425,6.268511 5.09143,9.041137 7.02625,11.411275 8.26519,17.622389 3.64603,18.278414 -1.71148,0.243068 -2.25,-0.175784 -2.25,-1.75 0,-1.449529 -0.64265,-2.069551 -2.14504,-2.069551 -2.05723,0 -2.11784,0.296754 -1.48059,7.25 0.36545,3.9875 1.10748,18.950007 1.64893,33.250007 0.54147,14.3 1.41802,29.15 1.94788,33 1.57812,11.46669 1.37211,14.5 -0.98476,14.5 -1.10746,0 -2.79496,-0.41715 -3.75,-0.927 -0.95504,-0.50985 -2.56664,-1.18712 -3.58136,-1.50505 -1.01473,-0.31792 -2.08451,-1.49417 -2.37732,-2.61389 -0.69838,-2.67058 -2.6837,-1.956 -3.12356,1.12427 -1.83887,7.0693 -4.7006,13.93974 -6.15418,21.16702 0,5.49356 0.40143,6.94873 2.75,9.9683 1.51249,1.94465 4.21249,4.49625 6,5.67023 1.7875,1.17398 3.25,2.58037 3.25,3.12531 0,1.01178 -3.95299,1.15277 -7.43797,0.26528 z m 0.43433,-3.53508 c -0.38032,-1.2375 -5.04853,-7.00701 -6.03121,-7.94521 -1.35242,-1.29122 -1.65682,-2.6741 -1.25235,-5.6896 4.4217,-14.72704 -6.14135,-14.99343 -7.4628,-11.95957 -1.81064,3.47486 -6.73673,7.29092 -10.81928,8.30201 -4.07042,0.76361 -4.33084,1.9171 -0.93513,4.14205 2.9879,1.95775 9.2044,1.16658 11.17299,-1.42197 1.1027,-1.44999 1.28026,-1.21129 1.36337,1.8329 0.07841,2.87208 0.90369,4.17277 4.60011,7.25 5.17473,4.30791 10.35641,8.71768 9.3643,5.48939 z M 80.73208,60.068318 c 0,-3.188077 -3.2779,-10.738717 -5.44138,-12.534254 -0.94305,-0.782663 -2.86529,-3.701289 -4.27165,-6.485837 -2.63784,-5.222813 -6.32383,-10.509264 -6.23879,-8.947673 0.0265,0.486673 2.16809,6.734859 4.75909,13.884859 4.26595,11.772144 4.92256,12.97045 6.95182,12.687142 1.69811,-0.237078 2.24091,0.186809 2.24091,1.75 0,1.134572 0.44999,2.062858 1,2.062858 0.55,0 1,-1.087693 1,-2.417095 z M 33.73207,19.485413 c 0,-0.55 -0.45,-1 -1,-1 -0.55,0 -1,0.45 -1,1 0,0.55 0.45,1 1,1 0.55,0 1,-0.45 1,-1 z M 57.10838,139.02366 c -0.30851,-0.80397 0.14371,-2.87427 1.00495,-4.60066 0.86124,-1.7264 1.87111,-4.76586 2.24415,-6.75438 0.37306,-1.98851 1.56176,-5.61273 2.64157,-8.05383 1.77054,-4.0026 1.91836,-6.11674 1.50558,-21.53386 -0.25175,-9.40253 -0.28262,-13.722094 -0.06864,-9.59901 0.214,4.12308 0.81817,7.92558 1.34258,8.45 2.60696,2.60695 0.25108,25.25733 -3.54191,34.0535 -0.71149,1.65 -1.60184,4.4625 -1.97856,6.25 -0.71997,3.41625 -2.20209,4.25772 -3.14972,1.78824 z M 56.32988,82.735416 C 55.28953,71.679611 54.84239,63.812593 55.40627,66.485413 c 0.2901,1.375 0.87425,2.725 1.29813,3 1.19791,0.777159 2.38732,20.000007 1.23749,20.000007 -0.53724,0 -1.26265,-3.0375 -1.61201,-6.750004 z m 11.4022,-9.08334 c 0,-1.741663 -0.38793,-3.166663 -0.86208,-3.166663 -0.47413,0 -1.17271,-3.428054 -1.55237,-7.617897 -0.61196,-6.753228 -1.48535,-9.204936 -7.69471,-21.600001 -4.57175,-9.126103 -6.89784,-14.902452 -6.69761,-16.632103 0.25298,-2.18541 1.05186,-1.119584 4.55677,6.079439 1.88464,4.515805 3.70609,8.704731 6.54901,12.520562 0.29275,0.9625 1.41868,4.077604 2.50207,6.922453 1.97222,5.178851 4.83735,25.02245 3.76734,26.09245 -0.31262,0.31264 -0.56842,-0.85657 -0.56842,-2.59824 z M 42.05079,70.360413 c 0.3128,-0.75625 1.60654,-4.633288 2.875,-8.61564 2.10172,-6.598376 3.80629,-9.264831 3.80629,-5.954147 0,2.799403 -4.71695,15.100438 -5.94773,15.510696 -0.79467,0.26489 -1.08059,-0.10186 -0.73356,-0.940909 z m 10.9262,-11.126507 c -0.60028,-1.236671 -1.82766,-5.623493 -2.72751,-9.748493 -0.89985,-4.125 -2.09057,-8.33132 -2.64603,-9.347379 -0.55547,-1.016058 -0.75378,-2.103558 -0.44066,-2.416666 0.95959,-0.959586 1.70581,0.416911 2.67596,4.936181 0.511,2.380325 1.3448,5.227864 1.85289,6.327864 0.98998,2.143277 3.07227,11.801506 2.63799,12.23578 -0.14366,0.143664 -0.75234,-0.750615 -1.35264,-1.987287 z"
         id="path1927" />
    </g>
    <g
       id="g2298"
       transform="matrix(-2.1034943,0,0,2.1034943,559.37316,61.406416)"
       style="display:inline">
      <path
         sodipodi:nodetypes="csssssssssccscccccsssscccssssssssssssssssssccsssc"
         style="fill:#fcef3c"
         d="m 62.2941,184.75989 c -3.38534,-0.8621 -12.42018,-8.33238 -13.76602,-11.38215 -1.21596,-2.75548 -1.55615,-2.89796 -5.50763,-2.30681 -5.77427,0.86384 -13.28838,-2.62774 -13.28838,-6.17472 0,-1.94899 0.5142,-2.41079 2.68428,-2.41079 5.20031,0 10.61323,-3.65037 13.97367,-9.42358 3.76085,-6.46109 4.85878,-9.81671 6.19425,-18.93151 1.15209,-7.86321 0.71099,-9.95845 -1.92065,-9.12319 -1.49178,0.47348 -7.01605,-1.50173 -8.87122,-3.1719 -0.24182,-0.21771 0.54568,-1.086 1.75,-1.92952 1.20432,-0.84355 2.87535,-2.03418 2.87535,-3.10299 3.89582,-10.27801 6.85729,-22.77151 3.70084,-34.104037 -0.62691,-0.208969 -2.38652,-2.067445 -2.38652,-4.129945 0,-4.871372 -0.84516,-5.577425 -3.58981,-2.998959 l -2.17586,0.793648 -3.12465,-0.955055 -1.12997,-2.451078 1.54397,-6.359718 c 3.77004,-7.099866 4.13899,-10.14538 2.38393,-19.678512 -1.51299,-8.218257 -3.52224,-10.510397 -5.42048,-6.183659 -0.54292,1.2375 -1.99963,2.393798 -3.23713,2.569551 -1.44596,0.205359 -2.25,1.009401 -2.25,2.25 0,1.478277 -0.7027,1.930449 -3,1.930449 h -3 v -9 c 0,-8 -0.2,-9 -1.8,-9 -3.81852,0 -5.415,-3.927856 -2.7,-6.642857 2.26766,-2.267663 1.84143,-3.316539 -2,-4.92159 -5.27727,-2.204984 -4.651,-4.745799 1.93807,-7.862932 7.05729,-3.338628 18.60901,-3.6372 24.35177,-0.629408 4.89515,2.563854 24.19154,22.462542 26.7227,27.556787 1.0931,2.2 3.38425,6.268511 5.09143,9.041137 7.02625,11.411275 8.26519,17.622389 3.64603,18.278414 -1.71148,0.243068 -2.25,-0.175784 -2.25,-1.75 0,-1.449529 -0.64264,-2.069551 -2.14504,-2.069551 -2.05723,0 -2.11784,0.296754 -1.48058,7.25 0.36545,3.9875 1.10747,18.950005 1.64893,33.250005 0.54147,14.3 1.41801,29.15 1.94787,33 1.57812,11.46669 1.37211,14.5 -0.98475,14.5 -1.10746,0 -2.79496,-0.41715 -3.75,-0.927 -0.95504,-0.50985 -2.56665,-1.18713 -3.58137,-1.50505 -1.01472,-0.31792 -2.08451,-1.49417 -2.37732,-2.61389 -0.69838,-2.67058 -2.68369,-1.956 -3.12356,1.12427 -0.1902,1.33192 -0.79309,2.96645 -1.33976,3.63229 -2.85399,7.52412 -4.70865,10.73749 -4.81442,17.53473 0,5.49356 0.40144,6.94873 2.75,9.9683 1.5125,1.94465 4.2125,4.49625 6,5.67023 1.7875,1.17398 3.25,2.58037 3.25,3.12531 0,1.01178 -3.95298,1.15277 -7.43797,0.26528 z"
         id="path2300" />
      <path
         sodipodi:nodetypes="csssssssssccsccccccssssccsssccccssssssssscccsssssssssssssssssccssssssssssssscccccccsssscccsssssssssssssssssccsssccscccssssccsssssssccsssccssssssssccsssccssssccssccsssccssssssc"
         style="fill:#000000;fill-opacity:1"
         d="m 62.29411,184.75989 c -3.38534,-0.8621 -12.42018,-8.33238 -13.76602,-11.38215 -1.21596,-2.75548 -1.55615,-2.89796 -5.50763,-2.30681 -5.77427,0.86384 -13.28839,-2.62774 -13.28839,-6.17472 0,-1.94898 0.5142,-2.41079 2.68428,-2.41079 5.20032,0 10.61323,-3.65037 13.97368,-9.42358 3.76085,-6.46109 4.85878,-9.81671 6.19424,-18.93151 1.1521,-7.86321 0.711,-9.95844 -1.92064,-9.12319 -1.49178,0.47348 -7.01605,-1.50172 -8.87122,-3.1719 -0.24182,-0.2177 0.54568,-1.08599 1.75,-1.92952 1.20432,-0.84354 2.62601,-2.28352 2.62601,-3.35233 6.70081,-15.6323 2.27455,-0.50405 0.98236,2.4261 -1.18746,2.28881 -1.22664,3.01354 -0.19883,3.67704 2.18446,1.41017 3.97003,0.4666 6.00092,-3.17111 l 1.95401,-3.5 -0.45846,14.45702 c -0.3375,5.66639 0.15414,13.48153 -2.72492,18.55332 -0.94632,1.14024 -0.61714,1.90753 1.65787,3.86443 4.8675,4.60989 5.96988,-3.49396 7.58711,-7.37477 3.14871,-6.90184 4.7636,-10.8145 4.7636,-11.5416 0,-0.63522 3.88083,-9.15297 4.73466,-10.39173 0.16427,-0.23834 0.77812,0.0461 1.36411,0.6321 0.73086,0.73087 0.74651,1.65199 0.04984,2.93333 -1.40042,2.57568 -3.39159,14.16575 -2.64201,15.37857 2.41237,1.03642 4.58938,3.2837 7.07321,3.74284 0.31217,-0.31216 -0.1406,-7.3635 -1.00612,-15.66966 -0.86553,-8.30616 -1.60711,-21.5105 -1.64797,-29.34298 -0.07826,-15.00254 -2.06568,-39.485611 -3.75364,-46.240877 -0.54972,-2.2 -2.16332,-7.305605 -3.58578,-11.34579 C 65.39265,38.002051 63.5383,33.721536 60.55927,28.007064 56.21978,22.250669 50.591,14.900825 44.00771,11.355123 37.24307,8.302071 35.81921,7.598631 24.35873,10.179662 c -2.0625,0.361655 -4.2085,2.210532 -5.53075,3.042008 -2.2931,1.44198 -2.31618,1.558521 -0.5,2.524328 5.99968,3.1905 8.87871,9.739415 4.28165,9.739415 -1.73432,0 -1.90382,0.263436 -0.92689,1.440559 1.50188,1.809661 3.30209,1.161721 4.57045,-1.645026 0.53839,-1.191381 1.54138,-2.345259 2.22888,-2.564174 2.00586,-0.638707 1.44811,3.279375 -0.75,5.268641 -1.69828,1.536922 -2,3.079967 -2,10.228312 0,7.477731 0.19553,8.381107 1.75,8.085134 1.44763,-0.275629 1.8474,-1.800156 2.3137,-8.823324 l 0.56369,-8.490122 0.18631,6.819551 c 0.17635,6.455175 0.30652,6.802477 2.4363,6.5 1.63856,-0.232712 2.33918,-1.099976 2.57818,-3.191373 0.1805,-1.579503 -0.157,-3.357003 -0.75,-3.95 -1.55661,-1.556612 -1.40767,-7.964212 0.17182,-7.391999 0.6875,0.249065 2.04026,-0.235676 3.00613,-1.077203 2.90479,-2.530823 3.16103,-0.53522 0.29879,2.327009 -3.6892,3.689207 -2.69449,5.293775 1.23304,1.988986 2.57527,-2.166947 3.21205,-3.453845 3.21205,-6.49142 0,-5.141881 -2.15128,-6.882271 -4.99366,-4.039886 -2.71373,2.713719 -7.1342,2.354205 -8.46988,-0.688849 -0.52993,-1.20735 -1.99243,-2.453424 -3.25,-2.769052 -1.25756,-0.315627 -2.28647,-0.988737 -2.28647,-1.495799 0,-1.453627 1.87736,-2.236717 3.25,-1.355648 2.34106,1.502684 10.24304,3.170188 10.58333,2.233337 0.5431,-1.495106 4.81575,-1.045421 6.22731,0.655406 2.24746,2.708019 1.21801,10.51695 -1.8028,13.675183 -2.52188,2.63662 -3.80777,6.751757 -2.10976,6.751757 0.44759,0 1.09618,1.125 1.44129,2.5 2.552361,4.282289 3.237982,8.618032 2.96247,13.75 -0.53891,6.293624 -1.39601,9.530652 -3.61445,13.650488 -2.71875,5.048969 -2.79508,5.486255 -1.17271,6.718195 2.45444,1.86376 2.84064,1.74435 5.23533,-1.618683 1.17489,-1.65 2.54005,-3 3.03365,-3 0.49361,0 1.22742,2.3625 1.6307,5.250003 0.40328,2.8875 0.90177,4.4625 1.10777,3.5 0.20599,-0.9625 0.79153,-1.75 1.3012,-1.75 1.2306,0 1.18875,3.33793 -0.05747,4.58414 -1.16627,1.16628 0.85673,18.571114 2.2706,19.535024 0.85523,0.58306 -0.7838,14.71153 -1.82779,15.75552 -1.13745,1.13744 -1.76553,-1.15366 -0.75838,-2.76636 0.61852,-0.9904 1.20758,-3.55744 1.30904,-5.70452 0.25597,-5.41707 0.12049,-6.4038 -0.87928,-6.4038 -0.79846,0 -1.77318,8.41566 -2.80336,12.43435 -3.71248,6.66975 -2.32489,1.20019 -0.9403,-2.18435 2.06046,-9.14612 2.66101,-15.5653 2.0581,-21.99919 0.35528,-4.15657 -2.29859,-7.182903 -2.44448,-11.084154 0,-4.95498 -1.64443,-4.798471 -4.40015,-2.209611 -2.14522,1.469224 -3.05648,0.02559 -4.49017,-1.034089 -2.95295,-0.906223 -1.86641,-6.288156 0.414,-8.810792 3.77004,-7.099866 4.13899,-10.14538 2.38393,-19.678512 -1.51299,-8.218257 -3.52224,-10.510397 -5.42049,-6.183659 -0.54292,1.2375 -1.99963,2.393798 -3.23713,2.569551 -1.44596,0.205359 -2.25,1.009401 -2.25,2.25 0,1.478277 -0.7027,1.930449 -3,1.930449 h -3 v -9 c 0,-8 -0.2,-9 -1.8,-9 -3.81852,0 -5.415,-3.927856 -2.7,-6.642857 2.26766,-2.267663 1.84143,-3.316539 -2,-4.92159 -5.27727,-2.204984 -4.651,-4.745799 1.93807,-7.862932 7.05729,-3.338628 18.60902,-3.6372 24.35178,-0.629408 4.89515,2.563854 24.19154,22.462542 26.7227,27.556787 1.0931,2.2 3.38425,6.268511 5.09143,9.041137 7.02625,11.411275 8.26519,17.622389 3.64603,18.278414 -1.71148,0.243068 -2.25,-0.175784 -2.25,-1.75 0,-1.449529 -0.64265,-2.069551 -2.14504,-2.069551 -2.05723,0 -2.11784,0.296754 -1.48059,7.25 0.36545,3.9875 1.10748,18.950007 1.64893,33.250007 0.54147,14.3 1.41802,29.15 1.94788,33 1.57812,11.46669 1.37211,14.5 -0.98476,14.5 -1.10746,0 -2.79496,-0.41715 -3.75,-0.927 -0.95504,-0.50985 -2.56664,-1.18712 -3.58136,-1.50505 -1.01473,-0.31792 -2.08451,-1.49417 -2.37732,-2.61389 -0.69838,-2.67058 -2.6837,-1.956 -3.12356,1.12427 -1.83887,7.0693 -4.7006,13.93974 -6.15418,21.16702 0,5.49356 0.40143,6.94873 2.75,9.9683 1.51249,1.94465 4.21249,4.49625 6,5.67023 1.7875,1.17398 3.25,2.58037 3.25,3.12531 0,1.01178 -3.95299,1.15277 -7.43797,0.26528 z m 0.43433,-3.53508 c -0.38032,-1.2375 -5.04853,-7.00701 -6.03121,-7.94521 -1.35242,-1.29122 -1.65682,-2.6741 -1.25235,-5.6896 4.4217,-14.72704 -6.14135,-14.99343 -7.4628,-11.95957 -1.81064,3.47486 -6.73673,7.29092 -10.81928,8.30201 -4.07042,0.76361 -4.33084,1.9171 -0.93513,4.14205 2.9879,1.95775 9.2044,1.16658 11.17299,-1.42197 1.1027,-1.44999 1.28026,-1.21129 1.36337,1.8329 0.07841,2.87208 0.90369,4.17277 4.60011,7.25 5.17473,4.30791 10.35641,8.71768 9.3643,5.48939 z M 80.73208,60.068318 c 0,-3.188077 -3.2779,-10.738717 -5.44138,-12.534254 -0.94305,-0.782663 -2.86529,-3.701289 -4.27165,-6.485837 -2.63784,-5.222813 -6.32383,-10.509264 -6.23879,-8.947673 0.0265,0.486673 2.16809,6.734859 4.75909,13.884859 4.26595,11.772144 4.92256,12.97045 6.95182,12.687142 1.69811,-0.237078 2.24091,0.186809 2.24091,1.75 0,1.134572 0.44999,2.062858 1,2.062858 0.55,0 1,-1.087693 1,-2.417095 z M 33.73207,19.485413 c 0,-0.55 -0.45,-1 -1,-1 -0.55,0 -1,0.45 -1,1 0,0.55 0.45,1 1,1 0.55,0 1,-0.45 1,-1 z M 57.10838,139.02366 c -0.30851,-0.80397 0.14371,-2.87427 1.00495,-4.60066 0.86124,-1.7264 1.87111,-4.76586 2.24415,-6.75438 0.37306,-1.98851 1.56176,-5.61273 2.64157,-8.05383 1.77054,-4.0026 1.91836,-6.11674 1.50558,-21.53386 -0.25175,-9.40253 -0.28262,-13.722094 -0.06864,-9.59901 0.214,4.12308 0.81817,7.92558 1.34258,8.45 2.60696,2.60695 0.25108,25.25733 -3.54191,34.0535 -0.71149,1.65 -1.60184,4.4625 -1.97856,6.25 -0.71997,3.41625 -2.20209,4.25772 -3.14972,1.78824 z M 56.32988,82.735416 C 55.28953,71.679611 54.84239,63.812593 55.40627,66.485413 c 0.2901,1.375 0.87425,2.725 1.29813,3 1.19791,0.777159 2.38732,20.000007 1.23749,20.000007 -0.53724,0 -1.26265,-3.0375 -1.61201,-6.750004 z m 11.4022,-9.08334 c 0,-1.741663 -0.38793,-3.166663 -0.86208,-3.166663 -0.47413,0 -1.17271,-3.428054 -1.55237,-7.617897 -0.61196,-6.753228 -1.48535,-9.204936 -7.69471,-21.600001 -4.57175,-9.126103 -6.89784,-14.902452 -6.69761,-16.632103 0.25298,-2.18541 1.05186,-1.119584 4.55677,6.079439 1.88464,4.515805 3.70609,8.704731 6.54901,12.520562 0.29275,0.9625 1.41868,4.077604 2.50207,6.922453 1.97222,5.178851 4.83735,25.02245 3.76734,26.09245 -0.31262,0.31264 -0.56842,-0.85657 -0.56842,-2.59824 z M 42.05079,70.360413 c 0.3128,-0.75625 1.60654,-4.633288 2.875,-8.61564 2.10172,-6.598376 3.80629,-9.264831 3.80629,-5.954147 0,2.799403 -4.71695,15.100438 -5.94773,15.510696 -0.79467,0.26489 -1.08059,-0.10186 -0.73356,-0.940909 z m 10.9262,-11.126507 c -0.60028,-1.236671 -1.82766,-5.623493 -2.72751,-9.748493 -0.89985,-4.125 -2.09057,-8.33132 -2.64603,-9.347379 -0.55547,-1.016058 -0.75378,-2.103558 -0.44066,-2.416666 0.95959,-0.959586 1.70581,0.416911 2.67596,4.936181 0.511,2.380325 1.3448,5.227864 1.85289,6.327864 0.98998,2.143277 3.07227,11.801506 2.63799,12.23578 -0.14366,0.143664 -0.75234,-0.750615 -1.35264,-1.987287 z"
         id="path2302" />
    </g>
  </g>
</svg>
