<?xml version="1.0" encoding="UTF-8" standalone="no"?>
<svg
   xmlns:dc="http://purl.org/dc/elements/1.1/"
   xmlns:cc="http://creativecommons.org/ns#"
   xmlns:rdf="http://www.w3.org/1999/02/22-rdf-syntax-ns#"
   xmlns:svg="http://www.w3.org/2000/svg"
   xmlns="http://www.w3.org/2000/svg"
   xmlns:xlink="http://www.w3.org/1999/xlink"
   xmlns:sodipodi="http://sodipodi.sourceforge.net/DTD/sodipodi-0.dtd"
   xmlns:inkscape="http://www.inkscape.org/namespaces/inkscape"
   inkscape:version="1.0.1 (c497b03c, 2020-09-10)"
   sodipodi:docname="Drapeau_fr deÌpartement_Oise.svg"
   id="svg2"
   height="533.33331"
   width="800"
   version="1.0">
  <metadata
     id="metadata114">
    <rdf:RDF>
      <cc:Work
         rdf:about="">
        <dc:format>image/svg+xml</dc:format>
        <dc:type
           rdf:resource="http://purl.org/dc/dcmitype/StillImage" />
      </cc:Work>
    </rdf:RDF>
  </metadata>
  <sodipodi:namedview
     inkscape:current-layer="svg2"
     inkscape:window-maximized="0"
     inkscape:window-y="25"
     inkscape:window-x="0"
     inkscape:cy="337.60312"
     inkscape:cx="534.6803"
     inkscape:zoom="0.5"
     showgrid="false"
     id="namedview112"
     inkscape:window-height="942"
     inkscape:window-width="1920"
     inkscape:pageshadow="2"
     inkscape:pageopacity="0"
     guidetolerance="10"
     gridtolerance="10"
     objecttolerance="10"
     borderopacity="1"
     inkscape:document-rotation="0"
     bordercolor="#666666"
     pagecolor="#ffffff" />
  <defs
     id="defs6">
    <g
       id="b">
      <path
         id="a"
         d="M0 0v1h.5L0 0z"
         transform="rotate(18 3.15687723 -.49999528)" />
      <use
         width="810"
         height="540"
         transform="scale(-1 1)"
         xlink:href="#a"
         id="use697" />
    </g>
    <g
       id="e">
      <path
         id="d"
         d="M0 0v1h.5L0 0z"
         transform="rotate(18 3.15687723 -.49999528)" />
      <use
         width="810"
         height="540"
         transform="scale(-1 1)"
         xlink:href="#d"
         id="use706" />
    </g>
    <g
       id="h">
      <path
         id="g"
         d="M0 0v1h.5L0 0z"
         transform="rotate(18 3.15687723 -.49999528)" />
      <use
         width="810"
         height="540"
         transform="scale(-1 1)"
         xlink:href="#g"
         id="use715" />
    </g>
    <g
       id="k">
      <path
         id="j"
         d="M0 0v1h.5L0 0z"
         transform="rotate(18 3.15687723 -.49999528)" />
      <use
         width="810"
         height="540"
         transform="scale(-1 1)"
         xlink:href="#j"
         id="use724" />
    </g>
    <g
       id="n">
      <path
         id="m"
         d="M0 0v1h.5L0 0z"
         transform="rotate(18 3.15687723 -.49999528)" />
      <use
         width="810"
         height="540"
         transform="scale(-1 1)"
         xlink:href="#m"
         id="use733" />
    </g>
    <g
       id="q">
      <path
         id="p"
         d="M0 0v1h.5L0 0z"
         transform="rotate(18 3.15687723 -.49999528)" />
      <use
         width="810"
         height="540"
         transform="scale(-1 1)"
         xlink:href="#p"
         id="use742" />
    </g>
    <g
       id="t">
      <path
         id="s"
         d="M0 0v1h.5L0 0z"
         transform="rotate(18 3.15687723 -.49999528)" />
      <use
         width="810"
         height="540"
         transform="scale(-1 1)"
         xlink:href="#s"
         id="use751" />
    </g>
    <g
       id="w">
      <path
         id="v"
         d="M0 0v1h.5L0 0z"
         transform="rotate(18 3.15687723 -.49999528)" />
      <use
         width="810"
         height="540"
         transform="scale(-1 1)"
         xlink:href="#v"
         id="use760" />
    </g>
    <g
       id="z">
      <path
         id="y"
         d="M0 0v1h.5L0 0z"
         transform="rotate(18 3.15687723 -.49999528)" />
      <use
         width="810"
         height="540"
         transform="scale(-1 1)"
         xlink:href="#y"
         id="use769" />
    </g>
    <g
       id="D">
      <path
         id="C"
         d="M0 0v1h.5L0 0z"
         transform="rotate(18 3.15687723 -.49999528)" />
      <use
         width="810"
         height="540"
         transform="scale(-1 1)"
         xlink:href="#C"
         id="use778" />
    </g>
    <g
       id="G">
      <path
         id="F"
         d="M0 0v1h.5L0 0z"
         transform="rotate(18 3.15687723 -.49999528)" />
      <use
         width="810"
         height="540"
         transform="scale(-1 1)"
         xlink:href="#F"
         id="use787" />
    </g>
    <g
       id="J">
      <path
         id="I"
         d="M0 0v1h.5L0 0z"
         transform="rotate(18 3.15687723 -.49999528)" />
      <use
         width="810"
         height="540"
         transform="scale(-1 1)"
         xlink:href="#I"
         id="use796" />
    </g>
    <g
       id="N">
      <path
         id="M"
         d="M0 0v1h.5L0 0z"
         transform="rotate(18 3.15687723 -.49999528)" />
      <use
         width="810"
         height="540"
         transform="scale(-1 1)"
         xlink:href="#M"
         id="use805" />
    </g>
    <g
       id="Q">
      <path
         id="P"
         d="M0 0v1h.5L0 0z"
         transform="rotate(18 3.15687723 -.49999528)" />
      <use
         width="810"
         height="540"
         transform="scale(-1 1)"
         xlink:href="#P"
         id="use814" />
    </g>
    <g
       id="T">
      <path
         id="S"
         d="M0 0v1h.5L0 0z"
         transform="rotate(18 3.15687723 -.49999528)" />
      <use
         width="810"
         height="540"
         transform="scale(-1 1)"
         xlink:href="#S"
         id="use823" />
    </g>
    <g
       id="X">
      <path
         id="W"
         d="M0 0v1h.5L0 0z"
         transform="rotate(18 3.15687723 -.49999528)" />
      <use
         width="810"
         height="540"
         transform="scale(-1 1)"
         xlink:href="#W"
         id="use832" />
    </g>
  </defs>
  <path
     inkscape:connector-curvature="0"
     id="rect1698"
     style="fill:#2b5df2;fill-opacity:1;stroke:none;stroke-width:1.51083;stroke-linecap:round;stroke-linejoin:round;stroke-miterlimit:4;stroke-dasharray:none"
     d="M 3.0793619e-6,3.20319e-6 V 533.33332 H 799.99998 V 3.20319e-6 Z"
     sodipodi:nodetypes="ccccc" />
  <path
     inkscape:connector-curvature="0"
     id="path1760"
     style="fill:#fcef3c;fill-opacity:1;stroke:none;stroke-width:1.51083;stroke-linecap:round;stroke-linejoin:round;stroke-miterlimit:4;stroke-dasharray:none"
     d="M 3.0793619e-6,3.20319e-6 V 533.33332 L 799.99998,3.20319e-6 Z"
     sodipodi:nodetypes="cccc" />
  <g
     id="g1811">
    <path
       style="color:#000000;font-style:normal;font-variant:normal;font-weight:normal;font-stretch:normal;font-size:medium;line-height:normal;font-family:sans-serif;font-variant-ligatures:normal;font-variant-position:normal;font-variant-caps:normal;font-variant-numeric:normal;font-variant-alternates:normal;font-variant-east-asian:normal;font-feature-settings:normal;font-variation-settings:normal;text-indent:0;text-align:start;text-decoration:none;text-decoration-line:none;text-decoration-style:solid;text-decoration-color:#000000;letter-spacing:normal;word-spacing:normal;text-transform:none;writing-mode:lr-tb;direction:ltr;text-orientation:mixed;dominant-baseline:auto;baseline-shift:baseline;text-anchor:start;white-space:normal;shape-padding:0;shape-margin:0;inline-size:0;clip-rule:nonzero;display:inline;overflow:visible;visibility:visible;isolation:auto;mix-blend-mode:normal;color-interpolation:sRGB;color-interpolation-filters:linearRGB;solid-color:#000000;solid-opacity:1;vector-effect:none;fill:#2b5df2;fill-opacity:1;fill-rule:nonzero;stroke:none;stroke-width:120;stroke-linecap:butt;stroke-linejoin:miter;stroke-miterlimit:4;stroke-dasharray:none;stroke-dashoffset:0;stroke-opacity:1;color-rendering:auto;image-rendering:auto;shape-rendering:auto;text-rendering:auto;enable-background:accumulate;stop-color:#000000;stop-opacity:1;opacity:1"
       d="m 0,177.88867 v 144.22266 l 158.41602,105.61133 57.18359,-38.12305 31.375,-47.06055 z"
       id="path1806" />
    <path
       style="color:#000000;font-style:normal;font-variant:normal;font-weight:normal;font-stretch:normal;font-size:medium;line-height:normal;font-family:sans-serif;font-variant-ligatures:normal;font-variant-position:normal;font-variant-caps:normal;font-variant-numeric:normal;font-variant-alternates:normal;font-variant-east-asian:normal;font-feature-settings:normal;font-variation-settings:normal;text-indent:0;text-align:start;text-decoration:none;text-decoration-line:none;text-decoration-style:solid;text-decoration-color:#000000;letter-spacing:normal;word-spacing:normal;text-transform:none;writing-mode:lr-tb;direction:ltr;text-orientation:mixed;dominant-baseline:auto;baseline-shift:baseline;text-anchor:start;white-space:normal;shape-padding:0;shape-margin:0;inline-size:0;clip-rule:nonzero;display:inline;overflow:visible;visibility:visible;isolation:auto;mix-blend-mode:normal;color-interpolation:sRGB;color-interpolation-filters:linearRGB;solid-color:#000000;solid-opacity:1;vector-effect:none;fill:#2b5df2;fill-opacity:1;fill-rule:nonzero;stroke:none;stroke-width:120;stroke-linecap:butt;stroke-linejoin:miter;stroke-miterlimit:4;stroke-dasharray:none;stroke-dashoffset:0;stroke-opacity:1;color-rendering:auto;image-rendering:auto;shape-rendering:auto;text-rendering:auto;enable-background:accumulate;stop-color:#000000;stop-opacity:1;opacity:1"
       d="M 266.83203,0 533.41602,177.72266 617.00195,121.99805 632.12891,99.308594 483.16602,0 Z"
       id="path1804" />
    <path
       style="color:#000000;font-style:normal;font-variant:normal;font-weight:normal;font-stretch:normal;font-size:medium;line-height:normal;font-family:sans-serif;font-variant-ligatures:normal;font-variant-position:normal;font-variant-caps:normal;font-variant-numeric:normal;font-variant-alternates:normal;font-variant-east-asian:normal;font-feature-settings:normal;font-variation-settings:normal;text-indent:0;text-align:start;text-decoration:none;text-decoration-line:none;text-decoration-style:solid;text-decoration-color:#000000;letter-spacing:normal;word-spacing:normal;text-transform:none;writing-mode:lr-tb;direction:ltr;text-orientation:mixed;dominant-baseline:auto;baseline-shift:baseline;text-anchor:start;white-space:normal;shape-padding:0;shape-margin:0;inline-size:0;clip-rule:nonzero;display:inline;overflow:visible;visibility:visible;isolation:auto;mix-blend-mode:normal;color-interpolation:sRGB;color-interpolation-filters:linearRGB;solid-color:#000000;solid-opacity:1;vector-effect:none;fill:#2b5df2;fill-opacity:1;fill-rule:nonzero;stroke:none;stroke-width:120;stroke-linecap:butt;stroke-linejoin:miter;stroke-miterlimit:4;stroke-dasharray:none;stroke-dashoffset:0;stroke-opacity:1;color-rendering:auto;image-rendering:auto;shape-rendering:auto;text-rendering:auto;enable-background:accumulate;stop-color:#000000;stop-opacity:1;opacity:1"
       d="M 0,0 V 72.111328 L 345.91602,302.72266 402.20117,265.19922 434.12891,217.30859 108.16602,0 Z"
       id="path1043" />
  </g>
  <g
     id="g1800">
    <path
       style="fill:#fcef3c;fill-opacity:1;fill-rule:evenodd;stroke:none;stroke-width:1.89141;stroke-linecap:butt;stroke-linejoin:miter;stroke-miterlimit:4;stroke-dasharray:none;stroke-opacity:1"
       d="m 771.76953,531.24023 c -2.03735,-0.0164 -4.08124,0.31084 -6.06445,1.05469 -0.64001,0.2953 -1.21055,0.65388 -1.75,1.03906 h 16.5957 c -2.77133,-1.29126 -5.76862,-2.06954 -8.78125,-2.09375 z"
       id="path1755" />
    <path
       style="fill:#fcef3c;fill-opacity:1;fill-rule:evenodd;stroke:none;stroke-width:1.89141;stroke-linecap:butt;stroke-linejoin:miter;stroke-miterlimit:4;stroke-dasharray:none;stroke-opacity:1"
       d="m 702.77539,531.24023 c -3.01263,0.0242 -6.00992,0.80249 -8.78125,2.09375 h 16.5957 c -0.53944,-0.38518 -1.11,-0.74376 -1.75,-1.03906 -1.9832,-0.74385 -4.0271,-1.07106 -6.06445,-1.05469 z"
       id="path1753" />
    <path
       style="fill:#fcef3c;fill-opacity:1;fill-rule:evenodd;stroke:none;stroke-width:1.89141;stroke-linecap:butt;stroke-linejoin:miter;stroke-miterlimit:4;stroke-dasharray:none;stroke-opacity:1"
       d="m 636.16992,531.24023 c -2.03717,-0.0164 -4.08124,0.31084 -6.06445,1.05469 -0.64001,0.2953 -1.21052,0.65388 -1.75,1.03906 h 16.59375 c -2.77096,-1.29122 -5.76699,-2.06954 -8.7793,-2.09375 z"
       id="path1751" />
    <path
       style="fill:#fcef3c;fill-opacity:1;fill-rule:evenodd;stroke:none;stroke-width:1.89141;stroke-linecap:butt;stroke-linejoin:miter;stroke-miterlimit:4;stroke-dasharray:none;stroke-opacity:1"
       d="m 567.17383,531.24023 c -3.01231,0.0242 -6.00834,0.80253 -8.7793,2.09375 h 16.59375 c -0.53947,-0.38518 -1.11,-0.74376 -1.75,-1.03906 -1.98321,-0.74385 -4.02728,-1.07106 -6.06445,-1.05469 z"
       id="path1749" />
    <path
       style="fill:#fcef3c;fill-opacity:1;fill-rule:evenodd;stroke:none;stroke-width:1.89141;stroke-linecap:butt;stroke-linejoin:miter;stroke-miterlimit:4;stroke-dasharray:none;stroke-opacity:1"
       d="m 500.57031,531.24023 c -2.03717,-0.0164 -4.08124,0.31084 -6.06445,1.05469 -0.64001,0.2953 -1.21052,0.65388 -1.75,1.03906 h 16.59375 c -2.77096,-1.29122 -5.76699,-2.06954 -8.7793,-2.09375 z"
       id="path1747" />
    <path
       style="fill:#fcef3c;fill-opacity:1;fill-rule:evenodd;stroke:none;stroke-width:1.89141;stroke-linecap:butt;stroke-linejoin:miter;stroke-miterlimit:4;stroke-dasharray:none;stroke-opacity:1"
       d="m 431.57422,531.24023 c -3.01231,0.0242 -6.00834,0.80253 -8.7793,2.09375 h 16.59375 c -0.53947,-0.38518 -1.11,-0.74376 -1.75,-1.03906 -1.98321,-0.74385 -4.02728,-1.07106 -6.06445,-1.05469 z"
       id="path1745" />
    <path
       style="fill:#fcef3c;fill-opacity:1;fill-rule:evenodd;stroke:none;stroke-width:1.89141;stroke-linecap:butt;stroke-linejoin:miter;stroke-miterlimit:4;stroke-dasharray:none;stroke-opacity:1"
       d="m 364.9707,531.24023 c -2.03717,-0.0164 -4.08124,0.31084 -6.06445,1.05469 -0.64001,0.2953 -1.21052,0.65388 -1.75,1.03906 H 373.75 c -2.77096,-1.29122 -5.76699,-2.06954 -8.7793,-2.09375 z"
       id="path1743" />
    <path
       style="fill:#fcef3c;fill-opacity:1;fill-rule:evenodd;stroke:none;stroke-width:1.89141;stroke-linecap:butt;stroke-linejoin:miter;stroke-miterlimit:4;stroke-dasharray:none;stroke-opacity:1"
       d="m 295.97461,531.24023 c -3.01231,0.0242 -6.00834,0.80253 -8.7793,2.09375 h 16.59375 c -0.53947,-0.38518 -1.11,-0.74376 -1.75,-1.03906 -1.9832,-0.74385 -4.02728,-1.07106 -6.06445,-1.05469 z"
       id="path1741" />
    <path
       style="fill:#fcef3c;fill-opacity:1;fill-rule:evenodd;stroke:none;stroke-width:1.89141;stroke-linecap:butt;stroke-linejoin:miter;stroke-miterlimit:4;stroke-dasharray:none;stroke-opacity:1"
       d="m 229.37109,531.24023 c -2.03717,-0.0164 -4.08124,0.31084 -6.06445,1.05469 -0.64001,0.2953 -1.21052,0.65388 -1.75,1.03906 h 16.59375 c -2.77096,-1.29122 -5.76699,-2.06954 -8.7793,-2.09375 z"
       id="path1739" />
    <path
       style="fill:#fcef3c;fill-opacity:1;fill-rule:evenodd;stroke:none;stroke-width:1.89141;stroke-linecap:butt;stroke-linejoin:miter;stroke-miterlimit:4;stroke-dasharray:none;stroke-opacity:1"
       d="m 160.375,531.24023 c -3.01263,0.0242 -6.00992,0.80249 -8.78125,2.09375 h 16.5957 c -0.53944,-0.38518 -1.11,-0.74376 -1.75,-1.03906 -1.9832,-0.74385 -4.0271,-1.07106 -6.06445,-1.05469 z"
       id="path1737" />
    <path
       style="fill:#fcef3c;fill-opacity:1;fill-rule:evenodd;stroke:none;stroke-width:1.89141;stroke-linecap:butt;stroke-linejoin:miter;stroke-miterlimit:4;stroke-dasharray:none;stroke-opacity:1"
       d="m 93.769531,531.24023 c -2.037354,-0.0164 -4.081245,0.31084 -6.064453,1.05469 -0.640006,0.2953 -1.210549,0.65388 -1.75,1.03906 h 16.595702 c -2.771333,-1.29126 -5.768618,-2.06954 -8.781249,-2.09375 z"
       id="path1735" />
    <path
       style="fill:#fcef3c;fill-opacity:1;fill-rule:evenodd;stroke:none;stroke-width:1.89141;stroke-linecap:butt;stroke-linejoin:miter;stroke-miterlimit:4;stroke-dasharray:none;stroke-opacity:1"
       d="m 800,494.46094 c -6.21231,7.50806 -10.32422,15.68324 -10.30664,25.8164 0.008,4.46396 0.91148,8.78546 2.19726,13.05664 H 800 Z"
       id="path1733" />
    <path
       style="fill:#fcef3c;fill-opacity:1;fill-rule:evenodd;stroke:none;stroke-width:1.89141;stroke-linecap:butt;stroke-linejoin:miter;stroke-miterlimit:4;stroke-dasharray:none;stroke-opacity:1"
       d="m 397.97656,489.18164 c -8.7959,8.99547 -15.10576,18.54456 -15.08398,31.0957 0.008,4.46396 0.91147,8.78546 2.19726,13.05664 h 26.83594 c 1.24089,-4.2061 2.00677,-8.51383 1.72852,-13.05664 -0.95259,-15.5495 -6.4067,-21.07458 -15.67774,-31.0957 z"
       id="path1731" />
    <path
       style="fill:#fcef3c;fill-opacity:1;fill-rule:evenodd;stroke:none;stroke-width:1.89141;stroke-linecap:butt;stroke-linejoin:miter;stroke-miterlimit:4;stroke-dasharray:none;stroke-opacity:1"
       d="m 669.17773,489.17969 c -8.79692,8.99605 -15.10771,18.54558 -15.08593,31.09765 0.008,4.46399 0.91314,8.78543 2.19922,13.05664 H 683.125 c 1.24062,-4.2061 2.00677,-8.51383 1.72852,-13.05664 -0.95262,-15.55008 -6.40413,-21.07583 -15.67579,-31.09765 z"
       id="path1729" />
    <path
       style="fill:#fcef3c;fill-opacity:1;fill-rule:evenodd;stroke:none;stroke-width:1.89141;stroke-linecap:butt;stroke-linejoin:miter;stroke-miterlimit:4;stroke-dasharray:none;stroke-opacity:1"
       d="m 533.57812,489.17969 c -8.79692,8.99605 -15.10771,18.54558 -15.08593,31.09765 0.008,4.46399 0.91314,8.78543 2.19922,13.05664 h 26.83398 c 1.24089,-4.2061 2.00677,-8.51383 1.72852,-13.05664 -0.95262,-15.55008 -6.40411,-21.07583 -15.67579,-31.09765 z"
       id="path1727" />
    <path
       style="fill:#fcef3c;fill-opacity:1;fill-rule:evenodd;stroke:none;stroke-width:1.89141;stroke-linecap:butt;stroke-linejoin:miter;stroke-miterlimit:4;stroke-dasharray:none;stroke-opacity:1"
       d="m 262.37695,489.17969 c -8.79692,8.99605 -15.10576,18.54558 -15.08398,31.09765 0.008,4.46396 0.91147,8.78546 2.19726,13.05664 h 26.83399 c 1.24062,-4.2061 2.00677,-8.51383 1.72851,-13.05664 -0.95262,-15.55008 -6.40412,-21.07583 -15.67578,-31.09765 z"
       id="path1725" />
    <path
       style="fill:#fcef3c;fill-opacity:1;fill-rule:evenodd;stroke:none;stroke-width:1.89141;stroke-linecap:butt;stroke-linejoin:miter;stroke-miterlimit:4;stroke-dasharray:none;stroke-opacity:1"
       d="m 126.77734,489.17969 c -8.79692,8.99605 -15.10576,18.54558 -15.08398,31.09765 0.008,4.46396 0.91148,8.78546 2.19726,13.05664 h 26.83399 c 1.24062,-4.2061 2.00677,-8.51383 1.72851,-13.05664 -0.95261,-15.55008 -6.40412,-21.07583 -15.67578,-31.09765 z"
       id="path1723" />
    <path
       style="fill:#fcef3c;fill-opacity:1;fill-rule:evenodd;stroke:none;stroke-width:1.89141;stroke-linecap:butt;stroke-linejoin:miter;stroke-miterlimit:4;stroke-dasharray:none;stroke-opacity:1"
       d="m 328.97656,395.18164 c -8.7959,8.99547 -15.10576,18.54456 -15.08398,31.0957 0.0249,13.90102 8.69381,26.421 10.75781,40.33985 0.33564,2.26387 0.62827,6.5366 0.48242,9.08984 h -2.35351 c -0.0923,-2.19997 -0.11347,-6.57896 -0.56836,-9.20703 -1.01086,-5.84115 -4.24746,-16.11228 -9.86328,-21.80273 -5.6136,-5.68803 -14.50858,-9.37777 -22.44141,-6.40235 -7.18763,3.31639 -7.86734,12.68257 -5.82227,19.53125 2.56136,8.57724 12.34995,14.51399 21.125,15.09571 -1.7388,-3.43845 -5.90233,-13.25287 -1.38867,-12.86329 5.22138,0.45062 11.02267,9.55044 12.6543,15.64844 h -6.39453 c -1.22243,0 -2.20508,0.9865 -2.20508,2.20899 v 2.50781 c 0,1.22247 0.98265,2.20703 2.20508,2.20703 h 10.00586 c -2.48843,6.53167 -8.14057,11.06517 -13.13672,15.83008 5.57723,0.46359 11.09467,-2.15983 15.96094,-4.66016 0.10246,8.16665 0.6006,15.4261 6.06836,21.37891 5.89061,-5.781 6.86201,-16.36733 6.65625,-21.37891 4.86619,2.50033 10.38557,5.12375 15.96289,4.66016 -4.99615,-4.76491 -10.65211,-9.29839 -13.14063,-15.83008 h 10.00977 c 1.22243,0 2.20507,-0.98456 2.20508,-2.20703 v -2.50781 c 0,-1.22249 -0.98265,-2.20899 -2.20508,-2.20899 h -6.89063 c 0.0166,-0.0682 0.0274,-0.14275 0.0449,-0.20898 1.62711,-6.09807 7.87667,-14.98853 13.10157,-15.43946 4.51366,-0.38958 0.35208,9.42483 -1.38672,12.86329 8.77495,-0.58171 18.56374,-6.51847 21.125,-15.09571 2.04507,-6.84868 1.36527,-16.21486 -5.82227,-19.53125 -7.93283,-2.97542 -16.8278,0.71432 -22.4414,6.40235 -5.61591,5.69045 -8.85252,15.96158 -9.86329,21.80273 -0.43135,2.49235 -0.60672,6.79385 -0.74804,9.20703 h -2.17188 c -0.14585,-2.55324 0.14475,-6.82597 0.48047,-9.08984 2.06391,-13.91885 11.64121,-25.94942 10.75977,-40.33985 -0.95259,-15.5495 -6.4067,-21.07458 -15.67774,-31.0957 z"
       id="path1721" />
    <path
       style="fill:#fcef3c;fill-opacity:1;fill-rule:evenodd;stroke:none;stroke-width:1.89141;stroke-linecap:butt;stroke-linejoin:miter;stroke-miterlimit:4;stroke-dasharray:none;stroke-opacity:1"
       d="m 735.77734,395.17969 c -8.79692,8.99605 -15.10576,18.54558 -15.08398,31.09765 0.0249,13.90102 8.69381,26.421 10.75781,40.33985 0.33564,2.26387 0.62632,6.5366 0.48047,9.08984 h -2.35156 c -0.0923,-2.19997 -0.11347,-6.57896 -0.56836,-9.20703 -1.01086,-5.84115 -4.24746,-16.11228 -9.86328,-21.80273 -5.6136,-5.68803 -14.51053,-9.37777 -22.44336,-6.40235 -7.18763,3.31639 -7.86538,12.68257 -5.82031,19.53125 2.56136,8.57724 12.34799,14.51399 21.12304,15.09571 -1.7388,-3.43845 -5.90038,-13.25287 -1.38672,-12.86329 5.22138,0.45062 11.02267,9.55044 12.6543,15.64844 h -6.39453 c -1.22243,0 -2.20703,0.9865 -2.20703,2.20899 v 2.50781 c 0,1.22247 0.9846,2.20703 2.20703,2.20703 h 10.00586 c -2.48843,6.53167 -8.14057,11.06517 -13.13672,15.83008 5.57723,0.46359 11.09271,-2.15983 15.95898,-4.66016 0.10246,8.16665 0.6006,15.4261 6.06836,21.37891 5.89061,-5.781 6.86397,-16.36733 6.65821,-21.37891 4.86619,2.50033 10.38361,5.12375 15.96093,4.66016 -4.99615,-4.76491 -10.65015,-9.29839 -13.13867,-15.83008 h 10.00781 c 1.22245,0 2.20704,-0.98456 2.20704,-2.20703 v -2.50781 c 0,-1.22249 -0.9846,-2.20899 -2.20704,-2.20899 h -6.88867 c 0.0166,-0.0682 0.0274,-0.14275 0.0449,-0.20898 1.62711,-6.09807 7.87666,-14.98853 13.10156,-15.43946 4.51366,-0.38958 0.35208,9.42483 -1.38672,12.86329 8.77495,-0.58171 18.56179,-6.51847 21.12305,-15.09571 2.04507,-6.84868 1.36722,-16.21486 -5.82032,-19.53125 -7.93283,-2.97542 -16.82976,0.71432 -22.44336,6.40235 -5.61591,5.69045 -8.85055,15.96158 -9.86132,21.80273 -0.43135,2.49235 -0.60673,6.79385 -0.74805,9.20703 h -2.17188 c -0.14585,-2.55324 0.14475,-6.82597 0.48047,-9.08984 2.06391,-13.91885 11.63926,-25.94942 10.75781,-40.33985 -0.95262,-15.55008 -6.40412,-21.07583 -15.67578,-31.09765 z"
       id="path1719" />
    <path
       style="fill:#fcef3c;fill-opacity:1;fill-rule:evenodd;stroke:none;stroke-width:1.89141;stroke-linecap:butt;stroke-linejoin:miter;stroke-miterlimit:4;stroke-dasharray:none;stroke-opacity:1"
       d="m 600.17773,395.17969 c -8.79692,8.99605 -15.10771,18.54558 -15.08593,31.09765 0.0249,13.90102 8.69576,26.421 10.75976,40.33985 0.33564,2.26387 0.62632,6.5366 0.48047,9.08984 h -2.35351 c -0.0923,-2.19997 -0.11152,-6.57896 -0.56641,-9.20703 -1.01086,-5.84115 -4.24943,-16.11228 -9.86523,-21.80273 -5.61361,-5.68803 -14.50858,-9.37777 -22.44141,-6.40235 -7.18763,3.31639 -7.86734,12.68257 -5.82227,19.53125 2.56136,8.57724 12.34995,14.51399 21.125,15.09571 -1.7388,-3.43845 -5.90038,-13.25287 -1.38672,-12.86329 5.22138,0.45062 11.02267,9.55044 12.6543,15.64844 h -6.39648 c -1.22243,0 -2.20508,0.9865 -2.20508,2.20899 v 2.50781 c 0,1.22247 0.98265,2.20703 2.20508,2.20703 h 10.00781 c -2.48843,6.53167 -8.14252,11.06517 -13.13867,15.83008 5.57723,0.46359 11.09467,-2.15983 15.96094,-4.66016 0.10244,8.16665 0.60059,15.4261 6.06835,21.37891 5.89061,-5.781 6.86397,-16.36733 6.65821,-21.37891 4.86619,2.50033 10.3836,5.12375 15.96094,4.66016 -4.99615,-4.76491 -10.65016,-9.29839 -13.13868,-15.83008 h 10.00782 c 1.22243,0 2.20507,-0.98456 2.20507,-2.20703 v -2.50781 c 0,-1.22249 -0.98264,-2.20899 -2.20507,-2.20899 h -6.88868 c 0.0166,-0.0682 0.0274,-0.14275 0.0449,-0.20898 1.62711,-6.09807 7.87666,-14.98853 13.10156,-15.43946 4.51366,-0.38958 0.35208,9.42483 -1.38672,12.86329 8.77495,-0.58171 18.56179,-6.51847 21.12305,-15.09571 2.04507,-6.84868 1.36722,-16.21486 -5.82032,-19.53125 -7.93283,-2.97542 -16.82976,0.71432 -22.44336,6.40235 -5.61591,5.69045 -8.85055,15.96158 -9.86132,21.80273 -0.43135,2.49235 -0.60673,6.79385 -0.74805,9.20703 h -2.17383 c -0.14585,-2.55324 0.1467,-6.82597 0.48242,-9.08984 2.06391,-13.91885 11.63926,-25.94942 10.75782,-40.33985 -0.95262,-15.55008 -6.40413,-21.07583 -15.67579,-31.09765 z"
       id="path1717" />
    <path
       style="fill:#fcef3c;fill-opacity:1;fill-rule:evenodd;stroke:none;stroke-width:1.89141;stroke-linecap:butt;stroke-linejoin:miter;stroke-miterlimit:4;stroke-dasharray:none;stroke-opacity:1"
       d="m 464.57812,395.17969 c -8.79692,8.99605 -15.10771,18.54558 -15.08593,31.09765 0.0249,13.90102 8.69576,26.421 10.75976,40.33985 0.33564,2.26387 0.62632,6.5366 0.48047,9.08984 h -2.35351 c -0.0923,-2.19997 -0.11152,-6.57896 -0.56641,-9.20703 -1.01086,-5.84115 -4.24941,-16.11228 -9.86523,-21.80273 -5.6136,-5.68803 -14.50858,-9.37777 -22.44141,-6.40235 -7.18763,3.31639 -7.86734,12.68257 -5.82227,19.53125 2.56136,8.57724 12.34995,14.51399 21.125,15.09571 -1.7388,-3.43845 -5.90039,-13.25287 -1.38671,-12.86329 5.22138,0.45062 11.02071,9.55044 12.65234,15.64844 h -6.39453 c -1.22243,0 -2.20508,0.9865 -2.20508,2.20899 v 2.50781 c 0,1.22247 0.98265,2.20703 2.20508,2.20703 h 10.00781 c -2.48843,6.53167 -8.14252,11.06517 -13.13867,15.83008 5.57723,0.46359 11.09467,-2.15983 15.96094,-4.66016 0.10246,8.16665 0.60061,15.4261 6.06835,21.37891 5.89061,-5.781 6.86201,-16.36733 6.65626,-21.37891 4.86619,2.50033 10.38557,5.12375 15.96289,4.66016 -4.99615,-4.76491 -10.65016,-9.29839 -13.13868,-15.83008 h 10.00782 c 1.22243,0 2.20507,-0.98456 2.20507,-2.20703 v -2.50781 c 0,-1.22249 -0.98264,-2.20899 -2.20507,-2.20899 h -6.89063 c 0.0166,-0.0682 0.0274,-0.14275 0.0449,-0.20898 1.62711,-6.09807 7.87862,-14.98853 13.10352,-15.43946 4.51366,-0.38958 0.35208,9.42483 -1.38672,12.86329 8.77495,-0.58171 18.56179,-6.51847 21.12305,-15.09571 2.04507,-6.84868 1.36527,-16.21486 -5.82227,-19.53125 -7.93283,-2.97542 -16.82782,0.71432 -22.4414,6.40235 -5.61591,5.69045 -8.85252,15.96158 -9.86329,21.80273 -0.43135,2.49235 -0.60477,6.79385 -0.74609,9.20703 h -2.17383 c -0.14585,-2.55324 0.14475,-6.82597 0.48047,-9.08984 2.06391,-13.91885 11.64121,-25.94942 10.75977,-40.33985 -0.95262,-15.55008 -6.40411,-21.07583 -15.67579,-31.09765 z"
       id="path1715" />
    <path
       style="fill:#fcef3c;fill-opacity:1;fill-rule:evenodd;stroke:none;stroke-width:1.89141;stroke-linecap:butt;stroke-linejoin:miter;stroke-miterlimit:4;stroke-dasharray:none;stroke-opacity:1"
       d="m 193.37695,395.17969 c -8.79692,8.99605 -15.10576,18.54558 -15.08398,31.09765 0.0249,13.90102 8.69381,26.421 10.75781,40.33985 0.33564,2.26387 0.62632,6.5366 0.48047,9.08984 h -2.35156 c -0.0923,-2.19997 -0.11347,-6.57896 -0.56836,-9.20703 -1.01086,-5.84115 -4.24746,-16.11228 -9.86328,-21.80273 -5.6136,-5.68803 -14.50858,-9.37777 -22.44141,-6.40235 -7.18763,3.31639 -7.86733,12.68257 -5.82226,19.53125 2.56136,8.57724 12.34799,14.51399 21.12304,15.09571 -1.7388,-3.43845 -5.90038,-13.25287 -1.38672,-12.86329 5.22138,0.45062 11.02267,9.55044 12.6543,15.64844 h -6.39453 c -1.22243,0 -2.20703,0.9865 -2.20703,2.20899 v 2.50781 c 0,1.22247 0.9846,2.20703 2.20703,2.20703 h 10.00586 c -2.48843,6.53167 -8.14057,11.06517 -13.13672,15.83008 5.57723,0.46359 11.09467,-2.15983 15.96094,-4.66016 0.10246,8.16665 0.59864,15.4261 6.0664,21.37891 5.89061,-5.781 6.86397,-16.36733 6.65821,-21.37891 4.86619,2.50033 10.38361,5.12375 15.96093,4.66016 -4.99615,-4.76491 -10.65015,-9.29839 -13.13867,-15.83008 h 10.00781 c 1.22243,0 2.20704,-0.98456 2.20704,-2.20703 v -2.50781 c 0,-1.22249 -0.98461,-2.20899 -2.20704,-2.20899 h -6.88867 c 0.0166,-0.0682 0.0274,-0.14275 0.0449,-0.20898 1.62711,-6.09807 7.87667,-14.98853 13.10157,-15.43946 4.51366,-0.38958 0.35208,9.42483 -1.38672,12.86329 8.77495,-0.58171 18.56374,-6.51847 21.125,-15.09571 2.04507,-6.84868 1.36527,-16.21486 -5.82227,-19.53125 -7.93283,-2.97542 -16.8278,0.71432 -22.4414,6.40235 -5.61591,5.69045 -8.85251,15.96158 -9.86328,21.80273 -0.43136,2.49235 -0.60673,6.79385 -0.74805,9.20703 h -2.17188 c -0.14585,-2.55324 0.14475,-6.82597 0.48047,-9.08984 2.06391,-13.91885 11.63925,-25.94942 10.75781,-40.33985 -0.95262,-15.55008 -6.40412,-21.07583 -15.67578,-31.09765 z"
       id="path1713" />
    <path
       style="fill:#fcef3c;fill-opacity:1;fill-rule:evenodd;stroke:none;stroke-width:1.89141;stroke-linecap:butt;stroke-linejoin:miter;stroke-miterlimit:4;stroke-dasharray:none;stroke-opacity:1"
       d="m 771.76953,343.24023 c -2.03735,-0.0164 -4.08124,0.31084 -6.06445,1.05469 -7.18763,3.31639 -7.86538,12.68257 -5.82031,19.53125 2.56136,8.57724 12.34799,14.51399 21.12304,15.09571 -1.7388,-3.43845 -5.90038,-13.25287 -1.38672,-12.86329 5.22138,0.45062 11.02267,9.55044 12.6543,15.64844 h -6.39453 c -1.22243,0 -2.20703,0.9865 -2.20703,2.20899 v 2.50781 c 0,1.22247 0.9846,2.20703 2.20703,2.20703 h 10.00586 c -2.48843,6.53167 -8.14057,11.06517 -13.13672,15.83008 5.57723,0.46359 11.09271,-2.15983 15.95898,-4.66016 0.0563,4.48581 0.23795,8.69617 1.29102,12.56836 v -30.66211 h -1.41992 c -0.0923,-2.19997 -0.11347,-6.57896 -0.56836,-9.20703 -1.01086,-5.84115 -4.24746,-16.11228 -9.86328,-21.80273 -4.2102,-4.26603 -10.26685,-7.40793 -16.37891,-7.45704 z"
       id="path1711" />
    <path
       style="fill:#fcef3c;fill-opacity:1;fill-rule:evenodd;stroke:none;stroke-width:1.89141;stroke-linecap:butt;stroke-linejoin:miter;stroke-miterlimit:4;stroke-dasharray:none;stroke-opacity:1"
       d="m 800,306.46094 c -6.21231,7.50806 -10.32422,15.68324 -10.30664,25.8164 0.0234,13.05053 7.66375,24.88445 10.30664,37.80078 z"
       id="path1709" />
    <path
       style="fill:#fcef3c;fill-opacity:1;fill-rule:evenodd;stroke:none;stroke-width:1.89141;stroke-linecap:butt;stroke-linejoin:miter;stroke-miterlimit:4;stroke-dasharray:none;stroke-opacity:1"
       d="m 397.97656,301.18164 c -8.7959,8.99547 -15.10576,18.54456 -15.08398,31.0957 0.0249,13.90102 8.69381,26.421 10.75781,40.33985 0.33564,2.26387 0.62827,6.5366 0.48242,9.08984 h -2.35351 c -0.0923,-2.19997 -0.11347,-6.57896 -0.56836,-9.20703 -1.01086,-5.84115 -4.24746,-16.11228 -9.86328,-21.80273 -5.6136,-5.68803 -14.50858,-9.37777 -22.44141,-6.40235 -7.18763,3.31639 -7.86734,12.68257 -5.82227,19.53125 2.56136,8.57724 12.34995,14.51399 21.125,15.09571 -1.7388,-3.43845 -5.90233,-13.25287 -1.38867,-12.86329 5.22138,0.45062 11.02267,9.55044 12.6543,15.64844 h -6.39453 c -1.22243,0 -2.20508,0.9865 -2.20508,2.20899 v 2.50781 c 0,1.22247 0.98265,2.20703 2.20508,2.20703 h 10.00586 c -2.48843,6.53167 -8.14057,11.06517 -13.13672,15.83008 5.57723,0.46359 11.09467,-2.15983 15.96094,-4.66016 0.10246,8.16665 0.6006,15.4261 6.06836,21.37891 5.89061,-5.781 6.86201,-16.36733 6.65625,-21.37891 4.86619,2.50033 10.38557,5.12375 15.96289,4.66016 -4.99615,-4.76491 -10.65211,-9.29839 -13.14063,-15.83008 h 10.00977 c 1.22243,0 2.20507,-0.98456 2.20508,-2.20703 v -2.50781 c 0,-1.22249 -0.98265,-2.20899 -2.20508,-2.20899 h -6.89063 c 0.0166,-0.0682 0.0274,-0.14275 0.0449,-0.20898 1.62711,-6.09807 7.87667,-14.98853 13.10157,-15.43946 4.51366,-0.38958 0.35208,9.42484 -1.38672,12.86329 8.77495,-0.58171 18.56374,-6.51847 21.125,-15.09571 2.04507,-6.84868 1.36527,-16.21486 -5.82227,-19.53125 -7.93283,-2.97542 -16.8278,0.71432 -22.4414,6.40235 -5.61591,5.69045 -8.85252,15.96158 -9.86329,21.80273 -0.43135,2.49235 -0.60672,6.79385 -0.74804,9.20703 h -2.17188 c -0.14585,-2.55324 0.14475,-6.82597 0.48047,-9.08984 2.06391,-13.91885 11.64121,-25.94942 10.75977,-40.33985 -0.95259,-15.5495 -6.4067,-21.07458 -15.67774,-31.0957 z"
       id="path1707" />
    <path
       style="fill:#fcef3c;fill-opacity:1;fill-rule:evenodd;stroke:none;stroke-width:1.89141;stroke-linecap:butt;stroke-linejoin:miter;stroke-miterlimit:4;stroke-dasharray:none;stroke-opacity:1"
       d="m 669.17773,301.17969 c -8.79692,8.99605 -15.10771,18.54558 -15.08593,31.09765 0.0249,13.90102 8.69576,26.421 10.75976,40.33985 0.33564,2.26387 0.62632,6.5366 0.48047,9.08984 h -2.35351 c -0.0923,-2.19997 -0.11152,-6.57896 -0.56641,-9.20703 -1.01086,-5.84115 -4.24943,-16.11228 -9.86523,-21.80273 -5.61361,-5.68803 -14.50858,-9.37777 -22.44141,-6.40235 -7.18763,3.31639 -7.86734,12.68257 -5.82227,19.53125 2.56136,8.57724 12.34995,14.51399 21.125,15.09571 -1.7388,-3.43845 -5.90038,-13.25287 -1.38672,-12.86329 5.22138,0.45062 11.02267,9.55044 12.6543,15.64844 h -6.39648 c -1.22243,0 -2.20508,0.9865 -2.20508,2.20899 v 2.50781 c 0,1.22247 0.98265,2.20703 2.20508,2.20703 h 10.00781 c -2.48843,6.53167 -8.14252,11.06517 -13.13867,15.83008 5.57723,0.46359 11.09467,-2.15983 15.96094,-4.66016 0.10244,8.16665 0.60059,15.4261 6.06835,21.37891 5.89061,-5.781 6.86397,-16.36733 6.65821,-21.37891 4.86619,2.50033 10.38362,5.12375 15.96094,4.66016 -4.99615,-4.76491 -10.65016,-9.29839 -13.13868,-15.83008 h 10.00782 c 1.22243,0 2.20507,-0.98456 2.20507,-2.20703 v -2.50781 c 0,-1.22249 -0.98264,-2.20899 -2.20507,-2.20899 h -6.88868 c 0.0166,-0.0682 0.0274,-0.14275 0.0449,-0.20898 1.62711,-6.09807 7.87666,-14.98853 13.10156,-15.43946 4.51366,-0.38958 0.35208,9.42484 -1.38672,12.86329 8.77495,-0.58171 18.56179,-6.51847 21.12305,-15.09571 2.04507,-6.84868 1.36722,-16.21486 -5.82032,-19.53125 -7.93283,-2.97542 -16.82976,0.71432 -22.44336,6.40235 -5.61591,5.69045 -8.85055,15.96158 -9.86132,21.80273 -0.43135,2.49235 -0.60673,6.79385 -0.74805,9.20703 h -2.17383 c -0.14585,-2.55324 0.1467,-6.82597 0.48242,-9.08984 2.06391,-13.91885 11.63926,-25.94942 10.75782,-40.33985 -0.95262,-15.55008 -6.40413,-21.07583 -15.67579,-31.09765 z"
       id="path1705" />
    <path
       style="fill:#fcef3c;fill-opacity:1;fill-rule:evenodd;stroke:none;stroke-width:1.89141;stroke-linecap:butt;stroke-linejoin:miter;stroke-miterlimit:4;stroke-dasharray:none;stroke-opacity:1"
       d="m 533.57812,301.17969 c -8.79692,8.99605 -15.10771,18.54558 -15.08593,31.09765 0.0249,13.90102 8.69576,26.421 10.75976,40.33985 0.33564,2.26387 0.62632,6.5366 0.48047,9.08984 h -2.35351 c -0.0923,-2.19997 -0.11152,-6.57896 -0.56641,-9.20703 -1.01086,-5.84115 -4.24941,-16.11228 -9.86523,-21.80273 -5.6136,-5.68803 -14.50858,-9.37777 -22.44141,-6.40235 -7.18763,3.31639 -7.86734,12.68257 -5.82227,19.53125 2.56136,8.57724 12.34995,14.51399 21.125,15.09571 -1.7388,-3.43845 -5.90039,-13.25287 -1.38671,-12.86329 5.22136,0.45062 11.02071,9.55044 12.65234,15.64844 h -6.39453 c -1.22243,0 -2.20508,0.9865 -2.20508,2.20899 v 2.50781 c 0,1.22247 0.98265,2.20703 2.20508,2.20703 h 10.00781 c -2.48843,6.53167 -8.14252,11.06517 -13.13867,15.83008 5.57723,0.46359 11.09467,-2.15983 15.96094,-4.66016 0.10246,8.16665 0.6006,15.4261 6.06835,21.37891 5.89063,-5.781 6.862,-16.36733 6.65626,-21.37891 4.86617,2.50033 10.38557,5.12375 15.96289,4.66016 -4.99615,-4.76491 -10.65016,-9.29839 -13.13868,-15.83008 h 10.00782 c 1.22243,0 2.20507,-0.98456 2.20507,-2.20703 v -2.50781 c 0,-1.22249 -0.98264,-2.20899 -2.20507,-2.20899 h -6.89063 c 0.0166,-0.0682 0.0274,-0.14275 0.0449,-0.20898 1.62711,-6.09807 7.87862,-14.98853 13.10352,-15.43946 4.51366,-0.38958 0.35208,9.42484 -1.38672,12.86329 8.77495,-0.58171 18.56179,-6.51847 21.12305,-15.09571 2.04507,-6.84868 1.36527,-16.21486 -5.82227,-19.53125 -7.93283,-2.97542 -16.82782,0.71432 -22.4414,6.40235 -5.61591,5.69045 -8.85252,15.96158 -9.86329,21.80273 -0.43135,2.49235 -0.60477,6.79385 -0.74609,9.20703 h -2.17383 c -0.14585,-2.55324 0.14475,-6.82597 0.48047,-9.08984 2.06391,-13.91885 11.64121,-25.94942 10.75977,-40.33985 -0.95262,-15.55008 -6.40411,-21.07583 -15.67579,-31.09765 z"
       id="path1703" />
    <path
       style="fill:#fcef3c;fill-opacity:1;fill-rule:evenodd;stroke:none;stroke-width:1.89141;stroke-linecap:butt;stroke-linejoin:miter;stroke-miterlimit:4;stroke-dasharray:none;stroke-opacity:1"
       d="m 735.77734,207.17969 c -8.79692,8.99605 -15.10576,18.54558 -15.08398,31.09765 0.0249,13.90102 8.69381,26.421 10.75781,40.33985 0.33564,2.26387 0.62632,6.5366 0.48047,9.08984 h -2.35156 c -0.0923,-2.19997 -0.11347,-6.57896 -0.56836,-9.20703 -1.01086,-5.84115 -4.24746,-16.11228 -9.86328,-21.80273 -5.6136,-5.68803 -14.51053,-9.37777 -22.44336,-6.40235 -7.18763,3.31639 -7.86538,12.68257 -5.82031,19.53125 2.56136,8.57724 12.34799,14.51398 21.12304,15.09571 -1.7388,-3.43845 -5.90038,-13.25287 -1.38672,-12.86329 5.22138,0.45062 11.02267,9.55044 12.6543,15.64844 h -6.39453 c -1.22243,0 -2.20703,0.9865 -2.20703,2.20899 v 2.50781 c 0,1.22247 0.9846,2.20703 2.20703,2.20703 h 10.00586 c -2.48843,6.53167 -8.14057,11.06517 -13.13672,15.83008 5.57723,0.46359 11.09271,-2.15983 15.95898,-4.66016 0.10246,8.16665 0.6006,15.4261 6.06836,21.37891 5.89061,-5.781 6.86397,-16.36733 6.65821,-21.37891 4.86619,2.50033 10.38361,5.12375 15.96093,4.66016 -4.99615,-4.76491 -10.65015,-9.29839 -13.13867,-15.83008 h 10.00781 c 1.22245,0 2.20704,-0.98456 2.20704,-2.20703 v -2.50781 c 0,-1.22249 -0.9846,-2.20899 -2.20704,-2.20899 h -6.88867 c 0.0166,-0.0682 0.0274,-0.14275 0.0449,-0.20898 1.62711,-6.09807 7.87666,-14.98853 13.10156,-15.43946 4.51366,-0.38958 0.35208,9.42484 -1.38672,12.86329 8.77495,-0.58171 18.56179,-6.51847 21.12305,-15.09571 2.04507,-6.84868 1.36722,-16.21486 -5.82032,-19.53125 -7.93283,-2.97542 -16.82976,0.71432 -22.44336,6.40235 -5.61591,5.69045 -8.85055,15.96158 -9.86132,21.80273 -0.43135,2.49235 -0.60673,6.79385 -0.74805,9.20703 h -2.17188 c -0.14585,-2.55324 0.14475,-6.82597 0.48047,-9.08984 2.06391,-13.91885 11.63926,-25.94942 10.75781,-40.33985 -0.95262,-15.55008 -6.40412,-21.07583 -15.67578,-31.09765 z"
       id="path1701" />
    <path
       style="fill:#fcef3c;fill-opacity:1;fill-rule:evenodd;stroke:none;stroke-width:1.89141;stroke-linecap:butt;stroke-linejoin:miter;stroke-miterlimit:4;stroke-dasharray:none;stroke-opacity:1"
       d="m 600.17773,207.17969 c -8.79692,8.99605 -15.10771,18.54558 -15.08593,31.09765 0.0249,13.90102 8.69576,26.421 10.75976,40.33985 0.33564,2.26387 0.62632,6.5366 0.48047,9.08984 h -2.35351 c -0.0923,-2.19997 -0.11152,-6.57896 -0.56641,-9.20703 -1.01086,-5.84115 -4.24943,-16.11228 -9.86523,-21.80273 -5.61361,-5.68803 -14.50858,-9.37777 -22.44141,-6.40235 -7.18763,3.31639 -7.86734,12.68257 -5.82227,19.53125 2.56136,8.57724 12.34995,14.51398 21.125,15.09571 -1.7388,-3.43845 -5.90038,-13.25287 -1.38672,-12.86329 5.22138,0.45062 11.02267,9.55044 12.6543,15.64844 h -6.39648 c -1.22243,0 -2.20508,0.9865 -2.20508,2.20899 v 2.50781 c 0,1.22247 0.98265,2.20703 2.20508,2.20703 h 10.00781 c -2.48843,6.53167 -8.14252,11.06517 -13.13867,15.83008 5.57723,0.46359 11.09467,-2.15983 15.96094,-4.66016 0.10244,8.16665 0.60059,15.4261 6.06835,21.37891 5.89061,-5.781 6.86397,-16.36733 6.65821,-21.37891 4.86619,2.50033 10.3836,5.12375 15.96094,4.66016 -4.99615,-4.76491 -10.65016,-9.29839 -13.13868,-15.83008 h 10.00782 c 1.22243,0 2.20507,-0.98456 2.20507,-2.20703 v -2.50781 c 0,-1.22249 -0.98264,-2.20899 -2.20507,-2.20899 h -6.88868 c 0.0166,-0.0682 0.0274,-0.14275 0.0449,-0.20898 1.62711,-6.09807 7.87666,-14.98853 13.10156,-15.43946 4.51366,-0.38958 0.35208,9.42484 -1.38672,12.86329 8.77495,-0.58171 18.56179,-6.51847 21.12305,-15.09571 2.04507,-6.84868 1.36722,-16.21486 -5.82032,-19.53125 -7.93283,-2.97542 -16.82976,0.71432 -22.44336,6.40235 -5.61591,5.69045 -8.85055,15.96158 -9.86132,21.80273 -0.43135,2.49235 -0.60673,6.79385 -0.74805,9.20703 h -2.17383 c -0.14585,-2.55324 0.1467,-6.82597 0.48242,-9.08984 2.06391,-13.91885 11.63926,-25.94942 10.75782,-40.33985 -0.95262,-15.55008 -6.40413,-21.07583 -15.67579,-31.09765 z"
       id="path1699" />
    <path
       style="fill:#fcef3c;fill-opacity:1;fill-rule:evenodd;stroke:none;stroke-width:1.89141;stroke-linecap:butt;stroke-linejoin:miter;stroke-miterlimit:4;stroke-dasharray:none;stroke-opacity:1"
       d="m 464.57812,207.17969 c -8.79692,8.99605 -15.10771,18.54558 -15.08593,31.09765 0.0249,13.90102 8.69576,26.421 10.75976,40.33985 0.33564,2.26387 0.62632,6.5366 0.48047,9.08984 h -2.35351 c -0.0923,-2.19997 -0.11152,-6.57896 -0.56641,-9.20703 -1.01086,-5.84115 -4.24941,-16.11228 -9.86523,-21.80273 -5.6136,-5.68803 -14.50858,-9.37777 -22.44141,-6.40235 -7.18763,3.31639 -7.86734,12.68257 -5.82227,19.53125 2.56136,8.57724 12.34995,14.51398 21.125,15.09571 -1.7388,-3.43845 -5.90039,-13.25287 -1.38671,-12.86329 5.22138,0.45062 11.02071,9.55044 12.65234,15.64844 h -6.39453 c -1.22243,0 -2.20508,0.9865 -2.20508,2.20899 v 2.50781 c 0,1.22247 0.98265,2.20703 2.20508,2.20703 h 10.00781 c -2.48843,6.53167 -8.14252,11.06517 -13.13867,15.83008 5.57723,0.46359 11.09467,-2.15983 15.96094,-4.66016 0.10246,8.16665 0.60061,15.4261 6.06835,21.37891 5.89061,-5.781 6.86201,-16.36733 6.65626,-21.37891 4.86619,2.50033 10.38557,5.12375 15.96289,4.66016 -4.99615,-4.76491 -10.65016,-9.29839 -13.13868,-15.83008 h 10.00782 c 1.22243,0 2.20507,-0.98456 2.20507,-2.20703 v -2.50781 c 0,-1.22249 -0.98264,-2.20899 -2.20507,-2.20899 h -6.89063 c 0.0166,-0.0682 0.0274,-0.14275 0.0449,-0.20898 1.62711,-6.09807 7.87862,-14.98853 13.10352,-15.43946 4.51366,-0.38958 0.35208,9.42484 -1.38672,12.86329 8.77495,-0.58171 18.56179,-6.51847 21.12305,-15.09571 2.04507,-6.84868 1.36527,-16.21486 -5.82227,-19.53125 -7.93283,-2.97542 -16.82782,0.71432 -22.4414,6.40235 -5.61591,5.69045 -8.85252,15.96158 -9.86329,21.80273 -0.43135,2.49235 -0.60477,6.79385 -0.74609,9.20703 h -2.17383 c -0.14585,-2.55324 0.14475,-6.82597 0.48047,-9.08984 2.06391,-13.91885 11.64121,-25.94942 10.75977,-40.33985 -0.95262,-15.55008 -6.40411,-21.07583 -15.67579,-31.09765 z"
       id="path1697" />
    <path
       style="fill:#fcef3c;fill-opacity:1;fill-rule:evenodd;stroke:none;stroke-width:1.89141;stroke-linecap:butt;stroke-linejoin:miter;stroke-miterlimit:4;stroke-dasharray:none;stroke-opacity:1"
       d="m 771.76953,155.24023 c -2.03735,-0.0164 -4.08124,0.31084 -6.06445,1.05469 -7.18763,3.31639 -7.86538,12.68257 -5.82031,19.53125 2.56136,8.57724 12.34799,14.51398 21.12304,15.09571 -1.7388,-3.43844 -5.90038,-13.25287 -1.38672,-12.86329 5.22138,0.45062 11.02267,9.55044 12.6543,15.64844 h -6.39453 c -1.22243,0 -2.20703,0.9865 -2.20703,2.20899 v 2.50781 c 0,1.22247 0.9846,2.20703 2.20703,2.20703 h 10.00586 c -2.48843,6.53167 -8.14057,11.06517 -13.13672,15.83008 5.57723,0.46359 11.09271,-2.15983 15.95898,-4.66016 0.0563,4.48581 0.23795,8.69617 1.29102,12.56836 v -30.66211 h -1.41992 c -0.0923,-2.19997 -0.11347,-6.57896 -0.56836,-9.20703 -1.01086,-5.84115 -4.24746,-16.11228 -9.86328,-21.80273 -4.2102,-4.26603 -10.26685,-7.40793 -16.37891,-7.45704 z"
       id="path1695" />
    <path
       style="fill:#fcef3c;fill-opacity:1;fill-rule:evenodd;stroke:none;stroke-width:1.89141;stroke-linecap:butt;stroke-linejoin:miter;stroke-miterlimit:4;stroke-dasharray:none;stroke-opacity:1"
       d="m 800,118.46094 c -6.21231,7.50806 -10.32422,15.68324 -10.30664,25.8164 0.0234,13.05053 7.66375,24.88445 10.30664,37.80078 z"
       id="path1693" />
    <path
       style="fill:#fcef3c;fill-opacity:1;fill-rule:evenodd;stroke:none;stroke-width:1.89141;stroke-linecap:butt;stroke-linejoin:miter;stroke-miterlimit:4;stroke-dasharray:none;stroke-opacity:1"
       d="m 669.17773,113.17969 c -8.79692,8.99605 -15.10771,18.54558 -15.08593,31.09765 0.0249,13.90102 8.69576,26.421 10.75976,40.33985 0.33564,2.26387 0.62632,6.5366 0.48047,9.08984 h -2.35351 c -0.0923,-2.19997 -0.11152,-6.57896 -0.56641,-9.20703 -1.01086,-5.84115 -4.24943,-16.11228 -9.86523,-21.80273 -5.61361,-5.68803 -14.50858,-9.37777 -22.44141,-6.40235 -7.18763,3.31639 -7.86734,12.68257 -5.82227,19.53125 2.56136,8.57724 12.34995,14.51398 21.125,15.09571 -1.7388,-3.43844 -5.90038,-13.25287 -1.38672,-12.86329 5.22138,0.45062 11.02267,9.55044 12.6543,15.64844 h -6.39648 c -1.22243,0 -2.20508,0.9865 -2.20508,2.20899 v 2.50781 c 0,1.22247 0.98265,2.20703 2.20508,2.20703 h 10.00781 c -2.48843,6.53167 -8.14252,11.06517 -13.13867,15.83008 5.57723,0.46359 11.09467,-2.15983 15.96094,-4.66016 0.10244,8.16665 0.60059,15.4261 6.06835,21.37891 5.89061,-5.781 6.86397,-16.36733 6.65821,-21.37891 4.86619,2.50033 10.38362,5.12375 15.96094,4.66016 -4.99615,-4.76491 -10.65016,-9.29839 -13.13868,-15.83008 h 10.00782 c 1.22243,0 2.20507,-0.98456 2.20507,-2.20703 v -2.50781 c 0,-1.22249 -0.98264,-2.20899 -2.20507,-2.20899 h -6.88868 c 0.0166,-0.0682 0.0274,-0.14275 0.0449,-0.20898 1.62711,-6.09807 7.87666,-14.98853 13.10156,-15.43946 4.51366,-0.38958 0.35208,9.42485 -1.38672,12.86329 8.77495,-0.58171 18.56179,-6.51847 21.12305,-15.09571 2.04507,-6.84868 1.36722,-16.21486 -5.82032,-19.53125 -7.93283,-2.97542 -16.82976,0.71432 -22.44336,6.40235 -5.61591,5.69045 -8.85055,15.96158 -9.86132,21.80273 -0.43135,2.49235 -0.60673,6.79385 -0.74805,9.20703 h -2.17383 c -0.14585,-2.55324 0.1467,-6.82597 0.48242,-9.08984 2.06391,-13.91885 11.63926,-25.94942 10.75782,-40.33985 -0.95262,-15.55008 -6.40413,-21.07583 -15.67579,-31.09765 z"
       id="path1691" />
    <path
       style="fill:#fcef3c;fill-opacity:1;fill-rule:evenodd;stroke:none;stroke-width:1.89141;stroke-linecap:butt;stroke-linejoin:miter;stroke-miterlimit:4;stroke-dasharray:none;stroke-opacity:1"
       d="m 735.77734,19.179688 c -8.79692,8.99605 -15.10576,18.545586 -15.08398,31.097656 0.0249,13.90102 8.69381,26.420992 10.75781,40.339844 0.33564,2.263868 0.62632,6.536603 0.48047,9.089843 h -2.35156 c -0.0923,-2.19997 -0.11347,-6.578961 -0.56836,-9.207031 -1.01086,-5.84115 -4.24746,-16.112284 -9.86328,-21.802734 -5.6136,-5.68803 -14.51053,-9.377764 -22.44336,-6.402344 -7.18763,3.31639 -7.86538,12.68257 -5.82031,19.53125 2.56136,8.57724 12.34799,14.513993 21.12304,15.095703 -1.7388,-3.43844 -5.90038,-13.252861 -1.38672,-12.863281 5.22138,0.45062 11.02267,9.550437 12.6543,15.648437 h -6.39453 c -1.22243,0 -2.20703,0.986499 -2.20703,2.208989 v 2.50781 c 0,1.22247 0.9846,2.20703 2.20703,2.20703 h 10.00586 c -2.48843,6.53167 -8.14057,11.06517 -13.13672,15.83008 5.57723,0.46359 11.09271,-2.15983 15.95898,-4.66016 0.10246,8.16665 0.6006,15.4261 6.06836,21.37891 5.89061,-5.781 6.86397,-16.36733 6.65821,-21.37891 4.86619,2.50033 10.38361,5.12375 15.96093,4.66016 -4.99615,-4.76491 -10.65015,-9.29839 -13.13867,-15.83008 h 10.00781 c 1.22245,0 2.20704,-0.98456 2.20704,-2.20703 v -2.50781 c 0,-1.22249 -0.9846,-2.208989 -2.20704,-2.208989 h -6.88867 c 0.0166,-0.0682 0.0274,-0.142754 0.0449,-0.208984 1.62711,-6.09807 7.87666,-14.988523 13.10156,-15.439453 4.51366,-0.38958 0.35208,9.424841 -1.38672,12.863281 8.77495,-0.58171 18.56179,-6.518463 21.12305,-15.095703 2.04507,-6.84868 1.36722,-16.21486 -5.82032,-19.53125 -7.93283,-2.97542 -16.82976,0.714314 -22.44336,6.402344 -5.61591,5.69045 -8.85055,15.961584 -9.86132,21.802734 -0.43135,2.49235 -0.60673,6.793851 -0.74805,9.207031 h -2.17188 c -0.14585,-2.55324 0.14475,-6.825975 0.48047,-9.089843 2.06391,-13.918852 11.63926,-25.949414 10.75781,-40.339844 C 750.5005,34.727264 745.049,29.201507 735.77734,19.179688 Z"
       id="path1517" />
  </g>
  <path
     id="path1035"
     style="color:#000000;font-style:normal;font-variant:normal;font-weight:normal;font-stretch:normal;font-size:medium;line-height:normal;font-family:sans-serif;font-variant-ligatures:normal;font-variant-position:normal;font-variant-caps:normal;font-variant-numeric:normal;font-variant-alternates:normal;font-variant-east-asian:normal;font-feature-settings:normal;font-variation-settings:normal;text-indent:0;text-align:start;text-decoration:none;text-decoration-line:none;text-decoration-style:solid;text-decoration-color:#000000;letter-spacing:normal;word-spacing:normal;text-transform:none;writing-mode:lr-tb;direction:ltr;text-orientation:mixed;dominant-baseline:auto;baseline-shift:baseline;text-anchor:start;white-space:normal;shape-padding:0;shape-margin:0;inline-size:0;clip-rule:nonzero;display:inline;overflow:visible;visibility:visible;isolation:auto;mix-blend-mode:normal;color-interpolation:sRGB;color-interpolation-filters:linearRGB;solid-color:#000000;solid-opacity:1;vector-effect:none;fill:#ffffff;fill-opacity:1;fill-rule:nonzero;stroke:none;stroke-width:120;stroke-linecap:butt;stroke-linejoin:miter;stroke-miterlimit:4;stroke-dasharray:none;stroke-dashoffset:0;stroke-opacity:1;color-rendering:auto;image-rendering:auto;shape-rendering:auto;text-rendering:auto;enable-background:accumulate;stop-color:#000000;stop-opacity:1;opacity:1"
     d="M 691.83398 0 L 0 461.22266 L 0 533.33203 L 0 533.33398 L 108.16406 533.33398 L 800 72.111328 L 800 0 L 691.83398 0 z " />
</svg>
