<?xml version="1.0" encoding="UTF-8" standalone="no"?>
<svg
	xmlns:dc="http://purl.org/dc/elements/1.1/"
	xmlns:cc="http://creativecommons.org/ns#"
	xmlns:rdf="http://www.w3.org/1999/02/22-rdf-syntax-ns#"
	xmlns:svg="http://www.w3.org/2000/svg"
	xmlns="http://www.w3.org/2000/svg"
	xmlns:xlink="http://www.w3.org/1999/xlink"
	height="217"
	width="325"
	id="flag-france-anjou">
	<style
		type="text/css"
		id="style">
		.or{fill:#ffd700;}
	</style>
	<g id="flag">
		<rect
			style="fill:#f00;"
			x="0"
			y="0"
			width="325"
			height="217"
			id="red"/> 
		<rect
			style="fill:#009;"
			width="287"
			height="179"
			x="19"
			y="19"
			id="blue"/> 
		<g
			id="lys">
			<path
				d="m 162.109,188.318 c 1.329,-1.438 3.67,-4.266 4.621,-7.258 1.062,-3.341 0.589,-8.086 0.33,-10.004 5.368,2.327 9.17,2.599 13.304,0.937 0,0 1.063,-0.428 1.067,-0.426 l -1.784,-0.765 c -2.865,-1.211 -7.603,-3.232 -9.732,-10.718 l 7.827,0 0,-5.315 -3.445,0 c 0.379,-10.54 6.36,-16.434 10.627,-16.633 2.103,-0.1 3.459,1.167 3.721,3.472 0.377,3.49 -1.611,8.056 -1.631,8.101 l -0.458,1.038 1.062,-0.402 c 5.522,-2.09 10.253,-5.651 13.682,-10.3 5.738,-7.78 3.827,-16.103 -1.025,-20.303 -4.585,-3.97 -12.485,-4.74 -19.799,2.482 -8.574,8.475 -12.607,25.311 -12.889,32.543 l -1.155,0 c -0.044,-8.66 -0.015,-14.024 4.384,-25.337 7.364,-18.932 4.413,-35.218 -8.706,-48.445 -13.12,13.227 -16.07,29.514 -8.708,48.446 4.399,11.312 4.428,16.676 4.385,25.337 l -1.157,0 c -0.278,-7.232 -4.314,-24.069 -12.888,-32.543 -7.312,-7.223 -15.212,-6.452 -19.798,-2.482 -4.853,4.2 -6.762,12.522 -1.024,20.303 3.429,4.648 8.16,8.211 13.681,10.301 l 1.063,0.403 -0.458,-1.039 c -0.021,-0.046 -2.009,-4.611 -1.631,-8.102 0.263,-2.305 1.618,-3.57 3.721,-3.472 4.267,0.2 10.247,6.092 10.626,16.634 l -3.445,0 0,5.314 7.826,0 c -2.129,7.485 -6.867,9.507 -9.732,10.718 l -1.784,0.765 c 0.005,-0.002 1.068,0.426 1.068,0.426 4.134,1.661 7.936,1.391 13.304,-0.936 -0.258,1.917 -0.733,6.663 0.33,10.004 0.95,2.99 3.292,5.818 4.62,7.256 z"
				id="p1"/>
			<rect
				class="or"
				x="147.5"
				y="155.7"
				width="29.4"
				height="3.4"
				id="p2"/> 
			<path
				class="or"
				d="m 131.34375,117.6875 c -2.71437,0.1678 -5.05619,1.28719 -6.78125,2.78125 -4.521,3.913 -6.269,11.685 -0.875,19 3.104,4.208 7.31275,7.4965 12.21875,9.5625 -0.595,-1.623 -1.57525,-4.81425 -1.28125,-7.53125 0.316,-2.786 2.12875,-4.4325 4.71875,-4.3125 4.466,0.208 11.13325,5.96075 11.53125,17.59375 l 4.8125,0 c -0.283,-7.11 -4.249,-23.596 -12.625,-31.875 -4.13494,-4.08487 -8.22885,-5.43449 -11.71875,-5.21875 z"
				id="p3"/>
			<path
				class="or"
				d="m 162.09375,82.375 c -12.24,12.811 -14.8935,28.51175 -7.8125,46.71875 4.463,11.479 4.51475,16.9135 4.46875,25.6875 l 6.71875,0 c -0.046,-8.772 0.004,-14.2085 4.46875,-25.6875 7.08,-18.209 4.39525,-33.90775 -7.84375,-46.71875 z"
				id="p4"/>
			<path
				class="or"
				d="m 191.6875,117.6875 c -3.21475,0.12887 -6.85575,1.58775 -10.53125,5.21875 -8.375,8.279 -12.344,24.765 -12.625,31.875 l 4.8125,0 c 0.397,-11.633 7.06525,-17.38575 11.53125,-17.59375 2.59,-0.12 4.40275,1.5265 4.71875,4.3125 0.294,2.717 -0.68625,5.90825 -1.28125,7.53125 4.908,-2.066 9.11475,-5.3545 12.21875,-9.5625 5.392,-7.315 3.646,-15.087 -0.875,-19 -1.9725,-1.7075 -4.754,-2.91012 -7.96875,-2.78125 z"
				id="p5"/>
			<path
				class="or"
				d="m 155.28125,160.09375 c -2.116,7.787 -6.8525,10.08925 -9.9375,11.40625 3.668,1.159 7.13375,0.67375 12.21875,-1.65625 l 0.8125,-0.375 -0.15625,0.90625 c -0.011,0.063 -1.0735,6.44525 0.1875,10.40625 0.742,2.329 2.4075,4.59875 3.6875,6.09375 1.281,-1.496 2.97775,-3.76475 3.71875,-6.09375 1.261,-3.961 0.1985,-10.34325 0.1875,-10.40625 l -0.15625,-0.90625 0.8125,0.375 c 5.084,2.33 8.55075,2.81525 12.21875,1.65625 -3.086,-1.318 -7.8195,-3.61925 -9.9375,-11.40625 l -13.65625,0 z"
				id="p6"/>
		</g>
		<use
			xlink:href="#lys"
			x="-80.6"
			y="-53.7"
			id="use1" />
		<use
			xlink:href="#lys"
			x="80.6"
			y="-53.7"
			id="use2" />
	</g>
</svg>