<?xml version="1.0" encoding="utf-8"?>
<!-- Generator: Adobe Illustrator 16.0.0, SVG Export Plug-In . SVG Version: 6.00 Build 0)  -->
<!DOCTYPE svg PUBLIC "-//W3C//DTD SVG 1.1//EN" "http://www.w3.org/Graphics/SVG/1.1/DTD/svg11.dtd">
<svg version="1.1" id="Calque_1" xmlns="http://www.w3.org/2000/svg" xmlns:xlink="http://www.w3.org/1999/xlink" x="0px" y="0px"
	 width="500px" height="300px" viewBox="0 0 500 300" enable-background="new 0 0 500 300" xml:space="preserve">
<rect x="0" fill="#08672F" width="500" height="300"/>
<g>
	<g>
		<circle fill="none" stroke="#FFD203" stroke-width="8.71" cx="154" cy="37" r="14.4"/>
		<circle fill="none" stroke="#FFD203" stroke-width="8.71" cx="250" cy="37" r="14.4"/>
		<circle fill="none" stroke="#FFD203" stroke-width="8.71" cx="346" cy="37" r="14.4"/>
	</g>
	<path fill="#ED2939" stroke="#FFD203" stroke-width="14.276" d="M150.74,56.012c0,3.108,0.151,147.52,0.151,150.74
		c0.46,21.202,42.217,20.936,42.103-0.268c0.804-3.221,0.23-34,0.23-36.767h32.34c0,3.688-1.032,87.796-1.032,90.901
		c2.104,24.218,43.324,24.033,45.851,0.691c0-4.025-0.114-88.598-0.114-91.363h32.033c0,0-0.459,33.086-0.459,36.653
		c0.459,23.396,43.327,22.269,42.754-0.09c-0.114-3.913,1.225-147.63,1.225-150.86"/>
</g>
<g id="g22285">
	<path id="path9822" fill="#2B5DF2" stroke="#000000" stroke-width="0.5" d="M250.854,224.744c0,0,63.909-24.046,63.909-85.161
		s0-55.355,0-55.355H186.947v55.355C186.947,200.698,250.854,224.744,250.854,224.744z"/>
	<path id="path9828" fill="#2B5DF2" stroke="#000000" stroke-width="0.5" d="M250.808,225.085c0,0,63.907-24.048,63.907-85.162
		s0-55.355,0-55.355H186.899v55.355C186.899,201.037,250.808,225.085,250.808,225.085z"/>
	<path id="path9832" fill="#000099" d="M250.808,225.085c0,0-63.909-24.048-63.909-85.162s0-55.355,0-55.355h127.816v55.355
		C314.715,201.037,250.808,225.085,250.808,225.085z"/>
	<path id="path14818" fill="#FFD203" d="M186.92,106.146l97.497,97.497c6.682-5.998,13.224-13.359,18.479-22.196l-96.319-96.317
		H186.92V106.146z"/>
	<path id="path1900" fill="#FFFFFF" stroke="#000000" stroke-width="0.5" d="M239.274,91.084l12.47,16.66l12.476-16.66h-12.476
		H239.274z"/>
	<path id="path2792" fill="#FFFFFF" stroke="#000000" stroke-width="0.5" d="M250.583,91.17c-2.806,2.135-5.446,6.908-5.944,8.346
		c-8.286,1.029-10.773,6.823-5.739,8.866c0.119-0.646,5.894-6.221,6.568-6.431c-0.804,0.298-6.58,5.848-6.551,6.442
		c-1.156,4.247,1.332,5.955,4.615,5.67c0.53-2.631,3.199-8.246,4.456-9.638c-1.23,1.494-3.952,7.042-4.467,9.741
		c1.814,3.929,4.247,5.031,8.158,2.562l0.068-11.317l0.068,11.317c3.911,2.47,6.339,1.368,8.152-2.562
		c-0.656-2.418-3.361-7.986-4.463-9.741c0.868,1.422,3.511,6.714,4.457,9.638c3.284,0.284,5.771-1.424,4.615-5.67
		c-0.188-1.277-6.079-6.646-6.557-6.555c0.767-0.084,6.635,5.514,6.573,6.544c5.034-2.043,2.548-7.837-5.738-8.866
		c-0.499-1.438-3.038-6.363-5.844-8.498c0,0-0.847-0.748-1.265-0.556L250.583,91.17z"/>
	<path id="path3686" fill="none" stroke="#000000" stroke-width="0.5" d="M245.863,100.739c4.224,2.103,8.086,1.675,11.769,0"/>
	<path id="path4573" fill="none" stroke="#000000" stroke-width="0.5" d="M241.601,104.594c6.493,6.881,13.257,7.183,20.291,0"/>
	<path id="path20192" fill="#FFFFFF" stroke="#000000" stroke-width="0.5" d="M281.392,91.084l12.47,16.66l12.475-16.66h-12.475
		H281.392z"/>
	<path id="path20194" fill="#FFFFFF" stroke="#000000" stroke-width="0.5" d="M292.7,91.17c-2.806,2.135-5.445,6.908-5.945,8.346
		c-8.286,1.029-10.772,6.823-5.738,8.866c0.119-0.646,5.893-6.221,6.567-6.431c-0.804,0.298-6.581,5.848-6.551,6.442
		c-1.156,4.247,1.332,5.955,4.615,5.67c0.529-2.631,3.197-8.246,4.456-9.638c-1.23,1.494-3.952,7.042-4.467,9.741
		c1.813,3.929,4.246,5.031,8.158,2.562l0.068-11.317l0.067,11.317c3.911,2.47,6.338,1.368,8.153-2.562
		c-0.656-2.418-3.363-7.986-4.462-9.741c0.867,1.422,3.508,6.714,4.456,9.638c3.283,0.284,5.771-1.424,4.615-5.67
		c-0.188-1.277-6.079-6.646-6.558-6.555c0.768-0.084,6.636,5.514,6.575,6.544c5.033-2.043,2.546-7.837-5.739-8.866
		c-0.5-1.438-3.039-6.363-5.845-8.498c0,0-0.847-0.748-1.264-0.556L292.7,91.17z"/>
	<path id="path20196" fill="none" stroke="#000000" stroke-width="0.5" d="M287.979,100.739c4.224,2.103,8.086,1.675,11.77,0"/>
	<path id="path20198" fill="none" stroke="#000000" stroke-width="0.5" d="M283.718,104.594c6.493,6.881,13.257,7.183,20.291,0"/>
	<path id="path20212" fill="#FFFFFF" stroke="#000000" stroke-width="0.5" d="M281.392,128.83l12.47,16.659l12.475-16.659h-12.475
		H281.392z"/>
	<path id="path20214" fill="#FFFFFF" stroke="#000000" stroke-width="0.5" d="M292.7,128.916c-2.806,2.135-5.445,6.909-5.945,8.347
		c-8.286,1.028-10.772,6.822-5.738,8.865c0.119-0.646,5.893-6.221,6.567-6.43c-0.804,0.297-6.581,5.848-6.551,6.442
		c-1.156,4.247,1.332,5.955,4.615,5.67c0.529-2.63,3.197-8.247,4.456-9.638c-1.23,1.494-3.952,7.043-4.467,9.741
		c1.813,3.93,4.246,5.031,8.158,2.562l0.068-11.316l0.067,11.316c3.911,2.47,6.338,1.368,8.153-2.562
		c-0.656-2.417-3.363-7.986-4.462-9.741c0.867,1.422,3.508,6.714,4.456,9.638c3.283,0.284,5.771-1.424,4.615-5.67
		c-0.188-1.278-6.079-6.645-6.558-6.555c0.768-0.084,6.636,5.513,6.575,6.543c5.033-2.043,2.546-7.837-5.739-8.865
		c-0.5-1.438-3.039-6.364-5.845-8.499c0,0-0.847-0.748-1.264-0.555L292.7,128.916z"/>
	<path id="path20216" fill="none" stroke="#000000" stroke-width="0.5" d="M287.979,138.484c4.224,2.103,8.086,1.675,11.77,0"/>
	<path id="path20218" fill="none" stroke="#000000" stroke-width="0.5" d="M283.718,142.339c6.493,6.881,13.257,7.184,20.291,0"/>
	<path id="path20222" fill="#FFFFFF" stroke="#000000" stroke-width="0.5" d="M193.527,141.204l12.47,16.659l12.475-16.659h-12.475
		H193.527z"/>
	<path id="path20224" fill="#FFFFFF" stroke="#000000" stroke-width="0.5" d="M204.836,141.29c-2.806,2.135-5.446,6.908-5.945,8.346
		c-8.286,1.029-10.773,6.824-5.74,8.866c0.12-0.646,5.894-6.221,6.569-6.43c-0.804,0.297-6.581,5.848-6.551,6.441
		c-1.157,4.247,1.331,5.955,4.614,5.671c0.53-2.631,3.198-8.247,4.457-9.639c-1.229,1.494-3.952,7.043-4.468,9.741
		c1.815,3.93,4.247,5.031,8.158,2.562L206,155.53l0.068,11.317c3.912,2.47,6.339,1.368,8.152-2.562
		c-0.655-2.418-3.362-7.986-4.461-9.741c0.868,1.423,3.509,6.714,4.455,9.639c3.284,0.284,5.771-1.424,4.616-5.671
		c-0.187-1.277-6.079-6.645-6.556-6.555c0.766-0.084,6.634,5.513,6.573,6.543c5.034-2.042,2.547-7.837-5.739-8.866
		c-0.5-1.438-3.038-6.363-5.843-8.499c0,0-0.848-0.748-1.265-0.555L204.836,141.29z"/>
	<path id="path20226" fill="none" stroke="#000000" stroke-width="0.5" d="M200.115,150.857c4.223,2.104,8.085,1.676,11.769,0"/>
	<path id="path20228" fill="none" stroke="#000000" stroke-width="0.5" d="M195.854,154.713c6.493,6.881,13.256,7.184,20.291,0"/>
	<path id="path20232" fill="#FFFFFF" stroke="#000000" stroke-width="0.5" d="M212.769,170.794l12.471,16.66l12.476-16.66H225.24
		H212.769z"/>
	<path id="path20234" fill="#FFFFFF" stroke="#000000" stroke-width="0.5" d="M224.079,170.881
		c-2.805,2.135-5.445,6.907-5.944,8.346c-8.286,1.028-10.773,6.822-5.74,8.865c0.119-0.646,5.894-6.221,6.568-6.431
		c-0.804,0.297-6.58,5.849-6.551,6.441c-1.155,4.248,1.332,5.955,4.616,5.671c0.53-2.63,3.198-8.246,4.456-9.639
		c-1.23,1.495-3.952,7.043-4.468,9.742c1.814,3.93,4.247,5.031,8.159,2.562l0.068-11.317l0.069,11.317
		c3.911,2.47,6.338,1.368,8.152-2.562c-0.656-2.419-3.363-7.987-4.462-9.742c0.868,1.423,3.51,6.715,4.457,9.639
		c3.284,0.284,5.771-1.423,4.616-5.671c-0.188-1.277-6.079-6.644-6.557-6.554c0.767-0.085,6.635,5.513,6.574,6.543
		c5.034-2.043,2.547-7.837-5.739-8.865c-0.499-1.438-3.039-6.364-5.843-8.499c0,0-0.848-0.748-1.266-0.556L224.079,170.881z"/>
	<path id="path20236" fill="none" stroke="#000000" stroke-width="0.5" d="M217.543,182.265c4.223,2.102,8.085,1.674,11.769,0"/>
	<path id="path20238" fill="none" stroke="#000000" stroke-width="0.5" d="M215.097,184.304c6.493,6.881,13.257,7.183,20.292,0"/>
	<path id="path20182" fill="#FFFFFF" stroke="#000000" stroke-width="0.5" d="M242.542,190.945l12.47,16.659l12.476-16.659h-12.476
		H242.542z"/>
	<path id="path20184" fill="#FFFFFF" stroke="#000000" stroke-width="0.5" d="M253.851,191.03c-2.805,2.135-5.445,6.909-5.944,8.347
		c-8.286,1.028-10.773,6.822-5.739,8.865c0.119-0.646,5.894-6.221,6.568-6.431c-0.803,0.298-6.58,5.849-6.551,6.442
		c-1.156,4.247,1.332,5.954,4.616,5.671c0.529-2.63,3.198-8.246,4.456-9.639c-1.23,1.493-3.952,7.043-4.468,9.741
		c1.814,3.93,4.246,5.03,8.158,2.561l0.068-11.315l0.068,11.315c3.911,2.47,6.339,1.369,8.152-2.561
		c-0.655-2.418-3.361-7.986-4.463-9.741c0.868,1.422,3.511,6.715,4.457,9.639c3.284,0.283,5.771-1.424,4.615-5.671
		c-0.188-1.278-6.079-6.645-6.557-6.555c0.768-0.084,6.635,5.513,6.574,6.543c5.033-2.043,2.547-7.837-5.739-8.865
		c-0.499-1.438-3.038-6.364-5.844-8.499c0,0-0.847-0.748-1.265-0.555L253.851,191.03z"/>
	<path id="path20186" fill="none" stroke="#000000" stroke-width="0.5" d="M249.13,200.6c4.225,2.102,8.086,1.674,11.769,0"/>
	<path id="path20188" fill="none" stroke="#000000" stroke-width="0.5" d="M244.869,204.455c6.493,6.881,13.257,7.183,20.29,0"/>
</g>
</svg>
