<svg height="660" viewBox="-300 -300 600 660" width="600" xmlns="http://www.w3.org/2000/svg" xmlns:xlink="http://www.w3.org/1999/xlink"><radialGradient id="a" cx="-80" cy="-80" gradientTransform="matrix(1 0 0 .99983257 0 -.049961)" gradientUnits="userSpaceOnUse" r="405"><stop offset="0" stop-color="#fff" stop-opacity=".31"/><stop offset=".19" stop-color="#fff" stop-opacity=".25"/><stop offset=".6" stop-color="#6b6b6b" stop-opacity=".125"/><stop offset="1" stop-opacity=".125"/></radialGradient><path d="m-298.5-298.50003h597v258.5433c0 286.24794-298.5 398.45673-298.5 398.45673s-298.5-112.20879-298.5-398.45673z" fill="#fff"/><g stroke-width=".752093" transform="matrix(2.3854748 0 0 2.361609 -410.65273 -807.71234)"><path d="m215.3682 385.6029c-16.0068 7.4032-19.9189 17.1522-26.9876 24.9278s-17.6079 24.5028-38.107 18.8478c-.643-4.1892-3.2908-15.7428-11.0204-20.9684-4.7763-2.9093-10.603-7.0687-11.6633-14.1374-8.4824 2.1206-29.72354 3.8167-30.74885-7.4221-.35344-3.8878 2.97713-9.8442-.58492-13.945-.80455.0256-5.31245.1159-6.49424-.4355-1.23658-1.4609-.01583-6.776.88047-7.9563l-.0096-.0492c-2.11599-.1929-7.57564-5.1819-.86042-8.7162 1.77092-2.0817 1.46078-3.7827 1.45496-5.7013-1.10957.0151-3.8363-.0162-4.23518-.0429-7.07827-.0263-6.16907-4.5929-4.13034-9.4535 1.41373-3.1809 9.38461-18.3786 10.79834-20.4992 1.41374-2.1206 1.41374-3.1809.35347-5.3015-1.06034-2.1207-.70691-5.655 0-8.129.70684-2.4741 2.12059-6.3619 1.06027-7.4222-1.06027-1.0603-.70687-4.5946-.35343-5.3015.35343-.7069.35343-2.474.35343-3.1809s.35343-2.474 1.41374-3.1809c1.0603-.7069 1.76717-3.1809 1.0603-3.8878-.70686-.7069.35343-5.6549 1.41373-6.0084 1.06036-.3534 3.18096-1.0603 4.24126-3.5343-.1253-3.4904 2.6163-7.4515 4.2412-9.1893 1.0603-1.0603.7069-4.5947.7069-4.5947l3.1097.0712c.3388-.1129 2.8986-3.6055 5.3727-4.3124 2.474-.7068 8.129-3.5343 8.129-3.5343l3.8878-4.2412 3.5343 1.7671s2.8275-1.0603 5.3015-1.4137c2.4741-.3534 7.7756-2.1206 9.5428-4.9481 1.7671-2.8275 1.4137 3.365 1.4702 3.7038.2258.0564 3.1244-1.5832 8.0725-1.2297 4.9481.3534 10.603 2.474 12.3702 1.7671 1.7672-.7068 3.5343 1.4138 3.5343 1.4138s3.5344 2.1206 6.3619 2.1206h5.3015l.3534 2.474s5.3015 1.8237 7.7756 2.884c2.474 1.0602 4.5946 2.4175 7.7755 2.771 3.1809.3534 4.2412 1.4137 4.2412 1.4137l-1.4137 2.8275s3.8167.778 4.9481 4.5946c2.1206 2.8275 4.9481 7.4222 7.0687 7.7756s3.5343 1.4137 3.5343 1.4137l-2.8274 3.5344s.7068 1.0603 2.1206 2.474c1.4137 1.4138 4.2412 3.8878 4.2412 3.8878l-1.7672 3.1809s0 .7069.3534 2.474c.3535 1.7672.3535 4.9481 2.1206 5.655 1.7672.7069 1.7672 2.8275 1.7672 2.8275s.3535.3534-1.7672 1.0603c-2.1206.7069-3.5343.7069-2.474 2.1206s2.8275 3.8878 2.8275 3.8878-1.7672 1.0603-3.5344 1.4137c-1.7671.3534-3.5343.3534-3.5343.3534s1.4137 6.7153 2.8275 7.7756c1.4137 1.0603-2.1207 1.7672-4.2413.7069s-.7955 3.1809.6183 3.5343-.5131.848-2.1742.8655c-1.4137-.3534-3.2334-.1061-2.4205 1.9795 1.0604 2.8274 2.2093 4.2237-.6182 5.6374-2.8275 1.4138-5.3902 7.7756-3.9764 9.8962s2.2092 5.3015 2.2092 5.3015l-6.7152.3535s-.4596 1.0603 1.3076 2.8274c1.7671 1.7672 3.5343 3.7817 3.287 4.2763.0534.7649-5.3189.4546-5.2655 1.2194 4.5705 22.5925 15.4261 28.929 15.441 30.119l-.8596.6017z" fill-rule="evenodd" stroke="#000" stroke-width=".842633"/><path d="m101.57605 277.5815c-2.3554 1.7666-4.41645 4.7109-2.3554 6.4775 2.6498 2.3554 3.8275 3.2387 3.8275 3.2387s-4.71084-1.4722-5.59412.2944-1.91408 4.4535 0 5.0053c1.47212.8833 4.71082 2.6499 4.71082 2.6499l-5.5941-.5889s-1.76658 6.4774 2.9443 8.244c4.7109 1.7666 20.61195 6.8677 23.26185 8.3399 2.6498 1.4721 8.5384 2.3554 11.4827 2.3554s13.8394.5888 12.0716.5888l-6.4775 1.7666c-1.1048.1105 13.3969 4.9307 15.5319 4.4899 1.1407-2.6505 15.972-16.5615 24.216.5154.8833 3.8276-2.061 9.7162-5.0053 10.8939-2.9442 1.1777-4.4164 2.6498-5.5941 5.8886-1.1777 3.2387-4.1931 9.0161-7.433 8.539-4.4553-2.9078-6.4052-2.6505-4.3442-.295 2.282 3.2393 7.6181 3.3868 10.305-.5889 2.245-2.7603 4.2678-9.8995 8.8329-11.7771 2.3554-.8833 5.2997-6.4775 5.2997-6.4775s4.122-.2944 5.8886 1.4722c1.7666 1.7665 6.183 1.7665 8.8329 1.4721 7.00358.18719 7.00164-1.16581 13.33754-.24091 1.7666.2944 1.1765-4.417-1.7678-6.7725-2.9442-2.3554-13.04184-7.11919-14.80844-9.47459s-14.427-9.4217-17.9602-9.7162c-3.5331-.2944-7.9496-2.6498-7.9496-2.6498s6.6255-.1099 3.3868-.6988c-3.2387-.5888-9.5698-3.1288-12.8085-4.3065s-5.8886-1.1777-9.4217-1.1777c-3.5332 0-26.9884-5.7447-32.8411-9.3161-4.4164-1.4721 20.9534 5.8934 23.8977 6.1879 5.0053.7361 6.588-.2577-1.6561-4.2326-3.5331-2.061-20.44765-10.1139-33.04095-13.5614-1.2891 1.2891-.8203 1.6885-3.1757 3.455z" fill="#fff" fill-rule="evenodd"/><path d="m167.0477 325.8538c.95519.11565 1.45684 1.08352 1.75203 1.89478.24739.73939.20981 1.64049-.35836 2.2271-.79033 1.13634-2.04949 1.76642-3.13264 2.57091-.56652.407-.97168 1.02907-1.03457 1.73204-.18787 1.00908-.2783 2.04333-.53396 3.03423-.34159.78214-1.30282.8948-2.05308.92528-.86441-.0235-1.83026-.84151-1.59399-1.77784" fill="none" stroke="#fff" stroke-linecap="round" stroke-width="1.685266"/><g stroke-linejoin="round"><path d="m158.7676 323.5336c2.5412-4.088 18.4511-11.601 14.5841 2.9831-.8839 1.5468.7734 2.2097 1.2154 1.1049 4.088-17.2357-13.4793-10.0542-16.2414-5.5243-1.1049 1.8783.4419 1.5468.4419 1.4363z" fill="#fff" fill-rule="evenodd" stroke="#fff" stroke-width=".842633"/><path d="m101.4257 298.6744c5.9662-.1105 12.2639.2209 17.1252 3.3145 4.8614 3.0936 9.1703 3.9775 14.3631 3.9775 5.1929 0 7.8445.1105 7.8445.1105" fill="none" stroke="#000" stroke-linecap="round" stroke-width="1.26395"/><path d="m174.8498 307.6306c9.9703 3.8593 11.7373 4.9945 15.947 7.7187s5.7661 3.1782 9.3111 5.4484c2.6369 1.5891 4.2097 3.4053 4.2097 3.4053s-9.8503-7.0376-17.725-5.2214c-2.8803 0-3.3235 0-5.9822-2.9513-2.6587-2.9512-5.7606-5.4484-10.1919-7.2646-4.4312-1.8162-12.1859-4.7674-12.1859-4.7674" fill="none" stroke="#000" stroke-linecap="round" stroke-width="1.26395"/><path d="m185.929 324.8841c.6043 0 3.1193-.0954 4.0864.227.8438.114 2.194.2236 2.9512.4541 1.2838.1528 2.4672.42 3.8593.454 1.4974.0135 2.0298.4707 3.4053.681.43.5375 3.0496 3.14919 3.6235 3.55519" fill="none" stroke="#000" stroke-linecap="round" stroke-width="1.26395"/><path d="m103.5563 316.5171c3.6608 5.0488 9.2712 7.8171 15.4034 9.1303-.1549 1.4838-7.4424 1.5786-10.1584 5.0195" fill="none" stroke="#fff" stroke-width="1.685266"/><path d="m240.70763 255.69927c.1171 1.2891.31347 9.58623-.24763 9.64963-3.1782.454-5.3702.9862-8.0945 3.7104-2.7242 2.7242-9.16471 6.93689-12.69951.57019-1.8162-3.6323 2.81311-4.90559 5.08331-4.90559 2.2311-.0781 5.7366-1.8014 9.3689-2.7096 2.43504-.64497 5.15325-4.81039 6.58943-6.31503z" fill="#fff" stroke="#000" stroke-linecap="round" stroke-width="1.26395"/><path d="m254.65151 272.69528c.4976-.2737 3.01519-3.84238 1.79609-7.67838-.76327-2.87736 7.9993 2.8531 5.9383 5.7974-2.6084 2.0319-7.93769 2.42838-7.73439 1.88098z" fill="#fff" stroke="#000" stroke-linecap="round" stroke-width="1.26395"/><path d="m231.5564 259.9836c-.0419-.6005-.1146-5.9725-.0234-7.1586 1.8247-.2737 7.2281-1.0574 8.4058.7092 4.04804 5.97371-8.11545 9.56548-8.3043 8.94897z" fill="#fff" stroke="#000" stroke-linecap="round" stroke-width="1.26395"/><path d="m219.66599 269.62949 9.69411 29.54121s4.62128 19.69541-8.8329 23.8487c-3.95187 1.21994-6.47458-1.26701-6.47458-1.26701l.50576 6.32659c5.8391 6.0215 11.15672 5.72242 16.16192 3.66142 5.0053-2.061 5.2085-2.2228 7.8583-3.695 2.6499-1.4721 6.3033-9.7703 6.7097-12.1297 1.1362-6.1002 5.5812-19.6467 17.0976-45.1014-3.57724 2.1156-16.32435 2.88634-17.1474 2.7494-.4562.7298-2.5868 4.2106-5.8678 5.5858-3.6036 1.4721-8.7943-2.7715-3.5331-6.183 2.5711-1.6387 11.1024.2925 10.9436-4.1635-.2172-3.8717-5.9384-3.4916-8.2938-3.1972s-5.5941 2.9443-7.0663 4.4164c-3.2968 3.2969-9.98861.78499-11.75511-.39271z" fill="#fff" stroke="#000" stroke-linecap="round" stroke-width="1.26395"/><path d="m208.00165 333.9365c1.7666 2.9442 5.45935 8.2208 6.34265 12.9317.8832 4.7108 3.4335 11.3002 10.0105 12.9548 5.2997 1.4722 10.0106 3.8276 11.1883 7.9496s2.03119 9.47634 2.03119 9.47634c2.74772-3.74968 5.13678-7.56983 8.27371-11.24304-.0913-1.5509-.2446-5.8677-.2446-10.2841-.0912-6.4237-4.8518-7.9911-9.5626-9.7577-4.7109-1.7665-9.9899-3.9602-11.462-6.6101-1.4722-2.6498-5.46101-7.1839-7.52201-8.9505-2.061-1.7665-9.05514 3.533-9.05514 3.533z" fill="#fff" stroke="#000" stroke-linecap="round" stroke-width="1.26395"/><path d="m218.5882 390.3364c4.5512 8.1837 5.0559 19.6423 6.9276 27.4716 3.2475-6.1683 8.8405-11.5161 14.17-14.9778.3123-6.1417 1.8678-14.6201 3.6343-17.27 8.5328-12.435 2.5279-19.5543 2.5279-19.5543-8.5265 10.0136-8.8354 17.1927-27.2598 24.3305z" fill="#fff" stroke="#000" stroke-linecap="round" stroke-width="1.26395"/><path d="m210.4789 415.6306c-.2344 2.0311 2.524 9.0955 7.0839 9.408s7.1267-3.1668 7.953-7.2306l-2.44986-13.6473z" fill="#fff" stroke="#000" stroke-linecap="round" stroke-width="1.26395"/><path d="m210.4471 325.1111c-.9081-2.4972.454-2.4973 2.9513-1.3622 4.0863 2.4973 1.135 8.8538-3.4053 10.2159-2.4973 1.1351-3.8594-1.8161-.227-3.1782 3.4053-.9081.681-5.6755.681-5.6755z" fill="#fff" fill-rule="evenodd" stroke="#000" stroke-linecap="round" stroke-width=".842633"/><path d="m239.9597 363.9593.227 1.5396c0 1.666.1247 3.0652.227 4.6187 0 1.2868-.25555 2.45339-.33005 3.63199" fill="none" stroke="#000" stroke-linecap="round" stroke-width="1.053292"/><path d="m237.6895 365.4969.227 1.4056c.0914 1.5842.409 2.4118.454 3.9358 0 1.5465-.19679 4.17345-.23919 5.64325" fill="none" stroke="#000" stroke-linecap="round" stroke-width="1.053292"/><path d="m236.7814 399.3465v2.2434c0 1.2236-.0231 2.4183-.227 3.205" fill="none" stroke="#000" stroke-linecap="round" stroke-width="1.053292"/><path d="m234.0571 400.4816c0 .50308 0 .50308 0 0 .0491 1.6775.2271 2.6056.2271 4.3134 0 .522.0982 1.94801-.2271 2.16491" fill="none" stroke="#000" stroke-linecap="round" stroke-width="1.053292"/><path d="m231.787 401.8437c.0923 1.8282.3981 3.0248.454 4.9036 0 .9436-.1894 1.0488-.227 1.907" fill="none" stroke="#000" stroke-linecap="round" stroke-width="1.053292"/><path d="m229.0627 403.2265s0 0 .227 1.4343c.0414 1.4096.2271 2.1692.2271 3.7294-.0424 1.4986-.3738 2.1231-.4541 3.4423" fill="none" stroke="#000" stroke-linecap="round" stroke-width="1.053292"/><path d="m227.0195 404.1139c0 .4056.1229 1.9795.2271 2.9512v3.1783c-.126 1.0579-.3569 2.1949-.6811 2.9513v2.1789" fill="none" stroke="#000" stroke-linecap="round" stroke-width="1.053292"/><path d="m242.2298 364.4592c.0577.4264.3941 2.0547 0 3.1013 0 .9252-.0617 2.69393-.18314 3.36183" fill="none" stroke="#000" stroke-linecap="round" stroke-width="1.053292"/><path d="m214.88024 324.92324c3.0469.625 11.60416.28086 14.57286-1.90664l2.9688-2.1875" fill="none" stroke="#000" stroke-linecap="round" stroke-width=".842633"/><path d="m215.53932 326.6747c2.9103 1.0973 10.82458 1.673 14.10088-.0194l3.2764-1.6924" fill="none" stroke="#000" stroke-linecap="round" stroke-width=".842633"/><path d="m215.71576 330.56543c1.5625 1.875 2.72184 2.92007 3.19054 5.42007l.4688 2.5" fill="none" stroke="#000" stroke-linecap="round" stroke-width=".842633"/><path d="m213.81619 331.55258c1.875 2.6563 3.21511 3.65172 3.84011 6.30792l.625 2.6563" fill="none" stroke="#000" stroke-linecap="round" stroke-width=".842633"/><path d="m212.11442 332.99831c.7813 4.0625 4.13568 12.04969 6.47938 14.54969l2.3438 2.5" fill="none" stroke="#000" stroke-linecap="round" stroke-width=".842633"/><path d="m224.38419 419.76923c-1.5767-.204-4.96809-2.89093-5.65639-3.80563-.6883-.915-.7388-1.3003-.7388-1.3003" fill="none" stroke="#000" stroke-linecap="round" stroke-width="1.053292"/><path d="m223.3635 421.83763c-1.7047-.4129-5.4173-3.34553-6.1625-4.28973-.7455-.9445-.8959-1.1908-.8959-1.1908" fill="none" stroke="#000" stroke-linecap="round" stroke-width="1.053292"/><path d="m222.034 423.6018c-1.8001-.1981-5.5241-3.0168-6.3953-4.0379-.8713-1.0214-.8713-1.0214-.8713-1.0214" fill="none" stroke="#000" stroke-linecap="round" stroke-width="1.053292"/><path d="m244.3976 282.0383c-.2298 1.8959-.3447 5.6302.3447 7.9857s.6894 2.3555.6894 2.3555" fill="none" stroke="#000" stroke-linecap="round" stroke-width=".842633"/><path d="m249.9129 276.0634c-1.3213.4596-3.2747 1.4937-3.9066 2.3555-.632.8618-.632.8618-.632.8618" fill="none" stroke="#000" stroke-linecap="round" stroke-width=".842633"/><path d="m233.9676 277.7643c2.8461 5.0023 1.9629 21.3469 1.3741 23.2082-.5889 1.8613-.5889 1.8613-.5889 1.8613" fill="none" stroke="#000" stroke-linecap="round" stroke-width="1.053292"/><path d="m224.6875 267.6261c-1.1719.3906-3.47795 1.90682-3.67325 2.96142" fill="none" stroke="#000" stroke-linecap="round" stroke-width=".842633"/><path d="m226.5625 268.9933c-.7855.26181-2.1326 1.2081-2.99435 2.12124" fill="none" stroke="#000" stroke-linecap="round" stroke-width=".842633"/></g><path d="m109.12658 321.87047c-2.56711.00001-2.75677 6.33188 0 6.33186s2.56711-6.33188 0-6.33186z" fill="#fff" stroke="#fff" stroke-width="1.26395"/></g><path d="m-298.5-298.5h597v258.5c0 286.2-298.5 398.39-298.5 398.39s-298.5-112.19-298.5-398.39z" fill="url(#a)" height="100%" stroke-width=".999916" transform="matrix(1 0 0 1.0001675 0 .04997)" width="100%"/><path d="m-298.5-298.50001h597v258.502973c0 286.203287-298.5 398.394577-298.5 398.394577s-298.5-112.19129-298.5-398.394577z" fill="none" stroke="#000" stroke-width="3"/></svg>