<svg xmlns="http://www.w3.org/2000/svg" viewBox="0 0 2400 1600"><rect width="2400" height="1595.4203" style="fill:#e7353b"/><path d="M1743.1493,637.4845l170.6142,1.2812c-2.3247,4.4845-20.9225,28.8287-16.5762,55.0949l-137.4617,1.2812C1762.4546,684.251,1757.1987,656.0629,1743.1493,637.4845Z" style="fill:#fff;stroke:#010101;stroke-linecap:round;stroke-linejoin:round;stroke-width:3px;fill-rule:evenodd"/><path d="M1762.3878,693.9136l-.6132,1.4839s.0818.6958.18,1.7038l.072.7145c4.279,71.2906-12.7567,145.61-47.5008,190.71v.7694c-.1921.2335-.3843.465-.577.7145l-1.0821,115.9649h226.4672v-1.484h.5772l-.5411-116.9542s-.1442-.229-.18-.2748l-.5411-.7145c-34.9765-49.7235-45.5819-123.3646-42.812-190.27l.0361-.7145c.0256-.5454.0446-1.1009.0722-1.6488Z" style="fill:#fff;stroke:#010101;stroke-linecap:round;stroke-linejoin:round;stroke-width:3px;fill-rule:evenodd"/><path d="M1762.6682,695.62l-.6131,1.4839s.0818.6959.18,1.7038l.0722.7145c4.279,71.2906-12.7568,145.61-47.5008,190.71v.7695c-.1924.2336-.3843.4651-.5771.7145l-1.082,115.965h226.467v-1.4839h.5771l-.541-116.9543s-.1443-.229-.18-.2748l-.541-.7145c-34.9767-49.7236-45.582-123.3647-42.812-190.27l.036-.7145c.0256-.5454.0447-1.1009.0722-1.6488Z" style="fill:#fff;stroke:#010101;stroke-linecap:round;stroke-linejoin:round;stroke-width:3px;fill-rule:evenodd"/><path d="M1760.0616,698.2436h137.6972v8.802H1760.0616Z" style="fill:#fff;stroke:#010101;stroke-linecap:round;stroke-linejoin:round;stroke-width:3px;fill-rule:evenodd"/><path d="M1743.6031,634.8944l170.6142,1.2812c-2.3246,4.4845-20.9225,28.8287-16.5762,55.0949l-137.4617,1.2813C1762.9084,681.6609,1757.6525,653.4729,1743.6031,634.8944Z" style="fill:#fff;stroke:#010101;stroke-linecap:round;stroke-linejoin:round;stroke-width:3px;fill-rule:evenodd"/><path d="M1739.0466,636.7432h179.7273v9.8317H1739.0466Z" style="fill:#fff;stroke:#010101;stroke-linecap:round;stroke-linejoin:round;stroke-width:3px;fill-rule:evenodd"/><path d="M1757.7254,688.3093h142.37v9.3148h-142.37Z" style="fill:#fff;stroke:#010101;stroke-linecap:round;stroke-linejoin:round;stroke-width:3px;fill-rule:evenodd"/><path d="M1708.7394,983.12H1945.72v25.6108H1708.7394Z" style="fill:#fff;stroke:#010101;stroke-linecap:round;stroke-linejoin:round;stroke-width:3px;fill-rule:evenodd"/><path d="M1777.1791,1007.0114h103.9583V842.9679s-12.1155-51.7646-49.2433-58.3265-55.1059,60.5137-55.1059,60.5137Z" style="fill:#e7353b;stroke:#010101;stroke-miterlimit:3.9350738525390625;stroke-width:3px;fill-rule:evenodd"/><path d="M1733.5888,553.2844v67.6362h23.7449v-.1648h17.9194v.1648h23.7081v-.1648h17.9194v.1648h23.7081v-.1648h17.9193v.1648h23.7081v-.1648h17.9193v.1648h23.7081V553.2844h-23.7081V582.68h-17.9193V553.2844H1858.508v29.45h-17.9193v-29.45h-23.7081v29.505h-17.9194v-29.505h-23.7081v29.56h-17.9194v-29.56Z" style="fill:#fff;stroke:#010101;stroke-linecap:round;stroke-linejoin:round;stroke-width:3px;fill-rule:evenodd"/><path d="M1735.9974,619.8235h185.8258v14.1814H1735.9974Z" style="fill:#fff;stroke:#010101;stroke-linecap:round;stroke-linejoin:round;stroke-width:3px;fill-rule:evenodd"/><path d="M1421.8681,424.627v82.6122h190.2548V424.627h-23.7081v35.9037h-17.9194V424.627h-23.7081v35.9709H1528.868V424.627H1505.16v36.038h-17.9193V424.627h-23.7081v36.1051h-17.9194V424.627Z" style="fill:#fff;stroke:#010101;stroke-linecap:round;stroke-linejoin:round;stroke-width:3px;fill-rule:evenodd"/><path d="M1431.6884,525.1l170.6142,1.565c-2.3247,5.4774-20.9225,35.2119-16.5762,67.2939l-137.4617,1.565c2.729-13.3023-2.5268-47.7318-16.5763-70.4239Z" style="fill:#fff;stroke:#010101;stroke-linecap:round;stroke-linejoin:round;stroke-width:3px;fill-rule:evenodd"/><path d="M1450.9268,599.1822l-.613,1.8125s.0818.85.18,2.081l.072.8727c4.279,87.0758-12.7567,177.8514-47.5008,232.9373v.94c-.1921.2851-.3843.568-.577.8727L1401.4062,980.34h226.4672v-1.8125h.5771l-.541-142.85s-.1441-.28-.18-.3358l-.541-.8727c-34.9764-60.7332-45.5818-150.68-42.8119-232.4l.036-.8727c.0267-.6661.0448-1.3446.0722-2.0138Z" style="fill:#fff;stroke:#010101;stroke-linecap:round;stroke-linejoin:round;stroke-width:3px;fill-rule:evenodd"/><path d="M1448.6007,602.5306h137.6972v8.7676H1448.6007Z" style="fill:#fff;stroke:#010101;stroke-linecap:round;stroke-linejoin:round;stroke-width:3px;fill-rule:evenodd"/><path d="M1446.2645,593.2089h142.37v9.3938h-142.37Z" style="fill:#fff;stroke:#010101;stroke-linecap:round;stroke-linejoin:round;stroke-width:3px;fill-rule:evenodd"/><path d="M1427.5857,517.5H1607.313v9.6987H1427.5857Z" style="fill:#fff;stroke:#010101;stroke-linecap:round;stroke-linejoin:round;stroke-width:3px;fill-rule:evenodd"/><path d="M1424.5364,507.2536h185.8258V517.645H1424.5364Z" style="fill:#fff;stroke:#010101;stroke-linecap:round;stroke-linejoin:round;stroke-width:3px;fill-rule:evenodd"/><path d="M1465.7182,981.6062h103.9583V781.24s-12.1155-63.2264-49.2433-71.2412-55.1059,73.9126-55.1059,73.9126Z" style="fill:#e7353b;stroke:#010101;stroke-miterlimit:3.9350738525390625;stroke-width:3px;fill-rule:evenodd"/><path d="M785.406,424.6275V507.24H975.6607V424.6275H951.9526v35.9037H934.0333V424.6275H910.3252v35.9708H892.4058V424.6275H868.6977v36.0379H850.7784V424.6275H827.07v36.105H809.151v-36.105Z" style="fill:#fff;stroke:#010101;stroke-linecap:round;stroke-linejoin:round;stroke-width:3px;fill-rule:evenodd"/><path d="M795.2262,525.1006l170.6143,1.565c-2.3247,5.4774-20.9225,35.212-16.5763,67.294l-137.4617,1.5649c2.7291-13.3022-2.5268-47.7317-16.5762-70.4239Z" style="fill:#fff;stroke:#010101;stroke-linecap:round;stroke-linejoin:round;stroke-width:3px;fill-rule:evenodd"/><path d="M814.4647,599.1826l-.6131,1.8125s.0818.85.18,2.081l.0719.8727c4.279,87.0758-12.7566,177.8514-47.5007,232.9373v.94c-.1921.2851-.3844.568-.5771.8727l-1.082,141.6419H991.4112V978.528h.5772l-.5411-142.85s-.1441-.28-.18-.3357l-.5411-.8727c-34.9764-60.7333-45.5818-150.68-42.8118-232.4l.036-.8726c.0266-.6662.0447-1.3447.0722-2.0139Z" style="fill:#fff;stroke:#010101;stroke-linecap:round;stroke-linejoin:round;stroke-width:3px;fill-rule:evenodd"/><path d="M812.1386,602.531H949.8358v8.7676H812.1386Z" style="fill:#fff;stroke:#010101;stroke-linecap:round;stroke-linejoin:round;stroke-width:3px;fill-rule:evenodd"/><path d="M809.8024,593.2094h142.37v9.3938h-142.37Z" style="fill:#fff;stroke:#010101;stroke-linecap:round;stroke-linejoin:round;stroke-width:3px;fill-rule:evenodd"/><path d="M791.1235,517.5006H970.8508v9.6987H791.1235Z" style="fill:#fff;stroke:#010101;stroke-linecap:round;stroke-linejoin:round;stroke-width:3px;fill-rule:evenodd"/><path d="M788.0743,507.254H973.9v10.3914H788.0743Z" style="fill:#fff;stroke:#010101;stroke-linecap:round;stroke-linejoin:round;stroke-width:3px;fill-rule:evenodd"/><path d="M829.256,981.6066H933.2144V781.2406s-12.1155-63.2264-49.2434-71.2412-55.1059,73.9126-55.1059,73.9126Z" style="fill:#e7353b;stroke:#010101;stroke-miterlimit:3.9350738525390625;stroke-width:3px;fill-rule:evenodd"/><path d="M483.7663,637.4845l170.6142,1.2812c-2.3247,4.4845-20.9225,28.8287-16.5763,55.0949l-137.4617,1.2812C503.0716,684.251,497.8157,656.0629,483.7663,637.4845Z" style="fill:#fff;stroke:#010101;stroke-linecap:round;stroke-linejoin:round;stroke-width:3px;fill-rule:evenodd"/><path d="M503.0047,693.9136l-.6131,1.4839s.0818.6958.18,1.7038l.0719.7145c4.2791,71.2906-12.7566,145.61-47.5007,190.71v.7694c-.1921.2335-.3843.465-.577.7145l-1.0821,115.9649H679.9513v-1.484h.5771l-.541-116.9542s-.1442-.229-.18-.2748l-.5411-.7145c-34.9766-49.7235-45.582-123.3646-42.812-190.27l.0361-.7145c.0256-.5454.0446-1.1009.0721-1.6488Z" style="fill:#fff;stroke:#010101;stroke-linecap:round;stroke-linejoin:round;stroke-width:3px;fill-rule:evenodd"/><path d="M503.2851,695.62l-.6131,1.4839s.0818.6959.18,1.7038l.0722.7145c4.2791,71.2906-12.7567,145.61-47.5007,190.71v.7695c-.1924.2336-.3844.4651-.5771.7145l-1.082,115.965h226.467v-1.4839h.5771l-.541-116.9543s-.1443-.229-.18-.2748l-.5409-.7145c-34.9767-49.7236-45.582-123.3647-42.8121-190.27l.0361-.7145c.0256-.5454.0447-1.1009.0722-1.6488Z" style="fill:#fff;stroke:#010101;stroke-linecap:round;stroke-linejoin:round;stroke-width:3px;fill-rule:evenodd"/><path d="M500.6786,698.2436H638.3758v8.802H500.6786Z" style="fill:#fff;stroke:#010101;stroke-linecap:round;stroke-linejoin:round;stroke-width:3px;fill-rule:evenodd"/><path d="M484.22,634.8944l170.6142,1.2812c-2.3247,4.4845-20.9225,28.8287-16.5763,55.0949l-137.4616,1.2813C503.5253,681.6609,498.27,653.4729,484.22,634.8944Z" style="fill:#fff;stroke:#010101;stroke-linecap:round;stroke-linejoin:round;stroke-width:3px;fill-rule:evenodd"/><path d="M479.6636,636.7432H659.3909v9.8317H479.6636Z" style="fill:#fff;stroke:#010101;stroke-linecap:round;stroke-linejoin:round;stroke-width:3px;fill-rule:evenodd"/><path d="M498.3424,688.3093h142.37v9.3148h-142.37Z" style="fill:#fff;stroke:#010101;stroke-linecap:round;stroke-linejoin:round;stroke-width:3px;fill-rule:evenodd"/><path d="M449.3564,983.12H686.3372v25.6108H449.3564Z" style="fill:#fff;stroke:#010101;stroke-linecap:round;stroke-linejoin:round;stroke-width:3px;fill-rule:evenodd"/><path d="M517.796,1007.0114H621.7544V842.9679s-12.1155-51.7646-49.2433-58.3265-55.1059,60.5137-55.1059,60.5137Z" style="fill:#e7353b;stroke:#010101;stroke-miterlimit:3.9350738525390625;stroke-width:3px;fill-rule:evenodd"/><path d="M474.2058,553.2844v67.6362h23.7449v-.1648H515.87v.1648h23.7081v-.1648h17.9193v.1648h23.7081v-.1648H599.125v.1648h23.7081v-.1648h17.9193v.1648h23.7081V553.2844H640.7524V582.68H622.8331V553.2844H599.125v29.45H581.2056v-29.45H557.4975v29.505H539.5782v-29.505H515.87v29.56H497.9507v-29.56Z" style="fill:#fff;stroke:#010101;stroke-linecap:round;stroke-linejoin:round;stroke-width:3px;fill-rule:evenodd"/><path d="M476.6143,619.8235H662.44v14.1814H476.6143Z" style="fill:#fff;stroke:#010101;stroke-linecap:round;stroke-linejoin:round;stroke-width:3px;fill-rule:evenodd"/><path d="M1103.6371,345.8177v92.4085h23.745v-.2251h17.9194v.2251H1169.01v-.2251h17.9193v.2251h23.7081v-.2251h17.9194v.2251h23.708v-.2251h17.9194v.2251h23.7081V345.8177h-23.7081V385.979h-17.9194V345.8177h-23.708V386.054H1210.637V345.8177h-23.7081v40.3114H1169.01V345.8177h-23.7081v40.3864h-17.9194V345.8176Z" style="fill:#fff;stroke:#010101;stroke-linecap:round;stroke-linejoin:round;stroke-width:3px;fill-rule:evenodd"/><path d="M1113.4575,463.9753l170.6142,1.75c-2.3248,6.1269-20.9225,39.3875-16.5763,75.2739l-137.4617,1.75c2.729-14.88-2.5269-53.3919-16.5762-78.775Z" style="fill:#fff;stroke:#010101;stroke-linecap:round;stroke-linejoin:round;stroke-width:3px;fill-rule:evenodd"/><path d="M1132.6959,541.0721l-.6131,2.0275s.0819.9506.18,2.3278l.0721.9761c4.279,97.4015-12.7567,198.9415-47.5008,260.56v1.0512c-.1923.319-.3844.6353-.5771.9762l-1.082,158.4381h226.4672v-2.0274h.5771l-.541-159.79s-.1441-.3129-.18-.3756l-.5411-.9761c-34.9765-67.9352-45.5818-168.5481-42.8119-259.9588l.0362-.9762c.0266-.7451.0447-1.5041.0721-2.2527Z" style="fill:#fff;stroke:#010101;stroke-linecap:round;stroke-linejoin:round;stroke-width:3px;fill-rule:evenodd"/><path d="M1130.37,542.2487H1268.067v9.8073H1130.37Z" style="fill:#fff;stroke:#010101;stroke-linecap:round;stroke-linejoin:round;stroke-width:3px;fill-rule:evenodd"/><path d="M1128.0336,533.9372h142.37V544.445h-142.37Z" style="fill:#fff;stroke:#010101;stroke-linecap:round;stroke-linejoin:round;stroke-width:3px;fill-rule:evenodd"/><path d="M1109.3548,452.2685h179.7273v10.8487H1109.3548Z" style="fill:#fff;stroke:#010101;stroke-linecap:round;stroke-linejoin:round;stroke-width:3px;fill-rule:evenodd"/><path d="M1106.3055,441.02h185.8258v11.6237H1106.3055Z" style="fill:#fff;stroke:#010101;stroke-linecap:round;stroke-linejoin:round;stroke-width:3px;fill-rule:evenodd"/><path d="M1079.0476,936.2038h236.9808v34.991H1079.0476Z" style="fill:#fff;stroke:#010101;stroke-linecap:round;stroke-linejoin:round;stroke-width:3px;fill-rule:evenodd"/><path d="M1147.4872,968.8451h103.9584V744.719s-12.1155-70.7239-49.2433-79.6892-55.1059,82.6775-55.1059,82.6775Z" style="fill:#e7353b;stroke:#010101;stroke-miterlimit:3.9350738525390625;stroke-width:3px;fill-rule:evenodd"/><path d="M1966.0333,970.8419c-21.0885,71.52-96.211,70.67-149.4769,70.1381-188.1167-11.5985-375.4022-41.3318-564.0865-41.2764C1039.256,992.87,827.405,1026.09,616.81,1060.7181c-52.2718,3.442-112.967,20.6206-159.0313-16.3111-25.4266-34.4483-42.5905-88.7323,13.67-78.893,380.9706-65.9077,768.3364-73.3,1152.1033-41.5664C1738.1777,934.2018,1852.586,948.8633,1966.0333,970.8419Z" style="fill:#fff;stroke:#010101;stroke-linecap:round;stroke-linejoin:round;stroke-width:3px"/><path d="M481.9057,1139.2561c-16.7562-47.28-33.7848-94.438-47.2446-143.1922,394.7338-74.0215,797.1585-83.2085,1195.3961-49.1513,110.7944,10.2358,221.35,24.739,331.064,45.6617q-17.56,56.199-35.12,112.3982c-17.2771-5.0145-36.84-33.0186-51.3476-10.18l-79.36,73.586c-34.1013-12.29-69.8414-20.9349-102.9275-35.4816l-81.2308-79.8692c-49.2992,5.8118-68.5139,87.2272-106.7287,94.8619-38.677-22.9755-82.0793-37.1448-112.99-74.5927l-53.6941-52.09-94.9036,91.4852c-33.2985-4.1566-68.5792-2.6338-100.6453-10.3213l-76.7342-77.1863c-32.8925,30.0061-63.9489,65.0343-97.9782,91.9312l-97.4781,14.1385-79.0864-78.2264c-34.29,28.8091-66.0383,63.1545-101.8837,88.5766L597.7,1178.9856l-77.9565-80.8782-37.8376,41.1487Z" style="fill:#fff;stroke:#010101;stroke-linecap:round;stroke-linejoin:round;stroke-width:3px"/><path d="M709.796,1128.7066c35.193-51.8787,57.3674-83.6659,80.2276-83.0736s45.7042,28.0038,80.2275,77.5354v30.46c-24.5915-25.3812-58.5228-86.169-80.2275-85.8428s-57.0313,57.6822-80.2276,91.3811Z" style="fill:#fff;stroke:#010101;stroke-linecap:round;stroke-linejoin:round;stroke-width:3px"/><path d="M1528.5888,1125.9375c35.1929-51.8788,57.3673-83.666,80.2275-83.0738s45.7043,28.0038,80.2276,77.5355v30.46c-24.5916-25.3812-58.5228-86.169-80.2276-85.8428s-57.0312,57.6822-80.2275,91.3811Z" style="fill:#fff;stroke:#010101;stroke-linecap:round;stroke-linejoin:round;stroke-width:3px"/><path d="M475.1973,1120.4659c-2.5612,3.5038,19.254-30.42,42.1142-29.8279s45.7042,28.0038,80.2275,77.5355v30.46c-24.5915-25.3812-57.2161-87.57-80.2275-85.8428s-32.2652,26.0552-34.2248,26.5246Z" style="fill:#fff;stroke:#010101;stroke-linecap:round;stroke-linejoin:round;stroke-width:3px"/><path d="M1804.666,1156.3979c35.193-51.8788,57.3672-83.666,80.2274-83.0737s41.62,34.8212,40.7487,31.74l-8.3485,22.153c-.9952-.4591-10.6954-32.0657-32.4-31.7395s-57.0312,57.6821-80.2275,91.3811Z" style="fill:#fff;stroke:#010101;stroke-linecap:round;stroke-linejoin:round;stroke-width:3px"/><path d="M653.329,1359.9076V910.9507h19.0445v17.88h21.5838v-17.88h17.14l.6348,450.4469Z" style="fill:#fff;stroke:#010101;stroke-linecap:round;stroke-linejoin:round;stroke-width:3px;fill-rule:evenodd"/><path d="M595.3449,1360.2128V917.0534H614.39v17.88h21.5837v-17.88l8.57-.3725h7.9352l1.27,445.0218Z" style="fill:#fff;stroke:#010101;stroke-linecap:round;stroke-linejoin:round;stroke-width:3px;fill-rule:evenodd"/><path d="M1745.0047,1357.5536V917.07h19.0445v17.88h21.5838V917.07h17.14l.6348,435.3478Z" style="fill:#fff;stroke:#010101;stroke-linecap:round;stroke-linejoin:round;stroke-width:3px;fill-rule:evenodd"/><path d="M1687.0206,1357.8589V909.348h19.0445v17.88h21.5838v-17.88l8.57-.3725h7.9352l1.27,450.3733Z" style="fill:#fff;stroke:#010101;stroke-linecap:round;stroke-linejoin:round;stroke-width:3px;fill-rule:evenodd"/><path d="M983.5135,1099.6309c35.193-51.8788,57.3674-83.666,80.2276-83.0738s45.7042,28.0038,80.2275,77.5355v30.46c-24.5916-25.3813-58.5228-86.1691-80.2276-85.8428s-57.0312,57.6821-80.2275,91.3811Z" style="fill:#fff;stroke:#010101;stroke-linecap:round;stroke-linejoin:round;stroke-width:3px"/><path d="M927.3609,1369.1893V888.3462h19v19.1311H967.895V888.3462h17.1l.6333,482.4374Z" style="fill:#fff;stroke:#010101;stroke-linecap:round;stroke-linejoin:round;stroke-width:3px;fill-rule:evenodd"/><path d="M869.5112,1369.5159V890.4566h19v19.1311h21.5338V890.4566l8.55-.3986h7.9169l1.2667,481.0522Z" style="fill:#fff;stroke:#010101;stroke-linecap:round;stroke-linejoin:round;stroke-width:3px;fill-rule:evenodd"/><path d="M1470.7643,1366.1584V889.2465h18.9925v19.3588h21.5249V889.2465h17.0932l.6331,478.5251Z" style="fill:#fff;stroke:#010101;stroke-linecap:round;stroke-linejoin:round;stroke-width:3px;fill-rule:evenodd"/><path d="M1254.8713,1098.2462c35.1929-51.8787,57.3674-83.6659,80.2276-83.0737s45.7042,28.0038,80.2275,77.5354v30.46c-24.5915-25.3813-58.5227-86.1691-80.2275-85.8429s-57.0312,57.6822-80.2276,91.3811Z" style="fill:#fff;stroke:#010101;stroke-linecap:round;stroke-linejoin:round;stroke-width:3px"/><path d="M1412.9385,1366.4889V888.685h18.9925v19.3588h21.5249V888.685l8.5466-.4033h7.9136l1.2661,479.82Z" style="fill:#fff;stroke:#010101;stroke-linecap:round;stroke-linejoin:round;stroke-width:3px;fill-rule:evenodd"/><path d="M1199.5575,1365.4942V879.3133h18.7213v22.8938h21.2176V879.3133h16.8494l.624,488.0887Z" style="fill:#fff;stroke:#010101;stroke-linecap:round;stroke-linejoin:round;stroke-width:3px;fill-rule:evenodd"/><path d="M1144.6575,1362.943V879.6064h18.0164V902.39h20.4186V879.6064l8.1074-.4747h7.5068l1.2011,485.71Z" style="fill:#fff;stroke:#010101;stroke-linecap:round;stroke-linejoin:round;stroke-width:3px;fill-rule:evenodd"/><path d="M553.8444,470.01c-6.764,15.97-15.126,22.4346-23.2435,30.2818,9.0986.0415,18.1676-1.7057,27.5662-9.59.16,24.3272,3.6662,32.6432,12.1178,40.8167,8.3557-7.918,12.2168-16.4626,12.1886-40.8167,9.3986,7.8844,18.4439,9.6316,27.5426,9.59-8.1169-7.8466-16.4562-14.3146-23.22-30.2818Z" style="fill:#f9eb45;stroke:#010101;stroke-miterlimit:4.571087837219238;stroke-width:2.0000292525881207px;fill-rule:evenodd"/><path d="M533.6481,458.0232h73.3208v11.9979H533.6481Z" style="fill:#f9eb45;stroke:#010101;stroke-miterlimit:4.571087837219238;stroke-width:2.0000292525881207px"/><path d="M570.2992,317.7361c-26.412,28.0385-36.5786,60.3373-15.59,100.79,4.7936,12.2892,8.5706,24.9772,7.7951,39.4939h15.59c-.7755-14.5167,3.0016-27.2047,7.7951-39.4939C606.8778,378.0734,596.7111,345.7746,570.2992,317.7361Z" style="fill:#f9eb45;stroke:#010101;stroke-miterlimit:1.3741009823803836;stroke-width:2.0000290512848498px;fill-rule:evenodd"/><path d="M514.34,387.3228c-26.6338.639-44.3911,45.3654,11.5036,67.1774-18.4736-36.1866,15.7948-22.7757,20.3145,3.5195H559.41C552.0932,404.61,531.4026,386.9135,514.34,387.3228Z" style="fill:#f9eb45;stroke:#010101;stroke-miterlimit:1.3741009823803836;stroke-width:2.0000290512848498px;fill-rule:evenodd"/><path d="M625.2426,387.3228c-16.8573.3157-36.86,18.3557-44.03,70.6969H594.44c4.52-26.2952,38.8116-39.7061,20.338-3.5195C671.39,432.4086,652.4376,386.8136,625.2426,387.3228Z" style="fill:#f9eb45;stroke:#010101;stroke-miterlimit:1.3741009823803836;stroke-width:2.0000290512848498px;fill-rule:evenodd"/><path d="M864.4638,348.7827c-6.7639,15.97-15.126,22.4346-23.2435,30.2818,9.0987.0415,18.1676-1.7057,27.5662-9.59.16,24.3272,3.6663,32.6432,12.1178,40.8166,8.3557-7.9179,12.2169-16.4625,12.1887-40.8166,9.3986,7.8844,18.4439,9.6316,27.5426,9.59-8.1169-7.8466-16.4562-14.3145-23.22-30.2818Z" style="fill:#f9eb45;stroke:#010101;stroke-miterlimit:4.571087837219238;stroke-width:2.0000292525881207px;fill-rule:evenodd"/><path d="M844.2675,336.7956h73.3209v11.9978H844.2675Z" style="fill:#f9eb45;stroke:#010101;stroke-miterlimit:4.571087837219238;stroke-width:2.0000292525881207px"/><path d="M880.9186,196.5085c-26.4119,28.0384-36.5786,60.3372-15.59,100.79,4.7935,12.2891,8.5705,24.9771,7.7951,39.4938h15.59c-.7755-14.5167,3.0015-27.2047,7.7951-39.4938C917.4972,256.8457,907.3305,224.5469,880.9186,196.5085Z" style="fill:#f9eb45;stroke:#010101;stroke-miterlimit:1.3741009823803836;stroke-width:2.0000290512848498px;fill-rule:evenodd"/><path d="M824.96,266.0952c-26.6339.6389-44.3912,45.3654,11.5036,67.1773-18.4736-36.1865,15.7948-22.7757,20.3144,3.5195h13.2516C862.7127,283.3821,842.022,265.6858,824.96,266.0952Z" style="fill:#f9eb45;stroke:#010101;stroke-miterlimit:1.3741009823803836;stroke-width:2.0000290512848498px;fill-rule:evenodd"/><path d="M935.862,266.0952c-16.8573.3156-36.86,18.3557-44.03,70.6968H905.06c4.52-26.2952,38.8117-39.706,20.3381-3.5195C982.0091,311.1809,963.0571,265.5859,935.862,266.0952Z" style="fill:#f9eb45;stroke:#010101;stroke-miterlimit:1.3741009823803836;stroke-width:2.0000290512848498px;fill-rule:evenodd"/><path d="M1185.9976,256.2277c-6.764,15.97-15.126,22.4346-23.2435,30.2818,9.0987.0415,18.1676-1.7057,27.5662-9.59.16,24.3272,3.6662,32.6432,12.1178,40.8166,8.3557-7.9179,12.2168-16.4625,12.1886-40.8166,9.3986,7.8844,18.444,9.6316,27.5426,9.59-8.1169-7.8466-16.4562-14.3145-23.22-30.2818Z" style="fill:#f9eb45;stroke:#010101;stroke-miterlimit:4.571087837219238;stroke-width:2.0000292525881207px;fill-rule:evenodd"/><path d="M1165.8013,244.2406h73.3208v11.9978h-73.3208Z" style="fill:#f9eb45;stroke:#010101;stroke-miterlimit:4.571087837219238;stroke-width:2.0000292525881207px"/><path d="M1202.4524,103.9535c-26.4119,28.0384-36.5786,60.3372-15.59,100.79,4.7936,12.2891,8.5706,24.9771,7.7951,39.4938h15.59c-.7754-14.5167,3.0016-27.2047,7.7951-39.4938C1239.031,164.2907,1228.8643,131.9919,1202.4524,103.9535Z" style="fill:#f9eb45;stroke:#010101;stroke-miterlimit:1.3741009823803836;stroke-width:2.0000290512848498px;fill-rule:evenodd"/><path d="M1146.4932,173.54c-26.6338.6389-44.3911,45.3654,11.5037,67.1773-18.4737-36.1865,15.7948-22.7757,20.3144,3.5195h13.2516C1184.2464,190.8271,1163.5558,173.1308,1146.4932,173.54Z" style="fill:#f9eb45;stroke:#010101;stroke-miterlimit:1.3741009823803836;stroke-width:2.0000290512848498px;fill-rule:evenodd"/><path d="M1257.3958,173.54c-16.8573.3156-36.86,18.3557-44.03,70.6968h13.228c4.52-26.2952,38.8116-39.706,20.338-3.5195C1303.5429,218.6259,1284.5908,173.031,1257.3958,173.54Z" style="fill:#f9eb45;stroke:#010101;stroke-miterlimit:1.3741009823803836;stroke-width:2.0000290512848498px;fill-rule:evenodd"/><path d="M1813.2038,470.01c-6.7637,15.9672-15.103,22.4352-23.22,30.2818,9.0987.0415,18.144-1.7057,27.5426-9.59-.0282,24.3541,3.8329,32.8987,12.1886,40.8167,8.4516-8.1735,11.9577-16.49,12.1178-40.8167,9.3986,7.8844,18.4676,9.6316,27.5662,9.59-8.1175-7.8472-16.48-14.312-23.2435-30.2818Z" style="fill:#f9eb45;stroke:#010101;stroke-miterlimit:4.571087837219238;stroke-width:2.0000292525881207px;fill-rule:evenodd"/><path d="M1866.3519,470.0211h-73.3208V458.0232h73.3208Z" style="fill:#f9eb45;stroke:#010101;stroke-miterlimit:4.571087837219238;stroke-width:2.0000292525881207px"/><path d="M1814.1107,418.5258c4.7935,12.2892,8.5706,24.9772,7.7951,39.4939h15.59c-.7755-14.5167,3.0015-27.2047,7.7951-39.4939,20.9884-40.4524,10.8218-72.7512-15.59-100.79C1803.2889,345.7746,1793.1222,378.0734,1814.1107,418.5258Z" style="fill:#f9eb45;stroke:#010101;stroke-miterlimit:1.3741009823803836;stroke-width:2.0000290512848498px;fill-rule:evenodd"/><path d="M1840.59,458.02h13.2516c4.52-26.2952,38.7881-39.7061,20.3145-3.5195,55.8947-21.812,38.1374-66.5384,11.5036-67.1774C1868.5974,386.9135,1847.9068,404.61,1840.59,458.02Z" style="fill:#f9eb45;stroke:#010101;stroke-miterlimit:1.3741009823803836;stroke-width:2.0000290512848498px;fill-rule:evenodd"/><path d="M1785.2217,454.5c-18.4736-36.1866,15.8182-22.7757,20.338,3.5195h13.228c-7.17-52.3412-27.173-70.3812-44.03-70.6969C1747.5624,386.8136,1728.61,432.4086,1785.2217,454.5Z" style="fill:#f9eb45;stroke:#010101;stroke-miterlimit:1.3741009823803836;stroke-width:2.0000290512848498px;fill-rule:evenodd"/><path d="M1500.9023,348.7827c-6.7636,15.9673-15.1029,22.4352-23.22,30.2818,9.0986.0416,18.144-1.7056,27.5426-9.59-.0282,24.3541,3.8329,32.8987,12.1886,40.8166,8.4516-8.1734,11.9577-16.4894,12.1178-40.8166,9.3986,7.8843,18.4675,9.6315,27.5662,9.59-8.1175-7.8472-16.48-14.3119-23.2435-30.2818Z" style="fill:#f9eb45;stroke:#010101;stroke-miterlimit:4.571087837219238;stroke-width:2.0000292525881207px;fill-rule:evenodd"/><path d="M1554.0505,348.7934H1480.73V336.7956h73.3208Z" style="fill:#f9eb45;stroke:#010101;stroke-miterlimit:4.571087837219238;stroke-width:2.0000292525881207px"/><path d="M1501.8093,297.2982c4.7935,12.2891,8.5705,24.9771,7.7951,39.4938h15.59c-.7755-14.5167,3.0015-27.2047,7.7951-39.4938,20.9884-40.4525,10.8217-72.7513-15.59-100.79C1490.9875,224.5469,1480.8208,256.8457,1501.8093,297.2982Z" style="fill:#f9eb45;stroke:#010101;stroke-miterlimit:1.3741009823803836;stroke-width:2.0000290512848498px;fill-rule:evenodd"/><path d="M1528.2889,336.792h13.2516c4.52-26.2952,38.7881-39.706,20.3144-3.5195,55.8948-21.8119,38.1375-66.5384,11.5037-67.1773C1556.296,265.6858,1535.6054,283.3821,1528.2889,336.792Z" style="fill:#f9eb45;stroke:#010101;stroke-miterlimit:1.3741009823803836;stroke-width:2.0000290512848498px;fill-rule:evenodd"/><path d="M1472.92,333.2725c-18.4736-36.1865,15.8182-22.7757,20.338,3.5195h13.228c-7.17-52.3411-27.173-70.3812-44.03-70.6968C1435.261,265.5859,1416.3089,311.1809,1472.92,333.2725Z" style="fill:#f9eb45;stroke:#010101;stroke-miterlimit:1.3741009823803836;stroke-width:2.0000290512848498px;fill-rule:evenodd"/><path d="M2734.7,1525.2031c-46.4238,0-92.5967-13.9726-137.291-41.54-47.97,27.5654-95.8057,41.54-142.2158,41.54-46.4239,0-92.5938-13.9717-137.2823-41.54-47.9707,27.5654-95.8056,41.54-142.2158,41.54-46.4248,0-92.5947-13.9717-137.2822-41.54-47.9707,27.5654-95.8057,41.54-142.2158,41.54-46.4248,0-92.5948-13.9717-137.2823-41.54-47.9707,27.5654-95.8056,41.54-142.2177,41.54-46.4248,0-92.5987-13.9726-137.292-41.54-47.97,27.5654-95.8037,41.54-142.2119,41.54-46.4209,0-92.5928-13.9726-137.2862-41.54-47.97,27.5654-95.8051,41.54-142.2153,41.54-46.4243,0-92.5947-13.9717-137.2827-41.54-47.97,27.5654-95.8052,41.54-142.2154,41.54-46.4243,0-92.5952-13.9717-137.2832-41.54-47.97,27.5654-95.8046,41.54-142.2153,41.54-46.4243,0-92.5942-13.9717-137.2827-41.54-47.97,27.5654-95.8052,41.54-142.2168,41.54-46.4253,0-92.5986-13.9726-137.292-41.54-47.97,27.5654-95.8037,41.54-142.2119,41.54-46.4214,0-92.5928-13.9726-137.2866-41.54-47.97,27.5654-95.8052,41.54-142.2158,41.54-47.3135,0-94.3672-14.5146-139.8531-43.1416L-482,1480.5908V1267.5l7.6631,4.8223c43.8657,27.6015,89.1269,41.5966,134.5264,41.5966,45.4575,0,92.4882-14.0234,139.7841-41.6816l2.6192-1.5312,2.5678,1.6162c43.8721,27.6015,89.1348,41.5966,134.5313,41.5966,45.4551,0,92.4839-14.0234,139.78-41.6816l2.6191-1.5312,2.5674,1.6162c43.8716,27.6015,89.1367,41.5966,134.5371,41.5966,45.459,0,92.49-14.0234,139.7856-41.6816l2.62-1.5312,2.5678,1.6162c43.8658,27.6015,89.127,41.5966,134.5264,41.5966,45.458,0,92.4878-14.0234,139.7842-41.6816l2.6191-1.5312,2.5679,1.6162c43.8662,27.6015,89.1274,41.5966,134.5273,41.5966,45.4576,0,92.4878-14.0234,139.7842-41.6816l2.6192-1.5312,2.5678,1.6162c43.8658,27.6015,89.127,41.5966,134.5269,41.5966,45.457,0,92.4878-14.0234,139.7842-41.6816l2.6191-1.5312,2.5669,1.6162c43.8721,27.6015,89.1348,41.5966,134.5313,41.5966,45.455,0,92.4834-14.0234,139.78-41.6816l2.6192-1.5312,2.5674,1.6162c43.872,27.6015,89.1367,41.5966,134.5371,41.5966,45.459,0,92.49-14.0234,139.7861-41.6816l2.6191-1.5312,2.5684,1.6162c43.8652,27.6015,89.127,41.5966,134.5264,41.5966,45.457,0,92.4873-14.0234,139.7841-41.6816l2.6192-1.5312,2.5683,1.6162c43.8653,27.6015,89.127,41.5966,134.5264,41.5966,45.457,0,92.4873-14.0234,139.7842-41.6816l2.6191-1.5312,2.5684,1.6162c43.8662,27.6015,89.1269,41.5966,134.5264,41.5966,45.458,0,92.4882-14.0234,139.7841-41.6816l2.6192-1.5312,2.5683,1.6162c43.8721,27.6015,89.1358,41.5966,134.5352,41.5966,45.457,0,92.4844-14.0234,139.7754-41.6816l7.5244-4.4v212.8613l-2.4756,1.4473C2830.6816,1510.7168,2781.9561,1525.2031,2734.7,1525.2031Z" style="fill:#2c52a0"/><path d="M2877,1276.5541V1477.83q-72.4383,42.3735-142.3,42.3734-69.8679,0-137.1982-42.3734-72.4474,42.3735-142.3086,42.3734-69.8679,0-137.19-42.3734-72.4469,42.3735-142.3084,42.3734-69.8679,0-137.1894-42.3734-72.4472,42.3735-142.3085,42.3734-69.8679,0-137.1895-42.3734-72.4471,42.3735-142.31,42.3734-69.87,0-137.2-42.3734-72.4471,42.3735-142.3041,42.3734-69.8656,0-137.1938-42.3734-72.4471,42.3735-142.3085,42.3734-69.8679,0-137.1894-42.3734-72.4472,42.3735-142.3086,42.3734-69.8679,0-137.19-42.3734-72.4471,42.3735-142.3084,42.3734-69.8679,0-137.1895-42.3734-72.4472,42.3735-142.31,42.3734-69.87,0-137.2-42.3734Q9.549,1520.2038-60.3081,1520.2037q-69.8658,0-137.194-42.3734-72.4471,42.3735-142.3085,42.3734-69.8679,0-137.1894-42.3734V1276.5541q67.3281,42.3649,137.1894,42.365,69.8679,0,142.3085-42.365,67.337,42.3649,137.194,42.365,69.866,0,142.3043-42.365,67.3369,42.3649,137.2,42.365,69.87,0,142.31-42.365,67.3281,42.3649,137.1895,42.365,69.8679,0,142.3084-42.365,67.3286,42.3649,137.19,42.365,69.8681,0,142.3086-42.365,67.3281,42.3649,137.1894,42.365,69.8679,0,142.3085-42.365,67.3368,42.3649,137.1938,42.365,69.8658,0,142.3041-42.365,67.3372,42.3649,137.2,42.365,69.87,0,142.31-42.365,67.3281,42.3649,137.1895,42.365,69.8678,0,142.3085-42.365,67.3282,42.3649,137.1894,42.365,69.8684,0,142.3084-42.365,67.3285,42.3649,137.19,42.365,69.8679,0,142.3086-42.365,67.3371,42.3649,137.1982,42.365,69.8681,0,142.3-42.365M-487,1258.447v224.9054l4.6737,2.9413c46.2959,29.1366,94.2451,43.91,142.5159,43.91,46.4616,0,94.2521-13.7023,142.1273-40.7352,44.7048,27.0348,90.8926,40.7352,137.3752,40.7352,46.4588,0,94.2481-13.7023,142.1231-40.7352,44.705,27.0348,90.8948,40.7352,137.3806,40.7352,46.4625,0,94.2536-13.7021,142.1288-40.7351,44.7,27.0352,90.8854,40.7351,137.3708,40.7351,46.4616,0,94.252-13.7021,142.1271-40.7351,44.7,27.0352,90.8862,40.7351,137.3712,40.7351,46.4617,0,94.252-13.7021,142.1272-40.7351,44.6994,27.0352,90.8853,40.7351,137.3708,40.7351,46.4616,0,94.2521-13.7023,142.1273-40.7352,44.7048,27.0348,90.8925,40.7352,137.3747,40.7352,46.4589,0,94.2482-13.7023,142.1232-40.7352,44.7053,27.0348,90.8951,40.7352,137.381,40.7352,46.4625,0,94.2535-13.7021,142.1288-40.7351,44.6994,27.0352,90.8853,40.7351,137.3708,40.7351,46.4617,0,94.252-13.7021,142.1271-40.7351,44.7,27.0352,90.8854,40.7351,137.3707,40.7351,46.4617,0,94.252-13.7021,142.1272-40.7351,44.7,27.0352,90.8862,40.7351,137.3713,40.7351,46.4617,0,94.2522-13.7023,142.1272-40.7352,44.7054,27.0348,90.8948,40.7352,137.3794,40.7352,48.1546,0,97.73-14.7167,147.3487-43.7416l4.9509-2.8958v-224.445l-15.0483,8.8008c-46.5147,27.2037-92.6924,40.9971-137.2513,40.9971-44.4426,0-88.8112-13.7371-131.8733-40.8291l-5.1354-3.2309-5.2376,3.0625c-46.52,27.2041-92.7017,40.9975-137.26,40.9975-44.4426,0-88.8083-13.7367-131.8642-40.8288l-5.1358-3.2317-5.238,3.063c-46.5205,27.2041-92.7016,40.9975-137.2605,40.9975-44.4429,0-88.8083-13.7367-131.8636-40.8288l-5.1359-3.2317-5.2379,3.063c-46.52,27.2041-92.7017,40.9975-137.26,40.9975-44.4429,0-88.8083-13.7367-131.8638-40.8288l-5.1358-3.2317-5.2379,3.063c-46.52,27.2041-92.7021,40.9975-137.2621,40.9975-44.4437,0-88.8129-13.7371-131.875-40.8291l-5.1354-3.2309-5.2375,3.0625c-46.52,27.2041-92.7,40.9975-137.2563,40.9975-44.44,0-88.8066-13.7371-131.8683-40.8291l-5.1358-3.2309-5.2376,3.0625c-46.52,27.2041-92.7016,40.9975-137.26,40.9975-44.4429,0-88.8083-13.7367-131.8638-40.8288l-5.1358-3.2317-5.2379,3.063c-46.52,27.2041-92.7017,40.9975-137.26,40.9975-44.4425,0-88.8083-13.7367-131.8641-40.8288l-5.1359-3.2317-5.2379,3.063c-46.52,27.2041-92.7016,40.9975-137.26,40.9975-44.4429,0-88.8083-13.7367-131.8637-40.8288l-5.1359-3.2317-5.2379,3.063c-46.52,27.2041-92.7021,40.9975-137.2621,40.9975-44.4437,0-88.8125-13.7371-131.8741-40.8291l-5.1359-3.2309-5.2375,3.0625c-46.52,27.2041-92.7,40.9975-137.2562,40.9975-44.44,0-88.8071-13.7371-131.8688-40.8291l-5.1358-3.2309-5.2375,3.0625c-46.52,27.2041-92.7017,40.9975-137.26,40.9975-44.4429,0-88.8083-13.7367-131.8638-40.8288L-487,1258.447Z" style="fill:#fff"/><path d="M2863.7,1595.8545c-46.4238,0-92.5967-13.9727-137.291-41.54-47.97,27.5644-95.8057,41.54-142.2158,41.54-46.4239,0-92.5938-13.9717-137.2823-41.54-47.9707,27.5654-95.8056,41.54-142.2158,41.54-46.4248,0-92.5947-13.9717-137.2822-41.54-47.9707,27.5654-95.8057,41.54-142.2158,41.54-46.4248,0-92.5948-13.9717-137.2823-41.54-47.9707,27.5654-95.8056,41.54-142.2177,41.54-46.4248,0-92.5987-13.9727-137.292-41.54-47.97,27.5644-95.8037,41.54-142.2119,41.54-46.4209,0-92.5928-13.9727-137.2862-41.54-47.97,27.5644-95.8056,41.54-142.2158,41.54-46.4238,0-92.5942-13.9717-137.2822-41.54-47.97,27.5654-95.8052,41.54-142.2154,41.54-46.4243,0-92.5952-13.9717-137.2832-41.54-47.97,27.5654-95.8046,41.54-142.2153,41.54-46.4243,0-92.5942-13.9717-137.2827-41.54-47.97,27.5654-95.8052,41.54-142.2168,41.54-46.4253,0-92.5986-13.9727-137.292-41.54-47.97,27.5644-95.8037,41.54-142.2119,41.54-46.4214,0-92.5928-13.9727-137.2866-41.54-47.97,27.5644-95.8052,41.54-142.2158,41.54-47.3135,0-94.3672-14.5147-139.8531-43.1416L-353,1551.2422V1338.1514l7.6631,4.8213c43.8657,27.6025,89.1269,41.5976,134.5264,41.5976,45.4575,0,92.4882-14.0234,139.7841-41.6816l2.6192-1.5313,2.5678,1.6153c43.8721,27.6025,89.1348,41.5976,134.5313,41.5976,45.4551,0,92.4839-14.0234,139.78-41.6816l2.6191-1.5313,2.5674,1.6153c43.8716,27.6025,89.1367,41.5976,134.5371,41.5976,45.459,0,92.49-14.0234,139.7856-41.6816l2.62-1.5313,2.5678,1.6153c43.8658,27.6025,89.127,41.5976,134.5264,41.5976,45.458,0,92.4878-14.0234,139.7842-41.6816l2.6191-1.5313,2.5679,1.6153c43.8662,27.6025,89.1274,41.5976,134.5273,41.5976,45.4576,0,92.4878-14.0234,139.7842-41.6816l2.6192-1.5313,2.5678,1.6153c43.8658,27.6025,89.1265,41.5976,134.5264,41.5976,45.457,0,92.4873-14.0234,139.7842-41.6816l2.6191-1.5313,2.5674,1.6153c43.8721,27.6025,89.1348,41.5976,134.5313,41.5976,45.455,0,92.4834-14.0234,139.78-41.6816l2.6192-1.5313,2.5674,1.6153c43.872,27.6025,89.1367,41.5976,134.5371,41.5976,45.459,0,92.49-14.0234,139.7861-41.6816l2.6191-1.5313,2.5684,1.6153c43.8652,27.6025,89.127,41.5976,134.5264,41.5976,45.457,0,92.4873-14.0234,139.7841-41.6816l2.6192-1.5313,2.5683,1.6153c43.8653,27.6025,89.127,41.5976,134.5264,41.5976,45.457,0,92.4873-14.0234,139.7842-41.6816l2.6191-1.5313,2.5684,1.6153c43.8662,27.6025,89.1269,41.5976,134.5264,41.5976,45.458,0,92.4882-14.0234,139.7841-41.6816l2.6192-1.5313,2.5683,1.6153c43.8721,27.6025,89.1358,41.5976,134.5352,41.5976,45.457,0,92.4844-14.0234,139.7754-41.6816l7.5244-4.4V1551.35l-2.4756,1.4473C2959.6816,1581.3682,2910.9561,1595.8545,2863.7,1595.8545Z" style="fill:#2c52a0"/><path d="M3006,1347.2052v201.2762q-72.4383,42.3737-142.3,42.3735-69.8679,0-137.1982-42.3735-72.4474,42.3737-142.3086,42.3735-69.8679,0-137.19-42.3735-72.4469,42.3737-142.3084,42.3735-69.8679,0-137.1894-42.3735-72.4471,42.3737-142.3085,42.3735-69.8679,0-137.1895-42.3735-72.4471,42.3737-142.31,42.3735-69.87,0-137.2-42.3735-72.4471,42.3737-142.3041,42.3735-69.8656,0-137.1938-42.3735-72.4471,42.3737-142.3085,42.3735-69.8679,0-137.1894-42.3735-72.4471,42.3737-142.3086,42.3735-69.8679,0-137.19-42.3735-72.4471,42.3737-142.3084,42.3735-69.8681,0-137.1895-42.3735-72.4472,42.3737-142.31,42.3735-69.87,0-137.2-42.3735-72.4471,42.3737-142.3043,42.3735-69.8658,0-137.194-42.3735-72.4472,42.3737-142.3085,42.3735-69.8679,0-137.1894-42.3735V1347.2052q67.3281,42.3649,137.1894,42.365,69.8679,0,142.3085-42.365,67.337,42.3649,137.194,42.365,69.866,0,142.3043-42.365,67.337,42.3649,137.2,42.365,69.87,0,142.31-42.365,67.3281,42.3649,137.1895,42.365,69.8679,0,142.3084-42.365,67.3286,42.3649,137.19,42.365,69.8681,0,142.3086-42.365,67.3281,42.3649,137.1894,42.365,69.8679,0,142.3085-42.365,67.3368,42.3649,137.1938,42.365,69.8658,0,142.3041-42.365,67.3372,42.3649,137.2,42.365,69.87,0,142.31-42.365,67.3281,42.3649,137.1895,42.365,69.8678,0,142.3085-42.365,67.3282,42.3649,137.1894,42.365,69.8684,0,142.3084-42.365,67.3285,42.3649,137.19,42.365,69.8679,0,142.3086-42.365,67.3371,42.3649,137.1982,42.365,69.8681,0,142.3-42.365m-3364-18.1071v224.9054l4.6737,2.9413c46.2959,29.1366,94.2451,43.91,142.5159,43.91,46.4616,0,94.2521-13.7022,142.1273-40.7352,44.7048,27.0348,90.8926,40.7352,137.3752,40.7352,46.4588,0,94.2481-13.7022,142.1231-40.7352,44.705,27.0348,90.8948,40.7352,137.3806,40.7352,46.4625,0,94.2536-13.7021,142.1288-40.7351,44.7,27.0352,90.8854,40.7351,137.3708,40.7351,46.4616,0,94.252-13.7021,142.1271-40.7351,44.7,27.0352,90.8862,40.7351,137.3712,40.7351,46.4617,0,94.252-13.7021,142.1271-40.7351,44.7,27.0352,90.8855,40.7351,137.3709,40.7351,46.4616,0,94.2521-13.7022,142.1273-40.7352,44.7048,27.0348,90.8925,40.7352,137.3747,40.7352,46.4589,0,94.2482-13.7022,142.1232-40.7352,44.7053,27.0348,90.8951,40.7352,137.381,40.7352,46.4625,0,94.2535-13.7021,142.1288-40.7351,44.6994,27.0352,90.8853,40.7351,137.3708,40.7351,46.4617,0,94.252-13.7021,142.1272-40.7351,44.6995,27.0352,90.8853,40.7351,137.3706,40.7351,46.4617,0,94.252-13.7021,142.1272-40.7351,44.7,27.0352,90.8862,40.7351,137.3713,40.7351,46.4617,0,94.2522-13.7022,142.1272-40.7352,44.7054,27.0348,90.8948,40.7352,137.3794,40.7352,48.1546,0,97.73-14.7166,147.3487-43.7415l4.9509-2.8959v-224.445l-15.0483,8.8008c-46.5147,27.2038-92.6924,40.9971-137.2513,40.9971-44.4426,0-88.8112-13.7371-131.8733-40.8291l-5.1354-3.2308-5.2376,3.0625c-46.52,27.2041-92.7017,40.9974-137.26,40.9974-44.4426,0-88.8083-13.7367-131.8642-40.8287l-5.1358-3.2317-5.238,3.063c-46.5205,27.2041-92.7016,40.9974-137.2605,40.9974-44.4429,0-88.8083-13.7367-131.8635-40.8287l-5.136-3.2317-5.2378,3.063c-46.5205,27.2041-92.7017,40.9974-137.2605,40.9974-44.4429,0-88.8083-13.7367-131.8638-40.8287l-5.1358-3.2317-5.2379,3.063c-46.52,27.2041-92.7021,40.9974-137.2621,40.9974-44.4437,0-88.8129-13.7371-131.875-40.8291l-5.1354-3.2308-5.2375,3.0625c-46.52,27.2041-92.7,40.9974-137.2563,40.9974-44.44,0-88.8066-13.7371-131.8683-40.8291l-5.1358-3.2308-5.2376,3.0625c-46.52,27.2041-92.7016,40.9974-137.26,40.9974-44.4429,0-88.8084-13.7367-131.8638-40.8287l-5.1358-3.2317-5.2379,3.063c-46.52,27.2041-92.7017,40.9974-137.26,40.9974-44.4425,0-88.8083-13.7367-131.8641-40.8287l-5.1359-3.2317-5.2379,3.063c-46.52,27.2041-92.7016,40.9974-137.26,40.9974-44.4429,0-88.8083-13.7367-131.8637-40.8287l-5.1359-3.2317-5.2379,3.063c-46.52,27.2041-92.7021,40.9974-137.2621,40.9974-44.4437,0-88.8125-13.7371-131.8741-40.8291l-5.1359-3.2308-5.2375,3.0625c-46.52,27.2041-92.7,40.9974-137.2562,40.9974-44.44,0-88.8071-13.7371-131.8688-40.8291l-5.1358-3.2308-5.2375,3.0625c-46.52,27.2041-92.7017,40.9974-137.26,40.9974-44.4429,0-88.8083-13.7367-131.8638-40.8287L-358,1329.0981Z" style="fill:#fff"/><path d="M2734.7,1666.5059c-46.4238,0-92.5967-13.9727-137.291-41.54-47.97,27.5655-95.8057,41.54-142.2158,41.54-46.4239,0-92.5938-13.9717-137.2823-41.54-47.9707,27.5655-95.8056,41.54-142.2158,41.54-46.4248,0-92.5947-13.9717-137.2822-41.54-47.9707,27.5655-95.8057,41.54-142.2158,41.54-46.4248,0-92.5948-13.9717-137.2823-41.54-47.9707,27.5655-95.8056,41.54-142.2177,41.54-46.4248,0-92.5987-13.9727-137.292-41.54-47.97,27.5655-95.8037,41.54-142.2119,41.54-46.4209,0-92.5928-13.9727-137.2862-41.54-47.97,27.5655-95.8051,41.54-142.2153,41.54-46.4243,0-92.5947-13.9717-137.2827-41.54-47.97,27.5655-95.8052,41.54-142.2154,41.54-46.4243,0-92.5952-13.9717-137.2832-41.54-47.97,27.5655-95.8046,41.54-142.2153,41.54-46.4243,0-92.5942-13.9717-137.2827-41.54-47.97,27.5655-95.8052,41.54-142.2168,41.54-46.4253,0-92.5986-13.9727-137.292-41.54-47.97,27.5655-95.8037,41.54-142.2119,41.54-46.4214,0-92.5928-13.9727-137.2866-41.54-47.97,27.5655-95.8052,41.54-142.2158,41.54-47.3135,0-94.3672-14.5147-139.8531-43.1416L-482,1621.8936V1408.8027l7.6631,4.8223c43.8657,27.6016,89.1269,41.5967,134.5264,41.5967,45.4575,0,92.4882-14.0235,139.7841-41.6817l2.6192-1.5312,2.5678,1.6162c43.8716,27.6016,89.1348,41.5967,134.5313,41.5967,45.4551,0,92.4839-14.0235,139.78-41.6817l2.6191-1.5312,2.5674,1.6162c43.8716,27.6016,89.1367,41.5967,134.5371,41.5967,45.459,0,92.49-14.0235,139.7856-41.6817l2.62-1.5312,2.5678,1.6162c43.8658,27.6016,89.127,41.5967,134.5264,41.5967,45.458,0,92.4878-14.0235,139.7842-41.6817l2.6191-1.5312,2.5679,1.6162c43.8662,27.6016,89.1274,41.5967,134.5273,41.5967,45.4576,0,92.4878-14.0235,139.7842-41.6817l2.6192-1.5312,2.5678,1.6162c43.8658,27.6016,89.127,41.5967,134.5269,41.5967,45.457,0,92.4878-14.0235,139.7842-41.6817l2.6191-1.5312,2.5669,1.6162c43.8721,27.6016,89.1348,41.5967,134.5313,41.5967,45.455,0,92.4834-14.0235,139.78-41.6817l2.6192-1.5312,2.5674,1.6162c43.872,27.6016,89.1367,41.5967,134.5371,41.5967,45.459,0,92.49-14.0235,139.7861-41.6817l2.6191-1.5312,2.5684,1.6162c43.8652,27.6016,89.127,41.5967,134.5264,41.5967,45.457,0,92.4873-14.0235,139.7841-41.6817l2.6192-1.5312,2.5683,1.6162c43.8653,27.6016,89.127,41.5967,134.5264,41.5967,45.457,0,92.4873-14.0235,139.7842-41.6817l2.6191-1.5312,2.5684,1.6162c43.8652,27.6016,89.1269,41.5967,134.5264,41.5967,45.458,0,92.4882-14.0235,139.7841-41.6817l2.6192-1.5312,2.5683,1.6162c43.8711,27.6016,89.1358,41.5967,134.5352,41.5967,45.457,0,92.4844-14.0235,139.7754-41.6817l7.5244-4.4V1622.001l-2.4756,1.4472C2830.6816,1652.02,2781.9561,1666.5059,2734.7,1666.5059Z" style="fill:#2c52a0"/><path d="M2877,1417.8562v201.2762q-72.4383,42.3737-142.3,42.3735-69.8679,0-137.1982-42.3735-72.4474,42.3737-142.3086,42.3735-69.8679,0-137.19-42.3735-72.4469,42.3737-142.3084,42.3735-69.8679,0-137.1894-42.3735-72.4472,42.3737-142.3085,42.3735-69.8679,0-137.1895-42.3735-72.4471,42.3737-142.31,42.3735-69.87,0-137.2-42.3735-72.4471,42.3737-142.3041,42.3735-69.8656,0-137.1938-42.3735-72.4471,42.3737-142.3085,42.3735-69.8679,0-137.1894-42.3735-72.4472,42.3737-142.3086,42.3735-69.8679,0-137.19-42.3735-72.4471,42.3737-142.3084,42.3735-69.8679,0-137.1895-42.3735-72.4472,42.3737-142.31,42.3735-69.87,0-137.2-42.3735Q9.549,1661.5061-60.3081,1661.5059q-69.8658,0-137.194-42.3735-72.4471,42.3737-142.3085,42.3735-69.8679,0-137.1894-42.3735V1417.8562q67.3281,42.365,137.1894,42.365,69.8679,0,142.3085-42.365,67.337,42.365,137.194,42.365,69.866,0,142.3043-42.365,67.3369,42.365,137.2,42.365,69.87,0,142.31-42.365,67.3281,42.365,137.1895,42.365,69.8679,0,142.3084-42.365,67.3286,42.365,137.19,42.365,69.8681,0,142.3086-42.365,67.3281,42.365,137.1894,42.365,69.8679,0,142.3085-42.365,67.3368,42.365,137.1938,42.365,69.8658,0,142.3041-42.365,67.3372,42.365,137.2,42.365,69.87,0,142.31-42.365,67.3281,42.365,137.1895,42.365,69.8678,0,142.3085-42.365,67.3282,42.365,137.1894,42.365,69.8684,0,142.3084-42.365,67.3285,42.365,137.19,42.365,69.8679,0,142.3086-42.365,67.3371,42.365,137.1982,42.365,69.8681,0,142.3-42.365m-3364-18.1071v224.9054l4.6737,2.9413c46.2959,29.1366,94.2451,43.91,142.5159,43.91,46.4616,0,94.2521-13.7022,142.1273-40.7352,44.7048,27.0348,90.8926,40.7352,137.3752,40.7352,46.4588,0,94.2481-13.7022,142.1231-40.7352,44.705,27.0348,90.8948,40.7352,137.3806,40.7352,46.4625,0,94.2536-13.7021,142.1288-40.7351,44.7,27.0352,90.8854,40.7351,137.3708,40.7351,46.4616,0,94.252-13.7021,142.1271-40.7351,44.7,27.0352,90.8862,40.7351,137.3712,40.7351,46.4617,0,94.252-13.7021,142.1272-40.7351,44.6994,27.0352,90.8853,40.7351,137.3708,40.7351,46.4616,0,94.2521-13.7022,142.1273-40.7352,44.7048,27.0348,90.8925,40.7352,137.3747,40.7352,46.4589,0,94.2482-13.7022,142.1232-40.7352,44.7053,27.0348,90.8951,40.7352,137.381,40.7352,46.4625,0,94.2535-13.7021,142.1288-40.7351,44.6994,27.0352,90.8853,40.7351,137.3708,40.7351,46.4617,0,94.252-13.7021,142.1271-40.7351,44.7,27.0352,90.8854,40.7351,137.3707,40.7351,46.4617,0,94.252-13.7021,142.1272-40.7351,44.7,27.0352,90.8862,40.7351,137.3713,40.7351,46.4617,0,94.2522-13.7022,142.1272-40.7352,44.7054,27.0348,90.8948,40.7352,137.3794,40.7352,48.1546,0,97.73-14.7166,147.3487-43.7415l4.9509-2.8959v-224.445l-15.0483,8.8008c-46.5147,27.2038-92.6924,40.9971-137.2513,40.9971-44.4426,0-88.8112-13.7371-131.8733-40.8291l-5.1354-3.2308-5.2376,3.0625c-46.52,27.2041-92.7017,40.9974-137.26,40.9974-44.4426,0-88.8083-13.7367-131.8642-40.8287l-5.1358-3.2317-5.238,3.063c-46.5205,27.2041-92.7016,40.9974-137.2605,40.9974-44.4429,0-88.8083-13.7367-131.8636-40.8287l-5.1359-3.2317-5.2379,3.063c-46.52,27.2041-92.7017,40.9974-137.26,40.9974-44.4429,0-88.8083-13.7367-131.8638-40.8287l-5.1358-3.2317-5.2379,3.063c-46.52,27.2041-92.7021,40.9974-137.2621,40.9974-44.4437,0-88.8129-13.7371-131.875-40.8291l-5.1354-3.2308-5.2375,3.0625c-46.52,27.2041-92.7,40.9974-137.2563,40.9974-44.44,0-88.8066-13.7371-131.8683-40.8291l-5.1358-3.2308-5.2376,3.0625c-46.52,27.2041-92.7016,40.9974-137.26,40.9974-44.4429,0-88.8083-13.7367-131.8638-40.8287l-5.1358-3.2317-5.2379,3.063c-46.52,27.2041-92.7017,40.9974-137.26,40.9974-44.4425,0-88.8083-13.7367-131.8641-40.8287l-5.1359-3.2317-5.2379,3.063c-46.52,27.2041-92.7016,40.9974-137.26,40.9974-44.4429,0-88.8083-13.7367-131.8637-40.8287l-5.1359-3.2317-5.2379,3.063c-46.52,27.2041-92.7021,40.9974-137.2621,40.9974-44.4437,0-88.8125-13.7371-131.8741-40.8291l-5.1359-3.2308-5.2375,3.0625c-46.52,27.2041-92.7,40.9974-137.2562,40.9974-44.44,0-88.8071-13.7371-131.8688-40.8291l-5.1358-3.2308-5.2375,3.0625c-46.52,27.2041-92.7017,40.9974-137.26,40.9974-44.4429,0-88.8083-13.7367-131.8638-40.8287L-487,1399.7491Z" style="fill:#fff"/><path d="M2863.7,1737.1567c-46.4238,0-92.5967-13.9727-137.291-41.54-47.97,27.5645-95.8057,41.54-142.2158,41.54-46.4239,0-92.5938-13.9717-137.2823-41.54-47.9707,27.5655-95.8056,41.54-142.2158,41.54-46.4248,0-92.5947-13.9717-137.2822-41.54-47.9707,27.5655-95.8057,41.54-142.2158,41.54-46.4248,0-92.5948-13.9717-137.2823-41.54-47.9707,27.5655-95.8056,41.54-142.2177,41.54-46.4248,0-92.5987-13.9727-137.292-41.54-47.97,27.5645-95.8037,41.54-142.2119,41.54-46.4209,0-92.5928-13.9727-137.2862-41.54-47.97,27.5645-95.8056,41.54-142.2158,41.54-46.4238,0-92.5942-13.9717-137.2822-41.54-47.97,27.5655-95.8052,41.54-142.2154,41.54-46.4243,0-92.5952-13.9717-137.2832-41.54-47.97,27.5655-95.8046,41.54-142.2153,41.54-46.4243,0-92.5942-13.9717-137.2827-41.54-47.97,27.5655-95.8052,41.54-142.2168,41.54-46.4253,0-92.5986-13.9727-137.292-41.54-47.97,27.5645-95.8037,41.54-142.2119,41.54-46.4214,0-92.5928-13.9727-137.2866-41.54-47.97,27.5645-95.8052,41.54-142.2158,41.54-47.3135,0-94.3672-14.5147-139.8531-43.1416L-353,1692.5444V1479.4536l7.6631,4.8213c43.8657,27.6025,89.1269,41.5976,134.5264,41.5976,45.4575,0,92.4882-14.0234,139.7841-41.6816l2.6192-1.5313,2.5678,1.6153c43.8721,27.6025,89.1348,41.5976,134.5313,41.5976,45.4551,0,92.4839-14.0234,139.78-41.6816l2.6191-1.5313,2.5674,1.6153c43.8716,27.6025,89.1367,41.5976,134.5371,41.5976,45.459,0,92.49-14.0234,139.7856-41.6816l2.62-1.5313,2.5678,1.6153c43.8658,27.6025,89.127,41.5976,134.5264,41.5976,45.458,0,92.4878-14.0234,139.7842-41.6816l2.6191-1.5313,2.5679,1.6153c43.8662,27.6025,89.1274,41.5976,134.5273,41.5976,45.4576,0,92.4878-14.0234,139.7842-41.6816l2.6192-1.5313,2.5678,1.6153c43.8658,27.6025,89.1265,41.5976,134.5264,41.5976,45.457,0,92.4873-14.0234,139.7842-41.6816l2.6191-1.5313,2.5674,1.6153c43.8721,27.6025,89.1348,41.5976,134.5313,41.5976,45.455,0,92.4834-14.0234,139.78-41.6816l2.6192-1.5313,2.5674,1.6153c43.872,27.6025,89.1367,41.5976,134.5371,41.5976,45.459,0,92.49-14.0234,139.7861-41.6816l2.6191-1.5313,2.5684,1.6153c43.8652,27.6025,89.127,41.5976,134.5264,41.5976,45.457,0,92.4873-14.0234,139.7841-41.6816l2.6192-1.5313,2.5683,1.6153c43.8653,27.6025,89.127,41.5976,134.5264,41.5976,45.457,0,92.4873-14.0234,139.7842-41.6816l2.6191-1.5313,2.5684,1.6153c43.8662,27.6025,89.1269,41.5976,134.5264,41.5976,45.458,0,92.4882-14.0234,139.7841-41.6816l2.6192-1.5313,2.5683,1.6153c43.8721,27.6025,89.1358,41.5976,134.5352,41.5976,45.457,0,92.4844-14.0234,139.7754-41.6816l7.5244-4.4v212.8613l-2.4756,1.4473C2959.6816,1722.67,2910.9561,1737.1567,2863.7,1737.1567Z" style="fill:#2c52a0"/><path d="M3006,1488.5073v201.2762q-72.4383,42.3735-142.3,42.3734-69.8679,0-137.1982-42.3734-72.4474,42.3735-142.3086,42.3734-69.8679,0-137.19-42.3734-72.4469,42.3735-142.3084,42.3734-69.8679,0-137.1894-42.3734-72.4471,42.3735-142.3085,42.3734-69.8679,0-137.1895-42.3734-72.4471,42.3735-142.31,42.3734-69.87,0-137.2-42.3734-72.4471,42.3735-142.3041,42.3734-69.8656,0-137.1938-42.3734-72.4471,42.3735-142.3085,42.3734-69.8679,0-137.1894-42.3734-72.4471,42.3735-142.3086,42.3734-69.8679,0-137.19-42.3734-72.4471,42.3735-142.3084,42.3734-69.8681,0-137.1895-42.3734-72.4472,42.3735-142.31,42.3734-69.87,0-137.2-42.3734-72.4471,42.3735-142.3043,42.3734-69.8658,0-137.194-42.3734-72.4472,42.3735-142.3085,42.3734-69.8679,0-137.1894-42.3734V1488.5073q67.3281,42.365,137.1894,42.365,69.8679,0,142.3085-42.365,67.337,42.365,137.194,42.365,69.866,0,142.3043-42.365,67.337,42.365,137.2,42.365,69.87,0,142.31-42.365,67.3281,42.365,137.1895,42.365,69.8679,0,142.3084-42.365,67.3286,42.365,137.19,42.365,69.8681,0,142.3086-42.365,67.3281,42.365,137.1894,42.365,69.8679,0,142.3085-42.365,67.3368,42.365,137.1938,42.365,69.8658,0,142.3041-42.365,67.3372,42.365,137.2,42.365,69.87,0,142.31-42.365,67.3281,42.365,137.1895,42.365,69.8678,0,142.3085-42.365,67.3282,42.365,137.1894,42.365,69.8684,0,142.3084-42.365,67.3285,42.365,137.19,42.365,69.8679,0,142.3086-42.365,67.3371,42.365,137.1982,42.365,69.8681,0,142.3-42.365M-358,1470.4v224.9054l4.6737,2.9413c46.2959,29.1366,94.2451,43.91,142.5159,43.91,46.4616,0,94.2521-13.7023,142.1273-40.7352,44.7048,27.0348,90.8926,40.7352,137.3752,40.7352,46.4588,0,94.2481-13.7023,142.1231-40.7352,44.705,27.0348,90.8948,40.7352,137.3806,40.7352,46.4625,0,94.2536-13.7021,142.1288-40.7351,44.7,27.0352,90.8854,40.7351,137.3708,40.7351,46.4616,0,94.252-13.7021,142.1271-40.7351,44.7,27.0352,90.8862,40.7351,137.3712,40.7351,46.4617,0,94.252-13.7021,142.1271-40.7351,44.7,27.0352,90.8855,40.7351,137.3709,40.7351,46.4616,0,94.2521-13.7023,142.1273-40.7352,44.7048,27.0348,90.8925,40.7352,137.3747,40.7352,46.4589,0,94.2482-13.7023,142.1232-40.7352,44.7053,27.0348,90.8951,40.7352,137.381,40.7352,46.4625,0,94.2535-13.7021,142.1288-40.7351,44.6994,27.0352,90.8853,40.7351,137.3708,40.7351,46.4617,0,94.252-13.7021,142.1272-40.7351,44.6995,27.0352,90.8853,40.7351,137.3706,40.7351,46.4617,0,94.252-13.7021,142.1272-40.7351,44.7,27.0352,90.8862,40.7351,137.3713,40.7351,46.4617,0,94.2522-13.7023,142.1272-40.7352,44.7054,27.0348,90.8948,40.7352,137.3794,40.7352,48.1546,0,97.73-14.7167,147.3487-43.7416l4.9509-2.8958v-224.445l-15.0483,8.8008c-46.5147,27.2037-92.6924,40.9971-137.2513,40.9971-44.4426,0-88.8112-13.7371-131.8733-40.8291l-5.1354-3.2309-5.2376,3.0625c-46.52,27.2041-92.7017,40.9975-137.26,40.9975-44.4426,0-88.8083-13.7367-131.8642-40.8288l-5.1358-3.2317-5.238,3.063c-46.5205,27.2041-92.7016,40.9975-137.2605,40.9975-44.4429,0-88.8083-13.7367-131.8635-40.8288l-5.136-3.2317-5.2378,3.063c-46.5205,27.2041-92.7017,40.9975-137.2605,40.9975-44.4429,0-88.8083-13.7367-131.8638-40.8288l-5.1358-3.2317-5.2379,3.063c-46.52,27.2041-92.7021,40.9975-137.2621,40.9975-44.4437,0-88.8129-13.7371-131.875-40.8291l-5.1354-3.2309-5.2375,3.0625c-46.52,27.2041-92.7,40.9975-137.2563,40.9975-44.44,0-88.8066-13.7371-131.8683-40.8291l-5.1358-3.2309-5.2376,3.0625c-46.52,27.2041-92.7016,40.9975-137.26,40.9975-44.4429,0-88.8084-13.7367-131.8638-40.8288l-5.1358-3.2317-5.2379,3.063c-46.52,27.2041-92.7017,40.9975-137.26,40.9975-44.4425,0-88.8083-13.7367-131.8641-40.8288l-5.1359-3.2317-5.2379,3.063c-46.52,27.2041-92.7016,40.9975-137.26,40.9975-44.4429,0-88.8083-13.7367-131.8637-40.8288l-5.1359-3.2317-5.2379,3.063c-46.52,27.2041-92.7021,40.9975-137.2621,40.9975-44.4437,0-88.8125-13.7371-131.8741-40.8291l-5.1359-3.2309-5.2375,3.0625c-46.52,27.2041-92.7,40.9975-137.2562,40.9975-44.44,0-88.8071-13.7371-131.8688-40.8291l-5.1358-3.2309-5.2375,3.0625c-46.52,27.2041-92.7017,40.9975-137.26,40.9975-44.4429,0-88.8083-13.7367-131.8638-40.8288L-358,1470.4Z" style="fill:#fff"/></svg>