<?xml version="1.0" encoding="UTF-8" standalone="no"?>
<svg xmlns="http://www.w3.org/2000/svg" xmlns:xlink="http://www.w3.org/1999/xlink" height="400" width="600">
  <rect height="400" width="600" y="0" x="0" fill="#fff215"/>
  <g transform="matrix(.50296739 0 0 .50296739 142.42594 5)" stroke="#000" stroke-width="2.5" stroke-linejoin="round" stroke-linecap="round" id="a">
    <g fill="#2b5df2">
      <path d="m313.33405 313.24625c-0.75762-0.40817 10.7943-7.44309 8.58992-10.55333-12.16617-10.39001-23.67807-16.2001-30.67828 9.57162 9.98637-9.29258 15.90779-3.68033 22.08836 0.98171z"/>
      <path d="m306.95297 356.44127c1.62772 1.90509-2.46627-25.39753-10.79875-17.17984-15.35049 9.45616-14.82152 19.66849-2.69969 30.43286 2.35434-16.00145 7.95601-14.46727 13.49844-13.25302z"/>
      <path d="m353.09311 369.44886c1.21468-2.8024-4.3521-5.08562-9.77072-5.37324-5.41861-0.28762-10.68905 1.42036-8.88168 6.60037 3.87562 10.7744 8.42062 15.31111 11.28941 17.7613 2.19816-1.59389 6.43222-8.37174 7.36299-18.98843z"/>
      <path d="m382.29884 354.72328c0.64988-7.0093-20.03903-0.24872-15.70729 2.20884s7.32575 5.9853 1.96341 16.19813c17.29878-3.30955 13.094-11.39767 13.74388-18.40697z"/>
      <path d="m44.765834 97.91809c1.02794 2.82027-1.805847 3.33312-11.217718 5.24327-4.701791-5.93998-6.658888-13.95789-17.945893-15.70728 15.228307-10.81399 28.245921-6.80662 29.163611 10.46401z"/>
      <path d="m80.915384 115.18725c0.0346 6.18612-11.61421-7.01465-12.14499-10.28324 7.6374-1.40358 13.8019-9.66382 7.30324-18.32275 19.4262 6.0851 13.91607 26.57941 4.84175 28.60599z"/>
      <path d="m23.240213 148.81065c8.911727 1.74532 4.796749-21.62748-7.853641-19.6341s-17.446679 11.84085-11.78046 32.15084c3.685698-11.31975 10.722374-14.26206 19.634101-12.51674z"/>
      <path d="m49.746254 190.04226c-0.45679-12.48686-15.083649-24.71991-15.952712-16.19813-4.110353 4.87533-7.406902 12.08871-19.634101 3.92682 0.203564 26.90095 29.110073 16.95795 35.586813 12.27131z"/>
      <path d="m23.48564 318.15477c-14.068258 9.79564-15.988287 27.9232 1.717983 33.86882-3.656353-11.4172-0.430811-18.85014 8.344493-23.07007"/>
      <path d="m60.299584 338.77057c-7.07117 19.96245 0.52691 30.67689 23.56092 31.65999-8.94551-7.87535-9.5191-16.58789-5.39938-25.76976"/>
      <path d="m121.41072 326.99011c5.78036 17.18528-2.4984 23.4357-14.23473 26.99689 5.02827-9.91403 3.78926-17.32115-0.9817-23.31549"/>
      <path d="m61.526714 265.14269c-14.28086-15.27362-31.367983-13.02845-36.813943 4.41768 13.158944-3.96515 16.863619-0.96399 17.670691 4.17224"/>
      <path d="m521.75032 331.03425c-11.20181 8.89818-18.86444 18.77946-5.37982 34.53498 0.87722-11.71231 6.70182-19.4667 16.83363-23.77534"/>
      <path d="m549.69067 351.85936c-10.15218 9.77442-12.02803 19.03157 0 27.41973 2.58615-6.53571 1.41596-14.80512 15.27175-16.13946"/>
      <path d="m590.64672 358.45398c9.86692 4.06308 11.57179 12.61529 12.32152 21.69282 15.6563-7.73252 11.17982-19.81808 10.5861-31.06412"/>
      <path d="m604.87721 316.28314c8.44568-2.40843 15.20067-0.97437 18.56906 8.1565 6.17523-16.48938-3.58561-22.23924-18.56906-24.46951"/>
      <path d="m187.50906 100.62698c-34.21853 5.84558-55.45861 42.57462-90.638999 19.94494 23.857219 37.61712 54.440159-4.83807 94.406259-6.92263l-3.76726-13.02231z" fill-rule="evenodd"/>
    </g>
    <g fill="#e20909">
      <path d="m467.94482 188.60315c-0.4093-2.55135 127.48978 34.13691 141.08743-39.19031 8.84329-47.68873-45.944-72.679937-64.60497-77.589669-23.51675-3.470177-54.78789 6.486281-54.78789 6.486281-15.59919 0.518905-25.14096-11.042765-34.24477-23.477898 2.75221 10.749473 0.90775 21.057123 13.92348 32.793083 0 0-10.91461 0.454537-21.73058-3.713263-10.81597-4.167801-16.13595-16.967261-16.13595-16.967261 4.16902 14.636588 9.1004 27.195178 17.47478 30.369179-26.0249-0.598182-45.98433-16.618949-64.13492-37.239054 7.8763 19.392495 17.76611 37.055806 35.4075 48.062192-46.88321 0.9478-61.54969-38.370239-89.01537-83.701807-16.18863-26.719013-38.75586-28.207038-48.16809-15.276017-13.62518 18.719005-6.69073 40.87983-1.23285 57.779094 0 0-18.08001 11.789262-5.18592 23.386457 14.95389 13.449836 21.96841 23.273616 42.20698 22.272956-3.65272 1.79619-15.36703-24.333141-12.16195-42.129358 2.58026-14.326778-16.40364-7.349141-16.40364-7.349141-9.74719-30.942578-1.32579-73.117858 30.45365-30.221408 34.74223 51.521119 38.56922 92.579897 110.42182 85.033447 40.80926-4.28607 77.82776-40.692255 102.95939-35.298511 17.23083-1.777009 80.39575 32.611351 63.42737 66.589191-39.44514 78.98574-174.18593-4.59552-175.77308 10.98523l46.21758 28.3966z" fill-rule="evenodd"/>
      <path d="m435.84296 236.22258-32.14285-42.85715-6.42857 10.35715c-18.41304 15.91577-38.87443 22.98335-59.3796 51.17602-8.83651 6.41268-11.7209 2.67619-18.60049 6.886-8.91516 5.45543-7.49182 13.31618-7.59194 23.00809 4.57204-16.17553 20.6456-21.58356 36.1271-19.94336 1.95665 6.38804 5.95206 13.73122 12.65922 22.2661 4.76165 6.04904 10.44407 16.40837-12.85715 31.25-2.60471 0.78474-7.15805 2.25614-13.57143 0.71429-2.00015-5.00961-2.1483-8.90802-1.78572-12.5-3.05265-16.93319-29.0016-2.66698-20 12.5 11.4183 9.78381 7.94421 12.57731-3.92857 11.42857-6.00088 1.082-12.02965 2.19749-20.35714 6.07143-0.10335 2.00811-0.11963 3.92915 0.71429 5 12.97488-1.52353 14.37938 13.75084 14.28571 17.14286 1.74289 0.39996 3.40726 0.87845 6.07143 0.35714 13.23136-8.99018 14.57348-8.50935 18.06588-8.22434 5.23554 1.90129-2.32957 19.98369 8.00555 25.72434 6.51891-13.55591 17.54366-5.64361 19.12222-0.40743 2.65088-3.86321 2.49326-10.13371 1.94921-16.73543 1.91311-14.65821 8.57849-6.53439 11.42857-0.35714 6.71022-8.80211 10.28581-5.58871 14.76611 1.07143 3.1934 0.45531 3.53444-0.0328 4.87674-1.42857l1.78572-10.35715c0.57535-13.898 10.38596-13.91674 12.52012-1.62222 1.70731-1.84633 3.92826-2.89389 3.95465-4.80711 0.25861-18.7509 1.39524-14.36221 9.7702-2.18233 4.04761-38.30747 7.27233-12.42914 10.89789-17.81691 3.97634-9.56728-10.24415-22.815 11.78571-20.35714-3.53829-5.32662-12.31069-6.07338-9.28571-17.14286 1.13447-7.07384-5.42714-10.1164-13.92857-12.14286-17.70807-6.30541-7.33355-11.9641-3.21429-16.42857l15.3672-9.97988 8.91851-9.66297z"/>
      <path d="m144.25872 257.50775 16.66752-58.33631-10.35407-11.86929c-21.13284-8.55375-44.52842-22.76434-69.700526-41.41626-15.86894-9.44638-4.05589-21.34589 3.53554-22.22335 2.14617-2.81306 0.86466-5.86069-1.01016-9.34391-5.14984-5.56087-8.14735-8.49158-10.6066-9.34391-3.08273-0.98277-6.98103-4.48649-5.55584 6.06091 1.09971 7.45973-6.89227 23.51236-15.65736 6.81853-0.83949-5.72189-0.90926-11.93676-0.50508-16.41498-1.45262-2.75635-1.06913-7.34881-5.55584-7.07107-7.138212 2.56871-12.390248 3.9965-16.162437 4.54569-1.474181 6.68715-3.057432 12.625 9.091373 14.14214 0.724107 4.75748 2.268028 10.21765-1.515229 11.11167-9.149134-0.6956-20.961633-7.91871-26.769043 7.07107 16.438582 2.3225 14.949058 13.70795 9.091373 17.67767 1.515231 4.8824 4.377326 6.06092 8.586297 3.53554 12.794228-6.07142 13.327832-3.19833 16.162436-1.51523 2.09085 8.46963 0.84713 14.87499-11.111673 14.64721-2.841215 1.04643-4.006426 5.37952-2.272844 10.35407 13.728947 3.13011 13.868197 7.69222 15.152287 14.39467 6.59858 2.98202 6.93232 8.3899 7.32361-8.33376 1.70884-8.83507 11.22452-0.47432 7.32361 5.05076 7.44937 4.35143 11.94019 0.29185 3.53553 10.35406 2.42225 3.84315 25.14683 1.3512 7.57615 11.61676 7.82426 3.11629 26.39026 2.20443 9.3439 14.64721 3.87126 4.13064 31.737416 2.39587 8.5863 13.13198 36.038436 5.30615 22.755596 9.11771 16.162436 13.13199l23.73858 6.56599 14.89976 1.01015z"/>
      <path d="m224.99761 291.86808c17.20572-16.07132 16.41-3.24211 17.86978 3.58995 21.23787-36.13895 12.32489-23.49916 19.26323-18.22197 16.25807-31.02434 11.56155-12.704 14.92466-13.36278 12.56631-27.64025 12.98276-18.19146 17.5278-21.34574 20.61284-24.29654 62.79099-31.03992 102.56366-39.74125 23.71805 6.91435 25.56388 45.28246 36.35854 62.81245 4.45199 1.42166 16.55067 6.07015 21.15278 21.78518 3.68875-15.71721-10.56696-24.30061-5.8517-22.89018 4.71526 1.41044 28.66848 9.58923 33.46639 10.4742 19.19881 3.54121 38.79933 4.61758 57.69953 9.73045 4.64455 6.48704 9.76273 12.65833 15.79238 18.22197-0.90748 4.68204 0.18694 8.96369 1.56188 13.18924-8.44894 2.20487-13.95478-1.72172-27.41973 10.93318l-9.02421 0.86771c-5.87517-0.46981-5.75684 2.2334-3.81794 5.90045 3.08912-1.08883 8.4857 3.87943 15.27175 12.49506 21.89275-13.51165 22.97567-8.95622 25.6843-6.76816-9.55974 6.43343-14.44386 4.45006-11.45381 15.27175 8.86935-1.75748 12.36736 6.15346 16.83363 12.32152 4.22894 0.32971 8.72279 2.42546 11.62735-6.07399 2.37302-11.07859 11.92282-7.56894 13.53633 2.4296 18.63024-15.48797 20.92147-10.8245 26.37847-10.06547 5.27587-5.53257 2.64701-9.4842-1.2148-13.18924-27.27365-12.20982-8.0791-19.61325-3.12377-20.8251-6.15894-3.77297-6.10327-12.02046-0.69417-24.12242-3.9893-0.17472-6.76686-1.00191-16.48654 1.90897-14.08408-6.39939-2.20181-7.33217-0.52063-10.41256-23.58097-17.18513-0.96625-9.17262-1.04126-13.53632-26.29674-16.70173-3.44855-10.69458-3.2973-15.27175-4.08638-5.45797-21.22613 6.86282-13.36278-14.40403-10.48692 1.32595-22.91142 5.402-19.61031-12.84215-10.49067 5.05577-37.18511 14.39304-69.41704-24.4695-13.36278-18.22197-48.43863-49.29155-73.4085-48.41838-41.487 4.93595-62.00065-1.42145-130.15694 17.87488l-107.94348 3.99148-25.85784 2.25606c0.56019 47.98845-11.04851 72.02238-26.95363 83.6353-0.7852 0.5733-11.11751 5.29442-11.93089 5.79549-15.852426 9.76564-29.886746 19.49062-36.432956 17.47143-7.44165-1.0361-9.44319-4.52025-7.63588-9.71838 0.86602-4.56962 1.41875-9.07658 0-13.18924-1.23035-1.96961-0.91559-5.09806-5.55336-4.5121-4.43336 8.8735-11.77106 11.35747-20.825107 10.06546-2.256006 0.99016-3.682882 4.27384-1.735426 7.98296 13.498373 8.25782 10.702003 9.68432 11.800893 21.1722-7.633407 2.10145-15.247678 4.21173-17.00717 9.02421-4.196206-0.39386-8.496751-0.94423-11.800896 0-1.65137 3.80113-2.395478 7.4208-1.735425 10.75964 14.794713 5.82094 10.356669 8.43642 12.495065 12.14798 8.330582-1.84951 15.062306-8.49557 22.560536-12.84215 11.73863-4.39479 10.98596 4.93635 8.33004 9.71839-2.66099 0.47606-5.32197 4.17012-7.98296 7.28878-1.60635 3.68886-1.0045 5.16953-0.34708 6.59462 21.03407-1.98567 18.33408 3.28073 24.29596 5.90045 10.12707 2.07404 5.25221-4.03479 6.24753-6.9417-2.47471-9.23326 1.78145-9.7164 3.47085-13.53633 3.15493-2.63592 8.59062-6.27912 8.33005 3.81794 1.69091 8.65174 6.608156 7.16359 11.453806 5.90045-1.5208-10.18835 3.61353-11.78049 13.18923-7.63587 1.87098-0.9696 3.32997-2.62584 3.81794-5.90045-5.77402-12.78289 8.11457-15.52663 15.61883-9.3713l-1.04125 12.49506c7.38891-12.27567 13.77825-17.75249 18.39551-19.08968-1.50686 7.39118-1.72941 13.31459 0 17.00717 10.55266-18.71233 16.0787-19.83151 21.17219-19.43676-0.79931 6.68393-0.40849 10.39253-0.34708 14.92466 6.78446-5.37749 10.62994-11.17484 14.23049-17.00718 7.73783-5.39017 8.62279 0.76132 7.63587 10.06547 2.08364 0.41937 4.94757-2.22794 9.71839-7.63587 5.46993-11.57114 9.33486-11.87661 14.23049-10.06547 0.49456-7.09746 2.72659-17.66549-0.34709-20.82511 1.2189-1.53301 5.28325 0.91762 8.67713 2.4296 1.03838-6.52866-0.16661-15.74935-1.38834-24.99013 3.65492 0.0473 5.63931 1.76517 7.98296 3.12376-0.91475-8.67821-1.88958-17.13609-4.16502-20.82511"/>
      <path d="m405.91623 207.58949c-3.29464-2.6058-1.55526-1.65728-8.46289-4.02395-11.14255 3.42848-25.26348 8.65398-37.26315 15.51093 21.42798-5.2987 30.29789-9.77274 45.72604-11.48698z"/>
      <path d="m149.06652 141.31165c-0.0415-4.17056-1.2528-6.91652-0.0799-12.566 3.57626 5.00913 8.95274 6.61228 13.5805 9.63204"/>
      <path d="m133.49347 106.24679c1.14455 5.03247 4.59958 8.51567 9.85601 10.79099-3.15455-6.14356 1.56239-10.45074 4.19821-15.24344"/>
      <path d="m171.11014 230.54697-2.01616 15.11877 11.35113-8.75853c-15.30059 35.11632 7.17919 38.12002 30.81449 40.14153-8.8042-18.16255 11.36867-32.80745 16.70099-53.26394-5.34952 20.17769-0.30779 31.51555 30.97142 20.53325-32.25783-7.06124 1.0405-25.28959-12.13281-47.69683 6.82684 12.56097 17.31551 5.52939 26.64588 4.69543-29.81884-8.65981-14.20696-28.45457-13.2401-44.65987l-13.97726-27.72184c6.87949 17.97931 18.05113 10.71108 28.36008 8.51737-21.12322-4.25918-7.02824-32.25837-32.67379-44.630987 9.32956 3.707958 18.79006 8.895137 27.3446 3.844507-20.2946-2.533898-14.0167-23.146895-32.56722-27.876286 10.46344 0.570459 16.76843-3.082819 24.4698-5.317804-8.86129-1.47012-16.90095 0.840729-26.79096-5.362989l-15.43981-14.121548-38.09618-0.459366c-9.45176 2.740221-18.45181 6.38849-25.82724 13.302652-6.86807 3.795389-15.66899 6.644388-15.04898 14.106179-14.64891 2.9831-42.317839 19.293611-20.94216 17.484082 0.99376 15.28036 4.79373 19.45694 13.00764 19.19409 18.43659 3.04019 22.31283-10.359548 35.82091-14.076328 30.39489 7.985948 18.40368 27.803308 9.59402 36.014688-9.57545 8.9252-27.21876 4.86657-27.21876 4.86657-5.53248 8.42612-4.79817 13.16008 2.20277 14.2019 8.59926 7.01406 11.08688 0.40198 15.47826-1.96559 30.16625-0.65486 25.54217-15.83179 36.17622-24.63971-7.89604 12.71637 4.14159 28.73561-28.21204 36.89046-16.70732 4.2188-15.04679-2.14786-30.82486 2.50443-15.77803 4.65231-19.7429 15.14855-32.28735 16.10473-11.21346 0.85479-26.711281 2.13485-16.336876-22.31544-22.275484 23.27656 1.882924 42.69517 31.750066 32.24834-26.8372 9.68172-43.484968 22.16434-67.120948 8.29511 33.059262 39.19803 48.119468 11.21434 83.767228 7.31195-35.32335 6.0864-30.26556 34.85328-68.721144 33.46006 11.085848 14.02147 22.936475 11.06185 38.485524 6.31693-5.70004 5.74473-10.2146 18.56117-22.557178 18.18461 7.125411 10.2568 25.908878 5.10579 42.110838 0.63552 18.43407-5.08617 27.34924-18.73987 36.97996-31.1061z"/>
      <path d="m196.33324 55.888812c-3.552-14.087017 9.49486-17.169436 18.93779-22.64112-0.25585 9.363826 1.97329 21.251652-3.85474 24.955885"/>
      <path d="m141.91894 71.977557c5.12269 5.362914 8.09658 0.837958 11.54146-1.51954 8.19206-11.45352 15.38842-4.544246 22.79399-1.493361"/>
      <path d="m148.55156 75.265846c4.51697 2.096581 7.16299 2.771471 10.86106 1.099887 6.0407-2.515943 7.52351-6.370832 10.46436-6.475843-0.54144-2.485359-1.33078-4.828594-5.5101-5.228732-9.29966 3.109307-8.50571 6.31007-15.81532 10.604688z"/>
    </g>
  </g>
  <use xlink:href="#a" x="0" y="194"/>
</svg>
