<?xml version="1.0" encoding="UTF-8" standalone="no"?>
<svg
   xmlns:dc="http://purl.org/dc/elements/1.1/"
   xmlns:cc="http://creativecommons.org/ns#"
   xmlns:rdf="http://www.w3.org/1999/02/22-rdf-syntax-ns#"
   xmlns:svg="http://www.w3.org/2000/svg"
   xmlns="http://www.w3.org/2000/svg"
   xmlns:xlink="http://www.w3.org/1999/xlink"
   xmlns:sodipodi="http://sodipodi.sourceforge.net/DTD/sodipodi-0.dtd"
   xmlns:inkscape="http://www.inkscape.org/namespaces/inkscape"
   version="1.1"
   id="Calque_1"
   x="0px"
   y="0px"
   width="1200"
   height="800"
   viewBox="0 0 1200 800"
   enable-background="new 0 0 500 300"
   xml:space="preserve"
   inkscape:version="1.0.1 (c497b03c, 2020-09-10)"
   sodipodi:docname="Drapeau fr deÌpartement Val-d'Oise.svg"><sodipodi:namedview
     pagecolor="#ffffff"
     bordercolor="#666666"
     borderopacity="1"
     objecttolerance="10"
     gridtolerance="10"
     guidetolerance="10"
     inkscape:pageopacity="0"
     inkscape:pageshadow="2"
     inkscape:window-width="1920"
     inkscape:window-height="942"
     id="namedview4354"
     showgrid="false"
     inkscape:zoom="0.52083334"
     inkscape:cx="401.412"
     inkscape:cy="531.09438"
     inkscape:window-x="0"
     inkscape:window-y="25"
     inkscape:window-maximized="1"
     inkscape:current-layer="Calque_1"
     inkscape:document-rotation="0" /><metadata
     id="metadata5397"><rdf:RDF><cc:Work
         rdf:about=""><dc:format>image/svg+xml</dc:format><dc:type
           rdf:resource="http://purl.org/dc/dcmitype/StillImage" /><dc:title /></cc:Work></rdf:RDF></metadata><defs
     id="defs5395"><g
       id="c"><path
         id="b"
         d="M 0,0 V 1 H 0.5 Z"
         transform="rotate(17.99991,3.15688,-0.5)" /><use
         width="810"
         height="540"
         transform="scale(-1,1)"
         xlink:href="#b"
         id="use2143"
         x="0"
         y="0" /></g><g
       id="f"><path
         id="e"
         d="M 0,0 V 1 H 0.5 Z"
         transform="rotate(17.99991,3.15688,-0.5)" /><use
         width="810"
         height="540"
         transform="scale(-1,1)"
         xlink:href="#e"
         id="use2152"
         x="0"
         y="0" /></g><g
       id="i"><path
         id="h"
         d="M 0,0 V 1 H 0.5 Z"
         transform="rotate(17.99991,3.15688,-0.5)" /><use
         width="810"
         height="540"
         transform="scale(-1,1)"
         xlink:href="#h"
         id="use2161"
         x="0"
         y="0" /></g><g
       id="l"><path
         id="k"
         d="M 0,0 V 1 H 0.5 Z"
         transform="rotate(17.99991,3.15688,-0.5)" /><use
         width="810"
         height="540"
         transform="scale(-1,1)"
         xlink:href="#k"
         id="use2170"
         x="0"
         y="0" /></g><g
       id="o"><path
         id="n"
         d="M 0,0 V 1 H 0.5 Z"
         transform="rotate(18,3.15688,-0.5)" /><use
         width="810"
         height="540"
         transform="scale(-1,1)"
         xlink:href="#n"
         id="use2179"
         x="0"
         y="0" /></g><g
       id="r"><path
         id="q"
         d="M 0,0 V 1 H 0.5 Z"
         transform="rotate(18,3.15688,-0.5)" /><use
         width="810"
         height="540"
         transform="scale(-1,1)"
         xlink:href="#q"
         id="use2188"
         x="0"
         y="0" /></g><g
       id="v"><path
         id="u"
         d="M 0,0 V 1 H 0.5 Z"
         transform="rotate(18,3.15688,-0.5)" /><use
         width="810"
         height="540"
         transform="scale(-1,1)"
         xlink:href="#u"
         id="use2198"
         x="0"
         y="0" /></g><g
       id="y"><path
         id="x"
         d="M 0,0 V 1 H 0.5 Z"
         transform="rotate(18,3.15688,-0.5)" /><use
         width="810"
         height="540"
         transform="scale(-1,1)"
         xlink:href="#x"
         id="use2207"
         x="0"
         y="0" /></g><g
       id="B"><path
         id="A"
         d="M 0,0 V 1 H 0.5 Z"
         transform="rotate(18,3.15688,-0.5)" /><use
         width="810"
         height="540"
         transform="scale(-1,1)"
         xlink:href="#A"
         id="use2216"
         x="0"
         y="0" /></g><g
       id="F"><path
         id="E"
         d="M 0,0 V 1 H 0.5 Z"
         transform="rotate(18,3.15688,-0.5)" /><use
         width="810"
         height="540"
         transform="scale(-1,1)"
         xlink:href="#E"
         id="use2226"
         x="0"
         y="0" /></g><g
       id="I"><path
         id="H"
         d="M 0,0 V 1 H 0.5 Z"
         transform="rotate(18,3.15688,-0.5)" /><use
         width="810"
         height="540"
         transform="scale(-1,1)"
         xlink:href="#H"
         id="use2235"
         x="0"
         y="0" /></g><g
       id="L"><path
         id="K"
         d="M 0,0 V 1 H 0.5 Z"
         transform="rotate(18,3.15688,-0.5)" /><use
         width="810"
         height="540"
         transform="scale(-1,1)"
         xlink:href="#K"
         id="use2244"
         x="0"
         y="0" /></g><g
       id="P"><path
         id="O"
         d="M 0,0 V 1 H 0.5 Z"
         transform="rotate(18,3.15688,-0.5)" /><use
         width="810"
         height="540"
         transform="scale(-1,1)"
         xlink:href="#O"
         id="use2254"
         x="0"
         y="0" /></g><g
       id="S"><path
         id="R"
         d="M 0,0 V 1 H 0.5 Z"
         transform="rotate(18,3.15688,-0.5)" /><use
         width="810"
         height="540"
         transform="scale(-1,1)"
         xlink:href="#R"
         id="use2263"
         x="0"
         y="0" /></g><g
       id="W"><path
         id="V"
         d="M 0,0 V 1 H 0.5 Z"
         transform="rotate(18,3.15688,-0.5)" /><use
         width="810"
         height="540"
         transform="scale(-1,1)"
         xlink:href="#V"
         id="use2273"
         x="0"
         y="0" /></g><g
       id="Z"><path
         id="Y"
         d="M 0,0 V 1 H 0.5 Z"
         transform="rotate(18,3.15688,-0.5)" /><use
         width="810"
         height="540"
         transform="scale(-1,1)"
         xlink:href="#Y"
         id="use2282"
         x="0"
         y="0" /></g><g
       id="ac"><path
         id="ab"
         d="M 0,0 V 1 H 0.5 Z"
         transform="rotate(18,3.15688,-0.5)" /><use
         width="810"
         height="540"
         transform="scale(-1,1)"
         xlink:href="#ab"
         id="use2291"
         x="0"
         y="0" /></g><g
       id="ag"><path
         id="af"
         d="M 0,0 V 1 H 0.5 Z"
         transform="rotate(18,3.15688,-0.5)" /><use
         width="810"
         height="540"
         transform="scale(-1,1)"
         xlink:href="#af"
         id="use2301"
         x="0"
         y="0" /></g><g
       id="aj"><path
         id="ai"
         d="M 0,0 V 1 H 0.5 Z"
         transform="rotate(18,3.15688,-0.5)" /><use
         width="810"
         height="540"
         transform="scale(-1,1)"
         xlink:href="#ai"
         id="use2310"
         x="0"
         y="0" /></g><g
       id="an"><path
         id="am"
         d="M 0,0 V 1 H 0.5 Z"
         transform="rotate(18,3.15688,-0.5)" /><use
         width="810"
         height="540"
         transform="scale(-1,1)"
         xlink:href="#am"
         id="use2320"
         x="0"
         y="0" /></g><g
       id="aq"><path
         id="ap"
         d="M 0,0 V 1 H 0.5 Z"
         transform="rotate(18,3.15688,-0.5)" /><use
         width="810"
         height="540"
         transform="scale(-1,1)"
         xlink:href="#ap"
         id="use2329"
         x="0"
         y="0" /></g><g
       id="au"><path
         id="at"
         d="M 0,0 V 1 H 0.5 Z"
         transform="rotate(18,3.15688,-0.5)" /><use
         width="810"
         height="540"
         transform="scale(-1,1)"
         xlink:href="#at"
         id="use2339"
         x="0"
         y="0" /></g><g
       id="ay"><path
         id="ax"
         d="M 0,0 V 1 H 0.5 Z"
         transform="rotate(18,3.15688,-0.5)" /><use
         width="810"
         height="540"
         transform="scale(-1,1)"
         xlink:href="#ax"
         id="use2349"
         x="0"
         y="0" /></g><g
       id="aB"><path
         id="aA"
         d="M 0,0 V 1 H 0.5 Z"
         transform="rotate(18,3.15688,-0.5)" /><use
         width="810"
         height="540"
         transform="scale(-1,1)"
         xlink:href="#aA"
         id="use2358"
         x="0"
         y="0" /></g><g
       id="aH"><path
         id="aG"
         d="M 0,0 V 1 H 0.5 Z"
         transform="rotate(18,3.15688,-0.5)" /><use
         width="810"
         height="540"
         transform="scale(-1,1)"
         xlink:href="#aG"
         id="use2370"
         x="0"
         y="0" /></g><g
       id="aK"><path
         id="aJ"
         d="M 0,0 V 1 H 0.5 Z"
         transform="rotate(18,3.15688,-0.5)" /><use
         width="810"
         height="540"
         transform="scale(-1,1)"
         xlink:href="#aJ"
         id="use2379"
         x="0"
         y="0" /></g><g
       id="aO"><path
         id="aN"
         d="M 0,0 V 1 H 0.5 Z"
         transform="rotate(18,3.15688,-0.5)" /><use
         width="810"
         height="540"
         transform="scale(-1,1)"
         xlink:href="#aN"
         id="use2389"
         x="0"
         y="0" /></g><g
       id="aR"><path
         id="aQ"
         d="M 0,0 V 1 H 0.5 Z"
         transform="rotate(18,3.15688,-0.5)" /><use
         width="810"
         height="540"
         transform="scale(-1,1)"
         xlink:href="#aQ"
         id="use2398"
         x="0"
         y="0" /></g></defs><rect
     width="1108.6116"
     height="665.16693"
     id="rect1421"
     x="45.694199"
     y="67.416519"
     style="fill:#e20909;fill-opacity:1;stroke-width:1.26491" /><path
     id="path237"
     style="fill:#ffffff;fill-opacity:1;stroke:none;stroke-width:0.903212px;stroke-linecap:butt;stroke-linejoin:miter;stroke-opacity:1"
     d="m 116.87955,591.0193 c -41.28353,24.01309 -50.926255,50.82731 -66.755312,77.26298 l 49.601782,83.43398 c 15.4477,-26.07899 25.38926,-52.48325 66.10055,-76.16348 69.89778,-40.28868 101.77987,1.70561 173.12979,-39.78566 71.50418,-41.22488 50.95327,-89.78021 120.69151,-130.34434 69.89778,-40.28867 101.77875,1.70627 173.12604,-39.78347 l 0.004,-0.002 c 71.50151,-41.22335 50.95138,-89.77912 120.68963,-130.34325 69.89779,-40.28868 101.77799,1.7067 173.12792,-39.78457 71.50425,-41.22494 50.95519,-89.78134 120.69344,-130.34551 39.4116,-22.71661 66.7372,-19.27289 95.8658,-19.38501 l 18.5233,-99.624421 c -64.6322,32.423611 -96.7183,-3.922272 -163.33623,34.475861 -69.73834,40.56424 -49.1893,89.12065 -120.69349,130.34554 -71.34993,41.49126 -103.23013,-0.50411 -173.12793,39.78454 -69.73823,40.56415 -49.18811,89.11993 -120.68963,130.34327 l -0.004,0.002 c -71.34719,41.48969 -103.22816,-0.50524 -173.12594,39.78341 -69.73824,40.56415 -49.18733,89.11946 -120.69151,130.34435 -71.34992,41.49127 -103.23201,-0.50302 -173.12979,39.78564 z"
     sodipodi:nodetypes="cccccccccccccccccccccc" /><path
     id="rect4963"
     style="fill:#2b5df2;fill-opacity:1;stroke-width:1.26492"
     d="M 0 0 L 0 800 L 1200 800 L 1200 0 L 0 0 z M 100 100 L 1100 100 L 1100 700 L 100 700 L 100 100 z " /><g
     transform="matrix(0.08034368,0,0,0.08034368,774.31263,374.31263)"
     style="fill:#fcef3c;fill-opacity:1;stroke:#000000;stroke-width:14.1126;stroke-miterlimit:4;stroke-dasharray:none;stroke-opacity:1"
     id="g5408"><path
       d="m 1778.9,3200 c 0,122.11 -99,221.1 -221.11,221.1 45.61,79 129.89,127.66 221.1,127.66 91.22,0 175.5,-48.66 221.11,-127.66 45.61,79 129.89,127.66 221.1,127.66 91.22,0 175.5,-48.66 221.11,-127.66 -122.11,0 -221.11,-98.99 -221.11,-221.1 V 2221.1 H 3200 c 122.11,0 221.1,99 221.1,221.11 79,-45.61 127.66,-129.89 127.66,-221.1 0,-91.22 -48.66,-175.5 -127.66,-221.11 79,-45.61 127.66,-129.89 127.66,-221.1 0,-91.22 -48.66,-175.5 -127.66,-221.11 0,122.11 -98.99,221.11 -221.1,221.11 H 2221.1 V 800 c 0,-122.113 99,-221.105 221.11,-221.105 C 2396.6,499.902 2312.32,451.24 2221.1,451.24 c -91.21,0 -175.49,48.662 -221.1,127.655 -45.61,-78.993 -129.89,-127.655 -221.11,-127.655 -91.21,0 -175.49,48.662 -221.1,127.655 122.11,0 221.11,98.992 221.11,221.105 v 978.9 H 800 c -122.113,0 -221.105,-99 -221.105,-221.11 -78.993,45.61 -127.655,129.89 -127.655,221.11 0,91.21 48.662,175.49 127.655,221.1 -78.993,45.61 -127.655,129.89 -127.655,221.11 0,91.21 48.662,175.49 127.655,221.1 0,-122.11 98.992,-221.11 221.105,-221.11 h 978.9 z"
       id="path5410"
       style="fill:#fcef3c;fill-opacity:1;stroke:#000000;stroke-width:14.1126;stroke-miterlimit:4;stroke-dasharray:none;stroke-opacity:1" /></g><g
     style="fill:#fcef3c;fill-opacity:1;stroke:#000000;stroke-width:2.77664;stroke-miterlimit:4;stroke-dasharray:none;stroke-opacity:1"
     id="g5351"
     inkscape:label="Meubles"
     transform="matrix(0.40819208,0,0,0.40852112,136.99319,129.07662)"><g
       style="fill:#fcef3c;fill-opacity:1;stroke:#000000;stroke-width:3.38291;stroke-miterlimit:4;stroke-dasharray:none;stroke-opacity:1"
       id="g3924"
       transform="matrix(0.826041,0,0,0.815556,-1347.744,6.289439)"><g
         style="fill:#fcef3c;fill-opacity:1;stroke:#000000;stroke-width:3.38291;stroke-miterlimit:4;stroke-dasharray:none;stroke-opacity:1"
         id="g3926"><g
           style="fill:#fcef3c;fill-opacity:1;stroke:#000000;stroke-width:3.38291;stroke-miterlimit:4;stroke-dasharray:none;stroke-opacity:1"
           id="g3928"
           transform="translate(22)"><path
             sodipodi:nodetypes="cccccccc"
             id="path3930"
             d="m 2105.1064,155.74467 c 64.8135,-20.26209 85.5479,-71.729795 125.4554,-125.899741 19.9523,-15.328497 22.817,31.002275 22.4528,41.088825 -1.3031,26.695225 -12.271,52.788636 -31.1216,71.852226 -19.1879,19.15711 -41.1399,37.18761 -67.5099,45.14758 -11.4231,3.18053 -24.0452,4.58637 -35.5125,1.92141 -2.8527,-3.88908 -6.2055,-7.54281 -8.756,-11.57406 -1.6694,-7.51208 -3.3388,-15.02416 -5.0082,-22.53624 z"
             style="fill:#fcef3c;fill-opacity:1;fill-rule:evenodd;stroke:#000000;stroke-width:3.38291;stroke-linecap:butt;stroke-linejoin:miter;stroke-miterlimit:4;stroke-dasharray:none;stroke-opacity:1" /><path
             sodipodi:nodetypes="cccccccc"
             id="path3932"
             d="m 2131.9302,172.00313 c 69.9771,1.97092 109.4422,-36.4689 157.6992,-81.980147 22.8557,-8.684943 12.7262,35.421367 9.3425,44.947517 -9.0885,24.9422 -26.979,46.62978 -50.4385,59.28795 -22.8667,12.13225 -47.7867,22.16087 -73.934,23.33515 -13.6705,0.49561 -27.5098,-2.26765 -39.7279,-8.48805 -1.5979,-4.70938 -3.7229,-9.34874 -4.9961,-14.10126 0.6849,-7.66706 1.3699,-15.33411 2.0548,-23.00116 z"
             style="fill:#fcef3c;fill-opacity:1;fill-rule:evenodd;stroke:#000000;stroke-width:3.38291;stroke-linecap:butt;stroke-linejoin:miter;stroke-miterlimit:4;stroke-dasharray:none;stroke-opacity:1" /><path
             sodipodi:nodetypes="cccccccc"
             id="path3934"
             d="m 2129.7517,214.86479 c 68.9423,14.06513 121.6792,-16.8502 170.4192,-46.87748 24.6807,-5.57968 6.8584,35.60145 1.2656,44.69185 -13.8573,22.43316 -35.4582,40.12918 -60.8121,47.85828 -24.0377,7.13739 -49.5221,11.59677 -74.6064,8.48748 -14.9182,-1.9786 -29.4359,-7.73107 -41.1523,-17.2634 -0.581,-4.93838 -1.6782,-9.91746 -1.9367,-14.83041 2.2742,-7.35544 4.5485,-14.71088 6.8227,-22.06632 z"
             style="fill:#fcef3c;fill-opacity:1;fill-rule:evenodd;stroke:#000000;stroke-width:3.38291;stroke-linecap:butt;stroke-linejoin:miter;stroke-miterlimit:4;stroke-dasharray:none;stroke-opacity:1" /><path
             sodipodi:nodetypes="cccccccc"
             style="fill:#fcef3c;fill-opacity:1;fill-rule:evenodd;stroke:#000000;stroke-width:3.38291;stroke-linecap:butt;stroke-linejoin:miter;stroke-miterlimit:4;stroke-dasharray:none;stroke-opacity:1"
             d="m 2136.0671,245.4323 c 67.5023,25.68563 123.0744,5.23781 175.0929,-24.13859 25.1991,-2.297 2.1335,36.19319 -4.6024,44.47224 -16.6778,20.42358 -40.4116,35.13603 -66.5598,39.47567 -24.7657,3.92553 -50.6148,5.00655 -75.0752,-1.36339 -14.5302,-3.91666 -28.1688,-11.52215 -38.5349,-22.50778 0.071,-4.97193 -0.364,-10.05186 0.024,-14.95631 3.2186,-6.99395 6.4373,-13.98789 9.6558,-20.98184 z"
             id="path3936" /><path
             sodipodi:nodetypes="cccccccc"
             id="path3938"
             d="m 2135.3813,266.20195 c 56.8725,42.69624 117.8332,40.49129 174.4127,28.64253 24.7537,5.2467 -8.6494,35.20919 -17.5297,41.12992 -21.9652,14.58786 -48.9851,21.63566 -75.2487,18.06025 -24.8205,-3.5628 -49.8361,-10.16319 -71.3246,-23.47218 -12.7257,-8.03274 -23.5102,-19.32652 -30.17,-32.88334 1.5363,-4.72918 2.6206,-9.71108 4.4392,-14.28236 5.1403,-5.73161 10.2808,-11.46318 15.4211,-17.19482 z"
             style="fill:#fcef3c;fill-opacity:1;fill-rule:evenodd;stroke:#000000;stroke-width:3.38291;stroke-linecap:butt;stroke-linejoin:miter;stroke-miterlimit:4;stroke-dasharray:none;stroke-opacity:1" /><path
             sodipodi:nodetypes="cccccccc"
             style="fill:#fcef3c;fill-opacity:1;fill-rule:evenodd;stroke:#000000;stroke-width:3.38291;stroke-linecap:butt;stroke-linejoin:miter;stroke-miterlimit:4;stroke-dasharray:none;stroke-opacity:1"
             d="m 2147.6208,292.32412 c 46.7087,56.20224 108.3356,67.23285 163.3004,67.62533 22.9073,10.74828 -16.4437,32.31268 -26.4393,36.05451 -24.711,9.19993 -52.626,9.9065 -77.3844,0.44155 -23.356,-9.12391 -46.21,-21.24996 -64.1012,-39.10462 -10.561,-10.72076 -18.4888,-24.17454 -21.8849,-38.89212 2.5734,-4.2548 4.7642,-8.85865 7.5764,-12.89539 6.311,-4.40977 12.6221,-8.81946 18.933,-13.22926 z"
             id="path3940" /><path
             sodipodi:nodetypes="cccccccc"
             inkscape:transform-center-y="-20.834145"
             inkscape:transform-center-x="-47.211288"
             id="path3942"
             d="m 2124.0611,310.91346 c 33.688,67.23389 98.9192,94.05241 137.8851,110.57992 18.9893,16.72346 -24.8211,26.42757 -35.4643,27.22592 -26.2976,1.92516 -53.2971,-5.2001 -74.4225,-21.20892 -19.8743,-15.28934 -38.4272,-33.32078 -50.6139,-55.4651 -7.1429,-13.24566 -10.9936,-28.37928 -10.1399,-43.45947 3.6601,-3.36576 7.0507,-7.17362 10.8792,-10.26327 7.2922,-2.46971 14.5843,-4.93932 21.8763,-7.40908 z"
             style="fill:#fcef3c;fill-opacity:1;fill-rule:evenodd;stroke:#000000;stroke-width:3.38291;stroke-linecap:butt;stroke-linejoin:miter;stroke-miterlimit:4;stroke-dasharray:none;stroke-opacity:1" /><path
             sodipodi:nodetypes="cccccccc"
             style="fill:#fcef3c;fill-opacity:1;fill-rule:evenodd;stroke:#000000;stroke-width:3.38291;stroke-linecap:butt;stroke-linejoin:miter;stroke-miterlimit:4;stroke-dasharray:none;stroke-opacity:1"
             d="m 2060.4258,334.81192 c -10.1067,48.74037 9.0257,86.77674 34.0207,114.87223 4.1075,16.65222 -24.0363,5.11832 -30.2706,1.44831 -15.3858,-9.09447 -27.6637,-23.49936 -33.2367,-40.57941 -5.1547,-16.1958 -8.5136,-33.40751 -6.7378,-50.44788 1.1436,-10.13618 4.8502,-20.0507 11.1552,-28.11689 3.3392,-0.45891 6.6989,-1.26829 10.025,-1.50838 5.0147,1.44397 10.0296,2.88814 15.0442,4.33202 z"
             id="path3944" /><path
             sodipodi:nodetypes="cccccccc"
             id="path3946"
             d="m 2087.142,324.65802 c 8.7798,65.8172 49.768,99.70914 96.5221,127.26416 12.9639,18.83665 -27.571,17.70163 -37.0753,16.05935 -23.4732,-4.09938 -45.5702,-16.28589 -60.5637,-34.96615 -14.0552,-17.77435 -26.349,-37.66137 -32.1575,-59.75232 -3.3461,-13.18154 -3.391,-27.29339 0.6755,-40.32325 3.9488,-2.14463 7.7585,-4.73612 11.7941,-6.60168 6.9349,-0.56005 13.87,-1.11999 20.8048,-1.68011 z"
             style="fill:#fcef3c;fill-opacity:1;fill-rule:evenodd;stroke:#000000;stroke-width:3.38291;stroke-linecap:butt;stroke-linejoin:miter;stroke-miterlimit:4;stroke-dasharray:none;stroke-opacity:1" /><path
             sodipodi:nodetypes="cssccccccccccccc"
             id="path3948"
             d="m 2031.4468,283.40424 c 36.479,14.05921 72.2392,-15.40568 39.1916,-47.23403 -43.8753,-42.25654 -8.4822,-75.69005 31.7596,-82.58747 15.2743,-2.61801 26.6876,-8.38112 46.1125,2.16193 -3.0532,21.82059 -11.2838,26.14239 -21.7019,43.40427 17.9937,-0.94829 31.216,-2.82874 51.0637,12.76595 -6.1496,11.82082 -19.6813,21.35644 -41.8102,26.93655 21.5731,5.04451 30.9371,6.25114 43.0868,24.12728 -24.1504,17.44071 -31.2616,13.04724 -53.6169,16.59574 21.8173,10.07238 33.2313,25.35257 33.1913,48.51065 -28.4914,0.17319 -43.2187,4.93684 -61.2765,-8.93619 22.0433,23.72981 16.7613,33.28558 12.7661,53.61704 -26.3551,-3.82019 -28.3877,-12.35439 -42.1277,-30.6383 3.362,19.16431 -5.2515,28.27867 -8.4615,38.62503 -16.6014,-5.85591 -30.3982,-14.38201 -29.7871,-36.6147 1.2151,-20.40586 -1.4934,-40.56014 1.6102,-60.73375 z"
             style="fill:#fcef3c;fill-opacity:1;fill-rule:evenodd;stroke:#000000;stroke-width:3.38291;stroke-linecap:butt;stroke-linejoin:miter;stroke-miterlimit:4;stroke-dasharray:none;stroke-opacity:1" /></g><g
           style="fill:#fcef3c;fill-opacity:1;stroke:#000000;stroke-width:3.38291;stroke-miterlimit:4;stroke-dasharray:none;stroke-opacity:1"
           id="g3950"
           transform="matrix(-1,0,0,1,3964.87,0)"><path
             style="fill:#fcef3c;fill-opacity:1;fill-rule:evenodd;stroke:#000000;stroke-width:3.38291;stroke-linecap:butt;stroke-linejoin:miter;stroke-miterlimit:4;stroke-dasharray:none;stroke-opacity:1"
             d="m 2105.1064,155.74467 c 64.8135,-20.26209 85.5479,-71.729795 125.4554,-125.899741 19.9523,-15.328497 22.817,31.002275 22.4528,41.088825 -1.3031,26.695225 -12.271,52.788636 -31.1216,71.852226 -19.1879,19.15711 -41.1399,37.18761 -67.5099,45.14758 -11.4231,3.18053 -24.0452,4.58637 -35.5125,1.92141 -2.8527,-3.88908 -6.2055,-7.54281 -8.756,-11.57406 -1.6694,-7.51208 -3.3388,-15.02416 -5.0082,-22.53624 z"
             id="path3952"
             sodipodi:nodetypes="cccccccc" /><path
             style="fill:#fcef3c;fill-opacity:1;fill-rule:evenodd;stroke:#000000;stroke-width:3.38291;stroke-linecap:butt;stroke-linejoin:miter;stroke-miterlimit:4;stroke-dasharray:none;stroke-opacity:1"
             d="m 2131.9302,172.00313 c 69.9771,1.97092 109.4422,-36.4689 157.6992,-81.980147 22.8557,-8.684943 12.7262,35.421367 9.3425,44.947517 -9.0885,24.9422 -26.979,46.62978 -50.4385,59.28795 -22.8667,12.13225 -47.7867,22.16087 -73.934,23.33515 -13.6705,0.49561 -27.5098,-2.26765 -39.7279,-8.48805 -1.5979,-4.70938 -3.7229,-9.34874 -4.9961,-14.10126 0.6849,-7.66706 1.3699,-15.33411 2.0548,-23.00116 z"
             id="path3954"
             sodipodi:nodetypes="cccccccc" /><path
             style="fill:#fcef3c;fill-opacity:1;fill-rule:evenodd;stroke:#000000;stroke-width:3.38291;stroke-linecap:butt;stroke-linejoin:miter;stroke-miterlimit:4;stroke-dasharray:none;stroke-opacity:1"
             d="m 2129.7517,214.86479 c 68.9423,14.06513 121.6792,-16.8502 170.4192,-46.87748 24.6807,-5.57968 6.8584,35.60145 1.2656,44.69185 -13.8573,22.43316 -35.4582,40.12918 -60.8121,47.85828 -24.0377,7.13739 -49.5221,11.59677 -74.6064,8.48748 -14.9182,-1.9786 -29.4359,-7.73107 -41.1523,-17.2634 -0.581,-4.93838 -1.6782,-9.91746 -1.9367,-14.83041 2.2742,-7.35544 4.5485,-14.71088 6.8227,-22.06632 z"
             id="path3956"
             sodipodi:nodetypes="cccccccc" /><path
             id="path3958"
             d="m 2136.0671,245.4323 c 67.5023,25.68563 123.0744,5.23781 175.0929,-24.13859 25.1991,-2.297 2.1335,36.19319 -4.6024,44.47224 -16.6778,20.42358 -40.4116,35.13603 -66.5598,39.47567 -24.7657,3.92553 -50.6148,5.00655 -75.0752,-1.36339 -14.5302,-3.91666 -28.1688,-11.52215 -38.5349,-22.50778 0.071,-4.97193 -0.364,-10.05186 0.024,-14.95631 3.2186,-6.99395 6.4373,-13.98789 9.6558,-20.98184 z"
             style="fill:#fcef3c;fill-opacity:1;fill-rule:evenodd;stroke:#000000;stroke-width:3.38291;stroke-linecap:butt;stroke-linejoin:miter;stroke-miterlimit:4;stroke-dasharray:none;stroke-opacity:1"
             sodipodi:nodetypes="cccccccc" /><path
             style="fill:#fcef3c;fill-opacity:1;fill-rule:evenodd;stroke:#000000;stroke-width:3.38291;stroke-linecap:butt;stroke-linejoin:miter;stroke-miterlimit:4;stroke-dasharray:none;stroke-opacity:1"
             d="m 2135.3813,266.20195 c 56.8725,42.69624 117.8332,40.49129 174.4127,28.64253 24.7537,5.2467 -8.6494,35.20919 -17.5297,41.12992 -21.9652,14.58786 -48.9851,21.63566 -75.2487,18.06025 -24.8205,-3.5628 -49.8361,-10.16319 -71.3246,-23.47218 -12.7257,-8.03274 -23.5102,-19.32652 -30.17,-32.88334 1.5363,-4.72918 2.6206,-9.71108 4.4392,-14.28236 5.1403,-5.73161 10.2808,-11.46318 15.4211,-17.19482 z"
             id="path3960"
             sodipodi:nodetypes="cccccccc" /><path
             id="path3962"
             d="m 2147.6208,292.32412 c 46.7087,56.20224 108.3356,67.23285 163.3004,67.62533 22.9073,10.74828 -16.4437,32.31268 -26.4393,36.05451 -24.711,9.19993 -52.626,9.9065 -77.3844,0.44155 -23.356,-9.12391 -46.21,-21.24996 -64.1012,-39.10462 -10.561,-10.72076 -18.4888,-24.17454 -21.8849,-38.89212 2.5734,-4.2548 4.7642,-8.85865 7.5764,-12.89539 6.311,-4.40977 12.6221,-8.81946 18.933,-13.22926 z"
             style="fill:#fcef3c;fill-opacity:1;fill-rule:evenodd;stroke:#000000;stroke-width:3.38291;stroke-linecap:butt;stroke-linejoin:miter;stroke-miterlimit:4;stroke-dasharray:none;stroke-opacity:1"
             sodipodi:nodetypes="cccccccc" /><path
             style="fill:#fcef3c;fill-opacity:1;fill-rule:evenodd;stroke:#000000;stroke-width:3.38291;stroke-linecap:butt;stroke-linejoin:miter;stroke-miterlimit:4;stroke-dasharray:none;stroke-opacity:1"
             d="m 2124.0611,310.91346 c 33.688,67.23389 98.9192,94.05241 137.8851,110.57992 18.9893,16.72346 -24.8211,26.42757 -35.4643,27.22592 -26.2976,1.92516 -53.2971,-5.2001 -74.4225,-21.20892 -19.8743,-15.28934 -38.4272,-33.32078 -50.6139,-55.4651 -7.1429,-13.24566 -10.9936,-28.37928 -10.1399,-43.45947 3.6601,-3.36576 7.0507,-7.17362 10.8792,-10.26327 7.2922,-2.46971 14.5843,-4.93932 21.8763,-7.40908 z"
             id="path3965"
             inkscape:transform-center-x="-47.211288"
             inkscape:transform-center-y="-20.834145"
             sodipodi:nodetypes="cccccccc" /><path
             id="path3967"
             d="m 2060.4258,334.81192 c -10.1067,48.74037 9.0257,86.77674 34.0207,114.87223 4.1075,16.65222 -24.0363,5.11832 -30.2706,1.44831 -15.3858,-9.09447 -27.6637,-23.49936 -33.2367,-40.57941 -5.1547,-16.1958 -8.5136,-33.40751 -6.7378,-50.44788 1.1436,-10.13618 4.8502,-20.0507 11.1552,-28.11689 3.3392,-0.45891 6.6989,-1.26829 10.025,-1.50838 5.0147,1.44397 10.0296,2.88814 15.0442,4.33202 z"
             style="fill:#fcef3c;fill-opacity:1;fill-rule:evenodd;stroke:#000000;stroke-width:3.38291;stroke-linecap:butt;stroke-linejoin:miter;stroke-miterlimit:4;stroke-dasharray:none;stroke-opacity:1"
             sodipodi:nodetypes="cccccccc" /><path
             style="fill:#fcef3c;fill-opacity:1;fill-rule:evenodd;stroke:#000000;stroke-width:3.38291;stroke-linecap:butt;stroke-linejoin:miter;stroke-miterlimit:4;stroke-dasharray:none;stroke-opacity:1"
             d="m 2087.142,324.65802 c 8.7798,65.8172 49.768,99.70914 96.5221,127.26416 12.9639,18.83665 -27.571,17.70163 -37.0753,16.05935 -23.4732,-4.09938 -45.5702,-16.28589 -60.5637,-34.96615 -14.0552,-17.77435 -26.349,-37.66137 -32.1575,-59.75232 -3.3461,-13.18154 -3.391,-27.29339 0.6755,-40.32325 3.9488,-2.14463 7.7585,-4.73612 11.7941,-6.60168 6.9349,-0.56005 13.87,-1.11999 20.8048,-1.68011 z"
             id="path3969"
             sodipodi:nodetypes="cccccccc" /><path
             style="fill:#fcef3c;fill-opacity:1;fill-rule:evenodd;stroke:#000000;stroke-width:3.38291;stroke-linecap:butt;stroke-linejoin:miter;stroke-miterlimit:4;stroke-dasharray:none;stroke-opacity:1"
             d="m 2031.4468,283.40424 c 36.479,14.05921 72.2392,-15.40568 39.1916,-47.23403 -43.8753,-42.25654 -8.4822,-75.69005 31.7596,-82.58747 15.2743,-2.61801 26.6876,-8.38112 46.1125,2.16193 -3.0532,21.82059 -11.2838,26.14239 -21.7019,43.40427 17.9937,-0.94829 31.216,-2.82874 51.0637,12.76595 -6.1496,11.82082 -19.6813,21.35644 -41.8102,26.93655 21.5731,5.04451 30.9371,6.25114 43.0868,24.12728 -24.1504,17.44071 -31.2616,13.04724 -53.6169,16.59574 21.8173,10.07238 33.2313,25.35257 33.1913,48.51065 -28.4914,0.17319 -43.2187,4.93684 -61.2765,-8.93619 22.0433,23.72981 16.7613,33.28558 12.7661,53.61704 -26.3551,-3.82019 -28.3877,-12.35439 -42.1277,-30.6383 3.362,19.16431 -5.2515,28.27867 -8.4615,38.62503 -16.6014,-5.85591 -30.3982,-14.38201 -29.7871,-36.6147 1.2151,-20.40586 -1.4934,-40.56014 1.6102,-60.73375 z"
             id="path3971"
             sodipodi:nodetypes="cssccccccccccccc" /></g></g><g
         style="fill:#fcef3c;fill-opacity:1;stroke:#000000;stroke-width:3.38291;stroke-miterlimit:4;stroke-dasharray:none;stroke-opacity:1"
         id="g3973"><path
           style="fill:#fcef3c;fill-opacity:1;fill-rule:evenodd;stroke:#000000;stroke-width:3.38291;stroke-linecap:butt;stroke-linejoin:miter;stroke-miterlimit:4;stroke-dasharray:none;stroke-opacity:1"
           d="m 2055.1104,158.12765 c -10.2855,28.86301 -29.1694,46.56897 -5.5902,63.44682 l -18.9788,-0.72341 c 13.5145,17.68973 23.6365,21.96455 34.0851,24.42553 l -35.7447,-1.4468 c 11.7684,8.70933 21.4574,15.18068 30.8511,16.76595 l -23.1489,1.10639 c 46.5022,50.75456 14.6918,113.40264 17.3808,174.89361 31.9822,55.66684 89.7804,32.36937 119.7255,45.23405 -13.7685,8.44652 -29.9389,20.15623 0.7752,36.75484 -25.6693,8.49496 -29.8493,13.61946 -13.6357,40.59293 -21.0393,-9.32207 -30.8098,-16.64407 -26.7799,13.59794 -55.3316,-42.39295 -50.8488,-27.83126 -102.9601,-73.80632 l -7.2718,-27.90535 c -0.6043,0.90634 -2.1324,24.72868 1.4043,33.70213 24.9781,22.90141 54.9775,44.82414 74.5583,65.65957 -85.4194,-34.17708 -84.1053,-14.07451 -15.8349,14.25532 -17.5689,5.96348 -57.244,-5.61304 -61.4042,5.10638 52.8969,31.96954 116.0458,18.82155 150.8935,8.93617 -1.6977,34.08453 -79.6252,43.70791 -122.5011,41.68305 29.4336,6.97786 49.0847,23.51128 57.5551,44.40823 -30.9659,-0.69631 -52.4106,0.54793 -84.671,-22.26149 12.0541,30.48879 9.9688,55.50275 -0.21,71.62754 -7.7301,12.24574 -23.4774,24.02071 -30.4283,37.80018 -9.4901,-15.33489 -22.5562,-26.43797 -28.9568,-37.53224 -10.5842,-18.34578 -11.3328,-40.70231 -0.4049,-73.17207 -20.3241,20.54532 -52.4835,27.06441 -85.5319,21.70212 10.7025,-21.90453 31.242,-34.47523 54.1702,-42.12766 -40.2853,1.8571 -111.5425,-5.87799 -119.2766,-42.12766 64.1492,19.23842 109.2228,11.32389 150.6383,-7.65957 -1.4081,-11.4159 -37.6623,0.01 -60.8936,-7.2766 62.229,-26.50836 79.2956,-46.89505 -15.7021,-14.42553 15.6016,-20.58121 43.3775,-34.83679 76.5957,-65.10638 3.6489,-19.46809 -0.7234,-31.9149 -0.7234,-31.9149 l -5.8393,25.35216 c -46.4002,39.81877 -29.5431,22.68582 -104.5011,72.94571 5.4819,-38.71389 -14.5346,-13.84699 -28.0851,-10.21276 14.6722,-29.23764 16.8815,-33.52248 -12.7751,-40.85106 24.4927,-16.85388 24.6652,-24.68085 1.2857,-37.02128 36.0902,-11.57982 95.6104,6.10564 119.4468,-47.74468 2.4688,-59.07021 -28.4184,-128.16646 16.0426,-171.82979 l -30.8085,2.17021 c 14.7524,-5.83285 27.8984,-19.63296 34.851,-27.70212 l -25.9149,-4.21277 c 48.6464,-16.63998 16.7202,-34.2326 5.1064,-76.21277 -4.9027,-84.715125 128.4764,-85.076876 123.2073,1.10638 z"
           id="path3975"
           sodipodi:nodetypes="ccccccccccccccccccccccscsccccccccccccccccccccc" /><g
           style="fill:#fcef3c;fill-opacity:1;stroke:#000000;stroke-width:3.38291;stroke-miterlimit:4;stroke-dasharray:none;stroke-opacity:1"
           id="g3977"
           transform="translate(-12.51105)"><path
             sodipodi:nodetypes="ccccsssc"
             id="path3979"
             d="m 1983.5981,123.09436 c 6.517,2.10628 9.0339,2.21256 15.5508,4.31883 16.7413,17.04338 27.1723,23.59627 36.9325,28.59612 1.3062,0.99934 -1.3876,-2.00132 -0.081,-1.00199 -5.0892,-1.20358 -9.4283,-6.39519 -13.9756,-4.12421 -8.1018,4.04618 -17.5042,8.19463 -25.9697,4.09194 -13.6337,-6.6074 -20.1549,-20.56801 1.0942,-27.75648 5.0485,-1.70789 -7.0338,-1.41614 -13.5508,-4.12421 z"
             style="fill:#fcef3c;fill-opacity:1;fill-rule:evenodd;stroke:#000000;stroke-width:3.38291;stroke-linecap:butt;stroke-linejoin:miter;stroke-miterlimit:4;stroke-dasharray:none;stroke-opacity:1" /><path
             transform="matrix(0.769187,0,0,0.769187,589.8148,78.98581)"
             sodipodi:end="1.9592611"
             sodipodi:start="1.9974614"
             sodipodi:ry="9.9295845"
             sodipodi:rx="12.186309"
             sodipodi:cy="80.473335"
             sodipodi:cx="1833.8137"
             id="path3981"
             style="opacity:1;fill:#fcef3c;fill-opacity:1;fill-rule:evenodd;stroke:#000000;stroke-width:4.39804;stroke-linecap:round;stroke-linejoin:round;stroke-miterlimit:4;stroke-dasharray:none;stroke-dashoffset:0;stroke-opacity:1"
             sodipodi:type="arc"
             sodipodi:arc-type="slice"
             d="m 1828.7706,89.512742 a 12.186309,9.9295845 0 0 1 -6.0984,-13.062125 12.186309,9.9295845 0 0 1 15.9719,-5.093522 12.186309,9.9295845 0 0 1 6.4034,12.964839 12.186309,9.9295845 0 0 1 -15.8496,5.341149 l 4.6158,-9.189748 z" /></g></g></g></g><g
     id="g1586"><g
       id="layer5"
       inkscape:label="Meubles"
       transform="matrix(0.36689055,0,0,0.36725475,-9.0554797,-94.073919)"
       style="stroke-width:0.544848">
	<g
   id="g3413"
   transform="matrix(0.634793,0,0,0.634793,189.7236,734.7056)"
   style="stroke-width:0.544848">
		
			<path
   id="path3415"
   sodipodi:nodetypes="csssssscscsscccccccsscscssssssc"
   fill="#fcef3c"
   stroke="#000000"
   stroke-width="3.2747"
   d="m -48.097,-730.047 c 29.463,31.846 46.786,49.409 49.812,98.821 2.801,45.729 -27.628,83.959 -34.187,128.188 -1.245,8.389 -2.311,25.513 -1.188,32.457 0.832,5.143 3.392,20.856 6.187,1.414 0.575,-3.998 0.987,-24.059 2.75,-34.246 3.212,-18.561 13.499,-51.198 31.344,-69.282 17.838,-18.075 46.104,-29.799 71.312,-20.344 22.84,10.54 24.999,40.3 18.5,62.063 -8.139,27.256 -39.241,46.12 -67.125,47.969 5.525,-10.927 18.749,-42.114 4.406,-40.875 -16.602,1.432 -36.462,29.68 -41.633,49.058 -1.947,7.298 -1.16,18.628 -11.586,18.161 6.874,23.228 26.28,38.598 43.281,54.811 -17.722,1.474 -35.255,-6.866 -50.719,-14.812 0.654,15.925 -2.438,49.567 -21.157,67.937 -17.375,-18.916 -18.955,-41.986 -19.281,-67.937 -15.463,7.946 -32.996,16.285 -50.719,14.812 17.002,-16.213 36.407,-31.583 43.282,-54.811 -10.426,0.468 -11.053,-10.155 -13,-17.453 -5.171,-19.378 -23.616,-48.333 -40.219,-49.766 -14.343,-1.238 -1.118,29.948 4.406,40.875 -27.883,-1.849 -58.986,-20.713 -67.125,-47.969 -6.498,-21.764 -4.34,-51.524 18.5,-62.063 25.208,-9.455 53.475,2.269 71.313,20.344 17.845,18.084 28.131,50.721 31.343,69.282 1.763,10.187 1.468,28.834 2.043,32.832 2.795,19.442 6.062,5.143 6.894,0 1.125,-6.944 0.057,-24.068 -1.187,-32.457 -6.559,-44.229 -34.109,-84.015 -34.188,-128.188 -0.066,-39.886 19.987,-70.235 47.941,-98.821 z" />
		<path
   id="rect3417"
   fill="#fcef3c"
   stroke="#000000"
   stroke-width="3.2747"
   stroke-linejoin="round"
   d="m 13.829,-474.154 h -121.976 c -3.872,0 -7.012,3.14 -7.012,7.012 v 7.977 c 0,3.872 3.14,7.012 7.012,7.012 H 13.829 c 3.873,0 7.012,-3.14 7.012,-7.012 v -7.977 c 0,-3.873 -3.139,-7.012 -7.012,-7.012 z" />
	</g>
</g><g
       id="g1432"
       inkscape:label="Meubles"
       transform="matrix(0.36689055,0,0,0.36725475,1091.8075,-94.073919)"
       style="stroke-width:0.544848">
	<g
   id="g1430"
   transform="matrix(0.634793,0,0,0.634793,189.7236,734.7056)"
   style="stroke-width:0.544848">
		
			<path
   id="path1426"
   sodipodi:nodetypes="csssssscscsscccccccsscscssssssc"
   fill="#fcef3c"
   stroke="#000000"
   stroke-width="3.2747"
   d="m -48.097,-730.047 c 29.463,31.846 46.786,49.409 49.812,98.821 2.801,45.729 -27.628,83.959 -34.187,128.188 -1.245,8.389 -2.311,25.513 -1.188,32.457 0.832,5.143 3.392,20.856 6.187,1.414 0.575,-3.998 0.987,-24.059 2.75,-34.246 3.212,-18.561 13.499,-51.198 31.344,-69.282 17.838,-18.075 46.104,-29.799 71.312,-20.344 22.84,10.54 24.999,40.3 18.5,62.063 -8.139,27.256 -39.241,46.12 -67.125,47.969 5.525,-10.927 18.749,-42.114 4.406,-40.875 -16.602,1.432 -36.462,29.68 -41.633,49.058 -1.947,7.298 -1.16,18.628 -11.586,18.161 6.874,23.228 26.28,38.598 43.281,54.811 -17.722,1.474 -35.255,-6.866 -50.719,-14.812 0.654,15.925 -2.438,49.567 -21.157,67.937 -17.375,-18.916 -18.955,-41.986 -19.281,-67.937 -15.463,7.946 -32.996,16.285 -50.719,14.812 17.002,-16.213 36.407,-31.583 43.282,-54.811 -10.426,0.468 -11.053,-10.155 -13,-17.453 -5.171,-19.378 -23.616,-48.333 -40.219,-49.766 -14.343,-1.238 -1.118,29.948 4.406,40.875 -27.883,-1.849 -58.986,-20.713 -67.125,-47.969 -6.498,-21.764 -4.34,-51.524 18.5,-62.063 25.208,-9.455 53.475,2.269 71.313,20.344 17.845,18.084 28.131,50.721 31.343,69.282 1.763,10.187 1.468,28.834 2.043,32.832 2.795,19.442 6.062,5.143 6.894,0 1.125,-6.944 0.057,-24.068 -1.187,-32.457 -6.559,-44.229 -34.109,-84.015 -34.188,-128.188 -0.066,-39.886 19.987,-70.235 47.941,-98.821 z" />
		<path
   id="path1428"
   fill="#fcef3c"
   stroke="#000000"
   stroke-width="3.2747"
   stroke-linejoin="round"
   d="m 13.829,-474.154 h -121.976 c -3.872,0 -7.012,3.14 -7.012,7.012 v 7.977 c 0,3.872 3.14,7.012 7.012,7.012 H 13.829 c 3.873,0 7.012,-3.14 7.012,-7.012 v -7.977 c 0,-3.873 -3.139,-7.012 -7.012,-7.012 z" />
	</g>
</g><g
       id="g1440"
       inkscape:label="Meubles"
       transform="matrix(0.36689055,0,0,0.36725475,-9.0554797,605.92608)"
       style="stroke-width:0.544848">
	<g
   id="g1438"
   transform="matrix(0.634793,0,0,0.634793,189.7236,734.7056)"
   style="stroke-width:0.544848">
		
			<path
   id="path1434"
   sodipodi:nodetypes="csssssscscsscccccccsscscssssssc"
   fill="#fcef3c"
   stroke="#000000"
   stroke-width="3.2747"
   d="m -48.097,-730.047 c 29.463,31.846 46.786,49.409 49.812,98.821 2.801,45.729 -27.628,83.959 -34.187,128.188 -1.245,8.389 -2.311,25.513 -1.188,32.457 0.832,5.143 3.392,20.856 6.187,1.414 0.575,-3.998 0.987,-24.059 2.75,-34.246 3.212,-18.561 13.499,-51.198 31.344,-69.282 17.838,-18.075 46.104,-29.799 71.312,-20.344 22.84,10.54 24.999,40.3 18.5,62.063 -8.139,27.256 -39.241,46.12 -67.125,47.969 5.525,-10.927 18.749,-42.114 4.406,-40.875 -16.602,1.432 -36.462,29.68 -41.633,49.058 -1.947,7.298 -1.16,18.628 -11.586,18.161 6.874,23.228 26.28,38.598 43.281,54.811 -17.722,1.474 -35.255,-6.866 -50.719,-14.812 0.654,15.925 -2.438,49.567 -21.157,67.937 -17.375,-18.916 -18.955,-41.986 -19.281,-67.937 -15.463,7.946 -32.996,16.285 -50.719,14.812 17.002,-16.213 36.407,-31.583 43.282,-54.811 -10.426,0.468 -11.053,-10.155 -13,-17.453 -5.171,-19.378 -23.616,-48.333 -40.219,-49.766 -14.343,-1.238 -1.118,29.948 4.406,40.875 -27.883,-1.849 -58.986,-20.713 -67.125,-47.969 -6.498,-21.764 -4.34,-51.524 18.5,-62.063 25.208,-9.455 53.475,2.269 71.313,20.344 17.845,18.084 28.131,50.721 31.343,69.282 1.763,10.187 1.468,28.834 2.043,32.832 2.795,19.442 6.062,5.143 6.894,0 1.125,-6.944 0.057,-24.068 -1.187,-32.457 -6.559,-44.229 -34.109,-84.015 -34.188,-128.188 -0.066,-39.886 19.987,-70.235 47.941,-98.821 z" />
		<path
   id="path1436"
   fill="#fcef3c"
   stroke="#000000"
   stroke-width="3.2747"
   stroke-linejoin="round"
   d="m 13.829,-474.154 h -121.976 c -3.872,0 -7.012,3.14 -7.012,7.012 v 7.977 c 0,3.872 3.14,7.012 7.012,7.012 H 13.829 c 3.873,0 7.012,-3.14 7.012,-7.012 v -7.977 c 0,-3.873 -3.139,-7.012 -7.012,-7.012 z" />
	</g>
</g><g
       id="g1448"
       inkscape:label="Meubles"
       transform="matrix(0.36689055,0,0,0.36725475,1091.8075,605.92608)"
       style="stroke-width:0.544848">
	<g
   id="g1446"
   transform="matrix(0.634793,0,0,0.634793,189.7236,734.7056)"
   style="stroke-width:0.544848">
		
			<path
   id="path1442"
   sodipodi:nodetypes="csssssscscsscccccccsscscssssssc"
   fill="#fcef3c"
   stroke="#000000"
   stroke-width="3.2747"
   d="m -48.097,-730.047 c 29.463,31.846 46.786,49.409 49.812,98.821 2.801,45.729 -27.628,83.959 -34.187,128.188 -1.245,8.389 -2.311,25.513 -1.188,32.457 0.832,5.143 3.392,20.856 6.187,1.414 0.575,-3.998 0.987,-24.059 2.75,-34.246 3.212,-18.561 13.499,-51.198 31.344,-69.282 17.838,-18.075 46.104,-29.799 71.312,-20.344 22.84,10.54 24.999,40.3 18.5,62.063 -8.139,27.256 -39.241,46.12 -67.125,47.969 5.525,-10.927 18.749,-42.114 4.406,-40.875 -16.602,1.432 -36.462,29.68 -41.633,49.058 -1.947,7.298 -1.16,18.628 -11.586,18.161 6.874,23.228 26.28,38.598 43.281,54.811 -17.722,1.474 -35.255,-6.866 -50.719,-14.812 0.654,15.925 -2.438,49.567 -21.157,67.937 -17.375,-18.916 -18.955,-41.986 -19.281,-67.937 -15.463,7.946 -32.996,16.285 -50.719,14.812 17.002,-16.213 36.407,-31.583 43.282,-54.811 -10.426,0.468 -11.053,-10.155 -13,-17.453 -5.171,-19.378 -23.616,-48.333 -40.219,-49.766 -14.343,-1.238 -1.118,29.948 4.406,40.875 -27.883,-1.849 -58.986,-20.713 -67.125,-47.969 -6.498,-21.764 -4.34,-51.524 18.5,-62.063 25.208,-9.455 53.475,2.269 71.313,20.344 17.845,18.084 28.131,50.721 31.343,69.282 1.763,10.187 1.468,28.834 2.043,32.832 2.795,19.442 6.062,5.143 6.894,0 1.125,-6.944 0.057,-24.068 -1.187,-32.457 -6.559,-44.229 -34.109,-84.015 -34.188,-128.188 -0.066,-39.886 19.987,-70.235 47.941,-98.821 z" />
		<path
   id="path1444"
   fill="#fcef3c"
   stroke="#000000"
   stroke-width="3.2747"
   stroke-linejoin="round"
   d="m 13.829,-474.154 h -121.976 c -3.872,0 -7.012,3.14 -7.012,7.012 v 7.977 c 0,3.872 3.14,7.012 7.012,7.012 H 13.829 c 3.873,0 7.012,-3.14 7.012,-7.012 v -7.977 c 0,-3.873 -3.139,-7.012 -7.012,-7.012 z" />
	</g>
</g><g
       id="g1456"
       inkscape:label="Meubles"
       transform="matrix(0.36689055,0,0,0.36725475,816.59174,-94.073919)"
       style="stroke-width:0.544848">
	<g
   id="g1454"
   transform="matrix(0.634793,0,0,0.634793,189.7236,734.7056)"
   style="stroke-width:0.544848">
		
			<path
   id="path1450"
   sodipodi:nodetypes="csssssscscsscccccccsscscssssssc"
   fill="#fcef3c"
   stroke="#000000"
   stroke-width="3.2747"
   d="m -48.097,-730.047 c 29.463,31.846 46.786,49.409 49.812,98.821 2.801,45.729 -27.628,83.959 -34.187,128.188 -1.245,8.389 -2.311,25.513 -1.188,32.457 0.832,5.143 3.392,20.856 6.187,1.414 0.575,-3.998 0.987,-24.059 2.75,-34.246 3.212,-18.561 13.499,-51.198 31.344,-69.282 17.838,-18.075 46.104,-29.799 71.312,-20.344 22.84,10.54 24.999,40.3 18.5,62.063 -8.139,27.256 -39.241,46.12 -67.125,47.969 5.525,-10.927 18.749,-42.114 4.406,-40.875 -16.602,1.432 -36.462,29.68 -41.633,49.058 -1.947,7.298 -1.16,18.628 -11.586,18.161 6.874,23.228 26.28,38.598 43.281,54.811 -17.722,1.474 -35.255,-6.866 -50.719,-14.812 0.654,15.925 -2.438,49.567 -21.157,67.937 -17.375,-18.916 -18.955,-41.986 -19.281,-67.937 -15.463,7.946 -32.996,16.285 -50.719,14.812 17.002,-16.213 36.407,-31.583 43.282,-54.811 -10.426,0.468 -11.053,-10.155 -13,-17.453 -5.171,-19.378 -23.616,-48.333 -40.219,-49.766 -14.343,-1.238 -1.118,29.948 4.406,40.875 -27.883,-1.849 -58.986,-20.713 -67.125,-47.969 -6.498,-21.764 -4.34,-51.524 18.5,-62.063 25.208,-9.455 53.475,2.269 71.313,20.344 17.845,18.084 28.131,50.721 31.343,69.282 1.763,10.187 1.468,28.834 2.043,32.832 2.795,19.442 6.062,5.143 6.894,0 1.125,-6.944 0.057,-24.068 -1.187,-32.457 -6.559,-44.229 -34.109,-84.015 -34.188,-128.188 -0.066,-39.886 19.987,-70.235 47.941,-98.821 z" />
		<path
   id="path1452"
   fill="#fcef3c"
   stroke="#000000"
   stroke-width="3.2747"
   stroke-linejoin="round"
   d="m 13.829,-474.154 h -121.976 c -3.872,0 -7.012,3.14 -7.012,7.012 v 7.977 c 0,3.872 3.14,7.012 7.012,7.012 H 13.829 c 3.873,0 7.012,-3.14 7.012,-7.012 v -7.977 c 0,-3.873 -3.139,-7.012 -7.012,-7.012 z" />
	</g>
</g><g
       id="g1464"
       inkscape:label="Meubles"
       transform="matrix(0.36689055,0,0,0.36725475,541.37598,-94.073919)"
       style="stroke-width:0.544848">
	<g
   id="g1462"
   transform="matrix(0.634793,0,0,0.634793,189.7236,734.7056)"
   style="stroke-width:0.544848">
		
			<path
   id="path1458"
   sodipodi:nodetypes="csssssscscsscccccccsscscssssssc"
   fill="#fcef3c"
   stroke="#000000"
   stroke-width="3.2747"
   d="m -48.097,-730.047 c 29.463,31.846 46.786,49.409 49.812,98.821 2.801,45.729 -27.628,83.959 -34.187,128.188 -1.245,8.389 -2.311,25.513 -1.188,32.457 0.832,5.143 3.392,20.856 6.187,1.414 0.575,-3.998 0.987,-24.059 2.75,-34.246 3.212,-18.561 13.499,-51.198 31.344,-69.282 17.838,-18.075 46.104,-29.799 71.312,-20.344 22.84,10.54 24.999,40.3 18.5,62.063 -8.139,27.256 -39.241,46.12 -67.125,47.969 5.525,-10.927 18.749,-42.114 4.406,-40.875 -16.602,1.432 -36.462,29.68 -41.633,49.058 -1.947,7.298 -1.16,18.628 -11.586,18.161 6.874,23.228 26.28,38.598 43.281,54.811 -17.722,1.474 -35.255,-6.866 -50.719,-14.812 0.654,15.925 -2.438,49.567 -21.157,67.937 -17.375,-18.916 -18.955,-41.986 -19.281,-67.937 -15.463,7.946 -32.996,16.285 -50.719,14.812 17.002,-16.213 36.407,-31.583 43.282,-54.811 -10.426,0.468 -11.053,-10.155 -13,-17.453 -5.171,-19.378 -23.616,-48.333 -40.219,-49.766 -14.343,-1.238 -1.118,29.948 4.406,40.875 -27.883,-1.849 -58.986,-20.713 -67.125,-47.969 -6.498,-21.764 -4.34,-51.524 18.5,-62.063 25.208,-9.455 53.475,2.269 71.313,20.344 17.845,18.084 28.131,50.721 31.343,69.282 1.763,10.187 1.468,28.834 2.043,32.832 2.795,19.442 6.062,5.143 6.894,0 1.125,-6.944 0.057,-24.068 -1.187,-32.457 -6.559,-44.229 -34.109,-84.015 -34.188,-128.188 -0.066,-39.886 19.987,-70.235 47.941,-98.821 z" />
		<path
   id="path1460"
   fill="#fcef3c"
   stroke="#000000"
   stroke-width="3.2747"
   stroke-linejoin="round"
   d="m 13.829,-474.154 h -121.976 c -3.872,0 -7.012,3.14 -7.012,7.012 v 7.977 c 0,3.872 3.14,7.012 7.012,7.012 H 13.829 c 3.873,0 7.012,-3.14 7.012,-7.012 v -7.977 c 0,-3.873 -3.139,-7.012 -7.012,-7.012 z" />
	</g>
</g><g
       id="g1472"
       inkscape:label="Meubles"
       transform="matrix(0.36689055,0,0,0.36725475,266.16025,-94.073919)"
       style="stroke-width:0.544848">
	<g
   id="g1470"
   transform="matrix(0.634793,0,0,0.634793,189.7236,734.7056)"
   style="stroke-width:0.544848">
		
			<path
   id="path1466"
   sodipodi:nodetypes="csssssscscsscccccccsscscssssssc"
   fill="#fcef3c"
   stroke="#000000"
   stroke-width="3.2747"
   d="m -48.097,-730.047 c 29.463,31.846 46.786,49.409 49.812,98.821 2.801,45.729 -27.628,83.959 -34.187,128.188 -1.245,8.389 -2.311,25.513 -1.188,32.457 0.832,5.143 3.392,20.856 6.187,1.414 0.575,-3.998 0.987,-24.059 2.75,-34.246 3.212,-18.561 13.499,-51.198 31.344,-69.282 17.838,-18.075 46.104,-29.799 71.312,-20.344 22.84,10.54 24.999,40.3 18.5,62.063 -8.139,27.256 -39.241,46.12 -67.125,47.969 5.525,-10.927 18.749,-42.114 4.406,-40.875 -16.602,1.432 -36.462,29.68 -41.633,49.058 -1.947,7.298 -1.16,18.628 -11.586,18.161 6.874,23.228 26.28,38.598 43.281,54.811 -17.722,1.474 -35.255,-6.866 -50.719,-14.812 0.654,15.925 -2.438,49.567 -21.157,67.937 -17.375,-18.916 -18.955,-41.986 -19.281,-67.937 -15.463,7.946 -32.996,16.285 -50.719,14.812 17.002,-16.213 36.407,-31.583 43.282,-54.811 -10.426,0.468 -11.053,-10.155 -13,-17.453 -5.171,-19.378 -23.616,-48.333 -40.219,-49.766 -14.343,-1.238 -1.118,29.948 4.406,40.875 -27.883,-1.849 -58.986,-20.713 -67.125,-47.969 -6.498,-21.764 -4.34,-51.524 18.5,-62.063 25.208,-9.455 53.475,2.269 71.313,20.344 17.845,18.084 28.131,50.721 31.343,69.282 1.763,10.187 1.468,28.834 2.043,32.832 2.795,19.442 6.062,5.143 6.894,0 1.125,-6.944 0.057,-24.068 -1.187,-32.457 -6.559,-44.229 -34.109,-84.015 -34.188,-128.188 -0.066,-39.886 19.987,-70.235 47.941,-98.821 z" />
		<path
   id="path1468"
   fill="#fcef3c"
   stroke="#000000"
   stroke-width="3.2747"
   stroke-linejoin="round"
   d="m 13.829,-474.154 h -121.976 c -3.872,0 -7.012,3.14 -7.012,7.012 v 7.977 c 0,3.872 3.14,7.012 7.012,7.012 H 13.829 c 3.873,0 7.012,-3.14 7.012,-7.012 v -7.977 c 0,-3.873 -3.139,-7.012 -7.012,-7.012 z" />
	</g>
</g><g
       id="g1480"
       inkscape:label="Meubles"
       transform="matrix(0.36689055,0,0,0.36725475,816.59174,605.92608)"
       style="stroke-width:0.544848">
	<g
   id="g1478"
   transform="matrix(0.634793,0,0,0.634793,189.7236,734.7056)"
   style="stroke-width:0.544848">
		
			<path
   id="path1474"
   sodipodi:nodetypes="csssssscscsscccccccsscscssssssc"
   fill="#fcef3c"
   stroke="#000000"
   stroke-width="3.2747"
   d="m -48.097,-730.047 c 29.463,31.846 46.786,49.409 49.812,98.821 2.801,45.729 -27.628,83.959 -34.187,128.188 -1.245,8.389 -2.311,25.513 -1.188,32.457 0.832,5.143 3.392,20.856 6.187,1.414 0.575,-3.998 0.987,-24.059 2.75,-34.246 3.212,-18.561 13.499,-51.198 31.344,-69.282 17.838,-18.075 46.104,-29.799 71.312,-20.344 22.84,10.54 24.999,40.3 18.5,62.063 -8.139,27.256 -39.241,46.12 -67.125,47.969 5.525,-10.927 18.749,-42.114 4.406,-40.875 -16.602,1.432 -36.462,29.68 -41.633,49.058 -1.947,7.298 -1.16,18.628 -11.586,18.161 6.874,23.228 26.28,38.598 43.281,54.811 -17.722,1.474 -35.255,-6.866 -50.719,-14.812 0.654,15.925 -2.438,49.567 -21.157,67.937 -17.375,-18.916 -18.955,-41.986 -19.281,-67.937 -15.463,7.946 -32.996,16.285 -50.719,14.812 17.002,-16.213 36.407,-31.583 43.282,-54.811 -10.426,0.468 -11.053,-10.155 -13,-17.453 -5.171,-19.378 -23.616,-48.333 -40.219,-49.766 -14.343,-1.238 -1.118,29.948 4.406,40.875 -27.883,-1.849 -58.986,-20.713 -67.125,-47.969 -6.498,-21.764 -4.34,-51.524 18.5,-62.063 25.208,-9.455 53.475,2.269 71.313,20.344 17.845,18.084 28.131,50.721 31.343,69.282 1.763,10.187 1.468,28.834 2.043,32.832 2.795,19.442 6.062,5.143 6.894,0 1.125,-6.944 0.057,-24.068 -1.187,-32.457 -6.559,-44.229 -34.109,-84.015 -34.188,-128.188 -0.066,-39.886 19.987,-70.235 47.941,-98.821 z" />
		<path
   id="path1476"
   fill="#fcef3c"
   stroke="#000000"
   stroke-width="3.2747"
   stroke-linejoin="round"
   d="m 13.829,-474.154 h -121.976 c -3.872,0 -7.012,3.14 -7.012,7.012 v 7.977 c 0,3.872 3.14,7.012 7.012,7.012 H 13.829 c 3.873,0 7.012,-3.14 7.012,-7.012 v -7.977 c 0,-3.873 -3.139,-7.012 -7.012,-7.012 z" />
	</g>
</g><g
       id="g1488"
       inkscape:label="Meubles"
       transform="matrix(0.36689055,0,0,0.36725475,541.37598,605.92608)"
       style="stroke-width:0.544848">
	<g
   id="g1486"
   transform="matrix(0.634793,0,0,0.634793,189.7236,734.7056)"
   style="stroke-width:0.544848">
		
			<path
   id="path1482"
   sodipodi:nodetypes="csssssscscsscccccccsscscssssssc"
   fill="#fcef3c"
   stroke="#000000"
   stroke-width="3.2747"
   d="m -48.097,-730.047 c 29.463,31.846 46.786,49.409 49.812,98.821 2.801,45.729 -27.628,83.959 -34.187,128.188 -1.245,8.389 -2.311,25.513 -1.188,32.457 0.832,5.143 3.392,20.856 6.187,1.414 0.575,-3.998 0.987,-24.059 2.75,-34.246 3.212,-18.561 13.499,-51.198 31.344,-69.282 17.838,-18.075 46.104,-29.799 71.312,-20.344 22.84,10.54 24.999,40.3 18.5,62.063 -8.139,27.256 -39.241,46.12 -67.125,47.969 5.525,-10.927 18.749,-42.114 4.406,-40.875 -16.602,1.432 -36.462,29.68 -41.633,49.058 -1.947,7.298 -1.16,18.628 -11.586,18.161 6.874,23.228 26.28,38.598 43.281,54.811 -17.722,1.474 -35.255,-6.866 -50.719,-14.812 0.654,15.925 -2.438,49.567 -21.157,67.937 -17.375,-18.916 -18.955,-41.986 -19.281,-67.937 -15.463,7.946 -32.996,16.285 -50.719,14.812 17.002,-16.213 36.407,-31.583 43.282,-54.811 -10.426,0.468 -11.053,-10.155 -13,-17.453 -5.171,-19.378 -23.616,-48.333 -40.219,-49.766 -14.343,-1.238 -1.118,29.948 4.406,40.875 -27.883,-1.849 -58.986,-20.713 -67.125,-47.969 -6.498,-21.764 -4.34,-51.524 18.5,-62.063 25.208,-9.455 53.475,2.269 71.313,20.344 17.845,18.084 28.131,50.721 31.343,69.282 1.763,10.187 1.468,28.834 2.043,32.832 2.795,19.442 6.062,5.143 6.894,0 1.125,-6.944 0.057,-24.068 -1.187,-32.457 -6.559,-44.229 -34.109,-84.015 -34.188,-128.188 -0.066,-39.886 19.987,-70.235 47.941,-98.821 z" />
		<path
   id="path1484"
   fill="#fcef3c"
   stroke="#000000"
   stroke-width="3.2747"
   stroke-linejoin="round"
   d="m 13.829,-474.154 h -121.976 c -3.872,0 -7.012,3.14 -7.012,7.012 v 7.977 c 0,3.872 3.14,7.012 7.012,7.012 H 13.829 c 3.873,0 7.012,-3.14 7.012,-7.012 v -7.977 c 0,-3.873 -3.139,-7.012 -7.012,-7.012 z" />
	</g>
</g><g
       id="g1496"
       inkscape:label="Meubles"
       transform="matrix(0.36689055,0,0,0.36725475,266.16025,605.92608)"
       style="stroke-width:0.544848">
	<g
   id="g1494"
   transform="matrix(0.634793,0,0,0.634793,189.7236,734.7056)"
   style="stroke-width:0.544848">
		
			<path
   id="path1490"
   sodipodi:nodetypes="csssssscscsscccccccsscscssssssc"
   fill="#fcef3c"
   stroke="#000000"
   stroke-width="3.2747"
   d="m -48.097,-730.047 c 29.463,31.846 46.786,49.409 49.812,98.821 2.801,45.729 -27.628,83.959 -34.187,128.188 -1.245,8.389 -2.311,25.513 -1.188,32.457 0.832,5.143 3.392,20.856 6.187,1.414 0.575,-3.998 0.987,-24.059 2.75,-34.246 3.212,-18.561 13.499,-51.198 31.344,-69.282 17.838,-18.075 46.104,-29.799 71.312,-20.344 22.84,10.54 24.999,40.3 18.5,62.063 -8.139,27.256 -39.241,46.12 -67.125,47.969 5.525,-10.927 18.749,-42.114 4.406,-40.875 -16.602,1.432 -36.462,29.68 -41.633,49.058 -1.947,7.298 -1.16,18.628 -11.586,18.161 6.874,23.228 26.28,38.598 43.281,54.811 -17.722,1.474 -35.255,-6.866 -50.719,-14.812 0.654,15.925 -2.438,49.567 -21.157,67.937 -17.375,-18.916 -18.955,-41.986 -19.281,-67.937 -15.463,7.946 -32.996,16.285 -50.719,14.812 17.002,-16.213 36.407,-31.583 43.282,-54.811 -10.426,0.468 -11.053,-10.155 -13,-17.453 -5.171,-19.378 -23.616,-48.333 -40.219,-49.766 -14.343,-1.238 -1.118,29.948 4.406,40.875 -27.883,-1.849 -58.986,-20.713 -67.125,-47.969 -6.498,-21.764 -4.34,-51.524 18.5,-62.063 25.208,-9.455 53.475,2.269 71.313,20.344 17.845,18.084 28.131,50.721 31.343,69.282 1.763,10.187 1.468,28.834 2.043,32.832 2.795,19.442 6.062,5.143 6.894,0 1.125,-6.944 0.057,-24.068 -1.187,-32.457 -6.559,-44.229 -34.109,-84.015 -34.188,-128.188 -0.066,-39.886 19.987,-70.235 47.941,-98.821 z" />
		<path
   id="path1492"
   fill="#fcef3c"
   stroke="#000000"
   stroke-width="3.2747"
   stroke-linejoin="round"
   d="m 13.829,-474.154 h -121.976 c -3.872,0 -7.012,3.14 -7.012,7.012 v 7.977 c 0,3.872 3.14,7.012 7.012,7.012 H 13.829 c 3.873,0 7.012,-3.14 7.012,-7.012 v -7.977 c 0,-3.873 -3.139,-7.012 -7.012,-7.012 z" />
	</g>
</g><g
       id="g1504"
       inkscape:label="Meubles"
       transform="matrix(0.36689055,0,0,0.36725475,-9.0554797,139.25939)"
       style="stroke-width:0.544848">
	<g
   id="g1502"
   transform="matrix(0.634793,0,0,0.634793,189.7236,734.7056)"
   style="stroke-width:0.544848">
		
			<path
   id="path1498"
   sodipodi:nodetypes="csssssscscsscccccccsscscssssssc"
   fill="#fcef3c"
   stroke="#000000"
   stroke-width="3.2747"
   d="m -48.097,-730.047 c 29.463,31.846 46.786,49.409 49.812,98.821 2.801,45.729 -27.628,83.959 -34.187,128.188 -1.245,8.389 -2.311,25.513 -1.188,32.457 0.832,5.143 3.392,20.856 6.187,1.414 0.575,-3.998 0.987,-24.059 2.75,-34.246 3.212,-18.561 13.499,-51.198 31.344,-69.282 17.838,-18.075 46.104,-29.799 71.312,-20.344 22.84,10.54 24.999,40.3 18.5,62.063 -8.139,27.256 -39.241,46.12 -67.125,47.969 5.525,-10.927 18.749,-42.114 4.406,-40.875 -16.602,1.432 -36.462,29.68 -41.633,49.058 -1.947,7.298 -1.16,18.628 -11.586,18.161 6.874,23.228 26.28,38.598 43.281,54.811 -17.722,1.474 -35.255,-6.866 -50.719,-14.812 0.654,15.925 -2.438,49.567 -21.157,67.937 -17.375,-18.916 -18.955,-41.986 -19.281,-67.937 -15.463,7.946 -32.996,16.285 -50.719,14.812 17.002,-16.213 36.407,-31.583 43.282,-54.811 -10.426,0.468 -11.053,-10.155 -13,-17.453 -5.171,-19.378 -23.616,-48.333 -40.219,-49.766 -14.343,-1.238 -1.118,29.948 4.406,40.875 -27.883,-1.849 -58.986,-20.713 -67.125,-47.969 -6.498,-21.764 -4.34,-51.524 18.5,-62.063 25.208,-9.455 53.475,2.269 71.313,20.344 17.845,18.084 28.131,50.721 31.343,69.282 1.763,10.187 1.468,28.834 2.043,32.832 2.795,19.442 6.062,5.143 6.894,0 1.125,-6.944 0.057,-24.068 -1.187,-32.457 -6.559,-44.229 -34.109,-84.015 -34.188,-128.188 -0.066,-39.886 19.987,-70.235 47.941,-98.821 z" />
		<path
   id="path1500"
   fill="#fcef3c"
   stroke="#000000"
   stroke-width="3.2747"
   stroke-linejoin="round"
   d="m 13.829,-474.154 h -121.976 c -3.872,0 -7.012,3.14 -7.012,7.012 v 7.977 c 0,3.872 3.14,7.012 7.012,7.012 H 13.829 c 3.873,0 7.012,-3.14 7.012,-7.012 v -7.977 c 0,-3.873 -3.139,-7.012 -7.012,-7.012 z" />
	</g>
</g><g
       id="g1512"
       inkscape:label="Meubles"
       transform="matrix(0.36689055,0,0,0.36725475,-9.0554797,372.59271)"
       style="stroke-width:0.544848">
	<g
   id="g1510"
   transform="matrix(0.634793,0,0,0.634793,189.7236,734.7056)"
   style="stroke-width:0.544848">
		
			<path
   id="path1506"
   sodipodi:nodetypes="csssssscscsscccccccsscscssssssc"
   fill="#fcef3c"
   stroke="#000000"
   stroke-width="3.2747"
   d="m -48.097,-730.047 c 29.463,31.846 46.786,49.409 49.812,98.821 2.801,45.729 -27.628,83.959 -34.187,128.188 -1.245,8.389 -2.311,25.513 -1.188,32.457 0.832,5.143 3.392,20.856 6.187,1.414 0.575,-3.998 0.987,-24.059 2.75,-34.246 3.212,-18.561 13.499,-51.198 31.344,-69.282 17.838,-18.075 46.104,-29.799 71.312,-20.344 22.84,10.54 24.999,40.3 18.5,62.063 -8.139,27.256 -39.241,46.12 -67.125,47.969 5.525,-10.927 18.749,-42.114 4.406,-40.875 -16.602,1.432 -36.462,29.68 -41.633,49.058 -1.947,7.298 -1.16,18.628 -11.586,18.161 6.874,23.228 26.28,38.598 43.281,54.811 -17.722,1.474 -35.255,-6.866 -50.719,-14.812 0.654,15.925 -2.438,49.567 -21.157,67.937 -17.375,-18.916 -18.955,-41.986 -19.281,-67.937 -15.463,7.946 -32.996,16.285 -50.719,14.812 17.002,-16.213 36.407,-31.583 43.282,-54.811 -10.426,0.468 -11.053,-10.155 -13,-17.453 -5.171,-19.378 -23.616,-48.333 -40.219,-49.766 -14.343,-1.238 -1.118,29.948 4.406,40.875 -27.883,-1.849 -58.986,-20.713 -67.125,-47.969 -6.498,-21.764 -4.34,-51.524 18.5,-62.063 25.208,-9.455 53.475,2.269 71.313,20.344 17.845,18.084 28.131,50.721 31.343,69.282 1.763,10.187 1.468,28.834 2.043,32.832 2.795,19.442 6.062,5.143 6.894,0 1.125,-6.944 0.057,-24.068 -1.187,-32.457 -6.559,-44.229 -34.109,-84.015 -34.188,-128.188 -0.066,-39.886 19.987,-70.235 47.941,-98.821 z" />
		<path
   id="path1508"
   fill="#fcef3c"
   stroke="#000000"
   stroke-width="3.2747"
   stroke-linejoin="round"
   d="m 13.829,-474.154 h -121.976 c -3.872,0 -7.012,3.14 -7.012,7.012 v 7.977 c 0,3.872 3.14,7.012 7.012,7.012 H 13.829 c 3.873,0 7.012,-3.14 7.012,-7.012 v -7.977 c 0,-3.873 -3.139,-7.012 -7.012,-7.012 z" />
	</g>
</g><g
       id="g1520"
       inkscape:label="Meubles"
       transform="matrix(0.36689055,0,0,0.36725475,1091.8075,139.25939)"
       style="stroke-width:0.544848">
	<g
   id="g1518"
   transform="matrix(0.634793,0,0,0.634793,189.7236,734.7056)"
   style="stroke-width:0.544848">
		
			<path
   id="path1514"
   sodipodi:nodetypes="csssssscscsscccccccsscscssssssc"
   fill="#fcef3c"
   stroke="#000000"
   stroke-width="3.2747"
   d="m -48.097,-730.047 c 29.463,31.846 46.786,49.409 49.812,98.821 2.801,45.729 -27.628,83.959 -34.187,128.188 -1.245,8.389 -2.311,25.513 -1.188,32.457 0.832,5.143 3.392,20.856 6.187,1.414 0.575,-3.998 0.987,-24.059 2.75,-34.246 3.212,-18.561 13.499,-51.198 31.344,-69.282 17.838,-18.075 46.104,-29.799 71.312,-20.344 22.84,10.54 24.999,40.3 18.5,62.063 -8.139,27.256 -39.241,46.12 -67.125,47.969 5.525,-10.927 18.749,-42.114 4.406,-40.875 -16.602,1.432 -36.462,29.68 -41.633,49.058 -1.947,7.298 -1.16,18.628 -11.586,18.161 6.874,23.228 26.28,38.598 43.281,54.811 -17.722,1.474 -35.255,-6.866 -50.719,-14.812 0.654,15.925 -2.438,49.567 -21.157,67.937 -17.375,-18.916 -18.955,-41.986 -19.281,-67.937 -15.463,7.946 -32.996,16.285 -50.719,14.812 17.002,-16.213 36.407,-31.583 43.282,-54.811 -10.426,0.468 -11.053,-10.155 -13,-17.453 -5.171,-19.378 -23.616,-48.333 -40.219,-49.766 -14.343,-1.238 -1.118,29.948 4.406,40.875 -27.883,-1.849 -58.986,-20.713 -67.125,-47.969 -6.498,-21.764 -4.34,-51.524 18.5,-62.063 25.208,-9.455 53.475,2.269 71.313,20.344 17.845,18.084 28.131,50.721 31.343,69.282 1.763,10.187 1.468,28.834 2.043,32.832 2.795,19.442 6.062,5.143 6.894,0 1.125,-6.944 0.057,-24.068 -1.187,-32.457 -6.559,-44.229 -34.109,-84.015 -34.188,-128.188 -0.066,-39.886 19.987,-70.235 47.941,-98.821 z" />
		<path
   id="path1516"
   fill="#fcef3c"
   stroke="#000000"
   stroke-width="3.2747"
   stroke-linejoin="round"
   d="m 13.829,-474.154 h -121.976 c -3.872,0 -7.012,3.14 -7.012,7.012 v 7.977 c 0,3.872 3.14,7.012 7.012,7.012 H 13.829 c 3.873,0 7.012,-3.14 7.012,-7.012 v -7.977 c 0,-3.873 -3.139,-7.012 -7.012,-7.012 z" />
	</g>
</g><g
       id="g1528"
       inkscape:label="Meubles"
       transform="matrix(0.36689055,0,0,0.36725475,1091.8075,372.59271)"
       style="stroke-width:0.544848">
	<g
   id="g1526"
   transform="matrix(0.634793,0,0,0.634793,189.7236,734.7056)"
   style="stroke-width:0.544848">
		
			<path
   id="path1522"
   sodipodi:nodetypes="csssssscscsscccccccsscscssssssc"
   fill="#fcef3c"
   stroke="#000000"
   stroke-width="3.2747"
   d="m -48.097,-730.047 c 29.463,31.846 46.786,49.409 49.812,98.821 2.801,45.729 -27.628,83.959 -34.187,128.188 -1.245,8.389 -2.311,25.513 -1.188,32.457 0.832,5.143 3.392,20.856 6.187,1.414 0.575,-3.998 0.987,-24.059 2.75,-34.246 3.212,-18.561 13.499,-51.198 31.344,-69.282 17.838,-18.075 46.104,-29.799 71.312,-20.344 22.84,10.54 24.999,40.3 18.5,62.063 -8.139,27.256 -39.241,46.12 -67.125,47.969 5.525,-10.927 18.749,-42.114 4.406,-40.875 -16.602,1.432 -36.462,29.68 -41.633,49.058 -1.947,7.298 -1.16,18.628 -11.586,18.161 6.874,23.228 26.28,38.598 43.281,54.811 -17.722,1.474 -35.255,-6.866 -50.719,-14.812 0.654,15.925 -2.438,49.567 -21.157,67.937 -17.375,-18.916 -18.955,-41.986 -19.281,-67.937 -15.463,7.946 -32.996,16.285 -50.719,14.812 17.002,-16.213 36.407,-31.583 43.282,-54.811 -10.426,0.468 -11.053,-10.155 -13,-17.453 -5.171,-19.378 -23.616,-48.333 -40.219,-49.766 -14.343,-1.238 -1.118,29.948 4.406,40.875 -27.883,-1.849 -58.986,-20.713 -67.125,-47.969 -6.498,-21.764 -4.34,-51.524 18.5,-62.063 25.208,-9.455 53.475,2.269 71.313,20.344 17.845,18.084 28.131,50.721 31.343,69.282 1.763,10.187 1.468,28.834 2.043,32.832 2.795,19.442 6.062,5.143 6.894,0 1.125,-6.944 0.057,-24.068 -1.187,-32.457 -6.559,-44.229 -34.109,-84.015 -34.188,-128.188 -0.066,-39.886 19.987,-70.235 47.941,-98.821 z" />
		<path
   id="path1524"
   fill="#fcef3c"
   stroke="#000000"
   stroke-width="3.2747"
   stroke-linejoin="round"
   d="m 13.829,-474.154 h -121.976 c -3.872,0 -7.012,3.14 -7.012,7.012 v 7.977 c 0,3.872 3.14,7.012 7.012,7.012 H 13.829 c 3.873,0 7.012,-3.14 7.012,-7.012 v -7.977 c 0,-3.873 -3.139,-7.012 -7.012,-7.012 z" />
	</g>
</g></g></svg>
