<?xml version="1.0" encoding="UTF-8" standalone="no"?>
<!-- Created with Inkscape (http://www.inkscape.org/) -->
<svg
   xmlns:dc="http://purl.org/dc/elements/1.1/"
   xmlns:cc="http://web.resource.org/cc/"
   xmlns:rdf="http://www.w3.org/1999/02/22-rdf-syntax-ns#"
   xmlns:svg="http://www.w3.org/2000/svg"
   xmlns="http://www.w3.org/2000/svg"
   xmlns:sodipodi="http://sodipodi.sourceforge.net/DTD/sodipodi-0.dtd"
   xmlns:inkscape="http://www.inkscape.org/namespaces/inkscape"
   width="1203.6875"
   height="798.18823"
   id="svg2"
   sodipodi:version="0.32"
   inkscape:version="0.45.1"
   sodipodi:docbase="C:\Users\Jany\Documents\aaaOuiqui\Drapeaux"
   sodipodi:docname="Drapeau fr département Haute-Vienne.svg"
   inkscape:output_extension="org.inkscape.output.svg.inkscape"
   version="1.0">
  <defs
     id="defs4" />
  <sodipodi:namedview
     id="base"
     pagecolor="#ffffff"
     bordercolor="#666666"
     borderopacity="1.0"
     inkscape:pageopacity="0.0"
     inkscape:pageshadow="2"
     inkscape:zoom="0.49497475"
     inkscape:cx="827.23839"
     inkscape:cy="310.88422"
     inkscape:document-units="px"
     inkscape:current-layer="layer1"
     inkscape:window-width="1134"
     inkscape:window-height="814"
     inkscape:window-x="0"
     inkscape:window-y="14"
     showguides="true"
     inkscape:guide-bbox="true">
    <sodipodi:guide
       orientation="vertical"
       position="-745.49257"
       id="guide28349" />
  </sodipodi:namedview>
  <metadata
     id="metadata7">
    <rdf:RDF>
      <cc:Work
         rdf:about="">
        <dc:format>image/svg+xml</dc:format>
        <dc:type
           rdf:resource="http://purl.org/dc/dcmitype/StillImage" />
      </cc:Work>
    </rdf:RDF>
  </metadata>
  <g
     inkscape:label="Calque 1"
     inkscape:groupmode="layer"
     id="layer1"
     transform="translate(1126.1107,-137.47842)"
     style="display:inline">
    <g
       transform="translate(-1022.3356,584.65272)"
       id="g22331"
       style="display:inline" />
    <path
       style="fill:none;fill-opacity:0.75;fill-rule:evenodd;stroke:none;stroke-width:3;stroke-linecap:butt;stroke-linejoin:miter;stroke-miterlimit:4;stroke-dasharray:none;stroke-opacity:1;display:inline"
       d="M 95.2819,215.06078 L 95.2819,-235.96609"
       id="path11207" />
    <rect
       transform="matrix(0,-1,1,0,0,0)"
       y="-44.954388"
       x="557.12079"
       height="0"
       width="1.5233166"
       id="rect12745"
       style="fill:#ffffff;fill-opacity:1;fill-rule:evenodd;stroke:none;stroke-width:1.52331662;stroke-linecap:round;stroke-linejoin:round;stroke-miterlimit:4;stroke-dasharray:none;stroke-dashoffset:0;stroke-opacity:1" />
    <path
       sodipodi:nodetypes="ccccc"
       id="rect2239"
       d="M -1125.856,137.67842 L 77.322119,137.67842 L 77.322119,934.47007 L -1125.856,934.47007 L -1125.856,137.67842 z "
       style="fill:#ffffff;fill-opacity:1;stroke:#000000;stroke-width:0.40000001;stroke-miterlimit:4;stroke-dasharray:none;stroke-opacity:1" />
    <path
       style="fill:none;fill-rule:evenodd;stroke:#000000;stroke-width:0.98280448px;stroke-linecap:butt;stroke-linejoin:miter;stroke-opacity:1"
       d="M 212.19321,1320.0324 L 212.19321,1320.0324 z "
       id="path30950" />
    <path
       style="fill:#000000;fill-opacity:1;stroke:none;stroke-width:0.40000001;stroke-miterlimit:4;stroke-dasharray:none;stroke-opacity:1;display:inline"
       d="M -1125.8607,137.6829 L -1125.8607,176.1829 C -1123.8293,166.33831 -1122.1738,152.17233 -1120.5482,137.6829 L -1125.8607,137.6829 z M -1108.4232,137.6829 C -1104.9212,141.73535 -1101.1228,145.65337 -1096.7357,149.2454 L -1101.6732,137.6829 L -1108.4232,137.6829 z M -978.45443,137.6829 C -980.17902,141.43238 -981.91734,145.11872 -983.64193,148.8079 C -981.98814,148.16966 -978.00555,144.11395 -972.45443,137.6829 L -978.45443,137.6829 z M -960.42318,137.6829 C -958.83281,152.71585 -956.81651,167.70209 -954.07943,177.6204 C -951.90742,167.74996 -950.16031,152.88818 -948.45443,137.6829 L -960.42318,137.6829 z M -936.29818,137.6829 C -932.79668,141.73457 -929.02823,145.65402 -924.64193,149.2454 L -929.57943,137.6829 L -936.29818,137.6829 z M -806.36068,137.6829 C -808.08528,141.43238 -809.82359,145.11872 -811.54818,148.8079 C -809.8944,148.16966 -805.9118,144.11395 -800.36068,137.6829 L -806.36068,137.6829 z M -788.32943,137.6829 C -786.73906,152.71585 -784.72276,167.70209 -781.98568,177.6204 C -779.81367,167.74996 -778.06656,152.88818 -776.36068,137.6829 L -788.32943,137.6829 z M -764.20443,137.6829 C -760.70293,141.73457 -756.93448,145.65402 -752.54818,149.2454 L -757.48568,137.6829 L -764.20443,137.6829 z M -634.26693,137.6829 C -635.99152,141.43238 -637.72984,145.11872 -639.45443,148.8079 C -637.8008,148.16972 -633.81729,144.11297 -628.26693,137.6829 L -634.26693,137.6829 z M -616.23568,137.6829 C -614.64531,152.71585 -612.62901,167.70209 -609.89193,177.6204 C -607.71991,167.74996 -605.9728,152.88818 -604.26693,137.6829 L -616.23568,137.6829 z M -592.11068,137.6829 C -588.60918,141.73457 -584.84073,145.65402 -580.45443,149.2454 L -585.39193,137.6829 L -592.11068,137.6829 z M -462.17318,137.6829 C -463.89778,141.43238 -465.63609,145.11872 -467.36068,148.8079 C -465.70706,148.16972 -461.72354,144.11297 -456.17318,137.6829 L -462.17318,137.6829 z M -444.14193,137.6829 C -442.55156,152.71585 -440.53526,167.70209 -437.79818,177.6204 C -435.62617,167.74996 -433.87906,152.88818 -432.17318,137.6829 L -444.14193,137.6829 z M -420.01693,137.6829 C -416.51543,141.73457 -412.71573,145.65402 -408.32943,149.2454 L -413.26693,137.6829 L -420.01693,137.6829 z M -290.07943,137.6829 C -291.80402,141.43238 -293.51109,145.11872 -295.23568,148.8079 C -293.58203,148.16972 -289.62978,144.11297 -284.07943,137.6829 L -290.07943,137.6829 z M -272.04818,137.6829 C -270.45781,152.71585 -268.41026,167.70209 -265.67318,177.6204 C -263.50118,167.74996 -261.78531,152.88818 -260.07943,137.6829 L -272.04818,137.6829 z M -247.92318,137.6829 C -244.42168,141.73457 -240.62198,145.65402 -236.23568,149.2454 L -241.17318,137.6829 L -247.92318,137.6829 z M -117.98568,137.6829 C -119.70958,141.4307 -121.41808,145.1203 -123.14188,148.8079 C -121.48828,148.16972 -117.53608,144.11297 -111.98568,137.6829 L -117.98568,137.6829 z M -99.954376,137.6829 C -98.364076,152.71585 -96.316476,167.70209 -93.579376,177.6204 C -91.407376,167.74996 -89.691576,152.88818 -87.985676,137.6829 L -99.954376,137.6829 z M -75.829376,137.6829 C -72.327376,141.73535 -68.528976,145.65337 -64.141876,149.2454 L -69.079376,137.6829 L -75.829376,137.6829 z M 54.139324,137.6829 C 52.414724,141.43238 50.676424,145.11872 48.951824,148.8079 C 50.605624,148.16966 54.588224,144.11395 60.139324,137.6829 L 54.139324,137.6829 z M 72.139324,137.6829 C 73.492824,150.47686 75.170524,163.23545 77.326824,172.8704 L 77.326824,137.6829 L 72.139324,137.6829 z M -1042.6732,142.0579 C -1030.7751,158.85833 -1064.0482,165.62508 -1046.1107,181.52665 C -1038.4608,186.92582 -1020.6617,175.20419 -1036.3607,160.83915 C -1038.3891,159.60939 -1029.2261,151.06802 -1042.6732,142.0579 z M -870.54818,142.0579 C -858.65011,158.85833 -891.95436,165.62508 -874.01693,181.52665 C -866.367,186.92582 -848.56791,175.20419 -864.26693,160.83915 C -866.29528,159.60939 -857.1011,151.06802 -870.54818,142.0579 z M -698.45443,142.0579 C -686.55638,158.85833 -719.86061,165.62508 -701.92318,181.52665 C -694.27324,186.92582 -676.47416,175.20419 -692.17318,160.83915 C -694.20152,159.60939 -685.00735,151.06802 -698.45443,142.0579 z M -526.36068,142.0579 C -514.4626,158.85833 -547.76686,165.62508 -529.82943,181.52665 C -522.17952,186.92582 -504.38041,175.20419 -520.07943,160.83915 C -522.10777,159.60939 -512.9136,151.06802 -526.36068,142.0579 z M -354.26693,142.0579 C -342.36886,158.85833 -375.67311,165.62508 -357.73568,181.52665 C -350.08572,186.92582 -332.25541,175.20419 -347.95443,160.83915 C -349.98279,159.60939 -340.81985,151.06802 -354.26693,142.0579 z M -182.17318,142.0579 C -170.27513,158.85833 -203.54811,165.62508 -185.61068,181.52665 C -177.96074,186.92582 -160.16166,175.20419 -175.86068,160.83915 C -177.88905,159.60939 -168.7261,151.06802 -182.17318,142.0579 z M -10.079376,142.0579 C 1.8187242,158.85833 -31.454376,165.62508 -13.516876,181.52665 C -5.8670758,186.92582 11.932124,175.20419 -3.7668758,160.83915 C -5.7952758,159.60939 3.3676242,151.06802 -10.079376,142.0579 z M -1021.5482,181.9329 C -1024.9861,181.75796 -1028.2663,183.58476 -1031.3607,189.6829 C -1034.7562,198.62832 -1019.8789,214.16338 -1009.8294,195.08915 C -1009.1183,192.76134 -999.12862,200.20863 -993.61068,184.58915 C -1003.0716,195.90662 -1012.7624,182.37998 -1021.5482,181.9329 z M -849.42318,181.9329 C -852.86111,181.75796 -856.17249,183.58476 -859.26693,189.6829 C -862.66245,198.62832 -847.78519,214.16338 -837.73568,195.08915 C -837.02467,192.76134 -827.03487,200.20863 -821.51693,184.58915 C -830.97783,195.90662 -840.63736,182.37998 -849.42318,181.9329 z M -677.32943,181.9329 C -680.76736,181.75796 -684.07874,183.58476 -687.17318,189.6829 C -690.56872,198.62832 -675.69144,214.16338 -665.64193,195.08915 C -664.93091,192.76134 -654.90987,200.20863 -649.39193,184.58915 C -658.85285,195.90662 -668.54361,182.37998 -677.32943,181.9329 z M -505.23568,181.9329 C -508.67361,181.75796 -511.98499,183.58476 -515.07943,189.6829 C -518.47497,198.62832 -503.59769,214.16338 -493.54818,195.08915 C -492.83713,192.76134 -482.81612,200.20863 -477.29818,184.58915 C -486.7591,195.90662 -496.44986,182.37998 -505.23568,181.9329 z M -333.14193,181.9329 C -336.57986,181.75796 -339.89124,183.58476 -342.98568,189.6829 C -346.38123,198.62832 -331.50394,214.16338 -321.45443,195.08915 C -320.7434,192.76134 -310.72237,200.20863 -305.20443,184.58915 C -314.66536,195.90662 -324.35612,182.37998 -333.14193,181.9329 z M -161.04818,181.9329 C -164.48611,181.75796 -167.79749,183.58476 -170.89193,189.6829 C -174.28743,198.62832 -159.41019,214.16338 -149.36068,195.08915 C -148.64966,192.76134 -138.62862,200.20863 -133.11068,184.58915 C -142.57158,195.90662 -152.26236,182.37998 -161.04818,181.9329 z M 11.045624,181.9329 C 7.6076242,181.75796 4.3275242,183.58476 1.2331242,189.6829 C -2.1624758,198.62832 12.683524,214.16338 22.733124,195.08915 C 23.444124,192.76134 33.465124,200.20863 38.983124,184.58915 C 29.522124,195.90662 19.831424,182.37998 11.045624,181.9329 z M -1059.5794,182.15165 C -1068.3653,182.59873 -1078.056,196.09412 -1087.5169,184.77665 C -1081.999,200.39613 -1072.0092,192.94884 -1071.2982,195.27665 C -1061.2487,214.35088 -1046.3714,198.84707 -1049.7669,189.90165 C -1052.8614,183.80351 -1056.1415,181.97671 -1059.5794,182.15165 z M -887.48568,182.15165 C -896.2715,182.59873 -905.96227,196.09412 -915.42318,184.77665 C -909.90524,200.39613 -899.88419,192.94884 -899.17318,195.27665 C -889.12367,214.35088 -874.27765,198.84707 -877.67318,189.90165 C -880.76762,183.80351 -884.04775,181.97671 -887.48568,182.15165 z M -715.39193,182.15165 C -724.17775,182.59873 -733.86851,196.09412 -743.32943,184.77665 C -737.81149,200.39613 -727.79045,192.94884 -727.07943,195.27665 C -717.02992,214.35088 -702.15265,198.84707 -705.54818,189.90165 C -708.64262,183.80351 -711.954,181.97671 -715.39193,182.15165 z M -543.29818,182.15165 C -552.08401,182.59873 -561.77479,196.09412 -571.23568,184.77665 C -565.71774,200.39613 -555.6967,192.94884 -554.98568,195.27665 C -544.93617,214.35088 -530.05893,198.84707 -533.45443,189.90165 C -536.54887,183.80351 -539.86025,181.97671 -543.29818,182.15165 z M -371.20443,182.15165 C -379.99024,182.59873 -389.681,196.09412 -399.14193,184.77665 C -393.62399,200.39613 -383.60297,192.94884 -382.89193,195.27665 C -372.84242,214.35088 -357.96513,198.84707 -361.36068,189.90165 C -364.45512,183.80351 -367.7665,181.97671 -371.20443,182.15165 z M -199.11068,182.15165 C -207.8965,182.59873 -217.58726,196.09412 -227.04818,184.77665 C -221.53024,200.39613 -211.50923,192.94884 -210.79818,195.27665 C -200.74867,214.35088 -185.87139,198.84707 -189.26693,189.90165 C -192.36137,183.80351 -195.67275,181.97671 -199.11068,182.15165 z M -27.016876,182.15165 C -35.802776,182.59873 -45.462276,196.09412 -54.923176,184.77665 C -49.405276,200.39613 -39.415376,192.94884 -38.704376,195.27665 C -28.654876,214.35088 -13.777676,198.84707 -17.173176,189.90165 C -20.267576,183.80351 -23.578976,181.97671 -27.016876,182.15165 z M -1039.7982,192.96415 C -1047.535,232.98663 -1061.9431,261.31121 -1077.6107,281.6829 C -1071.0978,279.64949 -1063.7833,273.86572 -1056.7044,268.8079 C -1061.0335,279.30284 -1065.3441,288.48475 -1069.6732,297.7454 C -1067.0884,296.74785 -1058.907,287.39667 -1047.7669,273.6829 C -1046.0203,292.53607 -1043.6385,313.77433 -1040.1107,326.5579 C -1037.3022,313.79479 -1035.2459,292.67286 -1033.0169,273.27665 C -1026.3008,281.9503 -1019.7603,290.71144 -1010.6732,298.15165 L -1023.4544,268.27665 C -1016.8669,273.07062 -1009.5651,279.41419 -1002.5794,282.08915 C -1019.1425,260.70095 -1033.1108,232.99094 -1039.7982,192.96415 z M -867.70443,192.96415 C -875.44125,232.98663 -889.84935,261.31121 -905.51693,281.6829 C -899.00406,279.64949 -891.6896,273.86572 -884.61068,268.8079 C -888.9398,279.30284 -893.25032,288.48475 -897.57943,297.7454 C -894.99464,296.74785 -886.81331,287.39667 -875.67318,273.6829 C -873.92669,292.53607 -871.54471,313.77433 -868.01693,326.5579 C -865.20838,313.79479 -863.15216,292.67286 -860.92318,273.27665 C -854.2071,281.9503 -847.66647,290.71144 -838.57943,298.15165 L -851.32943,268.27665 C -844.74197,273.07062 -837.4714,279.41419 -830.48568,282.08915 C -847.04885,260.70095 -861.01699,232.99094 -867.70443,192.96415 z M -695.57943,192.96415 C -703.31625,232.98663 -717.7556,261.31121 -733.42318,281.6829 C -726.9103,279.64949 -719.59585,273.86572 -712.51693,268.8079 C -716.84605,279.30284 -721.15657,288.48475 -725.48568,297.7454 C -722.90088,296.74785 -714.71956,287.39667 -703.57943,273.6829 C -701.83294,292.53607 -699.45096,313.77433 -695.92318,326.5579 C -693.11462,313.79479 -691.05841,292.67286 -688.82943,273.27665 C -682.11334,281.9503 -675.57272,290.71144 -666.48568,298.15165 L -679.23568,268.27665 C -672.64821,273.07062 -665.37765,279.41419 -658.39193,282.08915 C -674.95509,260.70095 -688.89199,232.99094 -695.57943,192.96415 z M -523.48568,192.96415 C -531.22253,232.98663 -545.66185,261.31121 -561.32943,281.6829 C -554.81656,279.64949 -547.5021,273.86572 -540.42318,268.8079 C -544.75227,279.30284 -549.06282,288.48475 -553.39193,297.7454 C -550.80716,296.74785 -542.59456,287.39667 -531.45443,273.6829 C -529.70792,292.53607 -527.35721,313.77433 -523.82943,326.5579 C -521.02087,313.79479 -518.93341,292.67286 -516.70443,273.27665 C -509.98834,281.9503 -503.47897,290.71144 -494.39193,298.15165 L -507.14193,268.27665 C -500.55446,273.07062 -493.2839,279.41419 -486.29818,282.08915 C -502.86134,260.70095 -516.79824,232.99094 -523.48568,192.96415 z M -351.39193,192.96415 C -359.12873,232.98663 -373.5681,261.31121 -389.23568,281.6829 C -382.72282,279.64949 -375.3771,273.86572 -368.29818,268.8079 C -372.62729,279.30284 -376.96907,288.48475 -381.29818,297.7454 C -378.71336,296.74785 -370.50081,287.39667 -359.36068,273.6829 C -357.61418,292.53607 -355.26346,313.77433 -351.73568,326.5579 C -348.92714,313.79479 -346.83966,292.67286 -344.61068,273.27665 C -337.89461,281.9503 -331.38522,290.71144 -322.29818,298.15165 L -335.04818,268.27665 C -328.46072,273.07062 -321.19015,279.41419 -314.20443,282.08915 C -330.7676,260.70095 -344.70449,232.99094 -351.39193,192.96415 z M -179.29818,192.96415 C -187.03499,232.98663 -201.47435,261.31121 -217.14193,281.6829 C -210.62908,279.64949 -203.28335,273.86572 -196.20443,268.8079 C -200.53355,279.30284 -204.87532,288.48475 -209.20443,297.7454 C -206.61962,296.74785 -198.40706,287.39667 -187.26693,273.6829 C -185.52044,292.53607 -183.16971,313.77433 -179.64193,326.5579 C -176.8334,313.79479 -174.74591,292.67286 -172.51693,273.27665 C -165.80087,281.9503 -159.29147,290.71144 -150.20443,298.15165 L -162.95443,268.27665 C -156.36698,273.07062 -149.0964,279.41419 -142.11068,282.08915 C -158.67386,260.70095 -172.61074,232.99094 -179.29818,192.96415 z M -7.2043758,192.96415 C -14.941276,232.98663 -29.349376,261.31121 -45.016876,281.6829 C -38.504076,279.64949 -31.189576,273.86572 -24.110676,268.8079 C -28.439776,279.30284 -32.781576,288.48475 -37.110676,297.7454 C -34.525876,296.74785 -26.313276,287.39667 -15.173176,273.6829 C -13.426676,292.53607 -11.075976,313.77433 -7.5481758,326.5579 C -4.7395758,313.79479 -2.6521758,292.67286 -0.42317576,273.27665 C 6.2929242,281.9503 12.802324,290.71144 21.889324,298.15165 L 9.1393242,268.27665 C 15.726824,273.07062 22.997324,279.41419 29.983124,282.08915 C 13.419924,260.70095 -0.51697576,232.99094 -7.2043758,192.96415 z M -956.61068,290.9954 C -944.71262,307.79583 -977.98561,314.53133 -960.04818,330.4329 C -952.39825,335.83207 -934.59916,324.14169 -950.29818,309.77665 C -952.32653,308.54689 -943.1636,300.00552 -956.61068,290.9954 z M -784.51693,290.9954 C -772.61886,307.79583 -805.89186,314.53133 -787.95443,330.4329 C -780.3045,335.83207 -762.50541,324.14169 -778.20443,309.77665 C -780.23279,308.54689 -771.06985,300.00552 -784.51693,290.9954 z M -612.42318,290.9954 C -600.52509,307.79583 -633.79811,314.53133 -615.86068,330.4329 C -608.21074,335.83207 -590.41166,324.14169 -606.11068,309.77665 C -608.13902,308.54689 -598.9761,300.00552 -612.42318,290.9954 z M -440.32943,290.9954 C -428.43136,307.79583 -461.70436,314.53133 -443.76693,330.4329 C -436.11703,335.83207 -418.31791,324.14169 -434.01693,309.77665 C -436.04528,308.54689 -426.88235,300.00552 -440.32943,290.9954 z M -268.23568,290.9954 C -256.33762,307.79583 -289.61061,314.53133 -271.67318,330.4329 C -264.02323,335.83207 -246.22416,324.14169 -261.92318,309.77665 C -263.95154,308.54689 -254.7886,300.00552 -268.23568,290.9954 z M -96.110676,290.9954 C -84.212576,307.79583 -117.51688,314.53133 -99.579376,330.4329 C -91.929576,335.83207 -74.130376,324.14169 -89.829376,309.77665 C -91.857776,308.54689 -82.663576,300.00552 -96.110676,290.9954 z M 75.983124,290.9954 C 76.540824,291.78292 76.957724,292.53128 77.326824,293.27665 L 77.326824,291.96415 C 76.901224,291.64259 76.465224,291.31849 75.983124,290.9954 z M -1125.8607,293.1829 L -1125.8607,331.65165 C -1118.133,330.37404 -1110.2729,320.86588 -1122.3919,309.77665 C -1124.2546,308.64734 -1116.6982,301.34419 -1125.8607,293.1829 z M 77.326824,303.40165 C 72.993224,312.41085 59.712224,319.08379 72.514324,330.4329 C 73.876924,331.39463 75.566624,331.81933 77.326824,331.77665 L 77.326824,303.40165 z M -1108.7357,330.8704 C -1111.7636,331.13509 -1114.6726,333.19983 -1117.4232,338.6204 C -1120.8187,347.56582 -1105.9414,363.06963 -1095.8919,343.9954 C -1095.1808,341.66759 -1085.1598,349.11488 -1079.6419,333.4954 C -1089.5142,345.30493 -1099.6519,330.07633 -1108.7357,330.8704 z M -936.64193,330.8704 C -939.66987,331.13509 -942.57882,333.19983 -945.32943,338.6204 C -948.72496,347.56582 -933.84769,363.06963 -923.79818,343.9954 C -923.08716,341.66759 -913.06612,349.11488 -907.54818,333.4954 C -917.42044,345.30493 -927.55811,330.07633 -936.64193,330.8704 z M -764.51693,330.8704 C -767.54487,331.13509 -770.48507,333.19983 -773.23568,338.6204 C -776.6312,347.56582 -761.75394,363.06963 -751.70443,343.9954 C -750.9934,341.66759 -740.97237,349.11488 -735.45443,333.4954 C -745.32668,345.30493 -755.43311,330.07633 -764.51693,330.8704 z M -592.42318,330.8704 C -595.45112,331.13509 -598.36007,333.19983 -601.11068,338.6204 C -604.50621,347.56582 -589.62894,363.06963 -579.57943,343.9954 C -578.86844,341.66759 -568.87862,349.11488 -563.36068,333.4954 C -573.23294,345.30493 -583.33936,330.07633 -592.42318,330.8704 z M -420.32943,330.8704 C -423.35737,331.13509 -426.26632,333.19983 -429.01693,338.6204 C -432.41248,347.56582 -417.53519,363.06963 -407.48568,343.9954 C -406.77464,341.66759 -396.78487,349.11488 -391.26693,333.4954 C -401.1392,345.30493 -411.24561,330.07633 -420.32943,330.8704 z M -248.23568,330.8704 C -251.26362,331.13509 -254.17257,333.19983 -256.92318,338.6204 C -260.31874,347.56582 -245.44144,363.06963 -235.39193,343.9954 C -234.6809,341.66759 -224.69112,349.11488 -219.17318,333.4954 C -229.04546,345.30493 -239.15186,330.07633 -248.23568,330.8704 z M -76.141876,330.8704 C -79.169876,331.13509 -82.078776,333.19983 -84.829376,338.6204 C -88.224976,347.56582 -73.347676,363.06963 -63.298176,343.9954 C -62.587076,341.66759 -52.597376,349.11488 -47.079376,333.4954 C -56.951676,345.30493 -67.058076,330.07633 -76.141876,330.8704 z M -973.54818,331.0579 C -982.334,331.50498 -992.02479,345.03162 -1001.4857,333.71415 C -995.96777,349.33363 -985.9467,341.88634 -985.23568,344.21415 C -975.18617,363.28838 -960.3089,347.75332 -963.70443,338.8079 C -966.79887,332.70976 -970.11025,330.88296 -973.54818,331.0579 z M -801.45443,331.0579 C -810.24025,331.50498 -819.89977,345.03162 -829.36068,333.71415 C -823.84274,349.33363 -813.85294,341.88634 -813.14193,344.21415 C -803.09242,363.28838 -788.21516,347.75332 -791.61068,338.8079 C -794.70512,332.70976 -798.0165,330.88296 -801.45443,331.0579 z M -629.32943,331.0579 C -638.11525,331.50498 -647.80601,345.03162 -657.26693,333.71415 C -651.74899,349.33363 -641.7592,341.88634 -641.04818,344.21415 C -630.99867,363.28838 -616.12139,347.75332 -619.51693,338.8079 C -622.61137,332.70976 -625.8915,330.88296 -629.32943,331.0579 z M -457.23568,331.0579 C -466.02149,331.50498 -475.71225,345.03162 -485.17318,333.71415 C -479.65524,349.33363 -469.66546,341.88634 -468.95443,344.21415 C -458.90492,363.28838 -444.02762,347.75332 -447.42318,338.8079 C -450.51762,332.70976 -453.79775,330.88296 -457.23568,331.0579 z M -285.14193,331.0579 C -293.92775,331.50498 -303.61851,345.03162 -313.07943,333.71415 C -307.56149,349.33363 -297.57172,341.88634 -296.86068,344.21415 C -286.81117,363.28838 -271.93389,347.75332 -275.32943,338.8079 C -278.42387,332.70976 -281.704,330.88296 -285.14193,331.0579 z M -113.04818,331.0579 C -121.83398,331.50498 -131.52476,345.03162 -140.98568,333.71415 C -135.46774,349.33363 -125.44668,341.88634 -124.73568,344.21415 C -114.68618,363.28838 -99.808876,347.75332 -103.20438,338.8079 C -106.29888,332.70976 -109.61028,330.88296 -113.04818,331.0579 z M 59.045624,331.0579 C 50.259724,331.50498 40.569024,345.03162 31.108124,333.71415 C 36.626024,349.33363 46.647124,341.88634 47.358124,344.21415 C 57.407624,363.28838 72.284824,347.75332 68.889324,338.8079 C 65.794924,332.70976 62.483524,330.88296 59.045624,331.0579 z M -1125.8294,341.8704 C -1125.8396,341.92293 -1125.8505,341.97416 -1125.8607,342.02665 L -1125.8607,473.9954 C -1123.2058,461.12255 -1121.1953,440.86687 -1119.0482,422.1829 C -1112.3321,430.85655 -1105.8228,439.61769 -1096.7357,447.0579 L -1109.4857,417.21415 C -1102.8982,422.00812 -1095.6276,428.35169 -1088.6419,431.02665 C -1105.205,409.63845 -1119.142,381.89719 -1125.8294,341.8704 z M -953.73568,341.8704 C -961.4725,381.89289 -975.91185,410.21746 -991.57943,430.58915 C -985.06656,428.55573 -977.72085,422.80322 -970.64193,417.7454 C -974.97105,428.24036 -979.31282,437.391 -983.64193,446.65165 C -981.05714,445.65412 -972.84456,436.30292 -961.70443,422.58915 C -959.95792,441.44234 -957.60721,462.68058 -954.07943,475.46415 C -951.27088,462.70106 -949.18341,441.57911 -946.95443,422.1829 C -940.23835,430.85655 -933.72897,439.61769 -924.64193,447.0579 L -937.39193,417.21415 C -930.80447,422.00812 -923.5339,428.35169 -916.54818,431.02665 C -933.11135,409.63845 -947.04824,381.89719 -953.73568,341.8704 z M -781.64193,341.8704 C -789.37876,381.89289 -803.78685,410.21746 -819.45443,430.58915 C -812.94157,428.55573 -805.6271,422.80322 -798.54818,417.7454 C -802.87729,428.24036 -807.21907,437.391 -811.54818,446.65165 C -808.96339,445.65412 -800.75081,436.30292 -789.61068,422.58915 C -787.86418,441.44234 -785.51346,462.68058 -781.98568,475.46415 C -779.17714,462.70106 -777.08966,441.57911 -774.86068,422.1829 C -768.14461,430.85655 -761.63522,439.61769 -752.54818,447.0579 L -765.29818,417.21415 C -758.71072,422.00812 -751.44015,428.35169 -744.45443,431.02665 C -761.0176,409.63845 -774.95449,381.89719 -781.64193,341.8704 z M -609.54818,341.8704 C -617.28502,381.89289 -631.6931,410.21746 -647.36068,430.58915 C -640.8478,428.55573 -633.53335,422.80322 -626.45443,417.7454 C -630.78355,428.24036 -635.12532,437.391 -639.45443,446.65165 C -636.86965,445.65412 -628.65706,436.30292 -617.51693,422.58915 C -615.77044,441.44234 -613.41971,462.68058 -609.89193,475.46415 C -607.08337,462.70106 -604.99591,441.57911 -602.76693,422.1829 C -596.05084,430.85655 -589.54147,439.61769 -580.45443,447.0579 L -593.20443,417.21415 C -586.61695,422.00812 -579.3464,428.35169 -572.36068,431.02665 C -588.92383,409.63845 -602.86074,381.89719 -609.54818,341.8704 z M -437.45443,341.8704 C -445.19122,381.89289 -459.59935,410.21746 -475.26693,430.58915 C -468.75406,428.55573 -461.4396,422.80322 -454.36068,417.7454 C -458.68978,428.24036 -463.03157,437.391 -467.36068,446.65165 C -464.77592,445.65412 -456.56331,436.30292 -445.42318,422.58915 C -443.67667,441.44234 -441.32596,462.68058 -437.79818,475.46415 C -434.98963,462.70106 -432.90216,441.57911 -430.67318,422.1829 C -423.9571,430.85655 -417.41647,439.61769 -408.32943,447.0579 L -421.11068,417.21415 C -414.52322,422.00812 -407.2214,428.35169 -400.23568,431.02665 C -416.79885,409.63845 -430.76699,381.89719 -437.45443,341.8704 z M -265.36068,341.8704 C -273.09748,381.89289 -287.5056,410.21746 -303.17318,430.58915 C -296.66032,428.55573 -289.34585,422.80322 -282.26693,417.7454 C -286.59604,428.24036 -290.90657,437.391 -295.23568,446.65165 C -292.65087,445.65412 -284.46956,436.30292 -273.32943,422.58915 C -271.58293,441.44234 -269.20096,462.68058 -265.67318,475.46415 C -262.86464,462.70106 -260.80841,441.57911 -258.57943,422.1829 C -251.86336,430.85655 -245.32272,439.61769 -236.23568,447.0579 L -249.01693,417.21415 C -242.42948,422.00812 -235.12765,428.35169 -228.14193,431.02665 C -244.70511,409.63845 -258.67324,381.89719 -265.36068,341.8704 z M -93.266876,341.8704 C -101.00378,381.89289 -115.41188,410.21746 -131.07943,430.58915 C -124.56658,428.55573 -117.25208,422.80322 -110.17318,417.7454 C -114.50228,428.24036 -118.81278,437.391 -123.14188,446.65165 C -120.55708,445.65412 -112.37578,436.30292 -101.23568,422.58915 C -99.489176,441.44234 -97.107176,462.68058 -93.579376,475.46415 C -90.770876,462.70106 -88.714676,441.57911 -86.485676,422.1829 C -79.769576,430.85655 -73.228976,439.61769 -64.141876,447.0579 L -76.891876,417.21415 C -70.304476,422.00812 -63.033876,428.35169 -56.048176,431.02665 C -72.611376,409.63845 -86.579476,381.89719 -93.266876,341.8704 z M 77.326824,349.2454 C 69.310024,385.41074 55.702724,411.49069 41.014324,430.58915 C 47.527224,428.55573 54.841624,422.80322 61.920624,417.7454 C 57.591524,428.24036 53.280924,437.391 48.951824,446.65165 C 51.536624,445.65412 59.717924,436.30292 70.858124,422.58915 C 72.402924,439.26573 74.438124,457.8085 77.326824,470.71415 L 77.326824,349.2454 z M -1042.6732,439.90165 C -1030.7751,456.70208 -1064.0482,463.46883 -1046.1107,479.3704 C -1038.4608,484.76958 -1020.6617,473.04794 -1036.3607,458.6829 C -1038.3891,457.45315 -1029.2261,448.91177 -1042.6732,439.90165 z M -870.54818,439.90165 C -858.65011,456.70208 -891.95436,463.46883 -874.01693,479.3704 C -866.367,484.76958 -848.56791,473.04794 -864.26693,458.6829 C -866.29528,457.45315 -857.1011,448.91177 -870.54818,439.90165 z M -698.45443,439.90165 C -686.55638,456.70208 -719.86061,463.46883 -701.92318,479.3704 C -694.27324,484.76958 -676.47416,473.04794 -692.17318,458.6829 C -694.20152,457.45315 -685.00735,448.91177 -698.45443,439.90165 z M -526.36068,439.90165 C -514.4626,456.70208 -547.76686,463.46883 -529.82943,479.3704 C -522.17952,484.76958 -504.38041,473.04794 -520.07943,458.6829 C -522.10777,457.45315 -512.9136,448.91177 -526.36068,439.90165 z M -354.26693,439.90165 C -342.36886,456.70208 -375.67311,463.46883 -357.73568,479.3704 C -350.08572,484.76958 -332.25541,473.04794 -347.95443,458.6829 C -349.98279,457.45315 -340.81985,448.91177 -354.26693,439.90165 z M -182.17318,439.90165 C -170.27513,456.70208 -203.54811,463.46883 -185.61068,479.3704 C -177.96074,484.76958 -160.16166,473.04794 -175.86068,458.6829 C -177.88905,457.45315 -168.7261,448.91177 -182.17318,439.90165 z M -10.079376,439.90165 C 1.8187242,456.70208 -31.454376,463.46883 -13.516876,479.3704 C -5.8670758,484.76958 11.932124,473.04794 -3.7668758,458.6829 C -5.7952758,457.45315 3.3676242,448.91177 -10.079376,439.90165 z M -1021.5482,479.77665 C -1024.9861,479.60171 -1028.2663,481.42851 -1031.3607,487.52665 C -1034.7562,496.47206 -1019.8789,512.00713 -1009.8294,492.9329 C -1009.1183,490.60509 -999.12862,498.05238 -993.61068,482.4329 C -1003.0716,493.75038 -1012.7624,480.22373 -1021.5482,479.77665 z M -849.42318,479.77665 C -852.86111,479.60171 -856.17249,481.42851 -859.26693,487.52665 C -862.66245,496.47206 -847.78519,512.00713 -837.73568,492.9329 C -837.02467,490.60509 -827.03487,498.05238 -821.51693,482.4329 C -830.97783,493.75038 -840.63736,480.22373 -849.42318,479.77665 z M -677.32943,479.77665 C -680.76736,479.60171 -684.07874,481.42851 -687.17318,487.52665 C -690.56872,496.47206 -675.69144,512.00713 -665.64193,492.9329 C -664.93091,490.60509 -654.90987,498.05238 -649.39193,482.4329 C -658.85285,493.75038 -668.54361,480.22373 -677.32943,479.77665 z M -505.23568,479.77665 C -508.67361,479.60171 -511.98499,481.42851 -515.07943,487.52665 C -518.47497,496.47206 -503.59769,512.00713 -493.54818,492.9329 C -492.83713,490.60509 -482.81612,498.05238 -477.29818,482.4329 C -486.7591,493.75038 -496.44986,480.22373 -505.23568,479.77665 z M -333.14193,479.77665 C -336.57986,479.60171 -339.89124,481.42851 -342.98568,487.52665 C -346.38123,496.47206 -331.50394,512.00713 -321.45443,492.9329 C -320.7434,490.60509 -310.72237,498.05238 -305.20443,482.4329 C -314.66536,493.75038 -324.35612,480.22373 -333.14193,479.77665 z M -161.04818,479.77665 C -164.48611,479.60171 -167.79749,481.42851 -170.89193,487.52665 C -174.28743,496.47206 -159.41019,512.00713 -149.36068,492.9329 C -148.64966,490.60509 -138.62862,498.05238 -133.11068,482.4329 C -142.57158,493.75038 -152.26236,480.22373 -161.04818,479.77665 z M 11.045624,479.77665 C 7.6076242,479.60171 4.3275242,481.42851 1.2331242,487.52665 C -2.1624758,496.47206 12.683524,512.00713 22.733124,492.9329 C 23.444124,490.60509 33.465124,498.05238 38.983124,482.4329 C 29.522124,493.75038 19.831424,480.22373 11.045624,479.77665 z M -1059.5794,479.96415 C -1068.3653,480.41123 -1078.056,493.93787 -1087.5169,482.6204 C -1081.999,498.23988 -1072.0092,490.7926 -1071.2982,493.1204 C -1061.2487,512.19463 -1046.3714,496.65958 -1049.7669,487.71415 C -1052.8614,481.61601 -1056.1415,479.78921 -1059.5794,479.96415 z M -887.48568,479.96415 C -896.2715,480.41123 -905.96227,493.93787 -915.42318,482.6204 C -909.90524,498.23988 -899.88419,490.7926 -899.17318,493.1204 C -889.12367,512.19463 -874.27765,496.65958 -877.67318,487.71415 C -880.76762,481.61601 -884.04775,479.78921 -887.48568,479.96415 z M -715.39193,479.96415 C -724.17775,480.41123 -733.86851,493.93787 -743.32943,482.6204 C -737.81149,498.23988 -727.79045,490.7926 -727.07943,493.1204 C -717.02992,512.19463 -702.15265,496.65958 -705.54818,487.71415 C -708.64262,481.61601 -711.954,479.78921 -715.39193,479.96415 z M -543.29818,479.96415 C -552.08401,480.41123 -561.77479,493.93787 -571.23568,482.6204 C -565.71774,498.23988 -555.6967,490.7926 -554.98568,493.1204 C -544.93617,512.19463 -530.05893,496.65958 -533.45443,487.71415 C -536.54887,481.61601 -539.86025,479.78921 -543.29818,479.96415 z M -371.20443,479.96415 C -379.99024,480.41123 -389.681,493.93787 -399.14193,482.6204 C -393.62399,498.23988 -383.60297,490.7926 -382.89193,493.1204 C -372.84242,512.19463 -357.96513,496.65958 -361.36068,487.71415 C -364.45512,481.61601 -367.7665,479.78921 -371.20443,479.96415 z M -199.11068,479.96415 C -207.8965,480.41123 -217.58726,493.93787 -227.04818,482.6204 C -221.53024,498.23988 -211.50923,490.7926 -210.79818,493.1204 C -200.74867,512.19463 -185.87139,496.65958 -189.26693,487.71415 C -192.36137,481.61601 -195.67275,479.78921 -199.11068,479.96415 z M -27.016876,479.96415 C -35.802776,480.41123 -45.462276,493.93787 -54.923176,482.6204 C -49.405276,498.23988 -39.415376,490.7926 -38.704376,493.1204 C -28.654876,512.19463 -13.777676,496.65958 -17.173176,487.71415 C -20.267576,481.61601 -23.578976,479.78921 -27.016876,479.96415 z M -1039.7982,490.77665 C -1047.535,530.79913 -1061.9431,559.15496 -1077.6107,579.52665 C -1071.0978,577.49324 -1063.7833,571.70947 -1056.7044,566.65165 C -1061.0335,577.14659 -1065.3441,586.29725 -1069.6732,595.5579 C -1067.0884,594.56035 -1058.907,585.24042 -1047.7669,571.52665 C -1046.0203,590.37982 -1043.6385,611.58683 -1040.1107,624.3704 C -1037.3022,611.60729 -1035.2459,590.48536 -1033.0169,571.08915 C -1026.3008,579.76278 -1019.7603,588.55519 -1010.6732,595.9954 L -1023.4544,566.1204 C -1016.8669,570.91435 -1009.5651,577.25794 -1002.5794,579.9329 C -1019.1425,558.54471 -1033.1108,530.80344 -1039.7982,490.77665 z M -867.70443,490.77665 C -875.44125,530.79913 -889.84935,559.15496 -905.51693,579.52665 C -899.00406,577.49324 -891.6896,571.70947 -884.61068,566.65165 C -888.9398,577.14659 -893.25032,586.29725 -897.57943,595.5579 C -894.99464,594.56035 -886.81331,585.24042 -875.67318,571.52665 C -873.92669,590.37982 -871.54471,611.58683 -868.01693,624.3704 C -865.20838,611.60729 -863.15216,590.48536 -860.92318,571.08915 C -854.2071,579.76278 -847.66647,588.55519 -838.57943,595.9954 L -851.32943,566.1204 C -844.74197,570.91435 -837.4714,577.25794 -830.48568,579.9329 C -847.04885,558.54471 -861.01699,530.80344 -867.70443,490.77665 z M -695.57943,490.77665 C -703.31625,530.79913 -717.7556,559.15496 -733.42318,579.52665 C -726.9103,577.49324 -719.59585,571.70947 -712.51693,566.65165 C -716.84605,577.14659 -721.15657,586.29725 -725.48568,595.5579 C -722.90088,594.56035 -714.71956,585.24042 -703.57943,571.52665 C -701.83294,590.37982 -699.45096,611.58683 -695.92318,624.3704 C -693.11462,611.60729 -691.05841,590.48536 -688.82943,571.08915 C -682.11334,579.76278 -675.57272,588.55519 -666.48568,595.9954 L -679.23568,566.1204 C -672.64821,570.91435 -665.37765,577.25794 -658.39193,579.9329 C -674.95509,558.54471 -688.89199,530.80344 -695.57943,490.77665 z M -523.48568,490.77665 C -531.22253,530.79913 -545.66185,559.15496 -561.32943,579.52665 C -554.81656,577.49324 -547.5021,571.70947 -540.42318,566.65165 C -544.75227,577.14659 -549.06282,586.29725 -553.39193,595.5579 C -550.80716,594.56035 -542.59456,585.24042 -531.45443,571.52665 C -529.70792,590.37982 -527.35721,611.58683 -523.82943,624.3704 C -521.02087,611.60729 -518.93341,590.48536 -516.70443,571.08915 C -509.98834,579.76278 -503.47897,588.55519 -494.39193,595.9954 L -507.14193,566.1204 C -500.55446,570.91435 -493.2839,577.25794 -486.29818,579.9329 C -502.86134,558.54471 -516.79824,530.80344 -523.48568,490.77665 z M -351.39193,490.77665 C -359.12873,530.79913 -373.5681,559.15496 -389.23568,579.52665 C -382.72282,577.49324 -375.3771,571.70947 -368.29818,566.65165 C -372.62729,577.14659 -376.96907,586.29725 -381.29818,595.5579 C -378.71336,594.56035 -370.50081,585.24042 -359.36068,571.52665 C -357.61418,590.37982 -355.26346,611.58683 -351.73568,624.3704 C -348.92714,611.60729 -346.83966,590.48536 -344.61068,571.08915 C -337.89461,579.76278 -331.38522,588.55519 -322.29818,595.9954 L -335.04818,566.1204 C -328.46072,570.91435 -321.19015,577.25794 -314.20443,579.9329 C -330.7676,558.54471 -344.70449,530.80344 -351.39193,490.77665 z M -179.29818,490.77665 C -187.03499,530.79913 -201.47435,559.15496 -217.14193,579.52665 C -210.62908,577.49324 -203.28335,571.70947 -196.20443,566.65165 C -200.53355,577.14659 -204.87532,586.29725 -209.20443,595.5579 C -206.61962,594.56035 -198.40706,585.24042 -187.26693,571.52665 C -185.52044,590.37982 -183.16971,611.58683 -179.64193,624.3704 C -176.8334,611.60729 -174.74591,590.48536 -172.51693,571.08915 C -165.80087,579.76278 -159.29147,588.55519 -150.20443,595.9954 L -162.95443,566.1204 C -156.36698,570.91435 -149.0964,577.25794 -142.11068,579.9329 C -158.67386,558.54471 -172.61074,530.80344 -179.29818,490.77665 z M -7.2043758,490.77665 C -14.941276,530.79913 -29.349376,559.15496 -45.016876,579.52665 C -38.504076,577.49324 -31.189576,571.70947 -24.110676,566.65165 C -28.439776,577.14659 -32.781576,586.29725 -37.110676,595.5579 C -34.525876,594.56035 -26.313276,585.24042 -15.173176,571.52665 C -13.426676,590.37982 -11.075976,611.58683 -7.5481758,624.3704 C -4.7395758,611.60729 -2.6521758,590.48536 -0.42317576,571.08915 C 6.2929242,579.76278 12.802324,588.55519 21.889324,595.9954 L 9.1393242,566.1204 C 15.726824,570.91435 22.997324,577.25794 29.983124,579.9329 C 13.419924,558.54471 -0.51697576,530.80344 -7.2043758,490.77665 z M -956.61068,588.8079 C -944.71262,605.60832 -977.98561,612.37508 -960.04818,628.27665 C -952.39825,633.67582 -934.59916,621.95419 -950.29818,607.58915 C -952.32653,606.35939 -943.1636,597.81802 -956.61068,588.8079 z M -784.51693,588.8079 C -772.61886,605.60832 -805.89186,612.37508 -787.95443,628.27665 C -780.3045,633.67582 -762.50541,621.95419 -778.20443,607.58915 C -780.23279,606.35939 -771.06985,597.81802 -784.51693,588.8079 z M -612.42318,588.8079 C -600.52509,605.60832 -633.79811,612.37508 -615.86068,628.27665 C -608.21074,633.67582 -590.41166,621.95419 -606.11068,607.58915 C -608.13902,606.35939 -598.9761,597.81802 -612.42318,588.8079 z M -440.32943,588.8079 C -428.43136,605.60832 -461.70436,612.37508 -443.76693,628.27665 C -436.11703,633.67582 -418.31791,621.95419 -434.01693,607.58915 C -436.04528,606.35939 -426.88235,597.81802 -440.32943,588.8079 z M -268.23568,588.8079 C -256.33762,605.60832 -289.61061,612.37508 -271.67318,628.27665 C -264.02323,633.67582 -246.22416,621.95419 -261.92318,607.58915 C -263.95154,606.35939 -254.7886,597.81802 -268.23568,588.8079 z M -96.110676,588.8079 C -84.212576,605.60832 -117.51688,612.37508 -99.579376,628.27665 C -91.929576,633.67582 -74.130376,621.95419 -89.829376,607.58915 C -91.857776,606.35939 -82.663576,597.81802 -96.110676,588.8079 z M 75.983124,588.8079 C 76.540824,589.59542 76.957724,590.37503 77.326824,591.1204 L 77.326824,589.77665 C 76.901224,589.45509 76.465224,589.13099 75.983124,588.8079 z M -1125.8607,591.02665 L -1125.8607,629.46415 C -1118.1342,628.18409 -1110.2749,618.67659 -1122.3919,607.58915 C -1124.2542,606.46008 -1116.7072,599.18585 -1125.8607,591.02665 z M 77.326824,601.21415 C 72.995224,610.22537 59.710324,616.92586 72.514324,628.27665 C 73.876924,629.23838 75.566624,629.66308 77.326824,629.6204 L 77.326824,601.21415 z M -1107.5794,628.6829 C -1111.0174,628.50796 -1114.3288,630.33476 -1117.4232,636.4329 C -1120.8187,645.37833 -1105.9414,660.91338 -1095.8919,641.83915 C -1095.1808,639.51133 -1085.1598,646.95863 -1079.6419,631.33915 C -1089.1028,642.65662 -1098.7936,629.12998 -1107.5794,628.6829 z M -935.48568,628.6829 C -938.92361,628.50796 -942.23499,630.33476 -945.32943,636.4329 C -948.72496,645.37833 -933.84769,660.91338 -923.79818,641.83915 C -923.08716,639.51133 -913.06612,646.95863 -907.54818,631.33915 C -917.0091,642.65662 -926.69986,629.12998 -935.48568,628.6829 z M -763.39193,628.6829 C -766.82986,628.50796 -770.14124,630.33476 -773.23568,636.4329 C -776.6312,645.37833 -761.75394,660.91338 -751.70443,641.83915 C -750.9934,639.51133 -740.97237,646.95863 -735.45443,631.33915 C -744.91534,642.65662 -754.60611,629.12998 -763.39193,628.6829 z M -591.29818,628.6829 C -594.73611,628.50796 -598.01624,630.33476 -601.11068,636.4329 C -604.50621,645.37833 -589.62894,660.91338 -579.57943,641.83915 C -578.86844,639.51133 -568.87862,646.95863 -563.36068,631.33915 C -572.8216,642.65662 -582.51236,629.12998 -591.29818,628.6829 z M -419.20443,628.6829 C -422.64236,628.50796 -425.92249,630.33476 -429.01693,636.4329 C -432.41248,645.37833 -417.53519,660.91338 -407.48568,641.83915 C -406.77464,639.51133 -396.78487,646.95863 -391.26693,631.33915 C -400.72786,642.65662 -410.41862,629.12998 -419.20443,628.6829 z M -247.11068,628.6829 C -250.54861,628.50796 -253.82874,630.33476 -256.92318,636.4329 C -260.31874,645.37833 -245.44144,660.91338 -235.39193,641.83915 C -234.6809,639.51133 -224.69112,646.95863 -219.17318,631.33915 C -228.63412,642.65662 -238.32487,629.12998 -247.11068,628.6829 z M -74.985676,628.6829 C -78.423576,628.50796 -81.734976,630.33476 -84.829376,636.4329 C -88.224976,645.37833 -73.347676,660.91338 -63.298176,641.83915 C -62.587076,639.51133 -52.597376,646.95863 -47.079376,631.33915 C -56.540376,642.65662 -66.199876,629.12998 -74.985676,628.6829 z M -973.54818,628.90165 C -982.334,629.34872 -992.02479,642.84411 -1001.4857,631.52665 C -995.96777,647.14613 -985.9467,639.69884 -985.23568,642.02665 C -975.18617,661.10088 -960.3089,645.59707 -963.70443,636.65165 C -966.79887,630.55351 -970.11025,628.72671 -973.54818,628.90165 z M -801.45443,628.90165 C -810.24025,629.34872 -819.89977,642.84411 -829.36068,631.52665 C -823.84274,647.14613 -813.85294,639.69884 -813.14193,642.02665 C -803.09242,661.10088 -788.21516,645.59707 -791.61068,636.65165 C -794.70512,630.55351 -798.0165,628.72671 -801.45443,628.90165 z M -629.32943,628.90165 C -638.11525,629.34872 -647.80601,642.84411 -657.26693,631.52665 C -651.74899,647.14613 -641.7592,639.69884 -641.04818,642.02665 C -630.99867,661.10088 -616.12139,645.59707 -619.51693,636.65165 C -622.61137,630.55351 -625.8915,628.72671 -629.32943,628.90165 z M -457.23568,628.90165 C -466.02149,629.34872 -475.71225,642.84411 -485.17318,631.52665 C -479.65524,647.14613 -469.66546,639.69884 -468.95443,642.02665 C -458.90492,661.10088 -444.02762,645.59707 -447.42318,636.65165 C -450.51762,630.55351 -453.79775,628.72671 -457.23568,628.90165 z M -285.14193,628.90165 C -293.92775,629.34872 -303.61851,642.84411 -313.07943,631.52665 C -307.56149,647.14613 -297.57172,639.69884 -296.86068,642.02665 C -286.81117,661.10088 -271.93389,645.59707 -275.32943,636.65165 C -278.42387,630.55351 -281.704,628.72671 -285.14193,628.90165 z M -113.04818,628.90165 C -121.83398,629.34872 -131.52476,642.84411 -140.98568,631.52665 C -135.46774,647.14613 -125.44668,639.69884 -124.73568,642.02665 C -114.68618,661.10088 -99.808876,645.59707 -103.20438,636.65165 C -106.29888,630.55351 -109.61028,628.72671 -113.04818,628.90165 z M 59.045624,628.90165 C 50.259724,629.34872 40.569024,642.84411 31.108124,631.52665 C 36.626024,647.14613 46.647124,639.69884 47.358124,642.02665 C 57.407624,661.10088 72.284824,645.59707 68.889324,636.65165 C 65.794924,630.55351 62.483524,628.72671 59.045624,628.90165 z M -1125.8294,639.71415 C -1125.8396,639.76668 -1125.8505,639.81791 -1125.8607,639.8704 L -1125.8607,771.83915 C -1123.2058,758.9663 -1121.1953,738.71062 -1119.0482,720.02665 C -1112.3321,728.7003 -1105.8228,737.46144 -1096.7357,744.90165 L -1109.4857,715.02665 C -1102.8982,719.82062 -1095.6276,726.16419 -1088.6419,728.83915 C -1105.205,707.45098 -1119.142,679.74094 -1125.8294,639.71415 z M -953.73568,639.71415 C -961.4725,679.73662 -975.91185,708.06121 -991.57943,728.4329 C -985.06656,726.39951 -977.72085,720.61572 -970.64193,715.5579 C -974.97105,726.05286 -979.31282,735.23475 -983.64193,744.4954 C -981.05714,743.49784 -972.84456,734.14667 -961.70443,720.4329 C -959.95792,739.28609 -957.60721,760.52433 -954.07943,773.3079 C -951.27088,760.54481 -949.18341,739.42286 -946.95443,720.02665 C -940.23835,728.7003 -933.72897,737.46144 -924.64193,744.90165 L -937.39193,715.02665 C -930.80447,719.82062 -923.5339,726.16419 -916.54818,728.83915 C -933.11135,707.45098 -947.04824,679.74094 -953.73568,639.71415 z M -781.64193,639.71415 C -789.37876,679.73662 -803.78685,708.06121 -819.45443,728.4329 C -812.94157,726.39951 -805.6271,720.61572 -798.54818,715.5579 C -802.87729,726.05286 -807.21907,735.23475 -811.54818,744.4954 C -808.96339,743.49784 -800.75081,734.14667 -789.61068,720.4329 C -787.86418,739.28609 -785.51346,760.52433 -781.98568,773.3079 C -779.17714,760.54481 -777.08966,739.42286 -774.86068,720.02665 C -768.14461,728.7003 -761.63522,737.46144 -752.54818,744.90165 L -765.29818,715.02665 C -758.71072,719.82062 -751.44015,726.16419 -744.45443,728.83915 C -761.0176,707.45098 -774.95449,679.74094 -781.64193,639.71415 z M -609.54818,639.71415 C -617.28502,679.73662 -631.6931,708.06121 -647.36068,728.4329 C -640.8478,726.39951 -633.53335,720.61572 -626.45443,715.5579 C -630.78355,726.05286 -635.12532,735.23475 -639.45443,744.4954 C -636.86965,743.49784 -628.65706,734.14667 -617.51693,720.4329 C -615.77044,739.28609 -613.41971,760.52433 -609.89193,773.3079 C -607.08337,760.54481 -604.99591,739.42286 -602.76693,720.02665 C -596.05084,728.7003 -589.54147,737.46144 -580.45443,744.90165 L -593.20443,715.02665 C -586.61695,719.82062 -579.3464,726.16419 -572.36068,728.83915 C -588.92383,707.45098 -602.86074,679.74094 -609.54818,639.71415 z M -437.45443,639.71415 C -445.19122,679.73662 -459.59935,708.06121 -475.26693,728.4329 C -468.75406,726.39951 -461.4396,720.61572 -454.36068,715.5579 C -458.68978,726.05286 -463.03157,735.23475 -467.36068,744.4954 C -464.77592,743.49784 -456.56331,734.14667 -445.42318,720.4329 C -443.67667,739.28609 -441.32596,760.52433 -437.79818,773.3079 C -434.98963,760.54481 -432.90216,739.42286 -430.67318,720.02665 C -423.9571,728.7003 -417.41647,737.46144 -408.32943,744.90165 L -421.11068,715.02665 C -414.52322,719.82062 -407.2214,726.16419 -400.23568,728.83915 C -416.79885,707.45098 -430.76699,679.74094 -437.45443,639.71415 z M -265.36068,639.71415 C -273.09748,679.73662 -287.5056,708.06121 -303.17318,728.4329 C -296.66032,726.39951 -289.34585,720.61572 -282.26693,715.5579 C -286.59604,726.05286 -290.90657,735.23475 -295.23568,744.4954 C -292.65087,743.49784 -284.46956,734.14667 -273.32943,720.4329 C -271.58293,739.28609 -269.20096,760.52433 -265.67318,773.3079 C -262.86464,760.54481 -260.80841,739.42286 -258.57943,720.02665 C -251.86336,728.7003 -245.32272,737.46144 -236.23568,744.90165 L -249.01693,715.02665 C -242.42948,719.82062 -235.12765,726.16419 -228.14193,728.83915 C -244.70511,707.45098 -258.67324,679.74094 -265.36068,639.71415 z M -93.266876,639.71415 C -101.00378,679.73662 -115.41188,708.06121 -131.07943,728.4329 C -124.56658,726.39951 -117.25208,720.61572 -110.17318,715.5579 C -114.50228,726.05286 -118.81278,735.23475 -123.14188,744.4954 C -120.55708,743.49784 -112.37578,734.14667 -101.23568,720.4329 C -99.489176,739.28609 -97.107176,760.52433 -93.579376,773.3079 C -90.770876,760.54481 -88.714676,739.42286 -86.485676,720.02665 C -79.769576,728.7003 -73.228976,737.46144 -64.141876,744.90165 L -76.891876,715.02665 C -70.304476,719.82062 -63.033876,726.16419 -56.048176,728.83915 C -72.611376,707.45098 -86.579476,679.74094 -93.266876,639.71415 z M 77.326824,647.08915 C 69.310024,683.25448 55.702724,709.33444 41.014324,728.4329 C 47.527224,726.39951 54.841624,720.61572 61.920624,715.5579 C 57.591524,726.05286 53.280924,735.23475 48.951824,744.4954 C 51.536624,743.49784 59.717924,734.14667 70.858124,720.4329 C 72.402724,737.10749 74.438624,755.62119 77.326824,768.52665 L 77.326824,647.08915 z M -1042.6732,737.7454 C -1030.7751,754.54582 -1064.0482,761.31258 -1046.1107,777.21415 C -1038.4608,782.61332 -1020.6617,770.89169 -1036.3607,756.52665 C -1038.3891,755.29689 -1029.2261,746.75552 -1042.6732,737.7454 z M -870.54818,737.7454 C -858.65011,754.54582 -891.95436,761.31258 -874.01693,777.21415 C -866.367,782.61332 -848.56791,770.89169 -864.26693,756.52665 C -866.29528,755.29689 -857.1011,746.75552 -870.54818,737.7454 z M -698.45443,737.7454 C -686.55638,754.54582 -719.86061,761.31258 -701.92318,777.21415 C -694.27324,782.61332 -676.47416,770.89169 -692.17318,756.52665 C -694.20152,755.29689 -685.00735,746.75552 -698.45443,737.7454 z M -526.36068,737.7454 C -514.4626,754.54582 -547.76686,761.31258 -529.82943,777.21415 C -522.17952,782.61332 -504.38041,770.89169 -520.07943,756.52665 C -522.10777,755.29689 -512.9136,746.75552 -526.36068,737.7454 z M -354.26693,737.7454 C -342.36886,754.54582 -375.67311,761.31258 -357.73568,777.21415 C -350.08572,782.61332 -332.25541,770.89169 -347.95443,756.52665 C -349.98279,755.29689 -340.81985,746.75552 -354.26693,737.7454 z M -182.17318,737.7454 C -170.27513,754.54582 -203.54811,761.31258 -185.61068,777.21415 C -177.96074,782.61332 -160.16166,770.89169 -175.86068,756.52665 C -177.88905,755.29689 -168.7261,746.75552 -182.17318,737.7454 z M -10.079376,737.7454 C 1.8187242,754.54582 -31.454376,761.31258 -13.516876,777.21415 C -5.8670758,782.61332 11.932124,770.89169 -3.7668758,756.52665 C -5.7952758,755.29689 3.3676242,746.75552 -10.079376,737.7454 z M -1022.6732,777.6204 C -1025.7011,777.88509 -1028.6101,779.94983 -1031.3607,785.3704 C -1034.7562,794.31583 -1019.8789,809.81963 -1009.8294,790.7454 C -1009.1183,788.41761 -999.12862,795.86488 -993.61068,780.2454 C -1003.4829,792.05491 -1013.5894,776.82633 -1022.6732,777.6204 z M -850.57943,777.6204 C -853.60737,777.88509 -856.51632,779.94983 -859.26693,785.3704 C -862.66245,794.31583 -847.78519,809.81963 -837.73568,790.7454 C -837.02467,788.41761 -827.03487,795.86488 -821.51693,780.2454 C -831.38918,792.05491 -841.4956,776.82633 -850.57943,777.6204 z M -678.48568,777.6204 C -681.51362,777.88509 -684.42257,779.94983 -687.17318,785.3704 C -690.56872,794.31583 -675.69144,809.81963 -665.64193,790.7454 C -664.93091,788.41761 -654.90987,795.86488 -649.39193,780.2454 C -659.2642,792.05491 -669.40186,776.82633 -678.48568,777.6204 z M -506.39193,777.6204 C -509.41987,777.88509 -512.32882,779.94983 -515.07943,785.3704 C -518.47497,794.31583 -503.59769,809.81963 -493.54818,790.7454 C -492.83713,788.41761 -482.81612,795.86488 -477.29818,780.2454 C -487.17045,792.05491 -497.30811,776.82633 -506.39193,777.6204 z M -334.29818,777.6204 C -337.32612,777.88509 -340.23507,779.94983 -342.98568,785.3704 C -346.38123,794.31583 -331.50394,809.81963 -321.45443,790.7454 C -320.7434,788.41761 -310.72237,795.86488 -305.20443,780.2454 C -315.07671,792.05491 -325.21436,776.82633 -334.29818,777.6204 z M -162.17318,777.6204 C -165.20112,777.88509 -168.14132,779.94983 -170.89193,785.3704 C -174.28743,794.31583 -159.41019,809.81963 -149.36068,790.7454 C -148.64966,788.41761 -138.62862,795.86488 -133.11068,780.2454 C -142.98292,792.05491 -153.08935,776.82633 -162.17318,777.6204 z M 9.9206242,777.6204 C 6.8926242,777.88509 3.9837242,779.94983 1.2331242,785.3704 C -2.1624758,794.31583 12.683524,809.81963 22.733124,790.7454 C 23.444124,788.41761 33.465124,795.86488 38.983124,780.2454 C 29.110824,792.05491 19.004424,776.82633 9.9206242,777.6204 z M -1059.5794,777.8079 C -1068.3653,778.25498 -1078.056,791.78163 -1087.5169,780.46415 C -1081.999,796.08363 -1072.0092,788.63634 -1071.2982,790.96415 C -1061.2487,810.03838 -1046.3714,794.50331 -1049.7669,785.5579 C -1052.8614,779.45976 -1056.1415,777.63296 -1059.5794,777.8079 z M -887.48568,777.8079 C -896.2715,778.25498 -905.96227,791.78163 -915.42318,780.46415 C -909.90524,796.08363 -899.88419,788.63634 -899.17318,790.96415 C -889.12367,810.03838 -874.27765,794.50331 -877.67318,785.5579 C -880.76762,779.45976 -884.04775,777.63296 -887.48568,777.8079 z M -715.39193,777.8079 C -724.17775,778.25498 -733.86851,791.78163 -743.32943,780.46415 C -737.81149,796.08363 -727.79045,788.63634 -727.07943,790.96415 C -717.02992,810.03838 -702.15265,794.50331 -705.54818,785.5579 C -708.64262,779.45976 -711.954,777.63296 -715.39193,777.8079 z M -543.29818,777.8079 C -552.08401,778.25498 -561.77479,791.78163 -571.23568,780.46415 C -565.71774,796.08363 -555.6967,788.63634 -554.98568,790.96415 C -544.93617,810.03838 -530.05893,794.50331 -533.45443,785.5579 C -536.54887,779.45976 -539.86025,777.63296 -543.29818,777.8079 z M -371.20443,777.8079 C -379.99024,778.25498 -389.681,791.78163 -399.14193,780.46415 C -393.62399,796.08363 -383.60297,788.63634 -382.89193,790.96415 C -372.84242,810.03838 -357.96513,794.50331 -361.36068,785.5579 C -364.45512,779.45976 -367.7665,777.63296 -371.20443,777.8079 z M -199.11068,777.8079 C -207.8965,778.25498 -217.58726,791.78163 -227.04818,780.46415 C -221.53024,796.08363 -211.50923,788.63634 -210.79818,790.96415 C -200.74867,810.03838 -185.87139,794.50331 -189.26693,785.5579 C -192.36137,779.45976 -195.67275,777.63296 -199.11068,777.8079 z M -27.016876,777.8079 C -35.802776,778.25498 -45.462276,791.78163 -54.923176,780.46415 C -49.405276,796.08363 -39.415376,788.63634 -38.704376,790.96415 C -28.654876,810.03838 -13.777676,794.50331 -17.173176,785.5579 C -20.267576,779.45976 -23.578976,777.63296 -27.016876,777.8079 z M -1039.7982,788.6204 C -1047.535,828.64287 -1061.9431,856.99871 -1077.6107,877.3704 C -1071.0978,875.33697 -1063.7833,869.55322 -1056.7044,864.4954 C -1061.0335,874.99033 -1065.3441,884.141 -1069.6732,893.40165 C -1067.0884,892.40412 -1058.907,883.05292 -1047.7669,869.33915 C -1046.0203,888.19231 -1043.6385,909.43058 -1040.1107,922.21415 C -1037.3022,909.45103 -1035.2459,888.32911 -1033.0169,868.9329 C -1026.3008,877.60652 -1019.7603,886.36769 -1010.6732,893.8079 L -1023.4544,863.96415 C -1016.8669,868.75809 -1009.5651,875.10169 -1002.5794,877.77665 C -1019.1425,856.38845 -1033.1108,828.64719 -1039.7982,788.6204 z M -867.70443,788.6204 C -875.44125,828.64287 -889.84935,856.99871 -905.51693,877.3704 C -899.00406,875.33697 -891.6896,869.55322 -884.61068,864.4954 C -888.9398,874.99033 -893.25032,884.141 -897.57943,893.40165 C -894.99464,892.40412 -886.81331,883.05292 -875.67318,869.33915 C -873.92669,888.19231 -871.54471,909.43058 -868.01693,922.21415 C -865.20838,909.45103 -863.15216,888.32911 -860.92318,868.9329 C -854.2071,877.60652 -847.66647,886.36769 -838.57943,893.8079 L -851.32943,863.96415 C -844.74197,868.75809 -837.4714,875.10169 -830.48568,877.77665 C -847.04885,856.38845 -861.01699,828.64719 -867.70443,788.6204 z M -695.57943,788.6204 C -703.31625,828.64287 -717.7556,856.99871 -733.42318,877.3704 C -726.9103,875.33697 -719.59585,869.55322 -712.51693,864.4954 C -716.84605,874.99033 -721.15657,884.141 -725.48568,893.40165 C -722.90088,892.40412 -714.71956,883.05292 -703.57943,869.33915 C -701.83294,888.19231 -699.45096,909.43058 -695.92318,922.21415 C -693.11462,909.45103 -691.05841,888.32911 -688.82943,868.9329 C -682.11334,877.60652 -675.57272,886.36769 -666.48568,893.8079 L -679.23568,863.96415 C -672.64821,868.75809 -665.37765,875.10169 -658.39193,877.77665 C -674.95509,856.38845 -688.89199,828.64719 -695.57943,788.6204 z M -523.48568,788.6204 C -531.22253,828.64287 -545.66185,856.99871 -561.32943,877.3704 C -554.81656,875.33697 -547.5021,869.55322 -540.42318,864.4954 C -544.75227,874.99033 -549.06282,884.141 -553.39193,893.40165 C -550.80716,892.40412 -542.59456,883.05292 -531.45443,869.33915 C -529.70792,888.19231 -527.35721,909.43058 -523.82943,922.21415 C -521.02087,909.45103 -518.93341,888.32911 -516.70443,868.9329 C -509.98834,877.60652 -503.47897,886.36769 -494.39193,893.8079 L -507.14193,863.96415 C -500.55446,868.75809 -493.2839,875.10169 -486.29818,877.77665 C -502.86134,856.38845 -516.79824,828.64719 -523.48568,788.6204 z M -351.39193,788.6204 C -359.12873,828.64287 -373.5681,856.99871 -389.23568,877.3704 C -382.72282,875.33697 -375.3771,869.55322 -368.29818,864.4954 C -372.62729,874.99033 -376.96907,884.141 -381.29818,893.40165 C -378.71336,892.40412 -370.50081,883.05292 -359.36068,869.33915 C -357.61418,888.19231 -355.26346,909.43058 -351.73568,922.21415 C -348.92714,909.45103 -346.83966,888.32911 -344.61068,868.9329 C -337.89461,877.60652 -331.38522,886.36769 -322.29818,893.8079 L -335.04818,863.96415 C -328.46072,868.75809 -321.19015,875.10169 -314.20443,877.77665 C -330.7676,856.38845 -344.70449,828.64719 -351.39193,788.6204 z M -179.29818,788.6204 C -187.03499,828.64287 -201.47435,856.99871 -217.14193,877.3704 C -210.62908,875.33697 -203.28335,869.55322 -196.20443,864.4954 C -200.53355,874.99033 -204.87532,884.141 -209.20443,893.40165 C -206.61962,892.40412 -198.40706,883.05292 -187.26693,869.33915 C -185.52044,888.19231 -183.16971,909.43058 -179.64193,922.21415 C -176.8334,909.45103 -174.74591,888.32911 -172.51693,868.9329 C -165.80087,877.60652 -159.29147,886.36769 -150.20443,893.8079 L -162.95443,863.96415 C -156.36698,868.75809 -149.0964,875.10169 -142.11068,877.77665 C -158.67386,856.38845 -172.61074,828.64719 -179.29818,788.6204 z M -7.2043758,788.6204 C -14.941276,828.64287 -29.349376,856.99871 -45.016876,877.3704 C -38.504076,875.33697 -31.189576,869.55322 -24.110676,864.4954 C -28.439776,874.99033 -32.781576,884.141 -37.110676,893.40165 C -34.525876,892.40412 -26.313276,883.05292 -15.173176,869.33915 C -13.426676,888.19231 -11.075976,909.43058 -7.5481758,922.21415 C -4.7395758,909.45103 -2.6521758,888.32911 -0.42317576,868.9329 C 6.2929242,877.60652 12.802324,886.36769 21.889324,893.8079 L 9.1393242,863.96415 C 15.726824,868.75809 22.997324,875.10169 29.983124,877.77665 C 13.419924,856.38845 -0.51697576,828.64719 -7.2043758,788.6204 z M -956.61068,886.65165 C -944.71262,903.4521 -977.98561,910.21883 -960.04818,926.1204 C -952.39825,931.5196 -934.59916,919.79794 -950.29818,905.4329 C -952.32653,904.20317 -943.1636,895.66177 -956.61068,886.65165 z M -784.51693,886.65165 C -772.61886,903.4521 -805.89186,910.21883 -787.95443,926.1204 C -780.3045,931.5196 -762.50541,919.79794 -778.20443,905.4329 C -780.23279,904.20317 -771.06985,895.66177 -784.51693,886.65165 z M -612.42318,886.65165 C -600.52509,903.4521 -633.79811,910.21883 -615.86068,926.1204 C -608.21074,931.5196 -590.41166,919.79794 -606.11068,905.4329 C -608.13902,904.20317 -598.9761,895.66177 -612.42318,886.65165 z M -440.32943,886.65165 C -428.43136,903.4521 -461.70436,910.21883 -443.76693,926.1204 C -436.11703,931.5196 -418.31791,919.79794 -434.01693,905.4329 C -436.04528,904.20317 -426.88235,895.66177 -440.32943,886.65165 z M -268.23568,886.65165 C -256.33762,903.4521 -289.61061,910.21883 -271.67318,926.1204 C -264.02323,931.5196 -246.22416,919.79794 -261.92318,905.4329 C -263.95154,904.20317 -254.7886,895.66177 -268.23568,886.65165 z M -96.110676,886.65165 C -84.212576,903.4521 -117.51688,910.21883 -99.579376,926.1204 C -91.929576,931.5196 -74.130376,919.79794 -89.829376,905.4329 C -91.857776,904.20317 -82.663576,895.66177 -96.110676,886.65165 z M 75.983124,886.65165 C 76.543924,887.4436 76.956624,888.21482 77.326824,888.96415 L 77.326824,887.6204 C 76.901224,887.29884 76.465224,886.97474 75.983124,886.65165 z M -1125.8607,888.8704 L -1125.8607,927.3079 C -1118.1342,926.02784 -1110.2749,916.52034 -1122.3919,905.4329 C -1124.2542,904.30386 -1116.7072,897.0296 -1125.8607,888.8704 z M 77.326824,899.0579 C 72.995224,908.06912 59.710324,914.76961 72.514324,926.1204 C 73.877024,927.08219 75.566524,927.47563 77.326824,927.4329 L 77.326824,899.0579 z M -1107.5794,926.52665 C -1111.0174,926.35171 -1114.3288,928.17851 -1117.4232,934.27665 C -1117.447,934.3394 -1117.4636,934.40077 -1117.4857,934.46415 L -1082.2044,934.46415 C -1081.2918,933.09044 -1080.4159,931.37369 -1079.6419,929.1829 C -1089.1028,940.50037 -1098.7936,926.97373 -1107.5794,926.52665 z M -935.48568,926.52665 C -938.92361,926.35171 -942.23499,928.17851 -945.32943,934.27665 C -945.35325,934.3394 -945.3699,934.40077 -945.39193,934.46415 L -910.11068,934.46415 C -909.1981,933.09044 -908.32213,931.37369 -907.54818,929.1829 C -917.0091,940.50037 -926.69986,926.97373 -935.48568,926.52665 z M -763.39193,926.52665 C -766.82986,926.35171 -770.14124,928.17851 -773.23568,934.27665 C -773.2595,934.3394 -773.27615,934.40077 -773.29818,934.46415 L -738.01693,934.46415 C -737.10435,933.09044 -736.22838,931.37369 -735.45443,929.1829 C -744.91534,940.50037 -754.60611,926.97373 -763.39193,926.52665 z M -591.29818,926.52665 C -594.73611,926.35171 -598.01624,928.17851 -601.11068,934.27665 C -601.13426,934.33877 -601.15135,934.40141 -601.17318,934.46415 L -565.92318,934.46415 C -565.0106,933.09044 -564.13463,931.37369 -563.36068,929.1829 C -572.8216,940.50037 -582.51236,926.97373 -591.29818,926.52665 z M -419.20443,926.52665 C -422.64236,926.35171 -425.92249,928.17851 -429.01693,934.27665 C -429.04051,934.33877 -429.0576,934.40141 -429.07943,934.46415 L -393.79818,934.46415 C -392.88747,933.09164 -392.03945,931.36964 -391.26693,929.1829 C -400.72786,940.50037 -410.41862,926.97373 -419.20443,926.52665 z M -247.11068,926.52665 C -250.54861,926.35171 -253.82874,928.17851 -256.92318,934.27665 C -256.94676,934.33877 -256.96385,934.40141 -256.98568,934.46415 L -221.70443,934.46415 C -220.79372,933.09164 -219.9457,931.36964 -219.17318,929.1829 C -228.63412,940.50037 -238.32487,926.97373 -247.11068,926.52665 z M -74.985676,926.52665 C -78.423576,926.35171 -81.734976,928.17851 -84.829376,934.27665 C -84.852976,934.33877 -84.870076,934.40141 -84.891876,934.46415 L -49.610676,934.46415 C -48.699976,933.09164 -47.851976,931.36964 -47.079376,929.1829 C -56.540376,940.50037 -66.199876,926.97373 -74.985676,926.52665 z M -973.54818,926.71415 C -982.334,927.16122 -992.02479,940.68786 -1001.4857,929.3704 C -1000.749,931.45562 -999.91209,933.12312 -999.04818,934.46415 L -963.70443,934.46415 C -966.79887,928.36601 -970.11025,926.53921 -973.54818,926.71415 z M -801.45443,926.71415 C -810.24025,927.16122 -819.89977,940.68786 -829.36068,929.3704 C -828.62403,931.45562 -827.81834,933.12312 -826.95443,934.46415 L -791.61068,934.46415 C -794.70512,928.36601 -798.0165,926.53921 -801.45443,926.71415 z M -629.32943,926.71415 C -638.11525,927.16122 -647.80601,940.68786 -657.26693,929.3704 C -656.53028,931.45562 -655.72459,933.12312 -654.86068,934.46415 L -619.51693,934.46415 C -622.61137,928.36601 -625.8915,926.53921 -629.32943,926.71415 z M -457.23568,926.71415 C -466.02149,927.16122 -475.71225,940.68786 -485.17318,929.3704 C -484.43653,931.45562 -483.63084,933.12312 -482.76693,934.46415 L -447.42318,934.46415 C -450.51762,928.36601 -453.79775,926.53921 -457.23568,926.71415 z M -285.14193,926.71415 C -293.92775,927.16122 -303.61851,940.68786 -313.07943,929.3704 C -312.34078,931.46128 -311.50845,933.12129 -310.64193,934.46415 L -275.32943,934.46415 C -278.42387,928.36601 -281.704,926.53921 -285.14193,926.71415 z M -113.04818,926.71415 C -121.83398,927.16122 -131.52476,940.68786 -140.98568,929.3704 C -140.24703,931.46128 -139.4147,933.12129 -138.54818,934.46415 L -103.20438,934.46415 C -106.29888,928.36601 -109.61028,926.53921 -113.04818,926.71415 z M 59.045624,926.71415 C 50.259724,927.16122 40.569024,940.68786 31.108124,929.3704 C 31.846724,931.46128 32.679024,933.12129 33.545624,934.46415 L 68.889324,934.46415 C 65.794924,928.36601 62.483524,926.53921 59.045624,926.71415 z "
       id="path32141" />
    <path
       sodipodi:nodetypes="cccccccccc"
       id="path3439"
       d="M -1125.8607,138.63536 L -1125.8607,935.41664 L 77.32683,935.41664 L 77.32683,138.63536 L -1125.8607,138.63536 z M -1031.0482,232.59317 L -19.42477,232.59317 L -19.42477,839.46974 L -1031.0482,839.46974 L -1031.0482,232.59317 z "
       style="fill:#e20909;fill-opacity:0.99186994;stroke:#000000;stroke-width:0.5;stroke-miterlimit:4;stroke-dasharray:none;stroke-opacity:1" />
    <path
       sodipodi:nodetypes="csccsssssssssccsssssssc"
       style="fill:#2b5df2;fill-opacity:1;stroke:#000000;stroke-width:0.41169095;stroke-miterlimit:4;stroke-dasharray:none;stroke-opacity:1"
       d="M -906.66942,446.98244 C -969.62602,446.98244 -971.61792,484.91934 -1034.5744,484.91934 C -1082.3484,484.91934 -1095.0158,463.07674 -1125.8549,452.54384 L -1125.8549,588.98364 C -1083.1026,596.45334 -1074.4305,625.16604 -1019.6684,625.16604 C -956.71182,625.16604 -954.75112,587.22914 -891.79462,587.22914 C -828.83812,587.22914 -826.84612,625.16604 -763.88962,625.16604 C -700.93312,625.16604 -698.94112,587.22914 -635.98462,587.22914 C -573.02812,587.22914 -571.06732,625.16604 -508.11082,625.16604 C -445.15432,625.16604 -443.16232,587.22914 -380.20582,587.22914 C -317.24936,587.22914 -315.25738,625.16604 -252.30079,625.16604 C -189.3442,625.16604 -212.94178,587.22914 -124.42704,587.22914 C -35.912386,587.22914 -74.943096,625.16604 3.478024,625.16604 C 55.880426,625.16604 56.713626,608.23124 77.321026,596.99474 L 77.321026,450.98794 C 40.164884,460.72434 51.249876,484.91934 -11.396826,484.91934 C -89.818056,484.91934 -50.787336,446.98244 -139.30189,446.98244 C -227.81663,446.98244 -204.21906,484.91934 -267.17565,484.91934 C -330.13224,484.91934 -332.12412,446.98244 -395.08062,446.98244 C -458.03722,446.98244 -460.02922,484.91934 -522.98572,484.91934 C -585.94222,484.91934 -587.93412,446.98244 -650.89072,446.98244 C -713.84722,446.98244 -715.80792,484.91934 -778.76442,484.91934 C -841.72102,484.91934 -843.71292,446.98244 -906.66942,446.98244 z "
       id="path6030" />
  </g>
  <g
     inkscape:groupmode="layer"
     id="layer2"
     transform="translate(-1.1673,-1.26427)">
    <path
       id="path3430"
       d="M 799.5926,1303.6645 L 799.5926,1303.6645 z "
       style="fill:none;fill-rule:evenodd;stroke:#000000;stroke-width:0.98280448px;stroke-linecap:butt;stroke-linejoin:miter;stroke-opacity:1" />
  </g>
</svg>
