<?xml version="1.0" encoding="UTF-8" standalone="no"?>
<!-- Created with Inkscape (http://www.inkscape.org/) -->
<svg
   xmlns:dc="http://purl.org/dc/elements/1.1/"
   xmlns:cc="http://web.resource.org/cc/"
   xmlns:rdf="http://www.w3.org/1999/02/22-rdf-syntax-ns#"
   xmlns:svg="http://www.w3.org/2000/svg"
   xmlns="http://www.w3.org/2000/svg"
   xmlns:sodipodi="http://sodipodi.sourceforge.net/DTD/sodipodi-0.dtd"
   xmlns:inkscape="http://www.inkscape.org/namespaces/inkscape"
   width="1203.2659"
   height="796.91626"
   id="svg2"
   sodipodi:version="0.32"
   inkscape:version="0.45.1"
   sodipodi:docbase="C:\Users\Jany\Documents\aaaOuiqui\Drapeaux"
   sodipodi:docname="Drapeau fr département Gard.svg"
   inkscape:output_extension="org.inkscape.output.svg.inkscape"
   version="1.0">
  <defs
     id="defs4" />
  <sodipodi:namedview
     id="base"
     pagecolor="#ffffff"
     bordercolor="#666666"
     borderopacity="1.0"
     inkscape:pageopacity="0.0"
     inkscape:pageshadow="2"
     inkscape:zoom="0.7"
     inkscape:cx="694.36534"
     inkscape:cy="379.29533"
     inkscape:document-units="px"
     inkscape:current-layer="layer3"
     inkscape:window-width="1152"
     inkscape:window-height="814"
     inkscape:window-x="-8"
     inkscape:window-y="-8" />
  <metadata
     id="metadata7">
    <rdf:RDF>
      <cc:Work
         rdf:about="">
        <dc:format>image/svg+xml</dc:format>
        <dc:type
           rdf:resource="http://purl.org/dc/dcmitype/StillImage" />
      </cc:Work>
    </rdf:RDF>
  </metadata>
  <g
     inkscape:groupmode="layer"
     id="layer3">
    <path
       transform="translate(1127.3657,-136.15363)"
       style="fill:#e20909;fill-opacity:1;stroke:#000000;stroke-width:1;stroke-miterlimit:4;stroke-opacity:1;stroke-dasharray:none"
       d="M -1127.278,136.21415 L 75.900109,136.21415 L 75.900109,933.0058 L -1127.278,933.0058 L -1127.278,136.21415 z "
       id="rect2239"
       sodipodi:nodetypes="ccccc" />
    <g
       inkscape:label="Meubles"
       id="g13310"
       transform="matrix(0.9027294,0,0,0.9027294,330.85797,243.4939)"
       style="stroke:#000000;stroke-width:0.44310067;stroke-miterlimit:4;stroke-dasharray:none;stroke-opacity:1">
      <g
         style="fill:#fcef3c;fill-opacity:1;stroke:#000000;stroke-width:0.2788905;stroke-miterlimit:4;stroke-dasharray:none;stroke-opacity:1;display:inline"
         transform="matrix(1.588788,0,0,1.588808,-3197.717,-727.3813)"
         id="g16252">
        <path
           style="fill:#fcef3c;fill-opacity:1;fill-rule:evenodd;stroke:#000000;stroke-width:0.2788905;stroke-linecap:butt;stroke-linejoin:miter;stroke-miterlimit:4;stroke-dasharray:none;stroke-opacity:1"
           d="M 2201.4845,500.70333 C 2196.74,500.70333 2192.0788,500.96723 2187.4532,501.42208 C 2187.1664,514.40194 2176.5326,524.8596 2163.4845,524.85958 C 2158.3752,524.8595 2153.6498,523.21984 2149.7657,520.48458 C 2147.5601,518.03229 2145.2871,515.63174 2142.9532,513.29708 C 2137.471,515.78024 2132.1633,518.60237 2127.0782,521.73458 C 2128.8898,523.42729 2130.6585,525.15375 2132.3907,526.92208 C 2133.3258,528.03953 2134.3425,529.06766 2135.3907,530.07833 C 2135.4589,530.14413 2135.5095,530.23175 2135.5782,530.29708 C 2157.9582,554.45268 2173.2352,585.24594 2178.0782,619.42208 C 2139.7436,613.99231 2105.6399,595.43232 2080.422,568.45333 C 2077.2913,573.53461 2074.4358,578.81917 2071.9532,584.29708 C 2073.9539,586.29588 2075.9908,588.2654 2078.0782,590.17208 C 2081.4539,594.30289 2083.4844,599.58791 2083.4845,605.32833 C 2083.4844,618.39765 2072.9935,629.01282 2059.9845,629.26583 C 2059.5595,633.73911 2059.3594,638.27565 2059.3595,642.85958 C 2059.3595,647.75313 2059.5947,652.59289 2060.0782,657.35958 C 2073.0434,657.66307 2083.4844,668.29077 2083.4845,681.32833 C 2083.4844,685.99021 2082.1412,690.33994 2079.8282,694.01583 C 2077.1342,696.41489 2074.5087,698.87826 2071.9532,701.42213 C 2074.5214,707.08893 2077.4737,712.55563 2080.7345,717.79713 C 2105.8978,691.02536 2139.8238,672.60156 2177.9532,667.17208 C 2172.3634,705.16393 2153.8764,738.95733 2127.0782,763.98463 C 2132.1712,767.12173 2137.4931,769.93613 2142.9845,772.42213 C 2145.0225,770.39383 2147.0151,768.32933 2148.9532,766.20333 C 2153.0658,762.88643 2158.2687,760.89093 2163.9532,760.89083 C 2177.0119,760.89093 2187.6211,771.36503 2187.8907,784.35963 C 2192.3742,784.78653 2196.8897,785.01583 2201.4845,785.01583 C 2206.378,785.01583 2211.2178,784.74933 2215.9845,784.26583 C 2215.9845,784.26553 2216.0157,784.26613 2216.0157,784.26583 C 2216.336,771.31563 2226.9265,760.89083 2239.9532,760.89083 C 2244.6326,760.89093 2248.9873,762.28073 2252.672,764.60963 C 2255.0572,767.28623 2257.516,769.89073 2260.047,772.42213 C 2265.7229,769.85113 2271.2039,766.90653 2276.4532,763.64083 C 2249.8867,738.67203 2231.5397,705.06303 2225.9532,667.29708 C 2263.7094,672.88679 2297.335,691.20742 2322.297,717.76583 C 2325.5585,712.51963 2328.4792,707.03163 2331.047,701.35963 C 2328.7244,699.03405 2326.3375,696.77888 2323.8907,694.57833 C 2321.1643,690.68856 2319.547,685.96007 2319.547,680.85958 C 2319.5471,667.82213 2329.988,657.22469 2342.9532,656.92208 C 2343.408,652.2965 2343.6407,647.60407 2343.6407,642.85958 C 2343.6407,638.12567 2343.406,633.44388 2342.9532,628.82833 C 2329.9879,628.52489 2319.547,617.89717 2319.547,604.85958 C 2319.5471,599.73461 2321.1713,595.00038 2323.922,591.10958 C 2326.3524,588.92247 2328.7378,586.67077 2331.047,584.35958 C 2328.561,578.86824 2325.7466,573.54637 2322.6095,568.45333 C 2320.8427,570.3487 2319.0277,572.20653 2317.172,574.01583 C 2316.0742,574.95368 2315.0077,575.93649 2314.0157,576.98458 C 2290.0868,599.13303 2259.6175,614.32061 2225.8282,619.29708 C 2231.2613,581.16823 2249.7038,547.23159 2276.4845,522.07833 C 2271.2363,518.81197 2265.7531,515.8689 2260.0782,513.29708 C 2257.7691,515.61369 2255.5183,517.99009 2253.3282,520.42208 C 2249.4171,523.19716 2244.6347,524.85949 2239.4845,524.85958 C 2226.4364,524.85941 2215.8331,514.40192 2215.547,501.42208 C 2210.9214,500.96723 2206.2289,500.70333 2201.4845,500.70333 z M 2201.4845,515.10958 C 2206.9697,529.76303 2220.7038,540.36851 2237.0157,541.35958 C 2218.4247,569.17618 2207.2209,602.32589 2206.297,638.04708 C 2242.0165,637.12914 2275.2018,625.96905 2303.0157,607.39083 C 2304.0253,623.67742 2314.6632,637.36906 2329.297,642.85958 C 2314.6487,648.3429 2304.0131,662.05518 2303.0157,678.35958 C 2275.2019,659.78138 2242.0166,648.59027 2206.297,647.67208 C 2207.2205,683.38428 2218.4332,716.54743 2237.0157,744.35963 C 2220.9086,745.52003 2207.3979,756.12923 2201.9532,770.64083 C 2196.4228,755.86703 2182.5354,745.16713 2166.047,744.32833 C 2184.6056,716.52473 2195.7486,683.37223 2196.672,647.67208 C 2160.9585,648.59609 2127.8275,659.80844 2100.0157,678.39083 C 2098.8553,662.28367 2088.2459,648.77303 2073.7345,643.32833 C 2088.515,637.79554 2099.2168,623.88927 2100.047,607.39083 C 2127.8513,625.95866 2160.9741,637.1236 2196.672,638.04708 C 2195.7478,602.32381 2184.5974,569.17538 2166.0157,541.35958 C 2182.31,540.35654 2195.992,529.74856 2201.4845,515.10958 z "
           id="path14367" />
        <g
           style="fill:#fcef3c;fill-opacity:1;stroke:#000000;stroke-width:0.2788905;stroke-miterlimit:4;stroke-dasharray:none;stroke-opacity:1"
           id="g16238">
          <path
             transform="matrix(0.775253,0,0,0.81501,1089.4,186.8612)"
             d="M 1455 387.86218 A 20.5 19.5 0 1 1  1414,387.86218 A 20.5 19.5 0 1 1  1455 387.86218 z"
             sodipodi:ry="19.5"
             sodipodi:rx="20.5"
             sodipodi:cy="387.86218"
             sodipodi:cx="1434.5"
             id="path14388"
             style="fill:#fcef3c;fill-opacity:1;fill-rule:evenodd;stroke:#000000;stroke-width:0.35085731;stroke-linecap:butt;stroke-linejoin:miter;stroke-miterlimit:4;stroke-dasharray:none;stroke-opacity:1"
             sodipodi:type="arc" />
          <path
             transform="matrix(0.671389,-0.387627,0.407505,0.705818,1010.393,804.0035)"
             d="M 1455 387.86218 A 20.5 19.5 0 1 1  1414,387.86218 A 20.5 19.5 0 1 1  1455 387.86218 z"
             sodipodi:ry="19.5"
             sodipodi:rx="20.5"
             sodipodi:cy="387.86218"
             sodipodi:cx="1434.5"
             id="path14390"
             style="fill:#fcef3c;fill-opacity:1;fill-rule:evenodd;stroke:#000000;stroke-width:0.35085746;stroke-linecap:butt;stroke-linejoin:miter;stroke-miterlimit:4;stroke-dasharray:none;stroke-opacity:1"
             sodipodi:type="arc" />
          <path
             transform="matrix(-0.671389,-0.387627,0.407505,-0.705818,2936.607,1593.817)"
             d="M 1455 387.86218 A 20.5 19.5 0 1 1  1414,387.86218 A 20.5 19.5 0 1 1  1455 387.86218 z"
             sodipodi:ry="19.5"
             sodipodi:rx="20.5"
             sodipodi:cy="387.86218"
             sodipodi:cx="1434.5"
             id="path14392"
             style="fill:#fcef3c;fill-opacity:1;fill-rule:evenodd;stroke:#000000;stroke-width:0.35085746;stroke-linecap:butt;stroke-linejoin:miter;stroke-miterlimit:4;stroke-dasharray:none;stroke-opacity:1"
             sodipodi:type="arc" />
          <path
             transform="matrix(-0.775254,-4.402797e-7,4.628583e-7,-0.815011,3313.6,1098.86)"
             d="M 1455 387.86218 A 20.5 19.5 0 1 1  1414,387.86218 A 20.5 19.5 0 1 1  1455 387.86218 z"
             sodipodi:ry="19.5"
             sodipodi:rx="20.5"
             sodipodi:cy="387.86218"
             sodipodi:cx="1434.5"
             id="path14394"
             style="fill:#fcef3c;fill-opacity:1;fill-rule:evenodd;stroke:#000000;stroke-width:0.35085686;stroke-linecap:butt;stroke-linejoin:miter;stroke-miterlimit:4;stroke-dasharray:none;stroke-opacity:1"
             sodipodi:type="arc" />
          <path
             transform="matrix(-0.671389,0.387627,-0.407505,-0.705819,3392.606,481.716)"
             d="M 1455 387.86218 A 20.5 19.5 0 1 1  1414,387.86218 A 20.5 19.5 0 1 1  1455 387.86218 z"
             sodipodi:ry="19.5"
             sodipodi:rx="20.5"
             sodipodi:cy="387.86218"
             sodipodi:cx="1434.5"
             id="path14396"
             style="fill:#fcef3c;fill-opacity:1;fill-rule:evenodd;stroke:#000000;stroke-width:0.35085728;stroke-linecap:butt;stroke-linejoin:miter;stroke-miterlimit:4;stroke-dasharray:none;stroke-opacity:1"
             sodipodi:type="arc" />
          <path
             sodipodi:type="arc"
             style="fill:#fcef3c;fill-opacity:1;fill-rule:evenodd;stroke:#000000;stroke-width:0.35085716;stroke-linecap:butt;stroke-linejoin:miter;stroke-miterlimit:4;stroke-dasharray:none;stroke-opacity:1"
             id="path14398"
             sodipodi:cx="1434.5"
             sodipodi:cy="387.86218"
             sodipodi:rx="20.5"
             sodipodi:ry="19.5"
             d="M 1455 387.86218 A 20.5 19.5 0 1 1  1414,387.86218 A 20.5 19.5 0 1 1  1455 387.86218 z"
             transform="matrix(-0.387628,0.671389,-0.705819,-0.407505,3152.458,-92.24858)" />
          <path
             sodipodi:type="arc"
             style="fill:#fcef3c;fill-opacity:1;fill-rule:evenodd;stroke:#000000;stroke-width:0.35085686;stroke-linecap:butt;stroke-linejoin:miter;stroke-miterlimit:4;stroke-dasharray:none;stroke-opacity:1"
             id="path14400"
             sodipodi:cx="1434.5"
             sodipodi:cy="387.86218"
             sodipodi:rx="20.5"
             sodipodi:ry="19.5"
             d="M 1455 387.86218 A 20.5 19.5 0 1 1  1414,387.86218 A 20.5 19.5 0 1 1  1455 387.86218 z"
             transform="matrix(-4.402797e-7,0.775254,-0.815011,-4.628583e-7,2657.502,-469.2423)" />
          <path
             sodipodi:type="arc"
             style="fill:#fcef3c;fill-opacity:1;fill-rule:evenodd;stroke:#000000;stroke-width:0.35085728;stroke-linecap:butt;stroke-linejoin:miter;stroke-miterlimit:4;stroke-dasharray:none;stroke-opacity:1"
             id="path14402"
             sodipodi:cx="1434.5"
             sodipodi:cy="387.86218"
             sodipodi:rx="20.5"
             sodipodi:ry="19.5"
             d="M 1455 387.86218 A 20.5 19.5 0 1 1  1414,387.86218 A 20.5 19.5 0 1 1  1455 387.86218 z"
             transform="matrix(0.387627,0.671389,-0.705819,0.407505,2040.357,-548.2492)" />
          <path
             transform="matrix(0.671389,0.387628,-0.407505,0.705819,1466.393,-308.0995)"
             d="M 1455 387.86218 A 20.5 19.5 0 1 1  1414,387.86218 A 20.5 19.5 0 1 1  1455 387.86218 z"
             sodipodi:ry="19.5"
             sodipodi:rx="20.5"
             sodipodi:cy="387.86218"
             sodipodi:cx="1434.5"
             id="path14404"
             style="fill:#fcef3c;fill-opacity:1;fill-rule:evenodd;stroke:#000000;stroke-width:0.35085716;stroke-linecap:butt;stroke-linejoin:miter;stroke-miterlimit:4;stroke-dasharray:none;stroke-opacity:1"
             sodipodi:type="arc" />
          <path
             sodipodi:type="arc"
             style="fill:#fcef3c;fill-opacity:1;fill-rule:evenodd;stroke:#000000;stroke-width:0.35085746;stroke-linecap:butt;stroke-linejoin:miter;stroke-miterlimit:4;stroke-dasharray:none;stroke-opacity:1"
             id="path14406"
             sodipodi:cx="1434.5"
             sodipodi:cy="387.86218"
             sodipodi:rx="20.5"
             sodipodi:ry="19.5"
             d="M 1455 387.86218 A 20.5 19.5 0 1 1  1414,387.86218 A 20.5 19.5 0 1 1  1455 387.86218 z"
             transform="matrix(0.387627,-0.671389,0.705818,0.407505,1250.543,1377.968)" />
          <path
             sodipodi:type="arc"
             style="fill:#fcef3c;fill-opacity:1;fill-rule:evenodd;stroke:#000000;stroke-width:0.35085731;stroke-linecap:butt;stroke-linejoin:miter;stroke-miterlimit:4;stroke-dasharray:none;stroke-opacity:1"
             id="path14408"
             sodipodi:cx="1434.5"
             sodipodi:cy="387.86218"
             sodipodi:rx="20.5"
             sodipodi:ry="19.5"
             d="M 1455 387.86218 A 20.5 19.5 0 1 1  1414,387.86218 A 20.5 19.5 0 1 1  1455 387.86218 z"
             transform="matrix(1.565175e-7,-0.775253,0.81501,1.645442e-7,1745.499,1754.96)" />
          <path
             sodipodi:type="arc"
             style="fill:#fcef3c;fill-opacity:1;fill-rule:evenodd;stroke:#000000;stroke-width:0.35085746;stroke-linecap:butt;stroke-linejoin:miter;stroke-miterlimit:4;stroke-dasharray:none;stroke-opacity:1"
             id="path14410"
             sodipodi:cx="1434.5"
             sodipodi:cy="387.86218"
             sodipodi:rx="20.5"
             sodipodi:ry="19.5"
             d="M 1455 387.86218 A 20.5 19.5 0 1 1  1414,387.86218 A 20.5 19.5 0 1 1  1455 387.86218 z"
             transform="matrix(-0.387627,-0.671389,0.705818,-0.407505,2362.644,1833.966)" />
        </g>
      </g>
    </g>
    <path
       style="fill:#ffffff;fill-opacity:1;stroke:#000000;stroke-width:0.40000001;stroke-miterlimit:4;stroke-dasharray:none;stroke-opacity:1"
       d="M 0.09375,-0.23948 L 0.09375,220.09534 C 3.0381406,171.24267 46.836746,132.43909 100.375,132.43909 C 155.81679,132.43909 200.80404,174.05447 200.71875,225.34534 C 200.63344,174.05447 245.65194,132.43909 301.09375,132.43909 C 356.53554,132.43909 401.52279,174.05447 401.4375,225.34534 C 401.35221,174.05447 446.33945,132.43909 501.78125,132.43909 C 557.22305,132.43909 602.24152,174.05447 602.15625,225.34534 C 602.07096,174.05447 647.0582,132.43909 702.5,132.43909 C 757.94179,132.43909 802.92905,174.05447 802.84375,225.34534 C 802.75844,174.05447 847.74571,132.43909 903.1875,132.43909 C 958.6293,132.43909 1003.6478,174.05447 1003.5625,225.34534 C 1003.4773,174.05447 1048.4645,132.43909 1103.9063,132.43909 C 1154.3815,132.43909 1196.1942,166.92769 1203.2813,211.81409 L 1203.2813,-0.23948 L 0.09375,-0.23948 z "
       id="path2299"
       sodipodi:nodetypes="ccscscscscscsccc" />
  </g>
</svg>
