<?xml version="1.0" encoding="UTF-8" standalone="no"?>
<svg
   xmlns:dc="http://purl.org/dc/elements/1.1/"
   xmlns:cc="http://creativecommons.org/ns#"
   xmlns:rdf="http://www.w3.org/1999/02/22-rdf-syntax-ns#"
   xmlns:svg="http://www.w3.org/2000/svg"
   xmlns="http://www.w3.org/2000/svg"
   xmlns:sodipodi="http://sodipodi.sourceforge.net/DTD/sodipodi-0.dtd"
   xmlns:inkscape="http://www.inkscape.org/namespaces/inkscape"
   version="1.1"
   id="Calque_1"
   x="0px"
   y="0px"
   width="1200"
   height="800"
   viewBox="0 0 1200 800"
   enable-background="new 0 0 500 300"
   xml:space="preserve"
   inkscape:version="1.0.1 (c497b03c, 2020-09-10)"
   sodipodi:docname="Drapeau fr deÌpartement Lot-et-Garonne copie.svg"><sodipodi:namedview
     pagecolor="#ffffff"
     bordercolor="#666666"
     borderopacity="1"
     objecttolerance="10"
     gridtolerance="10"
     guidetolerance="10"
     inkscape:pageopacity="0"
     inkscape:pageshadow="2"
     inkscape:window-width="1920"
     inkscape:window-height="942"
     id="namedview4354"
     showgrid="false"
     inkscape:zoom="0.52083335"
     inkscape:cx="878.68574"
     inkscape:cy="195.94219"
     inkscape:window-x="0"
     inkscape:window-y="25"
     inkscape:window-maximized="1"
     inkscape:current-layer="Calque_1"
     inkscape:document-rotation="0" /><metadata
     id="metadata5397"><rdf:RDF><cc:Work
         rdf:about=""><dc:format>image/svg+xml</dc:format><dc:type
           rdf:resource="http://purl.org/dc/dcmitype/StillImage" /><dc:title /></cc:Work></rdf:RDF></metadata><defs
     id="defs5395" /><g
     id="g1699"><rect
       width="1200"
       height="800"
       id="rect4963"
       x="0"
       y="0"
       style="fill:#c80a0f;fill-opacity:1;stroke-width:1.26491" /><path
       id="path1513"
       style="fill:#ffffff;stroke:none;stroke-width:0.965138px;stroke-linecap:butt;stroke-linejoin:miter;stroke-opacity:1"
       d="M 295,165.53516 C 222.5258,165.684 216.64448,214.60878 142.5,214.46484 71.918618,214.60187 63.195082,170.27402 0,165.88477 v 120 c 63.195082,4.38925 71.918618,48.7171 142.5,48.58007 74.14448,0.14394 80.0258,-48.78084 152.5,-48.92968 72.47423,0.14884 78.35436,49.07362 152.49609,48.92968 h 0.004 c 74.14173,0.14394 80.02385,-48.78084 152.49805,-48.92968 72.47423,0.14884 78.35358,49.07362 152.49804,48.92968 74.14448,0.14394 80.02584,-48.78084 152.5,-48.92968 72.4743,0.14884 78.35435,49.07362 152.49612,48.92968 h 0.012 c 70.578,0.13703 79.3029,-44.18809 142.4961,-48.57812 v -120 c -63.1932,4.39003 -71.9181,48.71515 -142.4961,48.57812 h -0.012 c -74.14177,0.14394 -80.02182,-48.78084 -152.49612,-48.92968 -72.47416,0.14884 -78.35552,49.07362 -152.5,48.92968 -74.14455,0.14394 -80.0239,-48.78084 -152.49813,-48.92968 -72.4742,0.14884 -78.35632,49.07362 -152.49805,48.92968 h -0.004 C 373.35436,214.60878 367.47423,165.684 295,165.53516 Z m 0,300 C 222.5258,465.684 216.64448,514.60878 142.5,514.46484 71.918618,514.60187 63.195082,470.27402 0,465.88477 v 120 c 63.195082,4.38925 71.918618,48.7171 142.5,48.58007 74.14448,0.14394 80.0258,-48.78084 152.5,-48.92968 72.47423,0.14884 78.35436,49.07362 152.49609,48.92968 h 0.004 c 74.14173,0.14394 80.02385,-48.78084 152.49805,-48.92968 72.47423,0.14884 78.35358,49.07362 152.49804,48.92968 74.14448,0.14394 80.02584,-48.78084 152.5,-48.92968 72.4743,0.14884 78.35435,49.07362 152.49612,48.92968 h 0.012 c 70.578,0.13703 79.3029,-44.18809 142.4961,-48.57812 v -120 c -63.1932,4.39003 -71.9181,48.71515 -142.4961,48.57812 h -0.012 c -74.14177,0.14394 -80.02182,-48.78084 -152.49612,-48.92968 -72.47416,0.14884 -78.35552,49.07362 -152.5,48.92968 -74.14455,0.14394 -80.0239,-48.78084 -152.49813,-48.92968 -72.4742,0.14884 -78.35632,49.07362 -152.49805,48.92968 h -0.004 C 373.35436,514.60878 367.47423,465.684 295,465.53516 Z" /><g
       id="g1550"><g
         id="use1527"
         fill="#fcef3c"
         stroke="#000000"
         stroke-width="2.83227"
         transform="matrix(0.57184595,0,0,0.57564845,559.25597,319.23955)"><path
           d="M 18.767578,1 V 21.730469 L 28.21875,32.542969 23.759766,139.06641 10.064453,214.75 1,224 h 140.5 l -9.06445,-9.25 -13.69532,-75.68359 -4.45898,-106.523441 9.44922,-10.8125 V 1 h -20.9668 V 11.365234 H 82.9375 V 1 H 59.5625 V 11.365234 H 39.736328 V 1 Z"
           stroke-linejoin="round"
           stroke-width="2.83227"
           transform="translate(-4e-6)"
           id="path1561" /><path
           d="m 264.22782,507.19331 h 71.54438 m 7.8552,-8.97622 h -87.25641 m -7.23497,160.23919 h 101.72797"
           fill="none"
           stroke-width="2.35289"
           transform="matrix(1.20292,0,0,1.20457,-289.62745,-578.40754)"
           id="path1563" /><path
           d="m 293.97147,538.13806 h 12.05683 v 27.4126 h -12.05683 z m -1.50675,27.4126 h 15.07105 v 3.04064 h -15.07105 z"
           stroke-linejoin="round"
           stroke-width="2.35289"
           transform="matrix(1.20292,0,0,1.20457,-289.62745,-578.40754)"
           id="path1565" /><path
           d="m 29.546875,31.697266 v 13.435546 h 9.035156 V 31.697266 Z m 25.214844,0 v 13.435546 h 9.035156 V 31.697266 Z m 26.441406,0 v 13.435546 h 9.035156 V 31.697266 Z m 25.214845,0 v 13.435546 h 9.03515 V 31.697266 Z"
           stroke-linejoin="round"
           stroke-width="2.82966"
           transform="matrix(1.00185,0,0,1,-1.383921,0.846538)"
           id="path1567" /><path
           d="m 299.96916,597.08296 c -16.008,0 -29,12.992 -29,29 v 40 h 9 v -40 c 0,-11.04 8.96,-20 20,-20 11.04001,0 20,8.96 20,20 v 40 h 9 v -40 c 0,-16.008 -12.992,-29 -29,-29 z"
           stroke-linejoin="round"
           stroke-width="2.35289"
           transform="matrix(1.20292,0,0,1.20457,-289.62745,-578.40754)"
           id="path1569" /><path
           d="m 294.43791,594.55171 2.09375,11.8125 c 0.20481,1.15548 2.31143,-0.2905 3.46924,-0.26992 1.15781,0.0206 3.26554,1.44792 3.46826,0.30117 l 2.09375,-11.84375 c -1.8519,-0.36956 -3.70723,-0.50885 -5.56254,-0.4861 -1.85531,0.0227 -3.71061,0.20752 -5.56246,0.4861 z m -10.46875,3.8125 c -3.15781,1.81813 -6.05417,4.20418 -8.53125,7.15625 l 9.21875,7.71875 c 1.49362,-1.77768 3.29189,-3.29796 5.3125,-4.46875 z m 32.0625,0 -6.03125,10.4375 c 2.01867,1.17546 3.82225,2.68694 5.3125,4.46875 l 9.25,-7.75 c -2.33885,-2.79412 -5.1939,-5.22943 -8.53125,-7.15625 z m -46.125,16.75 c -1.25036,3.42254 -1.9375,7.1151 -1.9375,10.96875 h 12 c 0,-2.40796 0.43763,-4.70508 1.21875,-6.84375 z m 60.1875,0.0312 -11.34375,4.125 c 0.77359,2.12956 1.21875,4.41673 1.21875,6.8125 0,0.0104 2e-5,0.0208 0,0.0312 h 12.0625 c 0.004,-3.64376 -0.61947,-7.34751 -1.9375,-10.96875 z m -62.125,20.93755 v 10 h 12 v -10 z m 52,0 v 10 h 12 v -10 z m -52,20 v 10 h 12 v -10 z m 52,0 v 10 h 12 v -10 z"
           stroke-linejoin="round"
           stroke-width="2.35289"
           transform="matrix(1.20292,0,0,1.20457,-289.62745,-578.40754)"
           id="path1571" /><path
           d="m 299.96916,606.08296 c -11.04,0 -20,8.96 -20,20 v 40 h 40 v -40 c 0,-11.04 -8.95999,-20 -20,-20 z"
           stroke-linejoin="round"
           stroke-width="2.35289"
           transform="matrix(1.20292,0,0,1.20457,-289.62745,-578.40754)"
           id="path1573" /><path
           d="m 29.535156,35.373047 h 9.035156 z m 25.214844,0 h 9.035156 z m 26.441406,0 h 9.035156 z m 25.214844,0 h 9.03516 z m -76.871094,5.419922 h 9.035156 z m 25.214844,0 h 9.035156 z m 26.441406,0 h 9.035156 z m 25.214844,0 h 9.03516 z"
           stroke-linejoin="round"
           stroke-width="2.82966"
           transform="matrix(1.00185,0,0,1,-1.383921,0.846538)"
           id="path1575" /></g><g
         id="use1400"
         fill="#fcef3c"
         stroke="#000000"
         stroke-width="2.83227"
         transform="matrix(0.57184595,0,0,0.57564845,319.25597,18.259363)"><path
           d="M 18.767578,1 V 21.730469 L 28.21875,32.542969 23.759766,139.06641 10.064453,214.75 1,224 h 140.5 l -9.06445,-9.25 -13.69532,-75.68359 -4.45898,-106.523441 9.44922,-10.8125 V 1 h -20.9668 V 11.365234 H 82.9375 V 1 H 59.5625 V 11.365234 H 39.736328 V 1 Z"
           stroke-linejoin="round"
           stroke-width="2.83227"
           transform="translate(-4e-6)"
           id="path1579" /><path
           d="m 264.22782,507.19331 h 71.54438 m 7.8552,-8.97622 h -87.25641 m -7.23497,160.23919 h 101.72797"
           fill="none"
           stroke-width="2.35289"
           transform="matrix(1.20292,0,0,1.20457,-289.62745,-578.40754)"
           id="path1581" /><path
           d="m 293.97147,538.13806 h 12.05683 v 27.4126 h -12.05683 z m -1.50675,27.4126 h 15.07105 v 3.04064 h -15.07105 z"
           stroke-linejoin="round"
           stroke-width="2.35289"
           transform="matrix(1.20292,0,0,1.20457,-289.62745,-578.40754)"
           id="path1583" /><path
           d="m 29.546875,31.697266 v 13.435546 h 9.035156 V 31.697266 Z m 25.214844,0 v 13.435546 h 9.035156 V 31.697266 Z m 26.441406,0 v 13.435546 h 9.035156 V 31.697266 Z m 25.214845,0 v 13.435546 h 9.03515 V 31.697266 Z"
           stroke-linejoin="round"
           stroke-width="2.82966"
           transform="matrix(1.00185,0,0,1,-1.383921,0.846538)"
           id="path1585" /><path
           d="m 299.96916,597.08296 c -16.008,0 -29,12.992 -29,29 v 40 h 9 v -40 c 0,-11.04 8.96,-20 20,-20 11.04001,0 20,8.96 20,20 v 40 h 9 v -40 c 0,-16.008 -12.992,-29 -29,-29 z"
           stroke-linejoin="round"
           stroke-width="2.35289"
           transform="matrix(1.20292,0,0,1.20457,-289.62745,-578.40754)"
           id="path1587" /><path
           d="m 294.43791,594.55171 2.09375,11.8125 c 0.20481,1.15548 2.31143,-0.2905 3.46924,-0.26992 1.15781,0.0206 3.26554,1.44792 3.46826,0.30117 l 2.09375,-11.84375 c -1.8519,-0.36956 -3.70723,-0.50885 -5.56254,-0.4861 -1.85531,0.0227 -3.71061,0.20752 -5.56246,0.4861 z m -10.46875,3.8125 c -3.15781,1.81813 -6.05417,4.20418 -8.53125,7.15625 l 9.21875,7.71875 c 1.49362,-1.77768 3.29189,-3.29796 5.3125,-4.46875 z m 32.0625,0 -6.03125,10.4375 c 2.01867,1.17546 3.82225,2.68694 5.3125,4.46875 l 9.25,-7.75 c -2.33885,-2.79412 -5.1939,-5.22943 -8.53125,-7.15625 z m -46.125,16.75 c -1.25036,3.42254 -1.9375,7.1151 -1.9375,10.96875 h 12 c 0,-2.40796 0.43763,-4.70508 1.21875,-6.84375 z m 60.1875,0.0312 -11.34375,4.125 c 0.77359,2.12956 1.21875,4.41673 1.21875,6.8125 0,0.0104 2e-5,0.0208 0,0.0312 h 12.0625 c 0.004,-3.64376 -0.61947,-7.34751 -1.9375,-10.96875 z m -62.125,20.93755 v 10 h 12 v -10 z m 52,0 v 10 h 12 v -10 z m -52,20 v 10 h 12 v -10 z m 52,0 v 10 h 12 v -10 z"
           stroke-linejoin="round"
           stroke-width="2.35289"
           transform="matrix(1.20292,0,0,1.20457,-289.62745,-578.40754)"
           id="path1589" /><path
           d="m 299.96916,606.08296 c -11.04,0 -20,8.96 -20,20 v 40 h 40 v -40 c 0,-11.04 -8.95999,-20 -20,-20 z"
           stroke-linejoin="round"
           stroke-width="2.35289"
           transform="matrix(1.20292,0,0,1.20457,-289.62745,-578.40754)"
           id="path1591" /><path
           d="m 29.535156,35.373047 h 9.035156 z m 25.214844,0 h 9.035156 z m 26.441406,0 h 9.035156 z m 25.214844,0 h 9.03516 z m -76.871094,5.419922 h 9.035156 z m 25.214844,0 h 9.035156 z m 26.441406,0 h 9.035156 z m 25.214844,0 h 9.03516 z"
           stroke-linejoin="round"
           stroke-width="2.82966"
           transform="matrix(1.00185,0,0,1,-1.383921,0.846538)"
           id="path1593" /></g><g
         id="use1529"
         fill="#fcef3c"
         stroke="#000000"
         stroke-width="2.83227"
         transform="matrix(0.57184595,0,0,0.57564845,799.25597,18.259363)"><path
           d="M 18.767578,1 V 21.730469 L 28.21875,32.542969 23.759766,139.06641 10.064453,214.75 1,224 h 140.5 l -9.06445,-9.25 -13.69532,-75.68359 -4.45898,-106.523441 9.44922,-10.8125 V 1 h -20.9668 V 11.365234 H 82.9375 V 1 H 59.5625 V 11.365234 H 39.736328 V 1 Z"
           stroke-linejoin="round"
           stroke-width="2.83227"
           transform="translate(-4e-6)"
           id="path1597" /><path
           d="m 264.22782,507.19331 h 71.54438 m 7.8552,-8.97622 h -87.25641 m -7.23497,160.23919 h 101.72797"
           fill="none"
           stroke-width="2.35289"
           transform="matrix(1.20292,0,0,1.20457,-289.62745,-578.40754)"
           id="path1599" /><path
           d="m 293.97147,538.13806 h 12.05683 v 27.4126 h -12.05683 z m -1.50675,27.4126 h 15.07105 v 3.04064 h -15.07105 z"
           stroke-linejoin="round"
           stroke-width="2.35289"
           transform="matrix(1.20292,0,0,1.20457,-289.62745,-578.40754)"
           id="path1601" /><path
           d="m 29.546875,31.697266 v 13.435546 h 9.035156 V 31.697266 Z m 25.214844,0 v 13.435546 h 9.035156 V 31.697266 Z m 26.441406,0 v 13.435546 h 9.035156 V 31.697266 Z m 25.214845,0 v 13.435546 h 9.03515 V 31.697266 Z"
           stroke-linejoin="round"
           stroke-width="2.82966"
           transform="matrix(1.00185,0,0,1,-1.383921,0.846538)"
           id="path1603" /><path
           d="m 299.96916,597.08296 c -16.008,0 -29,12.992 -29,29 v 40 h 9 v -40 c 0,-11.04 8.96,-20 20,-20 11.04001,0 20,8.96 20,20 v 40 h 9 v -40 c 0,-16.008 -12.992,-29 -29,-29 z"
           stroke-linejoin="round"
           stroke-width="2.35289"
           transform="matrix(1.20292,0,0,1.20457,-289.62745,-578.40754)"
           id="path1605" /><path
           d="m 294.43791,594.55171 2.09375,11.8125 c 0.20481,1.15548 2.31143,-0.2905 3.46924,-0.26992 1.15781,0.0206 3.26554,1.44792 3.46826,0.30117 l 2.09375,-11.84375 c -1.8519,-0.36956 -3.70723,-0.50885 -5.56254,-0.4861 -1.85531,0.0227 -3.71061,0.20752 -5.56246,0.4861 z m -10.46875,3.8125 c -3.15781,1.81813 -6.05417,4.20418 -8.53125,7.15625 l 9.21875,7.71875 c 1.49362,-1.77768 3.29189,-3.29796 5.3125,-4.46875 z m 32.0625,0 -6.03125,10.4375 c 2.01867,1.17546 3.82225,2.68694 5.3125,4.46875 l 9.25,-7.75 c -2.33885,-2.79412 -5.1939,-5.22943 -8.53125,-7.15625 z m -46.125,16.75 c -1.25036,3.42254 -1.9375,7.1151 -1.9375,10.96875 h 12 c 0,-2.40796 0.43763,-4.70508 1.21875,-6.84375 z m 60.1875,0.0312 -11.34375,4.125 c 0.77359,2.12956 1.21875,4.41673 1.21875,6.8125 0,0.0104 2e-5,0.0208 0,0.0312 h 12.0625 c 0.004,-3.64376 -0.61947,-7.34751 -1.9375,-10.96875 z m -62.125,20.93755 v 10 h 12 v -10 z m 52,0 v 10 h 12 v -10 z m -52,20 v 10 h 12 v -10 z m 52,0 v 10 h 12 v -10 z"
           stroke-linejoin="round"
           stroke-width="2.35289"
           transform="matrix(1.20292,0,0,1.20457,-289.62745,-578.40754)"
           id="path1607" /><path
           d="m 299.96916,606.08296 c -11.04,0 -20,8.96 -20,20 v 40 h 40 v -40 c 0,-11.04 -8.95999,-20 -20,-20 z"
           stroke-linejoin="round"
           stroke-width="2.35289"
           transform="matrix(1.20292,0,0,1.20457,-289.62745,-578.40754)"
           id="path1609" /><path
           d="m 29.535156,35.373047 h 9.035156 z m 25.214844,0 h 9.035156 z m 26.441406,0 h 9.035156 z m 25.214844,0 h 9.03516 z m -76.871094,5.419922 h 9.035156 z m 25.214844,0 h 9.035156 z m 26.441406,0 h 9.035156 z m 25.214844,0 h 9.03516 z"
           stroke-linejoin="round"
           stroke-width="2.82966"
           transform="matrix(1.00185,0,0,1,-1.383921,0.846538)"
           id="path1611" /></g><g
         id="use1535"
         fill="#fcef3c"
         stroke="#000000"
         stroke-width="2.83227"
         transform="matrix(0.57184595,0,0,0.57564845,319.25597,638.25936)"><path
           d="M 18.767578,1 V 21.730469 L 28.21875,32.542969 23.759766,139.06641 10.064453,214.75 1,224 h 140.5 l -9.06445,-9.25 -13.69532,-75.68359 -4.45898,-106.523441 9.44922,-10.8125 V 1 h -20.9668 V 11.365234 H 82.9375 V 1 H 59.5625 V 11.365234 H 39.736328 V 1 Z"
           stroke-linejoin="round"
           stroke-width="2.83227"
           transform="translate(-4e-6)"
           id="path1615" /><path
           d="m 264.22782,507.19331 h 71.54438 m 7.8552,-8.97622 h -87.25641 m -7.23497,160.23919 h 101.72797"
           fill="none"
           stroke-width="2.35289"
           transform="matrix(1.20292,0,0,1.20457,-289.62745,-578.40754)"
           id="path1617" /><path
           d="m 293.97147,538.13806 h 12.05683 v 27.4126 h -12.05683 z m -1.50675,27.4126 h 15.07105 v 3.04064 h -15.07105 z"
           stroke-linejoin="round"
           stroke-width="2.35289"
           transform="matrix(1.20292,0,0,1.20457,-289.62745,-578.40754)"
           id="path1619" /><path
           d="m 29.546875,31.697266 v 13.435546 h 9.035156 V 31.697266 Z m 25.214844,0 v 13.435546 h 9.035156 V 31.697266 Z m 26.441406,0 v 13.435546 h 9.035156 V 31.697266 Z m 25.214845,0 v 13.435546 h 9.03515 V 31.697266 Z"
           stroke-linejoin="round"
           stroke-width="2.82966"
           transform="matrix(1.00185,0,0,1,-1.383921,0.846538)"
           id="path1621" /><path
           d="m 299.96916,597.08296 c -16.008,0 -29,12.992 -29,29 v 40 h 9 v -40 c 0,-11.04 8.96,-20 20,-20 11.04001,0 20,8.96 20,20 v 40 h 9 v -40 c 0,-16.008 -12.992,-29 -29,-29 z"
           stroke-linejoin="round"
           stroke-width="2.35289"
           transform="matrix(1.20292,0,0,1.20457,-289.62745,-578.40754)"
           id="path1623" /><path
           d="m 294.43791,594.55171 2.09375,11.8125 c 0.20481,1.15548 2.31143,-0.2905 3.46924,-0.26992 1.15781,0.0206 3.26554,1.44792 3.46826,0.30117 l 2.09375,-11.84375 c -1.8519,-0.36956 -3.70723,-0.50885 -5.56254,-0.4861 -1.85531,0.0227 -3.71061,0.20752 -5.56246,0.4861 z m -10.46875,3.8125 c -3.15781,1.81813 -6.05417,4.20418 -8.53125,7.15625 l 9.21875,7.71875 c 1.49362,-1.77768 3.29189,-3.29796 5.3125,-4.46875 z m 32.0625,0 -6.03125,10.4375 c 2.01867,1.17546 3.82225,2.68694 5.3125,4.46875 l 9.25,-7.75 c -2.33885,-2.79412 -5.1939,-5.22943 -8.53125,-7.15625 z m -46.125,16.75 c -1.25036,3.42254 -1.9375,7.1151 -1.9375,10.96875 h 12 c 0,-2.40796 0.43763,-4.70508 1.21875,-6.84375 z m 60.1875,0.0312 -11.34375,4.125 c 0.77359,2.12956 1.21875,4.41673 1.21875,6.8125 0,0.0104 2e-5,0.0208 0,0.0312 h 12.0625 c 0.004,-3.64376 -0.61947,-7.34751 -1.9375,-10.96875 z m -62.125,20.93755 v 10 h 12 v -10 z m 52,0 v 10 h 12 v -10 z m -52,20 v 10 h 12 v -10 z m 52,0 v 10 h 12 v -10 z"
           stroke-linejoin="round"
           stroke-width="2.35289"
           transform="matrix(1.20292,0,0,1.20457,-289.62745,-578.40754)"
           id="path1625" /><path
           d="m 299.96916,606.08296 c -11.04,0 -20,8.96 -20,20 v 40 h 40 v -40 c 0,-11.04 -8.95999,-20 -20,-20 z"
           stroke-linejoin="round"
           stroke-width="2.35289"
           transform="matrix(1.20292,0,0,1.20457,-289.62745,-578.40754)"
           id="path1627" /><path
           d="m 29.535156,35.373047 h 9.035156 z m 25.214844,0 h 9.035156 z m 26.441406,0 h 9.035156 z m 25.214844,0 h 9.03516 z m -76.871094,5.419922 h 9.035156 z m 25.214844,0 h 9.035156 z m 26.441406,0 h 9.035156 z m 25.214844,0 h 9.03516 z"
           stroke-linejoin="round"
           stroke-width="2.82966"
           transform="matrix(1.00185,0,0,1,-1.383921,0.846538)"
           id="path1629" /></g><g
         id="use1537"
         fill="#fcef3c"
         stroke="#000000"
         stroke-width="2.83227"
         transform="matrix(0.57184595,0,0,0.57564845,799.25597,638.25936)"><path
           d="M 18.767578,1 V 21.730469 L 28.21875,32.542969 23.759766,139.06641 10.064453,214.75 1,224 h 140.5 l -9.06445,-9.25 -13.69532,-75.68359 -4.45898,-106.523441 9.44922,-10.8125 V 1 h -20.9668 V 11.365234 H 82.9375 V 1 H 59.5625 V 11.365234 H 39.736328 V 1 Z"
           stroke-linejoin="round"
           stroke-width="2.83227"
           transform="translate(-4e-6)"
           id="path1633" /><path
           d="m 264.22782,507.19331 h 71.54438 m 7.8552,-8.97622 h -87.25641 m -7.23497,160.23919 h 101.72797"
           fill="none"
           stroke-width="2.35289"
           transform="matrix(1.20292,0,0,1.20457,-289.62745,-578.40754)"
           id="path1635" /><path
           d="m 293.97147,538.13806 h 12.05683 v 27.4126 h -12.05683 z m -1.50675,27.4126 h 15.07105 v 3.04064 h -15.07105 z"
           stroke-linejoin="round"
           stroke-width="2.35289"
           transform="matrix(1.20292,0,0,1.20457,-289.62745,-578.40754)"
           id="path1637" /><path
           d="m 29.546875,31.697266 v 13.435546 h 9.035156 V 31.697266 Z m 25.214844,0 v 13.435546 h 9.035156 V 31.697266 Z m 26.441406,0 v 13.435546 h 9.035156 V 31.697266 Z m 25.214845,0 v 13.435546 h 9.03515 V 31.697266 Z"
           stroke-linejoin="round"
           stroke-width="2.82966"
           transform="matrix(1.00185,0,0,1,-1.383921,0.846538)"
           id="path1639" /><path
           d="m 299.96916,597.08296 c -16.008,0 -29,12.992 -29,29 v 40 h 9 v -40 c 0,-11.04 8.96,-20 20,-20 11.04001,0 20,8.96 20,20 v 40 h 9 v -40 c 0,-16.008 -12.992,-29 -29,-29 z"
           stroke-linejoin="round"
           stroke-width="2.35289"
           transform="matrix(1.20292,0,0,1.20457,-289.62745,-578.40754)"
           id="path1641" /><path
           d="m 294.43791,594.55171 2.09375,11.8125 c 0.20481,1.15548 2.31143,-0.2905 3.46924,-0.26992 1.15781,0.0206 3.26554,1.44792 3.46826,0.30117 l 2.09375,-11.84375 c -1.8519,-0.36956 -3.70723,-0.50885 -5.56254,-0.4861 -1.85531,0.0227 -3.71061,0.20752 -5.56246,0.4861 z m -10.46875,3.8125 c -3.15781,1.81813 -6.05417,4.20418 -8.53125,7.15625 l 9.21875,7.71875 c 1.49362,-1.77768 3.29189,-3.29796 5.3125,-4.46875 z m 32.0625,0 -6.03125,10.4375 c 2.01867,1.17546 3.82225,2.68694 5.3125,4.46875 l 9.25,-7.75 c -2.33885,-2.79412 -5.1939,-5.22943 -8.53125,-7.15625 z m -46.125,16.75 c -1.25036,3.42254 -1.9375,7.1151 -1.9375,10.96875 h 12 c 0,-2.40796 0.43763,-4.70508 1.21875,-6.84375 z m 60.1875,0.0312 -11.34375,4.125 c 0.77359,2.12956 1.21875,4.41673 1.21875,6.8125 0,0.0104 2e-5,0.0208 0,0.0312 h 12.0625 c 0.004,-3.64376 -0.61947,-7.34751 -1.9375,-10.96875 z m -62.125,20.93755 v 10 h 12 v -10 z m 52,0 v 10 h 12 v -10 z m -52,20 v 10 h 12 v -10 z m 52,0 v 10 h 12 v -10 z"
           stroke-linejoin="round"
           stroke-width="2.35289"
           transform="matrix(1.20292,0,0,1.20457,-289.62745,-578.40754)"
           id="path1643" /><path
           d="m 299.96916,606.08296 c -11.04,0 -20,8.96 -20,20 v 40 h 40 v -40 c 0,-11.04 -8.95999,-20 -20,-20 z"
           stroke-linejoin="round"
           stroke-width="2.35289"
           transform="matrix(1.20292,0,0,1.20457,-289.62745,-578.40754)"
           id="path1645" /><path
           d="m 29.535156,35.373047 h 9.035156 z m 25.214844,0 h 9.035156 z m 26.441406,0 h 9.035156 z m 25.214844,0 h 9.03516 z m -76.871094,5.419922 h 9.035156 z m 25.214844,0 h 9.035156 z m 26.441406,0 h 9.035156 z m 25.214844,0 h 9.03516 z"
           stroke-linejoin="round"
           stroke-width="2.82966"
           transform="matrix(1.00185,0,0,1,-1.383921,0.846538)"
           id="path1647" /></g></g></g></svg>
