<?xml version="1.0" encoding="UTF-8" standalone="no"?>
<!-- Created with Inkscape (http://www.inkscape.org/) -->
<svg
   xmlns:dc="http://purl.org/dc/elements/1.1/"
   xmlns:cc="http://web.resource.org/cc/"
   xmlns:rdf="http://www.w3.org/1999/02/22-rdf-syntax-ns#"
   xmlns:svg="http://www.w3.org/2000/svg"
   xmlns="http://www.w3.org/2000/svg"
   xmlns:sodipodi="http://sodipodi.sourceforge.net/DTD/sodipodi-0.dtd"
   xmlns:inkscape="http://www.inkscape.org/namespaces/inkscape"
   width="1203.588"
   height="797.19165"
   id="svg2"
   sodipodi:version="0.32"
   inkscape:version="0.45.1"
   sodipodi:docbase="C:\Users\Jany\Documents\aaaOuiqui\Drapeaux"
   sodipodi:docname="Drapeau fr département Loiret.svg"
   inkscape:output_extension="org.inkscape.output.svg.inkscape"
   version="1.0">
  <defs
     id="defs4" />
  <sodipodi:namedview
     id="base"
     pagecolor="#ffffff"
     bordercolor="#666666"
     borderopacity="1.0"
     inkscape:pageopacity="0.0"
     inkscape:pageshadow="2"
     inkscape:zoom="0.49497475"
     inkscape:cx="827.23839"
     inkscape:cy="310.88422"
     inkscape:document-units="px"
     inkscape:current-layer="layer1"
     inkscape:window-width="1152"
     inkscape:window-height="814"
     inkscape:window-x="-8"
     inkscape:window-y="-8"
     showguides="true"
     inkscape:guide-bbox="true">
    <sodipodi:guide
       orientation="vertical"
       position="-745.49257"
       id="guide28349" />
  </sodipodi:namedview>
  <metadata
     id="metadata7">
    <rdf:RDF>
      <cc:Work
         rdf:about="">
        <dc:format>image/svg+xml</dc:format>
        <dc:type
           rdf:resource="http://purl.org/dc/dcmitype/StillImage" />
      </cc:Work>
    </rdf:RDF>
  </metadata>
  <g
     inkscape:label="Calque 1"
     inkscape:groupmode="layer"
     id="layer1"
     transform="translate(1126.0609,-137.47842)"
     style="display:inline">
    <g
       transform="translate(-1022.3356,584.65272)"
       id="g22331"
       style="display:inline" />
    <path
       style="fill:none;fill-opacity:0.75;fill-rule:evenodd;stroke:none;stroke-width:3;stroke-linecap:butt;stroke-linejoin:miter;stroke-miterlimit:4;stroke-dasharray:none;stroke-opacity:1;display:inline"
       d="M 95.2819,215.06078 L 95.2819,-235.96609"
       id="path11207" />
    <rect
       transform="matrix(0,-1,1,0,0,0)"
       y="-44.954388"
       x="557.12079"
       height="0"
       width="1.5233166"
       id="rect12745"
       style="fill:#ffffff;fill-opacity:1;fill-rule:evenodd;stroke:none;stroke-width:1.52331662;stroke-linecap:round;stroke-linejoin:round;stroke-miterlimit:4;stroke-dasharray:none;stroke-dashoffset:0;stroke-opacity:1" />
    <path
       sodipodi:nodetypes="ccccc"
       id="rect2239"
       d="M -1125.856,137.67842 L 77.322109,137.67842 L 77.322109,934.47007 L -1125.856,934.47007 L -1125.856,137.67842 z "
       style="fill:#2b5df2;fill-opacity:1;stroke:#000000;stroke-width:0.40000001;stroke-miterlimit:4;stroke-dasharray:none;stroke-opacity:1" />
    <path
       style="fill:none;fill-rule:evenodd;stroke:#000000;stroke-width:0.98280448px;stroke-linecap:butt;stroke-linejoin:miter;stroke-opacity:1"
       d="M 212.19321,1320.0324 L 212.19321,1320.0324 z "
       id="path30950" />
    <path
       sodipodi:nodetypes="csccsssssssssccsssssssc"
       style="fill:#ffffff;fill-opacity:1;stroke:#000000;stroke-width:0.3658568;stroke-miterlimit:4;stroke-dasharray:none;stroke-opacity:1"
       d="M -906.68409,490.95937 C -969.6431,490.95937 -971.63508,520.87327 -1034.594,520.87327 C -1082.3698,520.87327 -1095.0377,503.65 -1125.878,495.34463 L -1125.878,640.31348 C -1083.124,646.20347 -1074.4516,668.84393 -1019.6874,668.84393 C -956.7284,668.84393 -954.76763,638.93003 -891.80872,638.93003 C -828.8498,638.93003 -826.85772,668.84393 -763.89881,668.84393 C -700.9399,668.84393 -698.94782,638.93003 -635.9889,638.93003 C -573.02999,638.93003 -571.06911,668.84393 -508.1102,668.84393 C -445.15129,668.84393 -443.15921,638.93003 -380.2003,638.93003 C -317.24142,638.93003 -315.24936,668.84393 -252.29036,668.84393 C -189.33136,668.84393 -212.92984,638.93003 -124.41171,638.93003 C -35.893657,638.93003 -74.925864,668.84393 3.4982636,668.84393 C 55.902675,668.84393 56.735907,655.49054 77.344098,646.63037 L 77.344098,494.11777 C 40.186531,501.79509 51.271948,520.87327 -11.377157,520.87327 C -89.801394,520.87327 -50.769178,490.95937 -139.28713,490.95937 C -227.80526,490.95937 -204.20679,520.87327 -267.16579,520.87327 C -330.12479,520.87327 -332.11675,490.95937 -395.07567,490.95937 C -458.03468,490.95937 -460.02676,520.87327 -522.98567,520.87327 C -585.94459,520.87327 -587.93656,490.95937 -650.89558,490.95937 C -713.85449,490.95937 -715.81527,520.87327 -778.77418,520.87327 C -841.73319,520.87327 -843.72517,490.95937 -906.68409,490.95937 z "
       id="path6030" />
    <g
       style="stroke:#000000;stroke-width:1.27075899;stroke-miterlimit:4;stroke-dasharray:none;stroke-opacity:1;display:inline"
       id="g3413"
       transform="matrix(0.629545,0,0,0.629545,-494.57803,1142.7927)">
      <path
         sodipodi:nodetypes="csssssscscsscccccccsscscssssssc"
         id="path3415"
         d="M -48.09683,-730.04688 C -18.63463,-698.20088 -1.311324,-680.63851 1.71567,-631.22551 C 4.516922,-585.49753 -25.91305,-547.26746 -32.47183,-503.03801 C -33.71586,-494.64886 -34.78343,-477.52504 -33.65933,-470.58029 C -32.82682,-465.43703 -30.2673,-449.72452 -27.47183,-469.16609 C -26.89689,-473.16463 -26.48464,-493.22641 -24.72183,-503.41301 C -21.50976,-521.97423 -11.22367,-554.61188 6.62192,-572.69426 C 24.45989,-590.7689 52.7264,-602.49289 77.93442,-593.03801 C 100.77409,-582.49963 102.93306,-552.73834 96.43442,-530.97551 C 88.29557,-503.71988 57.19325,-484.85525 29.30942,-483.00676 C 34.83452,-493.933 48.05897,-525.11969 33.71567,-523.88176 C 17.11291,-522.44882 -2.746744,-494.20056 -7.917294,-474.82293 C -9.864494,-467.52547 -9.07753,-456.19513 -19.50308,-456.66301 C -12.62837,-433.43496 6.77717,-418.06468 23.77817,-401.85051 C 6.05563,-400.37739 -11.47738,-408.7178 -26.94058,-416.66301 C -26.286749,-400.73784 -29.378446,-367.09562 -48.09683,-348.72551 C -65.471545,-367.64157 -67.052581,-390.71209 -67.37808,-416.66301 C -82.84128,-408.7178 -100.37429,-400.37739 -118.09683,-401.85051 C -101.09583,-418.06468 -81.690291,-433.43496 -74.81558,-456.66301 C -85.24113,-456.19513 -85.868385,-466.81836 -87.81558,-474.11582 C -92.98613,-493.49343 -111.43157,-522.44884 -128.03433,-523.88176 C -142.37763,-525.11969 -129.15318,-493.933 -123.62808,-483.00676 C -151.51191,-484.85525 -182.61422,-503.71988 -190.75308,-530.97551 C -197.25172,-552.73834 -195.09274,-582.49964 -172.25308,-593.03801 C -147.04505,-602.49289 -118.77855,-590.76891 -100.94058,-572.69426 C -83.094993,-554.61188 -72.808901,-521.97423 -69.59683,-503.41301 C -67.83402,-493.22641 -68.128878,-474.57884 -67.553937,-470.58029 C -64.758467,-451.13871 -61.491841,-465.43705 -60.65933,-470.58029 C -59.53523,-477.52504 -60.602801,-494.64887 -61.84683,-503.03801 C -68.40561,-547.26744 -95.955806,-587.0527 -96.03433,-631.22551 C -96.103977,-671.11179 -76.05061,-701.46041 -48.09683,-730.04688 z "
         style="fill:#fcef3c;fill-opacity:1;fill-rule:evenodd;stroke:#000000;stroke-width:1.27075899;stroke-linecap:butt;stroke-linejoin:miter;stroke-miterlimit:4;stroke-dasharray:none;stroke-opacity:1" />
      <rect
         transform="scale(-1,1)"
         ry="7.0119839"
         y="-474.15433"
         x="-20.840672"
         height="22"
         width="136"
         id="rect3417"
         style="fill:#fcef3c;fill-opacity:1;fill-rule:evenodd;stroke:#000000;stroke-width:1.27075899;stroke-linejoin:round;stroke-miterlimit:4;stroke-dasharray:none;stroke-opacity:1"
         rx="7.0119839" />
    </g>
    <g
       id="g9822"
       transform="translate(1.9701884,-4.0406102)">
      <g
         style="stroke-width:0.80000001;stroke-miterlimit:4;stroke-dasharray:none"
         id="g8849">
        <path
           style="fill:#fcef3c;fill-opacity:1;fill-rule:evenodd;stroke:#000000;stroke-width:0.80000001;stroke-linecap:butt;stroke-linejoin:miter;stroke-miterlimit:4;stroke-dasharray:none;stroke-opacity:1"
           d="M -788.45685,273.07341 C -769.90907,293.1219 -759.00327,304.1782 -757.09764,335.28591 C -755.33412,364.07373 -774.49116,388.14128 -778.62021,415.98571 C -779.40338,421.26705 -780.07546,432.04727 -779.36779,436.4193 C -778.84369,439.65721 -777.23236,449.54895 -775.47248,437.3096 C -775.11053,434.79234 -774.851,422.16255 -773.74123,415.74963 C -771.71909,404.0645 -765.24354,383.51763 -754.00893,372.13396 C -742.77913,360.75516 -724.98409,353.37438 -709.11451,359.32666 C -694.73591,365.96104 -693.37674,384.69711 -697.46792,398.39779 C -702.5917,415.55644 -722.17201,427.43257 -739.72613,428.59628 C -736.24783,421.71772 -727.92245,402.08429 -736.9522,402.86363 C -747.40438,403.76573 -759.90693,421.54928 -763.16202,433.74837 C -764.38787,438.34245 -763.89244,445.47541 -770.4558,445.18086 C -766.12786,459.80396 -753.9112,469.48024 -743.2083,479.68779 C -754.36544,480.61519 -765.40326,475.36452 -775.13804,470.36266 C -774.72642,480.38827 -776.67278,501.56756 -788.45685,513.13237 C -799.39501,501.22386 -800.39035,486.69993 -800.59526,470.36266 C -810.33004,475.36452 -821.36786,480.61519 -832.525,479.68779 C -821.8221,469.48024 -809.60544,459.80396 -805.2775,445.18086 C -811.84086,445.47541 -812.23574,438.78761 -813.46159,434.19353 C -816.71668,421.99445 -828.32892,403.76572 -838.7811,402.86363 C -847.81086,402.08429 -839.48547,421.71772 -836.00717,428.59628 C -853.5613,427.43257 -873.1416,415.55644 -878.26538,398.39779 C -882.35656,384.69711 -880.99739,365.96103 -866.6188,359.32666 C -850.74921,353.37438 -832.95417,360.75516 -821.72437,372.13396 C -810.48977,383.51763 -804.01421,404.0645 -801.99207,415.74963 C -800.8823,422.16255 -801.06792,433.90203 -800.70597,436.4193 C -798.9461,448.65865 -796.88961,439.6572 -796.36551,436.4193 C -795.65784,432.04727 -796.32992,421.26705 -797.11309,415.98571 C -801.24214,388.14129 -818.58623,363.09468 -818.63566,335.28591 C -818.67951,310.1757 -806.05501,291.06988 -788.45685,273.07341 z "
           id="path5561"
           sodipodi:nodetypes="csssssscscsscccccccsscscssssssc" />
        <rect
           rx="4.4143596"
           style="fill:#fcef3c;fill-opacity:1;fill-rule:evenodd;stroke:#000000;stroke-width:0.80000001;stroke-linejoin:round;stroke-miterlimit:4;stroke-dasharray:none;stroke-opacity:1"
           id="rect5563"
           width="85.618118"
           height="13.84999"
           x="745.05762"
           y="434.16928"
           ry="4.4143596"
           transform="scale(-1,1)" />
      </g>
      <g
         style="stroke:#000000;stroke-width:1.27075899;stroke-miterlimit:4;stroke-dasharray:none;stroke-opacity:1;display:inline"
         id="g5553"
         transform="matrix(0.629545,0,0,0.629545,-234.91871,734.69108)">
        <path
           sodipodi:nodetypes="csssssscscsscccccccsscscssssssc"
           id="path5555"
           d="M -48.09683,-730.04688 C -18.63463,-698.20088 -1.311324,-680.63851 1.71567,-631.22551 C 4.516922,-585.49753 -25.91305,-547.26746 -32.47183,-503.03801 C -33.71586,-494.64886 -34.78343,-477.52504 -33.65933,-470.58029 C -32.82682,-465.43703 -30.2673,-449.72452 -27.47183,-469.16609 C -26.89689,-473.16463 -26.48464,-493.22641 -24.72183,-503.41301 C -21.50976,-521.97423 -11.22367,-554.61188 6.62192,-572.69426 C 24.45989,-590.7689 52.7264,-602.49289 77.93442,-593.03801 C 100.77409,-582.49963 102.93306,-552.73834 96.43442,-530.97551 C 88.29557,-503.71988 57.19325,-484.85525 29.30942,-483.00676 C 34.83452,-493.933 48.05897,-525.11969 33.71567,-523.88176 C 17.11291,-522.44882 -2.746744,-494.20056 -7.917294,-474.82293 C -9.864494,-467.52547 -9.07753,-456.19513 -19.50308,-456.66301 C -12.62837,-433.43496 6.77717,-418.06468 23.77817,-401.85051 C 6.05563,-400.37739 -11.47738,-408.7178 -26.94058,-416.66301 C -26.286749,-400.73784 -29.378446,-367.09562 -48.09683,-348.72551 C -65.471545,-367.64157 -67.052581,-390.71209 -67.37808,-416.66301 C -82.84128,-408.7178 -100.37429,-400.37739 -118.09683,-401.85051 C -101.09583,-418.06468 -81.690291,-433.43496 -74.81558,-456.66301 C -85.24113,-456.19513 -85.868385,-466.81836 -87.81558,-474.11582 C -92.98613,-493.49343 -111.43157,-522.44884 -128.03433,-523.88176 C -142.37763,-525.11969 -129.15318,-493.933 -123.62808,-483.00676 C -151.51191,-484.85525 -182.61422,-503.71988 -190.75308,-530.97551 C -197.25172,-552.73834 -195.09274,-582.49964 -172.25308,-593.03801 C -147.04505,-602.49289 -118.77855,-590.76891 -100.94058,-572.69426 C -83.094993,-554.61188 -72.808901,-521.97423 -69.59683,-503.41301 C -67.83402,-493.22641 -68.128878,-474.57884 -67.553937,-470.58029 C -64.758467,-451.13871 -61.491841,-465.43705 -60.65933,-470.58029 C -59.53523,-477.52504 -60.602801,-494.64887 -61.84683,-503.03801 C -68.40561,-547.26744 -95.955806,-587.0527 -96.03433,-631.22551 C -96.103977,-671.11179 -76.05061,-701.46041 -48.09683,-730.04688 z "
           style="fill:#fcef3c;fill-opacity:1;fill-rule:evenodd;stroke:#000000;stroke-width:1.27075899;stroke-linecap:butt;stroke-linejoin:miter;stroke-miterlimit:4;stroke-dasharray:none;stroke-opacity:1" />
        <rect
           transform="scale(-1,1)"
           ry="7.0119839"
           y="-474.15433"
           x="-20.840672"
           height="22"
           width="136"
           id="rect5557"
           style="fill:#fcef3c;fill-opacity:1;fill-rule:evenodd;stroke:#000000;stroke-width:1.27075899;stroke-linejoin:round;stroke-miterlimit:4;stroke-dasharray:none;stroke-opacity:1"
           rx="7.0119839" />
      </g>
    </g>
    <path
       style="fill:#ffffff;fill-opacity:1;fill-rule:evenodd;stroke:#000000;stroke-width:0.87206811px;stroke-linecap:butt;stroke-linejoin:miter;stroke-opacity:1"
       d="M -974.59462,291.75809 C -966.29717,291.75809 -839.99078,291.75809 -839.99078,291.75809 L -870.4987,209.88756 L -556.61977,209.88756 L -587.60944,291.75809 L -453.86478,291.75809 L -487.0547,209.88756 L -174.97578,209.88756 L -206.46887,291.75809 L -73.939281,291.75809 L -123.11659,176.1653 L -923.82471,176.1653 L -974.59462,291.75809 z "
       id="path12492"
       sodipodi:nodetypes="ccccccccccccc" />
  </g>
  <g
     inkscape:groupmode="layer"
     id="layer2"
     transform="translate(-1.2170716,-1.26427)">
    <path
       id="path3430"
       d="M 799.5926,1303.6645 L 799.5926,1303.6645 z "
       style="fill:none;fill-rule:evenodd;stroke:#000000;stroke-width:0.98280448px;stroke-linecap:butt;stroke-linejoin:miter;stroke-opacity:1" />
  </g>
</svg>
