<?xml version="1.0" encoding="UTF-8"?>
<svg xmlns="http://www.w3.org/2000/svg" width="489.437" height="325.049">
	<path fill="#E80000" d="M489.437,40.904l-0.062,0l0.003,6.219L61.5,324.995l-9.486,0.035l0.003,0.004
		L489.437,40.904z"/>
	<path fill="#E80000" d="M0.102,288.011l-0.012-0.017L0,282.12L434.184,0.039l9.226-0.009L0.102,288.011z"/>
	<path fill="#E80000" d="M0.123,268.741c0.195-0.109,0.387-0.226,0.577-0.349
		c4.585-2.979,5.915-9.07,2.968-13.605c-0.755-1.162-1.718-2.109-2.809-2.825l-0.794-0.423L0.089,0.03l378.513-0.011
		c-2.853,3.239-3.35,8.057-0.908,11.815c2.946,4.535,9.053,5.797,13.639,2.819c2.814-1.829,4.404-4.83,4.529-7.923
		c2.947,5.489,1.196,12.445-4.184,15.939c-4.12,2.678-9.238,2.583-13.12,0.174l-0.007,0.004
		c0.623,4.526-1.369,9.238-5.49,11.916c-5.379,3.494-12.448,2.267-16.265-2.658c2.877,1.142,6.266,0.91,9.078-0.917
		c4.588-2.979,5.917-9.07,2.971-13.606c-2.892-4.451-8.826-5.748-13.38-2.979l-0.02-0.029c-0.201-1.327-0.682-2.629-1.457-3.826
		c-2.946-4.535-9.053-5.796-13.639-2.816l-0.463,0.3c-4.587,2.979-5.917,9.071-2.971,13.606
		c0.775,1.195,1.774,2.163,2.904,2.886l0.018,0.029c-4.382,3.034-5.611,8.986-2.718,13.437
		c2.943,4.535,9.052,5.797,13.636,2.819c2.817-1.829,4.404-4.83,4.53-7.923c2.946,5.488,1.195,12.445-4.184,15.939
		c-4.121,2.678-9.239,2.583-13.121,0.175l-0.004,0.003c0.621,4.526-1.371,9.237-5.493,11.916
		c-5.379,3.493-12.448,2.266-16.264-2.659c2.878,1.143,6.268,0.911,9.08-0.917c4.586-2.979,5.915-9.07,2.969-13.606
		c-2.89-4.451-8.826-5.748-13.38-2.979l-0.021-0.028c-0.2-1.327-0.682-2.631-1.457-3.826c-2.946-4.535-9.053-5.796-13.639-2.817
		l-0.463,0.3c-4.587,2.979-5.917,9.072-2.971,13.607c0.775,1.196,1.774,2.163,2.904,2.885l0.02,0.03
		c-4.384,3.035-5.611,8.986-2.72,13.437c2.946,4.535,9.052,5.798,13.636,2.82c2.817-1.83,4.405-4.831,4.531-7.923
		c2.949,5.489,1.197,12.445-4.184,15.939c-4.122,2.676-9.238,2.583-13.122,0.173l-0.004,0.005
		c0.621,4.526-1.371,9.238-5.492,11.916c-5.378,3.493-12.445,2.267-16.264-2.659c2.877,1.143,6.267,0.911,9.079-0.917
		c4.586-2.979,5.915-9.07,2.969-13.606c-2.89-4.451-8.826-5.749-13.38-2.978l-0.018-0.029c-0.203-1.326-0.683-2.63-1.46-3.826
		c-2.945-4.535-9.052-5.797-13.637-2.818l-0.464,0.301c-4.588,2.979-5.917,9.071-2.972,13.606
		c0.778,1.195,1.774,2.162,2.905,2.885l0.019,0.03c-4.384,3.035-5.611,8.986-2.72,13.437c2.946,4.535,9.052,5.797,13.636,2.819
		c2.817-1.83,4.406-4.831,4.531-7.923c2.949,5.489,1.197,12.445-4.184,15.939c-4.121,2.677-9.236,2.582-13.12,0.173
		l-0.006,0.004c0.621,4.527-1.37,9.238-5.491,11.917c-5.379,3.494-12.446,2.267-16.265-2.658
		c2.877,1.143,6.267,0.911,9.079-0.917c4.586-2.979,5.915-9.07,2.969-13.606c-2.89-4.451-8.825-5.748-13.38-2.979l-0.018-0.029
		c-0.202-1.326-0.683-2.63-1.459-3.825c-2.946-4.535-9.051-5.798-13.638-2.818l-0.463,0.301
		c-4.585,2.979-5.918,9.071-2.972,13.606c0.777,1.197,1.775,2.164,2.904,2.886l0.019,0.03
		c-4.382,3.035-5.611,8.986-2.719,13.437c2.945,4.535,9.053,5.797,13.637,2.818c2.816-1.829,4.404-4.831,4.529-7.923
		c2.949,5.489,1.197,12.446-4.181,15.94c-4.123,2.677-9.239,2.583-13.123,0.174l-0.005,0.004
		c0.621,4.527-1.371,9.238-5.492,11.916c-5.379,3.493-12.446,2.267-16.264-2.658c2.876,1.143,6.267,0.911,9.079-0.917
		c4.588-2.979,5.918-9.07,2.971-13.606c-2.89-4.451-8.828-5.75-13.38-2.979l-0.021-0.029c-0.202-1.327-0.683-2.63-1.458-3.826
		c-2.946-4.535-9.052-5.797-13.639-2.818l-0.463,0.301c-4.585,2.98-5.916,9.072-2.971,13.607
		c0.776,1.195,1.774,2.162,2.904,2.886l0.021,0.03c-4.386,3.035-5.611,8.986-2.722,13.437c2.946,4.535,9.052,5.797,13.636,2.818
		c2.817-1.829,4.404-4.831,4.531-7.923c2.949,5.489,1.197,12.446-4.182,15.94c-4.124,2.677-9.239,2.582-13.124,0.173
		l-0.003,0.004c0.622,4.527-1.371,9.239-5.494,11.917c-5.375,3.493-12.445,2.266-16.263-2.659
		c2.878,1.142,6.267,0.91,9.08-0.917c4.587-2.979,5.917-9.07,2.97-13.606c-2.89-4.451-8.827-5.749-13.379-2.979l-0.02-0.029
		c-0.202-1.325-0.68-2.629-1.459-3.826c-2.945-4.534-9.051-5.796-13.638-2.817l-0.462,0.302
		c-4.586,2.978-5.916,9.071-2.971,13.606c0.777,1.195,1.774,2.163,2.905,2.886l0.02,0.029
		c-4.385,3.035-5.611,8.986-2.721,13.437c2.946,4.535,9.051,5.797,13.636,2.819c2.817-1.829,4.405-4.83,4.532-7.923
		c2.948,5.49,1.196,12.446-4.183,15.94c-4.123,2.678-9.238,2.583-13.12,0.174l-0.007,0.004
		c0.623,4.527-1.369,9.238-5.491,11.916c-5.378,3.493-12.447,2.266-16.265-2.659c2.877,1.143,6.266,0.911,9.079-0.916
		c4.587-2.98,5.917-9.07,2.97-13.607c-2.89-4.451-8.826-5.748-13.379-2.979l-0.019-0.029c-0.201-1.325-0.682-2.629-1.458-3.825
		c-2.946-4.535-9.052-5.797-13.639-2.818l-0.462,0.301c-4.587,2.979-5.918,9.071-2.973,13.606
		c0.776,1.196,1.775,2.163,2.905,2.886l0.018,0.029c-4.383,3.036-5.611,8.986-2.718,13.437c2.944,4.535,9.051,5.798,13.636,2.82
		c2.817-1.83,4.404-4.831,4.53-7.924c2.948,5.49,1.196,12.447-4.182,15.94c-4.123,2.677-9.239,2.583-13.122,0.174l-0.005,0.004
		c0.621,4.527-1.37,9.238-5.493,11.917c-5.378,3.493-12.446,2.266-16.263-2.659c2.877,1.143,6.265,0.91,9.08-0.918
		c4.585-2.978,5.915-9.07,2.969-13.605c-2.89-4.451-8.826-5.749-13.381-2.978l-0.018-0.029
		c-0.202-1.326-0.682-2.631-1.458-3.827c-2.945-4.535-9.052-5.796-13.639-2.817l-0.462,0.302
		c-4.586,2.979-5.917,9.07-2.971,13.605c0.776,1.195,1.773,2.164,2.903,2.887l0.018,0.028c-4.382,3.035-5.61,8.986-2.718,13.437
		c2.946,4.535,9.052,5.796,13.637,2.818c2.815-1.829,4.404-4.83,4.529-7.923c2.949,5.49,1.195,12.446-4.182,15.94
		c-4.124,2.678-9.239,2.583-13.121,0.174l-0.006,0.004c0.623,4.526-1.371,9.239-5.493,11.917
		c-5.379,3.493-12.447,2.266-16.263-2.658c2.877,1.143,6.265,0.91,9.079-0.919c4.586-2.979,5.917-9.07,2.97-13.605
		c-2.891-4.451-8.827-5.748-13.381-2.979l-0.019-0.029c-0.201-1.327-0.68-2.631-1.458-3.827
		c-2.945-4.535-9.051-5.797-13.638-2.816l-0.463,0.3c-4.586,2.979-5.917,9.071-2.971,13.606
		c0.777,1.196,1.774,2.164,2.903,2.887l0.02,0.028c-4.382,3.035-5.61,8.986-2.72,13.437c2.946,4.537,9.052,5.798,13.639,2.818
		c2.814-1.829,4.403-4.83,4.529-7.923c2.948,5.489,1.196,12.446-4.183,15.941c-4.122,2.677-9.238,2.581-13.121,0.172
		l-0.006,0.005c0.624,4.527-1.37,9.239-5.493,11.917c-2.188,1.422-4.655,2.061-7.069,1.988l-0.737-0.071l0.014-5.145"/>
	<path fill="#E80000" d="M419.09,0.033c-0.524,3.305-2.408,6.395-5.455,8.373
		c-5.376,3.493-12.445,2.267-16.262-2.658c2.877,1.143,6.266,0.91,9.078-0.917c1.854-1.205,3.177-2.917,3.898-4.831
		L419.09,0.033z"/>
	<path fill="#E80000" d="M82.075,325.042c-3.493-2.174-7.988-2.475-11.86-0.563l-0.879,0.532
		L82.075,325.042z"/>
	<path fill="#E80000" d="M106.202,325.031l-0.193-0.846c-0.258-0.831-0.633-1.641-1.13-2.406
		c-2.946-4.534-9.052-5.798-13.639-2.818c-1.95,1.268-3.312,3.097-4.006,5.13l-0.176,0.939l-1.026-0.006l-0.488-1.337
		c-1.001-4.771,0.975-9.901,5.349-12.744c4.123-2.676,9.238-2.582,13.121-0.174l0.005-0.004
		c-0.621-4.525,1.373-9.239,5.493-11.918c5.381-3.492,12.447-2.266,16.265,2.661c-2.877-1.144-6.267-0.911-9.08,0.915
		c-4.586,2.98-5.916,9.07-2.969,13.607c2.89,4.45,8.827,5.749,13.38,2.979l0.02,0.028c0.201,1.325,0.681,2.631,1.457,3.827
		c0.547,0.841,1.202,1.569,1.937,2.18L106.202,325.031z"/>
	<path fill="#E80000" d="M489.375,62.631v1.202l0.043,0c-2.498-0.545-5.216-0.125-7.544,1.387
		c-4.584,2.979-5.914,9.069-2.968,13.605c2.303,3.546,6.538,5.09,10.47,4.171l-0.001,0V325.03h-346.21l0,0.02
		c4.196-3.08,5.333-8.901,2.492-13.275c-0.776-1.195-1.773-2.163-2.902-2.888l-0.02-0.027c4.382-3.034,5.611-8.986,2.72-13.438
		c-2.946-4.535-9.052-5.797-13.638-2.818c-2.815,1.828-4.405,4.831-4.53,7.924c-2.949-5.488-1.196-12.447,4.181-15.94
		c4.124-2.678,9.238-2.581,13.121-0.172l0.007-0.005c-0.623-4.527,1.371-9.239,5.493-11.917
		c5.381-3.494,12.447-2.267,16.265,2.658c-2.878-1.143-6.267-0.911-9.081,0.919c-4.586,2.978-5.914,9.07-2.969,13.605
		c2.891,4.45,8.826,5.746,13.383,2.977l0.019,0.027c0.2,1.328,0.678,2.634,1.454,3.83c2.947,4.535,9.053,5.795,13.641,2.816
		l0.462-0.303c4.587-2.978,5.917-9.07,2.971-13.604c-0.777-1.197-1.771-2.165-2.901-2.887l-0.021-0.031
		c4.383-3.035,5.611-8.984,2.719-13.436c-2.945-4.535-9.051-5.797-13.639-2.818c-2.813,1.827-4.402,4.83-4.528,7.924
		c-2.947-5.49-1.195-12.447,4.183-15.94c4.122-2.678,9.237-2.584,13.12-0.175l0.006-0.002c-0.622-4.527,1.372-9.24,5.493-11.918
		c5.379-3.493,12.447-2.267,16.264,2.659c-2.877-1.143-6.265-0.912-9.081,0.917c-4.584,2.979-5.915,9.069-2.967,13.604
		c2.89,4.452,8.826,5.751,13.382,2.979l0.018,0.029c0.202,1.326,0.68,2.631,1.455,3.826c2.948,4.535,9.054,5.797,13.641,2.816
		l0.463-0.3c4.586-2.981,5.917-9.07,2.971-13.605c-0.777-1.196-1.771-2.165-2.902-2.889l-0.02-0.029
		c4.382-3.032,5.609-8.984,2.719-13.436c-2.945-4.535-9.053-5.797-13.639-2.817c-2.813,1.827-4.402,4.828-4.528,7.922
		c-2.948-5.488-1.195-12.446,4.183-15.939c4.122-2.678,9.237-2.583,13.12-0.174l0.006-0.003
		c-0.624-4.526,1.372-9.24,5.492-11.917c5.38-3.494,12.446-2.266,16.265,2.659c-2.877-1.144-6.265-0.911-9.082,0.918
		c-4.584,2.977-5.914,9.069-2.967,13.604c2.89,4.451,8.827,5.748,13.383,2.979l0.018,0.028c0.201,1.327,0.678,2.633,1.455,3.828
		c2.945,4.535,9.053,5.796,13.64,2.815l0.464-0.3c4.586-2.979,5.914-9.07,2.97-13.605c-0.776-1.196-1.773-2.165-2.901-2.888
		l-0.02-0.028c4.381-3.035,5.609-8.985,2.719-13.436c-2.945-4.537-9.053-5.798-13.639-2.818
		c-2.814,1.827-4.405,4.829-4.528,7.922c-2.95-5.49-1.195-12.447,4.18-15.939c4.124-2.678,9.238-2.583,13.12-0.174l0.008-0.004
		c-0.623-4.526,1.369-9.239,5.493-11.917c5.38-3.494,12.446-2.267,16.265,2.659c-2.877-1.143-6.266-0.911-9.082,0.918
		c-4.584,2.978-5.914,9.069-2.967,13.604c2.89,4.451,8.825,5.749,13.381,2.979l0.02,0.029c0.201,1.326,0.677,2.632,1.454,3.827
		c2.946,4.535,9.053,5.795,13.641,2.817l0.463-0.301c4.585-2.979,5.915-9.07,2.97-13.605c-0.776-1.195-1.772-2.165-2.902-2.888
		l-0.018-0.029c4.381-3.034,5.607-8.985,2.717-13.436c-2.947-4.536-9.052-5.797-13.64-2.818
		c-2.813,1.828-4.402,4.83-4.529,7.922c-2.946-5.489-1.194-12.446,4.184-15.939c4.124-2.678,9.238-2.583,13.12-0.173
		l0.006-0.004c-0.621-4.527,1.371-9.24,5.494-11.917c5.378-3.494,12.447-2.267,16.262,2.658
		c-2.877-1.143-6.264-0.911-9.079,0.918c-4.585,2.979-5.915,9.07-2.969,13.605c2.892,4.45,8.828,5.748,13.382,2.978l0.02,0.028
		c0.202,1.327,0.679,2.632,1.456,3.828c2.946,4.535,9.053,5.795,13.641,2.816l0.462-0.3c4.586-2.979,5.916-9.07,2.971-13.605
		c-0.777-1.195-1.772-2.165-2.903-2.889l-0.02-0.028c4.384-3.035,5.609-8.985,2.72-13.436c-2.947-4.536-9.052-5.797-13.64-2.818
		c-2.813,1.827-4.402,4.828-4.529,7.922c-2.947-5.49-1.194-12.446,4.184-15.94c4.123-2.678,9.238-2.583,13.12-0.173l0.006-0.003
		c-0.623-4.527,1.371-9.24,5.494-11.917c5.378-3.494,12.445-2.267,16.262,2.659c-2.877-1.143-6.264-0.911-9.079,0.917
		c-4.585,2.979-5.916,9.07-2.97,13.605c2.893,4.45,8.829,5.748,13.383,2.978l0.019,0.029c0.2,1.327,0.679,2.632,1.456,3.828
		c2.944,4.535,9.053,5.796,13.639,2.816l0.465-0.3c4.585-2.98,5.914-9.07,2.971-13.605c-0.777-1.196-1.772-2.166-2.903-2.889
		l-0.02-0.029c4.382-3.034,5.609-8.985,2.72-13.436c-2.947-4.536-9.053-5.797-13.64-2.818c-2.813,1.828-4.403,4.829-4.529,7.922
		c-2.947-5.489-1.194-12.446,4.184-15.939c4.122-2.678,9.235-2.582,13.119-0.173l0.007-0.003
		c-0.623-4.527,1.369-9.239,5.493-11.917c5.379-3.494,12.446-2.267,16.263,2.658c-2.877-1.142-6.264-0.911-9.08,0.918
		c-4.585,2.979-5.915,9.07-2.969,13.605c2.891,4.45,8.825,5.748,13.382,2.978l0.02,0.029c0.2,1.326,0.679,2.631,1.456,3.827
		c2.944,4.535,9.053,5.796,13.639,2.816l0.462-0.3c4.587-2.979,5.917-9.07,2.97-13.605c-0.775-1.195-1.771-2.165-2.899-2.888
		l-0.02-0.028c4.382-3.034,5.609-8.985,2.716-13.437c-2.944-4.535-9.05-5.797-13.637-2.817c-2.813,1.827-4.404,4.829-4.53,7.922
		c-2.946-5.489-1.193-12.446,4.184-15.939c4.124-2.678,9.237-2.582,13.12-0.173l0.006-0.004
		c-0.621-4.527,1.371-9.239,5.495-11.917c5.376-3.494,12.446-2.266,16.261,2.658c-2.877-1.143-6.263-0.911-9.08,0.919
		c-4.584,2.978-5.914,9.068-2.968,13.605c2.891,4.451,8.826,5.747,13.382,2.977l0.019,0.029c0.201,1.327,0.68,2.631,1.456,3.827
		c2.946,4.535,9.053,5.796,13.641,2.816l0.461-0.3c4.588-2.979,5.918-9.07,2.971-13.605c-0.777-1.196-1.771-2.165-2.902-2.889
		l-0.02-0.029c4.385-3.034,5.61-8.984,2.719-13.435c-2.945-4.535-9.05-5.798-13.638-2.818c-2.813,1.828-4.403,4.828-4.529,7.921
		c-2.947-5.488-1.194-12.446,4.184-15.939c4.124-2.678,9.237-2.582,13.12-0.173l0.006-0.004
		c-0.623-4.527,1.371-9.239,5.494-11.917c4.705-3.057,10.704-2.499,14.688,0.988"/>
	<path fill="#FFFFFF" d="M489.437,40.904L54.074,323.697l-2.058,1.337l-0.003-0.004H0.089v-37.035
		l0.012,0.017l2.264-1.47L443.409,0.056V0.03h45.966v40.875L489.437,40.904z"/>
	<path fill="#FFFFFF" d="M0.039,251.539l0.82,0.423c1.091,0.716,2.054,1.663,2.809,2.825
		c2.946,4.535,1.617,10.627-2.968,13.605c-0.189,0.123-0.382,0.239-0.577,0.349L0.039,251.539z"/>
	<path fill="#FFFFFF" d="M378.603,0.007c-2.853,3.239-3.35,8.068-0.908,11.826
		c2.946,4.535,9.053,5.797,13.639,2.819c2.814-1.829,4.404-4.83,4.529-7.923c2.947,5.489,1.196,12.445-4.184,15.939
		c-4.12,2.678-9.238,2.583-13.12,0.174l-0.007,0.004c0.623,4.526-1.369,9.238-5.49,11.916
		c-5.379,3.494-12.448,2.267-16.265-2.658c2.877,1.142,6.266,0.91,9.078-0.917c4.588-2.979,5.917-9.07,2.971-13.606
		c-2.892-4.451-8.826-5.748-13.38-2.979l-0.02-0.029c-0.201-1.327-0.682-2.629-1.457-3.826
		c-2.946-4.535-9.053-5.796-13.639-2.816l-0.463,0.3c-4.587,2.979-5.917,9.071-2.971,13.606
		c0.775,1.195,1.774,2.163,2.904,2.886l0.018,0.029c-4.382,3.034-5.611,8.986-2.718,13.437
		c2.943,4.535,9.052,5.797,13.636,2.819c2.817-1.829,4.404-4.83,4.53-7.923c2.946,5.488,1.195,12.445-4.184,15.939
		c-4.121,2.678-9.239,2.583-13.121,0.175l-0.004,0.003c0.621,4.526-1.371,9.237-5.493,11.916
		c-5.379,3.493-12.448,2.266-16.264-2.659c2.878,1.143,6.268,0.911,9.08-0.917c4.586-2.979,5.915-9.07,2.969-13.606
		c-2.89-4.451-8.826-5.748-13.38-2.979l-0.021-0.028c-0.2-1.327-0.682-2.631-1.457-3.826
		c-2.946-4.535-9.053-5.796-13.639-2.817l-0.463,0.3c-4.587,2.979-5.917,9.072-2.971,13.607
		c0.775,1.196,1.774,2.163,2.904,2.885l0.02,0.03c-4.384,3.035-5.611,8.986-2.72,13.437c2.946,4.535,9.052,5.798,13.636,2.82
		c2.817-1.83,4.405-4.831,4.531-7.923c2.949,5.489,1.197,12.445-4.184,15.939c-4.122,2.676-9.238,2.583-13.122,0.173
		l-0.004,0.005c0.621,4.526-1.371,9.238-5.492,11.916c-5.378,3.493-12.445,2.267-16.264-2.659
		c2.877,1.143,6.267,0.911,9.079-0.917c4.586-2.979,5.915-9.07,2.969-13.606c-2.89-4.451-8.826-5.749-13.38-2.978
		l-0.018-0.029c-0.203-1.326-0.683-2.63-1.46-3.826c-2.945-4.535-9.052-5.797-13.637-2.818l-0.464,0.301
		c-4.588,2.979-5.917,9.071-2.972,13.606c0.778,1.195,1.774,2.162,2.905,2.885l0.019,0.03
		c-4.384,3.035-5.611,8.986-2.72,13.437c2.946,4.535,9.052,5.797,13.636,2.819c2.817-1.83,4.406-4.831,4.531-7.923
		c2.949,5.489,1.197,12.445-4.184,15.939c-4.121,2.677-9.236,2.582-13.12,0.173l-0.006,0.004
		c0.621,4.527-1.37,9.238-5.491,11.917c-5.379,3.494-12.446,2.267-16.265-2.658c2.877,1.143,6.267,0.911,9.079-0.917
		c4.586-2.979,5.915-9.07,2.969-13.606c-2.89-4.451-8.825-5.748-13.38-2.979l-0.018-0.029
		c-0.202-1.326-0.683-2.63-1.459-3.825c-2.946-4.535-9.051-5.798-13.638-2.818l-0.463,0.301
		c-4.585,2.979-5.918,9.071-2.972,13.606c0.777,1.197,1.775,2.164,2.904,2.886l0.019,0.03
		c-4.382,3.035-5.611,8.986-2.719,13.437c2.945,4.535,9.053,5.797,13.637,2.818c2.816-1.829,4.404-4.831,4.529-7.923
		c2.949,5.489,1.197,12.446-4.181,15.94c-4.123,2.677-9.239,2.583-13.123,0.174l-0.005,0.004
		c0.621,4.527-1.371,9.238-5.492,11.916c-5.379,3.493-12.446,2.267-16.264-2.658c2.876,1.143,6.267,0.911,9.079-0.917
		c4.588-2.979,5.918-9.07,2.971-13.606c-2.89-4.451-8.828-5.75-13.38-2.979l-0.021-0.029
		c-0.202-1.327-0.683-2.63-1.458-3.826c-2.946-4.535-9.052-5.797-13.639-2.818l-0.463,0.301
		c-4.585,2.98-5.916,9.072-2.971,13.607c0.776,1.195,1.774,2.162,2.904,2.886l0.021,0.03
		c-4.386,3.035-5.611,8.986-2.722,13.437c2.946,4.535,9.052,5.797,13.636,2.818c2.817-1.829,4.404-4.831,4.531-7.923
		c2.949,5.489,1.197,12.446-4.182,15.94c-4.124,2.677-9.239,2.582-13.124,0.173l-0.003,0.004
		c0.622,4.527-1.371,9.239-5.494,11.917c-5.375,3.493-12.445,2.266-16.263-2.659c2.878,1.142,6.267,0.91,9.08-0.917
		c4.587-2.979,5.917-9.07,2.97-13.606c-2.89-4.451-8.827-5.749-13.379-2.979l-0.02-0.029
		c-0.202-1.325-0.68-2.629-1.459-3.826c-2.945-4.534-9.051-5.796-13.638-2.817l-0.462,0.302
		c-4.586,2.978-5.916,9.071-2.971,13.606c0.777,1.195,1.774,2.163,2.905,2.886l0.02,0.029
		c-4.385,3.035-5.611,8.986-2.721,13.437c2.946,4.535,9.051,5.797,13.636,2.819c2.817-1.829,4.405-4.83,4.532-7.923
		c2.948,5.49,1.196,12.446-4.183,15.94c-4.123,2.678-9.238,2.583-13.12,0.174l-0.007,0.004
		c0.623,4.527-1.369,9.238-5.491,11.916c-5.378,3.493-12.447,2.266-16.265-2.659c2.877,1.143,6.266,0.911,9.079-0.916
		c4.587-2.98,5.917-9.07,2.97-13.607c-2.89-4.451-8.826-5.748-13.379-2.979l-0.019-0.029
		c-0.201-1.325-0.682-2.629-1.458-3.825c-2.946-4.535-9.052-5.797-13.639-2.818l-0.462,0.301
		c-4.587,2.979-5.918,9.071-2.973,13.606c0.776,1.196,1.775,2.163,2.905,2.886l0.018,0.029
		c-4.383,3.036-5.611,8.986-2.718,13.437c2.944,4.535,9.051,5.798,13.636,2.82c2.817-1.83,4.404-4.831,4.53-7.924
		c2.948,5.49,1.196,12.447-4.182,15.94c-4.123,2.677-9.239,2.583-13.122,0.174l-0.005,0.004
		c0.621,4.527-1.37,9.238-5.493,11.917c-5.378,3.493-12.446,2.266-16.263-2.659c2.877,1.143,6.265,0.91,9.08-0.918
		c4.585-2.978,5.915-9.07,2.969-13.605c-2.89-4.451-8.826-5.749-13.381-2.978l-0.018-0.029
		c-0.202-1.326-0.682-2.631-1.458-3.827c-2.945-4.535-9.052-5.796-13.639-2.817l-0.462,0.302
		c-4.586,2.979-5.917,9.07-2.971,13.605c0.776,1.195,1.773,2.164,2.903,2.887l0.018,0.028
		c-4.382,3.035-5.61,8.986-2.718,13.437c2.946,4.535,9.052,5.796,13.637,2.818c2.815-1.829,4.404-4.83,4.529-7.923
		c2.949,5.49,1.195,12.446-4.182,15.94c-4.124,2.678-9.239,2.583-13.121,0.174l-0.006,0.004
		c0.623,4.526-1.371,9.239-5.493,11.917c-5.379,3.493-12.447,2.266-16.263-2.658c2.877,1.143,6.265,0.91,9.079-0.919
		c4.586-2.979,5.917-9.07,2.97-13.605c-2.891-4.451-8.827-5.748-13.381-2.979l-0.019-0.029
		c-0.201-1.327-0.68-2.631-1.458-3.827c-2.945-4.535-9.051-5.797-13.638-2.816l-0.463,0.3
		c-4.586,2.979-5.917,9.071-2.971,13.606c0.777,1.196,1.774,2.164,2.903,2.887l0.02,0.028
		c-4.382,3.035-5.61,8.986-2.72,13.437c2.946,4.537,9.052,5.798,13.639,2.818c2.814-1.829,4.403-4.83,4.529-7.923
		c2.948,5.489,1.196,12.446-4.183,15.941c-4.122,2.677-9.238,2.581-13.121,0.172l-0.006,0.005
		c0.624,4.527-1.37,9.239-5.493,11.917c-2.188,1.422-4.655,2.061-7.069,1.988l-0.75-0.071l0.013,8.132l0.964-0.626
		L434.184,0.039L419.09,0.033c-0.524,3.305-2.408,6.395-5.455,8.373c-5.376,3.493-12.445,2.267-16.262-2.658
		c2.877,1.143,6.266,0.91,9.078-0.917c1.854-1.205,3.177-2.917,3.898-4.831L378.603,0.007z"/>
	<path fill="#FFFFFF" d="M106.202,325.031l-0.193-0.846c-0.258-0.831-0.633-1.641-1.13-2.406
		c-2.946-4.534-9.052-5.798-13.639-2.818c-1.95,1.268-3.312,3.097-4.006,5.13l-0.176,0.939L106.202,325.031z"/>
	<path fill="#FFFFFF" d="M489.38,62.63c-3.983-3.487-9.982-4.045-14.688-0.988
		c-4.123,2.679-6.117,7.391-5.494,11.917l-0.006,0.004c-3.883-2.409-8.996-2.505-13.12,0.173
		c-5.378,3.493-7.131,10.451-4.184,15.939c0.126-3.093,1.717-6.094,4.529-7.921c4.588-2.98,10.692-1.717,13.638,2.818
		c2.892,4.451,1.666,10.401-2.719,13.435l0.02,0.029c1.131,0.724,2.125,1.693,2.902,2.889
		c2.947,4.535,1.617,10.626-2.971,13.605l-0.461,0.3c-4.588,2.979-10.694,1.719-13.641-2.816
		c-0.776-1.195-1.255-2.5-1.456-3.827l-0.019-0.029c-4.556,2.77-10.491,1.474-13.382-2.977
		c-2.946-4.537-1.616-10.627,2.968-13.605c2.817-1.83,6.203-2.062,9.08-0.919c-3.814-4.924-10.885-6.152-16.261-2.658
		c-4.124,2.678-6.116,7.39-5.495,11.917l-0.006,0.004c-3.883-2.409-8.996-2.505-13.12,0.173
		c-5.377,3.493-7.13,10.45-4.184,15.939c0.126-3.093,1.718-6.095,4.53-7.922c4.587-2.979,10.692-1.718,13.637,2.817
		c2.894,4.451,1.666,10.402-2.716,13.437l0.02,0.028c1.128,0.723,2.124,1.693,2.899,2.888
		c2.947,4.535,1.617,10.626-2.97,13.605l-0.462,0.3c-4.586,2.98-10.694,1.719-13.639-2.816
		c-0.777-1.196-1.256-2.5-1.456-3.827l-0.02-0.029c-4.557,2.77-10.491,1.473-13.382-2.978
		c-2.946-4.536-1.616-10.626,2.969-13.605c2.816-1.83,6.203-2.06,9.08-0.918c-3.816-4.925-10.884-6.152-16.263-2.658
		c-4.124,2.678-6.116,7.391-5.493,11.917l-0.007,0.003c-3.884-2.408-8.997-2.505-13.119,0.173
		c-5.378,3.494-7.131,10.45-4.184,15.939c0.126-3.093,1.716-6.094,4.529-7.922c4.587-2.979,10.692-1.718,13.64,2.818
		c2.89,4.451,1.662,10.402-2.72,13.436l0.02,0.029c1.131,0.723,2.126,1.692,2.903,2.889
		c2.943,4.535,1.614,10.625-2.971,13.605l-0.465,0.3c-4.586,2.979-10.694,1.719-13.639-2.816
		c-0.777-1.195-1.256-2.501-1.456-3.828l-0.019-0.029c-4.554,2.771-10.49,1.473-13.383-2.978
		c-2.946-4.536-1.615-10.627,2.97-13.605c2.815-1.829,6.202-2.06,9.079-0.917c-3.816-4.925-10.884-6.153-16.262-2.659
		c-4.123,2.677-6.117,7.39-5.494,11.917l-0.006,0.003c-3.882-2.409-8.997-2.504-13.12,0.173
		c-5.378,3.494-7.131,10.45-4.184,15.94c0.127-3.094,1.717-6.095,4.529-7.922c4.588-2.979,10.692-1.718,13.64,2.818
		c2.89,4.451,1.664,10.401-2.72,13.436l0.02,0.028c1.131,0.724,2.126,1.693,2.903,2.889
		c2.945,4.535,1.615,10.626-2.971,13.605l-0.462,0.3c-4.588,2.979-10.694,1.719-13.641-2.816
		c-0.777-1.196-1.254-2.501-1.456-3.828l-0.02-0.028c-4.554,2.77-10.49,1.472-13.382-2.978
		c-2.946-4.536-1.616-10.627,2.969-13.605c2.815-1.829,6.202-2.061,9.079-0.918c-3.814-4.925-10.884-6.152-16.262-2.658
		c-4.123,2.677-6.115,7.39-5.494,11.917l-0.006,0.004c-3.882-2.41-8.996-2.505-13.12,0.173
		c-5.378,3.493-7.13,10.45-4.184,15.939c0.127-3.093,1.717-6.095,4.529-7.922c4.588-2.979,10.692-1.717,13.64,2.818
		c2.891,4.451,1.664,10.402-2.717,13.436l0.018,0.029c1.13,0.723,2.126,1.692,2.902,2.888
		c2.945,4.535,1.615,10.626-2.97,13.605l-0.463,0.301c-4.588,2.979-10.694,1.718-13.641-2.817
		c-0.777-1.195-1.253-2.501-1.454-3.827l-0.02-0.029c-4.556,2.771-10.491,1.473-13.381-2.979
		c-2.947-4.535-1.617-10.626,2.967-13.604c2.816-1.829,6.205-2.061,9.082-0.918c-3.818-4.925-10.885-6.153-16.265-2.659
		c-4.124,2.677-6.116,7.39-5.493,11.917l-0.008,0.004c-3.882-2.409-8.996-2.504-13.12,0.174
		c-5.375,3.493-7.13,10.45-4.18,15.939c0.123-3.093,1.714-6.095,4.528-7.922c4.586-2.979,10.693-1.718,13.639,2.818
		c2.891,4.451,1.662,10.4-2.719,13.436l0.02,0.028c1.128,0.724,2.125,1.692,2.901,2.888
		c2.944,4.535,1.616,10.627-2.97,13.605l-0.464,0.3c-4.587,2.98-10.694,1.72-13.64-2.815
		c-0.777-1.195-1.254-2.501-1.455-3.828l-0.018-0.028c-4.556,2.77-10.493,1.473-13.383-2.979
		c-2.947-4.535-1.617-10.627,2.967-13.604c2.817-1.829,6.205-2.062,9.082-0.918c-3.818-4.925-10.885-6.152-16.265-2.659
		c-4.12,2.677-6.116,7.391-5.492,11.917l-0.006,0.003c-3.883-2.409-8.998-2.504-13.12,0.174
		c-5.378,3.493-7.131,10.451-4.183,15.939c0.126-3.094,1.716-6.095,4.528-7.922c4.586-2.979,10.693-1.718,13.639,2.817
		c2.891,4.451,1.663,10.403-2.719,13.436l0.02,0.029c1.131,0.724,2.125,1.692,2.902,2.889
		c2.946,4.535,1.615,10.624-2.971,13.605l-0.463,0.3c-4.587,2.98-10.692,1.719-13.641-2.816
		c-0.775-1.195-1.253-2.5-1.455-3.826l-0.018-0.029c-4.556,2.771-10.492,1.473-13.382-2.979
		c-2.948-4.535-1.617-10.626,2.967-13.604c2.816-1.829,6.204-2.06,9.081-0.917c-3.816-4.926-10.885-6.152-16.264-2.659
		c-4.121,2.678-6.115,7.391-5.493,11.918l-0.006,0.002c-3.883-2.409-8.998-2.503-13.12,0.175
		c-5.378,3.493-7.13,10.45-4.183,15.94c0.126-3.094,1.716-6.097,4.528-7.924c4.588-2.979,10.693-1.717,13.639,2.818
		c2.893,4.451,1.664,10.4-2.719,13.436l0.021,0.031c1.13,0.722,2.124,1.689,2.901,2.887
		c2.946,4.533,1.616,10.626-2.971,13.604l-0.462,0.303c-4.588,2.979-10.693,1.719-13.641-2.816
		c-0.776-1.196-1.254-2.502-1.454-3.83l-0.019-0.027c-4.557,2.77-10.492,1.474-13.383-2.977
		c-2.945-4.535-1.617-10.628,2.969-13.605c2.814-1.83,6.203-2.062,9.081-0.919c-3.818-4.925-10.884-6.152-16.265-2.658
		c-4.122,2.678-6.116,7.39-5.493,11.917l-0.007,0.005c-3.882-2.409-8.997-2.506-13.121,0.172
		c-5.377,3.493-7.129,10.452-4.181,15.94c0.125-3.093,1.715-6.096,4.53-7.924c4.585-2.979,10.691-1.717,13.638,2.818
		c2.891,4.451,1.662,10.403-2.72,13.438l0.02,0.027c1.129,0.725,2.126,1.692,2.902,2.888
		c2.841,4.374,1.704,10.195-2.492,13.275l-12.644-0.005c-0.734-0.61-1.39-1.339-1.937-2.18
		c-0.775-1.196-1.255-2.502-1.457-3.827l-0.02-0.028c-4.553,2.771-10.49,1.472-13.38-2.979
		c-2.947-4.537-1.617-10.627,2.969-13.607c2.813-1.826,6.203-2.059,9.08-0.915c-3.818-4.927-10.884-6.153-16.265-2.661
		c-4.12,2.679-6.114,7.393-5.493,11.918l-0.005,0.004c-3.883-2.408-8.998-2.502-13.121,0.174
		c-4.375,2.843-6.35,7.974-5.349,12.744l0.488,1.337l-3.958,0.018c-3.493-2.174-7.988-2.475-11.86-0.563l-0.879,0.532
		l-7.799,0.022l1.548-1.006L489.378,47.124L489.38,62.63z"/>
	<path fill="#FFFFFF" d="M489.376,82.996c-3.932,0.919-8.167-0.625-10.47-4.171
		c-2.946-4.536-1.616-10.627,2.968-13.605c2.328-1.512,5.046-1.932,7.544-1.387L489.376,82.996z"/>
</svg>