<?xml version="1.0" encoding="UTF-8"?>
<svg width="900" height="600" version="1.1" xmlns="http://www.w3.org/2000/svg" xmlns:xlink="http://www.w3.org/1999/xlink">
 <g>
  <rect width="900" height="600" fill="#fff"/>
  <rect y="200" width="450" height="400" fill="#ffe000"/>
  <rect x="450" y="200" width="450" height="400" fill="#2b5df2"/>
 </g>
 <g>
  <g>
   <g fill="#ffe000" stroke="#000" stroke-width="1.3753">
    <path d="m491.82 258.23c-2.2387 4.4698-4.4773 8.9396-6.718 13.408-2.9942-1.7672-6.4868-2.3628-9.8589-2.9886-3.9255-0.65923-7.8857-1.0817-11.845-1.4802 1.5809-2.1298 4.3654-2.6538 6.8171-3.1131 3.2125-0.52501 6.4703-0.69244 9.7197-0.79739-3.8073-7e-3 -7.6623 0.47517-11.429-0.27161-1.1845-0.27457-2.4759-0.80613-3.0398-1.9638 4.1573-3.348 9.3571-5.604 14.759-5.5297 4.0126 6e-3 7.95 1.1147 11.595 2.7359z"/>
    <path d="m655.12 566.59c3.6169 2.6068 9.0442 2.3171 12.661 4.9234-2.2409 3.1648-6.2892 9.2269-8.5277 12.393-2.9055 1.1951-5.9832 2.4509-9.1859 2.1789-1.348-0.12446-5.9328 1.6336-6.4746 0.35469 4.1333-4.6564 3.9253-4.6058 8.0596-9.2614-5.5129 5.0271-3.4222 2.8183-8.9358 7.8445-1.144 0.70351-2.9182 0.57474-3.4518-0.82963-0.60967-1.3062-0.66277-2.7826-0.68206-4.1995 4.4096-5.0317 9.3783-9.7228 15.37-12.813 0.38579-0.20294 4.3942-3.2955 1.1665-0.59112z"/>
    <path d="m556.67 496.69c0.38927 4.6808 1.1439 7.9136 1.5313 12.595-3.6848 0.0988-7.7315 1.6475-11.416 1.7464-2.9334-1.8577-6.0593-3.8548-7.6858-7.0434-0.40307-0.96006-0.79569-2.8994 0.18484-3.3725 5.8534 0.55151 6.2776 0.0172 12.131 0.57073-7.0789-1.489-8.7291-1.89-15.808-3.3791-1.374-0.56542-2.2987-2.3509-1.4387-3.7028 0.74393-1.0994 1.6483-2.9336 3.1041-2.8749 6.7183 0.62083 13.474 2.1213 19.398 5.461z"/>
    <path d="m472.72 377.07c2.8255 3.9898 6.6878 7.1072 9.5103 11.099-2.8039 2.3531-4.76 5.5135-6.7419 8.5473-2.4553 3.9105-4.6833 7.959-6.8179 12.052-1.1901-2.596-0.41509-5.522 0.19684-8.1651 0.86316-3.3188 2.0312-6.5487 3.2499-9.7508-1.5947 3.8135-2.7326 7.871-5.0197 11.351-0.66853 0.93067-1.5574 1.9176-2.7742 2.0181-1.2498-6.0317-0.81341-12.514 1.9214-18.093 1.6041-3.3716 3.8794-6.3902 6.4753-9.0595z"/>
   </g>
   <g fill="#fff" stroke="#000" stroke-width="1.3753">
    <path d="m554.97 495.88c0.35172 3.9319 0.74556 10.672 1.9725 13.757 11.021 0.36468 17.394 0.73305 28.415 1.0994-0.14251 3.9261 8.9887 5.2962 12.125 4.1861 4.4978-1.007 12.126-4.3056 16.162-6.4648 7.1355-15.849 16.275-21.511 21.831-26.211-2.2386-6.5172-15.072-29.264-20.413-28.893-15.879 11.752-24.586 25.009-21.96 44.533-12.065-4.5379-26.221-4.3101-38.135-2.0061z"/>
    <path d="m491.31 258.23c-2.5841 4.0963-5.1668 8.1934-7.751 12.29 16.599 8.6049 26.557 20.429 35.536 36.421 3.4931 5.9479 7.547 16.381 12.723 21.189 2.812 2.1438 6.0678 7.4777 8.5334 7.6109 4.8382-7.2168 9.6793-14.432 14.519-21.647-17.815-21.969-38.299-42.583-63.561-55.863z"/>
    <path d="m470.68 378.71c3.2723 3.5394 6.5446 7.0789 9.8188 10.617 30.249-8.6483 62.005 17.928 74.888-14.899 1.0364-9.3102 2.0697-18.621 3.1024-27.931-5.1689-5.5859-10.336-11.174-15.504-16.76-6.8895 7.2619-13.78 14.523-20.669 21.786-14.194 7.6146-32.44 3.8952-51.637 27.189z"/>
   </g>
   <g>
    <g stroke="#000" stroke-width="1.3753">
     <path d="m644.58 252.3c-1.3976-3.8228-4.8928-6.3347-7.8179-8.9667-4.5037-3.7246-9.2842-7.0939-14.04-10.485 5.6895-8.0725 12.809-14.945 22.337-18.446 7.6078-2.795 16.138-0.84456 22.789 3.4434 8.465 5.4574 14.909 12.156 20.805 20.206-14.999 3.7859-29.021 10.645-44.074 14.248z" fill="#ffe000"/>
     <path d="m556.57 306.98c-15.072 6.2351-21.869 22.746-29.515 36.003-2.4127 4.9312-8.1622 14.542-0.72875 5.7136 3.658-4.6492 16.34-11.835 18.182-8.3881-7.8007 4.0936-26.432 33.373-1.323 13.519 12.653-5.6784-7.7146 7.286-4.462 13.888 1.4063 6.9393-11.181 17.638-9.2184 18.387 5.7775 2.0117 16.958-14.635 13.421-2.884-0.98995 5.4774-12.748 15.784-1.7648 7.9008 4.0766-2.3418 11.321-13.389 5.4032-4.1738-4.0487 4.7531-4.6556 18.202-0.19783 6.2328 4.3399-5.4717 9.8015-5.2913 3.5042 1.0844-3.389 4.4691-4.0705 23.59 0.31124 10.122 2.1196-9.623 15.531-12.675 6.0958-1.8661-3.5347 4.14-1.9776 17.8 0.70215 6.7012 0.5925-7.1073 12.909-10.318 6.1054-1.3364-2.1465 5.7358 0.89163 13.578 2.193 3.5349 9.6172-6.8774-1.2139 6.1667 2.72 10.886 5.2817-14.327 12.752-1.5881 10.207 2.7598 5.8198-4.6325 7.4332-4.9831 4.5139 2.7545-0.97896 6.8995-17.14 14.945-3.0168 10.959 6.6148 0.43389 17.776-12.491 12.994-0.14681-5.0064 5.3158-3.3682 8.1059 2.7882 4.0082 9.2309-11.082-4.5507 10.096-0.84888 7.3556 6.1867-10.343 5.364 8.1548 7.1089 7.76 10.568-5.0193-1.0487 14.908 11.702 11.914 17.109 8.9516 11.28 37.398 24.397 49.829 10.566 8.5237 16.3 13.082 14.224 26.675-0.92366 11.024-0.65863 26.515 14.543 27.001 7.9548 0.13942 9.4816-19.904 3.712-12.012-5.5916-13.254-4.3721-22.122-2.1753-35.966-0.2175-6.9857-14.286-24.819-12.096-23.74 8.655 4.793 20.658 17.242 22.504 22.416 2.2804-11.781-11.484-29.259-14.181-32.36 4.1508 5.7345 18.512 16.383 11.153 3.3097-3.5872-6.282 0.12996-29.892 7.6273-15.844 8.8002 14.153 14.191 30.336 16.015 46.883 5.4816-12.097 4.9703-32.24 2.5236-44.652 0.8222-14.222-4.1753-27.944-10.219-40.574 6.8924-16.741 2.7692-29.801-10.982-41.422-10.505-7.9598-16.771-20.113-27.086-28.417-7.3809-7.3895-19.206-11.023-21.617-22.377-0.82181-11.158 4.0196-21.513-4.5699-31.35-7.3602-15.44-24.241-26.392-41.624-23.183-11.291 0.52595-19.891 7.2427-29.024 13.095z" fill="#fff"/>
     <path d="m567.46 299.33c6.1906-2.9285 12.846-4.7888 19.594-5.8841-5.3066 3.5479-11.68 7.0749-13.575 13.643 2.8322 2.0187 19.179-11.805 19.534-10.397-2.9517 4.2964-7.795 8.6348-6.5046 14.406 3.8482-6.9187 12.143-8.866 17.63-14.06-5.3505 4.7182-11.896 10.77-10.703 18.641 2.3402-1.1763 8.3027-11.631 13.602-7.6066 1.8854 5.4401-5.9698 11.162-5.9707 14.227 5.5249-2.4384 9.0939-7.4811 11.867-12.62 3.2033 7.2771-3.3717 14.495-4.5391 20.53 6.741-3.3057 10.304-10.341 13.493-16.76-1.9038 8.1876-6.962 16.015-5.4429 24.711 2.3878-3.3395 3.4691-14.709 9.3735-9.0422 3.2243 3.1107-1.8783 10.884 0.13203 11.509 3.8098-3.0987 3.5244-7.8385 6.278-13.058-0.0591 5.179-0.64301 15.187-0.37325 17.339 1.7582-9.3099 3.5145-18.62 5.2728-27.93 0.99196 2.0323 3.4986 11.86 3.467 5.117-0.0138-2.5856-0.11157-11.561 2.0708-4.8224 2.7233 3.5274 5e-3 -7.511 2.0088-8.9913 1.5887 1.1455 3.9116 6.0407 3.3086 1.0145-0.53171-1.699 0.66536-4.0102 2.0726-1.5828 2.0234-4.729 0.70362-10.201 1.6871-15.211 1.019-12.688 2.1993-26.702-5.2282-37.844-3.5078-5.5872-8.1423-10.357-13-14.778-5.401-1.8734-10.032-11.318-16.577-7.8638-5.5089-1.4792-10.55-2.6724-16.282-2.4756-6.4122-0.32834-12.193 1.004-18.431 1.9076-6.1878 1.1117-8.1584 6.5155-14.388 7.4026-3.5339 0.14353-13.974 9.6727-7.2872 11.253-0.96466 1.4863-4.5701 3.0662-0.18872 3.8081 3.7257-0.66929 9.0702 0.43589 11.801 0.72837-1.2187 5.649-8.3769 2.8018-12.037 4.0782 2.7334 5.2617 8.341 7.4602 11.847 11.671 4.3515 2.3799 9.6607 2.7426 14.181 1.2416 3.8347 3.5459 9.9435 9.6588 2.6876 13.301-15.055 3.0918-21.199 12.811-21.379 14.397z" fill="#fff"/>
    </g>
    <path d="m591.83 277.93 28.165 1.3719c0.99534-3.2649 1.9924-5.8058 2.9878-9.0706 9.2268 2.9895 17.794 6.1474 24.921 1.572 0 0.96162 0.36195 1.5632 0.36195 2.5248-9.3831 4.6821-16.727 1.4693-22.611-2.1717l-4.4063 10.979-28.432-2.1927z"/>
    <path d="m624.34 250.62c3.3628-0.97124 5.5262 2.6081 6.872 5.0992 2.7818 4.9833 4.203 10.551 5.8513 15.974-2.7595-0.0789-5.0384-2.6552-7.0268-4.4495-3.6905-3.9675-5.3989-9.2745-6.4218-14.477-1.7838 0.79744-2.5331 4.118-1.6036 6.1539 1.997 7.1117 7.833 12.455 14.318 15.586 2.9062 1.9452 2.0372-3.1954 2.3688-4.869 0.0497-6.8242-2.9374-13.274-6.9785-18.631-1.3426-3.3664-4.5575-1.0625-6.929-0.51935z"/>
    <path d="m602.37 257.22c-15.609-0.52346-15.163-14.625-2.8647-13.056 14.898 1.8999 13.884 13.422 2.8647 13.056z" fill="#fff" stroke="#000" stroke-width="1.3753"/>
    <path d="m600.03 247.09c6.334 3.7997 5.6874 11.853-2.2787 9.7407-6.6225-1.756-10.347-8.502-4.8079-11.026 1.9957-0.90924 5.2688 0.19463 7.0866 1.2851z" stroke-width="1.3753"/>
    <path d="m607.89 402.46c-2.2281-4.4073-1.199-11.674-5.7497-14.166 3.234 4.1716 1.7636 10.414 5.7497 14.166z"/>
    <path d="m604.29 407.86c-2.2276-4.4074-1.1989-11.674-5.7495-14.166 3.2339 4.1716 1.7642 10.414 5.7495 14.166z"/>
    <path d="m600.54 412.18c-2.2276-4.4074-1.199-11.674-5.7498-14.166 3.2337 4.1717 1.7633 10.415 5.7498 14.166z"/>
    <path d="m597.27 416.14c-2.2278-4.4073-1.1989-11.674-5.7498-14.166 3.2335 4.1718 1.7625 10.415 5.7498 14.166z"/>
    <path d="m593.75 421.03c-2.2276-4.4074-1.199-11.673-5.7495-14.166 3.234 4.1716 1.7636 10.414 5.7495 14.166z"/>
    <path d="m685.1 429.14c-2.2279-4.4079-1.1985-11.675-5.7496-14.168 3.2338 4.1723 1.7634 10.416 5.7496 14.168z"/>
    <path d="m588.09 424.01c-2.2279-4.4074-1.199-11.673-5.7495-14.166 3.2339 4.1717 1.7622 10.415 5.7495 14.166z"/>
    <path d="m637.23 372.62c-2.2239-4.4082-1.1954-11.674-5.7466-14.166 3.232 4.1722 1.7637 10.413 5.7466 14.166z"/>
    <path d="m633.62 378.02c-2.2232-4.4086-1.1961-11.673-5.746-14.166 3.2346 4.1711 1.7633 10.413 5.746 14.166z"/>
    <path d="m629.87 382.35c-2.2234-4.4085-1.1961-11.673-5.746-14.166 3.2344 4.1712 1.7633 10.413 5.746 14.166z"/>
    <path d="m626.6 386.3c-2.2231-4.4086-1.196-11.673-5.746-14.166 3.2343 4.1713 1.7606 10.414 5.746 14.166z"/>
    <path d="m623.08 391.19c-2.2232-4.4085-1.196-11.673-5.746-14.166 3.234 4.1714 1.76 10.415 5.746 14.166z"/>
    <path d="m613.35 398.03c-2.2277-4.4074-1.1989-11.674-5.7496-14.166 3.2335 4.1718 1.7618 10.415 5.7496 14.166z"/>
    <path d="m617.42 394.17c-2.2276-4.4074-1.199-11.674-5.7498-14.166 3.2338 4.1717 1.7638 10.414 5.7498 14.166z"/>
    <path d="m566.06 398.52c-2.2276-4.4074-1.199-11.674-5.7498-14.166 3.2338 4.1717 1.7634 10.415 5.7498 14.166z"/>
    <path d="m548.43 379.44c-2.2276-4.4075-1.1991-11.673-5.7496-14.166 3.2344 4.1714 1.764 10.414 5.7496 14.166z"/>
    <path d="m574.38 405.74c-2.2276-4.4075-1.1991-11.674-5.7497-14.166 3.2342 4.1715 1.7637 10.414 5.7497 14.166z"/>
    <path d="m577.9 400.85c-2.2278-4.4074-1.1989-11.674-5.7498-14.166 3.2336 4.1718 1.7638 10.414 5.7498 14.166z"/>
    <path d="m581.17 396.89c-2.2276-4.4074-1.1989-11.674-5.7498-14.166 3.2337 4.1717 1.7638 10.414 5.7498 14.166z"/>
    <path d="m584.91 392.57c-2.2276-4.4074-1.1989-11.673-5.7495-14.166 3.234 4.1716 1.7642 10.414 5.7495 14.166z"/>
    <path d="m588.52 387.16c-2.2276-4.4075-1.199-11.674-5.7497-14.166 3.2341 4.1715 1.7637 10.414 5.7497 14.166z"/>
    <path d="m596.75 377.91c-2.2276-4.4075-1.199-11.674-5.7497-14.166 3.234 4.1716 1.7623 10.415 5.7497 14.166z"/>
    <path d="m592.68 381.76c-2.2275-4.4075-1.1992-11.673-5.7496-14.166 3.2345 4.1714 1.7641 10.414 5.7496 14.166z"/>
    <path d="m602.41 374.93c-2.2234-4.4085-1.1959-11.674-5.7461-14.166 3.234 4.1714 1.7629 10.413 5.7461 14.166z"/>
    <path d="m605.93 370.04c-2.2231-4.4086-1.196-11.673-5.746-14.166 3.2344 4.1712 1.7619 10.413 5.746 14.166z"/>
    <path d="m611.86 367.67c-2.2276-4.4074-1.199-11.674-5.7498-14.166 3.2337 4.1717 1.7634 10.415 5.7498 14.166z"/>
    <path d="m614.72 357.3c-2.2236-4.4084-1.1954-11.674-5.7464-14.166 3.2325 4.172 1.7635 10.413 5.7464 14.166z"/>
    <path d="m622.45 357.31c-2.2236-4.4083-1.1954-11.674-5.7465-14.166 3.2318 4.1724 1.7589 10.415 5.7465 14.166z"/>
    <path d="m588.52 353.98c-2.2275-4.4075-1.1992-11.673-5.7496-14.166 3.2346 4.1713 1.7642 10.414 5.7496 14.166z"/>
    <path d="m581.79 352.42c-2.2276-4.4074-1.1989-11.673-5.7495-14.166 3.234 4.1716 1.7642 10.414 5.7495 14.166z"/>
    <path d="m594.18 351c-2.2275-4.4075-1.1992-11.673-5.7496-14.166 3.2345 4.1714 1.764 10.414 5.7496 14.166z"/>
    <path d="m597.7 346.11c-2.2275-4.4075-1.199-11.673-5.7494-14.166 3.2344 4.1714 1.7634 10.414 5.7494 14.166z"/>
    <path d="m600.97 342.16c-2.2277-4.4075-1.1991-11.673-5.7496-14.166 3.2344 4.1714 1.7641 10.414 5.7496 14.166z"/>
    <path d="m604.72 337.83c-2.2277-4.4074-1.1987-11.674-5.7496-14.166 3.2345 4.1713 1.7642 10.414 5.7496 14.166z"/>
    <path d="m631.31 320.64c-2.228-4.4079-0.83657-13.485-5.3878-15.978 3.2339 4.1723 1.4015 12.225 5.3878 15.978z"/>
    <path d="m657.33 451.52c-2.2239-4.4088-1.1949-11.676-5.7466-14.168 3.2316 4.1731 1.7602 10.416 5.7466 14.168z"/>
    <path d="m653.25 455.37c-2.2276-4.4075-1.1989-11.673-5.7495-14.166 3.234 4.1716 1.7637 10.414 5.7495 14.166z"/>
    <path d="m662.99 448.54c-2.2276-4.4074-1.1989-11.674-5.7497-14.166 3.2338 4.1717 1.7634 10.415 5.7497 14.166z"/>
    <path d="m666.51 443.65c-2.2276-4.4074-1.1989-11.673-5.7495-14.166 3.234 4.1716 1.7636 10.414 5.7495 14.166z"/>
    <path d="m669.78 439.69c-2.2276-4.4075-1.1991-11.674-5.7497-14.166 3.2341 4.1716 1.7636 10.414 5.7497 14.166z"/>
    <path d="m673.53 435.37c-2.2273-4.407-1.195-11.675-5.7466-14.166 3.2314 4.1725 1.7606 10.414 5.7466 14.166z"/>
    <path d="m677.14 429.96c-2.2276-4.4075-1.199-11.674-5.7497-14.166 3.2341 4.1715 1.7637 10.414 5.7497 14.166z"/>
    <path d="m638.26 435.83c-2.817-4.5817-1.1226-11.969-6.9081-14.492 4.0092 3.9623 2.7415 10.631 6.9081 14.492z"/>
    <path d="m634.2 441.72c-2.2232-4.4086-1.196-11.673-5.746-14.166 3.2342 4.1713 1.7629 10.413 5.746 14.166z"/>
    <path d="m630.46 446.04c-2.2234-4.4078-1.196-11.673-5.746-14.164 3.234 4.1708 1.7589 10.414 5.746 14.164z"/>
    <path d="m627.18 450c-2.2239-4.4082-1.1954-11.674-5.7465-14.166 3.2321 4.1722 1.7632 10.413 5.7465 14.166z"/>
    <path d="m623.66 454.89c-0.37955-4.3427-6.6532-19.079-3.2456-7.2157 0.53087 2.5851 1.1414 5.406 3.2456 7.2157z"/>
    <path d="m613.93 461.73c-0.38525-4.3404-6.6566-19.076-3.2461-7.2153 0.53149 2.5848 1.1421 5.4055 3.2461 7.2153z"/>
    <path d="m618 457.87c-0.38476-4.341-6.6569-19.079-3.246-7.2165 0.53154 2.5852 1.1421 5.4061 3.246 7.2165z"/>
    <path d="m673.28 407.74c-2.2272-4.4071-1.1952-11.675-5.7465-14.166 3.232 4.1723 1.7596 10.415 5.7465 14.166z"/>
    <path d="m664.96 407.41c-2.2278-4.4074-1.199-11.674-5.7497-14.166 3.234 4.1716 1.7637 10.414 5.7497 14.166z"/>
    <path d="m657.68 407.6c-2.2237-4.4083-1.1953-11.674-5.7464-14.166 3.2318 4.1724 1.7603 10.415 5.7464 14.166z"/>
    <path d="m656.47 418.88c-2.2236-4.4083-1.1954-11.674-5.7465-14.166 3.2319 4.1724 1.7604 10.415 5.7465 14.166z"/>
    <path d="m650.89 423.77c-2.2274-4.4071-1.1952-11.674-5.7465-14.166 3.2322 4.1722 1.7607 10.414 5.7465 14.166z"/>
    <path d="m641.15 430.61c-2.2276-4.4075-1.1991-11.674-5.7497-14.166 3.2341 4.1716 1.7636 10.414 5.7497 14.166z"/>
    <path d="m645.95 427.47c-2.2277-4.4074-1.199-11.674-5.7497-14.166 3.234 4.1716 1.7643 10.414 5.7497 14.166z"/>
    <path d="m635.96 404.43c-1.1876-4.0469-9.6598-16.541-4.4341-5.9847 0.8895 2.3249 1.9639 4.939 4.4341 5.9847z"/>
    <path d="m632.64 409.74c-1.1457-4.0698-9.6465-16.616-4.4027-6.0358 0.88637 2.3331 1.942 4.9575 4.4027 6.0358z"/>
    <path d="m640.92 399.4c-1.1893-4.0401-9.6502-16.537-4.4201-5.9892 0.88529 2.3246 1.9512 4.942 4.4201 5.9892z"/>
    <path d="m643.48 393.4c-1.1193-4.0817-9.6552-16.613-4.3942-6.0431 0.88943 2.3317 1.9412 4.9533 4.3942 6.0431z"/>
    <path d="m645.98 388.33c-1.1201-4.0814-9.6551-16.611-4.3954-6.0411 0.88938 2.3314 1.9419 4.9528 4.3954 6.0411z"/>
    <path d="m648.89 382.73c-1.1484-4.0683-9.6452-16.616-4.4037-6.0351 0.88567 2.3334 1.9416 4.9586 4.4037 6.0351z"/>
    <path d="m660.9 386.95c-1.1306-4.0662-9.6661-16.545-4.3992-6.0124 0.8881 2.3247 1.9424 4.9422 4.3992 6.0124z"/>
    <path d="m556.24 376.98c-2.2276-4.4075-1.1991-11.673-5.7494-14.166 3.2344 4.1714 1.764 10.414 5.7494 14.166z"/>
    <path d="m566.12 380.09c-2.2276-4.4074-1.1989-11.674-5.7497-14.166 3.2336 4.1718 1.7625 10.415 5.7497 14.166z"/>
    <path d="m564.03 364.37c-2.2232-4.4085-1.196-11.673-5.746-14.166 3.234 4.1714 1.7596 10.415 5.746 14.166z"/>
    <path d="m572.91 371.24c-2.2275-4.4075-1.1992-11.673-5.7496-14.166 3.2345 4.1714 1.7641 10.414 5.7496 14.166z"/>
    <path d="m573.41 361.18c-2.2276-4.4074-1.199-11.673-5.7495-14.166 3.234 4.1716 1.7636 10.414 5.7495 14.166z"/>
    <path d="m580.26 361.52c-2.2276-4.4075-1.199-11.673-5.7495-14.166 3.234 4.1716 1.7636 10.414 5.7495 14.166z"/>
    <path d="m607.04 438.26c-2.2278-4.4074-1.1989-11.674-5.7498-14.166 3.2336 4.1717 1.7632 10.415 5.7498 14.166z"/>
    <path d="m602.97 442.12c-2.2275-4.4075-1.199-11.674-5.7496-14.166 3.2341 4.1715 1.7636 10.414 5.7496 14.166z"/>
    <path d="m612.71 435.28c-2.2278-4.4074-1.1989-11.674-5.7498-14.166 3.2336 4.1718 1.7633 10.415 5.7498 14.166z"/>
    <path d="m616.23 430.39c-2.2276-4.4075-1.199-11.674-5.7497-14.166 3.2341 4.1715 1.7643 10.414 5.7497 14.166z"/>
    <path d="m619.5 426.43c-2.2233-4.4085-1.1959-11.673-5.7459-14.166 3.2341 4.1713 1.7628 10.413 5.7459 14.166z"/>
    <path d="m623.24 422.11c-2.2276-4.4075-1.1991-11.674-5.7497-14.166 3.2341 4.1716 1.7636 10.414 5.7497 14.166z"/>
    <path d="m626.85 416.7c-2.2234-4.4085-1.1958-11.674-5.746-14.166 3.2337 4.1715 1.7624 10.413 5.746 14.166z"/>
    <path d="m660.44 482.68c-3.9059-2.559-4.0721-10.59-10.147-9.3932 5.0784 1.134 5.002 8.3695 10.147 9.3932z"/>
    <path d="m654.56 492.94c-3.8734-2.5937-4.0079-10.63-10.091-9.4417 5.0893 1.1325 4.9524 8.3914 10.091 9.4417z"/>
    <path d="m668.24 477.64c-3.8643-2.5808-4.0449-10.575-10.102-9.3777 5.0707 1.1228 4.9785 8.3429 10.102 9.3777z"/>
    <path d="m670.93 464.63c-3.9122-2.5747-4.0322-10.645-10.133-9.4591 5.068 1.1846 4.974 8.4217 10.133 9.4591z"/>
    <path d="m678.94 459.28c-3.8894-2.5785-4.0038-10.624-10.088-9.4437 5.0489 1.1901 4.9472 8.4019 10.088 9.4437z"/>
    <path d="m694.66 474.02c-3.9179-2.5525-3.9998-10.629-10.091-9.4436 5.0791 1.1483 4.9498 8.3976 10.091 9.4436z"/>
    <path d="m687.84 449.92c-3.8733-2.5946-4.0076-10.63-10.091-9.4436 5.0627 1.1712 4.9535 8.395 10.091 9.4436z"/>
    <path d="m582.66 326.24c-2.2276-4.4075-1.1989-11.673-5.7495-14.166 3.2341 4.1715 1.7636 10.414 5.7495 14.166z"/>
    <path d="m574.46 324.68c-2.2277-4.4074-1.1988-11.674-5.7496-14.166 3.2336 4.1717 1.7632 10.415 5.7496 14.166z"/>
    <path d="m588.32 323.26c-2.2232-4.4086-1.196-11.673-5.7458-14.166 3.2344 4.1711 1.7632 10.413 5.7458 14.166z"/>
    <path d="m608.31 298.75c-2.2235-4.4084-1.1955-11.674-5.7464-14.166 3.2323 4.1722 1.7601 10.415 5.7464 14.166z"/>
    <path d="m619.84 300.08c-2.2276-4.4075-2.5646-10.588-7.1153-13.08 3.2339 4.1716 3.1299 9.3282 7.1153 13.08z"/>
    <path d="m631.58 302.12c-2.2237-4.4083-1.9193-10.408-6.4704-12.899 3.2318 4.1724 2.4828 9.1486 6.4704 12.899z"/>
    <path d="m639.6 296.4c-2.2238-4.4082-1.1954-9.5027-5.7465-11.994 3.2319 4.1723 1.7602 8.243 5.7465 11.994z"/>
    <path d="m637.47 473.67c-2.2275-4.4075-1.1992-11.673-5.7496-14.166 3.2345 4.1714 1.7635 10.415 5.7496 14.166z"/>
    <path d="m640.74 469.71c-2.2277-4.4074-1.1985-11.674-5.7494-14.166 3.2344 4.1714 1.764 10.414 5.7494 14.166z"/>
    <path d="m644.48 465.39c-2.2276-4.4074-1.1987-11.674-5.7496-14.166 3.2345 4.1714 1.764 10.414 5.7496 14.166z"/>
    <path d="m648.09 459.98c-2.2276-4.4074-1.199-11.673-5.7495-14.166 3.2339 4.1716 1.7621 10.415 5.7495 14.166z"/>
    <path d="m555.02 339.6c-3.1196-9.271-1.1953-11.674-5.7466-14.166 3.4532 4.4488 2.2078 10.969 5.7466 14.166z"/>
    <path d="m566.89 339.39c-2.2278-4.4073-1.1984-11.674-5.7495-14.166 3.5539 4.0436 1.7636 10.414 5.7495 14.166z"/>
    <path d="m567.84 326.03c-2.2237-4.4082-1.82-11.675-6.3714-14.166 3.2321 4.1723 2.3843 10.415 6.3714 14.166z"/>
    <path d="m666.02 267.25c2.9126 4.8796 3.4362 11.673 10.607 10.714 5.8847-0.7872 9.7542-6.4833 9.1163-11.936-0.51163-4.3733-2.376-9.7027-6.7835-11.285-4.746-1.704-9.2303 2.4372-12.364 5.6225-6.0586 6.158-10.002 14.197-14.257 21.669 1.0857-10.33-1.6084-21.333-7.8191-29.464-3.4466-4.5125-7.3948-8.6132-11.579-12.436 10.268-7.8616 23.003-14.249 36.298-12.643 12.114 1.4628 22.714 8.3662 29.408 18.016 6.4792 9.3402 8.5775 22.345 5.0866 33.726-1.9888 6.4836-7.3938 11.173-13.32 14.033-7.2149 3.481-16.27 3.1462-22.178-3.1056-5.628-5.8463-5.0448-15.257-2.215-22.908z" fill="#ffe000" stroke="#000" stroke-width="1.3753"/>
   </g>
  </g>
  <path d="m655.53 230.7c-7.6644 5.5148-0.2255 28.963 7.4749 31.755m7.9052-33.843c-8.6932 6.7987-3.4273 25.831 1.5513 26.123m15.077-20.037c-9.4961-1.5105-14.963 14.775-10.55 19.523m21.56-7.7414c-8.6148-3.663-16.669 4.1168-14.69 12.332l0.0667 0.43462m21.124 9.5987c-0.0531-9.6181-16.597-11.121-18.789-0.23263m8.8682 21.896c7.9402-8.088-5.2611-18.454-13.983-13.693" fill="none" stroke="#000" stroke-width="1.3753"/>
 </g>
 <g id="b">
  <g id="a">
   <path d="m78.8 46.2c-1.9272 31.697-51.315 124.97-78.798 133.6 13.885-2.1385 29.138-7.6305 43.023-20.146 1.6709 8.1845-2.4789 18.418-9.6985 26.606 15.02-4.2918 23.259-15.665 29.35-26.872 1.1169 12.062 5.6455 23.426 15.286 32.689 9.6499-7.9701 14.178-20.018 15.292-32.08 6.0967 11.208 14.336 23.264 29.356 27.556-7.2255-8.1875-11.024-18.424-9.3624-26.609 13.885 12.518 28.796 18.004 42.687 20.146-26.731-11.866-75.51-102.99-77.136-134.89z" stroke-width="1.6929"/>
   <path d="m46.49 42.8c-13.602 0-24.699 8.606-24.699 19.157s11.097 19.157 24.699 19.157 24.7-8.606 24.7-19.157-11.097-19.157-24.7-19.157z" stroke-width="1.6929"/>
   <path d="m78.99 7.93c-13.604 0-24.7 8.606-24.7 19.157s11.097 19.157 24.7 19.157c13.602 0 24.7-8.6045 24.7-19.157 0-10.552-11.096-19.157-24.7-19.157z" stroke-width="1.6929"/>
   <path d="m110.6 42.8c-13.604 0-24.699 8.606-24.699 19.157s11.097 19.157 24.699 19.157 25.384-8.948 25.384-19.499-11.78-18.815-25.384-18.815z" stroke-width="1.6929"/>
  </g>
  <use transform="translate(186.02)" xlink:href="#a"/>
 </g>
 <use transform="translate(744.07)" xlink:href="#a"/>
 <use transform="translate(372.04)" xlink:href="#b"/>
 <g transform="translate(-1338.3 -136.52)">
  <g stroke-width="1.4512">
   <g stroke="#ffe000">
    <path d="m1609.4 596.36c20.242 8.8832 42.897 16.383 57.184 32.694 6.3549 6.2439 2.6292 15.823-5.7523 18.821-6.0129 7.2173-12.483-4.8337-14.774-3.4021 2.4554 10.379 4.208 22.025 12.89 29.935 11.894 8.3702 22.791 19.465 24.94 33.254 1.6684-4.1564 4.3624-15.028 5.4928-14.742 0.4817 6.076 1.4076 18.595 4.3482 20.198 2.309-8.3235 20.104-8.5226 15.589 1.7308-2.3901 10.44 14.916 10.469 12.578 0.1171-1.6305-5.6417-3.7096-9.4031 4.6937-8.7973 5.3314-0.74793 11.762-3.0244 9.3507 3.9037-1.1616 8.0476 11.606 12.235 16.178 5.161 4.9758-4.8472-6.2807-12.248-5.0913-12.451 6.2017 3.0533 10.686 0.22024 16.213 0.85223 5.0566-4.7574 3.463-17.328-5.7364-16.652-5.2056-0.49916-6.8809-1.3477-2.701-5.107 4.4915-5.3134 1.7249-17.047-6.5492-16.868-8.7769 2.4607-2.3132 14.808-10.473 16.376-9.8326 3.428-23.756 6.1155-31.15-2.663-4.5972-5.8981-7.6932-14.327-6.5846-20.947 11.645-7.1393 12.322-20.882 10.575-32.148 1.6554 3.7318 4.6722 15.508 8.418 22.01 1.4954 3.6782 10.729 14.324 7.919 5.3002-0.9118-10.929 3.0061-23.42-4.6477-33.008-2.8177-3.6434-12.097-2.3718-5.0392-6.7894 4.449-6.7709 19.692-3.7717 21.45-6.2345-5.9066-4.9686-15.17-13.023-23.501-7.1709-3.2802 1.7789-5.4404 10.016-5.8657 2.7981-4.3046-14.648-8.5736-30.872-22.793-36.539-15.119-5.8749-38.302-12.471-52.058-20.689-6.6604 13.496-18.442 37.561-25.102 51.057z"/>
    <path d="m1564.2 593.31c5.3735 4.0099 14.185 26.361-2.0644 23.354 0.6355 16.422-18.058-10.326-16.567 7.7469 0.033 6.6222-2.1431 20.48-6.2287 6.7292 0.1264-8.5163-6.9459-24.794-18.989-16.945 21.173 7.094 0.048 31.939 15.981 42.735-5.636 6.5496-11.87 11.328 2.1581 16.729-17.966 4.8081-16.54 19.696-3.6852 8.8147 15.352 6.2609 8.8443 22.384 7.3635 31.741 9.445 9.2958 16.452-2.2538 16.647-7.4229 11.932-2.6547 18.772 28.245 26.813 7.868 1.3999-6.7237 15.757 3.2685 14.825-8.176 4.5727-8.0828-16.902-15.813-3.1292-11.876 14.739-4.8218-7.4082-25.908-10.327-8.1794-14.586 16.467-38.505-12.847-21.566-24.742 9.2402-9.0406 35.309-6.1962 38.702-13.646-8.2758 7.0465 4.8187 34.419 6.8951 14.365 3.3404-5.1089 6.0994-29.993 5.8811-14.38-0.9704 6.1424 12.62 24.218 10.691 8.7739-2.8545-18.855 31.386-28.864 22.599-61.514-4.2178-13.834 0.9011-23.841 16.559-32.5 9.5304-13.669 17.834-15.475 21.935-30.673 5.6391-17.905-2.4208-36.451-1.0716-54.48-11.584-12.903-34.512-8.6604-50.498-15.43-11.431-3.9664-30.234-8.611-27.182 8.1121-4.5867 20.024-16.63 28.663-14.107 60.077-22.323 11.172-26.795 24.399-32.939 45.004-4.4363 14.878-40.466 13.942-42.288-5.3728 1.6244-6.3052 20.816-29.029-3.4858-10.137-6.7897 6.4306-8.6512 31.172-23.782 15.799-17.112-17.386 15.371-33.189 29.788-44.136 13.274-10.079 26.167-21.109 28.815-38.074 1.5868-10.166-1.2369-22.122-3.8652-5.8892-2.8662 17.702-5.9846-1.3602-12.406-6.6074-7.1749-8.2611 10.814-25.043-3.4706-11.759-10.554 9.8144-13.141-15.558-12.642-22.708 0.1134-16.644-10.194 12.079-9.84-3.8585 0.6162-5.657 6.575-24.75-4.5091-11.861-3.4615 6.8055-10.32 18.647-7.0837 3.9108-2.6188-7.8649-8.3173 11.157-12.735-0.49121-11.279-12.229-13.965-33.488-1.4318-45.428 10.53-10.032 53.022-21.531 47.328 2.8346-2.3779 10.177-42.225 20.13-16.461 19.318 10.833-0.34125 20.141-0.58722 12.756 10.03 9.9764-2.1041 13.13 4.2463 8.6444 12.455 8.8077-2.1047 0.8562 17.523 7.2687 17.749-1.7903-7.4784 6.5623-17.092 10.668-5.8131 1.7577-7.588-5.1223-35.746 9.5391-17.223-1.7057-14.362 1.4683-11.702 10.926-4.4672 0.12-15.105 0.1178-34.953-12.486-46.633-30.479-28.245-82.856-23.424-100.47 4.3618-14.74 23.25 4.2782 60.247 21.711 79.927 11.955 13.496 33.378 17.792 40.586 34.223 4.9474 11.278-8.079 11.698-8.8268-1.0503-5.1314 19.231-19.288-9.6964-15.394 4.0795 5.9275 5.745 0.1593 34.175-3.6431 14.441-2.2159-7.1601-9.8177-10.586-4.2978-1.1869 9.0559 19.465-20.537 29.45-19.066 47.646 1.1861 14.671-14.515-10.446-10.947 5.882 1.9587 11.113 12.736 23.707 23.231 28.938 15.799 7.8745 34.751-2.2487 52.279 6.725 9.6144 0.77049 20.235-1.0237 26.895-7.7103z"/>
    <path d="m1695 515.45c11.745-16.285 30.159-25.208 39.506-42.727 11.121-7.8132 16.468-32.547 17.302-44.283 0.5808-3.3031-0.4263-10.802 0.6268-11.401 5.2816 3.8694 4.9346 9.5633 10.144 13.036 6.209-0.10743 6.9191-9.6199 8.2276-13.604 0.5967-5.8582-9.7974-3.928-13.499-6.4006-2.2027-3.7451-2.7668-10.135 4.2812-7.6534 3.1697 2.452 11.538 3.9741 10.758-2.6964-2.5709-5.525 1.361-11.013-0.9747-15.829-4.7114-4.5984-15.544 11.244-16.44 1.8261-2.5054-5.7986 3.4419-6.6838 6.8352-9.9022 0.9468-5.3689-5.7683-10.633-10.765-10.671-6.1633 2.2452-6.8565 7.5374-4.8138 12.351 1.386 3.4769 0.3532 10.601-5.3991 6.4096-2.4985-3.2494-2.2686-10.815-9.6613-9.3326-4.3702 3.2866-8.6835 9.9744-4.8118 15.359 3.37 4.0818 10.017 5.0183 8.1543 11.493-0.659 10.805-7.1513 20.439-12.758 29.772-9.0222 13.78-30.08 30.327-43.382 41.011 5.523 14.424 11.095 28.833 16.669 43.242z"/>
    <path d="m1645.8 509.44c12.427 11.151 26.637 22.052 44.228 25.852 4.3714 1.8365 10.261-1.522 13.323-0.29233 4.296 5.5071 7.748 10.316 15.172 8.2932 4.6545-0.15563 12.381-4.8802 14.452-3.7761-1.1814 5.6107-10.276 7.7298-9.3601 13.706 2.4951 6.4668 15.519 4.9348 15.336-2.2202-0.8961-3.8975 0.9523-13.154 6.8494-10.569 3.3608 5.168-2.0842 11.411 1.834 16.282 5.5971-0.84697 15.166-2.7188 14.47-9.1142-0.6562-5.0971-11.452-11.409-2.8174-14.967 6.3435-3.2186 5.4294 11.853 11.015 5.6642 2.8642-4.503 4.4965-13.97 1.5901-18.698-2.4774-5.0567-7.5627-1.7705-10.515 1.6476-6.8344 5.1343-8.7931-7.256-2.6526-8.9508 5.0466-5.1932 1.3212-13.502-5.9888-14.826-6.7893 0.30374-8.2881 7.7014-7.9405 12.458-3.4419 6.2979-12.989 4.6085-18.89 2.3384-20.598-6.5917-32.258-21.952-46.363-36.34-10.858 11.477-23.044 21.913-33.742 33.513z"/>
   </g>
   <path d="m1675.9 487.3-27.667 22.783-6.0309-1.5969 26.604-29.892z"/>
   <g stroke="#ffe000">
    <path d="m1661.2 446.7c9.9131 5.7312 21.587 11.272 33.834 9.3493 2.4535 0.16918 8.3257-3.5163 5.5894 0.65808-1.9649 5.3874-7.4669 9.3843-13.801 10.095-1.4908 0.3858-7.15 0.51519-2.9261 0.54764 6.0943-0.0302 11.873 2.9074 14.971 7.5464 1.2668 1.7767 3.9842 5.6135 3.7408 6.3267-6.3466-4.4766-13.951-8.2142-22.321-7.8507-3.6191-0.0816 4.0631 1.7042 5.1121 3.31 6.8699 4.8467 7.4725 13.461 6.0525 20.566-0.4867 1.8733-1.2444 7.1364-2.0875 6.6658-2.5162-8.4571-6.2676-17.158-14.21-22.811-1.908-1.8793-2.5126-1.6693-1.8161 0.8419 0.8797 6.1825-2.3791 11.905-3.5071 17.865 1.1164-3.8446-0.3242-7.6702-2.2889-11.073-2.0853-4.3188-3.1563-8.9578-3.8587-13.595-0.3876 5.5136 1.6401 11.121-0.2377 16.543-2.7188-5.3469-6.2261-10.365-10.832-14.604-1.4603-1.1986-4.6408-5.7291-4.6534-4.617 2.3572 4.1228-3.1035 7.246-1.4749 11.322 1.0584 3.3017-2.2229-2.5743-3.8469-3.2666-3.9935-2.2793-6.8496-5.6763-9.019-9.3656-1.3931-2.2022 0.3048 4.109-0.1323 5.5953-0.3796 4.2006-0.5839 8.4289 0.1645 12.613-7.6728-3.8885-12.859-10.785-15.016-18.284 2.1056 10.46-0.986 21.511-8.2458 29.952-1.4352 1.5694-4.7352 6.283-3.285 1.7029 1.9937-13.404 3.3328-27.26-0.2944-40.538-0.098-2.2322-4.0342-5.8678 0.6352-5.5169 17.95-3.1875 35.898-6.3934 53.754-9.9778z"/>
    <path d="m1667 446.6c0.4733 6.2399 5.9121 10.157 12.768 12.914-7.5672 0.87136-14.542-0.43384-21.046-7.835-0.2355 5.9501 3.9025 11.898 8.5137 17.559-9.2224-4.0633-18.09-8.7063-21.993-18.576 1.3008 6.6756 3.1936 13.205 6.6208 19.591-9.3392-5.5144-15.724-11.608-19.272-18.284-3.3104 5.3685 0.2356 10.593 4.7301 15.672-8.9869-2.6123-15.016-7.1113-19.862-12.626 2.3639 8.2706 5.6743 13.641 9.1036 17.704-8.0405-2.7563-13.244-6.9654-12.887-15.382-0.1188 16.979-5.4389 22.493-12.416 24.524 5.4388-21.188-0.9465-28.008-3.7837-39.036 9.9312-1.1612 16.552-14.802 28.14-14.802 7.4505 0 19.037 9.2879 25.777 8.4165 2.956 5.2264 8.9847 7.9845 15.608 10.161z"/>
    <path d="m1678.4 382.87c5.3966 3.9718 2.8323 9.7291 0.093 14.3-3.8857 6.4853-25.108-3.6829-35.373 17.306-1.6286 5.5436 2.4397 15.481 9.1812 13.528 10.397-3.0124 11.237-14.767 22.724-15.781 11.085-0.97813 0.076 13.29-0.5407 22.007 0.8466 2.2408 2.3418 7.7508-2.8952 4.8495-3.0005-1.3306-3.1689-8.764-5.4794-8.5122-0.7645 3.2063 5.2732 12.967-2.621 11.667-3.251-1.6095-8.282-7.1104-11.302-2.3731-5.4479 2.1073-13.415-8.2389-16.012-7.755 3.571 2.1013 7.7232 11.594 11.997 14.247-10.729-1.2037-17.887-6.3162-22.044-9.9552-2.7221 3.4298 0.7568 8.294-1.7188 12.425-5.0922-2.1265-7.4369-6.7093-9.4989-10.721 0.6389 4.9118-0.8548 9.9929-3.3914 14.343-0.3386-6.9698-1.7493-7.6393-4.5596-13.012-2.0006 5.7254-11.066 12.248-16.93 14.68 0.9568-4.5364 7.0801-8.8404 8.5911-13.439 2.5853-5.952 4.7843-12.073 5.8854-18.39-3.0861 7.5189-8.5375 14.082-14.835 20.118 0.5115-5.8647 5.9755-9.855 7.0357-15.655 1.3096-5.4522 2.6031-10.907 3.8966-16.363-2.6225 7.2874-9.2139 14.512-17.158 18.484 4.114-9.1074 10.592-17.891 10.775-27.772 0.8152 3.8872-8.3515 10.687-11.872 5.1287 4.5433-4.5637 6.6318-9.5954 7.3542-15.226 0.7401-5.7691 0.2736-15.246 5.7133-18.993 2.8152-1.6597 5.0219 0.68163 9.2409 4.271-3.5026-5.9666-7.8791-10.564-8.6048-17.117 6.8991-2.0705 16.136 1.7538 19.518 7.0854 1.2903 1.6679 6.2251 7.2859 2.3938 3.0799-4.7717-5.0127-9.6629-11.476-12.671-17.544 2.623-3.2005 10.978-0.0911 15.235-0.11092 5.2179 2.8616 5.9149 10.373 13.66 6.7193 6.505-0.9795 13.522 0.31742 18.982 3.5711 5.2041 3.1444 5.7363 9.2713 10.375 12.844 3.75 3.3721 10.953 5.1938 14.853 8.0641z" stroke-linecap="round"/>
    <path d="m1645 374.69c3.0185 0 5.4867 2.088 5.4867 4.7132 0 2.6252-1.5363 4.2424-4.3902 3.3673-2.7976-0.87506-11.82-5.8446-9.3267-6.1938 2.8317-0.39654 5.1574-1.8868 8.2302-1.8868z"/>
   </g>
  </g>
  <g stroke="#ffe000" stroke-width="1.4512">
   <path d="m1661.6 373.53c-4.8419-2.0933-11.034-2.65-15.709-0.0382m29.784 16.955s-15.187-2.2652-16.015-1.2498" fill="none"/>
   <path d="m1675.1 381.66c4.451 1.5168 9.6865 3.0773 9.2751 6.7818-0.6936 6.2456-5.4154 11.808-13.195 11.8 2.2217-5.9501 3.6348-10.02 3.9202-18.582z"/>
   <path d="m1642.6 401.76c-9.8116 4.8398-21.137 20.679-5.8348 30.383m-10.38-32.203c-1.0136 7.3808-8.4706 16.222-14.746 21.618 2.4293-8.4709 5.4081-18.481 3.5827-27.139-1.2914 3.6886-4.142 8.8749-7.4556 11.604-1.166 1.0041-2.4691 0.21108-1.4434-1.0395 1.4185-6.3237 1.473-12.999-0.7729-19.182" fill="none"/>
  </g>
  <path d="m1648.2 379.18c2.1617 2.8992-2.442 3.3202-3.4622 1.4211-1.2778-2.3785 2.246-3.0523 3.4622-1.4211z" fill="#ffe000"/>
  <path d="m1641.3 372.87c-2.9921 1.6214-10.261 2.112-13.5 0.53888m92.968 67.608c-5.1828 6.3414-8.2825 14.177-15.526 19.056m-51.792 97.193c-8.1539 3.7242-17.939 19.803-15.894 35.497m10.406 54.307c2.6038 2.2541 4.9494 6.077 9.3266 5.1156m-9.3266-4.9144c1.5913 4.0427 3.1466 11.007 9.1077 11.178m-6.5291-271.84c1.6404 3.2465 1.0143 7.1638-1.5363 9.8989m-33.029-30.638c2.158-3.4971 6.4791-5.4182 10.809-5.9261m-20.025 7.811c2.4139 2.3791 4.828 4.7581 7.2419 7.1371" fill="none" stroke="#ffe000" stroke-width="1.4512"/>
 </g>
</svg>
