<?xml version="1.0" encoding="UTF-8" standalone="no"?>
<svg
   xmlns:dc="http://purl.org/dc/elements/1.1/"
   xmlns:cc="http://creativecommons.org/ns#"
   xmlns:rdf="http://www.w3.org/1999/02/22-rdf-syntax-ns#"
   xmlns:svg="http://www.w3.org/2000/svg"
   xmlns="http://www.w3.org/2000/svg"
   xmlns:xlink="http://www.w3.org/1999/xlink"
   xmlns:sodipodi="http://sodipodi.sourceforge.net/DTD/sodipodi-0.dtd"
   xmlns:inkscape="http://www.inkscape.org/namespaces/inkscape"
   version="1.1"
   id="Calque_1"
   x="0px"
   y="0px"
   width="1200"
   height="800"
   viewBox="0 0 1200 800"
   enable-background="new 0 0 500 300"
   xml:space="preserve"
   inkscape:version="1.0.1 (c497b03c, 2020-09-10)"
   sodipodi:docname="Drapeau fr deÌpartement Hauts-de-Seine.svg"><sodipodi:namedview
     pagecolor="#ffffff"
     bordercolor="#666666"
     borderopacity="1"
     objecttolerance="10"
     gridtolerance="10"
     guidetolerance="10"
     inkscape:pageopacity="0"
     inkscape:pageshadow="2"
     inkscape:window-width="1920"
     inkscape:window-height="942"
     id="namedview4354"
     showgrid="false"
     inkscape:zoom="0.36828479"
     inkscape:cx="401.412"
     inkscape:cy="684.69438"
     inkscape:window-x="0"
     inkscape:window-y="25"
     inkscape:window-maximized="1"
     inkscape:current-layer="Calque_1"
     inkscape:document-rotation="0" /><metadata
     id="metadata5397"><rdf:RDF><cc:Work
         rdf:about=""><dc:format>image/svg+xml</dc:format><dc:type
           rdf:resource="http://purl.org/dc/dcmitype/StillImage" /><dc:title /></cc:Work></rdf:RDF></metadata><defs
     id="defs5395"><g
       id="c"><path
         id="b"
         d="M 0,0 V 1 H 0.5 Z"
         transform="rotate(17.99991,3.15688,-0.5)" /><use
         width="810"
         height="540"
         transform="scale(-1,1)"
         xlink:href="#b"
         id="use2143"
         x="0"
         y="0" /></g><g
       id="f"><path
         id="e"
         d="M 0,0 V 1 H 0.5 Z"
         transform="rotate(17.99991,3.15688,-0.5)" /><use
         width="810"
         height="540"
         transform="scale(-1,1)"
         xlink:href="#e"
         id="use2152"
         x="0"
         y="0" /></g><g
       id="i"><path
         id="h"
         d="M 0,0 V 1 H 0.5 Z"
         transform="rotate(17.99991,3.15688,-0.5)" /><use
         width="810"
         height="540"
         transform="scale(-1,1)"
         xlink:href="#h"
         id="use2161"
         x="0"
         y="0" /></g><g
       id="l"><path
         id="k"
         d="M 0,0 V 1 H 0.5 Z"
         transform="rotate(17.99991,3.15688,-0.5)" /><use
         width="810"
         height="540"
         transform="scale(-1,1)"
         xlink:href="#k"
         id="use2170"
         x="0"
         y="0" /></g><g
       id="o"><path
         id="n"
         d="M 0,0 V 1 H 0.5 Z"
         transform="rotate(18,3.15688,-0.5)" /><use
         width="810"
         height="540"
         transform="scale(-1,1)"
         xlink:href="#n"
         id="use2179"
         x="0"
         y="0" /></g><g
       id="r"><path
         id="q"
         d="M 0,0 V 1 H 0.5 Z"
         transform="rotate(18,3.15688,-0.5)" /><use
         width="810"
         height="540"
         transform="scale(-1,1)"
         xlink:href="#q"
         id="use2188"
         x="0"
         y="0" /></g><g
       id="v"><path
         id="u"
         d="M 0,0 V 1 H 0.5 Z"
         transform="rotate(18,3.15688,-0.5)" /><use
         width="810"
         height="540"
         transform="scale(-1,1)"
         xlink:href="#u"
         id="use2198"
         x="0"
         y="0" /></g><g
       id="y"><path
         id="x"
         d="M 0,0 V 1 H 0.5 Z"
         transform="rotate(18,3.15688,-0.5)" /><use
         width="810"
         height="540"
         transform="scale(-1,1)"
         xlink:href="#x"
         id="use2207"
         x="0"
         y="0" /></g><g
       id="B"><path
         id="A"
         d="M 0,0 V 1 H 0.5 Z"
         transform="rotate(18,3.15688,-0.5)" /><use
         width="810"
         height="540"
         transform="scale(-1,1)"
         xlink:href="#A"
         id="use2216"
         x="0"
         y="0" /></g><g
       id="F"><path
         id="E"
         d="M 0,0 V 1 H 0.5 Z"
         transform="rotate(18,3.15688,-0.5)" /><use
         width="810"
         height="540"
         transform="scale(-1,1)"
         xlink:href="#E"
         id="use2226"
         x="0"
         y="0" /></g><g
       id="I"><path
         id="H"
         d="M 0,0 V 1 H 0.5 Z"
         transform="rotate(18,3.15688,-0.5)" /><use
         width="810"
         height="540"
         transform="scale(-1,1)"
         xlink:href="#H"
         id="use2235"
         x="0"
         y="0" /></g><g
       id="L"><path
         id="K"
         d="M 0,0 V 1 H 0.5 Z"
         transform="rotate(18,3.15688,-0.5)" /><use
         width="810"
         height="540"
         transform="scale(-1,1)"
         xlink:href="#K"
         id="use2244"
         x="0"
         y="0" /></g><g
       id="P"><path
         id="O"
         d="M 0,0 V 1 H 0.5 Z"
         transform="rotate(18,3.15688,-0.5)" /><use
         width="810"
         height="540"
         transform="scale(-1,1)"
         xlink:href="#O"
         id="use2254"
         x="0"
         y="0" /></g><g
       id="S"><path
         id="R"
         d="M 0,0 V 1 H 0.5 Z"
         transform="rotate(18,3.15688,-0.5)" /><use
         width="810"
         height="540"
         transform="scale(-1,1)"
         xlink:href="#R"
         id="use2263"
         x="0"
         y="0" /></g><g
       id="W"><path
         id="V"
         d="M 0,0 V 1 H 0.5 Z"
         transform="rotate(18,3.15688,-0.5)" /><use
         width="810"
         height="540"
         transform="scale(-1,1)"
         xlink:href="#V"
         id="use2273"
         x="0"
         y="0" /></g><g
       id="Z"><path
         id="Y"
         d="M 0,0 V 1 H 0.5 Z"
         transform="rotate(18,3.15688,-0.5)" /><use
         width="810"
         height="540"
         transform="scale(-1,1)"
         xlink:href="#Y"
         id="use2282"
         x="0"
         y="0" /></g><g
       id="ac"><path
         id="ab"
         d="M 0,0 V 1 H 0.5 Z"
         transform="rotate(18,3.15688,-0.5)" /><use
         width="810"
         height="540"
         transform="scale(-1,1)"
         xlink:href="#ab"
         id="use2291"
         x="0"
         y="0" /></g><g
       id="ag"><path
         id="af"
         d="M 0,0 V 1 H 0.5 Z"
         transform="rotate(18,3.15688,-0.5)" /><use
         width="810"
         height="540"
         transform="scale(-1,1)"
         xlink:href="#af"
         id="use2301"
         x="0"
         y="0" /></g><g
       id="aj"><path
         id="ai"
         d="M 0,0 V 1 H 0.5 Z"
         transform="rotate(18,3.15688,-0.5)" /><use
         width="810"
         height="540"
         transform="scale(-1,1)"
         xlink:href="#ai"
         id="use2310"
         x="0"
         y="0" /></g><g
       id="an"><path
         id="am"
         d="M 0,0 V 1 H 0.5 Z"
         transform="rotate(18,3.15688,-0.5)" /><use
         width="810"
         height="540"
         transform="scale(-1,1)"
         xlink:href="#am"
         id="use2320"
         x="0"
         y="0" /></g><g
       id="aq"><path
         id="ap"
         d="M 0,0 V 1 H 0.5 Z"
         transform="rotate(18,3.15688,-0.5)" /><use
         width="810"
         height="540"
         transform="scale(-1,1)"
         xlink:href="#ap"
         id="use2329"
         x="0"
         y="0" /></g><g
       id="au"><path
         id="at"
         d="M 0,0 V 1 H 0.5 Z"
         transform="rotate(18,3.15688,-0.5)" /><use
         width="810"
         height="540"
         transform="scale(-1,1)"
         xlink:href="#at"
         id="use2339"
         x="0"
         y="0" /></g><g
       id="ay"><path
         id="ax"
         d="M 0,0 V 1 H 0.5 Z"
         transform="rotate(18,3.15688,-0.5)" /><use
         width="810"
         height="540"
         transform="scale(-1,1)"
         xlink:href="#ax"
         id="use2349"
         x="0"
         y="0" /></g><g
       id="aB"><path
         id="aA"
         d="M 0,0 V 1 H 0.5 Z"
         transform="rotate(18,3.15688,-0.5)" /><use
         width="810"
         height="540"
         transform="scale(-1,1)"
         xlink:href="#aA"
         id="use2358"
         x="0"
         y="0" /></g><g
       id="aH"><path
         id="aG"
         d="M 0,0 V 1 H 0.5 Z"
         transform="rotate(18,3.15688,-0.5)" /><use
         width="810"
         height="540"
         transform="scale(-1,1)"
         xlink:href="#aG"
         id="use2370"
         x="0"
         y="0" /></g><g
       id="aK"><path
         id="aJ"
         d="M 0,0 V 1 H 0.5 Z"
         transform="rotate(18,3.15688,-0.5)" /><use
         width="810"
         height="540"
         transform="scale(-1,1)"
         xlink:href="#aJ"
         id="use2379"
         x="0"
         y="0" /></g><g
       id="aO"><path
         id="aN"
         d="M 0,0 V 1 H 0.5 Z"
         transform="rotate(18,3.15688,-0.5)" /><use
         width="810"
         height="540"
         transform="scale(-1,1)"
         xlink:href="#aN"
         id="use2389"
         x="0"
         y="0" /></g><g
       id="aR"><path
         id="aQ"
         d="M 0,0 V 1 H 0.5 Z"
         transform="rotate(18,3.15688,-0.5)" /><use
         width="810"
         height="540"
         transform="scale(-1,1)"
         xlink:href="#aQ"
         id="use2398"
         x="0"
         y="0" /></g></defs><rect
     width="1200"
     height="800"
     id="rect4963"
     x="0"
     y="0"
     style="fill:#e20909;fill-opacity:1;stroke-width:1.26492" /><rect
     width="600"
     height="800"
     id="rect1245"
     x="0"
     y="0"
     style="fill:#3060f0;fill-opacity:1;stroke-width:0.894433" /><path
     id="path2844"
     style="fill:#ffffff;fill-opacity:1;stroke:none;stroke-width:0.90321200000000001px;stroke-linecap:butt;stroke-linejoin:miter;stroke-opacity:1"
     d="m 0,0 v 253.64062 c 64.840767,-3.54376 73.42405,-42.47146 142.49805,-42.5957 72.47478,0.13035 78.35692,42.97761 152.50195,42.85156 74.14504,0.12605 80.02525,-42.72121 152.5,-42.85156 72.47477,0.13035 78.35575,42.97761 152.49805,42.85156 h 0.004 c 74.14227,0.12605 80.0233,-42.72121 152.49805,-42.85156 72.47478,0.13035 78.35497,42.97761 152.5,42.85156 74.14504,0.12605 80.0272,-42.72121 152.502,-42.85156 69.074,0.12424 77.6573,39.05194 142.498,42.5957 V 0 Z" /><path
     id="path237"
     style="fill:#2b5df2;stroke:none;stroke-width:0.90321200000000001px;stroke-linecap:butt;stroke-linejoin:miter;stroke-opacity:1;fill-opacity:1"
     d="M 142.49805,51.044922 C 73.42405,51.169158 64.840767,90.096858 0,93.640625 v 79.999995 c 64.840767,-3.54376 73.42405,-42.47146 142.49805,-42.5957 72.47478,0.13035 78.35692,42.97761 152.50195,42.85156 74.14504,0.12605 80.02525,-42.72121 152.5,-42.85156 72.47477,0.13035 78.35575,42.97761 152.49805,42.85156 h 0.004 c 74.14227,0.12605 80.0233,-42.72121 152.49805,-42.85156 72.47478,0.13035 78.35497,42.97761 152.5,42.85156 74.14504,0.12605 80.0272,-42.72121 152.502,-42.85156 69.074,0.12424 77.6573,39.05194 142.498,42.5957 V 93.640625 C 1135.1593,90.096858 1126.576,51.169158 1057.502,51.044922 985.0272,51.175275 979.14504,94.022535 905,93.896484 830.85497,94.022535 824.97478,51.175275 752.5,51.044922 680.02525,51.175275 674.14422,94.022535 600.00195,93.896484 h -0.004 C 525.85575,94.022535 519.97477,51.175275 447.5,51.044922 375.02525,51.175275 369.14504,94.022535 295,93.896484 220.85497,94.022535 214.97283,51.175275 142.49805,51.044922 Z" /><g
     id="layer5"
     inkscape:label="Meubles"
     transform="matrix(1.8344639,0,0,1.8362849,6.8784422,-197.64392)"
     style="stroke-width:0.544848">
	<g
   id="g3413"
   transform="matrix(0.634793,0,0,0.634793,189.7236,734.7056)"
   style="stroke-width:0.544848">
		
			<path
   id="path3415"
   sodipodi:nodetypes="csssssscscsscccccccsscscssssssc"
   fill="#fcef3c"
   stroke="#000000"
   stroke-width="3.2747"
   d="m -48.097,-730.047 c 29.463,31.846 46.786,49.409 49.812,98.821 2.801,45.729 -27.628,83.959 -34.187,128.188 -1.245,8.389 -2.311,25.513 -1.188,32.457 0.832,5.143 3.392,20.856 6.187,1.414 0.575,-3.998 0.987,-24.059 2.75,-34.246 3.212,-18.561 13.499,-51.198 31.344,-69.282 17.838,-18.075 46.104,-29.799 71.312,-20.344 22.84,10.54 24.999,40.3 18.5,62.063 -8.139,27.256 -39.241,46.12 -67.125,47.969 5.525,-10.927 18.749,-42.114 4.406,-40.875 -16.602,1.432 -36.462,29.68 -41.633,49.058 -1.947,7.298 -1.16,18.628 -11.586,18.161 6.874,23.228 26.28,38.598 43.281,54.811 -17.722,1.474 -35.255,-6.866 -50.719,-14.812 0.654,15.925 -2.438,49.567 -21.157,67.937 -17.375,-18.916 -18.955,-41.986 -19.281,-67.937 -15.463,7.946 -32.996,16.285 -50.719,14.812 17.002,-16.213 36.407,-31.583 43.282,-54.811 -10.426,0.468 -11.053,-10.155 -13,-17.453 -5.171,-19.378 -23.616,-48.333 -40.219,-49.766 -14.343,-1.238 -1.118,29.948 4.406,40.875 -27.883,-1.849 -58.986,-20.713 -67.125,-47.969 -6.498,-21.764 -4.34,-51.524 18.5,-62.063 25.208,-9.455 53.475,2.269 71.313,20.344 17.845,18.084 28.131,50.721 31.343,69.282 1.763,10.187 1.468,28.834 2.043,32.832 2.795,19.442 6.062,5.143 6.894,0 1.125,-6.944 0.057,-24.068 -1.187,-32.457 -6.559,-44.229 -34.109,-84.015 -34.188,-128.188 -0.066,-39.886 19.987,-70.235 47.941,-98.821 z" />
		<path
   id="rect3417"
   fill="#fcef3c"
   stroke="#000000"
   stroke-width="3.2747"
   stroke-linejoin="round"
   d="m 13.829,-474.154 h -121.976 c -3.872,0 -7.012,3.14 -7.012,7.012 v 7.977 c 0,3.872 3.14,7.012 7.012,7.012 H 13.829 c 3.873,0 7.012,-3.14 7.012,-7.012 v -7.977 c 0,-3.873 -3.139,-7.012 -7.012,-7.012 z" />
	</g>
</g><g
     id="g13710"
     transform="matrix(1.2596222,0,0,1.2574678,522.27186,3.375196)"
     inkscape:label="Meubles"
     style="stroke-width:0.515396">
		<g
   id="g6364"
   style="stroke-width:0.515396">
			<path
   id="path6808"
   sodipodi:nodetypes="ccccc"
   fill="#ffffff"
   stroke="#000000"
   stroke-width="2.38371"
   d="M 299.959,537.081 V 249.707 h 9.569 v 287.879 z" />
			<path
   id="path6784"
   sodipodi:nodetypes="cccccccccccccccccc"
   fill="#ffffff"
   stroke="#000000"
   stroke-width="2.38371"
   d="m 391.844,411.229 92.386,-11.033 -0.92,39.069 -7.814,8.274 -11.031,0.459 C 452.163,633.713 181.593,634.07 144.102,473.277 l -7.814,-0.459 -6.435,-10.113 -3.678,-0.918 -10.111,-31.716 c 3.366,0.769 5.05,2.081 10.572,4.137 l 74.92,1.838 -1.379,29.417 -4.596,-2.297 -2.299,8.273 c 50.011,86.841 193.43,71.533 211.891,-21.603 l -11.981,-7.91 z" />
			<path
   id="path6786"
   sodipodi:nodetypes="ccccc"
   fill="#ffffff"
   stroke="#000000"
   stroke-width="2.38371"
   d="m 128.475,439.756 11.522,0.873 0.015,15.198 -9.699,0.032 z" />
			<path
   id="path6788"
   sodipodi:nodetypes="ccccc"
   fill="#ffffff"
   stroke="#000000"
   stroke-width="2.38371"
   d="m 146.4,441.103 11.031,0.92 v 14.265 l -11.063,-0.461 z" />
			<path
   id="path6790"
   sodipodi:nodetypes="ccccc"
   fill="#ffffff"
   stroke="#000000"
   stroke-width="2.38371"
   d="m 164.722,442.482 10.635,0.461 v 13.789 l -10.572,-0.429 z" />
			<path
   id="path6792"
   sodipodi:nodetypes="ccccc"
   fill="#ffffff"
   stroke="#000000"
   stroke-width="2.38371"
   d="m 181.255,443.356 11.996,-0.048 0.461,14.312 -12.41,-0.887 z" />
			<path
   id="path6794"
   sodipodi:nodetypes="ccsc"
   fill="#ffffff"
   stroke="#000000"
   stroke-width="2.38371"
   d="m 403.716,433.75 15.659,-0.951 c 1.022,-12.159 -0.465,-18.935 -8.67,-17.863 -8.561,1.118 -7.957,7.473 -6.989,18.814 z" />
			<path
   id="path6802"
   sodipodi:nodetypes="ccccc"
   fill="#ffffff"
   stroke="#000000"
   stroke-width="2.38371"
   d="m 129.362,462.247 6.927,11.49 57.454,-1.347 2.773,-8.749 z" />
			<path
   id="path6806"
   sodipodi:nodetypes="cc"
   fill="none"
   stroke="#000000"
   stroke-width="2.38371"
   d="m 181.458,472.406 c 15.953,73.899 196.528,125.176 237.963,-23.029" />
			<path
   id="path6804"
   sodipodi:nodetypes="cccsc"
   fill="#ffffff"
   stroke="#000000"
   stroke-width="2.38371"
   d="m 447.459,448.458 -14.786,0.491 C 420.069,591.895 205.247,591.413 167.544,472.36 l -10.566,0.918 c 13.462,114.331 270.653,158.958 290.481,-24.82 z" />
			<path
   id="path6810"
   sodipodi:nodetypes="ccccccccccccc"
   fill="#ffffff"
   stroke="#000000"
   stroke-width="2.38371"
   d="m 280.429,257.711 5.834,26.69 h 39.21 l 5.056,-26.199 -12.41,-3.693 v 8.289 h -6.894 l -0.92,-8.289 -11.871,-0.032 -0.078,8.321 h -6.483 l -0.381,-7.892 z" />
			<path
   id="path6818"
   fill="none"
   stroke="#000000"
   stroke-width="2.38371"
   d="M 423.559,408.471 310.029,285.289 440.106,406.172" />
			<path
   id="path6820"
   fill="#ffffff"
   stroke="#000000"
   stroke-width="2.38371"
   d="M 311.408,284.829 458.03,403.873" />
			<path
   id="path6832"
   sodipodi:nodetypes="cccccscsccccssc"
   fill="#ffffff"
   stroke="#000000"
   stroke-width="2.38371"
   d="m 309.603,250.64 c -3.467,-0.519 -6.933,0.224 -10.4,0.975 l 1.95,-2.925 c -19.328,-7.497 -45.878,1.679 -51.351,4.876 1.606,1.78 10.369,-0.993 11.151,1.048 -3.743,-9.101 -22.127,13.701 -33.578,4.152 -4.807,-4.008 -14.81,-13.065 -25.025,-14.301 16.132,-7.084 21.732,1.242 29.9,6.501 5.25,3.379 12.55,-2.284 16.576,-4.55 0.935,-2.367 -0.86,-3.643 -1.95,-5.2 18.62,-6.092 37.063,-7.876 55.252,-3.575 l 8.774,1.95 c -2.317,0.586 -3.023,0.748 -2.764,2.274 0.248,1.455 2.127,3.307 -0.438,5.639 -1.054,0.956 -0.226,1.942 1.903,3.136 z" />
			<path
   id="path6834"
   sodipodi:nodetypes="cc"
   fill="#ffffff"
   stroke="#000000"
   stroke-width="2.38371"
   d="m 248.176,246.252 c 3.347,7.347 3.424,7.029 2.925,6.338" />
			<path
   id="path9491"
   sodipodi:nodetypes="csssss"
   fill="#ffffff"
   stroke="#000000"
   stroke-width="2.38371"
   d="m 176.467,278.422 c 68.177,9.9 204.613,31.951 273.75,41.799 2.952,0.42 7.207,2.198 5.056,7.354 -1.143,2.737 -0.893,6.784 -11.031,4.595 -68.797,-14.853 -201.799,-33.764 -268.425,-46.882 -6.598,-1.298 -2.667,-7.348 0.65,-6.866 z" />
			
				<path
   id="path9493"
   sodipodi:nodetypes="cssscssccccccccccccccccccccccccccc"
   fill="#ffffff"
   stroke="#000000"
   stroke-width="2.38371"
   d="m 189.999,279.74 c -3.574,-0.705 -6.587,9.682 -8.496,14.096 -16.586,38.335 -12.913,54.623 -10.679,78.033 3.636,38.11 25.218,65.483 45.177,89.703 33.847,41.073 57.677,59.186 78.327,68.576 -17.863,-48.728 -10.131,-65.236 -0.976,-84.501 15.031,-31.631 39.225,-57.087 67.276,-75.403 27.536,-17.979 57.788,-37.662 76.703,-38.35 -2.136,-5.75 -1.907,-12.18 3.901,-13.825 l -13.326,-2.925 c -5.534,0.467 -6.091,8.607 -6.176,14.476 -7.321,2.379 -32.408,6.766 -30.93,-5.525 0.324,-7.876 4.548,-12.958 8.776,-12.851 l -10.051,-1.649 c -6.757,-0.072 -7.202,7.555 -9.45,13.199 -10.396,8.265 -25.225,6.591 -30.496,-6.499 0.157,-8.158 3.071,-9.932 6.174,-11.876 l -8.451,-1.625 c -7.785,-0.638 -7.866,8.604 -11.049,14.475 -10.12,3.464 -23.616,1.14 -28.732,-4.55 -0.093,-4.709 0.736,-13.108 5.525,-13.626 l -9.8,-2.299 c -4.011,-1.702 -7.392,7.51 -9.949,12.675 -20.874,4.858 -23.777,-1.424 -31.899,-4.55 -3.779,-5.587 -0.583,-9.78 4.224,-13.65 l -8.435,-1.625 c -6.38,-1.067 -6.144,8.576 -9.799,13.975 -5.929,1.827 -15.883,1.42 -18.744,-4.075 -0.489,-4.779 -1.164,-11.038 6.477,-13.475 -3.186,-0.65 -5.376,-0.975 -9.426,-1.625 -3.737,0.467 -6.072,5.37 -7.15,13.975 -14.864,2.023 -20.417,-0.23 -22.047,-5.525 -0.727,-5.486 2.484,-12.257 5.2,-11.526 z" />
			<path
   id="path6800"
   sodipodi:nodetypes="ccccc"
   fill="#ffffff"
   stroke="#000000"
   stroke-width="2.38371"
   d="m 393.683,442.416 88.646,-3.61 -6.371,9.193 -72.163,3.61 z" />
			<path
   id="path6814"
   fill="none"
   stroke="#000000"
   stroke-width="2.38371"
   d="M 134.451,434.669 299.458,283.451 147.32,434.669" />
			<path
   id="path6816"
   fill="#ffffff"
   stroke="#000000"
   stroke-width="2.38371"
   d="M 298.998,283.91 160.648,435.13" />
			<path
   id="path10380"
   fill="#ffffff"
   stroke="#000000"
   stroke-width="2.38371"
   d="m 422.056,407.619 17.875,-2.275" />
			<path
   id="path10382"
   fill="#ffffff"
   stroke="#000000"
   stroke-width="2.38371"
   d="m 134.424,433.619 13.326,0.65" />
			<path
   id="path10384"
   sodipodi:nodetypes="cc"
   fill="#ffffff"
   stroke="#000000"
   stroke-width="2.38371"
   d="m 288.152,320.516 c -15.036,20.283 -24.584,46.051 -31.851,74.102" />
			<path
   id="path10386"
   sodipodi:nodetypes="cc"
   fill="#ffffff"
   stroke="#000000"
   stroke-width="2.38371"
   d="m 218.925,402.419 c 1.337,43.408 30.079,75.85 56.552,109.202" />
			<path
   id="path10388"
   sodipodi:nodetypes="cc"
   fill="#ffffff"
   stroke="#000000"
   stroke-width="2.38371"
   d="m 257.277,421.595 c -7.842,37.407 10.253,73.764 32.5,100.752" />
			<path
   id="path3431"
   sodipodi:nodetypes="ccsc"
   fill="#ffffff"
   stroke="#000000"
   stroke-width="2.38371"
   d="m 430.282,432.258 16.73,-1.016 c 1.091,-12.99 -0.497,-20.23 -9.264,-19.084 -9.144,1.194 -8.5,7.984 -7.466,20.1 z" />
			<path
   id="path3433"
   sodipodi:nodetypes="ccsc"
   fill="#ffffff"
   stroke="#000000"
   stroke-width="2.38371"
   d="m 458.019,430.824 16.871,-1.025 c 1.101,-13.1 -0.501,-20.4 -9.342,-19.247 -9.223,1.206 -8.573,8.051 -7.529,20.272 z" />
		</g>
	</g></svg>
