<?xml version="1.0" encoding="UTF-8" standalone="no"?>
<svg
   xmlns:dc="http://purl.org/dc/elements/1.1/"
   xmlns:cc="http://creativecommons.org/ns#"
   xmlns:rdf="http://www.w3.org/1999/02/22-rdf-syntax-ns#"
   xmlns:svg="http://www.w3.org/2000/svg"
   xmlns="http://www.w3.org/2000/svg"
   xmlns:sodipodi="http://sodipodi.sourceforge.net/DTD/sodipodi-0.dtd"
   xmlns:inkscape="http://www.inkscape.org/namespaces/inkscape"
   style="isolation:isolate"
   viewBox="0 0 899.99998 599.99997"
   width="900pt"
   height="600pt"
   version="1.1"
   id="svg872"
   sodipodi:docname="Drapeau fr deÌpartement Tarn.svg"
   inkscape:version="1.0.1 (c497b03c, 2020-09-10)">
  <metadata
     id="metadata876">
    <rdf:RDF>
      <cc:Work
         rdf:about="">
        <dc:format>image/svg+xml</dc:format>
        <dc:type
           rdf:resource="http://purl.org/dc/dcmitype/StillImage" />
      </cc:Work>
    </rdf:RDF>
  </metadata>
  <sodipodi:namedview
     pagecolor="#ffffff"
     bordercolor="#666666"
     borderopacity="1"
     objecttolerance="10"
     gridtolerance="10"
     guidetolerance="10"
     inkscape:pageopacity="0"
     inkscape:pageshadow="2"
     inkscape:window-width="1920"
     inkscape:window-height="1080"
     id="namedview874"
     showgrid="false"
     inkscape:zoom="0.59415896"
     inkscape:cx="531.97339"
     inkscape:cy="352.45785"
     inkscape:window-x="0"
     inkscape:window-y="0"
     inkscape:window-maximized="0"
     inkscape:current-layer="svg872" />
  <defs
     id="defs836" />
  <rect
     x="0"
     y="-2.220446e-16"
     width="900"
     height="600"
     fill="#d4001c"
     id="rect838"
     style="stroke-width:1.12894;fill:#fddd00;fill-opacity:1" />
  <path
     id="rect894"
     style="fill:#d4001c;stroke-width:0.869059"
     d="M 0 0 L 0 266.66602 L 466.66602 266.66602 L 466.66602 800 L 733.33398 800 L 733.33398 266.66602 L 1200 266.66602 L 1200 0 L 0 0 z "
     transform="scale(0.74999997)" />
  <g
     id="g868"
     transform="matrix(0.46636858,0,0,0.46636858,263.92824,-0.5931673)">
    <g
       id="g866">
      <path
         d="m 183.175,267 9.125,7.138 c 14.633,11.443 38.502,35.909 45.015,77.3 l 1.722,10.924 8.36,-7.312 c 14.038,-12.277 55.754,-44.434 116.757,-53.224 -8.792,61.003 -40.948,102.718 -53.224,116.756 l -7.312,8.361 10.924,1.721 c 41.392,6.515 65.857,30.383 77.301,45.015 l 7.137,9.126 7.138,-9.126 c 11.442,-14.632 35.907,-38.5 77.299,-45.015 l 10.924,-1.721 -7.312,-8.361 c -12.276,-14.038 -44.432,-55.753 -53.224,-116.756 61.003,8.79 102.719,40.947 116.756,53.224 l 8.361,7.312 1.721,-10.924 c 6.514,-41.391 30.383,-65.857 45.014,-77.3 l 9.127,-7.138 -9.127,-7.138 c -14.631,-11.443 -38.5,-35.908 -45.014,-77.299 l -1.721,-10.925 -8.361,7.312 c -14.037,12.277 -55.753,44.434 -116.756,53.225 8.792,-61.003 40.948,-102.719 53.224,-116.756 l 7.312,-8.362 -10.924,-1.72 C 442.025,98.821 417.56,74.953 406.118,60.321 l -7.138,-9.126 -7.137,9.126 c -11.444,14.632 -35.909,38.5 -77.301,45.016 l -10.924,1.72 7.312,8.362 c 12.276,14.037 44.432,55.753 53.224,116.756 -61.003,-8.791 -102.719,-40.948 -116.757,-53.225 l -8.36,-7.312 -1.722,10.925 c -6.513,41.391 -30.382,65.856 -45.015,77.299 z m 35.125,0 c 27.829,-25.798 34.256,-54.425 34.256,-54.425 40.625,34.242 103.986,41.96 135.664,43.666 -1.707,-31.679 -9.424,-95.039 -43.665,-135.666 0,0 28.625,-6.425 54.425,-34.255 25.799,27.83 54.424,34.255 54.424,34.255 -34.241,40.627 -41.958,103.987 -43.665,135.666 31.678,-1.706 95.039,-9.424 135.665,-43.666 0,0 6.425,28.627 34.255,54.425 -27.83,25.799 -34.255,54.425 -34.255,54.425 -40.626,-34.242 -103.987,-41.96 -135.665,-43.666 1.707,31.679 9.424,95.039 43.665,135.666 0,0 -28.625,6.425 -54.424,34.255 -25.8,-27.83 -54.425,-34.255 -54.425,-34.255 34.241,-40.627 41.958,-103.987 43.665,-135.666 -31.678,1.706 -95.039,9.424 -135.664,43.666 0,0 -6.427,-28.626 -34.256,-54.425 z"
         fill="#fddd00"
         id="path840" />
      <circle
         vector-effect="non-scaling-stroke"
         cx="175.7545"
         cy="267"
         r="18"
         fill="#fddd00"
         id="circle842" />
      <circle
         vector-effect="non-scaling-stroke"
         cx="236.5545"
         cy="164.576"
         r="18"
         fill="#fddd00"
         id="circle844" />
      <circle
         vector-effect="non-scaling-stroke"
         cx="236.5545"
         cy="369.42499"
         r="18"
         fill="#fddd00"
         id="circle846" />
      <circle
         vector-effect="non-scaling-stroke"
         cx="296.55551"
         cy="104.575"
         r="18"
         fill="#fddd00"
         id="circle848" />
      <circle
         vector-effect="non-scaling-stroke"
         cx="296.55551"
         cy="429.42599"
         r="18"
         fill="#fddd00"
         id="circle850" />
      <circle
         vector-effect="non-scaling-stroke"
         cx="398.97949"
         cy="43.774399"
         r="18"
         fill="#fddd00"
         id="circle852" />
      <circle
         vector-effect="non-scaling-stroke"
         cx="398.97949"
         cy="490.22601"
         r="18"
         fill="#fddd00"
         id="circle854" />
      <circle
         vector-effect="non-scaling-stroke"
         cx="501.4035"
         cy="104.575"
         r="18"
         fill="#fddd00"
         id="circle856" />
      <circle
         vector-effect="non-scaling-stroke"
         cx="501.4035"
         cy="429.42599"
         r="18"
         fill="#fddd00"
         id="circle858" />
      <circle
         vector-effect="non-scaling-stroke"
         cx="561.40448"
         cy="164.576"
         r="18"
         fill="#fddd00"
         id="circle860" />
      <circle
         vector-effect="non-scaling-stroke"
         cx="561.40448"
         cy="369.42499"
         r="18"
         fill="#fddd00"
         id="circle862" />
      <circle
         vector-effect="non-scaling-stroke"
         cx="622.20551"
         cy="267"
         r="18"
         fill="#fddd00"
         id="circle864" />
    </g>
  </g>
</svg>
