<?xml version="1.0" encoding="UTF-8" standalone="no"?>
<svg
   xmlns:dc="http://purl.org/dc/elements/1.1/"
   xmlns:cc="http://creativecommons.org/ns#"
   xmlns:rdf="http://www.w3.org/1999/02/22-rdf-syntax-ns#"
   xmlns:svg="http://www.w3.org/2000/svg"
   xmlns="http://www.w3.org/2000/svg"
   xmlns:xlink="http://www.w3.org/1999/xlink"
   xmlns:sodipodi="http://sodipodi.sourceforge.net/DTD/sodipodi-0.dtd"
   xmlns:inkscape="http://www.inkscape.org/namespaces/inkscape"
   inkscape:version="1.0.1 (c497b03c, 2020-09-10)"
   sodipodi:docname="Drapeau_fr deÌpartement_Loire.svg"
   id="svg2"
   height="533.33331"
   width="800"
   version="1.0">
  <metadata
     id="metadata114">
    <rdf:RDF>
      <cc:Work
         rdf:about="">
        <dc:format>image/svg+xml</dc:format>
        <dc:type
           rdf:resource="http://purl.org/dc/dcmitype/StillImage" />
      </cc:Work>
    </rdf:RDF>
  </metadata>
  <sodipodi:namedview
     inkscape:current-layer="svg2"
     inkscape:window-maximized="0"
     inkscape:window-y="25"
     inkscape:window-x="0"
     inkscape:cy="243.47909"
     inkscape:cx="400.89222"
     inkscape:zoom="0.98994949"
     showgrid="false"
     id="namedview112"
     inkscape:window-height="942"
     inkscape:window-width="1920"
     inkscape:pageshadow="2"
     inkscape:pageopacity="0"
     guidetolerance="10"
     gridtolerance="10"
     objecttolerance="10"
     borderopacity="1"
     inkscape:document-rotation="0"
     bordercolor="#666666"
     pagecolor="#ffffff" />
  <defs
     id="defs6">
    <g
       id="b">
      <path
         id="a"
         d="M0 0v1h.5L0 0z"
         transform="rotate(18 3.15687723 -.49999528)" />
      <use
         width="810"
         height="540"
         transform="scale(-1 1)"
         xlink:href="#a"
         id="use697" />
    </g>
    <g
       id="e">
      <path
         id="d"
         d="M0 0v1h.5L0 0z"
         transform="rotate(18 3.15687723 -.49999528)" />
      <use
         width="810"
         height="540"
         transform="scale(-1 1)"
         xlink:href="#d"
         id="use706" />
    </g>
    <g
       id="h">
      <path
         id="g"
         d="M0 0v1h.5L0 0z"
         transform="rotate(18 3.15687723 -.49999528)" />
      <use
         width="810"
         height="540"
         transform="scale(-1 1)"
         xlink:href="#g"
         id="use715" />
    </g>
    <g
       id="k">
      <path
         id="j"
         d="M0 0v1h.5L0 0z"
         transform="rotate(18 3.15687723 -.49999528)" />
      <use
         width="810"
         height="540"
         transform="scale(-1 1)"
         xlink:href="#j"
         id="use724" />
    </g>
    <g
       id="n">
      <path
         id="m"
         d="M0 0v1h.5L0 0z"
         transform="rotate(18 3.15687723 -.49999528)" />
      <use
         width="810"
         height="540"
         transform="scale(-1 1)"
         xlink:href="#m"
         id="use733" />
    </g>
    <g
       id="q">
      <path
         id="p"
         d="M0 0v1h.5L0 0z"
         transform="rotate(18 3.15687723 -.49999528)" />
      <use
         width="810"
         height="540"
         transform="scale(-1 1)"
         xlink:href="#p"
         id="use742" />
    </g>
    <g
       id="t">
      <path
         id="s"
         d="M0 0v1h.5L0 0z"
         transform="rotate(18 3.15687723 -.49999528)" />
      <use
         width="810"
         height="540"
         transform="scale(-1 1)"
         xlink:href="#s"
         id="use751" />
    </g>
    <g
       id="w">
      <path
         id="v"
         d="M0 0v1h.5L0 0z"
         transform="rotate(18 3.15687723 -.49999528)" />
      <use
         width="810"
         height="540"
         transform="scale(-1 1)"
         xlink:href="#v"
         id="use760" />
    </g>
    <g
       id="z">
      <path
         id="y"
         d="M0 0v1h.5L0 0z"
         transform="rotate(18 3.15687723 -.49999528)" />
      <use
         width="810"
         height="540"
         transform="scale(-1 1)"
         xlink:href="#y"
         id="use769" />
    </g>
    <g
       id="D">
      <path
         id="C"
         d="M0 0v1h.5L0 0z"
         transform="rotate(18 3.15687723 -.49999528)" />
      <use
         width="810"
         height="540"
         transform="scale(-1 1)"
         xlink:href="#C"
         id="use778" />
    </g>
    <g
       id="G">
      <path
         id="F"
         d="M0 0v1h.5L0 0z"
         transform="rotate(18 3.15687723 -.49999528)" />
      <use
         width="810"
         height="540"
         transform="scale(-1 1)"
         xlink:href="#F"
         id="use787" />
    </g>
    <g
       id="J">
      <path
         id="I"
         d="M0 0v1h.5L0 0z"
         transform="rotate(18 3.15687723 -.49999528)" />
      <use
         width="810"
         height="540"
         transform="scale(-1 1)"
         xlink:href="#I"
         id="use796" />
    </g>
    <g
       id="N">
      <path
         id="M"
         d="M0 0v1h.5L0 0z"
         transform="rotate(18 3.15687723 -.49999528)" />
      <use
         width="810"
         height="540"
         transform="scale(-1 1)"
         xlink:href="#M"
         id="use805" />
    </g>
    <g
       id="Q">
      <path
         id="P"
         d="M0 0v1h.5L0 0z"
         transform="rotate(18 3.15687723 -.49999528)" />
      <use
         width="810"
         height="540"
         transform="scale(-1 1)"
         xlink:href="#P"
         id="use814" />
    </g>
    <g
       id="T">
      <path
         id="S"
         d="M0 0v1h.5L0 0z"
         transform="rotate(18 3.15687723 -.49999528)" />
      <use
         width="810"
         height="540"
         transform="scale(-1 1)"
         xlink:href="#S"
         id="use823" />
    </g>
    <g
       id="X">
      <path
         id="W"
         d="M0 0v1h.5L0 0z"
         transform="rotate(18 3.15687723 -.49999528)" />
      <use
         width="810"
         height="540"
         transform="scale(-1 1)"
         xlink:href="#W"
         id="use832" />
    </g>
  </defs>
  <path
     inkscape:connector-curvature="0"
     id="rect1698"
     style="fill:#e20909;fill-opacity:1;stroke:none;stroke-width:1.51083;stroke-linecap:round;stroke-linejoin:round;stroke-miterlimit:4;stroke-dasharray:none"
     d="M 3.0793619e-6,3.20319e-6 V 533.33332 H 799.99998 V 3.20319e-6 Z"
     sodipodi:nodetypes="ccccc" />
  <g
     id="g1051"
     transform="matrix(0.71428282,0,0,0.71428282,57.444155,202.34044)">
    <path
       fill="#e20909"
       stroke-width="3"
       d="m 612.63954,314.92439 c -55.53136,-32.22928 -25.67712,-114.30331 -26.65633,-165.34704 -7.45546,11.70959 -16.87083,21.94842 -26.91447,31.45912 -3.00719,5.3399 -72.01584,62.0606 -55.25403,59.38959 31.30493,-10.63607 32.29907,17.80877 41.93759,20.21482 41.65172,-9.25768 22.51122,35.02829 57.18045,57.653 1.83303,2.50077 21.15909,2.62963 9.70679,-3.36949 z"
       id="path857"
       style="fill:#ffff00;stroke:#000000;stroke-linecap:round;stroke-linejoin:round" />
    <path
       fill="#2b5df2"
       stroke-width="3"
       d="m 320.68922,-63.690112 c 24.24991,-1.150031 48.15207,4.122582 71.71717,9.144606 24.4099,16.717109 59.67434,13.750189 78.64418,38.970818 27.91075,29.159311 45.03096,70.348865 39.07462,111.013602 -2.60419,21.410806 -8.6352,42.311726 -15.14814,62.743296 -6.87688,24.20769 -70.31981,58.80504 -58.18099,60.92564 51.56331,-4.82234 102.13461,-51.79469 53.13133,23.05992 -4.9959,8.69275 -12.21476,20.86422 -0.43633,7.75064 31.994,-30.93644 67.87498,-58.5917 94.82571,-94.23868 22.06748,-34.86616 38.31942,-74.167651 40.38664,-115.760418 1.85679,-42.0962484 -19.96633,-76.537858 -43.81495,-108.899403 -39.14502,-43.924569 -141.19429,-113.897959 -203.96841,-95.501649 -15.95732,4.49998 -34.68204,17.92781 -27.52888,36.81608 5.02833,24.86265 -34.02922,15.3976 -49.10355,11.95259 -4.37488,22.198026 29.95238,25.649867 46.19791,26.663232 13.89714,0.0085 44.14989,10.074982 42.57334,18.337 -20.7273,-0.546812 -42.79947,-7.594264 -62.78905,-2.148974 -2.47905,2.639528 -4.20166,5.875128 -5.5806,9.1717 z"
       id="path859"
       style="fill:#ffff00;stroke:#000000;stroke-linecap:round;stroke-linejoin:round" />
    <path
       fill="#e20909"
       stroke-width="3"
       d="m 510.49426,356.05634 c -67.24137,2.21148 -49.13341,-75.27062 -20.03097,-102.27306 14.66408,-13.60662 37.31887,-85.44907 18.20247,-67.85066 -93.87637,80.12197 -139.21881,-36.66888 -211.18557,-45.88943 -29.32944,12.07931 17.11957,4.25741 20.90522,20.88854 19.71288,17.49836 -13.64519,48.25538 17.90443,55.03106 8.35446,42.58053 95.04333,31.11137 97.72069,33.85705 -17.32267,15.24016 -40.43144,17.28353 -62.08931,21.10466 -27.18754,9.91498 23.46056,7.4652 30.93372,19.71689 14.90579,8.92166 15.44724,40.7778 38.07835,24.94371 17.168,14.91631 22.28507,42.70853 46.44751,49.93009 7.44927,9.52457 46.34149,-6.0612 23.11346,-9.45885 z M 667.08289,99.47232 C 654.831,89.617079 644.02553,77.692439 637.16038,63.443461 633.58764,57.842006 628.871,52.944999 627.03225,46.36026 c -1.16409,-3.119671 -2.32988,-9.095751 -2.51992,-2.509305 -1.94612,19.755498 -7.30036,39.497768 -14.18386,58.184215 -1.40061,6.75435 -4.51035,12.74088 -6.69235,18.71846 6.51635,-1.90562 14.23634,-8.1018 19.17848,0.009 4.38085,4.07799 9.06742,8.86193 10.8428,13.92406 4.40262,-4.00951 4.44592,-11.36142 5.29244,-17.06357 -0.68338,-6.42324 2.15491,-12.1463 8.69387,-13.84577 6.26376,-5.099678 13.94897,0.95892 20.92869,1.07654 6.36765,0.86893 0.002,-4.09613 -1.48949,-5.380225 z"
       id="path861"
       style="fill:#ffff00;stroke:#000000;stroke-linecap:round;stroke-linejoin:round" />
    <path
       fill="#e20909"
       stroke-width="3"
       d="m 473.65845,179.09081 c 3.56442,13.00563 13.78748,-2.03181 18.27948,-6.85291 14.97832,-10.93943 28.26702,-71.66517 18.66349,-106.281721 -14.74002,62.540621 -17.19936,66.446881 -70.34541,93.067441 37.3914,2.74483 14.74216,5.17734 33.40244,20.06719 z M 458.03494,-29.1717 c -15.55134,-12.865469 -38.81649,-11.748847 -57.36818,-20.603097 19.14221,21.255704 34.97643,29.003573 23.79549,60.249349 23.5715,2.624936 11.06958,-31.747125 19.23246,-35.796318 15.12595,17.5992696 16.64085,40.12072 9.31553,61.313916 32.61907,-7.944995 23.90878,-49.538828 5.0247,-65.16385 z m -71.16889,-137.45496 c 17.66337,-1.58117 35.04257,-6.15102 52.46359,-9.30632 8.97867,0.0631 17.43723,-9.9105 22.22961,-11.61828 3.46244,7.51362 -19.15309,18.16377 -2.74094,18.93179 20.47471,1.90299 42.03572,-4.9593 56.49351,-19.82462 19.23736,8.88028 -31.79134,24.42316 -15.14771,31.55512 26.9486,9.64489 54.09774,17.52545 77.23616,-4.33358 10.43405,19.81118 -33.77109,27.06005 -44.85603,30.19188 30.47505,26.52456 63.6424,81.227072 108.76296,51.425607 -14.17212,32.609019 -62.45198,15.76412 -82.37116,-2.067563 -7.66175,-7.396071 -9.64364,3.453975 -3.3338,7.844725 7.8273,10.957569 -9.53783,2.249671 -10.48397,-3.733876 -3.50362,-18.630556 -24.28831,5.697031 -18.69378,-6.106218 13.19099,-22.968185 -27.81475,-46.096375 -18.65325,-27.781135 13.57777,15.445816 -29.31237,42.117583 -36.58499,30.317748 58.09353,-64.629218 -42.59893,-79.255808 -84.32105,-85.491738 z"
       id="path863"
       style="fill:#ffff00;stroke:#000000;stroke-linecap:round;stroke-linejoin:round" />
    <path
       fill="none"
       stroke-width="3"
       d="m 483.03792,-60.810022 c 28.72142,19.808832 53.3788,48.630853 60.48929,83.52901 10.55416,42.932542 -5.4294,83.226072 -14.24359,124.415622 m 93.78805,-91.994342 c 13.70492,18.837069 8.27125,43.244018 8.45941,65.100702 m -308.23916,81.42121 c 32.58921,23.47807 80.78395,23.60607 119.99724,26.40296 m -29.73478,69.30136 c 11.28782,-18.9096 28.09422,-33.52638 42.93387,-49.50554 m -31.92573,56.11908 c 14.38098,-36.26566 65.64136,-66.193 78.16844,-101.21703 m 41.76906,51.82882 c 0.94734,-26.30055 11.65199,-53.66141 27.52461,-74.81193"
       id="path865"
       style="fill:#ffff00;stroke:#000000;stroke-linecap:round;stroke-linejoin:round" />
    <path
       fill="#e20909"
       fill-rule="evenodd"
       stroke-width="3"
       d="m 449.45883,-117.32379 c 9.93037,18.955261 6.89609,39.849781 -16.25791,53.531275 10.44472,-2.597841 29.97158,-15.694571 32.29481,-30.490553 0.0702,-11.419022 -5.55847,-17.162132 -16.0369,-23.040722 z"
       id="path867"
       style="fill:#ffff00;stroke:#000000;stroke-linecap:round;stroke-linejoin:round" />
    <ellipse
       cx="402.55695"
       cy="-118.47434"
       stroke-width="3.00001"
       rx="11.011235"
       ry="9.900651"
       id="ellipse869"
       style="fill:#ffff00;stroke:#000000;stroke-linecap:round;stroke-linejoin:round" />
    <ellipse
       cx="398.70111"
       cy="-121.21637"
       fill="#000000"
       stroke-width="3.00001"
       id="circle871"
       style="fill:#ffff00;stroke:#000000;stroke-linecap:round;stroke-linejoin:round"
       rx="3.8520789"
       ry="3.8498418" />
    <path
       fill="#000000"
       d="m 370.85343,-122.44953 c 24.35501,-6.27728 61.48752,-22.79582 76.12273,20.67159 -20.03234,-39.10842 -44.79604,-21.32866 -76.12273,-20.67159 z"
       id="path873"
       style="fill:#ffff00;stroke:#000000;stroke-width:3.00001;stroke-linecap:round;stroke-linejoin:round" />
  </g>
</svg>
