<?xml version="1.0" encoding="UTF-8"?>
<svg xmlns="http://www.w3.org/2000/svg" xmlns:xlink="http://www.w3.org/1999/xlink" width="1200" height="800">
	<rect width="1200" height="800" fill="#e20909"/>
	<g id="lion" fill="#2b5df2" stroke="#000" stroke-width=".8">
		<path d="M 251.367,59.318 L 280.371,35.962 L 271.527,66.705 L 271.474,80.214 L 204.507,80.02 L 204.59,67.259 L 194.263,36.639 L 224.752,59.268 L 238.018,37.382 z"/>
		<path d="M 204.441,70.984 L 271.681,71.01"/>
		<path d="M 90.148,163.631 C 83.708,173.967 67.834,171.801 62.763,164.74 C 62.763,164.74 72.943,164.362 76.536,160.062 C 81.411,154.227 82.334,153.708 83.049,154.979 z"/>
		<path d="M 75.063,138.562 C 68.145,133.158 59.802,133.777 56.428,142.556 C 52.324,124.975 69.85,118.862 84.824,125.474 z"/>
		<path d="M 87.043,114.16 C 83.415,104.234 80.91,93.841 65.302,95.525 C 65.302,95.525 70.855,90.608 82.162,91.975 C 93.414,93.336 101.613,107.276 101.019,107.504 z"/>
		<path d="M 112.776,108.17 C 118.481,103.654 118.937,93.907 118.544,86.208 C 118.544,86.208 124.589,91.476 126.087,98.853 C 127.584,106.229 124.534,115.713 124.534,115.713 z"/>
		<path d="M 148.049,195.798 L 140.285,191.971 C 143.101,188.972 139.886,186.576 136.957,184.151 C 135.218,181.27 126.442,183.852 122.934,185.097 C 126.53,175.865 124.775,170.743 115.33,177.586 C 116.916,168.819 115.705,164.825 109.217,171.504 C 111.384,164.607 105.945,162.306 103.348,162.965 C 102.12,164.399 98.666,157.621 94.585,162.965 C 94.585,162.965 91.036,169.066 87.043,167.402 C 71.318,161.263 73.807,156.621 83.049,150.986 C 85.925,149.232 80.276,144.109 77.282,141.668 C 74.287,139.228 69.961,141.89 70.737,136.122 C 71.047,125.678 75.037,112.219 86.155,123.921 C 86.155,123.921 90.453,123.144 89.663,120.621 C 88.873,118.097 82.994,113.827 85.268,110.832 C 97.275,95.456 104.375,101.083 105.788,111.276 C 109.282,111.997 109.92,103.345 115.438,105.508 C 124.747,108.708 133.048,114.012 123.502,123.021 C 122.114,125.907 122.361,121.449 131.34,129.71 C 137.565,143.244 149.162,158.747 163.456,168.229 C 169.402,172.99 176.541,167.467 180.48,170.652 C 184.419,173.837 186.872,175.832 186.872,175.832 z" fill="#fcef3c"/>
		<path d="M 104.575,358.648 C 105.434,346.947 93.082,342.098 81.829,340.295 C 95.783,331.739 108.362,333.836 114.457,345.157 z"/>
		<path d="M 98.614,376.217 C 88.296,367.197 81.495,376.3 72.574,380.296 C 72.574,380.296 78.378,366.531 85.437,362.256 C 92.496,357.981 100.81,363.197 100.81,363.197 z"/>
		<path d="M 106.457,392.06 C 102.289,394.002 98.719,398.34 97.045,410.257 C 94.512,403.186 84.051,389.628 100.691,385.981 z"/>
		<path d="M 130.301,393.943 C 126.751,397.561 126.426,402.561 128.732,408.688 C 123.005,406.865 112.3,398.067 122.457,392.06 z"/>
		<path d="M 179.544,295.193 C 166.5,289.822 154.773,292.169 143.223,304.56 C 153.947,304.118 163.691,300.846 161.65,302.303 C 154.603,307.336 152.046,312.933 152.046,312.933 C 152.046,312.933 166.346,333.894 159.136,343.544 C 148.312,346.78 134.379,370.084 118.766,346.534 C 115.577,333.661 106.942,346.154 103.226,353.303 C 100.721,359.647 109.452,359.974 109.452,359.974 L 106.783,362.173 C 98.588,354.761 95.643,368.821 95.369,375.168 C 95.48,379.938 101.471,379.047 101.471,379.047 L 102.806,383.914 C 94.963,386.721 102.923,393.335 107.228,395.23 C 109.641,396.006 110.885,391.475 110.885,391.475 L 120.545,389.696 C 120.545,389.696 118.096,392.787 121.978,394.118 C 127.367,396.221 136.298,397.106 133.417,388.905 C 136.415,388.021 141.938,383.273 142.499,386.383 C 143.051,389.435 145.865,392.744 152.205,395.341 C 151.614,390.497 152.469,380.701 156.993,383.047 C 160.901,385.074 163.794,393.898 173.179,394.277 C 170.606,389.956 164.741,381.463 173.625,380.355 C 176.053,380.053 178.506,379.791 180.988,379.568 C 193.093,378.479 205.856,378.348 219.494,379.492 C 218.169,378.137 214.106,372.335 212.609,369.846 C 211.101,367.341 225.959,376.357 225.959,376.357 C 223.749,366.981 205.77,352.693 205.77,355.537 C 205.77,362.722 198.815,339.042 204.799,333.985 C 212.981,327.07 228.221,335.934 235.01,339.467 C 238.284,335.842 243.452,330.036 241.36,326.027 C 237.306,318.26 230.831,308.573 227.549,297.639 C 211.732,295.216 195.514,292.931 179.544,295.193 z" fill="#fcef3c"/>
		<path d="M 74.927,213.703 C 72.991,208.619 64.818,202.286 56.728,199.526 C 67.272,191.394 76.272,194.201 82.965,206.192 z"/>
		<path d="M 66.456,232.37 C 58.378,226.778 52.298,233.179 45.75,236.763 C 45.75,236.763 51.405,226.742 57.209,222.683 C 62.843,218.742 68.966,222.017 68.966,222.017 z"/>
		<path d="M 71.946,251.351 C 66.252,251.406 60.191,252.784 51.867,262.332 C 51.867,262.332 51.593,254.685 55.789,249.469 C 59.985,244.253 68.652,241.469 68.652,241.469 z"/>
		<path d="M 79.696,258.925 C 79.954,262.22 78.81,264.673 70.709,269.33 C 78.969,271.453 86.847,268.079 89.933,260.917 z"/>
		<path d="M 242.303,457.903 C 245.071,459.678 242.901,464.798 237.379,472.376 C 242.242,470.585 257.511,467.596 251.088,457.276 z"/>
		<path d="M 221.988,454.571 C 221.638,462.71 213.963,462.323 205.36,465.865 C 215.884,470.048 227.483,472.26 232.264,460.454 z"/>
		<path d="M 220.342,451.984 C 213.446,448.099 202.657,451.843 193.361,453.238 C 199.319,444.294 209.171,431.514 222.538,444.454 z"/>
		<path d="M 225.675,433.473 C 222.798,418.839 210.829,418.772 199.949,419.669 C 205.34,409.488 228.157,405.926 231.323,419.355 z"/>
		<path d="M 229.986,322.923 C 218.122,335.976 232.005,336.51 240.448,337.635 C 243.667,334.005 243.255,329.658 241.36,326.027 C 224.979,294.536 224.934,254.25 229.986,322.923 z" fill="#fcef3c"/>
		<path d="M 176.106,193.781 C 176.106,193.781 143.321,211.903 121.516,216.452 C 99.712,221.001 87.633,210.409 87.633,210.409 C 87.633,210.409 88.731,203.664 83.241,204.448 C 77.75,205.232 73.986,208.997 71.946,212.919 C 70.927,214.88 74.378,216.056 75.26,217.997 C 76.142,219.939 73.456,223.136 73.456,223.136 C 73.456,223.136 68.809,215.586 66.299,219.507 C 63.789,223.429 61.122,228.292 62.848,233.625 C 63.711,236.292 66.927,233.39 69.299,234.527 C 71.672,235.665 71.319,239.9 71.319,239.9 C 71.319,239.9 65.358,237.782 66.299,242.096 C 67.24,246.41 66.927,250.881 70.378,253.704 C 73.829,256.528 75.397,250.253 75.397,250.253 L 80.731,254.645 C 80.731,254.645 77.123,257.783 80.103,260.293 C 83.084,262.802 86.535,258.719 89.515,258.719 C 92.496,258.719 91.711,252.758 91.711,252.758 C 94.225,249.733 97.256,247.742 101.437,248.052 C 107.998,250.497 107.537,255.048 105.829,259.974 C 114.201,260.193 120.332,255.932 127.163,253.072 C 132.321,253.856 135.953,253.07 132.183,259.346 C 142.123,260.014 153.086,257.828 162.929,254.327 C 162.799,257.534 163.54,258.205 163.713,262.797 C 175.008,246.065 178.844,245.547 190.139,249.312 C 196.067,271.844 226.576,276.492 227.54,282.135 C 228.861,289.87 230.833,317.04 241.362,326.02 C 229.736,343.459 223.072,351.088 232.47,373.237 C 235.137,367.832 239.476,365.771 244.499,365.079 C 240.156,377.967 266.766,383.215 268.384,390.178 C 270.045,397.326 254.577,410.71 247.981,420.924 C 242.18,428.105 233.327,419.469 231.95,415.277 C 226.302,416.113 218.851,430.273 221.657,435.616 C 224.451,434.713 233.22,433.614 226.93,442.885 C 221.922,438.684 217.049,439.236 218.666,451.961 C 219.45,455.173 222.389,453.181 222.389,453.181 L 223.644,455.123 C 222.477,455.872 221.346,454.797 221.836,456.772 C 222.579,459.769 229.455,465.579 232.162,461.82 C 233.205,460.373 233.524,459.535 233.566,459.542 L 239.057,458.491 C 240.343,458.245 238.787,462.685 239.625,462.898 C 252.039,464.499 254.064,462.496 254.654,460.154 C 254.787,454.393 257.77,452.566 260.901,455.751 C 272.278,435.541 289.371,418.031 295.952,417.787 C 293.228,408.831 298.57,409.176 305.991,409.63 C 305.991,409.63 316.735,404.815 307.246,398.335 C 305.715,397.29 304.193,395.457 302.758,393.169 C 301.276,390.806 309.582,393.922 315.828,394.308 C 312.769,391.077 307.876,387.956 306.175,386.778 C 301.453,383.507 297.193,378.137 296.783,377.212 C 295.893,375.202 302.884,381.038 310.356,384.895 C 315.36,387.478 321.791,391.054 331.715,390.069 C 325.061,385.949 318.283,383.415 313.628,379.395 C 304.836,371.8 292.071,362.571 292.459,362.096 C 290.465,344.802 275.983,341.4 288.422,324.294 C 314.714,368.341 365.349,386.319 369.208,326.961 C 369.479,299.97 357.947,291.591 355.561,283.509 C 351.935,271.225 366.637,256.204 369.365,252.136 C 361.812,253.776 353.914,254.23 344.894,268.45 C 344.098,243.877 353.769,236.959 359.032,226.672 C 347.797,232.294 339.308,241.462 333.541,250.233 C 332.999,225.899 353.008,200.149 354.306,195.664 C 339.78,205.021 326.965,215.747 320.737,231.743 C 307.436,194.645 343.3,175.264 373.894,145.975 C 407.959,108.72 372.566,93.669 344.01,106.849 C 340.002,108.698 322.8,94.923 315.82,100.474 C 321.408,102.992 328.011,109.602 324.695,107.81 C 298.62,119.637 300.081,163.991 301.599,175.901 C 305.064,162.102 325.467,117.29 333.282,118.783 C 332.348,124.933 326.492,133.389 329.161,147.765 C 334.816,138.716 340.376,117.637 348.65,114.503 C 371.381,105.89 392.101,113.845 366.542,139.505 L 327.639,175.898 C 308.876,193.45 303.848,212.103 314.462,242.096 C 325.77,274.052 359.384,299.003 358.855,320.216 C 357.934,389.079 300.51,333.185 293.285,302.49 C 288.47,282.031 264.853,265.195 257.049,242.724 C 249.245,220.252 258.931,224.213 258.617,211.037 C 258.304,197.86 255.794,190.016 255.794,190.016 z" fill="#fcef3c"/>
		<path d="M 229.687,133.682 C 228.49,137.046 198.909,141.096 181.769,139.894 C 158.513,138.262 165.283,127.139 168.459,123.477 C 171.486,119.987 180.26,128.493 190.585,132.293 C 202.565,136.701 224.794,130.55 229.687,133.682 z"/>
		<path d="M 222.145,123.477 C 218.365,119.459 210.939,119.255 203.399,120.26 C 202.136,118.537 196.609,110.38 182.435,115.935 C 177.327,109.456 176.469,99.231 182.657,95.303 C 188.318,91.71 198.608,93.372 199.739,92.641 C 206.361,88.358 203.493,83.163 217.93,80.218 C 232.461,77.254 254.506,78.947 257.862,82.88 C 271.856,72.85 283.936,70.26 281.599,90.866 C 280.636,96.791 266.501,93.096 270.738,100.689 C 270.738,100.689 265.43,115.491 269.619,125.03 C 272.483,131.551 279.404,136.291 284.469,141.182 C 288.767,145.332 291.52,150.113 291.52,150.698 C 282.525,147.875 266.226,145.922 271.838,151.429 C 281.869,153.61 287.524,160.723 288.896,169.96 C 283.725,166.604 274.835,163.508 277.162,167.624 C 278.829,170.574 284.32,176.573 284.114,185.985 C 281.532,183.725 276.958,184.934 273.137,183.935 C 269.673,183.029 283.675,199.534 283.235,212.333 C 270.017,204.477 266.277,195.251 259.858,191.805 C 260.471,202.503 267.456,220.297 267.844,217.539 C 253.772,214.195 250.008,208.416 243.869,203.279 C 243.706,208.182 245.772,218.62 237.24,234.176 C 233.365,224.967 227.203,220.836 223.783,213.546 C 222.873,217.35 214.029,234.45 206.722,240.144 C 202.674,229.507 205.115,218.74 208.027,213.986 C 193.804,215.352 192.104,231.997 179.995,235.508 C 181.823,228.011 182.754,222.867 185.541,215.32 C 172.353,216.153 160.127,227.287 142.947,224.859 C 151.84,218.863 156.512,211.177 153.595,200.457 C 146.288,195.975 136.921,196.424 125.643,194.245 C 137.389,190.447 196.038,184.196 171.187,167.624 C 186.045,167.916 208.224,171.61 209.943,153.87 C 204.954,148.578 196.744,152.988 189.756,150.986 C 186.81,150.142 183.628,145.583 185.027,144.539 C 187.01,140.349 189.023,140.965 195.05,143.597 C 200.776,143.026 218.954,142.683 224.807,141.668 C 228.388,135.11 226.884,128.514 222.145,123.477 z" fill="#fcef3c"/>
		<path d="M 232.891,94.328 C 232.894,95.888 230.224,97.153 226.93,97.153 C 223.637,97.153 220.967,95.888 220.969,94.328 C 220.967,92.768 223.637,91.502 226.93,91.502 C 230.224,91.502 232.894,92.768 232.891,94.328 z" fill="#fff"/>
		<path d="M 266.756,91.032 C 263.331,87.829 263.682,86.673 261.536,86.185 C 267.062,81.841 270.915,80.598 273.468,80.219" fill="none"/>
	</g>
	<use xlink:href="#lion" x="770"/>
	<use xlink:href="#lion" x="385" y="290"/>
</svg>