<svg preserveAspectRatio="xMinYMin meet" viewBox="0 0 527 137" xmlns="http://www.w3.org/2000/svg">

 <g>
  <title>Layer 1</title>
  <g id="svg_2">
   <g>
    <path fill="#be2e0d"  d="m169.93661,12.17015l-0.1,0l0,29c0,5.7 0,7.4 6.4,7.4l0,1.3l-15.7,0l0,-1.3c6.4,0 6.4,-1.7 6.4,-7.4l0,-27.7c0,-5.4 -0.7,-7.3 -6.4,-7.3l0,-1.2l12.7,0l16.3,35l16,-35l12.8,0l0,1.2c-6.4,0 -6.4,1.7 -6.4,7.4l0,27.6c0,5.7 0,7.4 6.4,7.4l0,1.3l-19.2,0l0,-1.3c6.4,0 6.4,-1.7 6.4,-7.4l0,-29l-0.1,0l-17.2,37.7l-1,0l-17.3,-37.7zm51.8,19.8c0,-10 6.9,-18.8 17.5,-18.8c10.7,0 17.6,8.8 17.6,18.8s-6.9,18.8 -17.6,18.8c-10.6,0 -17.5,-8.8 -17.5,-18.8zm29,0c0,-8 -2.6,-16.8 -11.5,-16.8s-11.5,8.6 -11.5,16.7s2.6,16.8 11.5,16.8c9,0 11.5,-8.7 11.5,-16.8l0,0.1zm17,11c0,4.6 0,6 5,6l0,1l-12.5,0l0,-1c5,0 5,-1.4 5,-6l0,-24.2c-1.9,-2.5 -3.4,-3.8 -7,-3.8l0,-1l9.7,0l21.8,26.8l0.1,0l0,-20c0,-4.5 0,-5.9 -5.1,-5.9l0,-1l12.5,0l0,1c-5,0 -5,1.4 -5,6l0,29.5l-1,0l-23.6,-28.8l0,21.4l0.1,0zm36.4,-22c0,-4.6 0,-6 -5,-6l0,-1l13.6,0c5,0 10.8,0.2 15,3c5,3.3 7.2,9 7.2,14.8c0,9.9 -6.4,18.2 -19.4,18.2l-16.7,0l0,-1c5.1,0 5.34,-1.4 5.3,-6c0.07,-5.47 0.01,-0.82 0,-22zm5.1,26.3c1.9,0.4 3.8,0.7 5.7,0.7c9.2,0 14.2,-7.3 14.2,-16c0,-8.9 -5,-16 -14.5,-16a20,20 0 0 0 -5.4,0.8l0,30.4l0,0.1zm39.2,-17l7.2,0c4.3,0 6,-0.5 6.3,-5.4l1,0l0,12.6l-1,0c-0.5,-4.8 -2,-5.3 -6.3,-5.3l-7.2,0l0,13c0,2.3 0.6,2.8 2.9,2.8l7.4,0c4.8,0 6.5,-2.2 9.3,-7l1,0l-3,9l-27.8,0l0,-1c5,0 5,-1.4 5,-6l0,-22c0,-4.6 0,-6 -5,-6l0,-1l27.5,0l0.5,8l-1,0c-1,-5.6 -2.6,-6 -7.7,-6l-9.1,0l0,14.2l0,0.1z"/>
    <path fill="#BE2E0D" box-shadow="5px 5px 15px 5px #FFFFFF" d="m184.03661,9.77015c0,0.8 0,1.4 0.7,1.4l2.2,0c1.3,0 2,-0.5 2.7,-2.3l0.2,0l-0.9,3l-7.8,0l0,-0.3c1.4,0 1.4,-0.4 1.4,-1.8l0,-6.8c0,-1.4 0,-1.8 -1.4,-1.8l0,-0.3l4.6,0l0,0.3c-1.7,0 -1.7,0.5 -1.7,2l0,6.6zm9.3,-4l2,0c1.3,0 1.7,0 1.8,-1.6l0.3,0l0,4l-0.3,0c0,-1.5 -0.5,-1.6 -1.7,-1.6l-2,0l0,4c0,0.7 0.1,0.8 0.8,0.8l2,0c1.4,0 1.9,-0.7 2.7,-2.1l0.3,0l-0.9,2.7l-7.8,0l0,-0.3c1.4,0 1.4,-0.4 1.4,-1.8l0,-6.9c0,-1.4 0,-1.8 -1.4,-1.8l0,-0.3l7.7,0l0.2,2.4l-0.3,0c-0.3,-1.7 -0.7,-1.8 -2.2,-1.8l-2.6,0l0,4.4l0,-0.1zm-156.6,97.9c-0.1,0.8 -1,3.8 -1,4.7c0,0.7 0.4,1.7 1.3,1.7c2.1,0 6,-5.1 7.3,-6.6l1.6,1c-3,4 -8.6,11.2 -14,11.2c-2.8,0 -4,-2.2 -4,-4.7c0,-3.1 1.5,-7.7 3.5,-13.6l-0.2,-0.2c-4.2,6.8 -12.1,18.5 -21,18.5c-6.6,0 -9.4,-7.3 -9.4,-12.9c0,-14.6 16,-33.6 28.9,-33.6c3.7,0 6.4,1.9 8.3,4.8l4.3,-15.1c1.5,-5.1 2.2,-7 2.2,-8.4c0,-2.4 -2.5,-2.8 -4.3,-2.8c-1,0 -2,0.2 -3.1,0.4l0,-2l16.3,-2.7l1,0l-17.5,60.3l-0.2,0zm-7.4,-32c-9.7,0 -20.2,19.5 -20.2,30.2c0,3.4 1.5,7.9 5.5,7.9c8.3,0 21.2,-21.3 21.2,-30.8c0,-4 -2.4,-7.3 -6.5,-7.3zm33,33.8c-0.3,1 -0.7,2.3 -0.7,3.3c0,0.9 0.5,1.3 1.4,1.3c2.4,0 6.3,-5 7.7,-7l1.7,1.2c-2.7,4.2 -9,11.4 -14.3,11.4c-2.9,0 -4.8,-1.7 -4.8,-4.7c0,-1.6 1.2,-5.4 1.6,-7l5.4,-19.3c1.5,-5.1 2.2,-7 2.2,-8.4c0,-2.3 -2.5,-2.8 -4.3,-2.8c-1,0 -2,0.2 -3,0.5l0,-2l16.1,-2.8l1,0l-10.1,36.3l0.1,0zm9.3,-56.1a5,5 0 0 1 5,5a5,5 0 0 1 -5,5a5,5 0 0 1 -5,-5a5,5 0 0 1 5,-5zm24,31.2l0.3,0.2c4.5,-5.8 10.4,-11.6 18.4,-11.6c6.5,0 10.4,6.2 10.4,12.7c0,13.2 -12.5,33.8 -29.8,33.8a15,15 0 0 1 -8.5,-2.5l-3.3,11.7c-0.5,1.7 -1.5,4.5 -1.5,6.2c0,3.4 4.6,3.4 7.6,3.4l-0.5,1.7l-23.5,0l0.5,-1.8c5.7,0 7.3,-1.2 9.4,-8.2l12,-41.6c1.4,-5.1 2.1,-7 2.1,-8.4c0,-2.3 -2.4,-2.8 -4.3,-2.8c-1,0 -2,0.2 -3,0.5l0,-2l16.2,-2.7l1,0l-3.4,11.4l-0.1,0zm-8.1,28.7a11,11 0 0 0 8.6,3.7c9.5,0 20.3,-17.1 20.3,-30.9c0,-4 -1.6,-8.5 -6.4,-8.5c-5.2,0 -13.8,5.7 -19,23.3l-3.5,12.4zm48.6,-3.8c-0.3,1 -0.7,2.3 -0.7,3.3c0,0.9 0.5,1.3 1.5,1.3c2.3,0 6.2,-5 7.6,-7l1.8,1.2c-2.8,4.2 -9,11.4 -14.4,11.4c-2.8,0 -4.8,-1.7 -4.8,-4.7c0,-1.6 1.3,-5.4 1.7,-7l12.8,-45.1c1.4,-5.1 2.1,-7 2.1,-8.4c0,-2.4 -2.4,-2.8 -4.3,-2.8c-1,0 -2,0.2 -3,0.4l0,-2l16.2,-2.7l1,0l-17.5,62.1zm17.2,-5.5c0,-15 14.2,-30.8 29.5,-30.8c9.3,0 15,7.1 15,16c0,14.8 -13.3,30.5 -28.6,30.5c-9.4,0 -15.9,-6.3 -15.9,-15.7zm36.2,-18.8c0,-5 -2.7,-9.5 -8.2,-9.5c-11.2,0 -19.7,20.3 -19.7,31.6c0,5.6 3,10 8.8,10c9.6,0 19.1,-17.8 19.1,-32l0,-0.1zm26.4,10l0.2,0.2c3.7,-7.2 12.6,-22.2 22,-22.2c3.4,0 5.7,2.6 5.7,5.9c0,2.2 -0.8,5.4 -1.4,7.5l-3.2,10.8l0.2,0.2c3.9,-7.2 13.5,-24.4 23,-24.4c3.5,0 5.8,2.8 5.8,6c0,4 -0.7,6 -4.8,19.9c-1.7,5.3 -4,12.6 -4,13.5c0,0.7 0.6,1.5 1.4,1.5c2,0 6,-5 7.2,-6.7l1.6,0.9c-2.7,4.5 -8.9,11.4 -13.7,11.4a4.1,4.1 0 0 1 -4.3,-4.3c0,-2.2 1.2,-6.5 4.6,-18c3.3,-11.4 4,-13.8 4,-15.7c0,-1.5 -0.6,-2.5 -2.4,-2.5c-6.4,0 -18.5,20.6 -21.9,31.1l-2.7,8.2l-7.4,0l8.2,-29c0.5,-2 1.7,-5.7 1.7,-7.7c0,-1.3 -0.4,-2.6 -2.6,-2.6c-5.3,0 -17.7,17.3 -22.3,34l-1.4,5.3l-7.5,0l8.4,-29.8c1.4,-5.1 2.1,-7 2.1,-8.4c0,-2.3 -2.4,-2.8 -4.3,-2.8c-1,0 -2,0.2 -3,0.5l0,-2l16.3,-2.8l1,0l-6.5,22zm95.9,13.8c-0.3,1.3 -0.8,2.9 -0.8,4.2c0,0.7 0.4,1.5 1.2,1.5c2.3,0 5.4,-4.5 7.2,-6.8l1.6,1.2c-3,4.3 -8,10.6 -13.8,10.6c-2.6,0 -4.3,-1.4 -4.3,-4c0,-2.3 1.4,-8.8 2,-10l-0.2,-0.2c-4.5,6 -11.2,14.2 -19.6,14.2c-6.2,0 -9.1,-6.3 -9.1,-11.5c0,-16.7 16.3,-35 28,-35c4.5,0 7.3,2.7 8.2,6.8l0.2,0l1.7,-5.5l7.8,-1.3l-10.1,35.8zm-7.8,-33.3c-8.8,0 -19.8,19 -19.8,30.7c0,3.3 1.9,7.4 5.8,7.4c6.2,0 20.3,-13.4 20.3,-30c0,-4.3 -1.4,-8.1 -6.3,-8.1zm43.4,-1.2l8,0l-0.9,3.2l-7.8,0l-8.2,28.2c-0.5,1.8 -1.7,5.5 -1.7,7.4c0,0.7 0.3,1.7 1.3,1.7c3.1,0 7,-5.8 8.4,-7.9l1.8,1.2c-2.8,4.2 -9,11.4 -14.4,11.4c-2.8,0 -4.8,-1.7 -4.8,-4.7c0,-1.6 1,-5.5 1.3,-7l8.6,-30.3l-7.5,0l0.5,-2c8.4,-2 12,-6.5 17.3,-14.9l2.1,0l-3.9,13.7l-0.1,0zm20.1,35c-0.3,1 -0.7,2.3 -0.7,3.3c0,0.9 0.5,1.3 1.4,1.3c2.4,0 6.3,-5 7.7,-7l1.8,1.2c-2.8,4.2 -9,11.4 -14.4,11.4c-2.8,0 -4.8,-1.7 -4.8,-4.7c0,-1.6 1.2,-5.4 1.7,-7l5.4,-19.3c1.4,-5.1 2.1,-7 2.1,-8.4c0,-2.3 -2.4,-2.8 -4.3,-2.8c-1,0 -2,0.2 -3,0.5l0,-2l16.2,-2.8l1,0l-10,36.3l-0.1,0zm9.3,-56.1a5,5 0 0 1 5,5a5,5 0 0 1 -5,5a5,5 0 0 1 -5,-5a5,5 0 0 1 5,-5zm38.1,75.5c-0.5,1.7 -1.4,4.5 -1.4,6.2c0,3.4 4.5,3.4 6.6,3.4l-0.5,1.8l-23.6,0l0.5,-1.8c6.8,0 8.4,-1.2 10.5,-8.2l7.7,-26.6l-0.2,-0.2c-4,6.1 -11.6,16.2 -20.4,16.2c-6.6,0 -9.4,-7.3 -9.4,-12.9c0,-14.6 16,-33.6 28.8,-33.6c3.8,0 6.8,2.4 8.1,7.3l0.2,0l1.5,-6l7.7,-1.3l-16,55.7l-0.1,0zm4.8,-46c0,-3.8 -2.8,-7.2 -6.5,-7.2c-9.7,0 -20.2,19.5 -20.2,30.2c0,3.4 1.5,7.9 5.5,7.9c7.5,0 21.2,-17.6 21.2,-31l0,0.1zm51.8,20.1c-0.6,2.1 -2.4,7.8 -2.4,9.6c0,0.8 0.2,1.5 1.3,1.5c2,0 3.7,-1.7 7,-6.6l1.6,1c-2.6,4.3 -8,11.2 -13.4,11.2c-2.4,0 -4.1,-1.3 -4.1,-4c0,-4 1.5,-9.7 5,-20l-0.2,-0.1c-4.3,7.1 -14.6,24.1 -24.5,24.1c-3.5,0 -5.5,-2.6 -5.5,-6c0,-3.5 1.5,-8.8 2.5,-12.4c4.5,-15.7 5.5,-18.2 5.5,-20.9c0,-0.7 -0.3,-1.5 -1.3,-1.5c-2.6,0 -5.2,4.3 -6.8,6.1l-1.6,-1c2.6,-4.2 8.5,-10.8 13.7,-10.8c2.7,0 4.3,1.7 4.3,4.3c0,2.3 -0.4,4 -5,20.5c-1.7,5.8 -3.6,10.5 -3.6,13.5c0,1.5 1,2.3 2.3,2.3c5.1,0 19,-14 24.7,-34.8l1.2,-4.5l8.1,-1.3l-8.8,29.8zm51.6,5c-6,6 -13.8,11.7 -22.7,11.7c-12,0 -14.6,-11 -14.6,-15c0,-15 14.9,-31.5 30.2,-31.5c4.8,0 10.7,1.6 10.7,7.4c0,10.9 -16.2,17.6 -31.9,19.2c-0.2,1.2 -0.4,2.6 -0.4,4c0,6.3 5.2,10.7 11.2,10.7c6,0 10.7,-3.5 16.5,-8l1,1.5zm-3.6,-27.5c0,-3 -2,-4.8 -5,-4.8c-9.8,0 -17.6,12.8 -19.2,21.5c17.5,-2 24.2,-11.3 24.2,-16.7z"/>
   </g>
   <text transform="rotate(-19.1646 391.056 25.3826)" font-weight="bold" font-style="normal" xml:space="preserve" text-anchor="start" font-family="Noto Sans JP" font-size="24" id="svg_1" y="33.52367" x="373.71685" stroke-width="0" stroke="#000" fill="#fff">pas</text>
  </g>
 </g>
</svg>